<?xml version="1.0" encoding="UTF-8" standalone="no"?>
<!DOCTYPE svg PUBLIC "-//W3C//DTD SVG 1.1//EN"
 "http://www.w3.org/Graphics/SVG/1.1/DTD/svg11.dtd">
<!-- Generated by graphviz version 2.40.1 (20161225.0304)
 -->
<!-- Title: orphans Pages: 1 -->
<svg width="334pt" height="769pt"
 viewBox="0.00 0.00 334.00 769.00" xmlns="http://www.w3.org/2000/svg" xmlns:xlink="http://www.w3.org/1999/xlink">
<g id="graph0" class="graph" transform="scale(1 1) rotate(0) translate(4 765)">
<title>orphans</title>
<polygon fill="#ffffff" stroke="transparent" points="-4,4 -4,-765 330,-765 330,4 -4,4"/>
<!-- hmpps_domain_event -->
<g id="node1" class="node">
<title>hmpps_domain_event</title>
<g id="a_node1"><a xlink:href="../../tables/hmpps_domain_event.html" xlink:title="hmpps_domain_event" target="_top">
<polygon fill="#ffffff" stroke="transparent" points="28.5,-4 28.5,-182 297.5,-182 297.5,-4 28.5,-4"/>
<polygon fill="#f5f5f5" stroke="transparent" points="31,-157 31,-180 296,-180 296,-157 31,-157"/>
<polygon fill="none" stroke="#000000" points="31,-157 31,-180 296,-180 296,-157 31,-157"/>
<text text-anchor="start" x="36" y="-165.6" font-family="Helvetica,sans-Serif" font-weight="bold" font-size="11.00" fill="#000000">hmpps_domain_event</text>
<text text-anchor="start" x="261.0437" y="-165.1" font-family="Helvetica,sans-Serif" font-size="11.00" fill="#000000">[table]</text>
<polygon fill="none" stroke="#000000" points="31,-135 31,-157 197,-157 197,-135 31,-135"/>
<image xlink:href="../../images/primaryKeys.png" width="11px" height="12px" preserveAspectRatio="xMinYMin meet" x="36" y="-152"/>
<text text-anchor="start" x="51" y="-142.1" font-family="Helvetica,sans-Serif" font-size="11.00" fill="#000000">id</text>
<polygon fill="none" stroke="#000000" points="197,-135 197,-157 296,-157 296,-135 197,-135"/>
<text text-anchor="start" x="200" y="-142.7" font-family="Helvetica,sans-Serif" font-size="11.00" fill="#000000">uuid[2147483647]</text>
<polygon fill="none" stroke="#000000" points="31,-113 31,-135 197,-135 197,-113 31,-113"/>
<text text-anchor="start" x="51" y="-120.1" font-family="Helvetica,sans-Serif" font-size="11.00" fill="#000000">version</text>
<polygon fill="none" stroke="#000000" points="197,-113 197,-135 296,-135 296,-113 197,-113"/>
<text text-anchor="start" x="200" y="-120.7" font-family="Helvetica,sans-Serif" font-size="11.00" fill="#000000">int4[10]</text>
<polygon fill="none" stroke="#000000" points="31,-91 31,-113 197,-113 197,-91 31,-91"/>
<text text-anchor="start" x="51" y="-98.1" font-family="Helvetica,sans-Serif" font-size="11.00" fill="#000000">entity_id</text>
<polygon fill="none" stroke="#000000" points="197,-91 197,-113 296,-113 296,-91 197,-91"/>
<text text-anchor="start" x="200" y="-98.7" font-family="Helvetica,sans-Serif" font-size="11.00" fill="#000000">uuid[2147483647]</text>
<polygon fill="none" stroke="#000000" points="31,-69 31,-91 197,-91 197,-69 31,-69"/>
<text text-anchor="start" x="51" y="-76.1" font-family="Helvetica,sans-Serif" font-size="11.00" fill="#000000">event_type</text>
<polygon fill="none" stroke="#000000" points="197,-69 197,-91 296,-91 296,-69 197,-69"/>
<text text-anchor="start" x="200" y="-76.7" font-family="Helvetica,sans-Serif" font-size="11.00" fill="#000000">text[2147483647]</text>
<polygon fill="none" stroke="#000000" points="31,-47 31,-69 197,-69 197,-47 31,-47"/>
<text text-anchor="start" x="51" y="-54.1" font-family="Helvetica,sans-Serif" font-size="11.00" fill="#000000">event</text>
<polygon fill="none" stroke="#000000" points="197,-47 197,-69 296,-69 296,-47 197,-47"/>
<text text-anchor="start" x="199.7258" y="-54.7" font-family="Helvetica,sans-Serif" font-size="11.00" fill="#000000">jsonb[2147483647]</text>
<polygon fill="none" stroke="#000000" points="31,-25 31,-47 197,-47 197,-25 31,-25"/>
<text text-anchor="start" x="51" y="-32.1" font-family="Helvetica,sans-Serif" font-size="11.00" fill="#000000">published</text>
<polygon fill="none" stroke="#000000" points="197,-25 197,-47 296,-47 296,-25 197,-25"/>
<text text-anchor="start" x="200" y="-32.7" font-family="Helvetica,sans-Serif" font-size="11.00" fill="#000000">bool[1]</text>
<polygon fill="#ffffff" stroke="transparent" points="31,-6 31,-25 118,-25 118,-6 31,-6"/>
<polygon fill="none" stroke="#000000" points="31,-6 31,-25 118,-25 118,-6 31,-6"/>
<text text-anchor="start" x="34" y="-12.1" font-family="Helvetica,sans-Serif" font-size="11.00" fill="#000000">&lt; 0</text>
<polygon fill="#ffffff" stroke="transparent" points="118,-6 118,-25 197,-25 197,-6 118,-6"/>
<polygon fill="none" stroke="#000000" points="118,-6 118,-25 197,-25 197,-6 118,-6"/>
<text text-anchor="start" x="187.8862" y="-12.1" font-family="Helvetica,sans-Serif" font-size="11.00" fill="#000000"> &#160;</text>
<polygon fill="#ffffff" stroke="transparent" points="197,-6 197,-25 296,-25 296,-6 197,-6"/>
<polygon fill="none" stroke="#000000" points="197,-6 197,-25 296,-25 296,-6 197,-6"/>
<text text-anchor="start" x="277.4053" y="-12.1" font-family="Helvetica,sans-Serif" font-size="11.00" fill="#000000">0 &gt;</text>
<polygon fill="none" stroke="#000000" stroke-width="2" points="29.5,-5 29.5,-181 296.5,-181 296.5,-5 29.5,-5"/>
</a>
</g>
</g>
<!-- hmpps_domain_event_audit -->
<g id="node2" class="node">
<title>hmpps_domain_event_audit</title>
<g id="a_node2"><a xlink:href="../../tables/hmpps_domain_event_audit.html" xlink:title="hmpps_domain_event_audit" target="_top">
<polygon fill="#ffffff" stroke="transparent" points="8,-203 8,-425 318,-425 318,-203 8,-203"/>
<polygon fill="#f5f5f5" stroke="transparent" points="10,-400 10,-423 316,-423 316,-400 10,-400"/>
<polygon fill="none" stroke="#000000" points="10,-400 10,-423 316,-423 316,-400 10,-400"/>
<text text-anchor="start" x="15" y="-408.6" font-family="Helvetica,sans-Serif" font-weight="bold" font-size="11.00" fill="#000000">hmpps_domain_event_audit</text>
<text text-anchor="start" x="281.0437" y="-408.1" font-family="Helvetica,sans-Serif" font-size="11.00" fill="#000000">[table]</text>
<polygon fill="none" stroke="#000000" points="10,-378 10,-400 217,-400 217,-378 10,-378"/>
<image xlink:href="../../images/primaryKeys.png" width="11px" height="12px" preserveAspectRatio="xMinYMin meet" x="15" y="-395"/>
<text text-anchor="start" x="30" y="-385.1" font-family="Helvetica,sans-Serif" font-size="11.00" fill="#000000">rev_id</text>
<polygon fill="none" stroke="#000000" points="217,-378 217,-400 316,-400 316,-378 217,-378"/>
<text text-anchor="start" x="220" y="-385.7" font-family="Helvetica,sans-Serif" font-size="11.00" fill="#000000">int8[19]</text>
<polygon fill="none" stroke="#000000" points="10,-356 10,-378 217,-378 217,-356 10,-356"/>
<text text-anchor="start" x="30" y="-363.1" font-family="Helvetica,sans-Serif" font-size="11.00" fill="#000000">rev_type</text>
<polygon fill="none" stroke="#000000" points="217,-356 217,-378 316,-378 316,-356 217,-356"/>
<text text-anchor="start" x="220" y="-363.7" font-family="Helvetica,sans-Serif" font-size="11.00" fill="#000000">int2[5]</text>
<polygon fill="none" stroke="#000000" points="10,-334 10,-356 217,-356 217,-334 10,-334"/>
<image xlink:href="../../images/primaryKeys.png" width="11px" height="12px" preserveAspectRatio="xMinYMin meet" x="15" y="-351"/>
<text text-anchor="start" x="30" y="-341.1" font-family="Helvetica,sans-Serif" font-size="11.00" fill="#000000">id</text>
<polygon fill="none" stroke="#000000" points="217,-334 217,-356 316,-356 316,-334 217,-334"/>
<text text-anchor="start" x="220" y="-341.7" font-family="Helvetica,sans-Serif" font-size="11.00" fill="#000000">uuid[2147483647]</text>
<polygon fill="none" stroke="#000000" points="10,-312 10,-334 217,-334 217,-312 10,-312"/>
<text text-anchor="start" x="30" y="-319.1" font-family="Helvetica,sans-Serif" font-size="11.00" fill="#000000">version</text>
<polygon fill="none" stroke="#000000" points="217,-312 217,-334 316,-334 316,-312 217,-312"/>
<text text-anchor="start" x="220" y="-319.7" font-family="Helvetica,sans-Serif" font-size="11.00" fill="#000000">int4[10]</text>
<polygon fill="#ffffff" stroke="transparent" points="10,-290 10,-312 217,-312 217,-290 10,-290"/>
<polygon fill="none" stroke="#000000" points="10,-290 10,-312 217,-312 217,-290 10,-290"/>
<text text-anchor="start" x="30" y="-297.1" font-family="Helvetica,sans-Serif" font-size="11.00" fill="#000000">entity_id</text>
<polygon fill="none" stroke="#000000" points="217,-290 217,-312 316,-312 316,-290 217,-290"/>
<text text-anchor="start" x="220" y="-297.7" font-family="Helvetica,sans-Serif" font-size="11.00" fill="#000000">uuid[2147483647]</text>
<polygon fill="#ffffff" stroke="transparent" points="10,-268 10,-290 217,-290 217,-268 10,-268"/>
<polygon fill="none" stroke="#000000" points="10,-268 10,-290 217,-290 217,-268 10,-268"/>
<text text-anchor="start" x="30" y="-275.1" font-family="Helvetica,sans-Serif" font-size="11.00" fill="#000000">event_type</text>
<polygon fill="none" stroke="#000000" points="217,-268 217,-290 316,-290 316,-268 217,-268"/>
<text text-anchor="start" x="220" y="-275.7" font-family="Helvetica,sans-Serif" font-size="11.00" fill="#000000">text[2147483647]</text>
<polygon fill="none" stroke="#000000" points="10,-246 10,-268 217,-268 217,-246 10,-246"/>
<text text-anchor="start" x="30" y="-253.1" font-family="Helvetica,sans-Serif" font-size="11.00" fill="#000000">event</text>
<polygon fill="none" stroke="#000000" points="217,-246 217,-268 316,-268 316,-246 217,-246"/>
<text text-anchor="start" x="219.7258" y="-253.7" font-family="Helvetica,sans-Serif" font-size="11.00" fill="#000000">jsonb[2147483647]</text>
<polygon fill="none" stroke="#000000" points="10,-224 10,-246 217,-246 217,-224 10,-224"/>
<text text-anchor="start" x="30" y="-231.1" font-family="Helvetica,sans-Serif" font-size="11.00" fill="#000000">published</text>
<polygon fill="none" stroke="#000000" points="217,-224 217,-246 316,-246 316,-224 217,-224"/>
<text text-anchor="start" x="220" y="-231.7" font-family="Helvetica,sans-Serif" font-size="11.00" fill="#000000">bool[1]</text>
<polygon fill="#ffffff" stroke="transparent" points="10,-205 10,-224 118,-224 118,-205 10,-205"/>
<polygon fill="none" stroke="#000000" points="10,-205 10,-224 118,-224 118,-205 10,-205"/>
<text text-anchor="start" x="13" y="-211.1" font-family="Helvetica,sans-Serif" font-size="11.00" fill="#000000">&lt; 0</text>
<polygon fill="#ffffff" stroke="transparent" points="118,-205 118,-224 217,-224 217,-205 118,-205"/>
<polygon fill="none" stroke="#000000" points="118,-205 118,-224 217,-224 217,-205 118,-205"/>
<text text-anchor="start" x="207.8862" y="-211.1" font-family="Helvetica,sans-Serif" font-size="11.00" fill="#000000"> &#160;</text>
<polygon fill="#ffffff" stroke="transparent" points="217,-205 217,-224 316,-224 316,-205 217,-205"/>
<polygon fill="none" stroke="#000000" points="217,-205 217,-224 316,-224 316,-205 217,-205"/>
<text text-anchor="start" x="297.4053" y="-211.1" font-family="Helvetica,sans-Serif" font-size="11.00" fill="#000000">0 &gt;</text>
<polygon fill="none" stroke="#000000" stroke-width="2" points="9,-204 9,-424 317,-424 317,-204 9,-204"/>
</a>
</g>
</g>
<!-- migration_system_audit -->
<g id="node3" class="node">
<title>migration_system_audit</title>
<g id="a_node3"><a xlink:href="../../tables/migration_system_audit.html" xlink:title="migration_system_audit" target="_top">
<polygon fill="#ffffff" stroke="transparent" points="23,-446 23,-602 303,-602 303,-446 23,-446"/>
<polygon fill="#f5f5f5" stroke="transparent" points="25,-577 25,-600 301,-600 301,-577 25,-577"/>
<polygon fill="none" stroke="#000000" points="25,-577 25,-600 301,-600 301,-577 25,-577"/>
<text text-anchor="start" x="30" y="-585.6" font-family="Helvetica,sans-Serif" font-weight="bold" font-size="11.00" fill="#000000">migration_system_audit</text>
<text text-anchor="start" x="266.0437" y="-585.1" font-family="Helvetica,sans-Serif" font-size="11.00" fill="#000000">[table]</text>
<polygon fill="none" stroke="#000000" points="25,-555 25,-577 207,-577 207,-555 25,-555"/>
<image xlink:href="../../images/primaryKeys.png" width="11px" height="12px" preserveAspectRatio="xMinYMin meet" x="30" y="-572"/>
<text text-anchor="start" x="45" y="-562.1" font-family="Helvetica,sans-Serif" font-size="11.00" fill="#000000">id</text>
<polygon fill="none" stroke="#000000" points="207,-555 207,-577 301,-577 301,-555 207,-555"/>
<text text-anchor="start" x="209.9758" y="-562.7" font-family="Helvetica,sans-Serif" font-size="11.00" fill="#000000">uuid[2147483647]</text>
<polygon fill="none" stroke="#000000" points="25,-533 25,-555 207,-555 207,-533 25,-533"/>
<text text-anchor="start" x="45" y="-540.1" font-family="Helvetica,sans-Serif" font-size="11.00" fill="#000000">created_at</text>
<polygon fill="none" stroke="#000000" points="207,-533 207,-555 301,-555 301,-533 207,-533"/>
<text text-anchor="start" x="210" y="-540.7" font-family="Helvetica,sans-Serif" font-size="11.00" fill="#000000">timestamp[29,6]</text>
<polygon fill="none" stroke="#000000" points="25,-511 25,-533 207,-533 207,-511 25,-511"/>
<text text-anchor="start" x="45" y="-518.1" font-family="Helvetica,sans-Serif" font-size="11.00" fill="#000000">created_by</text>
<polygon fill="none" stroke="#000000" points="207,-511 207,-533 301,-533 301,-511 207,-511"/>
<text text-anchor="start" x="210" y="-518.7" font-family="Helvetica,sans-Serif" font-size="11.00" fill="#000000">varchar[64]</text>
<polygon fill="none" stroke="#000000" points="25,-489 25,-511 207,-511 207,-489 25,-489"/>
<text text-anchor="start" x="45" y="-496.1" font-family="Helvetica,sans-Serif" font-size="11.00" fill="#000000">modified_at</text>
<polygon fill="none" stroke="#000000" points="207,-489 207,-511 301,-511 301,-489 207,-489"/>
<text text-anchor="start" x="210" y="-496.7" font-family="Helvetica,sans-Serif" font-size="11.00" fill="#000000">timestamp[29,6]</text>
<polygon fill="none" stroke="#000000" points="25,-467 25,-489 207,-489 207,-467 25,-467"/>
<text text-anchor="start" x="45" y="-474.1" font-family="Helvetica,sans-Serif" font-size="11.00" fill="#000000">modified_by</text>
<polygon fill="none" stroke="#000000" points="207,-467 207,-489 301,-489 301,-467 207,-467"/>
<text text-anchor="start" x="210" y="-474.7" font-family="Helvetica,sans-Serif" font-size="11.00" fill="#000000">varchar[64]</text>
<polygon fill="#ffffff" stroke="transparent" points="25,-448 25,-467 120,-467 120,-448 25,-448"/>
<polygon fill="none" stroke="#000000" points="25,-448 25,-467 120,-467 120,-448 25,-448"/>
<text text-anchor="start" x="28" y="-454.1" font-family="Helvetica,sans-Serif" font-size="11.00" fill="#000000">&lt; 0</text>
<polygon fill="#ffffff" stroke="transparent" points="120,-448 120,-467 207,-467 207,-448 120,-448"/>
<polygon fill="none" stroke="#000000" points="120,-448 120,-467 207,-467 207,-448 120,-448"/>
<text text-anchor="start" x="197.8862" y="-454.1" font-family="Helvetica,sans-Serif" font-size="11.00" fill="#000000"> &#160;</text>
<polygon fill="#ffffff" stroke="transparent" points="207,-448 207,-467 301,-467 301,-448 207,-448"/>
<polygon fill="none" stroke="#000000" points="207,-448 207,-467 301,-467 301,-448 207,-448"/>
<text text-anchor="start" x="282.4053" y="-454.1" font-family="Helvetica,sans-Serif" font-size="11.00" fill="#000000">0 &gt;</text>
<polygon fill="none" stroke="#000000" stroke-width="2" points="24,-447 24,-601 302,-601 302,-447 24,-447"/>
</a>
</g>
</g>
<!-- reconciliation_history -->
<g id="node4" class="node">
<title>reconciliation_history</title>
<g id="a_node4"><a xlink:href="../../tables/reconciliation_history.html" xlink:title="reconciliation_history" target="_top">
<polygon fill="#ffffff" stroke="transparent" points="31,-623 31,-757 295,-757 295,-623 31,-623"/>
<polygon fill="#f5f5f5" stroke="transparent" points="33,-732 33,-755 293,-755 293,-732 33,-732"/>
<polygon fill="none" stroke="#000000" points="33,-732 33,-755 293,-755 293,-732 33,-732"/>
<text text-anchor="start" x="38" y="-740.6" font-family="Helvetica,sans-Serif" font-weight="bold" font-size="11.00" fill="#000000">reconciliation_history</text>
<text text-anchor="start" x="258.0437" y="-740.1" font-family="Helvetica,sans-Serif" font-size="11.00" fill="#000000">[table]</text>
<polygon fill="none" stroke="#000000" points="33,-710 33,-732 199,-732 199,-710 33,-710"/>
<image xlink:href="../../images/primaryKeys.png" width="11px" height="12px" preserveAspectRatio="xMinYMin meet" x="38" y="-727"/>
<text text-anchor="start" x="53" y="-717.1" font-family="Helvetica,sans-Serif" font-size="11.00" fill="#000000">id</text>
<polygon fill="none" stroke="#000000" points="199,-710 199,-732 293,-732 293,-710 199,-710"/>
<text text-anchor="start" x="201.9758" y="-717.7" font-family="Helvetica,sans-Serif" font-size="11.00" fill="#000000">uuid[2147483647]</text>
<polygon fill="#ffffff" stroke="transparent" points="33,-688 33,-710 199,-710 199,-688 33,-688"/>
<polygon fill="none" stroke="#000000" points="33,-688 33,-710 199,-710 199,-688 33,-688"/>
<text text-anchor="start" x="53" y="-695.1" font-family="Helvetica,sans-Serif" font-size="11.00" fill="#000000">type</text>
<polygon fill="none" stroke="#000000" points="199,-688 199,-710 293,-710 293,-688 199,-688"/>
<text text-anchor="start" x="202" y="-695.7" font-family="Helvetica,sans-Serif" font-size="11.00" fill="#000000">text[2147483647]</text>
<polygon fill="#ffffff" stroke="transparent" points="33,-666 33,-688 199,-688 199,-666 33,-666"/>
<polygon fill="none" stroke="#000000" points="33,-666 33,-688 199,-688 199,-666 33,-666"/>
<text text-anchor="start" x="53" y="-673.1" font-family="Helvetica,sans-Serif" font-size="11.00" fill="#000000">requested_on</text>
<polygon fill="none" stroke="#000000" points="199,-666 199,-688 293,-688 293,-666 199,-666"/>
<text text-anchor="start" x="202" y="-673.7" font-family="Helvetica,sans-Serif" font-size="11.00" fill="#000000">date[13]</text>
<polygon fill="none" stroke="#000000" points="33,-644 33,-666 199,-666 199,-644 33,-644"/>
<text text-anchor="start" x="53" y="-651.1" font-family="Helvetica,sans-Serif" font-size="11.00" fill="#000000">version</text>
<polygon fill="none" stroke="#000000" points="199,-644 199,-666 293,-666 293,-644 199,-644"/>
<text text-anchor="start" x="202" y="-651.7" font-family="Helvetica,sans-Serif" font-size="11.00" fill="#000000">int4[10]</text>
<polygon fill="#ffffff" stroke="transparent" points="33,-625 33,-644 120,-644 120,-625 33,-625"/>
<polygon fill="none" stroke="#000000" points="33,-625 33,-644 120,-644 120,-625 33,-625"/>
<text text-anchor="start" x="36" y="-631.1" font-family="Helvetica,sans-Serif" font-size="11.00" fill="#000000">&lt; 0</text>
<polygon fill="#ffffff" stroke="transparent" points="120,-625 120,-644 199,-644 199,-625 120,-625"/>
<polygon fill="none" stroke="#000000" points="120,-625 120,-644 199,-644 199,-625 120,-625"/>
<text text-anchor="start" x="189.8862" y="-631.1" font-family="Helvetica,sans-Serif" font-size="11.00" fill="#000000"> &#160;</text>
<polygon fill="#ffffff" stroke="transparent" points="199,-625 199,-644 293,-644 293,-625 199,-625"/>
<polygon fill="none" stroke="#000000" points="199,-625 199,-644 293,-644 293,-625 199,-625"/>
<text text-anchor="start" x="274.4053" y="-631.1" font-family="Helvetica,sans-Serif" font-size="11.00" fill="#000000">0 &gt;</text>
<polygon fill="none" stroke="#000000" stroke-width="2" points="32,-624 32,-756 294,-756 294,-624 32,-624"/>
</a>
</g>
</g>
</g>
</svg>
