<?xml version="1.0" encoding="UTF-8" standalone="no"?>
<!DOCTYPE svg PUBLIC "-//W3C//DTD SVG 1.1//EN"
 "http://www.w3.org/Graphics/SVG/1.1/DTD/svg11.dtd">
<!-- Generated by graphviz version 2.40.1 (20161225.0304)
 -->
<!-- Title: oneDegreeRelationshipsDiagram Pages: 1 -->
<svg width="586pt" height="347pt"
 viewBox="0.00 0.00 586.00 347.20" xmlns="http://www.w3.org/2000/svg" xmlns:xlink="http://www.w3.org/1999/xlink">
<g id="graph0" class="graph" transform="scale(1 1) rotate(0) translate(4 343.2)">
<title>oneDegreeRelationshipsDiagram</title>
<polygon fill="#ffffff" stroke="transparent" points="-4,4 -4,-343.2 582,-343.2 582,4 -4,4"/>
<text text-anchor="middle" x="72.4936" y="-7.3" font-family="Helvetica,sans-Serif" font-size="11.00" fill="#000000">Generated by SchemaSpy</text>
<!-- court_appearance_audit -->
<g id="node1" class="node">
<title>court_appearance_audit</title>
<g id="a_node1"><a xlink:href="../../tables/court_appearance_audit.html" xlink:title="court_appearance_audit" target="_top">
<polygon fill="#ffffff" stroke="transparent" points="331,-186.2 331,-335.2 531,-335.2 531,-186.2 331,-186.2"/>
<polygon fill="#f5f5f5" stroke="transparent" points="331,-311.7 331,-334.7 531,-334.7 531,-311.7 331,-311.7"/>
<polygon fill="none" stroke="#000000" points="331,-311.7 331,-334.7 531,-334.7 531,-311.7 331,-311.7"/>
<text text-anchor="start" x="336" y="-320.3" font-family="Helvetica,sans-Serif" font-weight="bold" font-size="11.00" fill="#000000">court_appearance_audit</text>
<text text-anchor="start" x="496.5219" y="-319.8" font-family="Helvetica,sans-Serif" font-size="11.00" fill="#000000">[table]</text>
<polygon fill="none" stroke="#000000" points="331,-289.7 331,-311.7 531,-311.7 531,-289.7 331,-289.7"/>
<image xlink:href="../../images/primaryKeys.png" width="11px" height="12px" preserveAspectRatio="xMinYMin meet" x="336" y="-306.7"/>
<text text-anchor="start" x="360" y="-296.8" font-family="Helvetica,sans-Serif" font-size="11.00" fill="#000000">rev_id</text>
<polygon fill="none" stroke="#000000" points="331,-267.7 331,-289.7 531,-289.7 531,-267.7 331,-267.7"/>
<image xlink:href="../../images/primaryKeys.png" width="11px" height="12px" preserveAspectRatio="xMinYMin meet" x="336" y="-284.7"/>
<text text-anchor="start" x="360" y="-274.8" font-family="Helvetica,sans-Serif" font-size="11.00" fill="#000000">id</text>
<polygon fill="none" stroke="#000000" points="331,-245.7 331,-267.7 531,-267.7 531,-245.7 331,-245.7"/>
<image xlink:href="../../images/foreignKeys.png" width="11px" height="12px" preserveAspectRatio="xMinYMin meet" x="336" y="-262.7"/>
<text text-anchor="start" x="360" y="-252.8" font-family="Helvetica,sans-Serif" font-size="11.00" fill="#000000">person_identifier</text>
<polygon fill="none" stroke="#000000" points="331,-223.7 331,-245.7 531,-245.7 531,-223.7 331,-223.7"/>
<image xlink:href="../../images/foreignKeys.png" width="11px" height="12px" preserveAspectRatio="xMinYMin meet" x="336" y="-240.7"/>
<text text-anchor="start" x="360" y="-230.8" font-family="Helvetica,sans-Serif" font-size="11.00" fill="#000000">legacy_id</text>
<polygon fill="none" stroke="#000000" points="331,-204.7 331,-223.7 531,-223.7 531,-204.7 331,-204.7"/>
<text text-anchor="start" x="334" y="-210.8" font-family="Helvetica,sans-Serif" font-size="11.00" fill="#000000">...</text>
<polygon fill="#ffffff" stroke="transparent" points="331,-185.7 331,-204.7 429,-204.7 429,-185.7 331,-185.7"/>
<polygon fill="none" stroke="#000000" points="331,-185.7 331,-204.7 429,-204.7 429,-185.7 331,-185.7"/>
<text text-anchor="start" x="334" y="-191.8" font-family="Helvetica,sans-Serif" font-size="11.00" fill="#000000">&lt; 1</text>
<polygon fill="#ffffff" stroke="transparent" points="429,-185.7 429,-204.7 480,-204.7 480,-185.7 429,-185.7"/>
<polygon fill="none" stroke="#000000" points="429,-185.7 429,-204.7 480,-204.7 480,-185.7 429,-185.7"/>
<text text-anchor="start" x="470.8862" y="-191.8" font-family="Helvetica,sans-Serif" font-size="11.00" fill="#000000"> &#160;</text>
<polygon fill="#ffffff" stroke="transparent" points="480,-185.7 480,-204.7 531,-204.7 531,-185.7 480,-185.7"/>
<polygon fill="none" stroke="#000000" points="480,-185.7 480,-204.7 531,-204.7 531,-185.7 480,-185.7"/>
<text text-anchor="start" x="521.8862" y="-191.8" font-family="Helvetica,sans-Serif" font-size="11.00" fill="#000000"> &#160;</text>
</a>
</g>
</g>
<!-- audit_revision -->
<g id="node2" class="node">
<title>audit_revision</title>
<g id="a_node2"><a xlink:href="../../tables/audit_revision.html" xlink:title="audit_revision" target="_top">
<polygon fill="#ffffff" stroke="transparent" points="8,-51.7 8,-251.7 243,-251.7 243,-51.7 8,-51.7"/>
<polygon fill="#f5f5f5" stroke="transparent" points="10.5,-226.7 10.5,-249.7 241.5,-249.7 241.5,-226.7 10.5,-226.7"/>
<polygon fill="none" stroke="#000000" points="10.5,-226.7 10.5,-249.7 241.5,-249.7 241.5,-226.7 10.5,-226.7"/>
<text text-anchor="start" x="15.5" y="-235.3" font-family="Helvetica,sans-Serif" font-weight="bold" font-size="11.00" fill="#000000">audit_revision</text>
<text text-anchor="start" x="206.5437" y="-234.8" font-family="Helvetica,sans-Serif" font-size="11.00" fill="#000000">[table]</text>
<polygon fill="none" stroke="#000000" points="10.5,-204.7 10.5,-226.7 144.5,-226.7 144.5,-204.7 10.5,-204.7"/>
<image xlink:href="../../images/primaryKeys.png" width="11px" height="12px" preserveAspectRatio="xMinYMin meet" x="15.5" y="-221.7"/>
<text text-anchor="start" x="30.5" y="-211.8" font-family="Helvetica,sans-Serif" font-size="11.00" fill="#000000">id</text>
<polygon fill="none" stroke="#000000" points="144.5,-204.7 144.5,-226.7 241.5,-226.7 241.5,-204.7 144.5,-204.7"/>
<text text-anchor="start" x="147.5" y="-212.4" font-family="Helvetica,sans-Serif" font-size="11.00" fill="#000000">bigserial[19]</text>
<polygon fill="none" stroke="#000000" points="10.5,-182.7 10.5,-204.7 144.5,-204.7 144.5,-182.7 10.5,-182.7"/>
<text text-anchor="start" x="30.5" y="-189.8" font-family="Helvetica,sans-Serif" font-size="11.00" fill="#000000">timestamp</text>
<polygon fill="none" stroke="#000000" points="144.5,-182.7 144.5,-204.7 241.5,-204.7 241.5,-182.7 144.5,-182.7"/>
<text text-anchor="start" x="147.5" y="-190.4" font-family="Helvetica,sans-Serif" font-size="11.00" fill="#000000">timestamp[29,6]</text>
<polygon fill="none" stroke="#000000" points="10.5,-160.7 10.5,-182.7 144.5,-182.7 144.5,-160.7 10.5,-160.7"/>
<text text-anchor="start" x="30.5" y="-167.8" font-family="Helvetica,sans-Serif" font-size="11.00" fill="#000000">source</text>
<polygon fill="none" stroke="#000000" points="144.5,-160.7 144.5,-182.7 241.5,-182.7 241.5,-160.7 144.5,-160.7"/>
<text text-anchor="start" x="147.5" y="-168.4" font-family="Helvetica,sans-Serif" font-size="11.00" fill="#000000">varchar[6]</text>
<polygon fill="none" stroke="#000000" points="10.5,-138.7 10.5,-160.7 144.5,-160.7 144.5,-138.7 10.5,-138.7"/>
<text text-anchor="start" x="30.5" y="-145.8" font-family="Helvetica,sans-Serif" font-size="11.00" fill="#000000">affected_entities</text>
<polygon fill="none" stroke="#000000" points="144.5,-138.7 144.5,-160.7 241.5,-160.7 241.5,-138.7 144.5,-138.7"/>
<text text-anchor="start" x="147.4468" y="-146.4" font-family="Helvetica,sans-Serif" font-size="11.00" fill="#000000">_text[2147483647]</text>
<polygon fill="none" stroke="#000000" points="10.5,-116.7 10.5,-138.7 144.5,-138.7 144.5,-116.7 10.5,-116.7"/>
<text text-anchor="start" x="30.5" y="-123.8" font-family="Helvetica,sans-Serif" font-size="11.00" fill="#000000">username</text>
<polygon fill="none" stroke="#000000" points="144.5,-116.7 144.5,-138.7 241.5,-138.7 241.5,-116.7 144.5,-116.7"/>
<text text-anchor="start" x="147.5" y="-124.4" font-family="Helvetica,sans-Serif" font-size="11.00" fill="#000000">varchar[64]</text>
<polygon fill="none" stroke="#000000" points="10.5,-94.7 10.5,-116.7 144.5,-116.7 144.5,-94.7 10.5,-94.7"/>
<text text-anchor="start" x="30.5" y="-101.8" font-family="Helvetica,sans-Serif" font-size="11.00" fill="#000000">caseload_id</text>
<polygon fill="none" stroke="#000000" points="144.5,-94.7 144.5,-116.7 241.5,-116.7 241.5,-94.7 144.5,-94.7"/>
<text text-anchor="start" x="147.5" y="-102.4" font-family="Helvetica,sans-Serif" font-size="11.00" fill="#000000">varchar[10]</text>
<polygon fill="none" stroke="#000000" points="10.5,-72.7 10.5,-94.7 144.5,-94.7 144.5,-72.7 10.5,-72.7"/>
<text text-anchor="start" x="30.5" y="-79.8" font-family="Helvetica,sans-Serif" font-size="11.00" fill="#000000">reason</text>
<polygon fill="none" stroke="#000000" points="144.5,-72.7 144.5,-94.7 241.5,-94.7 241.5,-72.7 144.5,-72.7"/>
<text text-anchor="start" x="147.5" y="-80.4" font-family="Helvetica,sans-Serif" font-size="11.00" fill="#000000">text[2147483647]</text>
<polygon fill="#ffffff" stroke="transparent" points="10.5,-53.7 10.5,-72.7 81.5,-72.7 81.5,-53.7 10.5,-53.7"/>
<polygon fill="none" stroke="#000000" points="10.5,-53.7 10.5,-72.7 81.5,-72.7 81.5,-53.7 10.5,-53.7"/>
<text text-anchor="start" x="13.5" y="-59.8" font-family="Helvetica,sans-Serif" font-size="11.00" fill="#000000">&lt; 0</text>
<polygon fill="#ffffff" stroke="transparent" points="81.5,-53.7 81.5,-72.7 144.5,-72.7 144.5,-53.7 81.5,-53.7"/>
<polygon fill="none" stroke="#000000" points="81.5,-53.7 81.5,-72.7 144.5,-72.7 144.5,-53.7 81.5,-53.7"/>
<text text-anchor="start" x="135.3862" y="-59.8" font-family="Helvetica,sans-Serif" font-size="11.00" fill="#000000"> &#160;</text>
<polygon fill="#ffffff" stroke="transparent" points="144.5,-53.7 144.5,-72.7 241.5,-72.7 241.5,-53.7 144.5,-53.7"/>
<polygon fill="none" stroke="#000000" points="144.5,-53.7 144.5,-72.7 241.5,-72.7 241.5,-53.7 144.5,-53.7"/>
<text text-anchor="start" x="222.9053" y="-59.8" font-family="Helvetica,sans-Serif" font-size="11.00" fill="#000000">2 &gt;</text>
<polygon fill="none" stroke="#000000" stroke-width="2" points="9,-52.7 9,-250.7 242,-250.7 242,-52.7 9,-52.7"/>
</a>
</g>
</g>
<!-- court_appearance_audit&#45;&gt;audit_revision -->
<g id="edge1" class="edge">
<title>court_appearance_audit:w&#45;&gt;audit_revision:e</title>
<path fill="none" stroke="#000000" d="M316.4512,-298.2478C279.4738,-284.3111 290.7867,-215.7 241.5,-215.7"/>
<polygon fill="#000000" stroke="#000000" points="323.1113,-299.3703 330.4016,-304.2499 327.0556,-300.0351 331,-300.7 331,-300.7 331,-300.7 327.0556,-300.0351 331.5984,-297.1501 323.1113,-299.3703 323.1113,-299.3703"/>
<ellipse fill="none" stroke="#000000" cx="319.9558" cy="-298.8384" rx="3.2" ry="3.2"/>
</g>
<!-- court_appearance_movement_audit -->
<g id="node3" class="node">
<title>court_appearance_movement_audit</title>
<g id="a_node3"><a xlink:href="../../tables/court_appearance_movement_audit.html" xlink:title="court_appearance_movement_audit" target="_top">
<polygon fill="#ffffff" stroke="transparent" points="292,-38.2 292,-165.2 570,-165.2 570,-38.2 292,-38.2"/>
<polygon fill="#f5f5f5" stroke="transparent" points="292,-141.7 292,-164.7 570,-164.7 570,-141.7 292,-141.7"/>
<polygon fill="none" stroke="#000000" points="292,-141.7 292,-164.7 570,-164.7 570,-141.7 292,-141.7"/>
<text text-anchor="start" x="297" y="-150.3" font-family="Helvetica,sans-Serif" font-weight="bold" font-size="11.00" fill="#000000">court_appearance_movement_audit</text>
<text text-anchor="start" x="535.5219" y="-149.8" font-family="Helvetica,sans-Serif" font-size="11.00" fill="#000000">[table]</text>
<polygon fill="none" stroke="#000000" points="292,-119.7 292,-141.7 570,-141.7 570,-119.7 292,-119.7"/>
<image xlink:href="../../images/primaryKeys.png" width="11px" height="12px" preserveAspectRatio="xMinYMin meet" x="297" y="-136.7"/>
<text text-anchor="start" x="321" y="-126.8" font-family="Helvetica,sans-Serif" font-size="11.00" fill="#000000">rev_id</text>
<polygon fill="none" stroke="#000000" points="292,-97.7 292,-119.7 570,-119.7 570,-97.7 292,-97.7"/>
<image xlink:href="../../images/primaryKeys.png" width="11px" height="12px" preserveAspectRatio="xMinYMin meet" x="297" y="-114.7"/>
<text text-anchor="start" x="321" y="-104.8" font-family="Helvetica,sans-Serif" font-size="11.00" fill="#000000">id</text>
<polygon fill="none" stroke="#000000" points="292,-75.7 292,-97.7 570,-97.7 570,-75.7 292,-75.7"/>
<image xlink:href="../../images/foreignKeys.png" width="11px" height="12px" preserveAspectRatio="xMinYMin meet" x="297" y="-92.7"/>
<text text-anchor="start" x="321" y="-82.8" font-family="Helvetica,sans-Serif" font-size="11.00" fill="#000000">person_identifier</text>
<polygon fill="none" stroke="#000000" points="292,-56.7 292,-75.7 570,-75.7 570,-56.7 292,-56.7"/>
<text text-anchor="start" x="295" y="-62.8" font-family="Helvetica,sans-Serif" font-size="11.00" fill="#000000">...</text>
<polygon fill="#ffffff" stroke="transparent" points="292,-37.7 292,-56.7 429,-56.7 429,-37.7 292,-37.7"/>
<polygon fill="none" stroke="#000000" points="292,-37.7 292,-56.7 429,-56.7 429,-37.7 292,-37.7"/>
<text text-anchor="start" x="295" y="-43.8" font-family="Helvetica,sans-Serif" font-size="11.00" fill="#000000">&lt; 1</text>
<polygon fill="#ffffff" stroke="transparent" points="429,-37.7 429,-56.7 499,-56.7 499,-37.7 429,-37.7"/>
<polygon fill="none" stroke="#000000" points="429,-37.7 429,-56.7 499,-56.7 499,-37.7 429,-37.7"/>
<text text-anchor="start" x="489.8862" y="-43.8" font-family="Helvetica,sans-Serif" font-size="11.00" fill="#000000"> &#160;</text>
<polygon fill="#ffffff" stroke="transparent" points="499,-37.7 499,-56.7 570,-56.7 570,-37.7 499,-37.7"/>
<polygon fill="none" stroke="#000000" points="499,-37.7 499,-56.7 570,-56.7 570,-37.7 499,-37.7"/>
<text text-anchor="start" x="560.8862" y="-43.8" font-family="Helvetica,sans-Serif" font-size="11.00" fill="#000000"> &#160;</text>
</a>
</g>
</g>
<!-- court_appearance_movement_audit&#45;&gt;audit_revision -->
<g id="edge2" class="edge">
<title>court_appearance_movement_audit:w&#45;&gt;audit_revision:e</title>
<path fill="none" stroke="#000000" d="M278.1216,-135.032C256.76,-152.3534 279.4344,-215.7 241.5,-215.7"/>
<polygon fill="#000000" stroke="#000000" points="284.3634,-133.0837 293.0727,-134.1365 288.1817,-131.8919 292,-130.7 292,-130.7 292,-130.7 288.1817,-131.8919 290.9273,-127.2635 284.3634,-133.0837 284.3634,-133.0837"/>
<ellipse fill="none" stroke="#000000" cx="281.3087" cy="-134.0372" rx="3.2" ry="3.2"/>
</g>
</g>
</svg>
