<?xml version="1.0" encoding="UTF-8" standalone="no"?>
<!DOCTYPE svg PUBLIC "-//W3C//DTD SVG 1.1//EN"
 "http://www.w3.org/Graphics/SVG/1.1/DTD/svg11.dtd">
<!-- Generated by graphviz version 2.40.1 (20161225.0304)
 -->
<!-- Title: oneDegreeRelationshipsDiagramImplied Pages: 1 -->
<svg width="586pt" height="649pt"
 viewBox="0.00 0.00 586.00 649.20" xmlns="http://www.w3.org/2000/svg" xmlns:xlink="http://www.w3.org/1999/xlink">
<g id="graph0" class="graph" transform="scale(1 1) rotate(0) translate(4 645.2)">
<title>oneDegreeRelationshipsDiagramImplied</title>
<polygon fill="#ffffff" stroke="transparent" points="-4,4 -4,-645.2 582,-645.2 582,4 -4,4"/>
<text text-anchor="middle" x="72.4936" y="-7.3" font-family="Helvetica,sans-Serif" font-size="11.00" fill="#000000">Generated by SchemaSpy</text>
<!-- court_appearance -->
<g id="node1" class="node">
<title>court_appearance</title>
<g id="a_node1"><a xlink:href="../../tables/court_appearance.html" xlink:title="court_appearance" target="_top">
<polygon fill="#ffffff" stroke="transparent" points="351.5,-400.2 351.5,-637.2 510.5,-637.2 510.5,-400.2 351.5,-400.2"/>
<polygon fill="#f5f5f5" stroke="transparent" points="352,-613.7 352,-636.7 511,-636.7 511,-613.7 352,-613.7"/>
<polygon fill="none" stroke="#000000" points="352,-613.7 352,-636.7 511,-636.7 511,-613.7 352,-613.7"/>
<text text-anchor="start" x="357" y="-622.3" font-family="Helvetica,sans-Serif" font-weight="bold" font-size="11.00" fill="#000000">court_appearance</text>
<text text-anchor="start" x="476.5219" y="-621.8" font-family="Helvetica,sans-Serif" font-size="11.00" fill="#000000">[table]</text>
<polygon fill="none" stroke="#000000" points="352,-591.7 352,-613.7 511,-613.7 511,-591.7 352,-591.7"/>
<image xlink:href="../../images/primaryKeys.png" width="11px" height="12px" preserveAspectRatio="xMinYMin meet" x="357" y="-608.7"/>
<text text-anchor="start" x="378" y="-598.8" font-family="Helvetica,sans-Serif" font-size="11.00" fill="#000000">id</text>
<polygon fill="#ffffff" stroke="transparent" points="352,-569.7 352,-591.7 511,-591.7 511,-569.7 352,-569.7"/>
<polygon fill="none" stroke="#000000" points="352,-569.7 352,-591.7 511,-591.7 511,-569.7 352,-569.7"/>
<image xlink:href="../../images/foreignKeys.png" width="11px" height="12px" preserveAspectRatio="xMinYMin meet" x="357" y="-586.7"/>
<text text-anchor="start" x="378" y="-576.8" font-family="Helvetica,sans-Serif" font-size="11.00" fill="#000000">person_identifier</text>
<polygon fill="#ffffff" stroke="transparent" points="352,-547.7 352,-569.7 511,-569.7 511,-547.7 352,-547.7"/>
<polygon fill="none" stroke="#000000" points="352,-547.7 352,-569.7 511,-569.7 511,-547.7 352,-547.7"/>
<text text-anchor="start" x="378" y="-554.8" font-family="Helvetica,sans-Serif" font-size="11.00" fill="#000000">prison_code</text>
<polygon fill="#ffffff" stroke="transparent" points="352,-525.7 352,-547.7 511,-547.7 511,-525.7 352,-525.7"/>
<polygon fill="none" stroke="#000000" points="352,-525.7 352,-547.7 511,-547.7 511,-525.7 352,-525.7"/>
<image xlink:href="../../images/foreignKeys.png" width="11px" height="12px" preserveAspectRatio="xMinYMin meet" x="357" y="-542.7"/>
<text text-anchor="start" x="378" y="-532.8" font-family="Helvetica,sans-Serif" font-size="11.00" fill="#000000">reason_id</text>
<polygon fill="#ffffff" stroke="transparent" points="352,-503.7 352,-525.7 511,-525.7 511,-503.7 352,-503.7"/>
<polygon fill="none" stroke="#000000" points="352,-503.7 352,-525.7 511,-525.7 511,-503.7 352,-503.7"/>
<image xlink:href="../../images/foreignKeys.png" width="11px" height="12px" preserveAspectRatio="xMinYMin meet" x="357" y="-520.7"/>
<text text-anchor="start" x="378" y="-510.8" font-family="Helvetica,sans-Serif" font-size="11.00" fill="#000000">status_id</text>
<polygon fill="#ffffff" stroke="transparent" points="352,-481.7 352,-503.7 511,-503.7 511,-481.7 352,-481.7"/>
<polygon fill="none" stroke="#000000" points="352,-481.7 352,-503.7 511,-503.7 511,-481.7 352,-481.7"/>
<text text-anchor="start" x="378" y="-488.8" font-family="Helvetica,sans-Serif" font-size="11.00" fill="#000000">start</text>
<polygon fill="#ffffff" stroke="transparent" points="352,-459.7 352,-481.7 511,-481.7 511,-459.7 352,-459.7"/>
<polygon fill="none" stroke="#000000" points="352,-459.7 352,-481.7 511,-481.7 511,-459.7 352,-459.7"/>
<image xlink:href="../../images/foreignKeys.png" width="11px" height="12px" preserveAspectRatio="xMinYMin meet" x="357" y="-476.7"/>
<text text-anchor="start" x="378" y="-466.8" font-family="Helvetica,sans-Serif" font-size="11.00" fill="#000000">legacy_id</text>
<polygon fill="#ffffff" stroke="transparent" points="352,-437.7 352,-459.7 511,-459.7 511,-437.7 352,-437.7"/>
<polygon fill="none" stroke="#000000" points="352,-437.7 352,-459.7 511,-459.7 511,-437.7 352,-437.7"/>
<text text-anchor="start" x="378" y="-444.8" font-family="Helvetica,sans-Serif" font-size="11.00" fill="#000000">external_reference</text>
<polygon fill="none" stroke="#000000" points="352,-418.7 352,-437.7 511,-437.7 511,-418.7 352,-418.7"/>
<text text-anchor="start" x="355" y="-424.8" font-family="Helvetica,sans-Serif" font-size="11.00" fill="#000000">...</text>
<polygon fill="#ffffff" stroke="transparent" points="352,-399.7 352,-418.7 425,-418.7 425,-399.7 352,-399.7"/>
<polygon fill="none" stroke="#000000" points="352,-399.7 352,-418.7 425,-418.7 425,-399.7 352,-399.7"/>
<text text-anchor="start" x="355" y="-405.8" font-family="Helvetica,sans-Serif" font-size="11.00" fill="#000000">&lt; 4</text>
<polygon fill="#ffffff" stroke="transparent" points="425,-399.7 425,-418.7 463,-418.7 463,-399.7 425,-399.7"/>
<polygon fill="none" stroke="#000000" points="425,-399.7 425,-418.7 463,-418.7 463,-399.7 425,-399.7"/>
<text text-anchor="start" x="453.8862" y="-405.8" font-family="Helvetica,sans-Serif" font-size="11.00" fill="#000000"> &#160;</text>
<polygon fill="#ffffff" stroke="transparent" points="463,-399.7 463,-418.7 511,-418.7 511,-399.7 463,-399.7"/>
<polygon fill="none" stroke="#000000" points="463,-399.7 463,-418.7 511,-418.7 511,-399.7 463,-399.7"/>
<text text-anchor="start" x="492.4053" y="-405.8" font-family="Helvetica,sans-Serif" font-size="11.00" fill="#000000">1 &gt;</text>
</a>
</g>
</g>
<!-- audit_revision -->
<g id="node2" class="node">
<title>audit_revision</title>
<g id="a_node2"><a xlink:href="../../tables/audit_revision.html" xlink:title="audit_revision" target="_top">
<polygon fill="#ffffff" stroke="transparent" points="8,-147.7 8,-347.7 243,-347.7 243,-147.7 8,-147.7"/>
<polygon fill="#f5f5f5" stroke="transparent" points="10.5,-322.7 10.5,-345.7 241.5,-345.7 241.5,-322.7 10.5,-322.7"/>
<polygon fill="none" stroke="#000000" points="10.5,-322.7 10.5,-345.7 241.5,-345.7 241.5,-322.7 10.5,-322.7"/>
<text text-anchor="start" x="15.5" y="-331.3" font-family="Helvetica,sans-Serif" font-weight="bold" font-size="11.00" fill="#000000">audit_revision</text>
<text text-anchor="start" x="206.5437" y="-330.8" font-family="Helvetica,sans-Serif" font-size="11.00" fill="#000000">[table]</text>
<polygon fill="none" stroke="#000000" points="10.5,-300.7 10.5,-322.7 144.5,-322.7 144.5,-300.7 10.5,-300.7"/>
<image xlink:href="../../images/primaryKeys.png" width="11px" height="12px" preserveAspectRatio="xMinYMin meet" x="15.5" y="-317.7"/>
<text text-anchor="start" x="30.5" y="-307.8" font-family="Helvetica,sans-Serif" font-size="11.00" fill="#000000">id</text>
<polygon fill="none" stroke="#000000" points="144.5,-300.7 144.5,-322.7 241.5,-322.7 241.5,-300.7 144.5,-300.7"/>
<text text-anchor="start" x="147.5" y="-308.4" font-family="Helvetica,sans-Serif" font-size="11.00" fill="#000000">bigserial[19]</text>
<polygon fill="none" stroke="#000000" points="10.5,-278.7 10.5,-300.7 144.5,-300.7 144.5,-278.7 10.5,-278.7"/>
<text text-anchor="start" x="30.5" y="-285.8" font-family="Helvetica,sans-Serif" font-size="11.00" fill="#000000">timestamp</text>
<polygon fill="none" stroke="#000000" points="144.5,-278.7 144.5,-300.7 241.5,-300.7 241.5,-278.7 144.5,-278.7"/>
<text text-anchor="start" x="147.5" y="-286.4" font-family="Helvetica,sans-Serif" font-size="11.00" fill="#000000">timestamp[29,6]</text>
<polygon fill="none" stroke="#000000" points="10.5,-256.7 10.5,-278.7 144.5,-278.7 144.5,-256.7 10.5,-256.7"/>
<text text-anchor="start" x="30.5" y="-263.8" font-family="Helvetica,sans-Serif" font-size="11.00" fill="#000000">source</text>
<polygon fill="none" stroke="#000000" points="144.5,-256.7 144.5,-278.7 241.5,-278.7 241.5,-256.7 144.5,-256.7"/>
<text text-anchor="start" x="147.5" y="-264.4" font-family="Helvetica,sans-Serif" font-size="11.00" fill="#000000">varchar[6]</text>
<polygon fill="none" stroke="#000000" points="10.5,-234.7 10.5,-256.7 144.5,-256.7 144.5,-234.7 10.5,-234.7"/>
<text text-anchor="start" x="30.5" y="-241.8" font-family="Helvetica,sans-Serif" font-size="11.00" fill="#000000">affected_entities</text>
<polygon fill="none" stroke="#000000" points="144.5,-234.7 144.5,-256.7 241.5,-256.7 241.5,-234.7 144.5,-234.7"/>
<text text-anchor="start" x="147.4468" y="-242.4" font-family="Helvetica,sans-Serif" font-size="11.00" fill="#000000">_text[2147483647]</text>
<polygon fill="none" stroke="#000000" points="10.5,-212.7 10.5,-234.7 144.5,-234.7 144.5,-212.7 10.5,-212.7"/>
<text text-anchor="start" x="30.5" y="-219.8" font-family="Helvetica,sans-Serif" font-size="11.00" fill="#000000">username</text>
<polygon fill="none" stroke="#000000" points="144.5,-212.7 144.5,-234.7 241.5,-234.7 241.5,-212.7 144.5,-212.7"/>
<text text-anchor="start" x="147.5" y="-220.4" font-family="Helvetica,sans-Serif" font-size="11.00" fill="#000000">varchar[64]</text>
<polygon fill="none" stroke="#000000" points="10.5,-190.7 10.5,-212.7 144.5,-212.7 144.5,-190.7 10.5,-190.7"/>
<text text-anchor="start" x="30.5" y="-197.8" font-family="Helvetica,sans-Serif" font-size="11.00" fill="#000000">caseload_id</text>
<polygon fill="none" stroke="#000000" points="144.5,-190.7 144.5,-212.7 241.5,-212.7 241.5,-190.7 144.5,-190.7"/>
<text text-anchor="start" x="147.5" y="-198.4" font-family="Helvetica,sans-Serif" font-size="11.00" fill="#000000">varchar[10]</text>
<polygon fill="none" stroke="#000000" points="10.5,-168.7 10.5,-190.7 144.5,-190.7 144.5,-168.7 10.5,-168.7"/>
<text text-anchor="start" x="30.5" y="-175.8" font-family="Helvetica,sans-Serif" font-size="11.00" fill="#000000">reason</text>
<polygon fill="none" stroke="#000000" points="144.5,-168.7 144.5,-190.7 241.5,-190.7 241.5,-168.7 144.5,-168.7"/>
<text text-anchor="start" x="147.5" y="-176.4" font-family="Helvetica,sans-Serif" font-size="11.00" fill="#000000">text[2147483647]</text>
<polygon fill="#ffffff" stroke="transparent" points="10.5,-149.7 10.5,-168.7 81.5,-168.7 81.5,-149.7 10.5,-149.7"/>
<polygon fill="none" stroke="#000000" points="10.5,-149.7 10.5,-168.7 81.5,-168.7 81.5,-149.7 10.5,-149.7"/>
<text text-anchor="start" x="13.5" y="-155.8" font-family="Helvetica,sans-Serif" font-size="11.00" fill="#000000">&lt; 0</text>
<polygon fill="#ffffff" stroke="transparent" points="81.5,-149.7 81.5,-168.7 144.5,-168.7 144.5,-149.7 81.5,-149.7"/>
<polygon fill="none" stroke="#000000" points="81.5,-149.7 81.5,-168.7 144.5,-168.7 144.5,-149.7 81.5,-149.7"/>
<text text-anchor="start" x="135.3862" y="-155.8" font-family="Helvetica,sans-Serif" font-size="11.00" fill="#000000"> &#160;</text>
<polygon fill="#ffffff" stroke="transparent" points="144.5,-149.7 144.5,-168.7 241.5,-168.7 241.5,-149.7 144.5,-149.7"/>
<polygon fill="none" stroke="#000000" points="144.5,-149.7 144.5,-168.7 241.5,-168.7 241.5,-149.7 144.5,-149.7"/>
<text text-anchor="start" x="222.9053" y="-155.8" font-family="Helvetica,sans-Serif" font-size="11.00" fill="#000000">4 &gt;</text>
<polygon fill="none" stroke="#000000" stroke-width="2" points="9,-148.7 9,-346.7 242,-346.7 242,-148.7 9,-148.7"/>
</a>
</g>
</g>
<!-- court_appearance&#45;&gt;audit_revision -->
<g id="edge1" class="edge">
<title>court_appearance:w&#45;&gt;audit_revision:e</title>
<path fill="none" stroke="#000000" stroke-dasharray="5,2" d="M341.4457,-469.8738C305.6817,-463.804 308.3147,-425.3451 284,-389.7 261.7532,-357.0864 280.9787,-311.7 241.5,-311.7"/>
<polygon fill="#000000" stroke="#000000" points="351.5146,-466.6498 350.8902,-474.6254 349.2951,-474.5005 349.9195,-466.5249 351.5146,-466.6498"/>
<polyline fill="none" stroke="#000000" points="352,-470.7 348.0122,-470.3878 "/>
<ellipse fill="none" stroke="#000000" cx="344.822" cy="-470.1381" rx="3.2" ry="3.2"/>
</g>
<!-- court_appearance_audit -->
<g id="node3" class="node">
<title>court_appearance_audit</title>
<g id="a_node3"><a xlink:href="../../tables/court_appearance_audit.html" xlink:title="court_appearance_audit" target="_top">
<polygon fill="#ffffff" stroke="transparent" points="331,-208.2 331,-379.2 531,-379.2 531,-208.2 331,-208.2"/>
<polygon fill="#f5f5f5" stroke="transparent" points="331,-355.7 331,-378.7 531,-378.7 531,-355.7 331,-355.7"/>
<polygon fill="none" stroke="#000000" points="331,-355.7 331,-378.7 531,-378.7 531,-355.7 331,-355.7"/>
<text text-anchor="start" x="336" y="-364.3" font-family="Helvetica,sans-Serif" font-weight="bold" font-size="11.00" fill="#000000">court_appearance_audit</text>
<text text-anchor="start" x="496.5219" y="-363.8" font-family="Helvetica,sans-Serif" font-size="11.00" fill="#000000">[table]</text>
<polygon fill="none" stroke="#000000" points="331,-333.7 331,-355.7 531,-355.7 531,-333.7 331,-333.7"/>
<image xlink:href="../../images/primaryKeys.png" width="11px" height="12px" preserveAspectRatio="xMinYMin meet" x="336" y="-350.7"/>
<text text-anchor="start" x="360" y="-340.8" font-family="Helvetica,sans-Serif" font-size="11.00" fill="#000000">rev_id</text>
<polygon fill="none" stroke="#000000" points="331,-311.7 331,-333.7 531,-333.7 531,-311.7 331,-311.7"/>
<image xlink:href="../../images/primaryKeys.png" width="11px" height="12px" preserveAspectRatio="xMinYMin meet" x="336" y="-328.7"/>
<text text-anchor="start" x="360" y="-318.8" font-family="Helvetica,sans-Serif" font-size="11.00" fill="#000000">id</text>
<polygon fill="none" stroke="#000000" points="331,-289.7 331,-311.7 531,-311.7 531,-289.7 331,-289.7"/>
<image xlink:href="../../images/foreignKeys.png" width="11px" height="12px" preserveAspectRatio="xMinYMin meet" x="336" y="-306.7"/>
<text text-anchor="start" x="360" y="-296.8" font-family="Helvetica,sans-Serif" font-size="11.00" fill="#000000">person_identifier</text>
<polygon fill="none" stroke="#000000" points="331,-267.7 331,-289.7 531,-289.7 531,-267.7 331,-267.7"/>
<image xlink:href="../../images/foreignKeys.png" width="11px" height="12px" preserveAspectRatio="xMinYMin meet" x="336" y="-284.7"/>
<text text-anchor="start" x="360" y="-274.8" font-family="Helvetica,sans-Serif" font-size="11.00" fill="#000000">legacy_id</text>
<polygon fill="#ffffff" stroke="transparent" points="331,-245.7 331,-267.7 531,-267.7 531,-245.7 331,-245.7"/>
<polygon fill="none" stroke="#000000" points="331,-245.7 331,-267.7 531,-267.7 531,-245.7 331,-245.7"/>
<text text-anchor="start" x="360" y="-252.8" font-family="Helvetica,sans-Serif" font-size="11.00" fill="#000000">external_reference</text>
<polygon fill="none" stroke="#000000" points="331,-226.7 331,-245.7 531,-245.7 531,-226.7 331,-226.7"/>
<text text-anchor="start" x="334" y="-232.8" font-family="Helvetica,sans-Serif" font-size="11.00" fill="#000000">...</text>
<polygon fill="#ffffff" stroke="transparent" points="331,-207.7 331,-226.7 429,-226.7 429,-207.7 331,-207.7"/>
<polygon fill="none" stroke="#000000" points="331,-207.7 331,-226.7 429,-226.7 429,-207.7 331,-207.7"/>
<text text-anchor="start" x="334" y="-213.8" font-family="Helvetica,sans-Serif" font-size="11.00" fill="#000000">&lt; 3</text>
<polygon fill="#ffffff" stroke="transparent" points="429,-207.7 429,-226.7 480,-226.7 480,-207.7 429,-207.7"/>
<polygon fill="none" stroke="#000000" points="429,-207.7 429,-226.7 480,-226.7 480,-207.7 429,-207.7"/>
<text text-anchor="start" x="470.8862" y="-213.8" font-family="Helvetica,sans-Serif" font-size="11.00" fill="#000000"> &#160;</text>
<polygon fill="#ffffff" stroke="transparent" points="480,-207.7 480,-226.7 531,-226.7 531,-207.7 480,-207.7"/>
<polygon fill="none" stroke="#000000" points="480,-207.7 480,-226.7 531,-226.7 531,-207.7 480,-207.7"/>
<text text-anchor="start" x="521.8862" y="-213.8" font-family="Helvetica,sans-Serif" font-size="11.00" fill="#000000"> &#160;</text>
</a>
</g>
</g>
<!-- court_appearance_audit&#45;&gt;audit_revision -->
<g id="edge2" class="edge">
<title>court_appearance_audit:w&#45;&gt;audit_revision:e</title>
<path fill="none" stroke="#000000" stroke-dasharray="5,2" d="M316.3221,-280.2037C286.7642,-286.6595 278.4305,-311.7 241.5,-311.7"/>
<polygon fill="#000000" stroke="#000000" points="323.0417,-279.5153 331.3669,-282.2813 327.0208,-279.1077 331,-278.7 331,-278.7 331,-278.7 327.0208,-279.1077 330.6331,-275.1187 323.0417,-279.5153 323.0417,-279.5153"/>
<ellipse fill="none" stroke="#000000" cx="319.8583" cy="-279.8415" rx="3.2" ry="3.2"/>
</g>
<!-- court_appearance_audit&#45;&gt;audit_revision -->
<g id="edge3" class="edge">
<title>court_appearance_audit:w&#45;&gt;audit_revision:e</title>
<path fill="none" stroke="#000000" d="M316.3221,-343.1963C286.7642,-336.7405 278.4305,-311.7 241.5,-311.7"/>
<polygon fill="#000000" stroke="#000000" points="323.0417,-343.8847 330.6331,-348.2813 327.0208,-344.2923 331,-344.7 331,-344.7 331,-344.7 327.0208,-344.2923 331.3669,-341.1187 323.0417,-343.8847 323.0417,-343.8847"/>
<ellipse fill="none" stroke="#000000" cx="319.8583" cy="-343.5585" rx="3.2" ry="3.2"/>
</g>
<!-- court_appearance_movement_audit -->
<g id="node4" class="node">
<title>court_appearance_movement_audit</title>
<g id="a_node4"><a xlink:href="../../tables/court_appearance_movement_audit.html" xlink:title="court_appearance_movement_audit" target="_top">
<polygon fill="#ffffff" stroke="transparent" points="292,-38.2 292,-187.2 570,-187.2 570,-38.2 292,-38.2"/>
<polygon fill="#f5f5f5" stroke="transparent" points="292,-163.7 292,-186.7 570,-186.7 570,-163.7 292,-163.7"/>
<polygon fill="none" stroke="#000000" points="292,-163.7 292,-186.7 570,-186.7 570,-163.7 292,-163.7"/>
<text text-anchor="start" x="297" y="-172.3" font-family="Helvetica,sans-Serif" font-weight="bold" font-size="11.00" fill="#000000">court_appearance_movement_audit</text>
<text text-anchor="start" x="535.5219" y="-171.8" font-family="Helvetica,sans-Serif" font-size="11.00" fill="#000000">[table]</text>
<polygon fill="none" stroke="#000000" points="292,-141.7 292,-163.7 570,-163.7 570,-141.7 292,-141.7"/>
<image xlink:href="../../images/primaryKeys.png" width="11px" height="12px" preserveAspectRatio="xMinYMin meet" x="297" y="-158.7"/>
<text text-anchor="start" x="321" y="-148.8" font-family="Helvetica,sans-Serif" font-size="11.00" fill="#000000">rev_id</text>
<polygon fill="none" stroke="#000000" points="292,-119.7 292,-141.7 570,-141.7 570,-119.7 292,-119.7"/>
<image xlink:href="../../images/primaryKeys.png" width="11px" height="12px" preserveAspectRatio="xMinYMin meet" x="297" y="-136.7"/>
<text text-anchor="start" x="321" y="-126.8" font-family="Helvetica,sans-Serif" font-size="11.00" fill="#000000">id</text>
<polygon fill="#ffffff" stroke="transparent" points="292,-97.7 292,-119.7 570,-119.7 570,-97.7 292,-97.7"/>
<polygon fill="none" stroke="#000000" points="292,-97.7 292,-119.7 570,-119.7 570,-97.7 292,-97.7"/>
<text text-anchor="start" x="321" y="-104.8" font-family="Helvetica,sans-Serif" font-size="11.00" fill="#000000">court_appearance_id</text>
<polygon fill="none" stroke="#000000" points="292,-75.7 292,-97.7 570,-97.7 570,-75.7 292,-75.7"/>
<image xlink:href="../../images/foreignKeys.png" width="11px" height="12px" preserveAspectRatio="xMinYMin meet" x="297" y="-92.7"/>
<text text-anchor="start" x="321" y="-82.8" font-family="Helvetica,sans-Serif" font-size="11.00" fill="#000000">person_identifier</text>
<polygon fill="none" stroke="#000000" points="292,-56.7 292,-75.7 570,-75.7 570,-56.7 292,-56.7"/>
<text text-anchor="start" x="295" y="-62.8" font-family="Helvetica,sans-Serif" font-size="11.00" fill="#000000">...</text>
<polygon fill="#ffffff" stroke="transparent" points="292,-37.7 292,-56.7 429,-56.7 429,-37.7 292,-37.7"/>
<polygon fill="none" stroke="#000000" points="292,-37.7 292,-56.7 429,-56.7 429,-37.7 292,-37.7"/>
<text text-anchor="start" x="295" y="-43.8" font-family="Helvetica,sans-Serif" font-size="11.00" fill="#000000">&lt; 1</text>
<polygon fill="#ffffff" stroke="transparent" points="429,-37.7 429,-56.7 499,-56.7 499,-37.7 429,-37.7"/>
<polygon fill="none" stroke="#000000" points="429,-37.7 429,-56.7 499,-56.7 499,-37.7 429,-37.7"/>
<text text-anchor="start" x="489.8862" y="-43.8" font-family="Helvetica,sans-Serif" font-size="11.00" fill="#000000"> &#160;</text>
<polygon fill="#ffffff" stroke="transparent" points="499,-37.7 499,-56.7 570,-56.7 570,-37.7 499,-37.7"/>
<polygon fill="none" stroke="#000000" points="499,-37.7 499,-56.7 570,-56.7 570,-37.7 499,-37.7"/>
<text text-anchor="start" x="560.8862" y="-43.8" font-family="Helvetica,sans-Serif" font-size="11.00" fill="#000000"> &#160;</text>
</a>
</g>
</g>
<!-- court_appearance_movement_audit&#45;&gt;audit_revision -->
<g id="edge4" class="edge">
<title>court_appearance_movement_audit:w&#45;&gt;audit_revision:e</title>
<path fill="none" stroke="#000000" d="M277.6065,-155.4597C232.085,-176.5733 309.8527,-311.7 241.5,-311.7"/>
<polygon fill="#000000" stroke="#000000" points="284.1431,-154.2065 292.6779,-156.2356 288.0716,-153.4532 292,-152.7 292,-152.7 292,-152.7 288.0716,-153.4532 291.3221,-149.1644 284.1431,-154.2065 284.1431,-154.2065"/>
<ellipse fill="none" stroke="#000000" cx="281.0004" cy="-154.8091" rx="3.2" ry="3.2"/>
</g>
</g>
</svg>
