<?xml version="1.0" encoding="UTF-8" standalone="no"?>
<!DOCTYPE svg PUBLIC "-//W3C//DTD SVG 1.1//EN"
 "http://www.w3.org/Graphics/SVG/1.1/DTD/svg11.dtd">
<!-- Generated by graphviz version 2.40.1 (20161225.0304)
 -->
<!-- Title: twoDegreesRelationshipsDiagramImplied Pages: 1 -->
<svg width="872pt" height="895pt"
 viewBox="0.00 0.00 872.00 894.81" xmlns="http://www.w3.org/2000/svg" xmlns:xlink="http://www.w3.org/1999/xlink">
<g id="graph0" class="graph" transform="scale(1 1) rotate(0) translate(4 890.8068)">
<title>twoDegreesRelationshipsDiagramImplied</title>
<polygon fill="#ffffff" stroke="transparent" points="-4,4 -4,-890.8068 868,-890.8068 868,4 -4,4"/>
<text text-anchor="middle" x="72.4936" y="-7.3" font-family="Helvetica,sans-Serif" font-size="11.00" fill="#000000">Generated by SchemaSpy</text>
<!-- court_appearance -->
<g id="node1" class="node">
<title>court_appearance</title>
<g id="a_node1"><a xlink:href="../../tables/court_appearance.html" xlink:title="court_appearance" target="_top">
<polygon fill="#ffffff" stroke="transparent" points="351.5,-85.8068 351.5,-322.8068 510.5,-322.8068 510.5,-85.8068 351.5,-85.8068"/>
<polygon fill="#f5f5f5" stroke="transparent" points="352,-299.3068 352,-322.3068 511,-322.3068 511,-299.3068 352,-299.3068"/>
<polygon fill="none" stroke="#000000" points="352,-299.3068 352,-322.3068 511,-322.3068 511,-299.3068 352,-299.3068"/>
<text text-anchor="start" x="357" y="-307.9068" font-family="Helvetica,sans-Serif" font-weight="bold" font-size="11.00" fill="#000000">court_appearance</text>
<text text-anchor="start" x="476.5219" y="-307.4068" font-family="Helvetica,sans-Serif" font-size="11.00" fill="#000000">[table]</text>
<polygon fill="none" stroke="#000000" points="352,-277.3068 352,-299.3068 511,-299.3068 511,-277.3068 352,-277.3068"/>
<image xlink:href="../../images/primaryKeys.png" width="11px" height="12px" preserveAspectRatio="xMinYMin meet" x="357" y="-294.307"/>
<text text-anchor="start" x="378" y="-284.4068" font-family="Helvetica,sans-Serif" font-size="11.00" fill="#000000">id</text>
<polygon fill="#ffffff" stroke="transparent" points="352,-255.3068 352,-277.3068 511,-277.3068 511,-255.3068 352,-255.3068"/>
<polygon fill="none" stroke="#000000" points="352,-255.3068 352,-277.3068 511,-277.3068 511,-255.3068 352,-255.3068"/>
<image xlink:href="../../images/foreignKeys.png" width="11px" height="12px" preserveAspectRatio="xMinYMin meet" x="357" y="-272.307"/>
<text text-anchor="start" x="378" y="-262.4068" font-family="Helvetica,sans-Serif" font-size="11.00" fill="#000000">person_identifier</text>
<polygon fill="#ffffff" stroke="transparent" points="352,-233.3068 352,-255.3068 511,-255.3068 511,-233.3068 352,-233.3068"/>
<polygon fill="none" stroke="#000000" points="352,-233.3068 352,-255.3068 511,-255.3068 511,-233.3068 352,-233.3068"/>
<text text-anchor="start" x="378" y="-240.4068" font-family="Helvetica,sans-Serif" font-size="11.00" fill="#000000">prison_code</text>
<polygon fill="#ffffff" stroke="transparent" points="352,-211.3068 352,-233.3068 511,-233.3068 511,-211.3068 352,-211.3068"/>
<polygon fill="none" stroke="#000000" points="352,-211.3068 352,-233.3068 511,-233.3068 511,-211.3068 352,-211.3068"/>
<image xlink:href="../../images/foreignKeys.png" width="11px" height="12px" preserveAspectRatio="xMinYMin meet" x="357" y="-228.307"/>
<text text-anchor="start" x="378" y="-218.4068" font-family="Helvetica,sans-Serif" font-size="11.00" fill="#000000">reason_id</text>
<polygon fill="#ffffff" stroke="transparent" points="352,-189.3068 352,-211.3068 511,-211.3068 511,-189.3068 352,-189.3068"/>
<polygon fill="none" stroke="#000000" points="352,-189.3068 352,-211.3068 511,-211.3068 511,-189.3068 352,-189.3068"/>
<image xlink:href="../../images/foreignKeys.png" width="11px" height="12px" preserveAspectRatio="xMinYMin meet" x="357" y="-206.307"/>
<text text-anchor="start" x="378" y="-196.4068" font-family="Helvetica,sans-Serif" font-size="11.00" fill="#000000">status_id</text>
<polygon fill="#ffffff" stroke="transparent" points="352,-167.3068 352,-189.3068 511,-189.3068 511,-167.3068 352,-167.3068"/>
<polygon fill="none" stroke="#000000" points="352,-167.3068 352,-189.3068 511,-189.3068 511,-167.3068 352,-167.3068"/>
<text text-anchor="start" x="378" y="-174.4068" font-family="Helvetica,sans-Serif" font-size="11.00" fill="#000000">start</text>
<polygon fill="#ffffff" stroke="transparent" points="352,-145.3068 352,-167.3068 511,-167.3068 511,-145.3068 352,-145.3068"/>
<polygon fill="none" stroke="#000000" points="352,-145.3068 352,-167.3068 511,-167.3068 511,-145.3068 352,-145.3068"/>
<image xlink:href="../../images/foreignKeys.png" width="11px" height="12px" preserveAspectRatio="xMinYMin meet" x="357" y="-162.307"/>
<text text-anchor="start" x="378" y="-152.4068" font-family="Helvetica,sans-Serif" font-size="11.00" fill="#000000">legacy_id</text>
<polygon fill="#ffffff" stroke="transparent" points="352,-123.3068 352,-145.3068 511,-145.3068 511,-123.3068 352,-123.3068"/>
<polygon fill="none" stroke="#000000" points="352,-123.3068 352,-145.3068 511,-145.3068 511,-123.3068 352,-123.3068"/>
<text text-anchor="start" x="378" y="-130.4068" font-family="Helvetica,sans-Serif" font-size="11.00" fill="#000000">external_reference</text>
<polygon fill="none" stroke="#000000" points="352,-104.3068 352,-123.3068 511,-123.3068 511,-104.3068 352,-104.3068"/>
<text text-anchor="start" x="355" y="-110.4068" font-family="Helvetica,sans-Serif" font-size="11.00" fill="#000000">...</text>
<polygon fill="#ffffff" stroke="transparent" points="352,-85.3068 352,-104.3068 425,-104.3068 425,-85.3068 352,-85.3068"/>
<polygon fill="none" stroke="#000000" points="352,-85.3068 352,-104.3068 425,-104.3068 425,-85.3068 352,-85.3068"/>
<text text-anchor="start" x="355" y="-91.4068" font-family="Helvetica,sans-Serif" font-size="11.00" fill="#000000">&lt; 4</text>
<polygon fill="#ffffff" stroke="transparent" points="425,-85.3068 425,-104.3068 463,-104.3068 463,-85.3068 425,-85.3068"/>
<polygon fill="none" stroke="#000000" points="425,-85.3068 425,-104.3068 463,-104.3068 463,-85.3068 425,-85.3068"/>
<text text-anchor="start" x="453.8862" y="-91.4068" font-family="Helvetica,sans-Serif" font-size="11.00" fill="#000000"> &#160;</text>
<polygon fill="#ffffff" stroke="transparent" points="463,-85.3068 463,-104.3068 511,-104.3068 511,-85.3068 463,-85.3068"/>
<polygon fill="none" stroke="#000000" points="463,-85.3068 463,-104.3068 511,-104.3068 511,-85.3068 463,-85.3068"/>
<text text-anchor="start" x="492.4053" y="-91.4068" font-family="Helvetica,sans-Serif" font-size="11.00" fill="#000000">1 &gt;</text>
</a>
</g>
</g>
<!-- audit_revision -->
<g id="node2" class="node">
<title>audit_revision</title>
<g id="a_node2"><a xlink:href="../../tables/audit_revision.html" xlink:title="audit_revision" target="_top">
<polygon fill="#ffffff" stroke="transparent" points="8,-448.3068 8,-648.3068 243,-648.3068 243,-448.3068 8,-448.3068"/>
<polygon fill="#f5f5f5" stroke="transparent" points="10.5,-623.3068 10.5,-646.3068 241.5,-646.3068 241.5,-623.3068 10.5,-623.3068"/>
<polygon fill="none" stroke="#000000" points="10.5,-623.3068 10.5,-646.3068 241.5,-646.3068 241.5,-623.3068 10.5,-623.3068"/>
<text text-anchor="start" x="15.5" y="-631.9068" font-family="Helvetica,sans-Serif" font-weight="bold" font-size="11.00" fill="#000000">audit_revision</text>
<text text-anchor="start" x="206.5437" y="-631.4068" font-family="Helvetica,sans-Serif" font-size="11.00" fill="#000000">[table]</text>
<polygon fill="none" stroke="#000000" points="10.5,-601.3068 10.5,-623.3068 144.5,-623.3068 144.5,-601.3068 10.5,-601.3068"/>
<image xlink:href="../../images/primaryKeys.png" width="11px" height="12px" preserveAspectRatio="xMinYMin meet" x="15.5" y="-618.307"/>
<text text-anchor="start" x="30.5" y="-608.4068" font-family="Helvetica,sans-Serif" font-size="11.00" fill="#000000">id</text>
<polygon fill="none" stroke="#000000" points="144.5,-601.3068 144.5,-623.3068 241.5,-623.3068 241.5,-601.3068 144.5,-601.3068"/>
<text text-anchor="start" x="147.5" y="-609.0068" font-family="Helvetica,sans-Serif" font-size="11.00" fill="#000000">bigserial[19]</text>
<polygon fill="none" stroke="#000000" points="10.5,-579.3068 10.5,-601.3068 144.5,-601.3068 144.5,-579.3068 10.5,-579.3068"/>
<text text-anchor="start" x="30.5" y="-586.4068" font-family="Helvetica,sans-Serif" font-size="11.00" fill="#000000">timestamp</text>
<polygon fill="none" stroke="#000000" points="144.5,-579.3068 144.5,-601.3068 241.5,-601.3068 241.5,-579.3068 144.5,-579.3068"/>
<text text-anchor="start" x="147.5" y="-587.0068" font-family="Helvetica,sans-Serif" font-size="11.00" fill="#000000">timestamp[29,6]</text>
<polygon fill="none" stroke="#000000" points="10.5,-557.3068 10.5,-579.3068 144.5,-579.3068 144.5,-557.3068 10.5,-557.3068"/>
<text text-anchor="start" x="30.5" y="-564.4068" font-family="Helvetica,sans-Serif" font-size="11.00" fill="#000000">source</text>
<polygon fill="none" stroke="#000000" points="144.5,-557.3068 144.5,-579.3068 241.5,-579.3068 241.5,-557.3068 144.5,-557.3068"/>
<text text-anchor="start" x="147.5" y="-565.0068" font-family="Helvetica,sans-Serif" font-size="11.00" fill="#000000">varchar[6]</text>
<polygon fill="none" stroke="#000000" points="10.5,-535.3068 10.5,-557.3068 144.5,-557.3068 144.5,-535.3068 10.5,-535.3068"/>
<text text-anchor="start" x="30.5" y="-542.4068" font-family="Helvetica,sans-Serif" font-size="11.00" fill="#000000">affected_entities</text>
<polygon fill="none" stroke="#000000" points="144.5,-535.3068 144.5,-557.3068 241.5,-557.3068 241.5,-535.3068 144.5,-535.3068"/>
<text text-anchor="start" x="147.4468" y="-543.0068" font-family="Helvetica,sans-Serif" font-size="11.00" fill="#000000">_text[2147483647]</text>
<polygon fill="none" stroke="#000000" points="10.5,-513.3068 10.5,-535.3068 144.5,-535.3068 144.5,-513.3068 10.5,-513.3068"/>
<text text-anchor="start" x="30.5" y="-520.4068" font-family="Helvetica,sans-Serif" font-size="11.00" fill="#000000">username</text>
<polygon fill="none" stroke="#000000" points="144.5,-513.3068 144.5,-535.3068 241.5,-535.3068 241.5,-513.3068 144.5,-513.3068"/>
<text text-anchor="start" x="147.5" y="-521.0068" font-family="Helvetica,sans-Serif" font-size="11.00" fill="#000000">varchar[64]</text>
<polygon fill="none" stroke="#000000" points="10.5,-491.3068 10.5,-513.3068 144.5,-513.3068 144.5,-491.3068 10.5,-491.3068"/>
<text text-anchor="start" x="30.5" y="-498.4068" font-family="Helvetica,sans-Serif" font-size="11.00" fill="#000000">caseload_id</text>
<polygon fill="none" stroke="#000000" points="144.5,-491.3068 144.5,-513.3068 241.5,-513.3068 241.5,-491.3068 144.5,-491.3068"/>
<text text-anchor="start" x="147.5" y="-499.0068" font-family="Helvetica,sans-Serif" font-size="11.00" fill="#000000">varchar[10]</text>
<polygon fill="none" stroke="#000000" points="10.5,-469.3068 10.5,-491.3068 144.5,-491.3068 144.5,-469.3068 10.5,-469.3068"/>
<text text-anchor="start" x="30.5" y="-476.4068" font-family="Helvetica,sans-Serif" font-size="11.00" fill="#000000">reason</text>
<polygon fill="none" stroke="#000000" points="144.5,-469.3068 144.5,-491.3068 241.5,-491.3068 241.5,-469.3068 144.5,-469.3068"/>
<text text-anchor="start" x="147.5" y="-477.0068" font-family="Helvetica,sans-Serif" font-size="11.00" fill="#000000">text[2147483647]</text>
<polygon fill="#ffffff" stroke="transparent" points="10.5,-450.3068 10.5,-469.3068 81.5,-469.3068 81.5,-450.3068 10.5,-450.3068"/>
<polygon fill="none" stroke="#000000" points="10.5,-450.3068 10.5,-469.3068 81.5,-469.3068 81.5,-450.3068 10.5,-450.3068"/>
<text text-anchor="start" x="13.5" y="-456.4068" font-family="Helvetica,sans-Serif" font-size="11.00" fill="#000000">&lt; 0</text>
<polygon fill="#ffffff" stroke="transparent" points="81.5,-450.3068 81.5,-469.3068 144.5,-469.3068 144.5,-450.3068 81.5,-450.3068"/>
<polygon fill="none" stroke="#000000" points="81.5,-450.3068 81.5,-469.3068 144.5,-469.3068 144.5,-450.3068 81.5,-450.3068"/>
<text text-anchor="start" x="135.3862" y="-456.4068" font-family="Helvetica,sans-Serif" font-size="11.00" fill="#000000"> &#160;</text>
<polygon fill="#ffffff" stroke="transparent" points="144.5,-450.3068 144.5,-469.3068 241.5,-469.3068 241.5,-450.3068 144.5,-450.3068"/>
<polygon fill="none" stroke="#000000" points="144.5,-450.3068 144.5,-469.3068 241.5,-469.3068 241.5,-450.3068 144.5,-450.3068"/>
<text text-anchor="start" x="222.9053" y="-456.4068" font-family="Helvetica,sans-Serif" font-size="11.00" fill="#000000">5 &gt;</text>
<polygon fill="none" stroke="#000000" stroke-width="2" points="9,-449.3068 9,-647.3068 242,-647.3068 242,-449.3068 9,-449.3068"/>
</a>
</g>
</g>
<!-- court_appearance&#45;&gt;audit_revision -->
<g id="edge1" class="edge">
<title>court_appearance:w&#45;&gt;audit_revision:e</title>
<path fill="none" stroke="#000000" stroke-dasharray="5,2" d="M341.4114,-156.811C259.8925,-165.0166 306.2855,-271.7962 284,-361.3068 270.3326,-416.2027 298.0717,-612.3068 241.5,-612.3068"/>
<polygon fill="#000000" stroke="#000000" points="351.0106,-152.3493 351.3912,-160.3403 349.793,-160.4164 349.4124,-152.4255 351.0106,-152.3493"/>
<polyline fill="none" stroke="#000000" points="352,-156.3068 348.0045,-156.4971 "/>
<ellipse fill="none" stroke="#000000" cx="344.8081" cy="-156.6493" rx="3.2" ry="3.2"/>
</g>
<!-- person_summary -->
<g id="node3" class="node">
<title>person_summary</title>
<g id="a_node3"><a xlink:href="../../tables/person_summary.html" xlink:title="person_summary" target="_top">
<polygon fill="#ffffff" stroke="transparent" points="48.5,-342.8068 48.5,-403.8068 202.5,-403.8068 202.5,-342.8068 48.5,-342.8068"/>
<polygon fill="#f5f5f5" stroke="transparent" points="48.5,-380.3068 48.5,-403.3068 202.5,-403.3068 202.5,-380.3068 48.5,-380.3068"/>
<polygon fill="none" stroke="#000000" points="48.5,-380.3068 48.5,-403.3068 202.5,-403.3068 202.5,-380.3068 48.5,-380.3068"/>
<text text-anchor="start" x="53.5" y="-388.9068" font-family="Helvetica,sans-Serif" font-weight="bold" font-size="11.00" fill="#000000">person_summary</text>
<text text-anchor="start" x="168.0219" y="-388.4068" font-family="Helvetica,sans-Serif" font-size="11.00" fill="#000000">[table]</text>
<polygon fill="none" stroke="#000000" points="48.5,-361.3068 48.5,-380.3068 202.5,-380.3068 202.5,-361.3068 48.5,-361.3068"/>
<text text-anchor="start" x="51.5" y="-367.4068" font-family="Helvetica,sans-Serif" font-size="11.00" fill="#000000">...</text>
<polygon fill="#ffffff" stroke="transparent" points="48.5,-342.3068 48.5,-361.3068 114.5,-361.3068 114.5,-342.3068 48.5,-342.3068"/>
<polygon fill="none" stroke="#000000" points="48.5,-342.3068 48.5,-361.3068 114.5,-361.3068 114.5,-342.3068 48.5,-342.3068"/>
<text text-anchor="start" x="51.5" y="-348.4068" font-family="Helvetica,sans-Serif" font-size="11.00" fill="#000000"> &#160;</text>
<polygon fill="#ffffff" stroke="transparent" points="114.5,-342.3068 114.5,-361.3068 153.5,-361.3068 153.5,-342.3068 114.5,-342.3068"/>
<polygon fill="none" stroke="#000000" points="114.5,-342.3068 114.5,-361.3068 153.5,-361.3068 153.5,-342.3068 114.5,-342.3068"/>
<text text-anchor="start" x="144.3862" y="-348.4068" font-family="Helvetica,sans-Serif" font-size="11.00" fill="#000000"> &#160;</text>
<polygon fill="#ffffff" stroke="transparent" points="153.5,-342.3068 153.5,-361.3068 202.5,-361.3068 202.5,-342.3068 153.5,-342.3068"/>
<polygon fill="none" stroke="#000000" points="153.5,-342.3068 153.5,-361.3068 202.5,-361.3068 202.5,-342.3068 153.5,-342.3068"/>
<text text-anchor="start" x="183.9053" y="-348.4068" font-family="Helvetica,sans-Serif" font-size="11.00" fill="#000000">4 &gt;</text>
</a>
</g>
</g>
<!-- court_appearance&#45;&gt;person_summary -->
<g id="edge2" class="edge">
<title>court_appearance:w&#45;&gt;person_summary:e</title>
<path fill="none" stroke="#000000" d="M337.4625,-267.5472C272.2678,-279.281 278.2236,-370.3068 202.5,-370.3068"/>
<polygon fill="#000000" stroke="#000000" points="344.029,-266.9869 352.3061,-269.8937 348.0145,-266.6469 352,-266.3068 352,-266.3068 352,-266.3068 348.0145,-266.6469 351.6939,-262.7198 344.029,-266.9869 344.029,-266.9869"/>
<ellipse fill="none" stroke="#000000" cx="340.8405" cy="-267.259" rx="3.2" ry="3.2"/>
</g>
<!-- court_appearance_reason -->
<g id="node4" class="node">
<title>court_appearance_reason</title>
<g id="a_node4"><a xlink:href="../../tables/court_appearance_reason.html" xlink:title="court_appearance_reason" target="_top">
<polygon fill="#ffffff" stroke="transparent" points="20,-61.8068 20,-122.8068 231,-122.8068 231,-61.8068 20,-61.8068"/>
<polygon fill="#f5f5f5" stroke="transparent" points="20.5,-99.3068 20.5,-122.3068 231.5,-122.3068 231.5,-99.3068 20.5,-99.3068"/>
<polygon fill="none" stroke="#000000" points="20.5,-99.3068 20.5,-122.3068 231.5,-122.3068 231.5,-99.3068 20.5,-99.3068"/>
<text text-anchor="start" x="25.5" y="-107.9068" font-family="Helvetica,sans-Serif" font-weight="bold" font-size="11.00" fill="#000000">court_appearance_reason</text>
<text text-anchor="start" x="197.0219" y="-107.4068" font-family="Helvetica,sans-Serif" font-size="11.00" fill="#000000">[table]</text>
<polygon fill="none" stroke="#000000" points="20.5,-80.3068 20.5,-99.3068 231.5,-99.3068 231.5,-80.3068 20.5,-80.3068"/>
<text text-anchor="start" x="23.5" y="-86.4068" font-family="Helvetica,sans-Serif" font-size="11.00" fill="#000000">...</text>
<polygon fill="#ffffff" stroke="transparent" points="20.5,-61.3068 20.5,-80.3068 115.5,-80.3068 115.5,-61.3068 20.5,-61.3068"/>
<polygon fill="none" stroke="#000000" points="20.5,-61.3068 20.5,-80.3068 115.5,-80.3068 115.5,-61.3068 20.5,-61.3068"/>
<text text-anchor="start" x="23.5" y="-67.4068" font-family="Helvetica,sans-Serif" font-size="11.00" fill="#000000"> &#160;</text>
<polygon fill="#ffffff" stroke="transparent" points="115.5,-61.3068 115.5,-80.3068 168.5,-80.3068 168.5,-61.3068 115.5,-61.3068"/>
<polygon fill="none" stroke="#000000" points="115.5,-61.3068 115.5,-80.3068 168.5,-80.3068 168.5,-61.3068 115.5,-61.3068"/>
<text text-anchor="start" x="159.3862" y="-67.4068" font-family="Helvetica,sans-Serif" font-size="11.00" fill="#000000"> &#160;</text>
<polygon fill="#ffffff" stroke="transparent" points="168.5,-61.3068 168.5,-80.3068 231.5,-80.3068 231.5,-61.3068 168.5,-61.3068"/>
<polygon fill="none" stroke="#000000" points="168.5,-61.3068 168.5,-80.3068 231.5,-80.3068 231.5,-61.3068 168.5,-61.3068"/>
<text text-anchor="start" x="212.9053" y="-67.4068" font-family="Helvetica,sans-Serif" font-size="11.00" fill="#000000">2 &gt;</text>
</a>
</g>
</g>
<!-- court_appearance&#45;&gt;court_appearance_reason -->
<g id="edge3" class="edge">
<title>court_appearance:w&#45;&gt;court_appearance_reason:e</title>
<path fill="none" stroke="#000000" d="M337.6115,-220.6251C276.8954,-205.2292 305.9673,-89.3068 231.5,-89.3068"/>
<polygon fill="#000000" stroke="#000000" points="344.0541,-221.3781 351.5821,-225.8824 348.027,-221.8424 352,-222.3068 352,-222.3068 352,-222.3068 348.027,-221.8424 352.4179,-218.7311 344.0541,-221.3781 344.0541,-221.3781"/>
<ellipse fill="none" stroke="#000000" cx="340.8757" cy="-221.0066" rx="3.2" ry="3.2"/>
</g>
<!-- court_appearance_status -->
<g id="node5" class="node">
<title>court_appearance_status</title>
<g id="a_node5"><a xlink:href="../../tables/court_appearance_status.html" xlink:title="court_appearance_status" target="_top">
<polygon fill="#ffffff" stroke="transparent" points="21.5,-172.8068 21.5,-233.8068 229.5,-233.8068 229.5,-172.8068 21.5,-172.8068"/>
<polygon fill="#f5f5f5" stroke="transparent" points="21.5,-210.3068 21.5,-233.3068 229.5,-233.3068 229.5,-210.3068 21.5,-210.3068"/>
<polygon fill="none" stroke="#000000" points="21.5,-210.3068 21.5,-233.3068 229.5,-233.3068 229.5,-210.3068 21.5,-210.3068"/>
<text text-anchor="start" x="26.5" y="-218.9068" font-family="Helvetica,sans-Serif" font-weight="bold" font-size="11.00" fill="#000000">court_appearance_status</text>
<text text-anchor="start" x="195.0219" y="-218.4068" font-family="Helvetica,sans-Serif" font-size="11.00" fill="#000000">[table]</text>
<polygon fill="none" stroke="#000000" points="21.5,-191.3068 21.5,-210.3068 229.5,-210.3068 229.5,-191.3068 21.5,-191.3068"/>
<text text-anchor="start" x="24.5" y="-197.4068" font-family="Helvetica,sans-Serif" font-size="11.00" fill="#000000">...</text>
<polygon fill="#ffffff" stroke="transparent" points="21.5,-172.3068 21.5,-191.3068 114.5,-191.3068 114.5,-172.3068 21.5,-172.3068"/>
<polygon fill="none" stroke="#000000" points="21.5,-172.3068 21.5,-191.3068 114.5,-191.3068 114.5,-172.3068 21.5,-172.3068"/>
<text text-anchor="start" x="24.5" y="-178.4068" font-family="Helvetica,sans-Serif" font-size="11.00" fill="#000000"> &#160;</text>
<polygon fill="#ffffff" stroke="transparent" points="114.5,-172.3068 114.5,-191.3068 167.5,-191.3068 167.5,-172.3068 114.5,-172.3068"/>
<polygon fill="none" stroke="#000000" points="114.5,-172.3068 114.5,-191.3068 167.5,-191.3068 167.5,-172.3068 114.5,-172.3068"/>
<text text-anchor="start" x="158.3862" y="-178.4068" font-family="Helvetica,sans-Serif" font-size="11.00" fill="#000000"> &#160;</text>
<polygon fill="#ffffff" stroke="transparent" points="167.5,-172.3068 167.5,-191.3068 229.5,-191.3068 229.5,-172.3068 167.5,-172.3068"/>
<polygon fill="none" stroke="#000000" points="167.5,-172.3068 167.5,-191.3068 229.5,-191.3068 229.5,-172.3068 167.5,-172.3068"/>
<text text-anchor="start" x="210.9053" y="-178.4068" font-family="Helvetica,sans-Serif" font-size="11.00" fill="#000000">1 &gt;</text>
</a>
</g>
</g>
<!-- court_appearance&#45;&gt;court_appearance_status -->
<g id="edge4" class="edge">
<title>court_appearance:w&#45;&gt;court_appearance_status:e</title>
<path fill="none" stroke="#000000" d="M337.4189,-200.3068C294.5763,-200.3068 278.7339,-200.3068 229.5,-200.3068"/>
<polygon fill="#000000" stroke="#000000" points="344,-200.3068 352,-203.9068 348,-200.3068 352,-200.3068 352,-200.3068 352,-200.3068 348,-200.3068 352,-196.7068 344,-200.3068 344,-200.3068"/>
<ellipse fill="none" stroke="#000000" cx="340.8" cy="-200.3068" rx="3.2" ry="3.2"/>
</g>
<!-- court_appearance_audit -->
<g id="node6" class="node">
<title>court_appearance_audit</title>
<g id="a_node6"><a xlink:href="../../tables/court_appearance_audit.html" xlink:title="court_appearance_audit" target="_top">
<polygon fill="#ffffff" stroke="transparent" points="331,-541.8068 331,-712.8068 531,-712.8068 531,-541.8068 331,-541.8068"/>
<polygon fill="#f5f5f5" stroke="transparent" points="331,-689.3068 331,-712.3068 531,-712.3068 531,-689.3068 331,-689.3068"/>
<polygon fill="none" stroke="#000000" points="331,-689.3068 331,-712.3068 531,-712.3068 531,-689.3068 331,-689.3068"/>
<text text-anchor="start" x="336" y="-697.9068" font-family="Helvetica,sans-Serif" font-weight="bold" font-size="11.00" fill="#000000">court_appearance_audit</text>
<text text-anchor="start" x="496.5219" y="-697.4068" font-family="Helvetica,sans-Serif" font-size="11.00" fill="#000000">[table]</text>
<polygon fill="none" stroke="#000000" points="331,-667.3068 331,-689.3068 531,-689.3068 531,-667.3068 331,-667.3068"/>
<image xlink:href="../../images/primaryKeys.png" width="11px" height="12px" preserveAspectRatio="xMinYMin meet" x="336" y="-684.307"/>
<text text-anchor="start" x="360" y="-674.4068" font-family="Helvetica,sans-Serif" font-size="11.00" fill="#000000">rev_id</text>
<polygon fill="none" stroke="#000000" points="331,-645.3068 331,-667.3068 531,-667.3068 531,-645.3068 331,-645.3068"/>
<image xlink:href="../../images/primaryKeys.png" width="11px" height="12px" preserveAspectRatio="xMinYMin meet" x="336" y="-662.307"/>
<text text-anchor="start" x="360" y="-652.4068" font-family="Helvetica,sans-Serif" font-size="11.00" fill="#000000">id</text>
<polygon fill="none" stroke="#000000" points="331,-623.3068 331,-645.3068 531,-645.3068 531,-623.3068 331,-623.3068"/>
<image xlink:href="../../images/foreignKeys.png" width="11px" height="12px" preserveAspectRatio="xMinYMin meet" x="336" y="-640.307"/>
<text text-anchor="start" x="360" y="-630.4068" font-family="Helvetica,sans-Serif" font-size="11.00" fill="#000000">person_identifier</text>
<polygon fill="none" stroke="#000000" points="331,-601.3068 331,-623.3068 531,-623.3068 531,-601.3068 331,-601.3068"/>
<image xlink:href="../../images/foreignKeys.png" width="11px" height="12px" preserveAspectRatio="xMinYMin meet" x="336" y="-618.307"/>
<text text-anchor="start" x="360" y="-608.4068" font-family="Helvetica,sans-Serif" font-size="11.00" fill="#000000">legacy_id</text>
<polygon fill="#ffffff" stroke="transparent" points="331,-579.3068 331,-601.3068 531,-601.3068 531,-579.3068 331,-579.3068"/>
<polygon fill="none" stroke="#000000" points="331,-579.3068 331,-601.3068 531,-601.3068 531,-579.3068 331,-579.3068"/>
<text text-anchor="start" x="360" y="-586.4068" font-family="Helvetica,sans-Serif" font-size="11.00" fill="#000000">external_reference</text>
<polygon fill="none" stroke="#000000" points="331,-560.3068 331,-579.3068 531,-579.3068 531,-560.3068 331,-560.3068"/>
<text text-anchor="start" x="334" y="-566.4068" font-family="Helvetica,sans-Serif" font-size="11.00" fill="#000000">...</text>
<polygon fill="#ffffff" stroke="transparent" points="331,-541.3068 331,-560.3068 429,-560.3068 429,-541.3068 331,-541.3068"/>
<polygon fill="none" stroke="#000000" points="331,-541.3068 331,-560.3068 429,-560.3068 429,-541.3068 331,-541.3068"/>
<text text-anchor="start" x="334" y="-547.4068" font-family="Helvetica,sans-Serif" font-size="11.00" fill="#000000">&lt; 3</text>
<polygon fill="#ffffff" stroke="transparent" points="429,-541.3068 429,-560.3068 480,-560.3068 480,-541.3068 429,-541.3068"/>
<polygon fill="none" stroke="#000000" points="429,-541.3068 429,-560.3068 480,-560.3068 480,-541.3068 429,-541.3068"/>
<text text-anchor="start" x="470.8862" y="-547.4068" font-family="Helvetica,sans-Serif" font-size="11.00" fill="#000000"> &#160;</text>
<polygon fill="#ffffff" stroke="transparent" points="480,-541.3068 480,-560.3068 531,-560.3068 531,-541.3068 480,-541.3068"/>
<polygon fill="none" stroke="#000000" points="480,-541.3068 480,-560.3068 531,-560.3068 531,-541.3068 480,-541.3068"/>
<text text-anchor="start" x="521.8862" y="-547.4068" font-family="Helvetica,sans-Serif" font-size="11.00" fill="#000000"> &#160;</text>
</a>
</g>
</g>
<!-- court_appearance_audit&#45;&gt;audit_revision -->
<g id="edge5" class="edge">
<title>court_appearance_audit:w&#45;&gt;audit_revision:e</title>
<path fill="none" stroke="#000000" stroke-dasharray="5,2" d="M316.59,-612.3068C288.0545,-612.3068 275.9948,-612.3068 241.5,-612.3068"/>
<polygon fill="#000000" stroke="#000000" points="323,-612.3068 331,-615.9068 327,-612.3068 331,-612.3068 331,-612.3068 331,-612.3068 327,-612.3068 331,-608.7068 323,-612.3068 323,-612.3068"/>
<ellipse fill="none" stroke="#000000" cx="319.8" cy="-612.3068" rx="3.2" ry="3.2"/>
</g>
<!-- court_appearance_audit&#45;&gt;audit_revision -->
<g id="edge7" class="edge">
<title>court_appearance_audit:w&#45;&gt;audit_revision:e</title>
<path fill="none" stroke="#000000" d="M316.7382,-676.1108C282.9179,-664.6588 285.5181,-612.3068 241.5,-612.3068"/>
<polygon fill="#000000" stroke="#000000" points="323.0932,-677.0893 330.4521,-681.8648 327.0466,-677.698 331,-678.3068 331,-678.3068 331,-678.3068 327.0466,-677.698 331.5479,-674.7487 323.0932,-677.0893 323.0932,-677.0893"/>
<ellipse fill="none" stroke="#000000" cx="319.9304" cy="-676.6023" rx="3.2" ry="3.2"/>
</g>
<!-- court_appearance_audit&#45;&gt;person_summary -->
<g id="edge6" class="edge">
<title>court_appearance_audit:w&#45;&gt;person_summary:e</title>
<path fill="none" stroke="#000000" stroke-dasharray="5,2" d="M316.5564,-633.071C210.6935,-613.5894 327.7695,-370.3068 202.5,-370.3068"/>
<polygon fill="#000000" stroke="#000000" points="323.0291,-633.6247 330.6931,-637.8937 327.0146,-633.9657 331,-634.3068 331,-634.3068 331,-634.3068 327.0146,-633.9657 331.3069,-630.7199 323.0291,-633.6247 323.0291,-633.6247"/>
<ellipse fill="none" stroke="#000000" cx="319.8408" cy="-633.3519" rx="3.2" ry="3.2"/>
</g>
<!-- court_appearance_movement -->
<g id="node7" class="node">
<title>court_appearance_movement</title>
<g id="a_node7"><a xlink:href="../../tables/court_appearance_movement.html" xlink:title="court_appearance_movement" target="_top">
<polygon fill="#ffffff" stroke="transparent" points="619,-260.8068 619,-321.8068 856,-321.8068 856,-260.8068 619,-260.8068"/>
<polygon fill="#f5f5f5" stroke="transparent" points="619.5,-298.3068 619.5,-321.3068 856.5,-321.3068 856.5,-298.3068 619.5,-298.3068"/>
<polygon fill="none" stroke="#000000" points="619.5,-298.3068 619.5,-321.3068 856.5,-321.3068 856.5,-298.3068 619.5,-298.3068"/>
<text text-anchor="start" x="624.5" y="-306.9068" font-family="Helvetica,sans-Serif" font-weight="bold" font-size="11.00" fill="#000000">court_appearance_movement</text>
<text text-anchor="start" x="822.0219" y="-306.4068" font-family="Helvetica,sans-Serif" font-size="11.00" fill="#000000">[table]</text>
<polygon fill="none" stroke="#000000" points="619.5,-279.3068 619.5,-298.3068 856.5,-298.3068 856.5,-279.3068 619.5,-279.3068"/>
<text text-anchor="start" x="622.5" y="-285.4068" font-family="Helvetica,sans-Serif" font-size="11.00" fill="#000000">...</text>
<polygon fill="#ffffff" stroke="transparent" points="619.5,-260.3068 619.5,-279.3068 736.5,-279.3068 736.5,-260.3068 619.5,-260.3068"/>
<polygon fill="none" stroke="#000000" points="619.5,-260.3068 619.5,-279.3068 736.5,-279.3068 736.5,-260.3068 619.5,-260.3068"/>
<text text-anchor="start" x="622.5" y="-266.4068" font-family="Helvetica,sans-Serif" font-size="11.00" fill="#000000">&lt; 3</text>
<polygon fill="#ffffff" stroke="transparent" points="736.5,-260.3068 736.5,-279.3068 796.5,-279.3068 796.5,-260.3068 736.5,-260.3068"/>
<polygon fill="none" stroke="#000000" points="736.5,-260.3068 736.5,-279.3068 796.5,-279.3068 796.5,-260.3068 736.5,-260.3068"/>
<text text-anchor="start" x="787.3862" y="-266.4068" font-family="Helvetica,sans-Serif" font-size="11.00" fill="#000000"> &#160;</text>
<polygon fill="#ffffff" stroke="transparent" points="796.5,-260.3068 796.5,-279.3068 856.5,-279.3068 856.5,-260.3068 796.5,-260.3068"/>
<polygon fill="none" stroke="#000000" points="796.5,-260.3068 796.5,-279.3068 856.5,-279.3068 856.5,-260.3068 796.5,-260.3068"/>
<text text-anchor="start" x="847.3862" y="-266.4068" font-family="Helvetica,sans-Serif" font-size="11.00" fill="#000000"> &#160;</text>
</a>
</g>
</g>
<!-- court_appearance_movement&#45;&gt;court_appearance -->
<g id="edge8" class="edge">
<title>court_appearance_movement:w&#45;&gt;court_appearance:e</title>
<path fill="none" stroke="#000000" d="M604.8804,-288.3068C568.208,-288.3068 553.9479,-288.3068 511,-288.3068"/>
<polygon fill="#000000" stroke="#000000" points="611.5,-288.3068 619.5,-291.9068 615.5,-288.3068 619.5,-288.3068 619.5,-288.3068 619.5,-288.3068 615.5,-288.3068 619.5,-284.7068 611.5,-288.3068 611.5,-288.3068"/>
<ellipse fill="none" stroke="#000000" cx="608.3" cy="-288.3068" rx="3.2" ry="3.2"/>
</g>
<!-- court_appearance_movement&#45;&gt;person_summary -->
<g id="edge9" class="edge">
<title>court_appearance_movement:w&#45;&gt;person_summary:e</title>
<path fill="none" stroke="#000000" d="M605.5914,-293.0387C595.126,-302.5904 596.6611,-324.0519 578,-333.3068 519.2045,-362.4658 349.2847,-354.5937 284,-361.3068 247.7487,-365.0344 238.9424,-370.3068 202.5,-370.3068"/>
<polygon fill="#000000" stroke="#000000" points="611.9263,-290.8835 620.6595,-291.7149 615.7132,-289.5951 619.5,-288.3068 619.5,-288.3068 619.5,-288.3068 615.7132,-289.5951 618.3405,-284.8986 611.9263,-290.8835 611.9263,-290.8835"/>
<ellipse fill="none" stroke="#000000" cx="608.8968" cy="-291.9142" rx="3.2" ry="3.2"/>
</g>
<!-- court_appearance_movement&#45;&gt;court_appearance_reason -->
<g id="edge10" class="edge">
<title>court_appearance_movement:w&#45;&gt;court_appearance_reason:e</title>
<path fill="none" stroke="#000000" d="M604.786,-286.7933C537.5153,-270.8432 648.0728,-133.0445 578,-75.3068 477.1562,7.7853 413.559,-58.3289 284,-75.3068 260.056,-78.4445 255.6487,-89.3068 231.5,-89.3068"/>
<polygon fill="#000000" stroke="#000000" points="611.542,-287.4882 619.1316,-291.8879 615.521,-287.8975 619.5,-288.3068 619.5,-288.3068 619.5,-288.3068 615.521,-287.8975 619.8684,-284.7257 611.542,-287.4882 611.542,-287.4882"/>
<ellipse fill="none" stroke="#000000" cx="608.3588" cy="-287.1607" rx="3.2" ry="3.2"/>
</g>
<!-- court_appearance_movement_audit -->
<g id="node8" class="node">
<title>court_appearance_movement_audit</title>
<g id="a_node8"><a xlink:href="../../tables/court_appearance_movement_audit.html" xlink:title="court_appearance_movement_audit" target="_top">
<polygon fill="#ffffff" stroke="transparent" points="292,-371.8068 292,-520.8068 570,-520.8068 570,-371.8068 292,-371.8068"/>
<polygon fill="#f5f5f5" stroke="transparent" points="292,-497.3068 292,-520.3068 570,-520.3068 570,-497.3068 292,-497.3068"/>
<polygon fill="none" stroke="#000000" points="292,-497.3068 292,-520.3068 570,-520.3068 570,-497.3068 292,-497.3068"/>
<text text-anchor="start" x="297" y="-505.9068" font-family="Helvetica,sans-Serif" font-weight="bold" font-size="11.00" fill="#000000">court_appearance_movement_audit</text>
<text text-anchor="start" x="535.5219" y="-505.4068" font-family="Helvetica,sans-Serif" font-size="11.00" fill="#000000">[table]</text>
<polygon fill="none" stroke="#000000" points="292,-475.3068 292,-497.3068 570,-497.3068 570,-475.3068 292,-475.3068"/>
<image xlink:href="../../images/primaryKeys.png" width="11px" height="12px" preserveAspectRatio="xMinYMin meet" x="297" y="-492.307"/>
<text text-anchor="start" x="321" y="-482.4068" font-family="Helvetica,sans-Serif" font-size="11.00" fill="#000000">rev_id</text>
<polygon fill="none" stroke="#000000" points="292,-453.3068 292,-475.3068 570,-475.3068 570,-453.3068 292,-453.3068"/>
<image xlink:href="../../images/primaryKeys.png" width="11px" height="12px" preserveAspectRatio="xMinYMin meet" x="297" y="-470.307"/>
<text text-anchor="start" x="321" y="-460.4068" font-family="Helvetica,sans-Serif" font-size="11.00" fill="#000000">id</text>
<polygon fill="#ffffff" stroke="transparent" points="292,-431.3068 292,-453.3068 570,-453.3068 570,-431.3068 292,-431.3068"/>
<polygon fill="none" stroke="#000000" points="292,-431.3068 292,-453.3068 570,-453.3068 570,-431.3068 292,-431.3068"/>
<text text-anchor="start" x="321" y="-438.4068" font-family="Helvetica,sans-Serif" font-size="11.00" fill="#000000">court_appearance_id</text>
<polygon fill="none" stroke="#000000" points="292,-409.3068 292,-431.3068 570,-431.3068 570,-409.3068 292,-409.3068"/>
<image xlink:href="../../images/foreignKeys.png" width="11px" height="12px" preserveAspectRatio="xMinYMin meet" x="297" y="-426.307"/>
<text text-anchor="start" x="321" y="-416.4068" font-family="Helvetica,sans-Serif" font-size="11.00" fill="#000000">person_identifier</text>
<polygon fill="none" stroke="#000000" points="292,-390.3068 292,-409.3068 570,-409.3068 570,-390.3068 292,-390.3068"/>
<text text-anchor="start" x="295" y="-396.4068" font-family="Helvetica,sans-Serif" font-size="11.00" fill="#000000">...</text>
<polygon fill="#ffffff" stroke="transparent" points="292,-371.3068 292,-390.3068 429,-390.3068 429,-371.3068 292,-371.3068"/>
<polygon fill="none" stroke="#000000" points="292,-371.3068 292,-390.3068 429,-390.3068 429,-371.3068 292,-371.3068"/>
<text text-anchor="start" x="295" y="-377.4068" font-family="Helvetica,sans-Serif" font-size="11.00" fill="#000000">&lt; 2</text>
<polygon fill="#ffffff" stroke="transparent" points="429,-371.3068 429,-390.3068 499,-390.3068 499,-371.3068 429,-371.3068"/>
<polygon fill="none" stroke="#000000" points="429,-371.3068 429,-390.3068 499,-390.3068 499,-371.3068 429,-371.3068"/>
<text text-anchor="start" x="489.8862" y="-377.4068" font-family="Helvetica,sans-Serif" font-size="11.00" fill="#000000"> &#160;</text>
<polygon fill="#ffffff" stroke="transparent" points="499,-371.3068 499,-390.3068 570,-390.3068 570,-371.3068 499,-371.3068"/>
<polygon fill="none" stroke="#000000" points="499,-371.3068 499,-390.3068 570,-390.3068 570,-371.3068 499,-371.3068"/>
<text text-anchor="start" x="560.8862" y="-377.4068" font-family="Helvetica,sans-Serif" font-size="11.00" fill="#000000"> &#160;</text>
</a>
</g>
</g>
<!-- court_appearance_movement_audit&#45;&gt;audit_revision -->
<g id="edge12" class="edge">
<title>court_appearance_movement_audit:w&#45;&gt;audit_revision:e</title>
<path fill="none" stroke="#000000" d="M277.8154,-489.677C244.1284,-509.7145 295.9387,-612.3068 241.5,-612.3068"/>
<polygon fill="#000000" stroke="#000000" points="284.2167,-488.1561 292.8322,-489.8093 288.1083,-487.2314 292,-486.3068 292,-486.3068 292,-486.3068 288.1083,-487.2314 291.1678,-482.8043 284.2167,-488.1561 284.2167,-488.1561"/>
<ellipse fill="none" stroke="#000000" cx="281.1033" cy="-488.8958" rx="3.2" ry="3.2"/>
</g>
<!-- court_appearance_movement_audit&#45;&gt;person_summary -->
<g id="edge11" class="edge">
<title>court_appearance_movement_audit:w&#45;&gt;person_summary:e</title>
<path fill="none" stroke="#000000" stroke-dasharray="5,2" d="M277.3558,-418.2848C246.1381,-408.9306 242.5467,-370.3068 202.5,-370.3068"/>
<polygon fill="#000000" stroke="#000000" points="284.0752,-419.2125 291.5076,-423.8729 288.0376,-419.7596 292,-420.3068 292,-420.3068 292,-420.3068 288.0376,-419.7596 292.4924,-416.7406 284.0752,-419.2125 284.0752,-419.2125"/>
<ellipse fill="none" stroke="#000000" cx="280.9053" cy="-418.7748" rx="3.2" ry="3.2"/>
</g>
<!-- hmpps_domain_event_audit -->
<g id="node9" class="node">
<title>hmpps_domain_event_audit</title>
<g id="a_node9"><a xlink:href="../../tables/hmpps_domain_event_audit.html" xlink:title="hmpps_domain_event_audit" target="_top">
<polygon fill="#ffffff" stroke="transparent" points="318.5,-733.8068 318.5,-882.8068 543.5,-882.8068 543.5,-733.8068 318.5,-733.8068"/>
<polygon fill="#f5f5f5" stroke="transparent" points="319,-859.3068 319,-882.3068 544,-882.3068 544,-859.3068 319,-859.3068"/>
<polygon fill="none" stroke="#000000" points="319,-859.3068 319,-882.3068 544,-882.3068 544,-859.3068 319,-859.3068"/>
<text text-anchor="start" x="324" y="-867.9068" font-family="Helvetica,sans-Serif" font-weight="bold" font-size="11.00" fill="#000000">hmpps_domain_event_audit</text>
<text text-anchor="start" x="509.5219" y="-867.4068" font-family="Helvetica,sans-Serif" font-size="11.00" fill="#000000">[table]</text>
<polygon fill="none" stroke="#000000" points="319,-837.3068 319,-859.3068 544,-859.3068 544,-837.3068 319,-837.3068"/>
<image xlink:href="../../images/primaryKeys.png" width="11px" height="12px" preserveAspectRatio="xMinYMin meet" x="324" y="-854.307"/>
<text text-anchor="start" x="348" y="-844.4068" font-family="Helvetica,sans-Serif" font-size="11.00" fill="#000000">rev_id</text>
<polygon fill="none" stroke="#000000" points="319,-815.3068 319,-837.3068 544,-837.3068 544,-815.3068 319,-815.3068"/>
<image xlink:href="../../images/primaryKeys.png" width="11px" height="12px" preserveAspectRatio="xMinYMin meet" x="324" y="-832.307"/>
<text text-anchor="start" x="348" y="-822.4068" font-family="Helvetica,sans-Serif" font-size="11.00" fill="#000000">id</text>
<polygon fill="#ffffff" stroke="transparent" points="319,-793.3068 319,-815.3068 544,-815.3068 544,-793.3068 319,-793.3068"/>
<polygon fill="none" stroke="#000000" points="319,-793.3068 319,-815.3068 544,-815.3068 544,-793.3068 319,-793.3068"/>
<text text-anchor="start" x="348" y="-800.4068" font-family="Helvetica,sans-Serif" font-size="11.00" fill="#000000">entity_id</text>
<polygon fill="#ffffff" stroke="transparent" points="319,-771.3068 319,-793.3068 544,-793.3068 544,-771.3068 319,-771.3068"/>
<polygon fill="none" stroke="#000000" points="319,-771.3068 319,-793.3068 544,-793.3068 544,-771.3068 319,-771.3068"/>
<text text-anchor="start" x="348" y="-778.4068" font-family="Helvetica,sans-Serif" font-size="11.00" fill="#000000">event_type</text>
<polygon fill="none" stroke="#000000" points="319,-752.3068 319,-771.3068 544,-771.3068 544,-752.3068 319,-752.3068"/>
<text text-anchor="start" x="322" y="-758.4068" font-family="Helvetica,sans-Serif" font-size="11.00" fill="#000000">...</text>
<polygon fill="#ffffff" stroke="transparent" points="319,-733.3068 319,-752.3068 430,-752.3068 430,-733.3068 319,-733.3068"/>
<polygon fill="none" stroke="#000000" points="319,-733.3068 319,-752.3068 430,-752.3068 430,-733.3068 319,-733.3068"/>
<text text-anchor="start" x="322" y="-739.4068" font-family="Helvetica,sans-Serif" font-size="11.00" fill="#000000">&lt; 1</text>
<polygon fill="#ffffff" stroke="transparent" points="430,-733.3068 430,-752.3068 487,-752.3068 487,-733.3068 430,-733.3068"/>
<polygon fill="none" stroke="#000000" points="430,-733.3068 430,-752.3068 487,-752.3068 487,-733.3068 430,-733.3068"/>
<text text-anchor="start" x="477.8862" y="-739.4068" font-family="Helvetica,sans-Serif" font-size="11.00" fill="#000000"> &#160;</text>
<polygon fill="#ffffff" stroke="transparent" points="487,-733.3068 487,-752.3068 544,-752.3068 544,-733.3068 487,-733.3068"/>
<polygon fill="none" stroke="#000000" points="487,-733.3068 487,-752.3068 544,-752.3068 544,-733.3068 487,-733.3068"/>
<text text-anchor="start" x="534.8862" y="-739.4068" font-family="Helvetica,sans-Serif" font-size="11.00" fill="#000000"> &#160;</text>
</a>
</g>
</g>
<!-- hmpps_domain_event_audit&#45;&gt;audit_revision -->
<g id="edge13" class="edge">
<title>hmpps_domain_event_audit:w&#45;&gt;audit_revision:e</title>
<path fill="none" stroke="#000000" d="M305.6528,-842.473C269.1945,-806.131 291.5249,-612.3068 241.5,-612.3068"/>
<polygon fill="#000000" stroke="#000000" points="311.6696,-845.1028 317.5582,-851.6054 315.3348,-846.7048 319,-848.3068 319,-848.3068 319,-848.3068 315.3348,-846.7048 320.4418,-845.0081 311.6696,-845.1028 311.6696,-845.1028"/>
<ellipse fill="none" stroke="#000000" cx="308.7374" cy="-843.8212" rx="3.2" ry="3.2"/>
</g>
</g>
</svg>
