<?xml version="1.0" encoding="UTF-8" standalone="no"?>
<!DOCTYPE svg PUBLIC "-//W3C//DTD SVG 1.1//EN"
 "http://www.w3.org/Graphics/SVG/1.1/DTD/svg11.dtd">
<!-- Generated by graphviz version 2.40.1 (20161225.0304)
 -->
<!-- Title: oneDegreeRelationshipsDiagramImplied Pages: 1 -->
<svg width="586pt" height="583pt"
 viewBox="0.00 0.00 586.00 583.20" xmlns="http://www.w3.org/2000/svg" xmlns:xlink="http://www.w3.org/1999/xlink">
<g id="graph0" class="graph" transform="scale(1 1) rotate(0) translate(4 579.2)">
<title>oneDegreeRelationshipsDiagramImplied</title>
<polygon fill="#ffffff" stroke="transparent" points="-4,4 -4,-579.2 582,-579.2 582,4 -4,4"/>
<text text-anchor="middle" x="72.4936" y="-7.3" font-family="Helvetica,sans-Serif" font-size="11.00" fill="#000000">Generated by SchemaSpy</text>
<!-- court_appearance -->
<g id="node1" class="node">
<title>court_appearance</title>
<g id="a_node1"><a xlink:href="../../tables/court_appearance.html" xlink:title="court_appearance" target="_top">
<polygon fill="#ffffff" stroke="transparent" points="351.5,-356.2 351.5,-571.2 510.5,-571.2 510.5,-356.2 351.5,-356.2"/>
<polygon fill="#f5f5f5" stroke="transparent" points="352,-547.7 352,-570.7 511,-570.7 511,-547.7 352,-547.7"/>
<polygon fill="none" stroke="#000000" points="352,-547.7 352,-570.7 511,-570.7 511,-547.7 352,-547.7"/>
<text text-anchor="start" x="357" y="-556.3" font-family="Helvetica,sans-Serif" font-weight="bold" font-size="11.00" fill="#000000">court_appearance</text>
<text text-anchor="start" x="476.5219" y="-555.8" font-family="Helvetica,sans-Serif" font-size="11.00" fill="#000000">[table]</text>
<polygon fill="none" stroke="#000000" points="352,-525.7 352,-547.7 511,-547.7 511,-525.7 352,-525.7"/>
<image xlink:href="../../images/primaryKeys.png" width="11px" height="12px" preserveAspectRatio="xMinYMin meet" x="357" y="-542.7"/>
<text text-anchor="start" x="381" y="-532.8" font-family="Helvetica,sans-Serif" font-size="11.00" fill="#000000">id</text>
<polygon fill="#ffffff" stroke="transparent" points="352,-503.7 352,-525.7 511,-525.7 511,-503.7 352,-503.7"/>
<polygon fill="none" stroke="#000000" points="352,-503.7 352,-525.7 511,-525.7 511,-503.7 352,-503.7"/>
<image xlink:href="../../images/foreignKeys.png" width="11px" height="12px" preserveAspectRatio="xMinYMin meet" x="357" y="-520.7"/>
<text text-anchor="start" x="381" y="-510.8" font-family="Helvetica,sans-Serif" font-size="11.00" fill="#000000">person_identifier</text>
<polygon fill="#ffffff" stroke="transparent" points="352,-481.7 352,-503.7 511,-503.7 511,-481.7 352,-481.7"/>
<polygon fill="none" stroke="#000000" points="352,-481.7 352,-503.7 511,-503.7 511,-481.7 352,-481.7"/>
<text text-anchor="start" x="381" y="-488.8" font-family="Helvetica,sans-Serif" font-size="11.00" fill="#000000">prison_code</text>
<polygon fill="#ffffff" stroke="transparent" points="352,-459.7 352,-481.7 511,-481.7 511,-459.7 352,-459.7"/>
<polygon fill="none" stroke="#000000" points="352,-459.7 352,-481.7 511,-481.7 511,-459.7 352,-459.7"/>
<image xlink:href="../../images/foreignKeys.png" width="11px" height="12px" preserveAspectRatio="xMinYMin meet" x="357" y="-476.7"/>
<text text-anchor="start" x="381" y="-466.8" font-family="Helvetica,sans-Serif" font-size="11.00" fill="#000000">reason_id</text>
<polygon fill="#ffffff" stroke="transparent" points="352,-437.7 352,-459.7 511,-459.7 511,-437.7 352,-437.7"/>
<polygon fill="none" stroke="#000000" points="352,-437.7 352,-459.7 511,-459.7 511,-437.7 352,-437.7"/>
<image xlink:href="../../images/foreignKeys.png" width="11px" height="12px" preserveAspectRatio="xMinYMin meet" x="357" y="-454.7"/>
<text text-anchor="start" x="381" y="-444.8" font-family="Helvetica,sans-Serif" font-size="11.00" fill="#000000">status_id</text>
<polygon fill="#ffffff" stroke="transparent" points="352,-415.7 352,-437.7 511,-437.7 511,-415.7 352,-415.7"/>
<polygon fill="none" stroke="#000000" points="352,-415.7 352,-437.7 511,-437.7 511,-415.7 352,-415.7"/>
<text text-anchor="start" x="381" y="-422.8" font-family="Helvetica,sans-Serif" font-size="11.00" fill="#000000">start</text>
<polygon fill="#ffffff" stroke="transparent" points="352,-393.7 352,-415.7 511,-415.7 511,-393.7 352,-393.7"/>
<polygon fill="none" stroke="#000000" points="352,-393.7 352,-415.7 511,-415.7 511,-393.7 352,-393.7"/>
<image xlink:href="../../images/foreignKeys.png" width="11px" height="12px" preserveAspectRatio="xMinYMin meet" x="357" y="-410.7"/>
<text text-anchor="start" x="381" y="-400.8" font-family="Helvetica,sans-Serif" font-size="11.00" fill="#000000">legacy_id</text>
<polygon fill="none" stroke="#000000" points="352,-374.7 352,-393.7 511,-393.7 511,-374.7 352,-374.7"/>
<text text-anchor="start" x="355" y="-380.8" font-family="Helvetica,sans-Serif" font-size="11.00" fill="#000000">...</text>
<polygon fill="#ffffff" stroke="transparent" points="352,-355.7 352,-374.7 425,-374.7 425,-355.7 352,-355.7"/>
<polygon fill="none" stroke="#000000" points="352,-355.7 352,-374.7 425,-374.7 425,-355.7 352,-355.7"/>
<text text-anchor="start" x="355" y="-361.8" font-family="Helvetica,sans-Serif" font-size="11.00" fill="#000000">&lt; 4</text>
<polygon fill="#ffffff" stroke="transparent" points="425,-355.7 425,-374.7 463,-374.7 463,-355.7 425,-355.7"/>
<polygon fill="none" stroke="#000000" points="425,-355.7 425,-374.7 463,-374.7 463,-355.7 425,-355.7"/>
<text text-anchor="start" x="453.8862" y="-361.8" font-family="Helvetica,sans-Serif" font-size="11.00" fill="#000000"> &#160;</text>
<polygon fill="#ffffff" stroke="transparent" points="463,-355.7 463,-374.7 511,-374.7 511,-355.7 463,-355.7"/>
<polygon fill="none" stroke="#000000" points="463,-355.7 463,-374.7 511,-374.7 511,-355.7 463,-355.7"/>
<text text-anchor="start" x="492.4053" y="-361.8" font-family="Helvetica,sans-Serif" font-size="11.00" fill="#000000">1 &gt;</text>
</a>
</g>
</g>
<!-- audit_revision -->
<g id="node2" class="node">
<title>audit_revision</title>
<g id="a_node2"><a xlink:href="../../tables/audit_revision.html" xlink:title="audit_revision" target="_top">
<polygon fill="#ffffff" stroke="transparent" points="8,-103.7 8,-303.7 243,-303.7 243,-103.7 8,-103.7"/>
<polygon fill="#f5f5f5" stroke="transparent" points="10.5,-278.7 10.5,-301.7 241.5,-301.7 241.5,-278.7 10.5,-278.7"/>
<polygon fill="none" stroke="#000000" points="10.5,-278.7 10.5,-301.7 241.5,-301.7 241.5,-278.7 10.5,-278.7"/>
<text text-anchor="start" x="15.5" y="-287.3" font-family="Helvetica,sans-Serif" font-weight="bold" font-size="11.00" fill="#000000">audit_revision</text>
<text text-anchor="start" x="206.5437" y="-286.8" font-family="Helvetica,sans-Serif" font-size="11.00" fill="#000000">[table]</text>
<polygon fill="none" stroke="#000000" points="10.5,-256.7 10.5,-278.7 144.5,-278.7 144.5,-256.7 10.5,-256.7"/>
<image xlink:href="../../images/primaryKeys.png" width="11px" height="12px" preserveAspectRatio="xMinYMin meet" x="15.5" y="-273.7"/>
<text text-anchor="start" x="30.5" y="-263.8" font-family="Helvetica,sans-Serif" font-size="11.00" fill="#000000">id</text>
<polygon fill="none" stroke="#000000" points="144.5,-256.7 144.5,-278.7 241.5,-278.7 241.5,-256.7 144.5,-256.7"/>
<text text-anchor="start" x="147.5" y="-264.4" font-family="Helvetica,sans-Serif" font-size="11.00" fill="#000000">bigserial[19]</text>
<polygon fill="none" stroke="#000000" points="10.5,-234.7 10.5,-256.7 144.5,-256.7 144.5,-234.7 10.5,-234.7"/>
<text text-anchor="start" x="30.5" y="-241.8" font-family="Helvetica,sans-Serif" font-size="11.00" fill="#000000">timestamp</text>
<polygon fill="none" stroke="#000000" points="144.5,-234.7 144.5,-256.7 241.5,-256.7 241.5,-234.7 144.5,-234.7"/>
<text text-anchor="start" x="147.5" y="-242.4" font-family="Helvetica,sans-Serif" font-size="11.00" fill="#000000">timestamp[29,6]</text>
<polygon fill="none" stroke="#000000" points="10.5,-212.7 10.5,-234.7 144.5,-234.7 144.5,-212.7 10.5,-212.7"/>
<text text-anchor="start" x="30.5" y="-219.8" font-family="Helvetica,sans-Serif" font-size="11.00" fill="#000000">source</text>
<polygon fill="none" stroke="#000000" points="144.5,-212.7 144.5,-234.7 241.5,-234.7 241.5,-212.7 144.5,-212.7"/>
<text text-anchor="start" x="147.5" y="-220.4" font-family="Helvetica,sans-Serif" font-size="11.00" fill="#000000">varchar[6]</text>
<polygon fill="none" stroke="#000000" points="10.5,-190.7 10.5,-212.7 144.5,-212.7 144.5,-190.7 10.5,-190.7"/>
<text text-anchor="start" x="30.5" y="-197.8" font-family="Helvetica,sans-Serif" font-size="11.00" fill="#000000">affected_entities</text>
<polygon fill="none" stroke="#000000" points="144.5,-190.7 144.5,-212.7 241.5,-212.7 241.5,-190.7 144.5,-190.7"/>
<text text-anchor="start" x="147.4468" y="-198.4" font-family="Helvetica,sans-Serif" font-size="11.00" fill="#000000">_text[2147483647]</text>
<polygon fill="none" stroke="#000000" points="10.5,-168.7 10.5,-190.7 144.5,-190.7 144.5,-168.7 10.5,-168.7"/>
<text text-anchor="start" x="30.5" y="-175.8" font-family="Helvetica,sans-Serif" font-size="11.00" fill="#000000">username</text>
<polygon fill="none" stroke="#000000" points="144.5,-168.7 144.5,-190.7 241.5,-190.7 241.5,-168.7 144.5,-168.7"/>
<text text-anchor="start" x="147.5" y="-176.4" font-family="Helvetica,sans-Serif" font-size="11.00" fill="#000000">varchar[64]</text>
<polygon fill="none" stroke="#000000" points="10.5,-146.7 10.5,-168.7 144.5,-168.7 144.5,-146.7 10.5,-146.7"/>
<text text-anchor="start" x="30.5" y="-153.8" font-family="Helvetica,sans-Serif" font-size="11.00" fill="#000000">caseload_id</text>
<polygon fill="none" stroke="#000000" points="144.5,-146.7 144.5,-168.7 241.5,-168.7 241.5,-146.7 144.5,-146.7"/>
<text text-anchor="start" x="147.5" y="-154.4" font-family="Helvetica,sans-Serif" font-size="11.00" fill="#000000">varchar[10]</text>
<polygon fill="none" stroke="#000000" points="10.5,-124.7 10.5,-146.7 144.5,-146.7 144.5,-124.7 10.5,-124.7"/>
<text text-anchor="start" x="30.5" y="-131.8" font-family="Helvetica,sans-Serif" font-size="11.00" fill="#000000">reason</text>
<polygon fill="none" stroke="#000000" points="144.5,-124.7 144.5,-146.7 241.5,-146.7 241.5,-124.7 144.5,-124.7"/>
<text text-anchor="start" x="147.5" y="-132.4" font-family="Helvetica,sans-Serif" font-size="11.00" fill="#000000">text[2147483647]</text>
<polygon fill="#ffffff" stroke="transparent" points="10.5,-105.7 10.5,-124.7 81.5,-124.7 81.5,-105.7 10.5,-105.7"/>
<polygon fill="none" stroke="#000000" points="10.5,-105.7 10.5,-124.7 81.5,-124.7 81.5,-105.7 10.5,-105.7"/>
<text text-anchor="start" x="13.5" y="-111.8" font-family="Helvetica,sans-Serif" font-size="11.00" fill="#000000">&lt; 0</text>
<polygon fill="#ffffff" stroke="transparent" points="81.5,-105.7 81.5,-124.7 144.5,-124.7 144.5,-105.7 81.5,-105.7"/>
<polygon fill="none" stroke="#000000" points="81.5,-105.7 81.5,-124.7 144.5,-124.7 144.5,-105.7 81.5,-105.7"/>
<text text-anchor="start" x="135.3862" y="-111.8" font-family="Helvetica,sans-Serif" font-size="11.00" fill="#000000"> &#160;</text>
<polygon fill="#ffffff" stroke="transparent" points="144.5,-105.7 144.5,-124.7 241.5,-124.7 241.5,-105.7 144.5,-105.7"/>
<polygon fill="none" stroke="#000000" points="144.5,-105.7 144.5,-124.7 241.5,-124.7 241.5,-105.7 144.5,-105.7"/>
<text text-anchor="start" x="222.9053" y="-111.8" font-family="Helvetica,sans-Serif" font-size="11.00" fill="#000000">4 &gt;</text>
<polygon fill="none" stroke="#000000" stroke-width="2" points="9,-104.7 9,-302.7 242,-302.7 242,-104.7 9,-104.7"/>
</a>
</g>
</g>
<!-- court_appearance&#45;&gt;audit_revision -->
<g id="edge1" class="edge">
<title>court_appearance:w&#45;&gt;audit_revision:e</title>
<path fill="none" stroke="#000000" stroke-dasharray="5,2" d="M341.2841,-403.9267C311.2087,-399.2334 306.6329,-373.8304 284,-345.7 259.2522,-314.941 280.9787,-267.7 241.5,-267.7"/>
<polygon fill="#000000" stroke="#000000" points="351.49,-400.6528 350.9141,-408.632 349.3183,-408.5169 349.8942,-400.5376 351.49,-400.6528"/>
<polyline fill="none" stroke="#000000" points="352,-404.7 348.0104,-404.4121 "/>
<ellipse fill="none" stroke="#000000" cx="344.8187" cy="-404.1817" rx="3.2" ry="3.2"/>
</g>
<!-- court_appearance_audit -->
<g id="node3" class="node">
<title>court_appearance_audit</title>
<g id="a_node3"><a xlink:href="../../tables/court_appearance_audit.html" xlink:title="court_appearance_audit" target="_top">
<polygon fill="#ffffff" stroke="transparent" points="331,-186.2 331,-335.2 531,-335.2 531,-186.2 331,-186.2"/>
<polygon fill="#f5f5f5" stroke="transparent" points="331,-311.7 331,-334.7 531,-334.7 531,-311.7 331,-311.7"/>
<polygon fill="none" stroke="#000000" points="331,-311.7 331,-334.7 531,-334.7 531,-311.7 331,-311.7"/>
<text text-anchor="start" x="336" y="-320.3" font-family="Helvetica,sans-Serif" font-weight="bold" font-size="11.00" fill="#000000">court_appearance_audit</text>
<text text-anchor="start" x="496.5219" y="-319.8" font-family="Helvetica,sans-Serif" font-size="11.00" fill="#000000">[table]</text>
<polygon fill="none" stroke="#000000" points="331,-289.7 331,-311.7 531,-311.7 531,-289.7 331,-289.7"/>
<image xlink:href="../../images/primaryKeys.png" width="11px" height="12px" preserveAspectRatio="xMinYMin meet" x="336" y="-306.7"/>
<text text-anchor="start" x="360" y="-296.8" font-family="Helvetica,sans-Serif" font-size="11.00" fill="#000000">rev_id</text>
<polygon fill="none" stroke="#000000" points="331,-267.7 331,-289.7 531,-289.7 531,-267.7 331,-267.7"/>
<image xlink:href="../../images/primaryKeys.png" width="11px" height="12px" preserveAspectRatio="xMinYMin meet" x="336" y="-284.7"/>
<text text-anchor="start" x="360" y="-274.8" font-family="Helvetica,sans-Serif" font-size="11.00" fill="#000000">id</text>
<polygon fill="none" stroke="#000000" points="331,-245.7 331,-267.7 531,-267.7 531,-245.7 331,-245.7"/>
<image xlink:href="../../images/foreignKeys.png" width="11px" height="12px" preserveAspectRatio="xMinYMin meet" x="336" y="-262.7"/>
<text text-anchor="start" x="360" y="-252.8" font-family="Helvetica,sans-Serif" font-size="11.00" fill="#000000">person_identifier</text>
<polygon fill="none" stroke="#000000" points="331,-223.7 331,-245.7 531,-245.7 531,-223.7 331,-223.7"/>
<image xlink:href="../../images/foreignKeys.png" width="11px" height="12px" preserveAspectRatio="xMinYMin meet" x="336" y="-240.7"/>
<text text-anchor="start" x="360" y="-230.8" font-family="Helvetica,sans-Serif" font-size="11.00" fill="#000000">legacy_id</text>
<polygon fill="none" stroke="#000000" points="331,-204.7 331,-223.7 531,-223.7 531,-204.7 331,-204.7"/>
<text text-anchor="start" x="334" y="-210.8" font-family="Helvetica,sans-Serif" font-size="11.00" fill="#000000">...</text>
<polygon fill="#ffffff" stroke="transparent" points="331,-185.7 331,-204.7 429,-204.7 429,-185.7 331,-185.7"/>
<polygon fill="none" stroke="#000000" points="331,-185.7 331,-204.7 429,-204.7 429,-185.7 331,-185.7"/>
<text text-anchor="start" x="334" y="-191.8" font-family="Helvetica,sans-Serif" font-size="11.00" fill="#000000">&lt; 3</text>
<polygon fill="#ffffff" stroke="transparent" points="429,-185.7 429,-204.7 480,-204.7 480,-185.7 429,-185.7"/>
<polygon fill="none" stroke="#000000" points="429,-185.7 429,-204.7 480,-204.7 480,-185.7 429,-185.7"/>
<text text-anchor="start" x="470.8862" y="-191.8" font-family="Helvetica,sans-Serif" font-size="11.00" fill="#000000"> &#160;</text>
<polygon fill="#ffffff" stroke="transparent" points="480,-185.7 480,-204.7 531,-204.7 531,-185.7 480,-185.7"/>
<polygon fill="none" stroke="#000000" points="480,-185.7 480,-204.7 531,-204.7 531,-185.7 480,-185.7"/>
<text text-anchor="start" x="521.8862" y="-191.8" font-family="Helvetica,sans-Serif" font-size="11.00" fill="#000000"> &#160;</text>
</a>
</g>
</g>
<!-- court_appearance_audit&#45;&gt;audit_revision -->
<g id="edge2" class="edge">
<title>court_appearance_audit:w&#45;&gt;audit_revision:e</title>
<path fill="none" stroke="#000000" stroke-dasharray="5,2" d="M316.3221,-236.2037C286.7642,-242.6595 278.4305,-267.7 241.5,-267.7"/>
<polygon fill="#000000" stroke="#000000" points="323.0417,-235.5153 331.3669,-238.2813 327.0208,-235.1077 331,-234.7 331,-234.7 331,-234.7 327.0208,-235.1077 330.6331,-231.1187 323.0417,-235.5153 323.0417,-235.5153"/>
<ellipse fill="none" stroke="#000000" cx="319.8583" cy="-235.8415" rx="3.2" ry="3.2"/>
</g>
<!-- court_appearance_audit&#45;&gt;audit_revision -->
<g id="edge3" class="edge">
<title>court_appearance_audit:w&#45;&gt;audit_revision:e</title>
<path fill="none" stroke="#000000" d="M316.3221,-299.1963C286.7642,-292.7405 278.4305,-267.7 241.5,-267.7"/>
<polygon fill="#000000" stroke="#000000" points="323.0417,-299.8847 330.6331,-304.2813 327.0208,-300.2923 331,-300.7 331,-300.7 331,-300.7 327.0208,-300.2923 331.3669,-297.1187 323.0417,-299.8847 323.0417,-299.8847"/>
<ellipse fill="none" stroke="#000000" cx="319.8583" cy="-299.5585" rx="3.2" ry="3.2"/>
</g>
<!-- court_appearance_movement_audit -->
<g id="node4" class="node">
<title>court_appearance_movement_audit</title>
<g id="a_node4"><a xlink:href="../../tables/court_appearance_movement_audit.html" xlink:title="court_appearance_movement_audit" target="_top">
<polygon fill="#ffffff" stroke="transparent" points="292,-38.2 292,-165.2 570,-165.2 570,-38.2 292,-38.2"/>
<polygon fill="#f5f5f5" stroke="transparent" points="292,-141.7 292,-164.7 570,-164.7 570,-141.7 292,-141.7"/>
<polygon fill="none" stroke="#000000" points="292,-141.7 292,-164.7 570,-164.7 570,-141.7 292,-141.7"/>
<text text-anchor="start" x="297" y="-150.3" font-family="Helvetica,sans-Serif" font-weight="bold" font-size="11.00" fill="#000000">court_appearance_movement_audit</text>
<text text-anchor="start" x="535.5219" y="-149.8" font-family="Helvetica,sans-Serif" font-size="11.00" fill="#000000">[table]</text>
<polygon fill="none" stroke="#000000" points="292,-119.7 292,-141.7 570,-141.7 570,-119.7 292,-119.7"/>
<image xlink:href="../../images/primaryKeys.png" width="11px" height="12px" preserveAspectRatio="xMinYMin meet" x="297" y="-136.7"/>
<text text-anchor="start" x="321" y="-126.8" font-family="Helvetica,sans-Serif" font-size="11.00" fill="#000000">rev_id</text>
<polygon fill="none" stroke="#000000" points="292,-97.7 292,-119.7 570,-119.7 570,-97.7 292,-97.7"/>
<image xlink:href="../../images/primaryKeys.png" width="11px" height="12px" preserveAspectRatio="xMinYMin meet" x="297" y="-114.7"/>
<text text-anchor="start" x="321" y="-104.8" font-family="Helvetica,sans-Serif" font-size="11.00" fill="#000000">id</text>
<polygon fill="none" stroke="#000000" points="292,-75.7 292,-97.7 570,-97.7 570,-75.7 292,-75.7"/>
<image xlink:href="../../images/foreignKeys.png" width="11px" height="12px" preserveAspectRatio="xMinYMin meet" x="297" y="-92.7"/>
<text text-anchor="start" x="321" y="-82.8" font-family="Helvetica,sans-Serif" font-size="11.00" fill="#000000">person_identifier</text>
<polygon fill="none" stroke="#000000" points="292,-56.7 292,-75.7 570,-75.7 570,-56.7 292,-56.7"/>
<text text-anchor="start" x="295" y="-62.8" font-family="Helvetica,sans-Serif" font-size="11.00" fill="#000000">...</text>
<polygon fill="#ffffff" stroke="transparent" points="292,-37.7 292,-56.7 429,-56.7 429,-37.7 292,-37.7"/>
<polygon fill="none" stroke="#000000" points="292,-37.7 292,-56.7 429,-56.7 429,-37.7 292,-37.7"/>
<text text-anchor="start" x="295" y="-43.8" font-family="Helvetica,sans-Serif" font-size="11.00" fill="#000000">&lt; 1</text>
<polygon fill="#ffffff" stroke="transparent" points="429,-37.7 429,-56.7 499,-56.7 499,-37.7 429,-37.7"/>
<polygon fill="none" stroke="#000000" points="429,-37.7 429,-56.7 499,-56.7 499,-37.7 429,-37.7"/>
<text text-anchor="start" x="489.8862" y="-43.8" font-family="Helvetica,sans-Serif" font-size="11.00" fill="#000000"> &#160;</text>
<polygon fill="#ffffff" stroke="transparent" points="499,-37.7 499,-56.7 570,-56.7 570,-37.7 499,-37.7"/>
<polygon fill="none" stroke="#000000" points="499,-37.7 499,-56.7 570,-56.7 570,-37.7 499,-37.7"/>
<text text-anchor="start" x="560.8862" y="-43.8" font-family="Helvetica,sans-Serif" font-size="11.00" fill="#000000"> &#160;</text>
</a>
</g>
</g>
<!-- court_appearance_movement_audit&#45;&gt;audit_revision -->
<g id="edge4" class="edge">
<title>court_appearance_movement_audit:w&#45;&gt;audit_revision:e</title>
<path fill="none" stroke="#000000" d="M277.7914,-133.8188C240.1893,-154.2113 300.5635,-267.7 241.5,-267.7"/>
<polygon fill="#000000" stroke="#000000" points="284.186,-132.4152 292.7719,-134.2163 288.093,-131.5576 292,-130.7 292,-130.7 292,-130.7 288.093,-131.5576 291.2281,-127.1837 284.186,-132.4152 284.186,-132.4152"/>
<ellipse fill="none" stroke="#000000" cx="281.0604" cy="-133.1013" rx="3.2" ry="3.2"/>
</g>
</g>
</svg>
