<?xml version="1.0" encoding="UTF-8" standalone="no"?>
<!DOCTYPE svg PUBLIC "-//W3C//DTD SVG 1.1//EN"
 "http://www.w3.org/Graphics/SVG/1.1/DTD/svg11.dtd">
<!-- Generated by graphviz version 2.40.1 (20161225.0304)
 -->
<!-- Title: twoDegreesRelationshipsDiagramImplied Pages: 1 -->
<svg width="872pt" height="681pt"
 viewBox="0.00 0.00 872.00 680.81" xmlns="http://www.w3.org/2000/svg" xmlns:xlink="http://www.w3.org/1999/xlink">
<g id="graph0" class="graph" transform="scale(1 1) rotate(0) translate(4 676.8068)">
<title>twoDegreesRelationshipsDiagramImplied</title>
<polygon fill="#ffffff" stroke="transparent" points="-4,4 -4,-676.8068 868,-676.8068 868,4 -4,4"/>
<text text-anchor="middle" x="72.4936" y="-7.3" font-family="Helvetica,sans-Serif" font-size="11.00" fill="#000000">Generated by SchemaSpy</text>
<!-- court_appearance -->
<g id="node1" class="node">
<title>court_appearance</title>
<g id="a_node1"><a xlink:href="../../tables/court_appearance.html" xlink:title="court_appearance" target="_top">
<polygon fill="#ffffff" stroke="transparent" points="351.5,-85.8068 351.5,-322.8068 510.5,-322.8068 510.5,-85.8068 351.5,-85.8068"/>
<polygon fill="#f5f5f5" stroke="transparent" points="352,-299.3068 352,-322.3068 511,-322.3068 511,-299.3068 352,-299.3068"/>
<polygon fill="none" stroke="#000000" points="352,-299.3068 352,-322.3068 511,-322.3068 511,-299.3068 352,-299.3068"/>
<text text-anchor="start" x="357" y="-307.9068" font-family="Helvetica,sans-Serif" font-weight="bold" font-size="11.00" fill="#000000">court_appearance</text>
<text text-anchor="start" x="476.5219" y="-307.4068" font-family="Helvetica,sans-Serif" font-size="11.00" fill="#000000">[table]</text>
<polygon fill="none" stroke="#000000" points="352,-277.3068 352,-299.3068 511,-299.3068 511,-277.3068 352,-277.3068"/>
<image xlink:href="../../images/primaryKeys.png" width="11px" height="12px" preserveAspectRatio="xMinYMin meet" x="357" y="-294.307"/>
<text text-anchor="start" x="378" y="-284.4068" font-family="Helvetica,sans-Serif" font-size="11.00" fill="#000000">id</text>
<polygon fill="#ffffff" stroke="transparent" points="352,-255.3068 352,-277.3068 511,-277.3068 511,-255.3068 352,-255.3068"/>
<polygon fill="none" stroke="#000000" points="352,-255.3068 352,-277.3068 511,-277.3068 511,-255.3068 352,-255.3068"/>
<image xlink:href="../../images/foreignKeys.png" width="11px" height="12px" preserveAspectRatio="xMinYMin meet" x="357" y="-272.307"/>
<text text-anchor="start" x="378" y="-262.4068" font-family="Helvetica,sans-Serif" font-size="11.00" fill="#000000">person_identifier</text>
<polygon fill="#ffffff" stroke="transparent" points="352,-233.3068 352,-255.3068 511,-255.3068 511,-233.3068 352,-233.3068"/>
<polygon fill="none" stroke="#000000" points="352,-233.3068 352,-255.3068 511,-255.3068 511,-233.3068 352,-233.3068"/>
<text text-anchor="start" x="378" y="-240.4068" font-family="Helvetica,sans-Serif" font-size="11.00" fill="#000000">prison_code</text>
<polygon fill="#ffffff" stroke="transparent" points="352,-211.3068 352,-233.3068 511,-233.3068 511,-211.3068 352,-211.3068"/>
<polygon fill="none" stroke="#000000" points="352,-211.3068 352,-233.3068 511,-233.3068 511,-211.3068 352,-211.3068"/>
<image xlink:href="../../images/foreignKeys.png" width="11px" height="12px" preserveAspectRatio="xMinYMin meet" x="357" y="-228.307"/>
<text text-anchor="start" x="378" y="-218.4068" font-family="Helvetica,sans-Serif" font-size="11.00" fill="#000000">reason_id</text>
<polygon fill="#ffffff" stroke="transparent" points="352,-189.3068 352,-211.3068 511,-211.3068 511,-189.3068 352,-189.3068"/>
<polygon fill="none" stroke="#000000" points="352,-189.3068 352,-211.3068 511,-211.3068 511,-189.3068 352,-189.3068"/>
<image xlink:href="../../images/foreignKeys.png" width="11px" height="12px" preserveAspectRatio="xMinYMin meet" x="357" y="-206.307"/>
<text text-anchor="start" x="378" y="-196.4068" font-family="Helvetica,sans-Serif" font-size="11.00" fill="#000000">status_id</text>
<polygon fill="#ffffff" stroke="transparent" points="352,-167.3068 352,-189.3068 511,-189.3068 511,-167.3068 352,-167.3068"/>
<polygon fill="none" stroke="#000000" points="352,-167.3068 352,-189.3068 511,-189.3068 511,-167.3068 352,-167.3068"/>
<text text-anchor="start" x="378" y="-174.4068" font-family="Helvetica,sans-Serif" font-size="11.00" fill="#000000">start</text>
<polygon fill="#ffffff" stroke="transparent" points="352,-145.3068 352,-167.3068 511,-167.3068 511,-145.3068 352,-145.3068"/>
<polygon fill="none" stroke="#000000" points="352,-145.3068 352,-167.3068 511,-167.3068 511,-145.3068 352,-145.3068"/>
<image xlink:href="../../images/foreignKeys.png" width="11px" height="12px" preserveAspectRatio="xMinYMin meet" x="357" y="-162.307"/>
<text text-anchor="start" x="378" y="-152.4068" font-family="Helvetica,sans-Serif" font-size="11.00" fill="#000000">legacy_id</text>
<polygon fill="#ffffff" stroke="transparent" points="352,-123.3068 352,-145.3068 511,-145.3068 511,-123.3068 352,-123.3068"/>
<polygon fill="none" stroke="#000000" points="352,-123.3068 352,-145.3068 511,-145.3068 511,-123.3068 352,-123.3068"/>
<text text-anchor="start" x="378" y="-130.4068" font-family="Helvetica,sans-Serif" font-size="11.00" fill="#000000">external_reference</text>
<polygon fill="none" stroke="#000000" points="352,-104.3068 352,-123.3068 511,-123.3068 511,-104.3068 352,-104.3068"/>
<text text-anchor="start" x="355" y="-110.4068" font-family="Helvetica,sans-Serif" font-size="11.00" fill="#000000">...</text>
<polygon fill="#ffffff" stroke="transparent" points="352,-85.3068 352,-104.3068 425,-104.3068 425,-85.3068 352,-85.3068"/>
<polygon fill="none" stroke="#000000" points="352,-85.3068 352,-104.3068 425,-104.3068 425,-85.3068 352,-85.3068"/>
<text text-anchor="start" x="355" y="-91.4068" font-family="Helvetica,sans-Serif" font-size="11.00" fill="#000000">&lt; 4</text>
<polygon fill="#ffffff" stroke="transparent" points="425,-85.3068 425,-104.3068 463,-104.3068 463,-85.3068 425,-85.3068"/>
<polygon fill="none" stroke="#000000" points="425,-85.3068 425,-104.3068 463,-104.3068 463,-85.3068 425,-85.3068"/>
<text text-anchor="start" x="453.8862" y="-91.4068" font-family="Helvetica,sans-Serif" font-size="11.00" fill="#000000"> &#160;</text>
<polygon fill="#ffffff" stroke="transparent" points="463,-85.3068 463,-104.3068 511,-104.3068 511,-85.3068 463,-85.3068"/>
<polygon fill="none" stroke="#000000" points="463,-85.3068 463,-104.3068 511,-104.3068 511,-85.3068 463,-85.3068"/>
<text text-anchor="start" x="492.4053" y="-91.4068" font-family="Helvetica,sans-Serif" font-size="11.00" fill="#000000">1 &gt;</text>
</a>
</g>
</g>
<!-- audit_revision -->
<g id="node2" class="node">
<title>audit_revision</title>
<g id="a_node2"><a xlink:href="../../tables/audit_revision.html" xlink:title="audit_revision" target="_top">
<polygon fill="#ffffff" stroke="transparent" points="8,-403.3068 8,-603.3068 243,-603.3068 243,-403.3068 8,-403.3068"/>
<polygon fill="#f5f5f5" stroke="transparent" points="10.5,-578.3068 10.5,-601.3068 241.5,-601.3068 241.5,-578.3068 10.5,-578.3068"/>
<polygon fill="none" stroke="#000000" points="10.5,-578.3068 10.5,-601.3068 241.5,-601.3068 241.5,-578.3068 10.5,-578.3068"/>
<text text-anchor="start" x="15.5" y="-586.9068" font-family="Helvetica,sans-Serif" font-weight="bold" font-size="11.00" fill="#000000">audit_revision</text>
<text text-anchor="start" x="206.5437" y="-586.4068" font-family="Helvetica,sans-Serif" font-size="11.00" fill="#000000">[table]</text>
<polygon fill="none" stroke="#000000" points="10.5,-556.3068 10.5,-578.3068 144.5,-578.3068 144.5,-556.3068 10.5,-556.3068"/>
<image xlink:href="../../images/primaryKeys.png" width="11px" height="12px" preserveAspectRatio="xMinYMin meet" x="15.5" y="-573.307"/>
<text text-anchor="start" x="30.5" y="-563.4068" font-family="Helvetica,sans-Serif" font-size="11.00" fill="#000000">id</text>
<polygon fill="none" stroke="#000000" points="144.5,-556.3068 144.5,-578.3068 241.5,-578.3068 241.5,-556.3068 144.5,-556.3068"/>
<text text-anchor="start" x="147.5" y="-564.0068" font-family="Helvetica,sans-Serif" font-size="11.00" fill="#000000">bigserial[19]</text>
<polygon fill="none" stroke="#000000" points="10.5,-534.3068 10.5,-556.3068 144.5,-556.3068 144.5,-534.3068 10.5,-534.3068"/>
<text text-anchor="start" x="30.5" y="-541.4068" font-family="Helvetica,sans-Serif" font-size="11.00" fill="#000000">timestamp</text>
<polygon fill="none" stroke="#000000" points="144.5,-534.3068 144.5,-556.3068 241.5,-556.3068 241.5,-534.3068 144.5,-534.3068"/>
<text text-anchor="start" x="147.5" y="-542.0068" font-family="Helvetica,sans-Serif" font-size="11.00" fill="#000000">timestamp[29,6]</text>
<polygon fill="none" stroke="#000000" points="10.5,-512.3068 10.5,-534.3068 144.5,-534.3068 144.5,-512.3068 10.5,-512.3068"/>
<text text-anchor="start" x="30.5" y="-519.4068" font-family="Helvetica,sans-Serif" font-size="11.00" fill="#000000">source</text>
<polygon fill="none" stroke="#000000" points="144.5,-512.3068 144.5,-534.3068 241.5,-534.3068 241.5,-512.3068 144.5,-512.3068"/>
<text text-anchor="start" x="147.5" y="-520.0068" font-family="Helvetica,sans-Serif" font-size="11.00" fill="#000000">varchar[6]</text>
<polygon fill="none" stroke="#000000" points="10.5,-490.3068 10.5,-512.3068 144.5,-512.3068 144.5,-490.3068 10.5,-490.3068"/>
<text text-anchor="start" x="30.5" y="-497.4068" font-family="Helvetica,sans-Serif" font-size="11.00" fill="#000000">affected_entities</text>
<polygon fill="none" stroke="#000000" points="144.5,-490.3068 144.5,-512.3068 241.5,-512.3068 241.5,-490.3068 144.5,-490.3068"/>
<text text-anchor="start" x="147.4468" y="-498.0068" font-family="Helvetica,sans-Serif" font-size="11.00" fill="#000000">_text[2147483647]</text>
<polygon fill="none" stroke="#000000" points="10.5,-468.3068 10.5,-490.3068 144.5,-490.3068 144.5,-468.3068 10.5,-468.3068"/>
<text text-anchor="start" x="30.5" y="-475.4068" font-family="Helvetica,sans-Serif" font-size="11.00" fill="#000000">username</text>
<polygon fill="none" stroke="#000000" points="144.5,-468.3068 144.5,-490.3068 241.5,-490.3068 241.5,-468.3068 144.5,-468.3068"/>
<text text-anchor="start" x="147.5" y="-476.0068" font-family="Helvetica,sans-Serif" font-size="11.00" fill="#000000">varchar[64]</text>
<polygon fill="none" stroke="#000000" points="10.5,-446.3068 10.5,-468.3068 144.5,-468.3068 144.5,-446.3068 10.5,-446.3068"/>
<text text-anchor="start" x="30.5" y="-453.4068" font-family="Helvetica,sans-Serif" font-size="11.00" fill="#000000">caseload_id</text>
<polygon fill="none" stroke="#000000" points="144.5,-446.3068 144.5,-468.3068 241.5,-468.3068 241.5,-446.3068 144.5,-446.3068"/>
<text text-anchor="start" x="147.5" y="-454.0068" font-family="Helvetica,sans-Serif" font-size="11.00" fill="#000000">varchar[10]</text>
<polygon fill="none" stroke="#000000" points="10.5,-424.3068 10.5,-446.3068 144.5,-446.3068 144.5,-424.3068 10.5,-424.3068"/>
<text text-anchor="start" x="30.5" y="-431.4068" font-family="Helvetica,sans-Serif" font-size="11.00" fill="#000000">reason</text>
<polygon fill="none" stroke="#000000" points="144.5,-424.3068 144.5,-446.3068 241.5,-446.3068 241.5,-424.3068 144.5,-424.3068"/>
<text text-anchor="start" x="147.5" y="-432.0068" font-family="Helvetica,sans-Serif" font-size="11.00" fill="#000000">text[2147483647]</text>
<polygon fill="#ffffff" stroke="transparent" points="10.5,-405.3068 10.5,-424.3068 81.5,-424.3068 81.5,-405.3068 10.5,-405.3068"/>
<polygon fill="none" stroke="#000000" points="10.5,-405.3068 10.5,-424.3068 81.5,-424.3068 81.5,-405.3068 10.5,-405.3068"/>
<text text-anchor="start" x="13.5" y="-411.4068" font-family="Helvetica,sans-Serif" font-size="11.00" fill="#000000">&lt; 0</text>
<polygon fill="#ffffff" stroke="transparent" points="81.5,-405.3068 81.5,-424.3068 144.5,-424.3068 144.5,-405.3068 81.5,-405.3068"/>
<polygon fill="none" stroke="#000000" points="81.5,-405.3068 81.5,-424.3068 144.5,-424.3068 144.5,-405.3068 81.5,-405.3068"/>
<text text-anchor="start" x="135.3862" y="-411.4068" font-family="Helvetica,sans-Serif" font-size="11.00" fill="#000000"> &#160;</text>
<polygon fill="#ffffff" stroke="transparent" points="144.5,-405.3068 144.5,-424.3068 241.5,-424.3068 241.5,-405.3068 144.5,-405.3068"/>
<polygon fill="none" stroke="#000000" points="144.5,-405.3068 144.5,-424.3068 241.5,-424.3068 241.5,-405.3068 144.5,-405.3068"/>
<text text-anchor="start" x="222.9053" y="-411.4068" font-family="Helvetica,sans-Serif" font-size="11.00" fill="#000000">4 &gt;</text>
<polygon fill="none" stroke="#000000" stroke-width="2" points="9,-404.3068 9,-602.3068 242,-602.3068 242,-404.3068 9,-404.3068"/>
</a>
</g>
</g>
<!-- court_appearance&#45;&gt;audit_revision -->
<g id="edge1" class="edge">
<title>court_appearance:w&#45;&gt;audit_revision:e</title>
<path fill="none" stroke="#000000" stroke-dasharray="5,2" d="M341.4187,-156.8129C260.0171,-165.0488 307.8807,-272.2085 284,-361.3068 271.8991,-406.4551 288.2419,-567.3068 241.5,-567.3068"/>
<polygon fill="#000000" stroke="#000000" points="351.0098,-152.3496 351.3921,-160.3404 349.7939,-160.4169 349.4116,-152.426 351.0098,-152.3496"/>
<polyline fill="none" stroke="#000000" points="352,-156.3068 348.0046,-156.4979 "/>
<ellipse fill="none" stroke="#000000" cx="344.8082" cy="-156.6508" rx="3.2" ry="3.2"/>
</g>
<!-- person_summary -->
<g id="node3" class="node">
<title>person_summary</title>
<g id="a_node3"><a xlink:href="../../tables/person_summary.html" xlink:title="person_summary" target="_top">
<polygon fill="#ffffff" stroke="transparent" points="48.5,-319.8068 48.5,-380.8068 202.5,-380.8068 202.5,-319.8068 48.5,-319.8068"/>
<polygon fill="#f5f5f5" stroke="transparent" points="48.5,-357.3068 48.5,-380.3068 202.5,-380.3068 202.5,-357.3068 48.5,-357.3068"/>
<polygon fill="none" stroke="#000000" points="48.5,-357.3068 48.5,-380.3068 202.5,-380.3068 202.5,-357.3068 48.5,-357.3068"/>
<text text-anchor="start" x="53.5" y="-365.9068" font-family="Helvetica,sans-Serif" font-weight="bold" font-size="11.00" fill="#000000">person_summary</text>
<text text-anchor="start" x="168.0219" y="-365.4068" font-family="Helvetica,sans-Serif" font-size="11.00" fill="#000000">[table]</text>
<polygon fill="none" stroke="#000000" points="48.5,-338.3068 48.5,-357.3068 202.5,-357.3068 202.5,-338.3068 48.5,-338.3068"/>
<text text-anchor="start" x="51.5" y="-344.4068" font-family="Helvetica,sans-Serif" font-size="11.00" fill="#000000">...</text>
<polygon fill="#ffffff" stroke="transparent" points="48.5,-319.3068 48.5,-338.3068 114.5,-338.3068 114.5,-319.3068 48.5,-319.3068"/>
<polygon fill="none" stroke="#000000" points="48.5,-319.3068 48.5,-338.3068 114.5,-338.3068 114.5,-319.3068 48.5,-319.3068"/>
<text text-anchor="start" x="51.5" y="-325.4068" font-family="Helvetica,sans-Serif" font-size="11.00" fill="#000000"> &#160;</text>
<polygon fill="#ffffff" stroke="transparent" points="114.5,-319.3068 114.5,-338.3068 153.5,-338.3068 153.5,-319.3068 114.5,-319.3068"/>
<polygon fill="none" stroke="#000000" points="114.5,-319.3068 114.5,-338.3068 153.5,-338.3068 153.5,-319.3068 114.5,-319.3068"/>
<text text-anchor="start" x="144.3862" y="-325.4068" font-family="Helvetica,sans-Serif" font-size="11.00" fill="#000000"> &#160;</text>
<polygon fill="#ffffff" stroke="transparent" points="153.5,-319.3068 153.5,-338.3068 202.5,-338.3068 202.5,-319.3068 153.5,-319.3068"/>
<polygon fill="none" stroke="#000000" points="153.5,-319.3068 153.5,-338.3068 202.5,-338.3068 202.5,-319.3068 153.5,-319.3068"/>
<text text-anchor="start" x="183.9053" y="-325.4068" font-family="Helvetica,sans-Serif" font-size="11.00" fill="#000000">4 &gt;</text>
</a>
</g>
</g>
<!-- court_appearance&#45;&gt;person_summary -->
<g id="edge2" class="edge">
<title>court_appearance:w&#45;&gt;person_summary:e</title>
<path fill="none" stroke="#000000" d="M337.5353,-267.3906C276.2932,-277.0025 272.9043,-347.3068 202.5,-347.3068"/>
<polygon fill="#000000" stroke="#000000" points="344.0224,-266.9045 352.269,-269.8967 348.0112,-266.6057 352,-266.3068 352,-266.3068 352,-266.3068 348.0112,-266.6057 351.731,-262.7168 344.0224,-266.9045 344.0224,-266.9045"/>
<ellipse fill="none" stroke="#000000" cx="340.8313" cy="-267.1437" rx="3.2" ry="3.2"/>
</g>
<!-- court_appearance_reason -->
<g id="node4" class="node">
<title>court_appearance_reason</title>
<g id="a_node4"><a xlink:href="../../tables/court_appearance_reason.html" xlink:title="court_appearance_reason" target="_top">
<polygon fill="#ffffff" stroke="transparent" points="20,-61.8068 20,-122.8068 231,-122.8068 231,-61.8068 20,-61.8068"/>
<polygon fill="#f5f5f5" stroke="transparent" points="20.5,-99.3068 20.5,-122.3068 231.5,-122.3068 231.5,-99.3068 20.5,-99.3068"/>
<polygon fill="none" stroke="#000000" points="20.5,-99.3068 20.5,-122.3068 231.5,-122.3068 231.5,-99.3068 20.5,-99.3068"/>
<text text-anchor="start" x="25.5" y="-107.9068" font-family="Helvetica,sans-Serif" font-weight="bold" font-size="11.00" fill="#000000">court_appearance_reason</text>
<text text-anchor="start" x="197.0219" y="-107.4068" font-family="Helvetica,sans-Serif" font-size="11.00" fill="#000000">[table]</text>
<polygon fill="none" stroke="#000000" points="20.5,-80.3068 20.5,-99.3068 231.5,-99.3068 231.5,-80.3068 20.5,-80.3068"/>
<text text-anchor="start" x="23.5" y="-86.4068" font-family="Helvetica,sans-Serif" font-size="11.00" fill="#000000">...</text>
<polygon fill="#ffffff" stroke="transparent" points="20.5,-61.3068 20.5,-80.3068 115.5,-80.3068 115.5,-61.3068 20.5,-61.3068"/>
<polygon fill="none" stroke="#000000" points="20.5,-61.3068 20.5,-80.3068 115.5,-80.3068 115.5,-61.3068 20.5,-61.3068"/>
<text text-anchor="start" x="23.5" y="-67.4068" font-family="Helvetica,sans-Serif" font-size="11.00" fill="#000000"> &#160;</text>
<polygon fill="#ffffff" stroke="transparent" points="115.5,-61.3068 115.5,-80.3068 168.5,-80.3068 168.5,-61.3068 115.5,-61.3068"/>
<polygon fill="none" stroke="#000000" points="115.5,-61.3068 115.5,-80.3068 168.5,-80.3068 168.5,-61.3068 115.5,-61.3068"/>
<text text-anchor="start" x="159.3862" y="-67.4068" font-family="Helvetica,sans-Serif" font-size="11.00" fill="#000000"> &#160;</text>
<polygon fill="#ffffff" stroke="transparent" points="168.5,-61.3068 168.5,-80.3068 231.5,-80.3068 231.5,-61.3068 168.5,-61.3068"/>
<polygon fill="none" stroke="#000000" points="168.5,-61.3068 168.5,-80.3068 231.5,-80.3068 231.5,-61.3068 168.5,-61.3068"/>
<text text-anchor="start" x="212.9053" y="-67.4068" font-family="Helvetica,sans-Serif" font-size="11.00" fill="#000000">2 &gt;</text>
</a>
</g>
</g>
<!-- court_appearance&#45;&gt;court_appearance_reason -->
<g id="edge3" class="edge">
<title>court_appearance:w&#45;&gt;court_appearance_reason:e</title>
<path fill="none" stroke="#000000" d="M337.6115,-220.6251C276.8954,-205.2292 305.9673,-89.3068 231.5,-89.3068"/>
<polygon fill="#000000" stroke="#000000" points="344.0541,-221.3781 351.5821,-225.8824 348.027,-221.8424 352,-222.3068 352,-222.3068 352,-222.3068 348.027,-221.8424 352.4179,-218.7311 344.0541,-221.3781 344.0541,-221.3781"/>
<ellipse fill="none" stroke="#000000" cx="340.8757" cy="-221.0066" rx="3.2" ry="3.2"/>
</g>
<!-- court_appearance_status -->
<g id="node5" class="node">
<title>court_appearance_status</title>
<g id="a_node5"><a xlink:href="../../tables/court_appearance_status.html" xlink:title="court_appearance_status" target="_top">
<polygon fill="#ffffff" stroke="transparent" points="21.5,-172.8068 21.5,-233.8068 229.5,-233.8068 229.5,-172.8068 21.5,-172.8068"/>
<polygon fill="#f5f5f5" stroke="transparent" points="21.5,-210.3068 21.5,-233.3068 229.5,-233.3068 229.5,-210.3068 21.5,-210.3068"/>
<polygon fill="none" stroke="#000000" points="21.5,-210.3068 21.5,-233.3068 229.5,-233.3068 229.5,-210.3068 21.5,-210.3068"/>
<text text-anchor="start" x="26.5" y="-218.9068" font-family="Helvetica,sans-Serif" font-weight="bold" font-size="11.00" fill="#000000">court_appearance_status</text>
<text text-anchor="start" x="195.0219" y="-218.4068" font-family="Helvetica,sans-Serif" font-size="11.00" fill="#000000">[table]</text>
<polygon fill="none" stroke="#000000" points="21.5,-191.3068 21.5,-210.3068 229.5,-210.3068 229.5,-191.3068 21.5,-191.3068"/>
<text text-anchor="start" x="24.5" y="-197.4068" font-family="Helvetica,sans-Serif" font-size="11.00" fill="#000000">...</text>
<polygon fill="#ffffff" stroke="transparent" points="21.5,-172.3068 21.5,-191.3068 114.5,-191.3068 114.5,-172.3068 21.5,-172.3068"/>
<polygon fill="none" stroke="#000000" points="21.5,-172.3068 21.5,-191.3068 114.5,-191.3068 114.5,-172.3068 21.5,-172.3068"/>
<text text-anchor="start" x="24.5" y="-178.4068" font-family="Helvetica,sans-Serif" font-size="11.00" fill="#000000"> &#160;</text>
<polygon fill="#ffffff" stroke="transparent" points="114.5,-172.3068 114.5,-191.3068 167.5,-191.3068 167.5,-172.3068 114.5,-172.3068"/>
<polygon fill="none" stroke="#000000" points="114.5,-172.3068 114.5,-191.3068 167.5,-191.3068 167.5,-172.3068 114.5,-172.3068"/>
<text text-anchor="start" x="158.3862" y="-178.4068" font-family="Helvetica,sans-Serif" font-size="11.00" fill="#000000"> &#160;</text>
<polygon fill="#ffffff" stroke="transparent" points="167.5,-172.3068 167.5,-191.3068 229.5,-191.3068 229.5,-172.3068 167.5,-172.3068"/>
<polygon fill="none" stroke="#000000" points="167.5,-172.3068 167.5,-191.3068 229.5,-191.3068 229.5,-172.3068 167.5,-172.3068"/>
<text text-anchor="start" x="210.9053" y="-178.4068" font-family="Helvetica,sans-Serif" font-size="11.00" fill="#000000">1 &gt;</text>
</a>
</g>
</g>
<!-- court_appearance&#45;&gt;court_appearance_status -->
<g id="edge4" class="edge">
<title>court_appearance:w&#45;&gt;court_appearance_status:e</title>
<path fill="none" stroke="#000000" d="M337.4189,-200.3068C294.5763,-200.3068 278.7339,-200.3068 229.5,-200.3068"/>
<polygon fill="#000000" stroke="#000000" points="344,-200.3068 352,-203.9068 348,-200.3068 352,-200.3068 352,-200.3068 352,-200.3068 348,-200.3068 352,-196.7068 344,-200.3068 344,-200.3068"/>
<ellipse fill="none" stroke="#000000" cx="340.8" cy="-200.3068" rx="3.2" ry="3.2"/>
</g>
<!-- court_appearance_audit -->
<g id="node6" class="node">
<title>court_appearance_audit</title>
<g id="a_node6"><a xlink:href="../../tables/court_appearance_audit.html" xlink:title="court_appearance_audit" target="_top">
<polygon fill="#ffffff" stroke="transparent" points="331,-519.8068 331,-668.8068 531,-668.8068 531,-519.8068 331,-519.8068"/>
<polygon fill="#f5f5f5" stroke="transparent" points="331,-645.3068 331,-668.3068 531,-668.3068 531,-645.3068 331,-645.3068"/>
<polygon fill="none" stroke="#000000" points="331,-645.3068 331,-668.3068 531,-668.3068 531,-645.3068 331,-645.3068"/>
<text text-anchor="start" x="336" y="-653.9068" font-family="Helvetica,sans-Serif" font-weight="bold" font-size="11.00" fill="#000000">court_appearance_audit</text>
<text text-anchor="start" x="496.5219" y="-653.4068" font-family="Helvetica,sans-Serif" font-size="11.00" fill="#000000">[table]</text>
<polygon fill="none" stroke="#000000" points="331,-623.3068 331,-645.3068 531,-645.3068 531,-623.3068 331,-623.3068"/>
<image xlink:href="../../images/primaryKeys.png" width="11px" height="12px" preserveAspectRatio="xMinYMin meet" x="336" y="-640.307"/>
<text text-anchor="start" x="360" y="-630.4068" font-family="Helvetica,sans-Serif" font-size="11.00" fill="#000000">rev_id</text>
<polygon fill="none" stroke="#000000" points="331,-601.3068 331,-623.3068 531,-623.3068 531,-601.3068 331,-601.3068"/>
<image xlink:href="../../images/primaryKeys.png" width="11px" height="12px" preserveAspectRatio="xMinYMin meet" x="336" y="-618.307"/>
<text text-anchor="start" x="360" y="-608.4068" font-family="Helvetica,sans-Serif" font-size="11.00" fill="#000000">id</text>
<polygon fill="none" stroke="#000000" points="331,-579.3068 331,-601.3068 531,-601.3068 531,-579.3068 331,-579.3068"/>
<image xlink:href="../../images/foreignKeys.png" width="11px" height="12px" preserveAspectRatio="xMinYMin meet" x="336" y="-596.307"/>
<text text-anchor="start" x="360" y="-586.4068" font-family="Helvetica,sans-Serif" font-size="11.00" fill="#000000">person_identifier</text>
<polygon fill="none" stroke="#000000" points="331,-557.3068 331,-579.3068 531,-579.3068 531,-557.3068 331,-557.3068"/>
<image xlink:href="../../images/foreignKeys.png" width="11px" height="12px" preserveAspectRatio="xMinYMin meet" x="336" y="-574.307"/>
<text text-anchor="start" x="360" y="-564.4068" font-family="Helvetica,sans-Serif" font-size="11.00" fill="#000000">legacy_id</text>
<polygon fill="none" stroke="#000000" points="331,-538.3068 331,-557.3068 531,-557.3068 531,-538.3068 331,-538.3068"/>
<text text-anchor="start" x="334" y="-544.4068" font-family="Helvetica,sans-Serif" font-size="11.00" fill="#000000">...</text>
<polygon fill="#ffffff" stroke="transparent" points="331,-519.3068 331,-538.3068 429,-538.3068 429,-519.3068 331,-519.3068"/>
<polygon fill="none" stroke="#000000" points="331,-519.3068 331,-538.3068 429,-538.3068 429,-519.3068 331,-519.3068"/>
<text text-anchor="start" x="334" y="-525.4068" font-family="Helvetica,sans-Serif" font-size="11.00" fill="#000000">&lt; 3</text>
<polygon fill="#ffffff" stroke="transparent" points="429,-519.3068 429,-538.3068 480,-538.3068 480,-519.3068 429,-519.3068"/>
<polygon fill="none" stroke="#000000" points="429,-519.3068 429,-538.3068 480,-538.3068 480,-519.3068 429,-519.3068"/>
<text text-anchor="start" x="470.8862" y="-525.4068" font-family="Helvetica,sans-Serif" font-size="11.00" fill="#000000"> &#160;</text>
<polygon fill="#ffffff" stroke="transparent" points="480,-519.3068 480,-538.3068 531,-538.3068 531,-519.3068 480,-519.3068"/>
<polygon fill="none" stroke="#000000" points="480,-519.3068 480,-538.3068 531,-538.3068 531,-519.3068 480,-519.3068"/>
<text text-anchor="start" x="521.8862" y="-525.4068" font-family="Helvetica,sans-Serif" font-size="11.00" fill="#000000"> &#160;</text>
</a>
</g>
</g>
<!-- court_appearance_audit&#45;&gt;audit_revision -->
<g id="edge5" class="edge">
<title>court_appearance_audit:w&#45;&gt;audit_revision:e</title>
<path fill="none" stroke="#000000" stroke-dasharray="5,2" d="M316.5893,-568.2585C288.0532,-568.0588 275.9969,-567.3068 241.5,-567.3068"/>
<polygon fill="#000000" stroke="#000000" points="323,-568.2799 330.9879,-571.9067 327,-568.2933 331,-568.3068 331,-568.3068 331,-568.3068 327,-568.2933 331.0121,-564.7068 323,-568.2799 323,-568.2799"/>
<ellipse fill="none" stroke="#000000" cx="319.8001" cy="-568.2692" rx="3.2" ry="3.2"/>
</g>
<!-- court_appearance_audit&#45;&gt;audit_revision -->
<g id="edge7" class="edge">
<title>court_appearance_audit:w&#45;&gt;audit_revision:e</title>
<path fill="none" stroke="#000000" d="M316.6777,-632.0776C282.7593,-620.452 285.7542,-567.3068 241.5,-567.3068"/>
<polygon fill="#000000" stroke="#000000" points="323.0952,-633.0764 330.4463,-637.8639 327.0476,-633.6916 331,-634.3068 331,-634.3068 331,-634.3068 327.0476,-633.6916 331.5537,-630.7496 323.0952,-633.0764 323.0952,-633.0764"/>
<ellipse fill="none" stroke="#000000" cx="319.9332" cy="-632.5842" rx="3.2" ry="3.2"/>
</g>
<!-- court_appearance_audit&#45;&gt;person_summary -->
<g id="edge6" class="edge">
<title>court_appearance_audit:w&#45;&gt;person_summary:e</title>
<path fill="none" stroke="#000000" stroke-dasharray="5,2" d="M316.532,-588.9994C218.345,-569.8726 319.4212,-347.3068 202.5,-347.3068"/>
<polygon fill="#000000" stroke="#000000" points="323.0325,-589.5867 330.676,-593.8922 327.0162,-589.9467 331,-590.3068 331,-590.3068 331,-590.3068 327.0162,-589.9467 331.324,-586.7214 323.0325,-589.5867 323.0325,-589.5867"/>
<ellipse fill="none" stroke="#000000" cx="319.8455" cy="-589.2987" rx="3.2" ry="3.2"/>
</g>
<!-- court_appearance_movement -->
<g id="node7" class="node">
<title>court_appearance_movement</title>
<g id="a_node7"><a xlink:href="../../tables/court_appearance_movement.html" xlink:title="court_appearance_movement" target="_top">
<polygon fill="#ffffff" stroke="transparent" points="619,-260.8068 619,-321.8068 856,-321.8068 856,-260.8068 619,-260.8068"/>
<polygon fill="#f5f5f5" stroke="transparent" points="619.5,-298.3068 619.5,-321.3068 856.5,-321.3068 856.5,-298.3068 619.5,-298.3068"/>
<polygon fill="none" stroke="#000000" points="619.5,-298.3068 619.5,-321.3068 856.5,-321.3068 856.5,-298.3068 619.5,-298.3068"/>
<text text-anchor="start" x="624.5" y="-306.9068" font-family="Helvetica,sans-Serif" font-weight="bold" font-size="11.00" fill="#000000">court_appearance_movement</text>
<text text-anchor="start" x="822.0219" y="-306.4068" font-family="Helvetica,sans-Serif" font-size="11.00" fill="#000000">[table]</text>
<polygon fill="none" stroke="#000000" points="619.5,-279.3068 619.5,-298.3068 856.5,-298.3068 856.5,-279.3068 619.5,-279.3068"/>
<text text-anchor="start" x="622.5" y="-285.4068" font-family="Helvetica,sans-Serif" font-size="11.00" fill="#000000">...</text>
<polygon fill="#ffffff" stroke="transparent" points="619.5,-260.3068 619.5,-279.3068 736.5,-279.3068 736.5,-260.3068 619.5,-260.3068"/>
<polygon fill="none" stroke="#000000" points="619.5,-260.3068 619.5,-279.3068 736.5,-279.3068 736.5,-260.3068 619.5,-260.3068"/>
<text text-anchor="start" x="622.5" y="-266.4068" font-family="Helvetica,sans-Serif" font-size="11.00" fill="#000000">&lt; 3</text>
<polygon fill="#ffffff" stroke="transparent" points="736.5,-260.3068 736.5,-279.3068 796.5,-279.3068 796.5,-260.3068 736.5,-260.3068"/>
<polygon fill="none" stroke="#000000" points="736.5,-260.3068 736.5,-279.3068 796.5,-279.3068 796.5,-260.3068 736.5,-260.3068"/>
<text text-anchor="start" x="787.3862" y="-266.4068" font-family="Helvetica,sans-Serif" font-size="11.00" fill="#000000"> &#160;</text>
<polygon fill="#ffffff" stroke="transparent" points="796.5,-260.3068 796.5,-279.3068 856.5,-279.3068 856.5,-260.3068 796.5,-260.3068"/>
<polygon fill="none" stroke="#000000" points="796.5,-260.3068 796.5,-279.3068 856.5,-279.3068 856.5,-260.3068 796.5,-260.3068"/>
<text text-anchor="start" x="847.3862" y="-266.4068" font-family="Helvetica,sans-Serif" font-size="11.00" fill="#000000"> &#160;</text>
</a>
</g>
</g>
<!-- court_appearance_movement&#45;&gt;court_appearance -->
<g id="edge8" class="edge">
<title>court_appearance_movement:w&#45;&gt;court_appearance:e</title>
<path fill="none" stroke="#000000" d="M604.8804,-288.3068C568.208,-288.3068 553.9479,-288.3068 511,-288.3068"/>
<polygon fill="#000000" stroke="#000000" points="611.5,-288.3068 619.5,-291.9068 615.5,-288.3068 619.5,-288.3068 619.5,-288.3068 619.5,-288.3068 615.5,-288.3068 619.5,-284.7068 611.5,-288.3068 611.5,-288.3068"/>
<ellipse fill="none" stroke="#000000" cx="608.3" cy="-288.3068" rx="3.2" ry="3.2"/>
</g>
<!-- court_appearance_movement&#45;&gt;person_summary -->
<g id="edge9" class="edge">
<title>court_appearance_movement:w&#45;&gt;person_summary:e</title>
<path fill="none" stroke="#000000" d="M605.6341,-293.128C595.2474,-302.8445 596.9203,-324.5939 578,-333.3068 502.1533,-368.2343 286.0024,-347.3068 202.5,-347.3068"/>
<polygon fill="#000000" stroke="#000000" points="611.9437,-290.9341 620.6823,-291.7071 615.7219,-289.6205 619.5,-288.3068 619.5,-288.3068 619.5,-288.3068 615.7219,-289.6205 618.3177,-284.9064 611.9437,-290.9341 611.9437,-290.9341"/>
<ellipse fill="none" stroke="#000000" cx="608.9212" cy="-291.9851" rx="3.2" ry="3.2"/>
</g>
<!-- court_appearance_movement&#45;&gt;court_appearance_reason -->
<g id="edge10" class="edge">
<title>court_appearance_movement:w&#45;&gt;court_appearance_reason:e</title>
<path fill="none" stroke="#000000" d="M604.786,-286.7933C537.5153,-270.8432 648.0728,-133.0445 578,-75.3068 477.1562,7.7853 413.559,-58.3289 284,-75.3068 260.056,-78.4445 255.6487,-89.3068 231.5,-89.3068"/>
<polygon fill="#000000" stroke="#000000" points="611.542,-287.4882 619.1316,-291.8879 615.521,-287.8975 619.5,-288.3068 619.5,-288.3068 619.5,-288.3068 615.521,-287.8975 619.8684,-284.7257 611.542,-287.4882 611.542,-287.4882"/>
<ellipse fill="none" stroke="#000000" cx="608.3588" cy="-287.1607" rx="3.2" ry="3.2"/>
</g>
<!-- court_appearance_movement_audit -->
<g id="node8" class="node">
<title>court_appearance_movement_audit</title>
<g id="a_node8"><a xlink:href="../../tables/court_appearance_movement_audit.html" xlink:title="court_appearance_movement_audit" target="_top">
<polygon fill="#ffffff" stroke="transparent" points="292,-371.8068 292,-498.8068 570,-498.8068 570,-371.8068 292,-371.8068"/>
<polygon fill="#f5f5f5" stroke="transparent" points="292,-475.3068 292,-498.3068 570,-498.3068 570,-475.3068 292,-475.3068"/>
<polygon fill="none" stroke="#000000" points="292,-475.3068 292,-498.3068 570,-498.3068 570,-475.3068 292,-475.3068"/>
<text text-anchor="start" x="297" y="-483.9068" font-family="Helvetica,sans-Serif" font-weight="bold" font-size="11.00" fill="#000000">court_appearance_movement_audit</text>
<text text-anchor="start" x="535.5219" y="-483.4068" font-family="Helvetica,sans-Serif" font-size="11.00" fill="#000000">[table]</text>
<polygon fill="none" stroke="#000000" points="292,-453.3068 292,-475.3068 570,-475.3068 570,-453.3068 292,-453.3068"/>
<image xlink:href="../../images/primaryKeys.png" width="11px" height="12px" preserveAspectRatio="xMinYMin meet" x="297" y="-470.307"/>
<text text-anchor="start" x="321" y="-460.4068" font-family="Helvetica,sans-Serif" font-size="11.00" fill="#000000">rev_id</text>
<polygon fill="none" stroke="#000000" points="292,-431.3068 292,-453.3068 570,-453.3068 570,-431.3068 292,-431.3068"/>
<image xlink:href="../../images/primaryKeys.png" width="11px" height="12px" preserveAspectRatio="xMinYMin meet" x="297" y="-448.307"/>
<text text-anchor="start" x="321" y="-438.4068" font-family="Helvetica,sans-Serif" font-size="11.00" fill="#000000">id</text>
<polygon fill="none" stroke="#000000" points="292,-409.3068 292,-431.3068 570,-431.3068 570,-409.3068 292,-409.3068"/>
<image xlink:href="../../images/foreignKeys.png" width="11px" height="12px" preserveAspectRatio="xMinYMin meet" x="297" y="-426.307"/>
<text text-anchor="start" x="321" y="-416.4068" font-family="Helvetica,sans-Serif" font-size="11.00" fill="#000000">person_identifier</text>
<polygon fill="none" stroke="#000000" points="292,-390.3068 292,-409.3068 570,-409.3068 570,-390.3068 292,-390.3068"/>
<text text-anchor="start" x="295" y="-396.4068" font-family="Helvetica,sans-Serif" font-size="11.00" fill="#000000">...</text>
<polygon fill="#ffffff" stroke="transparent" points="292,-371.3068 292,-390.3068 429,-390.3068 429,-371.3068 292,-371.3068"/>
<polygon fill="none" stroke="#000000" points="292,-371.3068 292,-390.3068 429,-390.3068 429,-371.3068 292,-371.3068"/>
<text text-anchor="start" x="295" y="-377.4068" font-family="Helvetica,sans-Serif" font-size="11.00" fill="#000000">&lt; 2</text>
<polygon fill="#ffffff" stroke="transparent" points="429,-371.3068 429,-390.3068 499,-390.3068 499,-371.3068 429,-371.3068"/>
<polygon fill="none" stroke="#000000" points="429,-371.3068 429,-390.3068 499,-390.3068 499,-371.3068 429,-371.3068"/>
<text text-anchor="start" x="489.8862" y="-377.4068" font-family="Helvetica,sans-Serif" font-size="11.00" fill="#000000"> &#160;</text>
<polygon fill="#ffffff" stroke="transparent" points="499,-371.3068 499,-390.3068 570,-390.3068 570,-371.3068 499,-371.3068"/>
<polygon fill="none" stroke="#000000" points="499,-371.3068 499,-390.3068 570,-390.3068 570,-371.3068 499,-371.3068"/>
<text text-anchor="start" x="560.8862" y="-377.4068" font-family="Helvetica,sans-Serif" font-size="11.00" fill="#000000"> &#160;</text>
</a>
</g>
</g>
<!-- court_appearance_movement_audit&#45;&gt;audit_revision -->
<g id="edge12" class="edge">
<title>court_appearance_movement_audit:w&#45;&gt;audit_revision:e</title>
<path fill="none" stroke="#000000" d="M277.9671,-468.2187C251.6719,-487.0329 286.5092,-567.3068 241.5,-567.3068"/>
<polygon fill="#000000" stroke="#000000" points="284.2938,-466.455 292.9667,-467.7745 288.1469,-465.3809 292,-464.3068 292,-464.3068 292,-464.3068 288.1469,-465.3809 291.0333,-460.839 284.2938,-466.455 284.2938,-466.455"/>
<ellipse fill="none" stroke="#000000" cx="281.2114" cy="-467.3144" rx="3.2" ry="3.2"/>
</g>
<!-- court_appearance_movement_audit&#45;&gt;person_summary -->
<g id="edge11" class="edge">
<title>court_appearance_movement_audit:w&#45;&gt;person_summary:e</title>
<path fill="none" stroke="#000000" stroke-dasharray="5,2" d="M277.7593,-418.042C242.7277,-405.7204 248.4175,-347.3068 202.5,-347.3068"/>
<polygon fill="#000000" stroke="#000000" points="284.0993,-419.0502 291.4346,-423.8621 288.0496,-419.6785 292,-420.3068 292,-420.3068 292,-420.3068 288.0496,-419.6785 292.5654,-416.7514 284.0993,-419.0502 284.0993,-419.0502"/>
<ellipse fill="none" stroke="#000000" cx="280.939" cy="-418.5476" rx="3.2" ry="3.2"/>
</g>
</g>
</svg>
