<?xml version="1.0" encoding="UTF-8" standalone="no"?>
<!DOCTYPE svg PUBLIC "-//W3C//DTD SVG 1.1//EN"
 "http://www.w3.org/Graphics/SVG/1.1/DTD/svg11.dtd">
<!-- Generated by graphviz version 2.40.1 (20161225.0304)
 -->
<!-- Title: twoDegreesRelationshipsDiagramImplied Pages: 1 -->
<svg width="872pt" height="660pt"
 viewBox="0.00 0.00 872.00 660.34" xmlns="http://www.w3.org/2000/svg" xmlns:xlink="http://www.w3.org/1999/xlink">
<g id="graph0" class="graph" transform="scale(1 1) rotate(0) translate(4 656.343)">
<title>twoDegreesRelationshipsDiagramImplied</title>
<polygon fill="#ffffff" stroke="transparent" points="-4,4 -4,-656.343 868,-656.343 868,4 -4,4"/>
<text text-anchor="middle" x="72.4936" y="-7.3" font-family="Helvetica,sans-Serif" font-size="11.00" fill="#000000">Generated by SchemaSpy</text>
<!-- court_appearance -->
<g id="node1" class="node">
<title>court_appearance</title>
<g id="a_node1"><a xlink:href="../../tables/court_appearance.html" xlink:title="court_appearance" target="_top">
<polygon fill="#ffffff" stroke="transparent" points="351.5,-87.343 351.5,-302.343 510.5,-302.343 510.5,-87.343 351.5,-87.343"/>
<polygon fill="#f5f5f5" stroke="transparent" points="352,-278.843 352,-301.843 511,-301.843 511,-278.843 352,-278.843"/>
<polygon fill="none" stroke="#000000" points="352,-278.843 352,-301.843 511,-301.843 511,-278.843 352,-278.843"/>
<text text-anchor="start" x="357" y="-287.443" font-family="Helvetica,sans-Serif" font-weight="bold" font-size="11.00" fill="#000000">court_appearance</text>
<text text-anchor="start" x="476.5219" y="-286.943" font-family="Helvetica,sans-Serif" font-size="11.00" fill="#000000">[table]</text>
<polygon fill="none" stroke="#000000" points="352,-256.843 352,-278.843 511,-278.843 511,-256.843 352,-256.843"/>
<image xlink:href="../../images/primaryKeys.png" width="11px" height="12px" preserveAspectRatio="xMinYMin meet" x="357" y="-273.843"/>
<text text-anchor="start" x="381" y="-263.943" font-family="Helvetica,sans-Serif" font-size="11.00" fill="#000000">id</text>
<polygon fill="#ffffff" stroke="transparent" points="352,-234.843 352,-256.843 511,-256.843 511,-234.843 352,-234.843"/>
<polygon fill="none" stroke="#000000" points="352,-234.843 352,-256.843 511,-256.843 511,-234.843 352,-234.843"/>
<image xlink:href="../../images/foreignKeys.png" width="11px" height="12px" preserveAspectRatio="xMinYMin meet" x="357" y="-251.843"/>
<text text-anchor="start" x="381" y="-241.943" font-family="Helvetica,sans-Serif" font-size="11.00" fill="#000000">person_identifier</text>
<polygon fill="#ffffff" stroke="transparent" points="352,-212.843 352,-234.843 511,-234.843 511,-212.843 352,-212.843"/>
<polygon fill="none" stroke="#000000" points="352,-212.843 352,-234.843 511,-234.843 511,-212.843 352,-212.843"/>
<text text-anchor="start" x="381" y="-219.943" font-family="Helvetica,sans-Serif" font-size="11.00" fill="#000000">prison_code</text>
<polygon fill="#ffffff" stroke="transparent" points="352,-190.843 352,-212.843 511,-212.843 511,-190.843 352,-190.843"/>
<polygon fill="none" stroke="#000000" points="352,-190.843 352,-212.843 511,-212.843 511,-190.843 352,-190.843"/>
<image xlink:href="../../images/foreignKeys.png" width="11px" height="12px" preserveAspectRatio="xMinYMin meet" x="357" y="-207.843"/>
<text text-anchor="start" x="381" y="-197.943" font-family="Helvetica,sans-Serif" font-size="11.00" fill="#000000">reason_id</text>
<polygon fill="#ffffff" stroke="transparent" points="352,-168.843 352,-190.843 511,-190.843 511,-168.843 352,-168.843"/>
<polygon fill="none" stroke="#000000" points="352,-168.843 352,-190.843 511,-190.843 511,-168.843 352,-168.843"/>
<image xlink:href="../../images/foreignKeys.png" width="11px" height="12px" preserveAspectRatio="xMinYMin meet" x="357" y="-185.843"/>
<text text-anchor="start" x="381" y="-175.943" font-family="Helvetica,sans-Serif" font-size="11.00" fill="#000000">status_id</text>
<polygon fill="#ffffff" stroke="transparent" points="352,-146.843 352,-168.843 511,-168.843 511,-146.843 352,-146.843"/>
<polygon fill="none" stroke="#000000" points="352,-146.843 352,-168.843 511,-168.843 511,-146.843 352,-146.843"/>
<text text-anchor="start" x="381" y="-153.943" font-family="Helvetica,sans-Serif" font-size="11.00" fill="#000000">start</text>
<polygon fill="#ffffff" stroke="transparent" points="352,-124.843 352,-146.843 511,-146.843 511,-124.843 352,-124.843"/>
<polygon fill="none" stroke="#000000" points="352,-124.843 352,-146.843 511,-146.843 511,-124.843 352,-124.843"/>
<image xlink:href="../../images/foreignKeys.png" width="11px" height="12px" preserveAspectRatio="xMinYMin meet" x="357" y="-141.843"/>
<text text-anchor="start" x="381" y="-131.943" font-family="Helvetica,sans-Serif" font-size="11.00" fill="#000000">legacy_id</text>
<polygon fill="none" stroke="#000000" points="352,-105.843 352,-124.843 511,-124.843 511,-105.843 352,-105.843"/>
<text text-anchor="start" x="355" y="-111.943" font-family="Helvetica,sans-Serif" font-size="11.00" fill="#000000">...</text>
<polygon fill="#ffffff" stroke="transparent" points="352,-86.843 352,-105.843 425,-105.843 425,-86.843 352,-86.843"/>
<polygon fill="none" stroke="#000000" points="352,-86.843 352,-105.843 425,-105.843 425,-86.843 352,-86.843"/>
<text text-anchor="start" x="355" y="-92.943" font-family="Helvetica,sans-Serif" font-size="11.00" fill="#000000">&lt; 4</text>
<polygon fill="#ffffff" stroke="transparent" points="425,-86.843 425,-105.843 463,-105.843 463,-86.843 425,-86.843"/>
<polygon fill="none" stroke="#000000" points="425,-86.843 425,-105.843 463,-105.843 463,-86.843 425,-86.843"/>
<text text-anchor="start" x="453.8862" y="-92.943" font-family="Helvetica,sans-Serif" font-size="11.00" fill="#000000"> &#160;</text>
<polygon fill="#ffffff" stroke="transparent" points="463,-86.843 463,-105.843 511,-105.843 511,-86.843 463,-86.843"/>
<polygon fill="none" stroke="#000000" points="463,-86.843 463,-105.843 511,-105.843 511,-86.843 463,-86.843"/>
<text text-anchor="start" x="492.4053" y="-92.943" font-family="Helvetica,sans-Serif" font-size="11.00" fill="#000000">1 &gt;</text>
</a>
</g>
</g>
<!-- audit_revision -->
<g id="node2" class="node">
<title>audit_revision</title>
<g id="a_node2"><a xlink:href="../../tables/audit_revision.html" xlink:title="audit_revision" target="_top">
<polygon fill="#ffffff" stroke="transparent" points="8,-382.843 8,-582.843 243,-582.843 243,-382.843 8,-382.843"/>
<polygon fill="#f5f5f5" stroke="transparent" points="10.5,-557.843 10.5,-580.843 241.5,-580.843 241.5,-557.843 10.5,-557.843"/>
<polygon fill="none" stroke="#000000" points="10.5,-557.843 10.5,-580.843 241.5,-580.843 241.5,-557.843 10.5,-557.843"/>
<text text-anchor="start" x="15.5" y="-566.443" font-family="Helvetica,sans-Serif" font-weight="bold" font-size="11.00" fill="#000000">audit_revision</text>
<text text-anchor="start" x="206.5437" y="-565.943" font-family="Helvetica,sans-Serif" font-size="11.00" fill="#000000">[table]</text>
<polygon fill="none" stroke="#000000" points="10.5,-535.843 10.5,-557.843 144.5,-557.843 144.5,-535.843 10.5,-535.843"/>
<image xlink:href="../../images/primaryKeys.png" width="11px" height="12px" preserveAspectRatio="xMinYMin meet" x="15.5" y="-552.843"/>
<text text-anchor="start" x="30.5" y="-542.943" font-family="Helvetica,sans-Serif" font-size="11.00" fill="#000000">id</text>
<polygon fill="none" stroke="#000000" points="144.5,-535.843 144.5,-557.843 241.5,-557.843 241.5,-535.843 144.5,-535.843"/>
<text text-anchor="start" x="147.5" y="-543.543" font-family="Helvetica,sans-Serif" font-size="11.00" fill="#000000">bigserial[19]</text>
<polygon fill="none" stroke="#000000" points="10.5,-513.843 10.5,-535.843 144.5,-535.843 144.5,-513.843 10.5,-513.843"/>
<text text-anchor="start" x="30.5" y="-520.943" font-family="Helvetica,sans-Serif" font-size="11.00" fill="#000000">timestamp</text>
<polygon fill="none" stroke="#000000" points="144.5,-513.843 144.5,-535.843 241.5,-535.843 241.5,-513.843 144.5,-513.843"/>
<text text-anchor="start" x="147.5" y="-521.543" font-family="Helvetica,sans-Serif" font-size="11.00" fill="#000000">timestamp[29,6]</text>
<polygon fill="none" stroke="#000000" points="10.5,-491.843 10.5,-513.843 144.5,-513.843 144.5,-491.843 10.5,-491.843"/>
<text text-anchor="start" x="30.5" y="-498.943" font-family="Helvetica,sans-Serif" font-size="11.00" fill="#000000">source</text>
<polygon fill="none" stroke="#000000" points="144.5,-491.843 144.5,-513.843 241.5,-513.843 241.5,-491.843 144.5,-491.843"/>
<text text-anchor="start" x="147.5" y="-499.543" font-family="Helvetica,sans-Serif" font-size="11.00" fill="#000000">varchar[6]</text>
<polygon fill="none" stroke="#000000" points="10.5,-469.843 10.5,-491.843 144.5,-491.843 144.5,-469.843 10.5,-469.843"/>
<text text-anchor="start" x="30.5" y="-476.943" font-family="Helvetica,sans-Serif" font-size="11.00" fill="#000000">affected_entities</text>
<polygon fill="none" stroke="#000000" points="144.5,-469.843 144.5,-491.843 241.5,-491.843 241.5,-469.843 144.5,-469.843"/>
<text text-anchor="start" x="147.4468" y="-477.543" font-family="Helvetica,sans-Serif" font-size="11.00" fill="#000000">_text[2147483647]</text>
<polygon fill="none" stroke="#000000" points="10.5,-447.843 10.5,-469.843 144.5,-469.843 144.5,-447.843 10.5,-447.843"/>
<text text-anchor="start" x="30.5" y="-454.943" font-family="Helvetica,sans-Serif" font-size="11.00" fill="#000000">username</text>
<polygon fill="none" stroke="#000000" points="144.5,-447.843 144.5,-469.843 241.5,-469.843 241.5,-447.843 144.5,-447.843"/>
<text text-anchor="start" x="147.5" y="-455.543" font-family="Helvetica,sans-Serif" font-size="11.00" fill="#000000">varchar[64]</text>
<polygon fill="none" stroke="#000000" points="10.5,-425.843 10.5,-447.843 144.5,-447.843 144.5,-425.843 10.5,-425.843"/>
<text text-anchor="start" x="30.5" y="-432.943" font-family="Helvetica,sans-Serif" font-size="11.00" fill="#000000">caseload_id</text>
<polygon fill="none" stroke="#000000" points="144.5,-425.843 144.5,-447.843 241.5,-447.843 241.5,-425.843 144.5,-425.843"/>
<text text-anchor="start" x="147.5" y="-433.543" font-family="Helvetica,sans-Serif" font-size="11.00" fill="#000000">varchar[10]</text>
<polygon fill="none" stroke="#000000" points="10.5,-403.843 10.5,-425.843 144.5,-425.843 144.5,-403.843 10.5,-403.843"/>
<text text-anchor="start" x="30.5" y="-410.943" font-family="Helvetica,sans-Serif" font-size="11.00" fill="#000000">reason</text>
<polygon fill="none" stroke="#000000" points="144.5,-403.843 144.5,-425.843 241.5,-425.843 241.5,-403.843 144.5,-403.843"/>
<text text-anchor="start" x="147.5" y="-411.543" font-family="Helvetica,sans-Serif" font-size="11.00" fill="#000000">text[2147483647]</text>
<polygon fill="#ffffff" stroke="transparent" points="10.5,-384.843 10.5,-403.843 81.5,-403.843 81.5,-384.843 10.5,-384.843"/>
<polygon fill="none" stroke="#000000" points="10.5,-384.843 10.5,-403.843 81.5,-403.843 81.5,-384.843 10.5,-384.843"/>
<text text-anchor="start" x="13.5" y="-390.943" font-family="Helvetica,sans-Serif" font-size="11.00" fill="#000000">&lt; 0</text>
<polygon fill="#ffffff" stroke="transparent" points="81.5,-384.843 81.5,-403.843 144.5,-403.843 144.5,-384.843 81.5,-384.843"/>
<polygon fill="none" stroke="#000000" points="81.5,-384.843 81.5,-403.843 144.5,-403.843 144.5,-384.843 81.5,-384.843"/>
<text text-anchor="start" x="135.3862" y="-390.943" font-family="Helvetica,sans-Serif" font-size="11.00" fill="#000000"> &#160;</text>
<polygon fill="#ffffff" stroke="transparent" points="144.5,-384.843 144.5,-403.843 241.5,-403.843 241.5,-384.843 144.5,-384.843"/>
<polygon fill="none" stroke="#000000" points="144.5,-384.843 144.5,-403.843 241.5,-403.843 241.5,-384.843 144.5,-384.843"/>
<text text-anchor="start" x="222.9053" y="-390.943" font-family="Helvetica,sans-Serif" font-size="11.00" fill="#000000">4 &gt;</text>
<polygon fill="none" stroke="#000000" stroke-width="2" points="9,-383.843 9,-581.843 242,-581.843 242,-383.843 9,-383.843"/>
</a>
</g>
</g>
<!-- court_appearance&#45;&gt;audit_revision -->
<g id="edge1" class="edge">
<title>court_appearance:w&#45;&gt;audit_revision:e</title>
<path fill="none" stroke="#000000" stroke-dasharray="5,2" d="M341.4187,-136.3491C260.0171,-144.585 307.8807,-251.7447 284,-340.843 271.8991,-385.9913 288.2419,-546.843 241.5,-546.843"/>
<polygon fill="#000000" stroke="#000000" points="351.0098,-131.8858 351.3921,-139.8766 349.7939,-139.9531 349.4116,-131.9622 351.0098,-131.8858"/>
<polyline fill="none" stroke="#000000" points="352,-135.843 348.0046,-136.0341 "/>
<ellipse fill="none" stroke="#000000" cx="344.8082" cy="-136.187" rx="3.2" ry="3.2"/>
</g>
<!-- person_summary -->
<g id="node3" class="node">
<title>person_summary</title>
<g id="a_node3"><a xlink:href="../../tables/person_summary.html" xlink:title="person_summary" target="_top">
<polygon fill="#ffffff" stroke="transparent" points="48.5,-299.343 48.5,-360.343 202.5,-360.343 202.5,-299.343 48.5,-299.343"/>
<polygon fill="#f5f5f5" stroke="transparent" points="48.5,-336.843 48.5,-359.843 202.5,-359.843 202.5,-336.843 48.5,-336.843"/>
<polygon fill="none" stroke="#000000" points="48.5,-336.843 48.5,-359.843 202.5,-359.843 202.5,-336.843 48.5,-336.843"/>
<text text-anchor="start" x="53.5" y="-345.443" font-family="Helvetica,sans-Serif" font-weight="bold" font-size="11.00" fill="#000000">person_summary</text>
<text text-anchor="start" x="168.0219" y="-344.943" font-family="Helvetica,sans-Serif" font-size="11.00" fill="#000000">[table]</text>
<polygon fill="none" stroke="#000000" points="48.5,-317.843 48.5,-336.843 202.5,-336.843 202.5,-317.843 48.5,-317.843"/>
<text text-anchor="start" x="51.5" y="-323.943" font-family="Helvetica,sans-Serif" font-size="11.00" fill="#000000">...</text>
<polygon fill="#ffffff" stroke="transparent" points="48.5,-298.843 48.5,-317.843 114.5,-317.843 114.5,-298.843 48.5,-298.843"/>
<polygon fill="none" stroke="#000000" points="48.5,-298.843 48.5,-317.843 114.5,-317.843 114.5,-298.843 48.5,-298.843"/>
<text text-anchor="start" x="51.5" y="-304.943" font-family="Helvetica,sans-Serif" font-size="11.00" fill="#000000"> &#160;</text>
<polygon fill="#ffffff" stroke="transparent" points="114.5,-298.843 114.5,-317.843 153.5,-317.843 153.5,-298.843 114.5,-298.843"/>
<polygon fill="none" stroke="#000000" points="114.5,-298.843 114.5,-317.843 153.5,-317.843 153.5,-298.843 114.5,-298.843"/>
<text text-anchor="start" x="144.3862" y="-304.943" font-family="Helvetica,sans-Serif" font-size="11.00" fill="#000000"> &#160;</text>
<polygon fill="#ffffff" stroke="transparent" points="153.5,-298.843 153.5,-317.843 202.5,-317.843 202.5,-298.843 153.5,-298.843"/>
<polygon fill="none" stroke="#000000" points="153.5,-298.843 153.5,-317.843 202.5,-317.843 202.5,-298.843 153.5,-298.843"/>
<text text-anchor="start" x="183.9053" y="-304.943" font-family="Helvetica,sans-Serif" font-size="11.00" fill="#000000">4 &gt;</text>
</a>
</g>
</g>
<!-- court_appearance&#45;&gt;person_summary -->
<g id="edge2" class="edge">
<title>court_appearance:w&#45;&gt;person_summary:e</title>
<path fill="none" stroke="#000000" d="M337.5353,-246.9268C276.2932,-256.5387 272.9043,-326.843 202.5,-326.843"/>
<polygon fill="#000000" stroke="#000000" points="344.0224,-246.4408 352.269,-249.4329 348.0112,-246.1419 352,-245.843 352,-245.843 352,-245.843 348.0112,-246.1419 351.731,-242.253 344.0224,-246.4408 344.0224,-246.4408"/>
<ellipse fill="none" stroke="#000000" cx="340.8313" cy="-246.6799" rx="3.2" ry="3.2"/>
</g>
<!-- court_appearance_reason -->
<g id="node4" class="node">
<title>court_appearance_reason</title>
<g id="a_node4"><a xlink:href="../../tables/court_appearance_reason.html" xlink:title="court_appearance_reason" target="_top">
<polygon fill="#ffffff" stroke="transparent" points="20,-52.343 20,-113.343 231,-113.343 231,-52.343 20,-52.343"/>
<polygon fill="#f5f5f5" stroke="transparent" points="20.5,-89.843 20.5,-112.843 231.5,-112.843 231.5,-89.843 20.5,-89.843"/>
<polygon fill="none" stroke="#000000" points="20.5,-89.843 20.5,-112.843 231.5,-112.843 231.5,-89.843 20.5,-89.843"/>
<text text-anchor="start" x="25.5" y="-98.443" font-family="Helvetica,sans-Serif" font-weight="bold" font-size="11.00" fill="#000000">court_appearance_reason</text>
<text text-anchor="start" x="197.0219" y="-97.943" font-family="Helvetica,sans-Serif" font-size="11.00" fill="#000000">[table]</text>
<polygon fill="none" stroke="#000000" points="20.5,-70.843 20.5,-89.843 231.5,-89.843 231.5,-70.843 20.5,-70.843"/>
<text text-anchor="start" x="23.5" y="-76.943" font-family="Helvetica,sans-Serif" font-size="11.00" fill="#000000">...</text>
<polygon fill="#ffffff" stroke="transparent" points="20.5,-51.843 20.5,-70.843 115.5,-70.843 115.5,-51.843 20.5,-51.843"/>
<polygon fill="none" stroke="#000000" points="20.5,-51.843 20.5,-70.843 115.5,-70.843 115.5,-51.843 20.5,-51.843"/>
<text text-anchor="start" x="23.5" y="-57.943" font-family="Helvetica,sans-Serif" font-size="11.00" fill="#000000"> &#160;</text>
<polygon fill="#ffffff" stroke="transparent" points="115.5,-51.843 115.5,-70.843 168.5,-70.843 168.5,-51.843 115.5,-51.843"/>
<polygon fill="none" stroke="#000000" points="115.5,-51.843 115.5,-70.843 168.5,-70.843 168.5,-51.843 115.5,-51.843"/>
<text text-anchor="start" x="159.3862" y="-57.943" font-family="Helvetica,sans-Serif" font-size="11.00" fill="#000000"> &#160;</text>
<polygon fill="#ffffff" stroke="transparent" points="168.5,-51.843 168.5,-70.843 231.5,-70.843 231.5,-51.843 168.5,-51.843"/>
<polygon fill="none" stroke="#000000" points="168.5,-51.843 168.5,-70.843 231.5,-70.843 231.5,-51.843 168.5,-51.843"/>
<text text-anchor="start" x="212.9053" y="-57.943" font-family="Helvetica,sans-Serif" font-size="11.00" fill="#000000">2 &gt;</text>
</a>
</g>
</g>
<!-- court_appearance&#45;&gt;court_appearance_reason -->
<g id="edge3" class="edge">
<title>court_appearance:w&#45;&gt;court_appearance_reason:e</title>
<path fill="none" stroke="#000000" d="M337.4527,-200.1183C279.7428,-185.2899 302.3532,-79.843 231.5,-79.843"/>
<polygon fill="#000000" stroke="#000000" points="344.0556,-200.9011 351.5762,-205.4179 348.0278,-201.372 352,-201.843 352,-201.843 352,-201.843 348.0278,-201.372 352.4238,-198.268 344.0556,-200.9011 344.0556,-200.9011"/>
<ellipse fill="none" stroke="#000000" cx="340.8779" cy="-200.5243" rx="3.2" ry="3.2"/>
</g>
<!-- court_appearance_status -->
<g id="node5" class="node">
<title>court_appearance_status</title>
<g id="a_node5"><a xlink:href="../../tables/court_appearance_status.html" xlink:title="court_appearance_status" target="_top">
<polygon fill="#ffffff" stroke="transparent" points="21.5,-152.343 21.5,-213.343 229.5,-213.343 229.5,-152.343 21.5,-152.343"/>
<polygon fill="#f5f5f5" stroke="transparent" points="21.5,-189.843 21.5,-212.843 229.5,-212.843 229.5,-189.843 21.5,-189.843"/>
<polygon fill="none" stroke="#000000" points="21.5,-189.843 21.5,-212.843 229.5,-212.843 229.5,-189.843 21.5,-189.843"/>
<text text-anchor="start" x="26.5" y="-198.443" font-family="Helvetica,sans-Serif" font-weight="bold" font-size="11.00" fill="#000000">court_appearance_status</text>
<text text-anchor="start" x="195.0219" y="-197.943" font-family="Helvetica,sans-Serif" font-size="11.00" fill="#000000">[table]</text>
<polygon fill="none" stroke="#000000" points="21.5,-170.843 21.5,-189.843 229.5,-189.843 229.5,-170.843 21.5,-170.843"/>
<text text-anchor="start" x="24.5" y="-176.943" font-family="Helvetica,sans-Serif" font-size="11.00" fill="#000000">...</text>
<polygon fill="#ffffff" stroke="transparent" points="21.5,-151.843 21.5,-170.843 114.5,-170.843 114.5,-151.843 21.5,-151.843"/>
<polygon fill="none" stroke="#000000" points="21.5,-151.843 21.5,-170.843 114.5,-170.843 114.5,-151.843 21.5,-151.843"/>
<text text-anchor="start" x="24.5" y="-157.943" font-family="Helvetica,sans-Serif" font-size="11.00" fill="#000000"> &#160;</text>
<polygon fill="#ffffff" stroke="transparent" points="114.5,-151.843 114.5,-170.843 167.5,-170.843 167.5,-151.843 114.5,-151.843"/>
<polygon fill="none" stroke="#000000" points="114.5,-151.843 114.5,-170.843 167.5,-170.843 167.5,-151.843 114.5,-151.843"/>
<text text-anchor="start" x="158.3862" y="-157.943" font-family="Helvetica,sans-Serif" font-size="11.00" fill="#000000"> &#160;</text>
<polygon fill="#ffffff" stroke="transparent" points="167.5,-151.843 167.5,-170.843 229.5,-170.843 229.5,-151.843 167.5,-151.843"/>
<polygon fill="none" stroke="#000000" points="167.5,-151.843 167.5,-170.843 229.5,-170.843 229.5,-151.843 167.5,-151.843"/>
<text text-anchor="start" x="210.9053" y="-157.943" font-family="Helvetica,sans-Serif" font-size="11.00" fill="#000000">1 &gt;</text>
</a>
</g>
</g>
<!-- court_appearance&#45;&gt;court_appearance_status -->
<g id="edge4" class="edge">
<title>court_appearance:w&#45;&gt;court_appearance_status:e</title>
<path fill="none" stroke="#000000" d="M337.4189,-179.843C294.5763,-179.843 278.7339,-179.843 229.5,-179.843"/>
<polygon fill="#000000" stroke="#000000" points="344,-179.843 352,-183.443 348,-179.843 352,-179.843 352,-179.843 352,-179.843 348,-179.843 352,-176.243 344,-179.843 344,-179.843"/>
<ellipse fill="none" stroke="#000000" cx="340.8" cy="-179.843" rx="3.2" ry="3.2"/>
</g>
<!-- court_appearance_audit -->
<g id="node6" class="node">
<title>court_appearance_audit</title>
<g id="a_node6"><a xlink:href="../../tables/court_appearance_audit.html" xlink:title="court_appearance_audit" target="_top">
<polygon fill="#ffffff" stroke="transparent" points="331,-499.343 331,-648.343 531,-648.343 531,-499.343 331,-499.343"/>
<polygon fill="#f5f5f5" stroke="transparent" points="331,-624.843 331,-647.843 531,-647.843 531,-624.843 331,-624.843"/>
<polygon fill="none" stroke="#000000" points="331,-624.843 331,-647.843 531,-647.843 531,-624.843 331,-624.843"/>
<text text-anchor="start" x="336" y="-633.443" font-family="Helvetica,sans-Serif" font-weight="bold" font-size="11.00" fill="#000000">court_appearance_audit</text>
<text text-anchor="start" x="496.5219" y="-632.943" font-family="Helvetica,sans-Serif" font-size="11.00" fill="#000000">[table]</text>
<polygon fill="none" stroke="#000000" points="331,-602.843 331,-624.843 531,-624.843 531,-602.843 331,-602.843"/>
<image xlink:href="../../images/primaryKeys.png" width="11px" height="12px" preserveAspectRatio="xMinYMin meet" x="336" y="-619.843"/>
<text text-anchor="start" x="360" y="-609.943" font-family="Helvetica,sans-Serif" font-size="11.00" fill="#000000">rev_id</text>
<polygon fill="none" stroke="#000000" points="331,-580.843 331,-602.843 531,-602.843 531,-580.843 331,-580.843"/>
<image xlink:href="../../images/primaryKeys.png" width="11px" height="12px" preserveAspectRatio="xMinYMin meet" x="336" y="-597.843"/>
<text text-anchor="start" x="360" y="-587.943" font-family="Helvetica,sans-Serif" font-size="11.00" fill="#000000">id</text>
<polygon fill="none" stroke="#000000" points="331,-558.843 331,-580.843 531,-580.843 531,-558.843 331,-558.843"/>
<image xlink:href="../../images/foreignKeys.png" width="11px" height="12px" preserveAspectRatio="xMinYMin meet" x="336" y="-575.843"/>
<text text-anchor="start" x="360" y="-565.943" font-family="Helvetica,sans-Serif" font-size="11.00" fill="#000000">person_identifier</text>
<polygon fill="none" stroke="#000000" points="331,-536.843 331,-558.843 531,-558.843 531,-536.843 331,-536.843"/>
<image xlink:href="../../images/foreignKeys.png" width="11px" height="12px" preserveAspectRatio="xMinYMin meet" x="336" y="-553.843"/>
<text text-anchor="start" x="360" y="-543.943" font-family="Helvetica,sans-Serif" font-size="11.00" fill="#000000">legacy_id</text>
<polygon fill="none" stroke="#000000" points="331,-517.843 331,-536.843 531,-536.843 531,-517.843 331,-517.843"/>
<text text-anchor="start" x="334" y="-523.943" font-family="Helvetica,sans-Serif" font-size="11.00" fill="#000000">...</text>
<polygon fill="#ffffff" stroke="transparent" points="331,-498.843 331,-517.843 429,-517.843 429,-498.843 331,-498.843"/>
<polygon fill="none" stroke="#000000" points="331,-498.843 331,-517.843 429,-517.843 429,-498.843 331,-498.843"/>
<text text-anchor="start" x="334" y="-504.943" font-family="Helvetica,sans-Serif" font-size="11.00" fill="#000000">&lt; 3</text>
<polygon fill="#ffffff" stroke="transparent" points="429,-498.843 429,-517.843 480,-517.843 480,-498.843 429,-498.843"/>
<polygon fill="none" stroke="#000000" points="429,-498.843 429,-517.843 480,-517.843 480,-498.843 429,-498.843"/>
<text text-anchor="start" x="470.8862" y="-504.943" font-family="Helvetica,sans-Serif" font-size="11.00" fill="#000000"> &#160;</text>
<polygon fill="#ffffff" stroke="transparent" points="480,-498.843 480,-517.843 531,-517.843 531,-498.843 480,-498.843"/>
<polygon fill="none" stroke="#000000" points="480,-498.843 480,-517.843 531,-517.843 531,-498.843 480,-498.843"/>
<text text-anchor="start" x="521.8862" y="-504.943" font-family="Helvetica,sans-Serif" font-size="11.00" fill="#000000"> &#160;</text>
</a>
</g>
</g>
<!-- court_appearance_audit&#45;&gt;audit_revision -->
<g id="edge5" class="edge">
<title>court_appearance_audit:w&#45;&gt;audit_revision:e</title>
<path fill="none" stroke="#000000" stroke-dasharray="5,2" d="M316.5893,-547.7947C288.0532,-547.595 275.9969,-546.843 241.5,-546.843"/>
<polygon fill="#000000" stroke="#000000" points="323,-547.8161 330.9879,-551.4429 327,-547.8295 331,-547.843 331,-547.843 331,-547.843 327,-547.8295 331.0121,-544.243 323,-547.8161 323,-547.8161"/>
<ellipse fill="none" stroke="#000000" cx="319.8001" cy="-547.8054" rx="3.2" ry="3.2"/>
</g>
<!-- court_appearance_audit&#45;&gt;audit_revision -->
<g id="edge7" class="edge">
<title>court_appearance_audit:w&#45;&gt;audit_revision:e</title>
<path fill="none" stroke="#000000" d="M316.6777,-611.6138C282.7593,-599.9882 285.7542,-546.843 241.5,-546.843"/>
<polygon fill="#000000" stroke="#000000" points="323.0952,-612.6126 330.4463,-617.4001 327.0476,-613.2278 331,-613.843 331,-613.843 331,-613.843 327.0476,-613.2278 331.5537,-610.2858 323.0952,-612.6126 323.0952,-612.6126"/>
<ellipse fill="none" stroke="#000000" cx="319.9332" cy="-612.1204" rx="3.2" ry="3.2"/>
</g>
<!-- court_appearance_audit&#45;&gt;person_summary -->
<g id="edge6" class="edge">
<title>court_appearance_audit:w&#45;&gt;person_summary:e</title>
<path fill="none" stroke="#000000" stroke-dasharray="5,2" d="M316.532,-568.5356C218.345,-549.4088 319.4212,-326.843 202.5,-326.843"/>
<polygon fill="#000000" stroke="#000000" points="323.0325,-569.1229 330.676,-573.4284 327.0162,-569.4829 331,-569.843 331,-569.843 331,-569.843 327.0162,-569.4829 331.324,-566.2576 323.0325,-569.1229 323.0325,-569.1229"/>
<ellipse fill="none" stroke="#000000" cx="319.8455" cy="-568.8349" rx="3.2" ry="3.2"/>
</g>
<!-- court_appearance_movement -->
<g id="node7" class="node">
<title>court_appearance_movement</title>
<g id="a_node7"><a xlink:href="../../tables/court_appearance_movement.html" xlink:title="court_appearance_movement" target="_top">
<polygon fill="#ffffff" stroke="transparent" points="619,-240.343 619,-301.343 856,-301.343 856,-240.343 619,-240.343"/>
<polygon fill="#f5f5f5" stroke="transparent" points="619.5,-277.843 619.5,-300.843 856.5,-300.843 856.5,-277.843 619.5,-277.843"/>
<polygon fill="none" stroke="#000000" points="619.5,-277.843 619.5,-300.843 856.5,-300.843 856.5,-277.843 619.5,-277.843"/>
<text text-anchor="start" x="624.5" y="-286.443" font-family="Helvetica,sans-Serif" font-weight="bold" font-size="11.00" fill="#000000">court_appearance_movement</text>
<text text-anchor="start" x="822.0219" y="-285.943" font-family="Helvetica,sans-Serif" font-size="11.00" fill="#000000">[table]</text>
<polygon fill="none" stroke="#000000" points="619.5,-258.843 619.5,-277.843 856.5,-277.843 856.5,-258.843 619.5,-258.843"/>
<text text-anchor="start" x="622.5" y="-264.943" font-family="Helvetica,sans-Serif" font-size="11.00" fill="#000000">...</text>
<polygon fill="#ffffff" stroke="transparent" points="619.5,-239.843 619.5,-258.843 736.5,-258.843 736.5,-239.843 619.5,-239.843"/>
<polygon fill="none" stroke="#000000" points="619.5,-239.843 619.5,-258.843 736.5,-258.843 736.5,-239.843 619.5,-239.843"/>
<text text-anchor="start" x="622.5" y="-245.943" font-family="Helvetica,sans-Serif" font-size="11.00" fill="#000000">&lt; 3</text>
<polygon fill="#ffffff" stroke="transparent" points="736.5,-239.843 736.5,-258.843 796.5,-258.843 796.5,-239.843 736.5,-239.843"/>
<polygon fill="none" stroke="#000000" points="736.5,-239.843 736.5,-258.843 796.5,-258.843 796.5,-239.843 736.5,-239.843"/>
<text text-anchor="start" x="787.3862" y="-245.943" font-family="Helvetica,sans-Serif" font-size="11.00" fill="#000000"> &#160;</text>
<polygon fill="#ffffff" stroke="transparent" points="796.5,-239.843 796.5,-258.843 856.5,-258.843 856.5,-239.843 796.5,-239.843"/>
<polygon fill="none" stroke="#000000" points="796.5,-239.843 796.5,-258.843 856.5,-258.843 856.5,-239.843 796.5,-239.843"/>
<text text-anchor="start" x="847.3862" y="-245.943" font-family="Helvetica,sans-Serif" font-size="11.00" fill="#000000"> &#160;</text>
</a>
</g>
</g>
<!-- court_appearance_movement&#45;&gt;court_appearance -->
<g id="edge8" class="edge">
<title>court_appearance_movement:w&#45;&gt;court_appearance:e</title>
<path fill="none" stroke="#000000" d="M604.8804,-267.843C568.208,-267.843 553.9479,-267.843 511,-267.843"/>
<polygon fill="#000000" stroke="#000000" points="611.5,-267.843 619.5,-271.443 615.5,-267.843 619.5,-267.843 619.5,-267.843 619.5,-267.843 615.5,-267.843 619.5,-264.243 611.5,-267.843 611.5,-267.843"/>
<ellipse fill="none" stroke="#000000" cx="608.3" cy="-267.843" rx="3.2" ry="3.2"/>
</g>
<!-- court_appearance_movement&#45;&gt;person_summary -->
<g id="edge9" class="edge">
<title>court_appearance_movement:w&#45;&gt;person_summary:e</title>
<path fill="none" stroke="#000000" d="M605.6341,-272.6642C595.2474,-282.3807 596.9203,-304.1302 578,-312.843 502.1533,-347.7705 286.0024,-326.843 202.5,-326.843"/>
<polygon fill="#000000" stroke="#000000" points="611.9437,-270.4704 620.6823,-271.2433 615.7219,-269.1567 619.5,-267.843 619.5,-267.843 619.5,-267.843 615.7219,-269.1567 618.3177,-264.4426 611.9437,-270.4704 611.9437,-270.4704"/>
<ellipse fill="none" stroke="#000000" cx="608.9212" cy="-271.5213" rx="3.2" ry="3.2"/>
</g>
<!-- court_appearance_movement&#45;&gt;court_appearance_reason -->
<g id="edge10" class="edge">
<title>court_appearance_movement:w&#45;&gt;court_appearance_reason:e</title>
<path fill="none" stroke="#000000" d="M605.092,-266.2005C546.4468,-250.5899 641.2743,-127.8455 578,-76.843 458.0967,19.8057 385.5058,-79.843 231.5,-79.843"/>
<polygon fill="#000000" stroke="#000000" points="611.5515,-266.9368 619.0922,-271.4198 615.5257,-267.3899 619.5,-267.843 619.5,-267.843 619.5,-267.843 615.5257,-267.3899 619.9078,-264.2661 611.5515,-266.9368 611.5515,-266.9368"/>
<ellipse fill="none" stroke="#000000" cx="608.3721" cy="-266.5744" rx="3.2" ry="3.2"/>
</g>
<!-- court_appearance_movement_audit -->
<g id="node8" class="node">
<title>court_appearance_movement_audit</title>
<g id="a_node8"><a xlink:href="../../tables/court_appearance_movement_audit.html" xlink:title="court_appearance_movement_audit" target="_top">
<polygon fill="#ffffff" stroke="transparent" points="292,-351.343 292,-478.343 570,-478.343 570,-351.343 292,-351.343"/>
<polygon fill="#f5f5f5" stroke="transparent" points="292,-454.843 292,-477.843 570,-477.843 570,-454.843 292,-454.843"/>
<polygon fill="none" stroke="#000000" points="292,-454.843 292,-477.843 570,-477.843 570,-454.843 292,-454.843"/>
<text text-anchor="start" x="297" y="-463.443" font-family="Helvetica,sans-Serif" font-weight="bold" font-size="11.00" fill="#000000">court_appearance_movement_audit</text>
<text text-anchor="start" x="535.5219" y="-462.943" font-family="Helvetica,sans-Serif" font-size="11.00" fill="#000000">[table]</text>
<polygon fill="none" stroke="#000000" points="292,-432.843 292,-454.843 570,-454.843 570,-432.843 292,-432.843"/>
<image xlink:href="../../images/primaryKeys.png" width="11px" height="12px" preserveAspectRatio="xMinYMin meet" x="297" y="-449.843"/>
<text text-anchor="start" x="321" y="-439.943" font-family="Helvetica,sans-Serif" font-size="11.00" fill="#000000">rev_id</text>
<polygon fill="none" stroke="#000000" points="292,-410.843 292,-432.843 570,-432.843 570,-410.843 292,-410.843"/>
<image xlink:href="../../images/primaryKeys.png" width="11px" height="12px" preserveAspectRatio="xMinYMin meet" x="297" y="-427.843"/>
<text text-anchor="start" x="321" y="-417.943" font-family="Helvetica,sans-Serif" font-size="11.00" fill="#000000">id</text>
<polygon fill="none" stroke="#000000" points="292,-388.843 292,-410.843 570,-410.843 570,-388.843 292,-388.843"/>
<image xlink:href="../../images/foreignKeys.png" width="11px" height="12px" preserveAspectRatio="xMinYMin meet" x="297" y="-405.843"/>
<text text-anchor="start" x="321" y="-395.943" font-family="Helvetica,sans-Serif" font-size="11.00" fill="#000000">person_identifier</text>
<polygon fill="none" stroke="#000000" points="292,-369.843 292,-388.843 570,-388.843 570,-369.843 292,-369.843"/>
<text text-anchor="start" x="295" y="-375.943" font-family="Helvetica,sans-Serif" font-size="11.00" fill="#000000">...</text>
<polygon fill="#ffffff" stroke="transparent" points="292,-350.843 292,-369.843 429,-369.843 429,-350.843 292,-350.843"/>
<polygon fill="none" stroke="#000000" points="292,-350.843 292,-369.843 429,-369.843 429,-350.843 292,-350.843"/>
<text text-anchor="start" x="295" y="-356.943" font-family="Helvetica,sans-Serif" font-size="11.00" fill="#000000">&lt; 2</text>
<polygon fill="#ffffff" stroke="transparent" points="429,-350.843 429,-369.843 499,-369.843 499,-350.843 429,-350.843"/>
<polygon fill="none" stroke="#000000" points="429,-350.843 429,-369.843 499,-369.843 499,-350.843 429,-350.843"/>
<text text-anchor="start" x="489.8862" y="-356.943" font-family="Helvetica,sans-Serif" font-size="11.00" fill="#000000"> &#160;</text>
<polygon fill="#ffffff" stroke="transparent" points="499,-350.843 499,-369.843 570,-369.843 570,-350.843 499,-350.843"/>
<polygon fill="none" stroke="#000000" points="499,-350.843 499,-369.843 570,-369.843 570,-350.843 499,-350.843"/>
<text text-anchor="start" x="560.8862" y="-356.943" font-family="Helvetica,sans-Serif" font-size="11.00" fill="#000000"> &#160;</text>
</a>
</g>
</g>
<!-- court_appearance_movement_audit&#45;&gt;audit_revision -->
<g id="edge12" class="edge">
<title>court_appearance_movement_audit:w&#45;&gt;audit_revision:e</title>
<path fill="none" stroke="#000000" d="M277.9671,-447.7549C251.6719,-466.5691 286.5092,-546.843 241.5,-546.843"/>
<polygon fill="#000000" stroke="#000000" points="284.2938,-445.9913 292.9667,-447.3107 288.1469,-444.9171 292,-443.843 292,-443.843 292,-443.843 288.1469,-444.9171 291.0333,-440.3752 284.2938,-445.9913 284.2938,-445.9913"/>
<ellipse fill="none" stroke="#000000" cx="281.2114" cy="-446.8506" rx="3.2" ry="3.2"/>
</g>
<!-- court_appearance_movement_audit&#45;&gt;person_summary -->
<g id="edge11" class="edge">
<title>court_appearance_movement_audit:w&#45;&gt;person_summary:e</title>
<path fill="none" stroke="#000000" stroke-dasharray="5,2" d="M277.7593,-397.5782C242.7277,-385.2566 248.4175,-326.843 202.5,-326.843"/>
<polygon fill="#000000" stroke="#000000" points="284.0993,-398.5864 291.4346,-403.3983 288.0496,-399.2147 292,-399.843 292,-399.843 292,-399.843 288.0496,-399.2147 292.5654,-396.2876 284.0993,-398.5864 284.0993,-398.5864"/>
<ellipse fill="none" stroke="#000000" cx="280.939" cy="-398.0838" rx="3.2" ry="3.2"/>
</g>
</g>
</svg>
