<?xml version="1.0" encoding="UTF-8" standalone="no"?>
<!DOCTYPE svg PUBLIC "-//W3C//DTD SVG 1.1//EN"
 "http://www.w3.org/Graphics/SVG/1.1/DTD/svg11.dtd">
<!-- Generated by graphviz version 2.40.1 (20161225.0304)
 -->
<!-- Title: oneDegreeRelationshipsDiagram Pages: 1 -->
<svg width="586pt" height="391pt"
 viewBox="0.00 0.00 586.00 391.20" xmlns="http://www.w3.org/2000/svg" xmlns:xlink="http://www.w3.org/1999/xlink">
<g id="graph0" class="graph" transform="scale(1 1) rotate(0) translate(4 387.2)">
<title>oneDegreeRelationshipsDiagram</title>
<polygon fill="#ffffff" stroke="transparent" points="-4,4 -4,-387.2 582,-387.2 582,4 -4,4"/>
<text text-anchor="middle" x="72.4936" y="-7.3" font-family="Helvetica,sans-Serif" font-size="11.00" fill="#000000">Generated by SchemaSpy</text>
<!-- court_appearance_audit -->
<g id="node1" class="node">
<title>court_appearance_audit</title>
<g id="a_node1"><a xlink:href="../../tables/court_appearance_audit.html" xlink:title="court_appearance_audit" target="_top">
<polygon fill="#ffffff" stroke="transparent" points="331,-208.2 331,-379.2 531,-379.2 531,-208.2 331,-208.2"/>
<polygon fill="#f5f5f5" stroke="transparent" points="331,-355.7 331,-378.7 531,-378.7 531,-355.7 331,-355.7"/>
<polygon fill="none" stroke="#000000" points="331,-355.7 331,-378.7 531,-378.7 531,-355.7 331,-355.7"/>
<text text-anchor="start" x="336" y="-364.3" font-family="Helvetica,sans-Serif" font-weight="bold" font-size="11.00" fill="#000000">court_appearance_audit</text>
<text text-anchor="start" x="496.5219" y="-363.8" font-family="Helvetica,sans-Serif" font-size="11.00" fill="#000000">[table]</text>
<polygon fill="none" stroke="#000000" points="331,-333.7 331,-355.7 531,-355.7 531,-333.7 331,-333.7"/>
<image xlink:href="../../images/primaryKeys.png" width="11px" height="12px" preserveAspectRatio="xMinYMin meet" x="336" y="-350.7"/>
<text text-anchor="start" x="360" y="-340.8" font-family="Helvetica,sans-Serif" font-size="11.00" fill="#000000">rev_id</text>
<polygon fill="none" stroke="#000000" points="331,-311.7 331,-333.7 531,-333.7 531,-311.7 331,-311.7"/>
<image xlink:href="../../images/primaryKeys.png" width="11px" height="12px" preserveAspectRatio="xMinYMin meet" x="336" y="-328.7"/>
<text text-anchor="start" x="360" y="-318.8" font-family="Helvetica,sans-Serif" font-size="11.00" fill="#000000">id</text>
<polygon fill="none" stroke="#000000" points="331,-289.7 331,-311.7 531,-311.7 531,-289.7 331,-289.7"/>
<image xlink:href="../../images/foreignKeys.png" width="11px" height="12px" preserveAspectRatio="xMinYMin meet" x="336" y="-306.7"/>
<text text-anchor="start" x="360" y="-296.8" font-family="Helvetica,sans-Serif" font-size="11.00" fill="#000000">person_identifier</text>
<polygon fill="none" stroke="#000000" points="331,-267.7 331,-289.7 531,-289.7 531,-267.7 331,-267.7"/>
<image xlink:href="../../images/foreignKeys.png" width="11px" height="12px" preserveAspectRatio="xMinYMin meet" x="336" y="-284.7"/>
<text text-anchor="start" x="360" y="-274.8" font-family="Helvetica,sans-Serif" font-size="11.00" fill="#000000">legacy_id</text>
<polygon fill="#ffffff" stroke="transparent" points="331,-245.7 331,-267.7 531,-267.7 531,-245.7 331,-245.7"/>
<polygon fill="none" stroke="#000000" points="331,-245.7 331,-267.7 531,-267.7 531,-245.7 331,-245.7"/>
<text text-anchor="start" x="360" y="-252.8" font-family="Helvetica,sans-Serif" font-size="11.00" fill="#000000">external_reference</text>
<polygon fill="none" stroke="#000000" points="331,-226.7 331,-245.7 531,-245.7 531,-226.7 331,-226.7"/>
<text text-anchor="start" x="334" y="-232.8" font-family="Helvetica,sans-Serif" font-size="11.00" fill="#000000">...</text>
<polygon fill="#ffffff" stroke="transparent" points="331,-207.7 331,-226.7 429,-226.7 429,-207.7 331,-207.7"/>
<polygon fill="none" stroke="#000000" points="331,-207.7 331,-226.7 429,-226.7 429,-207.7 331,-207.7"/>
<text text-anchor="start" x="334" y="-213.8" font-family="Helvetica,sans-Serif" font-size="11.00" fill="#000000">&lt; 1</text>
<polygon fill="#ffffff" stroke="transparent" points="429,-207.7 429,-226.7 480,-226.7 480,-207.7 429,-207.7"/>
<polygon fill="none" stroke="#000000" points="429,-207.7 429,-226.7 480,-226.7 480,-207.7 429,-207.7"/>
<text text-anchor="start" x="470.8862" y="-213.8" font-family="Helvetica,sans-Serif" font-size="11.00" fill="#000000"> &#160;</text>
<polygon fill="#ffffff" stroke="transparent" points="480,-207.7 480,-226.7 531,-226.7 531,-207.7 480,-207.7"/>
<polygon fill="none" stroke="#000000" points="480,-207.7 480,-226.7 531,-226.7 531,-207.7 480,-207.7"/>
<text text-anchor="start" x="521.8862" y="-213.8" font-family="Helvetica,sans-Serif" font-size="11.00" fill="#000000"> &#160;</text>
</a>
</g>
</g>
<!-- audit_revision -->
<g id="node2" class="node">
<title>audit_revision</title>
<g id="a_node2"><a xlink:href="../../tables/audit_revision.html" xlink:title="audit_revision" target="_top">
<polygon fill="#ffffff" stroke="transparent" points="8,-84.7 8,-284.7 243,-284.7 243,-84.7 8,-84.7"/>
<polygon fill="#f5f5f5" stroke="transparent" points="10.5,-259.7 10.5,-282.7 241.5,-282.7 241.5,-259.7 10.5,-259.7"/>
<polygon fill="none" stroke="#000000" points="10.5,-259.7 10.5,-282.7 241.5,-282.7 241.5,-259.7 10.5,-259.7"/>
<text text-anchor="start" x="15.5" y="-268.3" font-family="Helvetica,sans-Serif" font-weight="bold" font-size="11.00" fill="#000000">audit_revision</text>
<text text-anchor="start" x="206.5437" y="-267.8" font-family="Helvetica,sans-Serif" font-size="11.00" fill="#000000">[table]</text>
<polygon fill="none" stroke="#000000" points="10.5,-237.7 10.5,-259.7 144.5,-259.7 144.5,-237.7 10.5,-237.7"/>
<image xlink:href="../../images/primaryKeys.png" width="11px" height="12px" preserveAspectRatio="xMinYMin meet" x="15.5" y="-254.7"/>
<text text-anchor="start" x="30.5" y="-244.8" font-family="Helvetica,sans-Serif" font-size="11.00" fill="#000000">id</text>
<polygon fill="none" stroke="#000000" points="144.5,-237.7 144.5,-259.7 241.5,-259.7 241.5,-237.7 144.5,-237.7"/>
<text text-anchor="start" x="147.5" y="-245.4" font-family="Helvetica,sans-Serif" font-size="11.00" fill="#000000">bigserial[19]</text>
<polygon fill="none" stroke="#000000" points="10.5,-215.7 10.5,-237.7 144.5,-237.7 144.5,-215.7 10.5,-215.7"/>
<text text-anchor="start" x="30.5" y="-222.8" font-family="Helvetica,sans-Serif" font-size="11.00" fill="#000000">timestamp</text>
<polygon fill="none" stroke="#000000" points="144.5,-215.7 144.5,-237.7 241.5,-237.7 241.5,-215.7 144.5,-215.7"/>
<text text-anchor="start" x="147.5" y="-223.4" font-family="Helvetica,sans-Serif" font-size="11.00" fill="#000000">timestamp[29,6]</text>
<polygon fill="none" stroke="#000000" points="10.5,-193.7 10.5,-215.7 144.5,-215.7 144.5,-193.7 10.5,-193.7"/>
<text text-anchor="start" x="30.5" y="-200.8" font-family="Helvetica,sans-Serif" font-size="11.00" fill="#000000">source</text>
<polygon fill="none" stroke="#000000" points="144.5,-193.7 144.5,-215.7 241.5,-215.7 241.5,-193.7 144.5,-193.7"/>
<text text-anchor="start" x="147.5" y="-201.4" font-family="Helvetica,sans-Serif" font-size="11.00" fill="#000000">varchar[6]</text>
<polygon fill="none" stroke="#000000" points="10.5,-171.7 10.5,-193.7 144.5,-193.7 144.5,-171.7 10.5,-171.7"/>
<text text-anchor="start" x="30.5" y="-178.8" font-family="Helvetica,sans-Serif" font-size="11.00" fill="#000000">affected_entities</text>
<polygon fill="none" stroke="#000000" points="144.5,-171.7 144.5,-193.7 241.5,-193.7 241.5,-171.7 144.5,-171.7"/>
<text text-anchor="start" x="147.4468" y="-179.4" font-family="Helvetica,sans-Serif" font-size="11.00" fill="#000000">_text[2147483647]</text>
<polygon fill="none" stroke="#000000" points="10.5,-149.7 10.5,-171.7 144.5,-171.7 144.5,-149.7 10.5,-149.7"/>
<text text-anchor="start" x="30.5" y="-156.8" font-family="Helvetica,sans-Serif" font-size="11.00" fill="#000000">username</text>
<polygon fill="none" stroke="#000000" points="144.5,-149.7 144.5,-171.7 241.5,-171.7 241.5,-149.7 144.5,-149.7"/>
<text text-anchor="start" x="147.5" y="-157.4" font-family="Helvetica,sans-Serif" font-size="11.00" fill="#000000">varchar[64]</text>
<polygon fill="none" stroke="#000000" points="10.5,-127.7 10.5,-149.7 144.5,-149.7 144.5,-127.7 10.5,-127.7"/>
<text text-anchor="start" x="30.5" y="-134.8" font-family="Helvetica,sans-Serif" font-size="11.00" fill="#000000">caseload_id</text>
<polygon fill="none" stroke="#000000" points="144.5,-127.7 144.5,-149.7 241.5,-149.7 241.5,-127.7 144.5,-127.7"/>
<text text-anchor="start" x="147.5" y="-135.4" font-family="Helvetica,sans-Serif" font-size="11.00" fill="#000000">varchar[10]</text>
<polygon fill="none" stroke="#000000" points="10.5,-105.7 10.5,-127.7 144.5,-127.7 144.5,-105.7 10.5,-105.7"/>
<text text-anchor="start" x="30.5" y="-112.8" font-family="Helvetica,sans-Serif" font-size="11.00" fill="#000000">reason</text>
<polygon fill="none" stroke="#000000" points="144.5,-105.7 144.5,-127.7 241.5,-127.7 241.5,-105.7 144.5,-105.7"/>
<text text-anchor="start" x="147.5" y="-113.4" font-family="Helvetica,sans-Serif" font-size="11.00" fill="#000000">text[2147483647]</text>
<polygon fill="#ffffff" stroke="transparent" points="10.5,-86.7 10.5,-105.7 81.5,-105.7 81.5,-86.7 10.5,-86.7"/>
<polygon fill="none" stroke="#000000" points="10.5,-86.7 10.5,-105.7 81.5,-105.7 81.5,-86.7 10.5,-86.7"/>
<text text-anchor="start" x="13.5" y="-92.8" font-family="Helvetica,sans-Serif" font-size="11.00" fill="#000000">&lt; 0</text>
<polygon fill="#ffffff" stroke="transparent" points="81.5,-86.7 81.5,-105.7 144.5,-105.7 144.5,-86.7 81.5,-86.7"/>
<polygon fill="none" stroke="#000000" points="81.5,-86.7 81.5,-105.7 144.5,-105.7 144.5,-86.7 81.5,-86.7"/>
<text text-anchor="start" x="135.3862" y="-92.8" font-family="Helvetica,sans-Serif" font-size="11.00" fill="#000000"> &#160;</text>
<polygon fill="#ffffff" stroke="transparent" points="144.5,-86.7 144.5,-105.7 241.5,-105.7 241.5,-86.7 144.5,-86.7"/>
<polygon fill="none" stroke="#000000" points="144.5,-86.7 144.5,-105.7 241.5,-105.7 241.5,-86.7 144.5,-86.7"/>
<text text-anchor="start" x="222.9053" y="-92.8" font-family="Helvetica,sans-Serif" font-size="11.00" fill="#000000">2 &gt;</text>
<polygon fill="none" stroke="#000000" stroke-width="2" points="9,-85.7 9,-283.7 242,-283.7 242,-85.7 9,-85.7"/>
</a>
</g>
</g>
<!-- court_appearance_audit&#45;&gt;audit_revision -->
<g id="edge1" class="edge">
<title>court_appearance_audit:w&#45;&gt;audit_revision:e</title>
<path fill="none" stroke="#000000" d="M316.7074,-342.327C277.0093,-327.5438 294.3641,-248.7 241.5,-248.7"/>
<polygon fill="#000000" stroke="#000000" points="323.108,-343.3896 330.4103,-348.2514 327.054,-344.0448 331,-344.7 331,-344.7 331,-344.7 327.054,-344.0448 331.5897,-341.1486 323.108,-343.3896 323.108,-343.3896"/>
<ellipse fill="none" stroke="#000000" cx="319.9513" cy="-342.8655" rx="3.2" ry="3.2"/>
</g>
<!-- court_appearance_movement_audit -->
<g id="node3" class="node">
<title>court_appearance_movement_audit</title>
<g id="a_node3"><a xlink:href="../../tables/court_appearance_movement_audit.html" xlink:title="court_appearance_movement_audit" target="_top">
<polygon fill="#ffffff" stroke="transparent" points="292,-38.2 292,-187.2 570,-187.2 570,-38.2 292,-38.2"/>
<polygon fill="#f5f5f5" stroke="transparent" points="292,-163.7 292,-186.7 570,-186.7 570,-163.7 292,-163.7"/>
<polygon fill="none" stroke="#000000" points="292,-163.7 292,-186.7 570,-186.7 570,-163.7 292,-163.7"/>
<text text-anchor="start" x="297" y="-172.3" font-family="Helvetica,sans-Serif" font-weight="bold" font-size="11.00" fill="#000000">court_appearance_movement_audit</text>
<text text-anchor="start" x="535.5219" y="-171.8" font-family="Helvetica,sans-Serif" font-size="11.00" fill="#000000">[table]</text>
<polygon fill="none" stroke="#000000" points="292,-141.7 292,-163.7 570,-163.7 570,-141.7 292,-141.7"/>
<image xlink:href="../../images/primaryKeys.png" width="11px" height="12px" preserveAspectRatio="xMinYMin meet" x="297" y="-158.7"/>
<text text-anchor="start" x="321" y="-148.8" font-family="Helvetica,sans-Serif" font-size="11.00" fill="#000000">rev_id</text>
<polygon fill="none" stroke="#000000" points="292,-119.7 292,-141.7 570,-141.7 570,-119.7 292,-119.7"/>
<image xlink:href="../../images/primaryKeys.png" width="11px" height="12px" preserveAspectRatio="xMinYMin meet" x="297" y="-136.7"/>
<text text-anchor="start" x="321" y="-126.8" font-family="Helvetica,sans-Serif" font-size="11.00" fill="#000000">id</text>
<polygon fill="#ffffff" stroke="transparent" points="292,-97.7 292,-119.7 570,-119.7 570,-97.7 292,-97.7"/>
<polygon fill="none" stroke="#000000" points="292,-97.7 292,-119.7 570,-119.7 570,-97.7 292,-97.7"/>
<text text-anchor="start" x="321" y="-104.8" font-family="Helvetica,sans-Serif" font-size="11.00" fill="#000000">court_appearance_id</text>
<polygon fill="none" stroke="#000000" points="292,-75.7 292,-97.7 570,-97.7 570,-75.7 292,-75.7"/>
<image xlink:href="../../images/foreignKeys.png" width="11px" height="12px" preserveAspectRatio="xMinYMin meet" x="297" y="-92.7"/>
<text text-anchor="start" x="321" y="-82.8" font-family="Helvetica,sans-Serif" font-size="11.00" fill="#000000">person_identifier</text>
<polygon fill="none" stroke="#000000" points="292,-56.7 292,-75.7 570,-75.7 570,-56.7 292,-56.7"/>
<text text-anchor="start" x="295" y="-62.8" font-family="Helvetica,sans-Serif" font-size="11.00" fill="#000000">...</text>
<polygon fill="#ffffff" stroke="transparent" points="292,-37.7 292,-56.7 429,-56.7 429,-37.7 292,-37.7"/>
<polygon fill="none" stroke="#000000" points="292,-37.7 292,-56.7 429,-56.7 429,-37.7 292,-37.7"/>
<text text-anchor="start" x="295" y="-43.8" font-family="Helvetica,sans-Serif" font-size="11.00" fill="#000000">&lt; 1</text>
<polygon fill="#ffffff" stroke="transparent" points="429,-37.7 429,-56.7 499,-56.7 499,-37.7 429,-37.7"/>
<polygon fill="none" stroke="#000000" points="429,-37.7 429,-56.7 499,-56.7 499,-37.7 429,-37.7"/>
<text text-anchor="start" x="489.8862" y="-43.8" font-family="Helvetica,sans-Serif" font-size="11.00" fill="#000000"> &#160;</text>
<polygon fill="#ffffff" stroke="transparent" points="499,-37.7 499,-56.7 570,-56.7 570,-37.7 499,-37.7"/>
<polygon fill="none" stroke="#000000" points="499,-37.7 499,-56.7 570,-56.7 570,-37.7 499,-37.7"/>
<text text-anchor="start" x="560.8862" y="-43.8" font-family="Helvetica,sans-Serif" font-size="11.00" fill="#000000"> &#160;</text>
</a>
</g>
</g>
<!-- court_appearance_movement_audit&#45;&gt;audit_revision -->
<g id="edge2" class="edge">
<title>court_appearance_movement_audit:w&#45;&gt;audit_revision:e</title>
<path fill="none" stroke="#000000" d="M277.9659,-156.825C253.7993,-175.2 283.6837,-248.7 241.5,-248.7"/>
<polygon fill="#000000" stroke="#000000" points="284.3247,-154.956 293.0152,-156.1539 288.1623,-153.828 292,-152.7 292,-152.7 292,-152.7 288.1623,-153.828 290.9848,-149.2461 284.3247,-154.956 284.3247,-154.956"/>
<ellipse fill="none" stroke="#000000" cx="281.2545" cy="-155.8584" rx="3.2" ry="3.2"/>
</g>
</g>
</svg>
