<?xml version="1.0" encoding="UTF-8" standalone="no"?>
<!DOCTYPE svg PUBLIC "-//W3C//DTD SVG 1.1//EN"
 "http://www.w3.org/Graphics/SVG/1.1/DTD/svg11.dtd">
<!-- Generated by graphviz version 2.40.1 (20161225.0304)
 -->
<!-- Title: twoDegreesRelationshipsDiagramImplied Pages: 1 -->
<svg width="872pt" height="611pt"
 viewBox="0.00 0.00 872.00 611.20" xmlns="http://www.w3.org/2000/svg" xmlns:xlink="http://www.w3.org/1999/xlink">
<g id="graph0" class="graph" transform="scale(1 1) rotate(0) translate(4 607.2)">
<title>twoDegreesRelationshipsDiagramImplied</title>
<polygon fill="#ffffff" stroke="transparent" points="-4,4 -4,-607.2 868,-607.2 868,4 -4,4"/>
<text text-anchor="middle" x="72.4936" y="-7.3" font-family="Helvetica,sans-Serif" font-size="11.00" fill="#000000">Generated by SchemaSpy</text>
<!-- court_appearance -->
<g id="node1" class="node">
<title>court_appearance</title>
<g id="a_node1"><a xlink:href="../../tables/court_appearance.html" xlink:title="court_appearance" target="_top">
<polygon fill="#ffffff" stroke="transparent" points="351.5,-38.2 351.5,-253.2 510.5,-253.2 510.5,-38.2 351.5,-38.2"/>
<polygon fill="#f5f5f5" stroke="transparent" points="352,-229.7 352,-252.7 511,-252.7 511,-229.7 352,-229.7"/>
<polygon fill="none" stroke="#000000" points="352,-229.7 352,-252.7 511,-252.7 511,-229.7 352,-229.7"/>
<text text-anchor="start" x="357" y="-238.3" font-family="Helvetica,sans-Serif" font-weight="bold" font-size="11.00" fill="#000000">court_appearance</text>
<text text-anchor="start" x="476.5219" y="-237.8" font-family="Helvetica,sans-Serif" font-size="11.00" fill="#000000">[table]</text>
<polygon fill="none" stroke="#000000" points="352,-207.7 352,-229.7 511,-229.7 511,-207.7 352,-207.7"/>
<image xlink:href="../../images/primaryKeys.png" width="11px" height="12px" preserveAspectRatio="xMinYMin meet" x="357" y="-224.7"/>
<text text-anchor="start" x="381" y="-214.8" font-family="Helvetica,sans-Serif" font-size="11.00" fill="#000000">id</text>
<polygon fill="#ffffff" stroke="transparent" points="352,-185.7 352,-207.7 511,-207.7 511,-185.7 352,-185.7"/>
<polygon fill="none" stroke="#000000" points="352,-185.7 352,-207.7 511,-207.7 511,-185.7 352,-185.7"/>
<image xlink:href="../../images/foreignKeys.png" width="11px" height="12px" preserveAspectRatio="xMinYMin meet" x="357" y="-202.7"/>
<text text-anchor="start" x="381" y="-192.8" font-family="Helvetica,sans-Serif" font-size="11.00" fill="#000000">person_identifier</text>
<polygon fill="#ffffff" stroke="transparent" points="352,-163.7 352,-185.7 511,-185.7 511,-163.7 352,-163.7"/>
<polygon fill="none" stroke="#000000" points="352,-163.7 352,-185.7 511,-185.7 511,-163.7 352,-163.7"/>
<text text-anchor="start" x="381" y="-170.8" font-family="Helvetica,sans-Serif" font-size="11.00" fill="#000000">prison_code</text>
<polygon fill="#ffffff" stroke="transparent" points="352,-141.7 352,-163.7 511,-163.7 511,-141.7 352,-141.7"/>
<polygon fill="none" stroke="#000000" points="352,-141.7 352,-163.7 511,-163.7 511,-141.7 352,-141.7"/>
<image xlink:href="../../images/foreignKeys.png" width="11px" height="12px" preserveAspectRatio="xMinYMin meet" x="357" y="-158.7"/>
<text text-anchor="start" x="381" y="-148.8" font-family="Helvetica,sans-Serif" font-size="11.00" fill="#000000">reason_id</text>
<polygon fill="#ffffff" stroke="transparent" points="352,-119.7 352,-141.7 511,-141.7 511,-119.7 352,-119.7"/>
<polygon fill="none" stroke="#000000" points="352,-119.7 352,-141.7 511,-141.7 511,-119.7 352,-119.7"/>
<image xlink:href="../../images/foreignKeys.png" width="11px" height="12px" preserveAspectRatio="xMinYMin meet" x="357" y="-136.7"/>
<text text-anchor="start" x="381" y="-126.8" font-family="Helvetica,sans-Serif" font-size="11.00" fill="#000000">status_id</text>
<polygon fill="#ffffff" stroke="transparent" points="352,-97.7 352,-119.7 511,-119.7 511,-97.7 352,-97.7"/>
<polygon fill="none" stroke="#000000" points="352,-97.7 352,-119.7 511,-119.7 511,-97.7 352,-97.7"/>
<text text-anchor="start" x="381" y="-104.8" font-family="Helvetica,sans-Serif" font-size="11.00" fill="#000000">start</text>
<polygon fill="#ffffff" stroke="transparent" points="352,-75.7 352,-97.7 511,-97.7 511,-75.7 352,-75.7"/>
<polygon fill="none" stroke="#000000" points="352,-75.7 352,-97.7 511,-97.7 511,-75.7 352,-75.7"/>
<image xlink:href="../../images/foreignKeys.png" width="11px" height="12px" preserveAspectRatio="xMinYMin meet" x="357" y="-92.7"/>
<text text-anchor="start" x="381" y="-82.8" font-family="Helvetica,sans-Serif" font-size="11.00" fill="#000000">legacy_id</text>
<polygon fill="none" stroke="#000000" points="352,-56.7 352,-75.7 511,-75.7 511,-56.7 352,-56.7"/>
<text text-anchor="start" x="355" y="-62.8" font-family="Helvetica,sans-Serif" font-size="11.00" fill="#000000">...</text>
<polygon fill="#ffffff" stroke="transparent" points="352,-37.7 352,-56.7 425,-56.7 425,-37.7 352,-37.7"/>
<polygon fill="none" stroke="#000000" points="352,-37.7 352,-56.7 425,-56.7 425,-37.7 352,-37.7"/>
<text text-anchor="start" x="355" y="-43.8" font-family="Helvetica,sans-Serif" font-size="11.00" fill="#000000">&lt; 4</text>
<polygon fill="#ffffff" stroke="transparent" points="425,-37.7 425,-56.7 463,-56.7 463,-37.7 425,-37.7"/>
<polygon fill="none" stroke="#000000" points="425,-37.7 425,-56.7 463,-56.7 463,-37.7 425,-37.7"/>
<text text-anchor="start" x="453.8862" y="-43.8" font-family="Helvetica,sans-Serif" font-size="11.00" fill="#000000"> &#160;</text>
<polygon fill="#ffffff" stroke="transparent" points="463,-37.7 463,-56.7 511,-56.7 511,-37.7 463,-37.7"/>
<polygon fill="none" stroke="#000000" points="463,-37.7 463,-56.7 511,-56.7 511,-37.7 463,-37.7"/>
<text text-anchor="start" x="492.4053" y="-43.8" font-family="Helvetica,sans-Serif" font-size="11.00" fill="#000000">1 &gt;</text>
</a>
</g>
</g>
<!-- audit_revision -->
<g id="node2" class="node">
<title>audit_revision</title>
<g id="a_node2"><a xlink:href="../../tables/audit_revision.html" xlink:title="audit_revision" target="_top">
<polygon fill="#ffffff" stroke="transparent" points="8,-334.7 8,-534.7 243,-534.7 243,-334.7 8,-334.7"/>
<polygon fill="#f5f5f5" stroke="transparent" points="10.5,-509.7 10.5,-532.7 241.5,-532.7 241.5,-509.7 10.5,-509.7"/>
<polygon fill="none" stroke="#000000" points="10.5,-509.7 10.5,-532.7 241.5,-532.7 241.5,-509.7 10.5,-509.7"/>
<text text-anchor="start" x="15.5" y="-518.3" font-family="Helvetica,sans-Serif" font-weight="bold" font-size="11.00" fill="#000000">audit_revision</text>
<text text-anchor="start" x="206.5437" y="-517.8" font-family="Helvetica,sans-Serif" font-size="11.00" fill="#000000">[table]</text>
<polygon fill="none" stroke="#000000" points="10.5,-487.7 10.5,-509.7 144.5,-509.7 144.5,-487.7 10.5,-487.7"/>
<image xlink:href="../../images/primaryKeys.png" width="11px" height="12px" preserveAspectRatio="xMinYMin meet" x="15.5" y="-504.7"/>
<text text-anchor="start" x="30.5" y="-494.8" font-family="Helvetica,sans-Serif" font-size="11.00" fill="#000000">id</text>
<polygon fill="none" stroke="#000000" points="144.5,-487.7 144.5,-509.7 241.5,-509.7 241.5,-487.7 144.5,-487.7"/>
<text text-anchor="start" x="147.5" y="-495.4" font-family="Helvetica,sans-Serif" font-size="11.00" fill="#000000">bigserial[19]</text>
<polygon fill="none" stroke="#000000" points="10.5,-465.7 10.5,-487.7 144.5,-487.7 144.5,-465.7 10.5,-465.7"/>
<text text-anchor="start" x="30.5" y="-472.8" font-family="Helvetica,sans-Serif" font-size="11.00" fill="#000000">timestamp</text>
<polygon fill="none" stroke="#000000" points="144.5,-465.7 144.5,-487.7 241.5,-487.7 241.5,-465.7 144.5,-465.7"/>
<text text-anchor="start" x="147.5" y="-473.4" font-family="Helvetica,sans-Serif" font-size="11.00" fill="#000000">timestamp[29,6]</text>
<polygon fill="none" stroke="#000000" points="10.5,-443.7 10.5,-465.7 144.5,-465.7 144.5,-443.7 10.5,-443.7"/>
<text text-anchor="start" x="30.5" y="-450.8" font-family="Helvetica,sans-Serif" font-size="11.00" fill="#000000">source</text>
<polygon fill="none" stroke="#000000" points="144.5,-443.7 144.5,-465.7 241.5,-465.7 241.5,-443.7 144.5,-443.7"/>
<text text-anchor="start" x="147.5" y="-451.4" font-family="Helvetica,sans-Serif" font-size="11.00" fill="#000000">varchar[6]</text>
<polygon fill="none" stroke="#000000" points="10.5,-421.7 10.5,-443.7 144.5,-443.7 144.5,-421.7 10.5,-421.7"/>
<text text-anchor="start" x="30.5" y="-428.8" font-family="Helvetica,sans-Serif" font-size="11.00" fill="#000000">affected_entities</text>
<polygon fill="none" stroke="#000000" points="144.5,-421.7 144.5,-443.7 241.5,-443.7 241.5,-421.7 144.5,-421.7"/>
<text text-anchor="start" x="147.4468" y="-429.4" font-family="Helvetica,sans-Serif" font-size="11.00" fill="#000000">_text[2147483647]</text>
<polygon fill="none" stroke="#000000" points="10.5,-399.7 10.5,-421.7 144.5,-421.7 144.5,-399.7 10.5,-399.7"/>
<text text-anchor="start" x="30.5" y="-406.8" font-family="Helvetica,sans-Serif" font-size="11.00" fill="#000000">username</text>
<polygon fill="none" stroke="#000000" points="144.5,-399.7 144.5,-421.7 241.5,-421.7 241.5,-399.7 144.5,-399.7"/>
<text text-anchor="start" x="147.5" y="-407.4" font-family="Helvetica,sans-Serif" font-size="11.00" fill="#000000">varchar[64]</text>
<polygon fill="none" stroke="#000000" points="10.5,-377.7 10.5,-399.7 144.5,-399.7 144.5,-377.7 10.5,-377.7"/>
<text text-anchor="start" x="30.5" y="-384.8" font-family="Helvetica,sans-Serif" font-size="11.00" fill="#000000">caseload_id</text>
<polygon fill="none" stroke="#000000" points="144.5,-377.7 144.5,-399.7 241.5,-399.7 241.5,-377.7 144.5,-377.7"/>
<text text-anchor="start" x="147.5" y="-385.4" font-family="Helvetica,sans-Serif" font-size="11.00" fill="#000000">varchar[10]</text>
<polygon fill="none" stroke="#000000" points="10.5,-355.7 10.5,-377.7 144.5,-377.7 144.5,-355.7 10.5,-355.7"/>
<text text-anchor="start" x="30.5" y="-362.8" font-family="Helvetica,sans-Serif" font-size="11.00" fill="#000000">reason</text>
<polygon fill="none" stroke="#000000" points="144.5,-355.7 144.5,-377.7 241.5,-377.7 241.5,-355.7 144.5,-355.7"/>
<text text-anchor="start" x="147.5" y="-363.4" font-family="Helvetica,sans-Serif" font-size="11.00" fill="#000000">text[2147483647]</text>
<polygon fill="#ffffff" stroke="transparent" points="10.5,-336.7 10.5,-355.7 81.5,-355.7 81.5,-336.7 10.5,-336.7"/>
<polygon fill="none" stroke="#000000" points="10.5,-336.7 10.5,-355.7 81.5,-355.7 81.5,-336.7 10.5,-336.7"/>
<text text-anchor="start" x="13.5" y="-342.8" font-family="Helvetica,sans-Serif" font-size="11.00" fill="#000000">&lt; 0</text>
<polygon fill="#ffffff" stroke="transparent" points="81.5,-336.7 81.5,-355.7 144.5,-355.7 144.5,-336.7 81.5,-336.7"/>
<polygon fill="none" stroke="#000000" points="81.5,-336.7 81.5,-355.7 144.5,-355.7 144.5,-336.7 81.5,-336.7"/>
<text text-anchor="start" x="135.3862" y="-342.8" font-family="Helvetica,sans-Serif" font-size="11.00" fill="#000000"> &#160;</text>
<polygon fill="#ffffff" stroke="transparent" points="144.5,-336.7 144.5,-355.7 241.5,-355.7 241.5,-336.7 144.5,-336.7"/>
<polygon fill="none" stroke="#000000" points="144.5,-336.7 144.5,-355.7 241.5,-355.7 241.5,-336.7 144.5,-336.7"/>
<text text-anchor="start" x="222.9053" y="-342.8" font-family="Helvetica,sans-Serif" font-size="11.00" fill="#000000">4 &gt;</text>
<polygon fill="none" stroke="#000000" stroke-width="2" points="9,-335.7 9,-533.7 242,-533.7 242,-335.7 9,-335.7"/>
</a>
</g>
</g>
<!-- court_appearance&#45;&gt;audit_revision -->
<g id="edge1" class="edge">
<title>court_appearance:w&#45;&gt;audit_revision:e</title>
<path fill="none" stroke="#000000" stroke-dasharray="5,2" d="M341.4185,-87.2061C260.0138,-95.4411 307.8381,-202.5903 284,-291.7 271.8644,-337.0644 288.4595,-498.7 241.5,-498.7"/>
<polygon fill="#000000" stroke="#000000" points="351.0098,-82.7428 351.392,-90.7337 349.7939,-90.8101 349.4116,-82.8192 351.0098,-82.7428"/>
<polyline fill="none" stroke="#000000" points="352,-86.7 348.0046,-86.8911 "/>
<ellipse fill="none" stroke="#000000" cx="344.8082" cy="-87.044" rx="3.2" ry="3.2"/>
</g>
<!-- person_summary -->
<g id="node3" class="node">
<title>person_summary</title>
<g id="a_node3"><a xlink:href="../../tables/person_summary.html" xlink:title="person_summary" target="_top">
<polygon fill="#ffffff" stroke="transparent" points="48.5,-251.2 48.5,-312.2 202.5,-312.2 202.5,-251.2 48.5,-251.2"/>
<polygon fill="#f5f5f5" stroke="transparent" points="48.5,-288.7 48.5,-311.7 202.5,-311.7 202.5,-288.7 48.5,-288.7"/>
<polygon fill="none" stroke="#000000" points="48.5,-288.7 48.5,-311.7 202.5,-311.7 202.5,-288.7 48.5,-288.7"/>
<text text-anchor="start" x="53.5" y="-297.3" font-family="Helvetica,sans-Serif" font-weight="bold" font-size="11.00" fill="#000000">person_summary</text>
<text text-anchor="start" x="168.0219" y="-296.8" font-family="Helvetica,sans-Serif" font-size="11.00" fill="#000000">[table]</text>
<polygon fill="none" stroke="#000000" points="48.5,-269.7 48.5,-288.7 202.5,-288.7 202.5,-269.7 48.5,-269.7"/>
<text text-anchor="start" x="51.5" y="-275.8" font-family="Helvetica,sans-Serif" font-size="11.00" fill="#000000">...</text>
<polygon fill="#ffffff" stroke="transparent" points="48.5,-250.7 48.5,-269.7 114.5,-269.7 114.5,-250.7 48.5,-250.7"/>
<polygon fill="none" stroke="#000000" points="48.5,-250.7 48.5,-269.7 114.5,-269.7 114.5,-250.7 48.5,-250.7"/>
<text text-anchor="start" x="51.5" y="-256.8" font-family="Helvetica,sans-Serif" font-size="11.00" fill="#000000"> &#160;</text>
<polygon fill="#ffffff" stroke="transparent" points="114.5,-250.7 114.5,-269.7 153.5,-269.7 153.5,-250.7 114.5,-250.7"/>
<polygon fill="none" stroke="#000000" points="114.5,-250.7 114.5,-269.7 153.5,-269.7 153.5,-250.7 114.5,-250.7"/>
<text text-anchor="start" x="144.3862" y="-256.8" font-family="Helvetica,sans-Serif" font-size="11.00" fill="#000000"> &#160;</text>
<polygon fill="#ffffff" stroke="transparent" points="153.5,-250.7 153.5,-269.7 202.5,-269.7 202.5,-250.7 153.5,-250.7"/>
<polygon fill="none" stroke="#000000" points="153.5,-250.7 153.5,-269.7 202.5,-269.7 202.5,-250.7 153.5,-250.7"/>
<text text-anchor="start" x="183.9053" y="-256.8" font-family="Helvetica,sans-Serif" font-size="11.00" fill="#000000">4 &gt;</text>
</a>
</g>
</g>
<!-- court_appearance&#45;&gt;person_summary -->
<g id="edge2" class="edge">
<title>court_appearance:w&#45;&gt;person_summary:e</title>
<path fill="none" stroke="#000000" d="M337.5002,-197.7972C276.1357,-207.5278 273.1025,-278.7 202.5,-278.7"/>
<polygon fill="#000000" stroke="#000000" points="344.0228,-197.3037 352.2717,-200.2897 348.0114,-197.0018 352,-196.7 352,-196.7 352,-196.7 348.0114,-197.0018 351.7283,-193.1103 344.0228,-197.3037 344.0228,-197.3037"/>
<ellipse fill="none" stroke="#000000" cx="340.8319" cy="-197.5451" rx="3.2" ry="3.2"/>
</g>
<!-- court_appearance_reason -->
<g id="node4" class="node">
<title>court_appearance_reason</title>
<g id="a_node4"><a xlink:href="../../tables/court_appearance_reason.html" xlink:title="court_appearance_reason" target="_top">
<polygon fill="#ffffff" stroke="transparent" points="20,-147.2 20,-208.2 231,-208.2 231,-147.2 20,-147.2"/>
<polygon fill="#f5f5f5" stroke="transparent" points="20.5,-184.7 20.5,-207.7 231.5,-207.7 231.5,-184.7 20.5,-184.7"/>
<polygon fill="none" stroke="#000000" points="20.5,-184.7 20.5,-207.7 231.5,-207.7 231.5,-184.7 20.5,-184.7"/>
<text text-anchor="start" x="25.5" y="-193.3" font-family="Helvetica,sans-Serif" font-weight="bold" font-size="11.00" fill="#000000">court_appearance_reason</text>
<text text-anchor="start" x="197.0219" y="-192.8" font-family="Helvetica,sans-Serif" font-size="11.00" fill="#000000">[table]</text>
<polygon fill="none" stroke="#000000" points="20.5,-165.7 20.5,-184.7 231.5,-184.7 231.5,-165.7 20.5,-165.7"/>
<text text-anchor="start" x="23.5" y="-171.8" font-family="Helvetica,sans-Serif" font-size="11.00" fill="#000000">...</text>
<polygon fill="#ffffff" stroke="transparent" points="20.5,-146.7 20.5,-165.7 115.5,-165.7 115.5,-146.7 20.5,-146.7"/>
<polygon fill="none" stroke="#000000" points="20.5,-146.7 20.5,-165.7 115.5,-165.7 115.5,-146.7 20.5,-146.7"/>
<text text-anchor="start" x="23.5" y="-152.8" font-family="Helvetica,sans-Serif" font-size="11.00" fill="#000000"> &#160;</text>
<polygon fill="#ffffff" stroke="transparent" points="115.5,-146.7 115.5,-165.7 168.5,-165.7 168.5,-146.7 115.5,-146.7"/>
<polygon fill="none" stroke="#000000" points="115.5,-146.7 115.5,-165.7 168.5,-165.7 168.5,-146.7 115.5,-146.7"/>
<text text-anchor="start" x="159.3862" y="-152.8" font-family="Helvetica,sans-Serif" font-size="11.00" fill="#000000"> &#160;</text>
<polygon fill="#ffffff" stroke="transparent" points="168.5,-146.7 168.5,-165.7 231.5,-165.7 231.5,-146.7 168.5,-146.7"/>
<polygon fill="none" stroke="#000000" points="168.5,-146.7 168.5,-165.7 231.5,-165.7 231.5,-146.7 168.5,-146.7"/>
<text text-anchor="start" x="212.9053" y="-152.8" font-family="Helvetica,sans-Serif" font-size="11.00" fill="#000000">1 &gt;</text>
</a>
</g>
</g>
<!-- court_appearance&#45;&gt;court_appearance_reason -->
<g id="edge3" class="edge">
<title>court_appearance:w&#45;&gt;court_appearance_reason:e</title>
<path fill="none" stroke="#000000" d="M337.4711,-153.2659C294.9431,-156.7094 280.7307,-174.7 231.5,-174.7"/>
<polygon fill="#000000" stroke="#000000" points="344.0061,-153.0114 352.1401,-156.2973 348.003,-152.8557 352,-152.7 352,-152.7 352,-152.7 348.003,-152.8557 351.8599,-149.1027 344.0061,-153.0114 344.0061,-153.0114"/>
<ellipse fill="none" stroke="#000000" cx="340.8085" cy="-153.136" rx="3.2" ry="3.2"/>
</g>
<!-- court_appearance_status -->
<g id="node5" class="node">
<title>court_appearance_status</title>
<g id="a_node5"><a xlink:href="../../tables/court_appearance_status.html" xlink:title="court_appearance_status" target="_top">
<polygon fill="#ffffff" stroke="transparent" points="21.5,-65.2 21.5,-126.2 229.5,-126.2 229.5,-65.2 21.5,-65.2"/>
<polygon fill="#f5f5f5" stroke="transparent" points="21.5,-102.7 21.5,-125.7 229.5,-125.7 229.5,-102.7 21.5,-102.7"/>
<polygon fill="none" stroke="#000000" points="21.5,-102.7 21.5,-125.7 229.5,-125.7 229.5,-102.7 21.5,-102.7"/>
<text text-anchor="start" x="26.5" y="-111.3" font-family="Helvetica,sans-Serif" font-weight="bold" font-size="11.00" fill="#000000">court_appearance_status</text>
<text text-anchor="start" x="195.0219" y="-110.8" font-family="Helvetica,sans-Serif" font-size="11.00" fill="#000000">[table]</text>
<polygon fill="none" stroke="#000000" points="21.5,-83.7 21.5,-102.7 229.5,-102.7 229.5,-83.7 21.5,-83.7"/>
<text text-anchor="start" x="24.5" y="-89.8" font-family="Helvetica,sans-Serif" font-size="11.00" fill="#000000">...</text>
<polygon fill="#ffffff" stroke="transparent" points="21.5,-64.7 21.5,-83.7 114.5,-83.7 114.5,-64.7 21.5,-64.7"/>
<polygon fill="none" stroke="#000000" points="21.5,-64.7 21.5,-83.7 114.5,-83.7 114.5,-64.7 21.5,-64.7"/>
<text text-anchor="start" x="24.5" y="-70.8" font-family="Helvetica,sans-Serif" font-size="11.00" fill="#000000"> &#160;</text>
<polygon fill="#ffffff" stroke="transparent" points="114.5,-64.7 114.5,-83.7 167.5,-83.7 167.5,-64.7 114.5,-64.7"/>
<polygon fill="none" stroke="#000000" points="114.5,-64.7 114.5,-83.7 167.5,-83.7 167.5,-64.7 114.5,-64.7"/>
<text text-anchor="start" x="158.3862" y="-70.8" font-family="Helvetica,sans-Serif" font-size="11.00" fill="#000000"> &#160;</text>
<polygon fill="#ffffff" stroke="transparent" points="167.5,-64.7 167.5,-83.7 229.5,-83.7 229.5,-64.7 167.5,-64.7"/>
<polygon fill="none" stroke="#000000" points="167.5,-64.7 167.5,-83.7 229.5,-83.7 229.5,-64.7 167.5,-64.7"/>
<text text-anchor="start" x="210.9053" y="-70.8" font-family="Helvetica,sans-Serif" font-size="11.00" fill="#000000">1 &gt;</text>
</a>
</g>
</g>
<!-- court_appearance&#45;&gt;court_appearance_status -->
<g id="edge4" class="edge">
<title>court_appearance:w&#45;&gt;court_appearance_status:e</title>
<path fill="none" stroke="#000000" d="M337.453,-129.7981C293.0283,-124.0437 281.271,-92.7 229.5,-92.7"/>
<polygon fill="#000000" stroke="#000000" points="344.0153,-130.2049 351.7772,-134.2931 348.0077,-130.4525 352,-130.7 352,-130.7 352,-130.7 348.0077,-130.4525 352.2228,-127.1069 344.0153,-130.2049 344.0153,-130.2049"/>
<ellipse fill="none" stroke="#000000" cx="340.8215" cy="-130.0069" rx="3.2" ry="3.2"/>
</g>
<!-- court_appearance_audit -->
<g id="node6" class="node">
<title>court_appearance_audit</title>
<g id="a_node6"><a xlink:href="../../tables/court_appearance_audit.html" xlink:title="court_appearance_audit" target="_top">
<polygon fill="#ffffff" stroke="transparent" points="331,-450.2 331,-599.2 531,-599.2 531,-450.2 331,-450.2"/>
<polygon fill="#f5f5f5" stroke="transparent" points="331,-575.7 331,-598.7 531,-598.7 531,-575.7 331,-575.7"/>
<polygon fill="none" stroke="#000000" points="331,-575.7 331,-598.7 531,-598.7 531,-575.7 331,-575.7"/>
<text text-anchor="start" x="336" y="-584.3" font-family="Helvetica,sans-Serif" font-weight="bold" font-size="11.00" fill="#000000">court_appearance_audit</text>
<text text-anchor="start" x="496.5219" y="-583.8" font-family="Helvetica,sans-Serif" font-size="11.00" fill="#000000">[table]</text>
<polygon fill="none" stroke="#000000" points="331,-553.7 331,-575.7 531,-575.7 531,-553.7 331,-553.7"/>
<image xlink:href="../../images/primaryKeys.png" width="11px" height="12px" preserveAspectRatio="xMinYMin meet" x="336" y="-570.7"/>
<text text-anchor="start" x="360" y="-560.8" font-family="Helvetica,sans-Serif" font-size="11.00" fill="#000000">rev_id</text>
<polygon fill="none" stroke="#000000" points="331,-531.7 331,-553.7 531,-553.7 531,-531.7 331,-531.7"/>
<image xlink:href="../../images/primaryKeys.png" width="11px" height="12px" preserveAspectRatio="xMinYMin meet" x="336" y="-548.7"/>
<text text-anchor="start" x="360" y="-538.8" font-family="Helvetica,sans-Serif" font-size="11.00" fill="#000000">id</text>
<polygon fill="none" stroke="#000000" points="331,-509.7 331,-531.7 531,-531.7 531,-509.7 331,-509.7"/>
<image xlink:href="../../images/foreignKeys.png" width="11px" height="12px" preserveAspectRatio="xMinYMin meet" x="336" y="-526.7"/>
<text text-anchor="start" x="360" y="-516.8" font-family="Helvetica,sans-Serif" font-size="11.00" fill="#000000">person_identifier</text>
<polygon fill="none" stroke="#000000" points="331,-487.7 331,-509.7 531,-509.7 531,-487.7 331,-487.7"/>
<image xlink:href="../../images/foreignKeys.png" width="11px" height="12px" preserveAspectRatio="xMinYMin meet" x="336" y="-504.7"/>
<text text-anchor="start" x="360" y="-494.8" font-family="Helvetica,sans-Serif" font-size="11.00" fill="#000000">legacy_id</text>
<polygon fill="none" stroke="#000000" points="331,-468.7 331,-487.7 531,-487.7 531,-468.7 331,-468.7"/>
<text text-anchor="start" x="334" y="-474.8" font-family="Helvetica,sans-Serif" font-size="11.00" fill="#000000">...</text>
<polygon fill="#ffffff" stroke="transparent" points="331,-449.7 331,-468.7 429,-468.7 429,-449.7 331,-449.7"/>
<polygon fill="none" stroke="#000000" points="331,-449.7 331,-468.7 429,-468.7 429,-449.7 331,-449.7"/>
<text text-anchor="start" x="334" y="-455.8" font-family="Helvetica,sans-Serif" font-size="11.00" fill="#000000">&lt; 3</text>
<polygon fill="#ffffff" stroke="transparent" points="429,-449.7 429,-468.7 480,-468.7 480,-449.7 429,-449.7"/>
<polygon fill="none" stroke="#000000" points="429,-449.7 429,-468.7 480,-468.7 480,-449.7 429,-449.7"/>
<text text-anchor="start" x="470.8862" y="-455.8" font-family="Helvetica,sans-Serif" font-size="11.00" fill="#000000"> &#160;</text>
<polygon fill="#ffffff" stroke="transparent" points="480,-449.7 480,-468.7 531,-468.7 531,-449.7 480,-449.7"/>
<polygon fill="none" stroke="#000000" points="480,-449.7 480,-468.7 531,-468.7 531,-449.7 480,-449.7"/>
<text text-anchor="start" x="521.8862" y="-455.8" font-family="Helvetica,sans-Serif" font-size="11.00" fill="#000000"> &#160;</text>
</a>
</g>
</g>
<!-- court_appearance_audit&#45;&gt;audit_revision -->
<g id="edge5" class="edge">
<title>court_appearance_audit:w&#45;&gt;audit_revision:e</title>
<path fill="none" stroke="#000000" stroke-dasharray="5,2" d="M316.59,-498.7C288.0545,-498.7 275.9948,-498.7 241.5,-498.7"/>
<polygon fill="#000000" stroke="#000000" points="323,-498.7001 331,-502.3 327,-498.7 331,-498.7 331,-498.7 331,-498.7 327,-498.7 331,-495.1 323,-498.7001 323,-498.7001"/>
<ellipse fill="none" stroke="#000000" cx="319.8" cy="-498.7001" rx="3.2" ry="3.2"/>
</g>
<!-- court_appearance_audit&#45;&gt;audit_revision -->
<g id="edge7" class="edge">
<title>court_appearance_audit:w&#45;&gt;audit_revision:e</title>
<path fill="none" stroke="#000000" d="M316.7382,-562.5041C282.9179,-551.0521 285.5181,-498.7 241.5,-498.7"/>
<polygon fill="#000000" stroke="#000000" points="323.0932,-563.4825 330.4521,-568.2581 327.0466,-564.0913 331,-564.7 331,-564.7 331,-564.7 327.0466,-564.0913 331.5479,-561.1419 323.0932,-563.4825 323.0932,-563.4825"/>
<ellipse fill="none" stroke="#000000" cx="319.9304" cy="-562.9955" rx="3.2" ry="3.2"/>
</g>
<!-- court_appearance_audit&#45;&gt;person_summary -->
<g id="edge6" class="edge">
<title>court_appearance_audit:w&#45;&gt;person_summary:e</title>
<path fill="none" stroke="#000000" stroke-dasharray="5,2" d="M316.5763,-519.398C218.6724,-500.3499 319.0453,-278.7 202.5,-278.7"/>
<polygon fill="#000000" stroke="#000000" points="323.0324,-519.9807 330.6763,-524.2854 327.0162,-520.3404 331,-520.7 331,-520.7 331,-520.7 327.0162,-520.3404 331.3237,-517.1146 323.0324,-519.9807 323.0324,-519.9807"/>
<ellipse fill="none" stroke="#000000" cx="319.8454" cy="-519.693" rx="3.2" ry="3.2"/>
</g>
<!-- court_appearance_movement -->
<g id="node7" class="node">
<title>court_appearance_movement</title>
<g id="a_node7"><a xlink:href="../../tables/court_appearance_movement.html" xlink:title="court_appearance_movement" target="_top">
<polygon fill="#ffffff" stroke="transparent" points="619,-220.2 619,-281.2 856,-281.2 856,-220.2 619,-220.2"/>
<polygon fill="#f5f5f5" stroke="transparent" points="619.5,-257.7 619.5,-280.7 856.5,-280.7 856.5,-257.7 619.5,-257.7"/>
<polygon fill="none" stroke="#000000" points="619.5,-257.7 619.5,-280.7 856.5,-280.7 856.5,-257.7 619.5,-257.7"/>
<text text-anchor="start" x="624.5" y="-266.3" font-family="Helvetica,sans-Serif" font-weight="bold" font-size="11.00" fill="#000000">court_appearance_movement</text>
<text text-anchor="start" x="822.0219" y="-265.8" font-family="Helvetica,sans-Serif" font-size="11.00" fill="#000000">[table]</text>
<polygon fill="none" stroke="#000000" points="619.5,-238.7 619.5,-257.7 856.5,-257.7 856.5,-238.7 619.5,-238.7"/>
<text text-anchor="start" x="622.5" y="-244.8" font-family="Helvetica,sans-Serif" font-size="11.00" fill="#000000">...</text>
<polygon fill="#ffffff" stroke="transparent" points="619.5,-219.7 619.5,-238.7 736.5,-238.7 736.5,-219.7 619.5,-219.7"/>
<polygon fill="none" stroke="#000000" points="619.5,-219.7 619.5,-238.7 736.5,-238.7 736.5,-219.7 619.5,-219.7"/>
<text text-anchor="start" x="622.5" y="-225.8" font-family="Helvetica,sans-Serif" font-size="11.00" fill="#000000">&lt; 2</text>
<polygon fill="#ffffff" stroke="transparent" points="736.5,-219.7 736.5,-238.7 796.5,-238.7 796.5,-219.7 736.5,-219.7"/>
<polygon fill="none" stroke="#000000" points="736.5,-219.7 736.5,-238.7 796.5,-238.7 796.5,-219.7 736.5,-219.7"/>
<text text-anchor="start" x="787.3862" y="-225.8" font-family="Helvetica,sans-Serif" font-size="11.00" fill="#000000"> &#160;</text>
<polygon fill="#ffffff" stroke="transparent" points="796.5,-219.7 796.5,-238.7 856.5,-238.7 856.5,-219.7 796.5,-219.7"/>
<polygon fill="none" stroke="#000000" points="796.5,-219.7 796.5,-238.7 856.5,-238.7 856.5,-219.7 796.5,-219.7"/>
<text text-anchor="start" x="847.3862" y="-225.8" font-family="Helvetica,sans-Serif" font-size="11.00" fill="#000000"> &#160;</text>
</a>
</g>
</g>
<!-- court_appearance_movement&#45;&gt;court_appearance -->
<g id="edge8" class="edge">
<title>court_appearance_movement:w&#45;&gt;court_appearance:e</title>
<path fill="none" stroke="#000000" d="M604.9862,-246.8003C567.2974,-241.9054 555.6505,-218.7 511,-218.7"/>
<polygon fill="#000000" stroke="#000000" points="611.5153,-247.205 619.2772,-251.2931 615.5077,-247.4525 619.5,-247.7 619.5,-247.7 619.5,-247.7 615.5077,-247.4525 619.7228,-244.1069 611.5153,-247.205 611.5153,-247.205"/>
<ellipse fill="none" stroke="#000000" cx="608.3215" cy="-247.007" rx="3.2" ry="3.2"/>
</g>
<!-- court_appearance_movement&#45;&gt;person_summary -->
<g id="edge9" class="edge">
<title>court_appearance_movement:w&#45;&gt;person_summary:e</title>
<path fill="none" stroke="#000000" d="M605.3028,-250.4756C596.7088,-254.2682 591.4599,-260.9161 578,-263.7 414.4398,-297.529 369.522,-278.7 202.5,-278.7"/>
<polygon fill="#000000" stroke="#000000" points="611.6486,-249.235 620.1908,-251.2331 615.5743,-248.4675 619.5,-247.7 619.5,-247.7 619.5,-247.7 615.5743,-248.4675 618.8092,-244.1669 611.6486,-249.235 611.6486,-249.235"/>
<ellipse fill="none" stroke="#000000" cx="608.5081" cy="-249.849" rx="3.2" ry="3.2"/>
</g>
<!-- court_appearance_movement_audit -->
<g id="node8" class="node">
<title>court_appearance_movement_audit</title>
<g id="a_node8"><a xlink:href="../../tables/court_appearance_movement_audit.html" xlink:title="court_appearance_movement_audit" target="_top">
<polygon fill="#ffffff" stroke="transparent" points="292,-302.2 292,-429.2 570,-429.2 570,-302.2 292,-302.2"/>
<polygon fill="#f5f5f5" stroke="transparent" points="292,-405.7 292,-428.7 570,-428.7 570,-405.7 292,-405.7"/>
<polygon fill="none" stroke="#000000" points="292,-405.7 292,-428.7 570,-428.7 570,-405.7 292,-405.7"/>
<text text-anchor="start" x="297" y="-414.3" font-family="Helvetica,sans-Serif" font-weight="bold" font-size="11.00" fill="#000000">court_appearance_movement_audit</text>
<text text-anchor="start" x="535.5219" y="-413.8" font-family="Helvetica,sans-Serif" font-size="11.00" fill="#000000">[table]</text>
<polygon fill="none" stroke="#000000" points="292,-383.7 292,-405.7 570,-405.7 570,-383.7 292,-383.7"/>
<image xlink:href="../../images/primaryKeys.png" width="11px" height="12px" preserveAspectRatio="xMinYMin meet" x="297" y="-400.7"/>
<text text-anchor="start" x="321" y="-390.8" font-family="Helvetica,sans-Serif" font-size="11.00" fill="#000000">rev_id</text>
<polygon fill="none" stroke="#000000" points="292,-361.7 292,-383.7 570,-383.7 570,-361.7 292,-361.7"/>
<image xlink:href="../../images/primaryKeys.png" width="11px" height="12px" preserveAspectRatio="xMinYMin meet" x="297" y="-378.7"/>
<text text-anchor="start" x="321" y="-368.8" font-family="Helvetica,sans-Serif" font-size="11.00" fill="#000000">id</text>
<polygon fill="none" stroke="#000000" points="292,-339.7 292,-361.7 570,-361.7 570,-339.7 292,-339.7"/>
<image xlink:href="../../images/foreignKeys.png" width="11px" height="12px" preserveAspectRatio="xMinYMin meet" x="297" y="-356.7"/>
<text text-anchor="start" x="321" y="-346.8" font-family="Helvetica,sans-Serif" font-size="11.00" fill="#000000">person_identifier</text>
<polygon fill="none" stroke="#000000" points="292,-320.7 292,-339.7 570,-339.7 570,-320.7 292,-320.7"/>
<text text-anchor="start" x="295" y="-326.8" font-family="Helvetica,sans-Serif" font-size="11.00" fill="#000000">...</text>
<polygon fill="#ffffff" stroke="transparent" points="292,-301.7 292,-320.7 429,-320.7 429,-301.7 292,-301.7"/>
<polygon fill="none" stroke="#000000" points="292,-301.7 292,-320.7 429,-320.7 429,-301.7 292,-301.7"/>
<text text-anchor="start" x="295" y="-307.8" font-family="Helvetica,sans-Serif" font-size="11.00" fill="#000000">&lt; 2</text>
<polygon fill="#ffffff" stroke="transparent" points="429,-301.7 429,-320.7 499,-320.7 499,-301.7 429,-301.7"/>
<polygon fill="none" stroke="#000000" points="429,-301.7 429,-320.7 499,-320.7 499,-301.7 429,-301.7"/>
<text text-anchor="start" x="489.8862" y="-307.8" font-family="Helvetica,sans-Serif" font-size="11.00" fill="#000000"> &#160;</text>
<polygon fill="#ffffff" stroke="transparent" points="499,-301.7 499,-320.7 570,-320.7 570,-301.7 499,-301.7"/>
<polygon fill="none" stroke="#000000" points="499,-301.7 499,-320.7 570,-320.7 570,-301.7 499,-301.7"/>
<text text-anchor="start" x="560.8862" y="-307.8" font-family="Helvetica,sans-Serif" font-size="11.00" fill="#000000"> &#160;</text>
</a>
</g>
</g>
<!-- court_appearance_movement_audit&#45;&gt;audit_revision -->
<g id="edge11" class="edge">
<title>court_appearance_movement_audit:w&#45;&gt;audit_revision:e</title>
<path fill="none" stroke="#000000" d="M277.8722,-398.6499C251.4433,-417.6468 286.8618,-498.7 241.5,-498.7"/>
<polygon fill="#000000" stroke="#000000" points="284.2955,-396.8541 292.9694,-398.167 288.1477,-395.7771 292,-394.7 292,-394.7 292,-394.7 288.1477,-395.7771 291.0306,-391.233 284.2955,-396.8541 284.2955,-396.8541"/>
<ellipse fill="none" stroke="#000000" cx="281.2136" cy="-397.7158" rx="3.2" ry="3.2"/>
</g>
<!-- court_appearance_movement_audit&#45;&gt;person_summary -->
<g id="edge10" class="edge">
<title>court_appearance_movement_audit:w&#45;&gt;person_summary:e</title>
<path fill="none" stroke="#000000" stroke-dasharray="5,2" d="M277.3666,-348.3044C242.9438,-335.8113 247.9679,-278.7 202.5,-278.7"/>
<polygon fill="#000000" stroke="#000000" points="284.1051,-349.4075 291.4184,-354.2527 288.0525,-350.0538 292,-350.7 292,-350.7 292,-350.7 288.0525,-350.0538 292.5816,-347.1473 284.1051,-349.4075 284.1051,-349.4075"/>
<ellipse fill="none" stroke="#000000" cx="280.9471" cy="-348.8905" rx="3.2" ry="3.2"/>
</g>
</g>
</svg>
