<?xml version="1.0" encoding="UTF-8" standalone="no"?>
<!DOCTYPE svg PUBLIC "-//W3C//DTD SVG 1.1//EN"
 "http://www.w3.org/Graphics/SVG/1.1/DTD/svg11.dtd">
<!-- Generated by graphviz version 2.40.1 (20161225.0304)
 -->
<!-- Title: oneDegreeRelationshipsDiagramImplied Pages: 1 -->
<svg width="809pt" height="559pt"
 viewBox="0.00 0.00 809.00 559.49" xmlns="http://www.w3.org/2000/svg" xmlns:xlink="http://www.w3.org/1999/xlink">
<g id="graph0" class="graph" transform="scale(1 1) rotate(0) translate(4 555.4928)">
<title>oneDegreeRelationshipsDiagramImplied</title>
<polygon fill="#ffffff" stroke="transparent" points="-4,4 -4,-555.4928 805,-555.4928 805,4 -4,4"/>
<text text-anchor="middle" x="72.4936" y="-7.3" font-family="Helvetica,sans-Serif" font-size="11.00" fill="#000000">Generated by SchemaSpy</text>
<!-- court_appearance -->
<g id="node1" class="node">
<title>court_appearance</title>
<g id="a_node1"><a xlink:href="../../tables/court_appearance.html" xlink:title="court_appearance" target="_top">
<polygon fill="#ffffff" stroke="transparent" points="268,-201.7 268,-511.7 507,-511.7 507,-201.7 268,-201.7"/>
<polygon fill="#f5f5f5" stroke="transparent" points="270.5,-486.7 270.5,-509.7 505.5,-509.7 505.5,-486.7 270.5,-486.7"/>
<polygon fill="none" stroke="#000000" points="270.5,-486.7 270.5,-509.7 505.5,-509.7 505.5,-486.7 270.5,-486.7"/>
<text text-anchor="start" x="275.5" y="-495.3" font-family="Helvetica,sans-Serif" font-weight="bold" font-size="11.00" fill="#000000">court_appearance</text>
<text text-anchor="start" x="470.5437" y="-494.8" font-family="Helvetica,sans-Serif" font-size="11.00" fill="#000000">[table]</text>
<polygon fill="none" stroke="#000000" points="270.5,-464.7 270.5,-486.7 411.5,-486.7 411.5,-464.7 270.5,-464.7"/>
<image xlink:href="../../images/primaryKeys.png" width="11px" height="12px" preserveAspectRatio="xMinYMin meet" x="275.5" y="-481.7"/>
<text text-anchor="start" x="290.5" y="-471.8" font-family="Helvetica,sans-Serif" font-size="11.00" fill="#000000">id</text>
<polygon fill="none" stroke="#000000" points="411.5,-464.7 411.5,-486.7 505.5,-486.7 505.5,-464.7 411.5,-464.7"/>
<text text-anchor="start" x="414.4758" y="-472.4" font-family="Helvetica,sans-Serif" font-size="11.00" fill="#000000">uuid[2147483647]</text>
<polygon fill="none" stroke="#000000" points="270.5,-442.7 270.5,-464.7 411.5,-464.7 411.5,-442.7 270.5,-442.7"/>
<text text-anchor="start" x="290.5" y="-449.8" font-family="Helvetica,sans-Serif" font-size="11.00" fill="#000000">version</text>
<polygon fill="none" stroke="#000000" points="411.5,-442.7 411.5,-464.7 505.5,-464.7 505.5,-442.7 411.5,-442.7"/>
<text text-anchor="start" x="414.5" y="-450.4" font-family="Helvetica,sans-Serif" font-size="11.00" fill="#000000">int4[10]</text>
<polygon fill="#ffffff" stroke="transparent" points="270.5,-420.7 270.5,-442.7 411.5,-442.7 411.5,-420.7 270.5,-420.7"/>
<polygon fill="none" stroke="#000000" points="270.5,-420.7 270.5,-442.7 411.5,-442.7 411.5,-420.7 270.5,-420.7"/>
<image xlink:href="../../images/foreignKeys.png" width="11px" height="12px" preserveAspectRatio="xMinYMin meet" x="275.5" y="-437.7"/>
<text text-anchor="start" x="290.5" y="-427.8" font-family="Helvetica,sans-Serif" font-size="11.00" fill="#000000">person_identifier</text>
<polygon fill="none" stroke="#000000" points="411.5,-420.7 411.5,-442.7 505.5,-442.7 505.5,-420.7 411.5,-420.7"/>
<text text-anchor="start" x="414.5" y="-428.4" font-family="Helvetica,sans-Serif" font-size="11.00" fill="#000000">varchar[10]</text>
<polygon fill="#ffffff" stroke="transparent" points="270.5,-398.7 270.5,-420.7 411.5,-420.7 411.5,-398.7 270.5,-398.7"/>
<polygon fill="none" stroke="#000000" points="270.5,-398.7 270.5,-420.7 411.5,-420.7 411.5,-398.7 270.5,-398.7"/>
<text text-anchor="start" x="290.5" y="-405.8" font-family="Helvetica,sans-Serif" font-size="11.00" fill="#000000">prison_code</text>
<polygon fill="none" stroke="#000000" points="411.5,-398.7 411.5,-420.7 505.5,-420.7 505.5,-398.7 411.5,-398.7"/>
<text text-anchor="start" x="414.5" y="-406.4" font-family="Helvetica,sans-Serif" font-size="11.00" fill="#000000">varchar[6]</text>
<polygon fill="none" stroke="#000000" points="270.5,-376.7 270.5,-398.7 411.5,-398.7 411.5,-376.7 270.5,-376.7"/>
<text text-anchor="start" x="290.5" y="-383.8" font-family="Helvetica,sans-Serif" font-size="11.00" fill="#000000">court_code</text>
<polygon fill="none" stroke="#000000" points="411.5,-376.7 411.5,-398.7 505.5,-398.7 505.5,-376.7 411.5,-376.7"/>
<text text-anchor="start" x="414.5" y="-384.4" font-family="Helvetica,sans-Serif" font-size="11.00" fill="#000000">varchar[6]</text>
<polygon fill="#ffffff" stroke="transparent" points="270.5,-354.7 270.5,-376.7 411.5,-376.7 411.5,-354.7 270.5,-354.7"/>
<polygon fill="none" stroke="#000000" points="270.5,-354.7 270.5,-376.7 411.5,-376.7 411.5,-354.7 270.5,-354.7"/>
<image xlink:href="../../images/foreignKeys.png" width="11px" height="12px" preserveAspectRatio="xMinYMin meet" x="275.5" y="-371.7"/>
<text text-anchor="start" x="290.5" y="-361.8" font-family="Helvetica,sans-Serif" font-size="11.00" fill="#000000">reason_id</text>
<polygon fill="none" stroke="#000000" points="411.5,-354.7 411.5,-376.7 505.5,-376.7 505.5,-354.7 411.5,-354.7"/>
<text text-anchor="start" x="414.4758" y="-362.4" font-family="Helvetica,sans-Serif" font-size="11.00" fill="#000000">uuid[2147483647]</text>
<polygon fill="none" stroke="#000000" points="270.5,-332.7 270.5,-354.7 411.5,-354.7 411.5,-332.7 270.5,-332.7"/>
<text text-anchor="start" x="290.5" y="-339.8" font-family="Helvetica,sans-Serif" font-size="11.00" fill="#000000">external</text>
<polygon fill="none" stroke="#000000" points="411.5,-332.7 411.5,-354.7 505.5,-354.7 505.5,-332.7 411.5,-332.7"/>
<text text-anchor="start" x="414.5" y="-340.4" font-family="Helvetica,sans-Serif" font-size="11.00" fill="#000000">bool[1]</text>
<polygon fill="#ffffff" stroke="transparent" points="270.5,-310.7 270.5,-332.7 411.5,-332.7 411.5,-310.7 270.5,-310.7"/>
<polygon fill="none" stroke="#000000" points="270.5,-310.7 270.5,-332.7 411.5,-332.7 411.5,-310.7 270.5,-310.7"/>
<image xlink:href="../../images/foreignKeys.png" width="11px" height="12px" preserveAspectRatio="xMinYMin meet" x="275.5" y="-327.7"/>
<text text-anchor="start" x="290.5" y="-317.8" font-family="Helvetica,sans-Serif" font-size="11.00" fill="#000000">status_id</text>
<polygon fill="none" stroke="#000000" points="411.5,-310.7 411.5,-332.7 505.5,-332.7 505.5,-310.7 411.5,-310.7"/>
<text text-anchor="start" x="414.4758" y="-318.4" font-family="Helvetica,sans-Serif" font-size="11.00" fill="#000000">uuid[2147483647]</text>
<polygon fill="#ffffff" stroke="transparent" points="270.5,-288.7 270.5,-310.7 411.5,-310.7 411.5,-288.7 270.5,-288.7"/>
<polygon fill="none" stroke="#000000" points="270.5,-288.7 270.5,-310.7 411.5,-310.7 411.5,-288.7 270.5,-288.7"/>
<text text-anchor="start" x="290.5" y="-295.8" font-family="Helvetica,sans-Serif" font-size="11.00" fill="#000000">start</text>
<polygon fill="none" stroke="#000000" points="411.5,-288.7 411.5,-310.7 505.5,-310.7 505.5,-288.7 411.5,-288.7"/>
<text text-anchor="start" x="414.5" y="-296.4" font-family="Helvetica,sans-Serif" font-size="11.00" fill="#000000">timestamp[29,6]</text>
<polygon fill="none" stroke="#000000" points="270.5,-266.7 270.5,-288.7 411.5,-288.7 411.5,-266.7 270.5,-266.7"/>
<text text-anchor="start" x="290.5" y="-273.8" font-family="Helvetica,sans-Serif" font-size="11.00" fill="#000000">end</text>
<polygon fill="none" stroke="#000000" points="411.5,-266.7 411.5,-288.7 505.5,-288.7 505.5,-266.7 411.5,-266.7"/>
<text text-anchor="start" x="414.5" y="-274.4" font-family="Helvetica,sans-Serif" font-size="11.00" fill="#000000">timestamp[29,6]</text>
<polygon fill="none" stroke="#000000" points="270.5,-244.7 270.5,-266.7 411.5,-266.7 411.5,-244.7 270.5,-244.7"/>
<text text-anchor="start" x="290.5" y="-251.8" font-family="Helvetica,sans-Serif" font-size="11.00" fill="#000000">comments</text>
<polygon fill="none" stroke="#000000" points="411.5,-244.7 411.5,-266.7 505.5,-266.7 505.5,-244.7 411.5,-244.7"/>
<text text-anchor="start" x="414.5" y="-252.4" font-family="Helvetica,sans-Serif" font-size="11.00" fill="#000000">text[2147483647]</text>
<polygon fill="#ffffff" stroke="transparent" points="270.5,-222.7 270.5,-244.7 411.5,-244.7 411.5,-222.7 270.5,-222.7"/>
<polygon fill="none" stroke="#000000" points="270.5,-222.7 270.5,-244.7 411.5,-244.7 411.5,-222.7 270.5,-222.7"/>
<image xlink:href="../../images/foreignKeys.png" width="11px" height="12px" preserveAspectRatio="xMinYMin meet" x="275.5" y="-239.7"/>
<text text-anchor="start" x="290.5" y="-229.8" font-family="Helvetica,sans-Serif" font-size="11.00" fill="#000000">legacy_id</text>
<polygon fill="none" stroke="#000000" points="411.5,-222.7 411.5,-244.7 505.5,-244.7 505.5,-222.7 411.5,-222.7"/>
<text text-anchor="start" x="414.5" y="-230.4" font-family="Helvetica,sans-Serif" font-size="11.00" fill="#000000">int8[19]</text>
<polygon fill="#ffffff" stroke="transparent" points="270.5,-203.7 270.5,-222.7 345.5,-222.7 345.5,-203.7 270.5,-203.7"/>
<polygon fill="none" stroke="#000000" points="270.5,-203.7 270.5,-222.7 345.5,-222.7 345.5,-203.7 270.5,-203.7"/>
<text text-anchor="start" x="273.5" y="-209.8" font-family="Helvetica,sans-Serif" font-size="11.00" fill="#000000">&lt; 4</text>
<polygon fill="#ffffff" stroke="transparent" points="345.5,-203.7 345.5,-222.7 411.5,-222.7 411.5,-203.7 345.5,-203.7"/>
<polygon fill="none" stroke="#000000" points="345.5,-203.7 345.5,-222.7 411.5,-222.7 411.5,-203.7 345.5,-203.7"/>
<text text-anchor="start" x="402.3862" y="-209.8" font-family="Helvetica,sans-Serif" font-size="11.00" fill="#000000"> &#160;</text>
<polygon fill="#ffffff" stroke="transparent" points="411.5,-203.7 411.5,-222.7 505.5,-222.7 505.5,-203.7 411.5,-203.7"/>
<polygon fill="none" stroke="#000000" points="411.5,-203.7 411.5,-222.7 505.5,-222.7 505.5,-203.7 411.5,-203.7"/>
<text text-anchor="start" x="486.9053" y="-209.8" font-family="Helvetica,sans-Serif" font-size="11.00" fill="#000000">1 &gt;</text>
<polygon fill="none" stroke="#000000" stroke-width="2" points="269,-202.7 269,-510.7 506,-510.7 506,-202.7 269,-202.7"/>
</a>
</g>
</g>
<!-- audit_revision -->
<g id="node2" class="node">
<title>audit_revision</title>
<g id="a_node2"><a xlink:href="../../tables/audit_revision.html" xlink:title="audit_revision" target="_top">
<polygon fill="#ffffff" stroke="transparent" points="46.5,-38.2 46.5,-121.2 180.5,-121.2 180.5,-38.2 46.5,-38.2"/>
<polygon fill="#f5f5f5" stroke="transparent" points="46.5,-97.7 46.5,-120.7 180.5,-120.7 180.5,-97.7 46.5,-97.7"/>
<polygon fill="none" stroke="#000000" points="46.5,-97.7 46.5,-120.7 180.5,-120.7 180.5,-97.7 46.5,-97.7"/>
<text text-anchor="start" x="51.5" y="-106.3" font-family="Helvetica,sans-Serif" font-weight="bold" font-size="11.00" fill="#000000">audit_revision</text>
<text text-anchor="start" x="146.0219" y="-105.8" font-family="Helvetica,sans-Serif" font-size="11.00" fill="#000000">[table]</text>
<polygon fill="none" stroke="#000000" points="46.5,-75.7 46.5,-97.7 180.5,-97.7 180.5,-75.7 46.5,-75.7"/>
<image xlink:href="../../images/primaryKeys.png" width="11px" height="12px" preserveAspectRatio="xMinYMin meet" x="51.5" y="-92.7"/>
<text text-anchor="start" x="66.5" y="-82.8" font-family="Helvetica,sans-Serif" font-size="11.00" fill="#000000">id</text>
<polygon fill="none" stroke="#000000" points="46.5,-56.7 46.5,-75.7 180.5,-75.7 180.5,-56.7 46.5,-56.7"/>
<text text-anchor="start" x="49.5" y="-62.8" font-family="Helvetica,sans-Serif" font-size="11.00" fill="#000000">...</text>
<polygon fill="#ffffff" stroke="transparent" points="46.5,-37.7 46.5,-56.7 102.5,-56.7 102.5,-37.7 46.5,-37.7"/>
<polygon fill="none" stroke="#000000" points="46.5,-37.7 46.5,-56.7 102.5,-56.7 102.5,-37.7 46.5,-37.7"/>
<text text-anchor="start" x="49.5" y="-43.8" font-family="Helvetica,sans-Serif" font-size="11.00" fill="#000000"> &#160;</text>
<polygon fill="#ffffff" stroke="transparent" points="102.5,-37.7 102.5,-56.7 136.5,-56.7 136.5,-37.7 102.5,-37.7"/>
<polygon fill="none" stroke="#000000" points="102.5,-37.7 102.5,-56.7 136.5,-56.7 136.5,-37.7 102.5,-37.7"/>
<text text-anchor="start" x="127.3862" y="-43.8" font-family="Helvetica,sans-Serif" font-size="11.00" fill="#000000"> &#160;</text>
<polygon fill="#ffffff" stroke="transparent" points="136.5,-37.7 136.5,-56.7 180.5,-56.7 180.5,-37.7 136.5,-37.7"/>
<polygon fill="none" stroke="#000000" points="136.5,-37.7 136.5,-56.7 180.5,-56.7 180.5,-37.7 136.5,-37.7"/>
<text text-anchor="start" x="161.9053" y="-43.8" font-family="Helvetica,sans-Serif" font-size="11.00" fill="#000000">4 &gt;</text>
</a>
</g>
</g>
<!-- court_appearance&#45;&gt;audit_revision -->
<g id="edge1" class="edge">
<title>court_appearance:w&#45;&gt;audit_revision:e</title>
<path fill="none" stroke="#000000" stroke-dasharray="5,2" d="M259.9672,-232.506C226.3322,-223.7676 252.6365,-168.9762 227,-131.7 210.703,-108.0036 209.2595,-86.7 180.5,-86.7"/>
<polygon fill="#000000" stroke="#000000" points="270.1557,-229.6353 269.2545,-237.5844 267.6647,-237.4042 268.5659,-229.4551 270.1557,-229.6353"/>
<polyline fill="none" stroke="#000000" points="270.5,-233.7 266.5255,-233.2494 "/>
<ellipse fill="none" stroke="#000000" cx="263.3458" cy="-232.8889" rx="3.2" ry="3.2"/>
</g>
<!-- person_summary -->
<g id="node3" class="node">
<title>person_summary</title>
<g id="a_node3"><a xlink:href="../../tables/person_summary.html" xlink:title="person_summary" target="_top">
<polygon fill="#ffffff" stroke="transparent" points="36.5,-454.2 36.5,-537.2 190.5,-537.2 190.5,-454.2 36.5,-454.2"/>
<polygon fill="#f5f5f5" stroke="transparent" points="36.5,-513.7 36.5,-536.7 190.5,-536.7 190.5,-513.7 36.5,-513.7"/>
<polygon fill="none" stroke="#000000" points="36.5,-513.7 36.5,-536.7 190.5,-536.7 190.5,-513.7 36.5,-513.7"/>
<text text-anchor="start" x="41.5" y="-522.3" font-family="Helvetica,sans-Serif" font-weight="bold" font-size="11.00" fill="#000000">person_summary</text>
<text text-anchor="start" x="156.0219" y="-521.8" font-family="Helvetica,sans-Serif" font-size="11.00" fill="#000000">[table]</text>
<polygon fill="none" stroke="#000000" points="36.5,-491.7 36.5,-513.7 190.5,-513.7 190.5,-491.7 36.5,-491.7"/>
<image xlink:href="../../images/primaryKeys.png" width="11px" height="12px" preserveAspectRatio="xMinYMin meet" x="41.5" y="-508.7"/>
<text text-anchor="start" x="65.5" y="-498.8" font-family="Helvetica,sans-Serif" font-size="11.00" fill="#000000">person_identifier</text>
<polygon fill="none" stroke="#000000" points="36.5,-472.7 36.5,-491.7 190.5,-491.7 190.5,-472.7 36.5,-472.7"/>
<text text-anchor="start" x="39.5" y="-478.8" font-family="Helvetica,sans-Serif" font-size="11.00" fill="#000000">...</text>
<polygon fill="#ffffff" stroke="transparent" points="36.5,-453.7 36.5,-472.7 102.5,-472.7 102.5,-453.7 36.5,-453.7"/>
<polygon fill="none" stroke="#000000" points="36.5,-453.7 36.5,-472.7 102.5,-472.7 102.5,-453.7 36.5,-453.7"/>
<text text-anchor="start" x="39.5" y="-459.8" font-family="Helvetica,sans-Serif" font-size="11.00" fill="#000000"> &#160;</text>
<polygon fill="#ffffff" stroke="transparent" points="102.5,-453.7 102.5,-472.7 141.5,-472.7 141.5,-453.7 102.5,-453.7"/>
<polygon fill="none" stroke="#000000" points="102.5,-453.7 102.5,-472.7 141.5,-472.7 141.5,-453.7 102.5,-453.7"/>
<text text-anchor="start" x="132.3862" y="-459.8" font-family="Helvetica,sans-Serif" font-size="11.00" fill="#000000"> &#160;</text>
<polygon fill="#ffffff" stroke="transparent" points="141.5,-453.7 141.5,-472.7 190.5,-472.7 190.5,-453.7 141.5,-453.7"/>
<polygon fill="none" stroke="#000000" points="141.5,-453.7 141.5,-472.7 190.5,-472.7 190.5,-453.7 141.5,-453.7"/>
<text text-anchor="start" x="171.9053" y="-459.8" font-family="Helvetica,sans-Serif" font-size="11.00" fill="#000000">2 &gt;</text>
</a>
</g>
</g>
<!-- court_appearance&#45;&gt;person_summary -->
<g id="edge2" class="edge">
<title>court_appearance:w&#45;&gt;person_summary:e</title>
<path fill="none" stroke="#000000" d="M256.1653,-434.3966C225.635,-447.3656 232.468,-502.7 190.5,-502.7"/>
<polygon fill="#000000" stroke="#000000" points="262.6379,-433.179 271.1656,-435.2379 266.5689,-432.4395 270.5,-431.7 270.5,-431.7 270.5,-431.7 266.5689,-432.4395 269.8344,-428.1621 262.6379,-433.179 262.6379,-433.179"/>
<ellipse fill="none" stroke="#000000" cx="259.4931" cy="-433.7706" rx="3.2" ry="3.2"/>
</g>
<!-- court_appearance_reason -->
<g id="node4" class="node">
<title>court_appearance_reason</title>
<g id="a_node4"><a xlink:href="../../tables/court_appearance_reason.html" xlink:title="court_appearance_reason" target="_top">
<polygon fill="#ffffff" stroke="transparent" points="8,-290.2 8,-417.2 219,-417.2 219,-290.2 8,-290.2"/>
<polygon fill="#f5f5f5" stroke="transparent" points="8.5,-393.7 8.5,-416.7 219.5,-416.7 219.5,-393.7 8.5,-393.7"/>
<polygon fill="none" stroke="#000000" points="8.5,-393.7 8.5,-416.7 219.5,-416.7 219.5,-393.7 8.5,-393.7"/>
<text text-anchor="start" x="13.5" y="-402.3" font-family="Helvetica,sans-Serif" font-weight="bold" font-size="11.00" fill="#000000">court_appearance_reason</text>
<text text-anchor="start" x="185.0219" y="-401.8" font-family="Helvetica,sans-Serif" font-size="11.00" fill="#000000">[table]</text>
<polygon fill="none" stroke="#000000" points="8.5,-371.7 8.5,-393.7 219.5,-393.7 219.5,-371.7 8.5,-371.7"/>
<image xlink:href="../../images/primaryKeys.png" width="11px" height="12px" preserveAspectRatio="xMinYMin meet" x="13.5" y="-388.7"/>
<text text-anchor="start" x="37.5" y="-378.8" font-family="Helvetica,sans-Serif" font-size="11.00" fill="#000000">id</text>
<polygon fill="#ffffff" stroke="transparent" points="8.5,-349.7 8.5,-371.7 219.5,-371.7 219.5,-349.7 8.5,-349.7"/>
<polygon fill="none" stroke="#000000" points="8.5,-349.7 8.5,-371.7 219.5,-371.7 219.5,-349.7 8.5,-349.7"/>
<text text-anchor="start" x="37.5" y="-356.8" font-family="Helvetica,sans-Serif" font-size="11.00" fill="#000000">code</text>
<polygon fill="#ffffff" stroke="transparent" points="8.5,-327.7 8.5,-349.7 219.5,-349.7 219.5,-327.7 8.5,-327.7"/>
<polygon fill="none" stroke="#000000" points="8.5,-327.7 8.5,-349.7 219.5,-349.7 219.5,-327.7 8.5,-327.7"/>
<text text-anchor="start" x="37.5" y="-334.8" font-family="Helvetica,sans-Serif" font-size="11.00" fill="#000000">sequence_number</text>
<polygon fill="none" stroke="#000000" points="8.5,-308.7 8.5,-327.7 219.5,-327.7 219.5,-308.7 8.5,-308.7"/>
<text text-anchor="start" x="11.5" y="-314.8" font-family="Helvetica,sans-Serif" font-size="11.00" fill="#000000">...</text>
<polygon fill="#ffffff" stroke="transparent" points="8.5,-289.7 8.5,-308.7 103.5,-308.7 103.5,-289.7 8.5,-289.7"/>
<polygon fill="none" stroke="#000000" points="8.5,-289.7 8.5,-308.7 103.5,-308.7 103.5,-289.7 8.5,-289.7"/>
<text text-anchor="start" x="11.5" y="-295.8" font-family="Helvetica,sans-Serif" font-size="11.00" fill="#000000"> &#160;</text>
<polygon fill="#ffffff" stroke="transparent" points="103.5,-289.7 103.5,-308.7 156.5,-308.7 156.5,-289.7 103.5,-289.7"/>
<polygon fill="none" stroke="#000000" points="103.5,-289.7 103.5,-308.7 156.5,-308.7 156.5,-289.7 103.5,-289.7"/>
<text text-anchor="start" x="147.3862" y="-295.8" font-family="Helvetica,sans-Serif" font-size="11.00" fill="#000000"> &#160;</text>
<polygon fill="#ffffff" stroke="transparent" points="156.5,-289.7 156.5,-308.7 219.5,-308.7 219.5,-289.7 156.5,-289.7"/>
<polygon fill="none" stroke="#000000" points="156.5,-289.7 156.5,-308.7 219.5,-308.7 219.5,-289.7 156.5,-289.7"/>
<text text-anchor="start" x="200.9053" y="-295.8" font-family="Helvetica,sans-Serif" font-size="11.00" fill="#000000">2 &gt;</text>
</a>
</g>
</g>
<!-- court_appearance&#45;&gt;court_appearance_reason -->
<g id="edge3" class="edge">
<title>court_appearance:w&#45;&gt;court_appearance_reason:e</title>
<path fill="none" stroke="#000000" d="M256.1916,-368.2084C243.8373,-372.9372 237.6062,-382.7 219.5,-382.7"/>
<polygon fill="#000000" stroke="#000000" points="262.6202,-367.0815 271.1217,-369.2459 266.5601,-366.3907 270.5,-365.7 270.5,-365.7 270.5,-365.7 266.5601,-366.3907 269.8783,-362.1541 262.6202,-367.0815 262.6202,-367.0815"/>
<ellipse fill="none" stroke="#000000" cx="259.4682" cy="-367.634" rx="3.2" ry="3.2"/>
</g>
<!-- court_appearance_status -->
<g id="node5" class="node">
<title>court_appearance_status</title>
<g id="a_node5"><a xlink:href="../../tables/court_appearance_status.html" xlink:title="court_appearance_status" target="_top">
<polygon fill="#ffffff" stroke="transparent" points="9.5,-142.2 9.5,-269.2 217.5,-269.2 217.5,-142.2 9.5,-142.2"/>
<polygon fill="#f5f5f5" stroke="transparent" points="9.5,-245.7 9.5,-268.7 217.5,-268.7 217.5,-245.7 9.5,-245.7"/>
<polygon fill="none" stroke="#000000" points="9.5,-245.7 9.5,-268.7 217.5,-268.7 217.5,-245.7 9.5,-245.7"/>
<text text-anchor="start" x="14.5" y="-254.3" font-family="Helvetica,sans-Serif" font-weight="bold" font-size="11.00" fill="#000000">court_appearance_status</text>
<text text-anchor="start" x="183.0219" y="-253.8" font-family="Helvetica,sans-Serif" font-size="11.00" fill="#000000">[table]</text>
<polygon fill="none" stroke="#000000" points="9.5,-223.7 9.5,-245.7 217.5,-245.7 217.5,-223.7 9.5,-223.7"/>
<image xlink:href="../../images/primaryKeys.png" width="11px" height="12px" preserveAspectRatio="xMinYMin meet" x="14.5" y="-240.7"/>
<text text-anchor="start" x="38.5" y="-230.8" font-family="Helvetica,sans-Serif" font-size="11.00" fill="#000000">id</text>
<polygon fill="#ffffff" stroke="transparent" points="9.5,-201.7 9.5,-223.7 217.5,-223.7 217.5,-201.7 9.5,-201.7"/>
<polygon fill="none" stroke="#000000" points="9.5,-201.7 9.5,-223.7 217.5,-223.7 217.5,-201.7 9.5,-201.7"/>
<text text-anchor="start" x="38.5" y="-208.8" font-family="Helvetica,sans-Serif" font-size="11.00" fill="#000000">code</text>
<polygon fill="#ffffff" stroke="transparent" points="9.5,-179.7 9.5,-201.7 217.5,-201.7 217.5,-179.7 9.5,-179.7"/>
<polygon fill="none" stroke="#000000" points="9.5,-179.7 9.5,-201.7 217.5,-201.7 217.5,-179.7 9.5,-179.7"/>
<text text-anchor="start" x="38.5" y="-186.8" font-family="Helvetica,sans-Serif" font-size="11.00" fill="#000000">sequence_number</text>
<polygon fill="none" stroke="#000000" points="9.5,-160.7 9.5,-179.7 217.5,-179.7 217.5,-160.7 9.5,-160.7"/>
<text text-anchor="start" x="12.5" y="-166.8" font-family="Helvetica,sans-Serif" font-size="11.00" fill="#000000">...</text>
<polygon fill="#ffffff" stroke="transparent" points="9.5,-141.7 9.5,-160.7 102.5,-160.7 102.5,-141.7 9.5,-141.7"/>
<polygon fill="none" stroke="#000000" points="9.5,-141.7 9.5,-160.7 102.5,-160.7 102.5,-141.7 9.5,-141.7"/>
<text text-anchor="start" x="12.5" y="-147.8" font-family="Helvetica,sans-Serif" font-size="11.00" fill="#000000"> &#160;</text>
<polygon fill="#ffffff" stroke="transparent" points="102.5,-141.7 102.5,-160.7 155.5,-160.7 155.5,-141.7 102.5,-141.7"/>
<polygon fill="none" stroke="#000000" points="102.5,-141.7 102.5,-160.7 155.5,-160.7 155.5,-141.7 102.5,-141.7"/>
<text text-anchor="start" x="146.3862" y="-147.8" font-family="Helvetica,sans-Serif" font-size="11.00" fill="#000000"> &#160;</text>
<polygon fill="#ffffff" stroke="transparent" points="155.5,-141.7 155.5,-160.7 217.5,-160.7 217.5,-141.7 155.5,-141.7"/>
<polygon fill="none" stroke="#000000" points="155.5,-141.7 155.5,-160.7 217.5,-160.7 217.5,-141.7 155.5,-141.7"/>
<text text-anchor="start" x="198.9053" y="-147.8" font-family="Helvetica,sans-Serif" font-size="11.00" fill="#000000">1 &gt;</text>
</a>
</g>
</g>
<!-- court_appearance&#45;&gt;court_appearance_status -->
<g id="edge4" class="edge">
<title>court_appearance:w&#45;&gt;court_appearance_status:e</title>
<path fill="none" stroke="#000000" d="M256.4551,-317.5038C233.7374,-300.1252 256.7633,-234.7 217.5,-234.7"/>
<polygon fill="#000000" stroke="#000000" points="262.8348,-319.4098 269.4694,-325.1493 266.6674,-320.5549 270.5,-321.7 270.5,-321.7 270.5,-321.7 266.6674,-320.5549 271.5306,-318.2507 262.8348,-319.4098 262.8348,-319.4098"/>
<ellipse fill="none" stroke="#000000" cx="259.7687" cy="-318.4938" rx="3.2" ry="3.2"/>
</g>
<!-- court_appearance_movement -->
<g id="node6" class="node">
<title>court_appearance_movement</title>
<g id="a_node6"><a xlink:href="../../tables/court_appearance_movement.html" xlink:title="court_appearance_movement" target="_top">
<polygon fill="#ffffff" stroke="transparent" points="556,-361.2 556,-532.2 793,-532.2 793,-361.2 556,-361.2"/>
<polygon fill="#f5f5f5" stroke="transparent" points="556.5,-508.7 556.5,-531.7 793.5,-531.7 793.5,-508.7 556.5,-508.7"/>
<polygon fill="none" stroke="#000000" points="556.5,-508.7 556.5,-531.7 793.5,-531.7 793.5,-508.7 556.5,-508.7"/>
<text text-anchor="start" x="561.5" y="-517.3" font-family="Helvetica,sans-Serif" font-weight="bold" font-size="11.00" fill="#000000">court_appearance_movement</text>
<text text-anchor="start" x="759.0219" y="-516.8" font-family="Helvetica,sans-Serif" font-size="11.00" fill="#000000">[table]</text>
<polygon fill="none" stroke="#000000" points="556.5,-486.7 556.5,-508.7 793.5,-508.7 793.5,-486.7 556.5,-486.7"/>
<image xlink:href="../../images/primaryKeys.png" width="11px" height="12px" preserveAspectRatio="xMinYMin meet" x="561.5" y="-503.7"/>
<text text-anchor="start" x="585.5" y="-493.8" font-family="Helvetica,sans-Serif" font-size="11.00" fill="#000000">id</text>
<polygon fill="none" stroke="#000000" points="556.5,-464.7 556.5,-486.7 793.5,-486.7 793.5,-464.7 556.5,-464.7"/>
<image xlink:href="../../images/foreignKeys.png" width="11px" height="12px" preserveAspectRatio="xMinYMin meet" x="561.5" y="-481.7"/>
<text text-anchor="start" x="585.5" y="-471.8" font-family="Helvetica,sans-Serif" font-size="11.00" fill="#000000">court_appearance_id</text>
<polygon fill="#ffffff" stroke="transparent" points="556.5,-442.7 556.5,-464.7 793.5,-464.7 793.5,-442.7 556.5,-442.7"/>
<polygon fill="none" stroke="#000000" points="556.5,-442.7 556.5,-464.7 793.5,-464.7 793.5,-442.7 556.5,-442.7"/>
<image xlink:href="../../images/foreignKeys.png" width="11px" height="12px" preserveAspectRatio="xMinYMin meet" x="561.5" y="-459.7"/>
<text text-anchor="start" x="585.5" y="-449.8" font-family="Helvetica,sans-Serif" font-size="11.00" fill="#000000">person_identifier</text>
<polygon fill="none" stroke="#000000" points="556.5,-420.7 556.5,-442.7 793.5,-442.7 793.5,-420.7 556.5,-420.7"/>
<image xlink:href="../../images/foreignKeys.png" width="11px" height="12px" preserveAspectRatio="xMinYMin meet" x="561.5" y="-437.7"/>
<text text-anchor="start" x="585.5" y="-427.8" font-family="Helvetica,sans-Serif" font-size="11.00" fill="#000000">reason_id</text>
<polygon fill="#ffffff" stroke="transparent" points="556.5,-398.7 556.5,-420.7 793.5,-420.7 793.5,-398.7 556.5,-398.7"/>
<polygon fill="none" stroke="#000000" points="556.5,-398.7 556.5,-420.7 793.5,-420.7 793.5,-398.7 556.5,-398.7"/>
<text text-anchor="start" x="585.5" y="-405.8" font-family="Helvetica,sans-Serif" font-size="11.00" fill="#000000">legacy_id</text>
<polygon fill="none" stroke="#000000" points="556.5,-379.7 556.5,-398.7 793.5,-398.7 793.5,-379.7 556.5,-379.7"/>
<text text-anchor="start" x="559.5" y="-385.8" font-family="Helvetica,sans-Serif" font-size="11.00" fill="#000000">...</text>
<polygon fill="#ffffff" stroke="transparent" points="556.5,-360.7 556.5,-379.7 673.5,-379.7 673.5,-360.7 556.5,-360.7"/>
<polygon fill="none" stroke="#000000" points="556.5,-360.7 556.5,-379.7 673.5,-379.7 673.5,-360.7 556.5,-360.7"/>
<text text-anchor="start" x="559.5" y="-366.8" font-family="Helvetica,sans-Serif" font-size="11.00" fill="#000000">&lt; 3</text>
<polygon fill="#ffffff" stroke="transparent" points="673.5,-360.7 673.5,-379.7 733.5,-379.7 733.5,-360.7 673.5,-360.7"/>
<polygon fill="none" stroke="#000000" points="673.5,-360.7 673.5,-379.7 733.5,-379.7 733.5,-360.7 673.5,-360.7"/>
<text text-anchor="start" x="724.3862" y="-366.8" font-family="Helvetica,sans-Serif" font-size="11.00" fill="#000000"> &#160;</text>
<polygon fill="#ffffff" stroke="transparent" points="733.5,-360.7 733.5,-379.7 793.5,-379.7 793.5,-360.7 733.5,-360.7"/>
<polygon fill="none" stroke="#000000" points="733.5,-360.7 733.5,-379.7 793.5,-379.7 793.5,-360.7 733.5,-360.7"/>
<text text-anchor="start" x="784.3862" y="-366.8" font-family="Helvetica,sans-Serif" font-size="11.00" fill="#000000"> &#160;</text>
</a>
</g>
</g>
<!-- court_appearance_movement&#45;&gt;court_appearance -->
<g id="edge5" class="edge">
<title>court_appearance_movement:w&#45;&gt;court_appearance:e</title>
<path fill="none" stroke="#000000" d="M541.776,-475.7C529.7815,-475.7 522.3229,-475.7 505.5,-475.7"/>
<polygon fill="#000000" stroke="#000000" points="548.5,-475.7001 556.5,-479.3 552.5,-475.7 556.5,-475.7 556.5,-475.7 556.5,-475.7 552.5,-475.7 556.5,-472.1 548.5,-475.7001 548.5,-475.7001"/>
<ellipse fill="none" stroke="#000000" cx="545.3" cy="-475.7001" rx="3.2" ry="3.2"/>
</g>
<!-- court_appearance_movement&#45;&gt;person_summary -->
<g id="edge6" class="edge">
<title>court_appearance_movement:w&#45;&gt;person_summary:e</title>
<path fill="none" stroke="#000000" d="M542.4558,-458.1832C528.0281,-471.0761 540.5531,-508.2501 515,-522.7 416.3476,-578.4867 372.2229,-538.5261 260,-522.7 228.1725,-518.2116 222.6424,-502.7 190.5,-502.7"/>
<polygon fill="#000000" stroke="#000000" points="548.8789,-456.1329 557.5948,-457.1295 552.6894,-454.9164 556.5,-453.7 556.5,-453.7 556.5,-453.7 552.6894,-454.9164 555.4052,-450.2705 548.8789,-456.1329 548.8789,-456.1329"/>
<ellipse fill="none" stroke="#000000" cx="545.8304" cy="-457.106" rx="3.2" ry="3.2"/>
</g>
<!-- court_appearance_movement&#45;&gt;court_appearance_reason -->
<g id="edge7" class="edge">
<title>court_appearance_movement:w&#45;&gt;court_appearance_reason:e</title>
<path fill="none" stroke="#000000" d="M541.8813,-430.4129C462.476,-414.5961 593.8985,-257.1735 515,-190.7 428.3277,-117.677 348.0213,-119.3088 260,-190.7 192.2668,-245.6362 306.7111,-382.7 219.5,-382.7"/>
<polygon fill="#000000" stroke="#000000" points="548.5308,-430.9983 556.1842,-435.2861 552.5154,-431.3492 556.5,-431.7 556.5,-431.7 556.5,-431.7 552.5154,-431.3492 556.8158,-428.1139 548.5308,-430.9983 548.5308,-430.9983"/>
<ellipse fill="none" stroke="#000000" cx="545.3432" cy="-430.7177" rx="3.2" ry="3.2"/>
</g>
</g>
</svg>
