<?xml version="1.0" encoding="UTF-8" standalone="no"?>
<!DOCTYPE svg PUBLIC "-//W3C//DTD SVG 1.1//EN"
 "http://www.w3.org/Graphics/SVG/1.1/DTD/svg11.dtd">
<!-- Generated by graphviz version 2.40.1 (20161225.0304)
 -->
<!-- Title: twoDegreesRelationshipsDiagram Pages: 1 -->
<svg width="809pt" height="393pt"
 viewBox="0.00 0.00 809.00 392.70" xmlns="http://www.w3.org/2000/svg" xmlns:xlink="http://www.w3.org/1999/xlink">
<g id="graph0" class="graph" transform="scale(1 1) rotate(0) translate(4 388.7)">
<title>twoDegreesRelationshipsDiagram</title>
<polygon fill="#ffffff" stroke="transparent" points="-4,4 -4,-388.7 805,-388.7 805,4 -4,4"/>
<text text-anchor="middle" x="72.4936" y="-7.3" font-family="Helvetica,sans-Serif" font-size="11.00" fill="#000000">Generated by SchemaSpy</text>
<!-- court_appearance -->
<g id="node1" class="node">
<title>court_appearance</title>
<g id="a_node1"><a xlink:href="../../tables/court_appearance.html" xlink:title="court_appearance" target="_top">
<polygon fill="#ffffff" stroke="transparent" points="348,-234.7 348,-295.7 507,-295.7 507,-234.7 348,-234.7"/>
<polygon fill="#f5f5f5" stroke="transparent" points="348.5,-272.2 348.5,-295.2 507.5,-295.2 507.5,-272.2 348.5,-272.2"/>
<polygon fill="none" stroke="#000000" points="348.5,-272.2 348.5,-295.2 507.5,-295.2 507.5,-272.2 348.5,-272.2"/>
<text text-anchor="start" x="353.5" y="-280.8" font-family="Helvetica,sans-Serif" font-weight="bold" font-size="11.00" fill="#000000">court_appearance</text>
<text text-anchor="start" x="473.0219" y="-280.3" font-family="Helvetica,sans-Serif" font-size="11.00" fill="#000000">[table]</text>
<polygon fill="none" stroke="#000000" points="348.5,-253.2 348.5,-272.2 507.5,-272.2 507.5,-253.2 348.5,-253.2"/>
<text text-anchor="start" x="351.5" y="-259.3" font-family="Helvetica,sans-Serif" font-size="11.00" fill="#000000">...</text>
<polygon fill="#ffffff" stroke="transparent" points="348.5,-234.2 348.5,-253.2 421.5,-253.2 421.5,-234.2 348.5,-234.2"/>
<polygon fill="none" stroke="#000000" points="348.5,-234.2 348.5,-253.2 421.5,-253.2 421.5,-234.2 348.5,-234.2"/>
<text text-anchor="start" x="351.5" y="-240.3" font-family="Helvetica,sans-Serif" font-size="11.00" fill="#000000">&lt; 3</text>
<polygon fill="#ffffff" stroke="transparent" points="421.5,-234.2 421.5,-253.2 459.5,-253.2 459.5,-234.2 421.5,-234.2"/>
<polygon fill="none" stroke="#000000" points="421.5,-234.2 421.5,-253.2 459.5,-253.2 459.5,-234.2 421.5,-234.2"/>
<text text-anchor="start" x="450.3862" y="-240.3" font-family="Helvetica,sans-Serif" font-size="11.00" fill="#000000"> &#160;</text>
<polygon fill="#ffffff" stroke="transparent" points="459.5,-234.2 459.5,-253.2 507.5,-253.2 507.5,-234.2 459.5,-234.2"/>
<polygon fill="none" stroke="#000000" points="459.5,-234.2 459.5,-253.2 507.5,-253.2 507.5,-234.2 459.5,-234.2"/>
<text text-anchor="start" x="488.9053" y="-240.3" font-family="Helvetica,sans-Serif" font-size="11.00" fill="#000000">1 &gt;</text>
</a>
</g>
</g>
<!-- person_summary -->
<g id="node2" class="node">
<title>person_summary</title>
<g id="a_node2"><a xlink:href="../../tables/person_summary.html" xlink:title="person_summary" target="_top">
<polygon fill="#ffffff" stroke="transparent" points="76.5,-319.7 76.5,-380.7 230.5,-380.7 230.5,-319.7 76.5,-319.7"/>
<polygon fill="#f5f5f5" stroke="transparent" points="76.5,-357.2 76.5,-380.2 230.5,-380.2 230.5,-357.2 76.5,-357.2"/>
<polygon fill="none" stroke="#000000" points="76.5,-357.2 76.5,-380.2 230.5,-380.2 230.5,-357.2 76.5,-357.2"/>
<text text-anchor="start" x="81.5" y="-365.8" font-family="Helvetica,sans-Serif" font-weight="bold" font-size="11.00" fill="#000000">person_summary</text>
<text text-anchor="start" x="196.0219" y="-365.3" font-family="Helvetica,sans-Serif" font-size="11.00" fill="#000000">[table]</text>
<polygon fill="none" stroke="#000000" points="76.5,-338.2 76.5,-357.2 230.5,-357.2 230.5,-338.2 76.5,-338.2"/>
<text text-anchor="start" x="79.5" y="-344.3" font-family="Helvetica,sans-Serif" font-size="11.00" fill="#000000">...</text>
<polygon fill="#ffffff" stroke="transparent" points="76.5,-319.2 76.5,-338.2 142.5,-338.2 142.5,-319.2 76.5,-319.2"/>
<polygon fill="none" stroke="#000000" points="76.5,-319.2 76.5,-338.2 142.5,-338.2 142.5,-319.2 76.5,-319.2"/>
<text text-anchor="start" x="79.5" y="-325.3" font-family="Helvetica,sans-Serif" font-size="11.00" fill="#000000"> &#160;</text>
<polygon fill="#ffffff" stroke="transparent" points="142.5,-319.2 142.5,-338.2 181.5,-338.2 181.5,-319.2 142.5,-319.2"/>
<polygon fill="none" stroke="#000000" points="142.5,-319.2 142.5,-338.2 181.5,-338.2 181.5,-319.2 142.5,-319.2"/>
<text text-anchor="start" x="172.3862" y="-325.3" font-family="Helvetica,sans-Serif" font-size="11.00" fill="#000000"> &#160;</text>
<polygon fill="#ffffff" stroke="transparent" points="181.5,-319.2 181.5,-338.2 230.5,-338.2 230.5,-319.2 181.5,-319.2"/>
<polygon fill="none" stroke="#000000" points="181.5,-319.2 181.5,-338.2 230.5,-338.2 230.5,-319.2 181.5,-319.2"/>
<text text-anchor="start" x="211.9053" y="-325.3" font-family="Helvetica,sans-Serif" font-size="11.00" fill="#000000">2 &gt;</text>
</a>
</g>
</g>
<!-- court_appearance&#45;&gt;person_summary -->
<g id="edge1" class="edge">
<title>court_appearance:w&#45;&gt;person_summary:e</title>
<path fill="none" stroke="#000000" d="M363.3118,-306.8841C326.0734,-327.1535 277.3913,-347.2 230.5,-347.2"/>
<polygon fill="#000000" stroke="#000000" points="369.0162,-303.6673 377.7529,-302.8735 372.5004,-301.7025 375.9846,-299.7377 375.9846,-299.7377 375.9846,-299.7377 372.5004,-301.7025 374.2162,-296.6019 369.0162,-303.6673 369.0162,-303.6673"/>
<ellipse fill="none" stroke="#000000" cx="366.2288" cy="-305.2392" rx="3.2" ry="3.2"/>
</g>
<!-- court_appearance_reason -->
<g id="node3" class="node">
<title>court_appearance_reason</title>
<g id="a_node3"><a xlink:href="../../tables/court_appearance_reason.html" xlink:title="court_appearance_reason" target="_top">
<polygon fill="#ffffff" stroke="transparent" points="8,-38.2 8,-216.2 299,-216.2 299,-38.2 8,-38.2"/>
<polygon fill="#f5f5f5" stroke="transparent" points="10.5,-191.2 10.5,-214.2 297.5,-214.2 297.5,-191.2 10.5,-191.2"/>
<polygon fill="none" stroke="#000000" points="10.5,-191.2 10.5,-214.2 297.5,-214.2 297.5,-191.2 10.5,-191.2"/>
<text text-anchor="start" x="15.5" y="-199.8" font-family="Helvetica,sans-Serif" font-weight="bold" font-size="11.00" fill="#000000">court_appearance_reason</text>
<text text-anchor="start" x="262.5437" y="-199.3" font-family="Helvetica,sans-Serif" font-size="11.00" fill="#000000">[table]</text>
<polygon fill="none" stroke="#000000" points="10.5,-169.2 10.5,-191.2 203.5,-191.2 203.5,-169.2 10.5,-169.2"/>
<image xlink:href="../../images/primaryKeys.png" width="11px" height="12px" preserveAspectRatio="xMinYMin meet" x="15.5" y="-186.2"/>
<text text-anchor="start" x="30.5" y="-176.3" font-family="Helvetica,sans-Serif" font-size="11.00" fill="#000000">id</text>
<polygon fill="none" stroke="#000000" points="203.5,-169.2 203.5,-191.2 297.5,-191.2 297.5,-169.2 203.5,-169.2"/>
<text text-anchor="start" x="206.4758" y="-176.9" font-family="Helvetica,sans-Serif" font-size="11.00" fill="#000000">uuid[2147483647]</text>
<polygon fill="#ffffff" stroke="transparent" points="10.5,-147.2 10.5,-169.2 203.5,-169.2 203.5,-147.2 10.5,-147.2"/>
<polygon fill="none" stroke="#000000" points="10.5,-147.2 10.5,-169.2 203.5,-169.2 203.5,-147.2 10.5,-147.2"/>
<text text-anchor="start" x="30.5" y="-154.3" font-family="Helvetica,sans-Serif" font-size="11.00" fill="#000000">code</text>
<polygon fill="none" stroke="#000000" points="203.5,-147.2 203.5,-169.2 297.5,-169.2 297.5,-147.2 203.5,-147.2"/>
<text text-anchor="start" x="206.5" y="-154.9" font-family="Helvetica,sans-Serif" font-size="11.00" fill="#000000">varchar[16]</text>
<polygon fill="none" stroke="#000000" points="10.5,-125.2 10.5,-147.2 203.5,-147.2 203.5,-125.2 10.5,-125.2"/>
<text text-anchor="start" x="30.5" y="-132.3" font-family="Helvetica,sans-Serif" font-size="11.00" fill="#000000">description</text>
<polygon fill="none" stroke="#000000" points="203.5,-125.2 203.5,-147.2 297.5,-147.2 297.5,-125.2 203.5,-125.2"/>
<text text-anchor="start" x="206.5" y="-132.9" font-family="Helvetica,sans-Serif" font-size="11.00" fill="#000000">varchar[255]</text>
<polygon fill="#ffffff" stroke="transparent" points="10.5,-103.2 10.5,-125.2 203.5,-125.2 203.5,-103.2 10.5,-103.2"/>
<polygon fill="none" stroke="#000000" points="10.5,-103.2 10.5,-125.2 203.5,-125.2 203.5,-103.2 10.5,-103.2"/>
<text text-anchor="start" x="30.5" y="-110.3" font-family="Helvetica,sans-Serif" font-size="11.00" fill="#000000">sequence_number</text>
<polygon fill="none" stroke="#000000" points="203.5,-103.2 203.5,-125.2 297.5,-125.2 297.5,-103.2 203.5,-103.2"/>
<text text-anchor="start" x="206.5" y="-110.9" font-family="Helvetica,sans-Serif" font-size="11.00" fill="#000000">int4[10]</text>
<polygon fill="none" stroke="#000000" points="10.5,-81.2 10.5,-103.2 203.5,-103.2 203.5,-81.2 10.5,-81.2"/>
<text text-anchor="start" x="30.5" y="-88.3" font-family="Helvetica,sans-Serif" font-size="11.00" fill="#000000">active</text>
<polygon fill="none" stroke="#000000" points="203.5,-81.2 203.5,-103.2 297.5,-103.2 297.5,-81.2 203.5,-81.2"/>
<text text-anchor="start" x="206.5" y="-88.9" font-family="Helvetica,sans-Serif" font-size="11.00" fill="#000000">bool[1]</text>
<polygon fill="none" stroke="#000000" points="10.5,-59.2 10.5,-81.2 203.5,-81.2 203.5,-59.2 10.5,-59.2"/>
<text text-anchor="start" x="30.5" y="-66.3" font-family="Helvetica,sans-Serif" font-size="11.00" fill="#000000">external</text>
<polygon fill="none" stroke="#000000" points="203.5,-59.2 203.5,-81.2 297.5,-81.2 297.5,-59.2 203.5,-59.2"/>
<text text-anchor="start" x="206.5" y="-66.9" font-family="Helvetica,sans-Serif" font-size="11.00" fill="#000000">bool[1]</text>
<polygon fill="#ffffff" stroke="transparent" points="10.5,-40.2 10.5,-59.2 111.5,-59.2 111.5,-40.2 10.5,-40.2"/>
<polygon fill="none" stroke="#000000" points="10.5,-40.2 10.5,-59.2 111.5,-59.2 111.5,-40.2 10.5,-40.2"/>
<text text-anchor="start" x="13.5" y="-46.3" font-family="Helvetica,sans-Serif" font-size="11.00" fill="#000000">&lt; 0</text>
<polygon fill="#ffffff" stroke="transparent" points="111.5,-40.2 111.5,-59.2 203.5,-59.2 203.5,-40.2 111.5,-40.2"/>
<polygon fill="none" stroke="#000000" points="111.5,-40.2 111.5,-59.2 203.5,-59.2 203.5,-40.2 111.5,-40.2"/>
<text text-anchor="start" x="194.3862" y="-46.3" font-family="Helvetica,sans-Serif" font-size="11.00" fill="#000000"> &#160;</text>
<polygon fill="#ffffff" stroke="transparent" points="203.5,-40.2 203.5,-59.2 297.5,-59.2 297.5,-40.2 203.5,-40.2"/>
<polygon fill="none" stroke="#000000" points="203.5,-40.2 203.5,-59.2 297.5,-59.2 297.5,-40.2 203.5,-40.2"/>
<text text-anchor="start" x="278.9053" y="-46.3" font-family="Helvetica,sans-Serif" font-size="11.00" fill="#000000">2 &gt;</text>
<polygon fill="none" stroke="#000000" stroke-width="2" points="9,-39.2 9,-215.2 298,-215.2 298,-39.2 9,-39.2"/>
</a>
</g>
</g>
<!-- court_appearance&#45;&gt;court_appearance_reason -->
<g id="edge2" class="edge">
<title>court_appearance:w&#45;&gt;court_appearance_reason:e</title>
<path fill="none" stroke="#000000" d="M365.0914,-222.2642C333.8715,-201.1605 301.785,-180.2 297.5,-180.2"/>
<polygon fill="#000000" stroke="#000000" points="370.7921,-226.1341 375.3892,-233.6058 374.1017,-228.3806 377.4112,-230.6272 377.4112,-230.6272 377.4112,-230.6272 374.1017,-228.3806 379.4331,-227.6487 370.7921,-226.1341 370.7921,-226.1341"/>
<ellipse fill="none" stroke="#000000" cx="368.1445" cy="-224.3368" rx="3.2" ry="3.2"/>
</g>
<!-- court_appearance_status -->
<g id="node4" class="node">
<title>court_appearance_status</title>
<g id="a_node4"><a xlink:href="../../tables/court_appearance_status.html" xlink:title="court_appearance_status" target="_top">
<polygon fill="#ffffff" stroke="transparent" points="49.5,-237.7 49.5,-298.7 257.5,-298.7 257.5,-237.7 49.5,-237.7"/>
<polygon fill="#f5f5f5" stroke="transparent" points="49.5,-275.2 49.5,-298.2 257.5,-298.2 257.5,-275.2 49.5,-275.2"/>
<polygon fill="none" stroke="#000000" points="49.5,-275.2 49.5,-298.2 257.5,-298.2 257.5,-275.2 49.5,-275.2"/>
<text text-anchor="start" x="54.5" y="-283.8" font-family="Helvetica,sans-Serif" font-weight="bold" font-size="11.00" fill="#000000">court_appearance_status</text>
<text text-anchor="start" x="223.0219" y="-283.3" font-family="Helvetica,sans-Serif" font-size="11.00" fill="#000000">[table]</text>
<polygon fill="none" stroke="#000000" points="49.5,-256.2 49.5,-275.2 257.5,-275.2 257.5,-256.2 49.5,-256.2"/>
<text text-anchor="start" x="52.5" y="-262.3" font-family="Helvetica,sans-Serif" font-size="11.00" fill="#000000">...</text>
<polygon fill="#ffffff" stroke="transparent" points="49.5,-237.2 49.5,-256.2 142.5,-256.2 142.5,-237.2 49.5,-237.2"/>
<polygon fill="none" stroke="#000000" points="49.5,-237.2 49.5,-256.2 142.5,-256.2 142.5,-237.2 49.5,-237.2"/>
<text text-anchor="start" x="52.5" y="-243.3" font-family="Helvetica,sans-Serif" font-size="11.00" fill="#000000"> &#160;</text>
<polygon fill="#ffffff" stroke="transparent" points="142.5,-237.2 142.5,-256.2 195.5,-256.2 195.5,-237.2 142.5,-237.2"/>
<polygon fill="none" stroke="#000000" points="142.5,-237.2 142.5,-256.2 195.5,-256.2 195.5,-237.2 142.5,-237.2"/>
<text text-anchor="start" x="186.3862" y="-243.3" font-family="Helvetica,sans-Serif" font-size="11.00" fill="#000000"> &#160;</text>
<polygon fill="#ffffff" stroke="transparent" points="195.5,-237.2 195.5,-256.2 257.5,-256.2 257.5,-237.2 195.5,-237.2"/>
<polygon fill="none" stroke="#000000" points="195.5,-237.2 195.5,-256.2 257.5,-256.2 257.5,-237.2 195.5,-237.2"/>
<text text-anchor="start" x="238.9053" y="-243.3" font-family="Helvetica,sans-Serif" font-size="11.00" fill="#000000">1 &gt;</text>
</a>
</g>
</g>
<!-- court_appearance&#45;&gt;court_appearance_status -->
<g id="edge3" class="edge">
<title>court_appearance:w&#45;&gt;court_appearance_status:e</title>
<path fill="none" stroke="#000000" d="M325.2334,-265.2C302.9097,-265.2 279.4106,-265.2 257.5,-265.2"/>
<polygon fill="#000000" stroke="#000000" points="331.705,-265.2001 339.705,-268.8 335.705,-265.2 339.705,-265.2 339.705,-265.2 339.705,-265.2 335.705,-265.2 339.7049,-261.6 331.705,-265.2001 331.705,-265.2001"/>
<ellipse fill="none" stroke="#000000" cx="328.505" cy="-265.2001" rx="3.2" ry="3.2"/>
</g>
<!-- court_appearance_movement -->
<g id="node5" class="node">
<title>court_appearance_movement</title>
<g id="a_node5"><a xlink:href="../../tables/court_appearance_movement.html" xlink:title="court_appearance_movement" target="_top">
<polygon fill="#ffffff" stroke="transparent" points="556,-234.7 556,-295.7 793,-295.7 793,-234.7 556,-234.7"/>
<polygon fill="#f5f5f5" stroke="transparent" points="556.5,-272.2 556.5,-295.2 793.5,-295.2 793.5,-272.2 556.5,-272.2"/>
<polygon fill="none" stroke="#000000" points="556.5,-272.2 556.5,-295.2 793.5,-295.2 793.5,-272.2 556.5,-272.2"/>
<text text-anchor="start" x="561.5" y="-280.8" font-family="Helvetica,sans-Serif" font-weight="bold" font-size="11.00" fill="#000000">court_appearance_movement</text>
<text text-anchor="start" x="759.0219" y="-280.3" font-family="Helvetica,sans-Serif" font-size="11.00" fill="#000000">[table]</text>
<polygon fill="none" stroke="#000000" points="556.5,-253.2 556.5,-272.2 793.5,-272.2 793.5,-253.2 556.5,-253.2"/>
<text text-anchor="start" x="559.5" y="-259.3" font-family="Helvetica,sans-Serif" font-size="11.00" fill="#000000">...</text>
<polygon fill="#ffffff" stroke="transparent" points="556.5,-234.2 556.5,-253.2 673.5,-253.2 673.5,-234.2 556.5,-234.2"/>
<polygon fill="none" stroke="#000000" points="556.5,-234.2 556.5,-253.2 673.5,-253.2 673.5,-234.2 556.5,-234.2"/>
<text text-anchor="start" x="559.5" y="-240.3" font-family="Helvetica,sans-Serif" font-size="11.00" fill="#000000">&lt; 3</text>
<polygon fill="#ffffff" stroke="transparent" points="673.5,-234.2 673.5,-253.2 733.5,-253.2 733.5,-234.2 673.5,-234.2"/>
<polygon fill="none" stroke="#000000" points="673.5,-234.2 673.5,-253.2 733.5,-253.2 733.5,-234.2 673.5,-234.2"/>
<text text-anchor="start" x="724.3862" y="-240.3" font-family="Helvetica,sans-Serif" font-size="11.00" fill="#000000"> &#160;</text>
<polygon fill="#ffffff" stroke="transparent" points="733.5,-234.2 733.5,-253.2 793.5,-253.2 793.5,-234.2 733.5,-234.2"/>
<polygon fill="none" stroke="#000000" points="733.5,-234.2 733.5,-253.2 793.5,-253.2 793.5,-234.2 733.5,-234.2"/>
<text text-anchor="start" x="784.3862" y="-240.3" font-family="Helvetica,sans-Serif" font-size="11.00" fill="#000000"> &#160;</text>
</a>
</g>
</g>
<!-- court_appearance_movement&#45;&gt;court_appearance -->
<g id="edge4" class="edge">
<title>court_appearance_movement:w&#45;&gt;court_appearance:e</title>
<path fill="none" stroke="#000000" d="M533.3351,-265.2C527.1935,-265.2 521.1114,-265.2 515.1513,-265.2"/>
<polygon fill="#000000" stroke="#000000" points="539.744,-265.2001 547.744,-268.8 543.744,-265.2 547.744,-265.2 547.744,-265.2 547.744,-265.2 543.744,-265.2 547.744,-261.6 539.744,-265.2001 539.744,-265.2001"/>
<ellipse fill="none" stroke="#000000" cx="536.544" cy="-265.2001" rx="3.2" ry="3.2"/>
</g>
<!-- court_appearance_movement&#45;&gt;person_summary -->
<g id="edge5" class="edge">
<title>court_appearance_movement:w&#45;&gt;person_summary:e</title>
<path fill="none" stroke="#000000" d="M540.0091,-303.2348C452.572,-324.6739 335.6766,-347.2 230.5,-347.2"/>
<polygon fill="#000000" stroke="#000000" points="546.2938,-301.6703 554.9265,-303.2311 550.1753,-300.704 554.0568,-299.7377 554.0568,-299.7377 554.0568,-299.7377 550.1753,-300.704 553.1872,-296.2443 546.2938,-301.6703 546.2938,-301.6703"/>
<ellipse fill="none" stroke="#000000" cx="543.1885" cy="-302.4434" rx="3.2" ry="3.2"/>
</g>
<!-- court_appearance_movement&#45;&gt;court_appearance_reason -->
<g id="edge6" class="edge">
<title>court_appearance_movement:w&#45;&gt;court_appearance_reason:e</title>
<path fill="none" stroke="#000000" d="M562.6168,-226.3225C488.3806,-203.9364 388.2661,-180.2 297.5,-180.2"/>
<polygon fill="#000000" stroke="#000000" points="568.9906,-228.2793 575.5817,-234.0687 572.8145,-229.4533 576.6383,-230.6272 576.6383,-230.6272 576.6383,-230.6272 572.8145,-229.4533 577.6949,-227.1858 568.9906,-228.2793 568.9906,-228.2793"/>
<ellipse fill="none" stroke="#000000" cx="565.9315" cy="-227.3401" rx="3.2" ry="3.2"/>
</g>
</g>
</svg>
