<?xml version="1.0" encoding="UTF-8" standalone="no"?>
<!DOCTYPE svg PUBLIC "-//W3C//DTD SVG 1.1//EN"
 "http://www.w3.org/Graphics/SVG/1.1/DTD/svg11.dtd">
<!-- Generated by graphviz version 2.40.1 (20161225.0304)
 -->
<!-- Title: oneDegreeRelationshipsDiagramImplied Pages: 1 -->
<svg width="809pt" height="459pt"
 viewBox="0.00 0.00 809.00 458.70" xmlns="http://www.w3.org/2000/svg" xmlns:xlink="http://www.w3.org/1999/xlink">
<g id="graph0" class="graph" transform="scale(1 1) rotate(0) translate(4 454.7)">
<title>oneDegreeRelationshipsDiagramImplied</title>
<polygon fill="#ffffff" stroke="transparent" points="-4,4 -4,-454.7 805,-454.7 805,4 -4,4"/>
<text text-anchor="middle" x="72.4936" y="-7.3" font-family="Helvetica,sans-Serif" font-size="11.00" fill="#000000">Generated by SchemaSpy</text>
<!-- court_appearance -->
<g id="node1" class="node">
<title>court_appearance</title>
<g id="a_node1"><a xlink:href="../../tables/court_appearance.html" xlink:title="court_appearance" target="_top">
<polygon fill="#ffffff" stroke="transparent" points="268,-209.7 268,-446.7 427,-446.7 427,-209.7 268,-209.7"/>
<polygon fill="#f5f5f5" stroke="transparent" points="268.5,-423.2 268.5,-446.2 427.5,-446.2 427.5,-423.2 268.5,-423.2"/>
<polygon fill="none" stroke="#000000" points="268.5,-423.2 268.5,-446.2 427.5,-446.2 427.5,-423.2 268.5,-423.2"/>
<text text-anchor="start" x="273.5" y="-431.8" font-family="Helvetica,sans-Serif" font-weight="bold" font-size="11.00" fill="#000000">court_appearance</text>
<text text-anchor="start" x="393.0219" y="-431.3" font-family="Helvetica,sans-Serif" font-size="11.00" fill="#000000">[table]</text>
<polygon fill="none" stroke="#000000" points="268.5,-401.2 268.5,-423.2 427.5,-423.2 427.5,-401.2 268.5,-401.2"/>
<image xlink:href="../../images/primaryKeys.png" width="11px" height="12px" preserveAspectRatio="xMinYMin meet" x="273.5" y="-418.2"/>
<text text-anchor="start" x="294.5" y="-408.3" font-family="Helvetica,sans-Serif" font-size="11.00" fill="#000000">id</text>
<polygon fill="#ffffff" stroke="transparent" points="268.5,-379.2 268.5,-401.2 427.5,-401.2 427.5,-379.2 268.5,-379.2"/>
<polygon fill="none" stroke="#000000" points="268.5,-379.2 268.5,-401.2 427.5,-401.2 427.5,-379.2 268.5,-379.2"/>
<image xlink:href="../../images/foreignKeys.png" width="11px" height="12px" preserveAspectRatio="xMinYMin meet" x="273.5" y="-396.2"/>
<text text-anchor="start" x="294.5" y="-386.3" font-family="Helvetica,sans-Serif" font-size="11.00" fill="#000000">person_identifier</text>
<polygon fill="#ffffff" stroke="transparent" points="268.5,-357.2 268.5,-379.2 427.5,-379.2 427.5,-357.2 268.5,-357.2"/>
<polygon fill="none" stroke="#000000" points="268.5,-357.2 268.5,-379.2 427.5,-379.2 427.5,-357.2 268.5,-357.2"/>
<text text-anchor="start" x="294.5" y="-364.3" font-family="Helvetica,sans-Serif" font-size="11.00" fill="#000000">prison_code</text>
<polygon fill="#ffffff" stroke="transparent" points="268.5,-335.2 268.5,-357.2 427.5,-357.2 427.5,-335.2 268.5,-335.2"/>
<polygon fill="none" stroke="#000000" points="268.5,-335.2 268.5,-357.2 427.5,-357.2 427.5,-335.2 268.5,-335.2"/>
<image xlink:href="../../images/foreignKeys.png" width="11px" height="12px" preserveAspectRatio="xMinYMin meet" x="273.5" y="-352.2"/>
<text text-anchor="start" x="294.5" y="-342.3" font-family="Helvetica,sans-Serif" font-size="11.00" fill="#000000">reason_id</text>
<polygon fill="#ffffff" stroke="transparent" points="268.5,-313.2 268.5,-335.2 427.5,-335.2 427.5,-313.2 268.5,-313.2"/>
<polygon fill="none" stroke="#000000" points="268.5,-313.2 268.5,-335.2 427.5,-335.2 427.5,-313.2 268.5,-313.2"/>
<image xlink:href="../../images/foreignKeys.png" width="11px" height="12px" preserveAspectRatio="xMinYMin meet" x="273.5" y="-330.2"/>
<text text-anchor="start" x="294.5" y="-320.3" font-family="Helvetica,sans-Serif" font-size="11.00" fill="#000000">status_id</text>
<polygon fill="#ffffff" stroke="transparent" points="268.5,-291.2 268.5,-313.2 427.5,-313.2 427.5,-291.2 268.5,-291.2"/>
<polygon fill="none" stroke="#000000" points="268.5,-291.2 268.5,-313.2 427.5,-313.2 427.5,-291.2 268.5,-291.2"/>
<text text-anchor="start" x="294.5" y="-298.3" font-family="Helvetica,sans-Serif" font-size="11.00" fill="#000000">start</text>
<polygon fill="#ffffff" stroke="transparent" points="268.5,-269.2 268.5,-291.2 427.5,-291.2 427.5,-269.2 268.5,-269.2"/>
<polygon fill="none" stroke="#000000" points="268.5,-269.2 268.5,-291.2 427.5,-291.2 427.5,-269.2 268.5,-269.2"/>
<image xlink:href="../../images/foreignKeys.png" width="11px" height="12px" preserveAspectRatio="xMinYMin meet" x="273.5" y="-286.2"/>
<text text-anchor="start" x="294.5" y="-276.3" font-family="Helvetica,sans-Serif" font-size="11.00" fill="#000000">legacy_id</text>
<polygon fill="#ffffff" stroke="transparent" points="268.5,-247.2 268.5,-269.2 427.5,-269.2 427.5,-247.2 268.5,-247.2"/>
<polygon fill="none" stroke="#000000" points="268.5,-247.2 268.5,-269.2 427.5,-269.2 427.5,-247.2 268.5,-247.2"/>
<text text-anchor="start" x="294.5" y="-254.3" font-family="Helvetica,sans-Serif" font-size="11.00" fill="#000000">external_reference</text>
<polygon fill="none" stroke="#000000" points="268.5,-228.2 268.5,-247.2 427.5,-247.2 427.5,-228.2 268.5,-228.2"/>
<text text-anchor="start" x="271.5" y="-234.3" font-family="Helvetica,sans-Serif" font-size="11.00" fill="#000000">...</text>
<polygon fill="#ffffff" stroke="transparent" points="268.5,-209.2 268.5,-228.2 341.5,-228.2 341.5,-209.2 268.5,-209.2"/>
<polygon fill="none" stroke="#000000" points="268.5,-209.2 268.5,-228.2 341.5,-228.2 341.5,-209.2 268.5,-209.2"/>
<text text-anchor="start" x="271.5" y="-215.3" font-family="Helvetica,sans-Serif" font-size="11.00" fill="#000000">&lt; 3</text>
<polygon fill="#ffffff" stroke="transparent" points="341.5,-209.2 341.5,-228.2 379.5,-228.2 379.5,-209.2 341.5,-209.2"/>
<polygon fill="none" stroke="#000000" points="341.5,-209.2 341.5,-228.2 379.5,-228.2 379.5,-209.2 341.5,-209.2"/>
<text text-anchor="start" x="370.3862" y="-215.3" font-family="Helvetica,sans-Serif" font-size="11.00" fill="#000000"> &#160;</text>
<polygon fill="#ffffff" stroke="transparent" points="379.5,-209.2 379.5,-228.2 427.5,-228.2 427.5,-209.2 379.5,-209.2"/>
<polygon fill="none" stroke="#000000" points="379.5,-209.2 379.5,-228.2 427.5,-228.2 427.5,-209.2 379.5,-209.2"/>
<text text-anchor="start" x="408.9053" y="-215.3" font-family="Helvetica,sans-Serif" font-size="11.00" fill="#000000">1 &gt;</text>
</a>
</g>
</g>
<!-- person_summary -->
<g id="node2" class="node">
<title>person_summary</title>
<g id="a_node2"><a xlink:href="../../tables/person_summary.html" xlink:title="person_summary" target="_top">
<polygon fill="#ffffff" stroke="transparent" points="36.5,-309.7 36.5,-392.7 190.5,-392.7 190.5,-309.7 36.5,-309.7"/>
<polygon fill="#f5f5f5" stroke="transparent" points="36.5,-369.2 36.5,-392.2 190.5,-392.2 190.5,-369.2 36.5,-369.2"/>
<polygon fill="none" stroke="#000000" points="36.5,-369.2 36.5,-392.2 190.5,-392.2 190.5,-369.2 36.5,-369.2"/>
<text text-anchor="start" x="41.5" y="-377.8" font-family="Helvetica,sans-Serif" font-weight="bold" font-size="11.00" fill="#000000">person_summary</text>
<text text-anchor="start" x="156.0219" y="-377.3" font-family="Helvetica,sans-Serif" font-size="11.00" fill="#000000">[table]</text>
<polygon fill="none" stroke="#000000" points="36.5,-347.2 36.5,-369.2 190.5,-369.2 190.5,-347.2 36.5,-347.2"/>
<image xlink:href="../../images/primaryKeys.png" width="11px" height="12px" preserveAspectRatio="xMinYMin meet" x="41.5" y="-364.2"/>
<text text-anchor="start" x="65.5" y="-354.3" font-family="Helvetica,sans-Serif" font-size="11.00" fill="#000000">person_identifier</text>
<polygon fill="none" stroke="#000000" points="36.5,-328.2 36.5,-347.2 190.5,-347.2 190.5,-328.2 36.5,-328.2"/>
<text text-anchor="start" x="39.5" y="-334.3" font-family="Helvetica,sans-Serif" font-size="11.00" fill="#000000">...</text>
<polygon fill="#ffffff" stroke="transparent" points="36.5,-309.2 36.5,-328.2 102.5,-328.2 102.5,-309.2 36.5,-309.2"/>
<polygon fill="none" stroke="#000000" points="36.5,-309.2 36.5,-328.2 102.5,-328.2 102.5,-309.2 36.5,-309.2"/>
<text text-anchor="start" x="39.5" y="-315.3" font-family="Helvetica,sans-Serif" font-size="11.00" fill="#000000"> &#160;</text>
<polygon fill="#ffffff" stroke="transparent" points="102.5,-309.2 102.5,-328.2 141.5,-328.2 141.5,-309.2 102.5,-309.2"/>
<polygon fill="none" stroke="#000000" points="102.5,-309.2 102.5,-328.2 141.5,-328.2 141.5,-309.2 102.5,-309.2"/>
<text text-anchor="start" x="132.3862" y="-315.3" font-family="Helvetica,sans-Serif" font-size="11.00" fill="#000000"> &#160;</text>
<polygon fill="#ffffff" stroke="transparent" points="141.5,-309.2 141.5,-328.2 190.5,-328.2 190.5,-309.2 141.5,-309.2"/>
<polygon fill="none" stroke="#000000" points="141.5,-309.2 141.5,-328.2 190.5,-328.2 190.5,-309.2 141.5,-309.2"/>
<text text-anchor="start" x="171.9053" y="-315.3" font-family="Helvetica,sans-Serif" font-size="11.00" fill="#000000">2 &gt;</text>
</a>
</g>
</g>
<!-- court_appearance&#45;&gt;person_summary -->
<g id="edge1" class="edge">
<title>court_appearance:w&#45;&gt;person_summary:e</title>
<path fill="none" stroke="#000000" d="M254.2017,-388.3879C229.4264,-381.6185 222.555,-358.2 190.5,-358.2"/>
<polygon fill="#000000" stroke="#000000" points="260.5635,-389.1941 268.0473,-393.7714 264.5317,-389.697 268.5,-390.2 268.5,-390.2 268.5,-390.2 264.5317,-389.697 268.9527,-386.6286 260.5635,-389.1941 260.5635,-389.1941"/>
<ellipse fill="none" stroke="#000000" cx="257.3889" cy="-388.7917" rx="3.2" ry="3.2"/>
</g>
<!-- court_appearance_reason -->
<g id="node3" class="node">
<title>court_appearance_reason</title>
<g id="a_node3"><a xlink:href="../../tables/court_appearance_reason.html" xlink:title="court_appearance_reason" target="_top">
<polygon fill="#ffffff" stroke="transparent" points="8,-129.7 8,-256.7 219,-256.7 219,-129.7 8,-129.7"/>
<polygon fill="#f5f5f5" stroke="transparent" points="8.5,-233.2 8.5,-256.2 219.5,-256.2 219.5,-233.2 8.5,-233.2"/>
<polygon fill="none" stroke="#000000" points="8.5,-233.2 8.5,-256.2 219.5,-256.2 219.5,-233.2 8.5,-233.2"/>
<text text-anchor="start" x="13.5" y="-241.8" font-family="Helvetica,sans-Serif" font-weight="bold" font-size="11.00" fill="#000000">court_appearance_reason</text>
<text text-anchor="start" x="185.0219" y="-241.3" font-family="Helvetica,sans-Serif" font-size="11.00" fill="#000000">[table]</text>
<polygon fill="none" stroke="#000000" points="8.5,-211.2 8.5,-233.2 219.5,-233.2 219.5,-211.2 8.5,-211.2"/>
<image xlink:href="../../images/primaryKeys.png" width="11px" height="12px" preserveAspectRatio="xMinYMin meet" x="13.5" y="-228.2"/>
<text text-anchor="start" x="37.5" y="-218.3" font-family="Helvetica,sans-Serif" font-size="11.00" fill="#000000">id</text>
<polygon fill="#ffffff" stroke="transparent" points="8.5,-189.2 8.5,-211.2 219.5,-211.2 219.5,-189.2 8.5,-189.2"/>
<polygon fill="none" stroke="#000000" points="8.5,-189.2 8.5,-211.2 219.5,-211.2 219.5,-189.2 8.5,-189.2"/>
<text text-anchor="start" x="37.5" y="-196.3" font-family="Helvetica,sans-Serif" font-size="11.00" fill="#000000">code</text>
<polygon fill="#ffffff" stroke="transparent" points="8.5,-167.2 8.5,-189.2 219.5,-189.2 219.5,-167.2 8.5,-167.2"/>
<polygon fill="none" stroke="#000000" points="8.5,-167.2 8.5,-189.2 219.5,-189.2 219.5,-167.2 8.5,-167.2"/>
<text text-anchor="start" x="37.5" y="-174.3" font-family="Helvetica,sans-Serif" font-size="11.00" fill="#000000">sequence_number</text>
<polygon fill="none" stroke="#000000" points="8.5,-148.2 8.5,-167.2 219.5,-167.2 219.5,-148.2 8.5,-148.2"/>
<text text-anchor="start" x="11.5" y="-154.3" font-family="Helvetica,sans-Serif" font-size="11.00" fill="#000000">...</text>
<polygon fill="#ffffff" stroke="transparent" points="8.5,-129.2 8.5,-148.2 103.5,-148.2 103.5,-129.2 8.5,-129.2"/>
<polygon fill="none" stroke="#000000" points="8.5,-129.2 8.5,-148.2 103.5,-148.2 103.5,-129.2 8.5,-129.2"/>
<text text-anchor="start" x="11.5" y="-135.3" font-family="Helvetica,sans-Serif" font-size="11.00" fill="#000000"> &#160;</text>
<polygon fill="#ffffff" stroke="transparent" points="103.5,-129.2 103.5,-148.2 156.5,-148.2 156.5,-129.2 103.5,-129.2"/>
<polygon fill="none" stroke="#000000" points="103.5,-129.2 103.5,-148.2 156.5,-148.2 156.5,-129.2 103.5,-129.2"/>
<text text-anchor="start" x="147.3862" y="-135.3" font-family="Helvetica,sans-Serif" font-size="11.00" fill="#000000"> &#160;</text>
<polygon fill="#ffffff" stroke="transparent" points="156.5,-129.2 156.5,-148.2 219.5,-148.2 219.5,-129.2 156.5,-129.2"/>
<polygon fill="none" stroke="#000000" points="156.5,-129.2 156.5,-148.2 219.5,-148.2 219.5,-129.2 156.5,-129.2"/>
<text text-anchor="start" x="200.9053" y="-135.3" font-family="Helvetica,sans-Serif" font-size="11.00" fill="#000000">2 &gt;</text>
</a>
</g>
</g>
<!-- court_appearance&#45;&gt;court_appearance_reason -->
<g id="edge2" class="edge">
<title>court_appearance:w&#45;&gt;court_appearance_reason:e</title>
<path fill="none" stroke="#000000" d="M254.1599,-342.6226C222.0342,-322.2916 272.7396,-222.2 219.5,-222.2"/>
<polygon fill="#000000" stroke="#000000" points="260.7379,-344.2636 267.6286,-349.693 264.6189,-345.2318 268.5,-346.2 268.5,-346.2 268.5,-346.2 264.6189,-345.2318 269.3714,-342.707 260.7379,-344.2636 260.7379,-344.2636"/>
<ellipse fill="none" stroke="#000000" cx="257.633" cy="-343.489" rx="3.2" ry="3.2"/>
</g>
<!-- court_appearance_movement -->
<g id="node4" class="node">
<title>court_appearance_movement</title>
<g id="a_node4"><a xlink:href="../../tables/court_appearance_movement.html" xlink:title="court_appearance_movement" target="_top">
<polygon fill="#ffffff" stroke="transparent" points="476,-38.2 476,-326.2 793,-326.2 793,-38.2 476,-38.2"/>
<polygon fill="#f5f5f5" stroke="transparent" points="478.5,-301.2 478.5,-324.2 791.5,-324.2 791.5,-301.2 478.5,-301.2"/>
<polygon fill="none" stroke="#000000" points="478.5,-301.2 478.5,-324.2 791.5,-324.2 791.5,-301.2 478.5,-301.2"/>
<text text-anchor="start" x="483.5" y="-309.8" font-family="Helvetica,sans-Serif" font-weight="bold" font-size="11.00" fill="#000000">court_appearance_movement</text>
<text text-anchor="start" x="756.5437" y="-309.3" font-family="Helvetica,sans-Serif" font-size="11.00" fill="#000000">[table]</text>
<polygon fill="none" stroke="#000000" points="478.5,-279.2 478.5,-301.2 697.5,-301.2 697.5,-279.2 478.5,-279.2"/>
<image xlink:href="../../images/primaryKeys.png" width="11px" height="12px" preserveAspectRatio="xMinYMin meet" x="483.5" y="-296.2"/>
<text text-anchor="start" x="498.5" y="-286.3" font-family="Helvetica,sans-Serif" font-size="11.00" fill="#000000">id</text>
<polygon fill="none" stroke="#000000" points="697.5,-279.2 697.5,-301.2 791.5,-301.2 791.5,-279.2 697.5,-279.2"/>
<text text-anchor="start" x="700.4758" y="-286.9" font-family="Helvetica,sans-Serif" font-size="11.00" fill="#000000">uuid[2147483647]</text>
<polygon fill="none" stroke="#000000" points="478.5,-257.2 478.5,-279.2 697.5,-279.2 697.5,-257.2 478.5,-257.2"/>
<text text-anchor="start" x="498.5" y="-264.3" font-family="Helvetica,sans-Serif" font-size="11.00" fill="#000000">version</text>
<polygon fill="none" stroke="#000000" points="697.5,-257.2 697.5,-279.2 791.5,-279.2 791.5,-257.2 697.5,-257.2"/>
<text text-anchor="start" x="700.5" y="-264.9" font-family="Helvetica,sans-Serif" font-size="11.00" fill="#000000">int4[10]</text>
<polygon fill="none" stroke="#000000" points="478.5,-235.2 478.5,-257.2 697.5,-257.2 697.5,-235.2 478.5,-235.2"/>
<image xlink:href="../../images/foreignKeys.png" width="11px" height="12px" preserveAspectRatio="xMinYMin meet" x="483.5" y="-252.2"/>
<text text-anchor="start" x="498.5" y="-242.3" font-family="Helvetica,sans-Serif" font-size="11.00" fill="#000000">court_appearance_id</text>
<polygon fill="none" stroke="#000000" points="697.5,-235.2 697.5,-257.2 791.5,-257.2 791.5,-235.2 697.5,-235.2"/>
<text text-anchor="start" x="700.4758" y="-242.9" font-family="Helvetica,sans-Serif" font-size="11.00" fill="#000000">uuid[2147483647]</text>
<polygon fill="#ffffff" stroke="transparent" points="478.5,-213.2 478.5,-235.2 697.5,-235.2 697.5,-213.2 478.5,-213.2"/>
<polygon fill="none" stroke="#000000" points="478.5,-213.2 478.5,-235.2 697.5,-235.2 697.5,-213.2 478.5,-213.2"/>
<image xlink:href="../../images/foreignKeys.png" width="11px" height="12px" preserveAspectRatio="xMinYMin meet" x="483.5" y="-230.2"/>
<text text-anchor="start" x="498.5" y="-220.3" font-family="Helvetica,sans-Serif" font-size="11.00" fill="#000000">person_identifier</text>
<polygon fill="none" stroke="#000000" points="697.5,-213.2 697.5,-235.2 791.5,-235.2 791.5,-213.2 697.5,-213.2"/>
<text text-anchor="start" x="700.5" y="-220.9" font-family="Helvetica,sans-Serif" font-size="11.00" fill="#000000">varchar[10]</text>
<polygon fill="none" stroke="#000000" points="478.5,-191.2 478.5,-213.2 697.5,-213.2 697.5,-191.2 478.5,-191.2"/>
<text text-anchor="start" x="498.5" y="-198.3" font-family="Helvetica,sans-Serif" font-size="11.00" fill="#000000">prison_code</text>
<polygon fill="none" stroke="#000000" points="697.5,-191.2 697.5,-213.2 791.5,-213.2 791.5,-191.2 697.5,-191.2"/>
<text text-anchor="start" x="700.5" y="-198.9" font-family="Helvetica,sans-Serif" font-size="11.00" fill="#000000">varchar[6]</text>
<polygon fill="none" stroke="#000000" points="478.5,-169.2 478.5,-191.2 697.5,-191.2 697.5,-169.2 478.5,-169.2"/>
<text text-anchor="start" x="498.5" y="-176.3" font-family="Helvetica,sans-Serif" font-size="11.00" fill="#000000">court_code</text>
<polygon fill="none" stroke="#000000" points="697.5,-169.2 697.5,-191.2 791.5,-191.2 791.5,-169.2 697.5,-169.2"/>
<text text-anchor="start" x="700.5" y="-176.9" font-family="Helvetica,sans-Serif" font-size="11.00" fill="#000000">varchar[6]</text>
<polygon fill="none" stroke="#000000" points="478.5,-147.2 478.5,-169.2 697.5,-169.2 697.5,-147.2 478.5,-147.2"/>
<image xlink:href="../../images/foreignKeys.png" width="11px" height="12px" preserveAspectRatio="xMinYMin meet" x="483.5" y="-164.2"/>
<text text-anchor="start" x="498.5" y="-154.3" font-family="Helvetica,sans-Serif" font-size="11.00" fill="#000000">reason_id</text>
<polygon fill="none" stroke="#000000" points="697.5,-147.2 697.5,-169.2 791.5,-169.2 791.5,-147.2 697.5,-147.2"/>
<text text-anchor="start" x="700.4758" y="-154.9" font-family="Helvetica,sans-Serif" font-size="11.00" fill="#000000">uuid[2147483647]</text>
<polygon fill="none" stroke="#000000" points="478.5,-125.2 478.5,-147.2 697.5,-147.2 697.5,-125.2 478.5,-125.2"/>
<text text-anchor="start" x="498.5" y="-132.3" font-family="Helvetica,sans-Serif" font-size="11.00" fill="#000000">direction</text>
<polygon fill="none" stroke="#000000" points="697.5,-125.2 697.5,-147.2 791.5,-147.2 791.5,-125.2 697.5,-125.2"/>
<text text-anchor="start" x="700.5" y="-132.9" font-family="Helvetica,sans-Serif" font-size="11.00" fill="#000000">varchar[3]</text>
<polygon fill="none" stroke="#000000" points="478.5,-103.2 478.5,-125.2 697.5,-125.2 697.5,-103.2 478.5,-103.2"/>
<text text-anchor="start" x="498.5" y="-110.3" font-family="Helvetica,sans-Serif" font-size="11.00" fill="#000000">occurred_at</text>
<polygon fill="none" stroke="#000000" points="697.5,-103.2 697.5,-125.2 791.5,-125.2 791.5,-103.2 697.5,-103.2"/>
<text text-anchor="start" x="700.5" y="-110.9" font-family="Helvetica,sans-Serif" font-size="11.00" fill="#000000">timestamp[29,6]</text>
<polygon fill="none" stroke="#000000" points="478.5,-81.2 478.5,-103.2 697.5,-103.2 697.5,-81.2 478.5,-81.2"/>
<text text-anchor="start" x="498.5" y="-88.3" font-family="Helvetica,sans-Serif" font-size="11.00" fill="#000000">comments</text>
<polygon fill="none" stroke="#000000" points="697.5,-81.2 697.5,-103.2 791.5,-103.2 791.5,-81.2 697.5,-81.2"/>
<text text-anchor="start" x="700.5" y="-88.9" font-family="Helvetica,sans-Serif" font-size="11.00" fill="#000000">text[2147483647]</text>
<polygon fill="#ffffff" stroke="transparent" points="478.5,-59.2 478.5,-81.2 697.5,-81.2 697.5,-59.2 478.5,-59.2"/>
<polygon fill="none" stroke="#000000" points="478.5,-59.2 478.5,-81.2 697.5,-81.2 697.5,-59.2 478.5,-59.2"/>
<text text-anchor="start" x="498.5" y="-66.3" font-family="Helvetica,sans-Serif" font-size="11.00" fill="#000000">legacy_id</text>
<polygon fill="none" stroke="#000000" points="697.5,-59.2 697.5,-81.2 791.5,-81.2 791.5,-59.2 697.5,-59.2"/>
<text text-anchor="start" x="700.5" y="-66.9" font-family="Helvetica,sans-Serif" font-size="11.00" fill="#000000">varchar[32]</text>
<polygon fill="#ffffff" stroke="transparent" points="478.5,-40.2 478.5,-59.2 592.5,-59.2 592.5,-40.2 478.5,-40.2"/>
<polygon fill="none" stroke="#000000" points="478.5,-40.2 478.5,-59.2 592.5,-59.2 592.5,-40.2 478.5,-40.2"/>
<text text-anchor="start" x="481.5" y="-46.3" font-family="Helvetica,sans-Serif" font-size="11.00" fill="#000000">&lt; 3</text>
<polygon fill="#ffffff" stroke="transparent" points="592.5,-40.2 592.5,-59.2 697.5,-59.2 697.5,-40.2 592.5,-40.2"/>
<polygon fill="none" stroke="#000000" points="592.5,-40.2 592.5,-59.2 697.5,-59.2 697.5,-40.2 592.5,-40.2"/>
<text text-anchor="start" x="688.3862" y="-46.3" font-family="Helvetica,sans-Serif" font-size="11.00" fill="#000000"> &#160;</text>
<polygon fill="#ffffff" stroke="transparent" points="697.5,-40.2 697.5,-59.2 791.5,-59.2 791.5,-40.2 697.5,-40.2"/>
<polygon fill="none" stroke="#000000" points="697.5,-40.2 697.5,-59.2 791.5,-59.2 791.5,-40.2 697.5,-40.2"/>
<text text-anchor="start" x="772.9053" y="-46.3" font-family="Helvetica,sans-Serif" font-size="11.00" fill="#000000">0 &gt;</text>
<polygon fill="none" stroke="#000000" stroke-width="2" points="477,-39.2 477,-325.2 792,-325.2 792,-39.2 477,-39.2"/>
</a>
</g>
</g>
<!-- court_appearance_movement&#45;&gt;court_appearance -->
<g id="edge3" class="edge">
<title>court_appearance_movement:w&#45;&gt;court_appearance:e</title>
<path fill="none" stroke="#000000" d="M464.151,-248.8075C415.6671,-269.9262 498.9529,-412.2 427.5,-412.2"/>
<polygon fill="#000000" stroke="#000000" points="470.6289,-247.6304 479.1437,-249.742 474.5645,-246.9152 478.5,-246.2 478.5,-246.2 478.5,-246.2 474.5645,-246.9152 477.8563,-242.658 470.6289,-247.6304 470.6289,-247.6304"/>
<ellipse fill="none" stroke="#000000" cx="467.4805" cy="-248.2025" rx="3.2" ry="3.2"/>
</g>
<!-- court_appearance_movement&#45;&gt;person_summary -->
<g id="edge4" class="edge">
<title>court_appearance_movement:w&#45;&gt;person_summary:e</title>
<path fill="none" stroke="#000000" d="M464.3764,-220.5517C454.7525,-214.682 450.6535,-203.3777 435,-199.2 359.8525,-179.144 325.0856,-156.6177 260,-199.2 195.4627,-241.4236 267.6226,-358.2 190.5,-358.2"/>
<polygon fill="#000000" stroke="#000000" points="470.7542,-222.1991 477.5996,-227.6856 474.6271,-223.1996 478.5,-224.2 478.5,-224.2 478.5,-224.2 474.6271,-223.1996 479.4004,-220.7144 470.7542,-222.1991 470.7542,-222.1991"/>
<ellipse fill="none" stroke="#000000" cx="467.6559" cy="-221.3988" rx="3.2" ry="3.2"/>
</g>
<!-- court_appearance_movement&#45;&gt;court_appearance_reason -->
<g id="edge5" class="edge">
<title>court_appearance_movement:w&#45;&gt;court_appearance_reason:e</title>
<path fill="none" stroke="#000000" d="M463.8676,-157.9967C377.4149,-155.5961 342.4066,-133.4856 260,-175.2 235.3981,-187.6536 247.0744,-222.2 219.5,-222.2"/>
<polygon fill="#000000" stroke="#000000" points="470.5008,-158.0888 478.45,-161.7997 474.5004,-158.1444 478.5,-158.2 478.5,-158.2 478.5,-158.2 474.5004,-158.1444 478.55,-154.6003 470.5008,-158.0888 470.5008,-158.0888"/>
<ellipse fill="none" stroke="#000000" cx="467.3011" cy="-158.0443" rx="3.2" ry="3.2"/>
</g>
</g>
</svg>
