<?xml version="1.0" encoding="UTF-8" standalone="no"?>
<!DOCTYPE svg PUBLIC "-//W3C//DTD SVG 1.1//EN"
 "http://www.w3.org/Graphics/SVG/1.1/DTD/svg11.dtd">
<!-- Generated by graphviz version 2.40.1 (20161225.0304)
 -->
<!-- Title: oneDegreeRelationshipsDiagramImplied Pages: 1 -->
<svg width="809pt" height="437pt"
 viewBox="0.00 0.00 809.00 436.70" xmlns="http://www.w3.org/2000/svg" xmlns:xlink="http://www.w3.org/1999/xlink">
<g id="graph0" class="graph" transform="scale(1 1) rotate(0) translate(4 432.7)">
<title>oneDegreeRelationshipsDiagramImplied</title>
<polygon fill="#ffffff" stroke="transparent" points="-4,4 -4,-432.7 805,-432.7 805,4 -4,4"/>
<text text-anchor="middle" x="72.4936" y="-7.3" font-family="Helvetica,sans-Serif" font-size="11.00" fill="#000000">Generated by SchemaSpy</text>
<!-- court_appearance -->
<g id="node1" class="node">
<title>court_appearance</title>
<g id="a_node1"><a xlink:href="../../tables/court_appearance.html" xlink:title="court_appearance" target="_top">
<polygon fill="#ffffff" stroke="transparent" points="268,-209.7 268,-424.7 427,-424.7 427,-209.7 268,-209.7"/>
<polygon fill="#f5f5f5" stroke="transparent" points="268.5,-401.2 268.5,-424.2 427.5,-424.2 427.5,-401.2 268.5,-401.2"/>
<polygon fill="none" stroke="#000000" points="268.5,-401.2 268.5,-424.2 427.5,-424.2 427.5,-401.2 268.5,-401.2"/>
<text text-anchor="start" x="273.5" y="-409.8" font-family="Helvetica,sans-Serif" font-weight="bold" font-size="11.00" fill="#000000">court_appearance</text>
<text text-anchor="start" x="393.0219" y="-409.3" font-family="Helvetica,sans-Serif" font-size="11.00" fill="#000000">[table]</text>
<polygon fill="none" stroke="#000000" points="268.5,-379.2 268.5,-401.2 427.5,-401.2 427.5,-379.2 268.5,-379.2"/>
<image xlink:href="../../images/primaryKeys.png" width="11px" height="12px" preserveAspectRatio="xMinYMin meet" x="273.5" y="-396.2"/>
<text text-anchor="start" x="297.5" y="-386.3" font-family="Helvetica,sans-Serif" font-size="11.00" fill="#000000">id</text>
<polygon fill="#ffffff" stroke="transparent" points="268.5,-357.2 268.5,-379.2 427.5,-379.2 427.5,-357.2 268.5,-357.2"/>
<polygon fill="none" stroke="#000000" points="268.5,-357.2 268.5,-379.2 427.5,-379.2 427.5,-357.2 268.5,-357.2"/>
<image xlink:href="../../images/foreignKeys.png" width="11px" height="12px" preserveAspectRatio="xMinYMin meet" x="273.5" y="-374.2"/>
<text text-anchor="start" x="297.5" y="-364.3" font-family="Helvetica,sans-Serif" font-size="11.00" fill="#000000">person_identifier</text>
<polygon fill="#ffffff" stroke="transparent" points="268.5,-335.2 268.5,-357.2 427.5,-357.2 427.5,-335.2 268.5,-335.2"/>
<polygon fill="none" stroke="#000000" points="268.5,-335.2 268.5,-357.2 427.5,-357.2 427.5,-335.2 268.5,-335.2"/>
<text text-anchor="start" x="297.5" y="-342.3" font-family="Helvetica,sans-Serif" font-size="11.00" fill="#000000">prison_code</text>
<polygon fill="#ffffff" stroke="transparent" points="268.5,-313.2 268.5,-335.2 427.5,-335.2 427.5,-313.2 268.5,-313.2"/>
<polygon fill="none" stroke="#000000" points="268.5,-313.2 268.5,-335.2 427.5,-335.2 427.5,-313.2 268.5,-313.2"/>
<image xlink:href="../../images/foreignKeys.png" width="11px" height="12px" preserveAspectRatio="xMinYMin meet" x="273.5" y="-330.2"/>
<text text-anchor="start" x="297.5" y="-320.3" font-family="Helvetica,sans-Serif" font-size="11.00" fill="#000000">reason_id</text>
<polygon fill="#ffffff" stroke="transparent" points="268.5,-291.2 268.5,-313.2 427.5,-313.2 427.5,-291.2 268.5,-291.2"/>
<polygon fill="none" stroke="#000000" points="268.5,-291.2 268.5,-313.2 427.5,-313.2 427.5,-291.2 268.5,-291.2"/>
<image xlink:href="../../images/foreignKeys.png" width="11px" height="12px" preserveAspectRatio="xMinYMin meet" x="273.5" y="-308.2"/>
<text text-anchor="start" x="297.5" y="-298.3" font-family="Helvetica,sans-Serif" font-size="11.00" fill="#000000">status_id</text>
<polygon fill="#ffffff" stroke="transparent" points="268.5,-269.2 268.5,-291.2 427.5,-291.2 427.5,-269.2 268.5,-269.2"/>
<polygon fill="none" stroke="#000000" points="268.5,-269.2 268.5,-291.2 427.5,-291.2 427.5,-269.2 268.5,-269.2"/>
<text text-anchor="start" x="297.5" y="-276.3" font-family="Helvetica,sans-Serif" font-size="11.00" fill="#000000">start</text>
<polygon fill="#ffffff" stroke="transparent" points="268.5,-247.2 268.5,-269.2 427.5,-269.2 427.5,-247.2 268.5,-247.2"/>
<polygon fill="none" stroke="#000000" points="268.5,-247.2 268.5,-269.2 427.5,-269.2 427.5,-247.2 268.5,-247.2"/>
<image xlink:href="../../images/foreignKeys.png" width="11px" height="12px" preserveAspectRatio="xMinYMin meet" x="273.5" y="-264.2"/>
<text text-anchor="start" x="297.5" y="-254.3" font-family="Helvetica,sans-Serif" font-size="11.00" fill="#000000">legacy_id</text>
<polygon fill="none" stroke="#000000" points="268.5,-228.2 268.5,-247.2 427.5,-247.2 427.5,-228.2 268.5,-228.2"/>
<text text-anchor="start" x="271.5" y="-234.3" font-family="Helvetica,sans-Serif" font-size="11.00" fill="#000000">...</text>
<polygon fill="#ffffff" stroke="transparent" points="268.5,-209.2 268.5,-228.2 341.5,-228.2 341.5,-209.2 268.5,-209.2"/>
<polygon fill="none" stroke="#000000" points="268.5,-209.2 268.5,-228.2 341.5,-228.2 341.5,-209.2 268.5,-209.2"/>
<text text-anchor="start" x="271.5" y="-215.3" font-family="Helvetica,sans-Serif" font-size="11.00" fill="#000000">&lt; 3</text>
<polygon fill="#ffffff" stroke="transparent" points="341.5,-209.2 341.5,-228.2 379.5,-228.2 379.5,-209.2 341.5,-209.2"/>
<polygon fill="none" stroke="#000000" points="341.5,-209.2 341.5,-228.2 379.5,-228.2 379.5,-209.2 341.5,-209.2"/>
<text text-anchor="start" x="370.3862" y="-215.3" font-family="Helvetica,sans-Serif" font-size="11.00" fill="#000000"> &#160;</text>
<polygon fill="#ffffff" stroke="transparent" points="379.5,-209.2 379.5,-228.2 427.5,-228.2 427.5,-209.2 379.5,-209.2"/>
<polygon fill="none" stroke="#000000" points="379.5,-209.2 379.5,-228.2 427.5,-228.2 427.5,-209.2 379.5,-209.2"/>
<text text-anchor="start" x="408.9053" y="-215.3" font-family="Helvetica,sans-Serif" font-size="11.00" fill="#000000">1 &gt;</text>
</a>
</g>
</g>
<!-- person_summary -->
<g id="node2" class="node">
<title>person_summary</title>
<g id="a_node2"><a xlink:href="../../tables/person_summary.html" xlink:title="person_summary" target="_top">
<polygon fill="#ffffff" stroke="transparent" points="36.5,-292.7 36.5,-375.7 190.5,-375.7 190.5,-292.7 36.5,-292.7"/>
<polygon fill="#f5f5f5" stroke="transparent" points="36.5,-352.2 36.5,-375.2 190.5,-375.2 190.5,-352.2 36.5,-352.2"/>
<polygon fill="none" stroke="#000000" points="36.5,-352.2 36.5,-375.2 190.5,-375.2 190.5,-352.2 36.5,-352.2"/>
<text text-anchor="start" x="41.5" y="-360.8" font-family="Helvetica,sans-Serif" font-weight="bold" font-size="11.00" fill="#000000">person_summary</text>
<text text-anchor="start" x="156.0219" y="-360.3" font-family="Helvetica,sans-Serif" font-size="11.00" fill="#000000">[table]</text>
<polygon fill="none" stroke="#000000" points="36.5,-330.2 36.5,-352.2 190.5,-352.2 190.5,-330.2 36.5,-330.2"/>
<image xlink:href="../../images/primaryKeys.png" width="11px" height="12px" preserveAspectRatio="xMinYMin meet" x="41.5" y="-347.2"/>
<text text-anchor="start" x="65.5" y="-337.3" font-family="Helvetica,sans-Serif" font-size="11.00" fill="#000000">person_identifier</text>
<polygon fill="none" stroke="#000000" points="36.5,-311.2 36.5,-330.2 190.5,-330.2 190.5,-311.2 36.5,-311.2"/>
<text text-anchor="start" x="39.5" y="-317.3" font-family="Helvetica,sans-Serif" font-size="11.00" fill="#000000">...</text>
<polygon fill="#ffffff" stroke="transparent" points="36.5,-292.2 36.5,-311.2 102.5,-311.2 102.5,-292.2 36.5,-292.2"/>
<polygon fill="none" stroke="#000000" points="36.5,-292.2 36.5,-311.2 102.5,-311.2 102.5,-292.2 36.5,-292.2"/>
<text text-anchor="start" x="39.5" y="-298.3" font-family="Helvetica,sans-Serif" font-size="11.00" fill="#000000"> &#160;</text>
<polygon fill="#ffffff" stroke="transparent" points="102.5,-292.2 102.5,-311.2 141.5,-311.2 141.5,-292.2 102.5,-292.2"/>
<polygon fill="none" stroke="#000000" points="102.5,-292.2 102.5,-311.2 141.5,-311.2 141.5,-292.2 102.5,-292.2"/>
<text text-anchor="start" x="132.3862" y="-298.3" font-family="Helvetica,sans-Serif" font-size="11.00" fill="#000000"> &#160;</text>
<polygon fill="#ffffff" stroke="transparent" points="141.5,-292.2 141.5,-311.2 190.5,-311.2 190.5,-292.2 141.5,-292.2"/>
<polygon fill="none" stroke="#000000" points="141.5,-292.2 141.5,-311.2 190.5,-311.2 190.5,-292.2 141.5,-292.2"/>
<text text-anchor="start" x="171.9053" y="-298.3" font-family="Helvetica,sans-Serif" font-size="11.00" fill="#000000">2 &gt;</text>
</a>
</g>
</g>
<!-- court_appearance&#45;&gt;person_summary -->
<g id="edge1" class="edge">
<title>court_appearance:w&#45;&gt;person_summary:e</title>
<path fill="none" stroke="#000000" d="M254.0729,-366.5919C229.7343,-360.7793 221.7394,-341.2 190.5,-341.2"/>
<polygon fill="#000000" stroke="#000000" points="260.5492,-367.3137 268.1012,-371.7778 264.5246,-367.7569 268.5,-368.2 268.5,-368.2 268.5,-368.2 264.5246,-367.7569 268.8988,-364.6222 260.5492,-367.3137 260.5492,-367.3137"/>
<ellipse fill="none" stroke="#000000" cx="257.3689" cy="-366.9592" rx="3.2" ry="3.2"/>
</g>
<!-- court_appearance_reason -->
<g id="node3" class="node">
<title>court_appearance_reason</title>
<g id="a_node3"><a xlink:href="../../tables/court_appearance_reason.html" xlink:title="court_appearance_reason" target="_top">
<polygon fill="#ffffff" stroke="transparent" points="8,-118.7 8,-245.7 219,-245.7 219,-118.7 8,-118.7"/>
<polygon fill="#f5f5f5" stroke="transparent" points="8.5,-222.2 8.5,-245.2 219.5,-245.2 219.5,-222.2 8.5,-222.2"/>
<polygon fill="none" stroke="#000000" points="8.5,-222.2 8.5,-245.2 219.5,-245.2 219.5,-222.2 8.5,-222.2"/>
<text text-anchor="start" x="13.5" y="-230.8" font-family="Helvetica,sans-Serif" font-weight="bold" font-size="11.00" fill="#000000">court_appearance_reason</text>
<text text-anchor="start" x="185.0219" y="-230.3" font-family="Helvetica,sans-Serif" font-size="11.00" fill="#000000">[table]</text>
<polygon fill="none" stroke="#000000" points="8.5,-200.2 8.5,-222.2 219.5,-222.2 219.5,-200.2 8.5,-200.2"/>
<image xlink:href="../../images/primaryKeys.png" width="11px" height="12px" preserveAspectRatio="xMinYMin meet" x="13.5" y="-217.2"/>
<text text-anchor="start" x="37.5" y="-207.3" font-family="Helvetica,sans-Serif" font-size="11.00" fill="#000000">id</text>
<polygon fill="#ffffff" stroke="transparent" points="8.5,-178.2 8.5,-200.2 219.5,-200.2 219.5,-178.2 8.5,-178.2"/>
<polygon fill="none" stroke="#000000" points="8.5,-178.2 8.5,-200.2 219.5,-200.2 219.5,-178.2 8.5,-178.2"/>
<text text-anchor="start" x="37.5" y="-185.3" font-family="Helvetica,sans-Serif" font-size="11.00" fill="#000000">code</text>
<polygon fill="#ffffff" stroke="transparent" points="8.5,-156.2 8.5,-178.2 219.5,-178.2 219.5,-156.2 8.5,-156.2"/>
<polygon fill="none" stroke="#000000" points="8.5,-156.2 8.5,-178.2 219.5,-178.2 219.5,-156.2 8.5,-156.2"/>
<text text-anchor="start" x="37.5" y="-163.3" font-family="Helvetica,sans-Serif" font-size="11.00" fill="#000000">sequence_number</text>
<polygon fill="none" stroke="#000000" points="8.5,-137.2 8.5,-156.2 219.5,-156.2 219.5,-137.2 8.5,-137.2"/>
<text text-anchor="start" x="11.5" y="-143.3" font-family="Helvetica,sans-Serif" font-size="11.00" fill="#000000">...</text>
<polygon fill="#ffffff" stroke="transparent" points="8.5,-118.2 8.5,-137.2 103.5,-137.2 103.5,-118.2 8.5,-118.2"/>
<polygon fill="none" stroke="#000000" points="8.5,-118.2 8.5,-137.2 103.5,-137.2 103.5,-118.2 8.5,-118.2"/>
<text text-anchor="start" x="11.5" y="-124.3" font-family="Helvetica,sans-Serif" font-size="11.00" fill="#000000"> &#160;</text>
<polygon fill="#ffffff" stroke="transparent" points="103.5,-118.2 103.5,-137.2 156.5,-137.2 156.5,-118.2 103.5,-118.2"/>
<polygon fill="none" stroke="#000000" points="103.5,-118.2 103.5,-137.2 156.5,-137.2 156.5,-118.2 103.5,-118.2"/>
<text text-anchor="start" x="147.3862" y="-124.3" font-family="Helvetica,sans-Serif" font-size="11.00" fill="#000000"> &#160;</text>
<polygon fill="#ffffff" stroke="transparent" points="156.5,-118.2 156.5,-137.2 219.5,-137.2 219.5,-118.2 156.5,-118.2"/>
<polygon fill="none" stroke="#000000" points="156.5,-118.2 156.5,-137.2 219.5,-137.2 219.5,-118.2 156.5,-118.2"/>
<text text-anchor="start" x="200.9053" y="-124.3" font-family="Helvetica,sans-Serif" font-size="11.00" fill="#000000">2 &gt;</text>
</a>
</g>
</g>
<!-- court_appearance&#45;&gt;court_appearance_reason -->
<g id="edge2" class="edge">
<title>court_appearance:w&#45;&gt;court_appearance_reason:e</title>
<path fill="none" stroke="#000000" d="M254.3719,-320.4403C225.6112,-300.8331 268.2534,-211.2 219.5,-211.2"/>
<polygon fill="#000000" stroke="#000000" points="260.7691,-322.1426 267.5742,-327.6789 264.6345,-323.1713 268.5,-324.2 268.5,-324.2 268.5,-324.2 264.6345,-323.1713 269.4258,-320.7211 260.7691,-322.1426 260.7691,-322.1426"/>
<ellipse fill="none" stroke="#000000" cx="257.6767" cy="-321.3197" rx="3.2" ry="3.2"/>
</g>
<!-- court_appearance_movement -->
<g id="node4" class="node">
<title>court_appearance_movement</title>
<g id="a_node4"><a xlink:href="../../tables/court_appearance_movement.html" xlink:title="court_appearance_movement" target="_top">
<polygon fill="#ffffff" stroke="transparent" points="476,-38.2 476,-326.2 793,-326.2 793,-38.2 476,-38.2"/>
<polygon fill="#f5f5f5" stroke="transparent" points="478.5,-301.2 478.5,-324.2 791.5,-324.2 791.5,-301.2 478.5,-301.2"/>
<polygon fill="none" stroke="#000000" points="478.5,-301.2 478.5,-324.2 791.5,-324.2 791.5,-301.2 478.5,-301.2"/>
<text text-anchor="start" x="483.5" y="-309.8" font-family="Helvetica,sans-Serif" font-weight="bold" font-size="11.00" fill="#000000">court_appearance_movement</text>
<text text-anchor="start" x="756.5437" y="-309.3" font-family="Helvetica,sans-Serif" font-size="11.00" fill="#000000">[table]</text>
<polygon fill="none" stroke="#000000" points="478.5,-279.2 478.5,-301.2 697.5,-301.2 697.5,-279.2 478.5,-279.2"/>
<image xlink:href="../../images/primaryKeys.png" width="11px" height="12px" preserveAspectRatio="xMinYMin meet" x="483.5" y="-296.2"/>
<text text-anchor="start" x="498.5" y="-286.3" font-family="Helvetica,sans-Serif" font-size="11.00" fill="#000000">id</text>
<polygon fill="none" stroke="#000000" points="697.5,-279.2 697.5,-301.2 791.5,-301.2 791.5,-279.2 697.5,-279.2"/>
<text text-anchor="start" x="700.4758" y="-286.9" font-family="Helvetica,sans-Serif" font-size="11.00" fill="#000000">uuid[2147483647]</text>
<polygon fill="none" stroke="#000000" points="478.5,-257.2 478.5,-279.2 697.5,-279.2 697.5,-257.2 478.5,-257.2"/>
<text text-anchor="start" x="498.5" y="-264.3" font-family="Helvetica,sans-Serif" font-size="11.00" fill="#000000">version</text>
<polygon fill="none" stroke="#000000" points="697.5,-257.2 697.5,-279.2 791.5,-279.2 791.5,-257.2 697.5,-257.2"/>
<text text-anchor="start" x="700.5" y="-264.9" font-family="Helvetica,sans-Serif" font-size="11.00" fill="#000000">int4[10]</text>
<polygon fill="none" stroke="#000000" points="478.5,-235.2 478.5,-257.2 697.5,-257.2 697.5,-235.2 478.5,-235.2"/>
<image xlink:href="../../images/foreignKeys.png" width="11px" height="12px" preserveAspectRatio="xMinYMin meet" x="483.5" y="-252.2"/>
<text text-anchor="start" x="498.5" y="-242.3" font-family="Helvetica,sans-Serif" font-size="11.00" fill="#000000">court_appearance_id</text>
<polygon fill="none" stroke="#000000" points="697.5,-235.2 697.5,-257.2 791.5,-257.2 791.5,-235.2 697.5,-235.2"/>
<text text-anchor="start" x="700.4758" y="-242.9" font-family="Helvetica,sans-Serif" font-size="11.00" fill="#000000">uuid[2147483647]</text>
<polygon fill="#ffffff" stroke="transparent" points="478.5,-213.2 478.5,-235.2 697.5,-235.2 697.5,-213.2 478.5,-213.2"/>
<polygon fill="none" stroke="#000000" points="478.5,-213.2 478.5,-235.2 697.5,-235.2 697.5,-213.2 478.5,-213.2"/>
<image xlink:href="../../images/foreignKeys.png" width="11px" height="12px" preserveAspectRatio="xMinYMin meet" x="483.5" y="-230.2"/>
<text text-anchor="start" x="498.5" y="-220.3" font-family="Helvetica,sans-Serif" font-size="11.00" fill="#000000">person_identifier</text>
<polygon fill="none" stroke="#000000" points="697.5,-213.2 697.5,-235.2 791.5,-235.2 791.5,-213.2 697.5,-213.2"/>
<text text-anchor="start" x="700.5" y="-220.9" font-family="Helvetica,sans-Serif" font-size="11.00" fill="#000000">varchar[10]</text>
<polygon fill="none" stroke="#000000" points="478.5,-191.2 478.5,-213.2 697.5,-213.2 697.5,-191.2 478.5,-191.2"/>
<text text-anchor="start" x="498.5" y="-198.3" font-family="Helvetica,sans-Serif" font-size="11.00" fill="#000000">prison_code</text>
<polygon fill="none" stroke="#000000" points="697.5,-191.2 697.5,-213.2 791.5,-213.2 791.5,-191.2 697.5,-191.2"/>
<text text-anchor="start" x="700.5" y="-198.9" font-family="Helvetica,sans-Serif" font-size="11.00" fill="#000000">varchar[6]</text>
<polygon fill="none" stroke="#000000" points="478.5,-169.2 478.5,-191.2 697.5,-191.2 697.5,-169.2 478.5,-169.2"/>
<text text-anchor="start" x="498.5" y="-176.3" font-family="Helvetica,sans-Serif" font-size="11.00" fill="#000000">court_code</text>
<polygon fill="none" stroke="#000000" points="697.5,-169.2 697.5,-191.2 791.5,-191.2 791.5,-169.2 697.5,-169.2"/>
<text text-anchor="start" x="700.5" y="-176.9" font-family="Helvetica,sans-Serif" font-size="11.00" fill="#000000">varchar[6]</text>
<polygon fill="none" stroke="#000000" points="478.5,-147.2 478.5,-169.2 697.5,-169.2 697.5,-147.2 478.5,-147.2"/>
<image xlink:href="../../images/foreignKeys.png" width="11px" height="12px" preserveAspectRatio="xMinYMin meet" x="483.5" y="-164.2"/>
<text text-anchor="start" x="498.5" y="-154.3" font-family="Helvetica,sans-Serif" font-size="11.00" fill="#000000">reason_id</text>
<polygon fill="none" stroke="#000000" points="697.5,-147.2 697.5,-169.2 791.5,-169.2 791.5,-147.2 697.5,-147.2"/>
<text text-anchor="start" x="700.4758" y="-154.9" font-family="Helvetica,sans-Serif" font-size="11.00" fill="#000000">uuid[2147483647]</text>
<polygon fill="none" stroke="#000000" points="478.5,-125.2 478.5,-147.2 697.5,-147.2 697.5,-125.2 478.5,-125.2"/>
<text text-anchor="start" x="498.5" y="-132.3" font-family="Helvetica,sans-Serif" font-size="11.00" fill="#000000">direction</text>
<polygon fill="none" stroke="#000000" points="697.5,-125.2 697.5,-147.2 791.5,-147.2 791.5,-125.2 697.5,-125.2"/>
<text text-anchor="start" x="700.5" y="-132.9" font-family="Helvetica,sans-Serif" font-size="11.00" fill="#000000">varchar[3]</text>
<polygon fill="none" stroke="#000000" points="478.5,-103.2 478.5,-125.2 697.5,-125.2 697.5,-103.2 478.5,-103.2"/>
<text text-anchor="start" x="498.5" y="-110.3" font-family="Helvetica,sans-Serif" font-size="11.00" fill="#000000">occurred_at</text>
<polygon fill="none" stroke="#000000" points="697.5,-103.2 697.5,-125.2 791.5,-125.2 791.5,-103.2 697.5,-103.2"/>
<text text-anchor="start" x="700.5" y="-110.9" font-family="Helvetica,sans-Serif" font-size="11.00" fill="#000000">timestamp[29,6]</text>
<polygon fill="none" stroke="#000000" points="478.5,-81.2 478.5,-103.2 697.5,-103.2 697.5,-81.2 478.5,-81.2"/>
<text text-anchor="start" x="498.5" y="-88.3" font-family="Helvetica,sans-Serif" font-size="11.00" fill="#000000">comments</text>
<polygon fill="none" stroke="#000000" points="697.5,-81.2 697.5,-103.2 791.5,-103.2 791.5,-81.2 697.5,-81.2"/>
<text text-anchor="start" x="700.5" y="-88.9" font-family="Helvetica,sans-Serif" font-size="11.00" fill="#000000">text[2147483647]</text>
<polygon fill="#ffffff" stroke="transparent" points="478.5,-59.2 478.5,-81.2 697.5,-81.2 697.5,-59.2 478.5,-59.2"/>
<polygon fill="none" stroke="#000000" points="478.5,-59.2 478.5,-81.2 697.5,-81.2 697.5,-59.2 478.5,-59.2"/>
<text text-anchor="start" x="498.5" y="-66.3" font-family="Helvetica,sans-Serif" font-size="11.00" fill="#000000">legacy_id</text>
<polygon fill="none" stroke="#000000" points="697.5,-59.2 697.5,-81.2 791.5,-81.2 791.5,-59.2 697.5,-59.2"/>
<text text-anchor="start" x="700.5" y="-66.9" font-family="Helvetica,sans-Serif" font-size="11.00" fill="#000000">varchar[32]</text>
<polygon fill="#ffffff" stroke="transparent" points="478.5,-40.2 478.5,-59.2 592.5,-59.2 592.5,-40.2 478.5,-40.2"/>
<polygon fill="none" stroke="#000000" points="478.5,-40.2 478.5,-59.2 592.5,-59.2 592.5,-40.2 478.5,-40.2"/>
<text text-anchor="start" x="481.5" y="-46.3" font-family="Helvetica,sans-Serif" font-size="11.00" fill="#000000">&lt; 3</text>
<polygon fill="#ffffff" stroke="transparent" points="592.5,-40.2 592.5,-59.2 697.5,-59.2 697.5,-40.2 592.5,-40.2"/>
<polygon fill="none" stroke="#000000" points="592.5,-40.2 592.5,-59.2 697.5,-59.2 697.5,-40.2 592.5,-40.2"/>
<text text-anchor="start" x="688.3862" y="-46.3" font-family="Helvetica,sans-Serif" font-size="11.00" fill="#000000"> &#160;</text>
<polygon fill="#ffffff" stroke="transparent" points="697.5,-40.2 697.5,-59.2 791.5,-59.2 791.5,-40.2 697.5,-40.2"/>
<polygon fill="none" stroke="#000000" points="697.5,-40.2 697.5,-59.2 791.5,-59.2 791.5,-40.2 697.5,-40.2"/>
<text text-anchor="start" x="772.9053" y="-46.3" font-family="Helvetica,sans-Serif" font-size="11.00" fill="#000000">0 &gt;</text>
<polygon fill="none" stroke="#000000" stroke-width="2" points="477,-39.2 477,-325.2 792,-325.2 792,-39.2 477,-39.2"/>
</a>
</g>
</g>
<!-- court_appearance_movement&#45;&gt;court_appearance -->
<g id="edge3" class="edge">
<title>court_appearance_movement:w&#45;&gt;court_appearance:e</title>
<path fill="none" stroke="#000000" d="M464.1848,-249.2076C424.0504,-269.8865 489.5606,-390.2 427.5,-390.2"/>
<polygon fill="#000000" stroke="#000000" points="470.6709,-247.8449 479.2402,-249.7231 474.5855,-247.0225 478.5,-246.2 478.5,-246.2 478.5,-246.2 474.5855,-247.0225 477.7598,-242.6769 470.6709,-247.8449 470.6709,-247.8449"/>
<ellipse fill="none" stroke="#000000" cx="467.5393" cy="-248.5029" rx="3.2" ry="3.2"/>
</g>
<!-- court_appearance_movement&#45;&gt;person_summary -->
<g id="edge4" class="edge">
<title>court_appearance_movement:w&#45;&gt;person_summary:e</title>
<path fill="none" stroke="#000000" d="M464.3764,-220.5517C454.7525,-214.682 450.6535,-203.3777 435,-199.2 359.8525,-179.144 325.9876,-158.0294 260,-199.2 200.3865,-236.3937 260.7648,-341.2 190.5,-341.2"/>
<polygon fill="#000000" stroke="#000000" points="470.7542,-222.1991 477.5996,-227.6856 474.6271,-223.1996 478.5,-224.2 478.5,-224.2 478.5,-224.2 474.6271,-223.1996 479.4004,-220.7144 470.7542,-222.1991 470.7542,-222.1991"/>
<ellipse fill="none" stroke="#000000" cx="467.6559" cy="-221.3988" rx="3.2" ry="3.2"/>
</g>
<!-- court_appearance_movement&#45;&gt;court_appearance_reason -->
<g id="edge5" class="edge">
<title>court_appearance_movement:w&#45;&gt;court_appearance_reason:e</title>
<path fill="none" stroke="#000000" d="M463.8884,-158.0414C377.6828,-156.1721 344.9948,-139.0497 260,-175.2 237.8381,-184.626 243.5832,-211.2 219.5,-211.2"/>
<polygon fill="#000000" stroke="#000000" points="470.5005,-158.1131 478.4609,-161.7998 474.5002,-158.1566 478.5,-158.2 478.5,-158.2 478.5,-158.2 474.5002,-158.1566 478.5391,-154.6002 470.5005,-158.1131 470.5005,-158.1131"/>
<ellipse fill="none" stroke="#000000" cx="467.3007" cy="-158.0783" rx="3.2" ry="3.2"/>
</g>
</g>
</svg>
