<?xml version="1.0" encoding="UTF-8" standalone="no"?>
<!DOCTYPE svg PUBLIC "-//W3C//DTD SVG 1.1//EN"
 "http://www.w3.org/Graphics/SVG/1.1/DTD/svg11.dtd">
<!-- Generated by graphviz version 2.40.1 (20161225.0304)
 -->
<!-- Title: oneDegreeRelationshipsDiagramImplied Pages: 1 -->
<svg width="809pt" height="536pt"
 viewBox="0.00 0.00 809.00 536.20" xmlns="http://www.w3.org/2000/svg" xmlns:xlink="http://www.w3.org/1999/xlink">
<g id="graph0" class="graph" transform="scale(1 1) rotate(0) translate(4 532.2)">
<title>oneDegreeRelationshipsDiagramImplied</title>
<polygon fill="#ffffff" stroke="transparent" points="-4,4 -4,-532.2 805,-532.2 805,4 -4,4"/>
<text text-anchor="middle" x="72.4936" y="-7.3" font-family="Helvetica,sans-Serif" font-size="11.00" fill="#000000">Generated by SchemaSpy</text>
<!-- court_appearance -->
<g id="node1" class="node">
<title>court_appearance</title>
<g id="a_node1"><a xlink:href="../../tables/court_appearance.html" xlink:title="court_appearance" target="_top">
<polygon fill="#ffffff" stroke="transparent" points="268,-152.7 268,-462.7 507,-462.7 507,-152.7 268,-152.7"/>
<polygon fill="#f5f5f5" stroke="transparent" points="270.5,-437.7 270.5,-460.7 505.5,-460.7 505.5,-437.7 270.5,-437.7"/>
<polygon fill="none" stroke="#000000" points="270.5,-437.7 270.5,-460.7 505.5,-460.7 505.5,-437.7 270.5,-437.7"/>
<text text-anchor="start" x="275.5" y="-446.3" font-family="Helvetica,sans-Serif" font-weight="bold" font-size="11.00" fill="#000000">court_appearance</text>
<text text-anchor="start" x="470.5437" y="-445.8" font-family="Helvetica,sans-Serif" font-size="11.00" fill="#000000">[table]</text>
<polygon fill="none" stroke="#000000" points="270.5,-415.7 270.5,-437.7 411.5,-437.7 411.5,-415.7 270.5,-415.7"/>
<image xlink:href="../../images/primaryKeys.png" width="11px" height="12px" preserveAspectRatio="xMinYMin meet" x="275.5" y="-432.7"/>
<text text-anchor="start" x="290.5" y="-422.8" font-family="Helvetica,sans-Serif" font-size="11.00" fill="#000000">id</text>
<polygon fill="none" stroke="#000000" points="411.5,-415.7 411.5,-437.7 505.5,-437.7 505.5,-415.7 411.5,-415.7"/>
<text text-anchor="start" x="414.4758" y="-423.4" font-family="Helvetica,sans-Serif" font-size="11.00" fill="#000000">uuid[2147483647]</text>
<polygon fill="none" stroke="#000000" points="270.5,-393.7 270.5,-415.7 411.5,-415.7 411.5,-393.7 270.5,-393.7"/>
<text text-anchor="start" x="290.5" y="-400.8" font-family="Helvetica,sans-Serif" font-size="11.00" fill="#000000">version</text>
<polygon fill="none" stroke="#000000" points="411.5,-393.7 411.5,-415.7 505.5,-415.7 505.5,-393.7 411.5,-393.7"/>
<text text-anchor="start" x="414.5" y="-401.4" font-family="Helvetica,sans-Serif" font-size="11.00" fill="#000000">int4[10]</text>
<polygon fill="#ffffff" stroke="transparent" points="270.5,-371.7 270.5,-393.7 411.5,-393.7 411.5,-371.7 270.5,-371.7"/>
<polygon fill="none" stroke="#000000" points="270.5,-371.7 270.5,-393.7 411.5,-393.7 411.5,-371.7 270.5,-371.7"/>
<image xlink:href="../../images/foreignKeys.png" width="11px" height="12px" preserveAspectRatio="xMinYMin meet" x="275.5" y="-388.7"/>
<text text-anchor="start" x="290.5" y="-378.8" font-family="Helvetica,sans-Serif" font-size="11.00" fill="#000000">person_identifier</text>
<polygon fill="none" stroke="#000000" points="411.5,-371.7 411.5,-393.7 505.5,-393.7 505.5,-371.7 411.5,-371.7"/>
<text text-anchor="start" x="414.5" y="-379.4" font-family="Helvetica,sans-Serif" font-size="11.00" fill="#000000">varchar[10]</text>
<polygon fill="#ffffff" stroke="transparent" points="270.5,-349.7 270.5,-371.7 411.5,-371.7 411.5,-349.7 270.5,-349.7"/>
<polygon fill="none" stroke="#000000" points="270.5,-349.7 270.5,-371.7 411.5,-371.7 411.5,-349.7 270.5,-349.7"/>
<text text-anchor="start" x="290.5" y="-356.8" font-family="Helvetica,sans-Serif" font-size="11.00" fill="#000000">prison_code</text>
<polygon fill="none" stroke="#000000" points="411.5,-349.7 411.5,-371.7 505.5,-371.7 505.5,-349.7 411.5,-349.7"/>
<text text-anchor="start" x="414.5" y="-357.4" font-family="Helvetica,sans-Serif" font-size="11.00" fill="#000000">varchar[6]</text>
<polygon fill="none" stroke="#000000" points="270.5,-327.7 270.5,-349.7 411.5,-349.7 411.5,-327.7 270.5,-327.7"/>
<text text-anchor="start" x="290.5" y="-334.8" font-family="Helvetica,sans-Serif" font-size="11.00" fill="#000000">court_code</text>
<polygon fill="none" stroke="#000000" points="411.5,-327.7 411.5,-349.7 505.5,-349.7 505.5,-327.7 411.5,-327.7"/>
<text text-anchor="start" x="414.5" y="-335.4" font-family="Helvetica,sans-Serif" font-size="11.00" fill="#000000">varchar[6]</text>
<polygon fill="#ffffff" stroke="transparent" points="270.5,-305.7 270.5,-327.7 411.5,-327.7 411.5,-305.7 270.5,-305.7"/>
<polygon fill="none" stroke="#000000" points="270.5,-305.7 270.5,-327.7 411.5,-327.7 411.5,-305.7 270.5,-305.7"/>
<image xlink:href="../../images/foreignKeys.png" width="11px" height="12px" preserveAspectRatio="xMinYMin meet" x="275.5" y="-322.7"/>
<text text-anchor="start" x="290.5" y="-312.8" font-family="Helvetica,sans-Serif" font-size="11.00" fill="#000000">reason_id</text>
<polygon fill="none" stroke="#000000" points="411.5,-305.7 411.5,-327.7 505.5,-327.7 505.5,-305.7 411.5,-305.7"/>
<text text-anchor="start" x="414.4758" y="-313.4" font-family="Helvetica,sans-Serif" font-size="11.00" fill="#000000">uuid[2147483647]</text>
<polygon fill="none" stroke="#000000" points="270.5,-283.7 270.5,-305.7 411.5,-305.7 411.5,-283.7 270.5,-283.7"/>
<text text-anchor="start" x="290.5" y="-290.8" font-family="Helvetica,sans-Serif" font-size="11.00" fill="#000000">external</text>
<polygon fill="none" stroke="#000000" points="411.5,-283.7 411.5,-305.7 505.5,-305.7 505.5,-283.7 411.5,-283.7"/>
<text text-anchor="start" x="414.5" y="-291.4" font-family="Helvetica,sans-Serif" font-size="11.00" fill="#000000">bool[1]</text>
<polygon fill="#ffffff" stroke="transparent" points="270.5,-261.7 270.5,-283.7 411.5,-283.7 411.5,-261.7 270.5,-261.7"/>
<polygon fill="none" stroke="#000000" points="270.5,-261.7 270.5,-283.7 411.5,-283.7 411.5,-261.7 270.5,-261.7"/>
<image xlink:href="../../images/foreignKeys.png" width="11px" height="12px" preserveAspectRatio="xMinYMin meet" x="275.5" y="-278.7"/>
<text text-anchor="start" x="290.5" y="-268.8" font-family="Helvetica,sans-Serif" font-size="11.00" fill="#000000">status_id</text>
<polygon fill="none" stroke="#000000" points="411.5,-261.7 411.5,-283.7 505.5,-283.7 505.5,-261.7 411.5,-261.7"/>
<text text-anchor="start" x="414.4758" y="-269.4" font-family="Helvetica,sans-Serif" font-size="11.00" fill="#000000">uuid[2147483647]</text>
<polygon fill="#ffffff" stroke="transparent" points="270.5,-239.7 270.5,-261.7 411.5,-261.7 411.5,-239.7 270.5,-239.7"/>
<polygon fill="none" stroke="#000000" points="270.5,-239.7 270.5,-261.7 411.5,-261.7 411.5,-239.7 270.5,-239.7"/>
<text text-anchor="start" x="290.5" y="-246.8" font-family="Helvetica,sans-Serif" font-size="11.00" fill="#000000">start</text>
<polygon fill="none" stroke="#000000" points="411.5,-239.7 411.5,-261.7 505.5,-261.7 505.5,-239.7 411.5,-239.7"/>
<text text-anchor="start" x="414.5" y="-247.4" font-family="Helvetica,sans-Serif" font-size="11.00" fill="#000000">timestamp[29,6]</text>
<polygon fill="none" stroke="#000000" points="270.5,-217.7 270.5,-239.7 411.5,-239.7 411.5,-217.7 270.5,-217.7"/>
<text text-anchor="start" x="290.5" y="-224.8" font-family="Helvetica,sans-Serif" font-size="11.00" fill="#000000">end</text>
<polygon fill="none" stroke="#000000" points="411.5,-217.7 411.5,-239.7 505.5,-239.7 505.5,-217.7 411.5,-217.7"/>
<text text-anchor="start" x="414.5" y="-225.4" font-family="Helvetica,sans-Serif" font-size="11.00" fill="#000000">timestamp[29,6]</text>
<polygon fill="none" stroke="#000000" points="270.5,-195.7 270.5,-217.7 411.5,-217.7 411.5,-195.7 270.5,-195.7"/>
<text text-anchor="start" x="290.5" y="-202.8" font-family="Helvetica,sans-Serif" font-size="11.00" fill="#000000">comments</text>
<polygon fill="none" stroke="#000000" points="411.5,-195.7 411.5,-217.7 505.5,-217.7 505.5,-195.7 411.5,-195.7"/>
<text text-anchor="start" x="414.5" y="-203.4" font-family="Helvetica,sans-Serif" font-size="11.00" fill="#000000">text[2147483647]</text>
<polygon fill="#ffffff" stroke="transparent" points="270.5,-173.7 270.5,-195.7 411.5,-195.7 411.5,-173.7 270.5,-173.7"/>
<polygon fill="none" stroke="#000000" points="270.5,-173.7 270.5,-195.7 411.5,-195.7 411.5,-173.7 270.5,-173.7"/>
<image xlink:href="../../images/foreignKeys.png" width="11px" height="12px" preserveAspectRatio="xMinYMin meet" x="275.5" y="-190.7"/>
<text text-anchor="start" x="290.5" y="-180.8" font-family="Helvetica,sans-Serif" font-size="11.00" fill="#000000">legacy_id</text>
<polygon fill="none" stroke="#000000" points="411.5,-173.7 411.5,-195.7 505.5,-195.7 505.5,-173.7 411.5,-173.7"/>
<text text-anchor="start" x="414.5" y="-181.4" font-family="Helvetica,sans-Serif" font-size="11.00" fill="#000000">int8[19]</text>
<polygon fill="#ffffff" stroke="transparent" points="270.5,-154.7 270.5,-173.7 345.5,-173.7 345.5,-154.7 270.5,-154.7"/>
<polygon fill="none" stroke="#000000" points="270.5,-154.7 270.5,-173.7 345.5,-173.7 345.5,-154.7 270.5,-154.7"/>
<text text-anchor="start" x="273.5" y="-160.8" font-family="Helvetica,sans-Serif" font-size="11.00" fill="#000000">&lt; 4</text>
<polygon fill="#ffffff" stroke="transparent" points="345.5,-154.7 345.5,-173.7 411.5,-173.7 411.5,-154.7 345.5,-154.7"/>
<polygon fill="none" stroke="#000000" points="345.5,-154.7 345.5,-173.7 411.5,-173.7 411.5,-154.7 345.5,-154.7"/>
<text text-anchor="start" x="402.3862" y="-160.8" font-family="Helvetica,sans-Serif" font-size="11.00" fill="#000000"> &#160;</text>
<polygon fill="#ffffff" stroke="transparent" points="411.5,-154.7 411.5,-173.7 505.5,-173.7 505.5,-154.7 411.5,-154.7"/>
<polygon fill="none" stroke="#000000" points="411.5,-154.7 411.5,-173.7 505.5,-173.7 505.5,-154.7 411.5,-154.7"/>
<text text-anchor="start" x="486.9053" y="-160.8" font-family="Helvetica,sans-Serif" font-size="11.00" fill="#000000">1 &gt;</text>
<polygon fill="none" stroke="#000000" stroke-width="2" points="269,-153.7 269,-461.7 506,-461.7 506,-153.7 269,-153.7"/>
</a>
</g>
</g>
<!-- audit_revision -->
<g id="node2" class="node">
<title>audit_revision</title>
<g id="a_node2"><a xlink:href="../../tables/audit_revision.html" xlink:title="audit_revision" target="_top">
<polygon fill="#ffffff" stroke="transparent" points="46.5,-38.2 46.5,-121.2 180.5,-121.2 180.5,-38.2 46.5,-38.2"/>
<polygon fill="#f5f5f5" stroke="transparent" points="46.5,-97.7 46.5,-120.7 180.5,-120.7 180.5,-97.7 46.5,-97.7"/>
<polygon fill="none" stroke="#000000" points="46.5,-97.7 46.5,-120.7 180.5,-120.7 180.5,-97.7 46.5,-97.7"/>
<text text-anchor="start" x="51.5" y="-106.3" font-family="Helvetica,sans-Serif" font-weight="bold" font-size="11.00" fill="#000000">audit_revision</text>
<text text-anchor="start" x="146.0219" y="-105.8" font-family="Helvetica,sans-Serif" font-size="11.00" fill="#000000">[table]</text>
<polygon fill="none" stroke="#000000" points="46.5,-75.7 46.5,-97.7 180.5,-97.7 180.5,-75.7 46.5,-75.7"/>
<image xlink:href="../../images/primaryKeys.png" width="11px" height="12px" preserveAspectRatio="xMinYMin meet" x="51.5" y="-92.7"/>
<text text-anchor="start" x="66.5" y="-82.8" font-family="Helvetica,sans-Serif" font-size="11.00" fill="#000000">id</text>
<polygon fill="none" stroke="#000000" points="46.5,-56.7 46.5,-75.7 180.5,-75.7 180.5,-56.7 46.5,-56.7"/>
<text text-anchor="start" x="49.5" y="-62.8" font-family="Helvetica,sans-Serif" font-size="11.00" fill="#000000">...</text>
<polygon fill="#ffffff" stroke="transparent" points="46.5,-37.7 46.5,-56.7 102.5,-56.7 102.5,-37.7 46.5,-37.7"/>
<polygon fill="none" stroke="#000000" points="46.5,-37.7 46.5,-56.7 102.5,-56.7 102.5,-37.7 46.5,-37.7"/>
<text text-anchor="start" x="49.5" y="-43.8" font-family="Helvetica,sans-Serif" font-size="11.00" fill="#000000"> &#160;</text>
<polygon fill="#ffffff" stroke="transparent" points="102.5,-37.7 102.5,-56.7 136.5,-56.7 136.5,-37.7 102.5,-37.7"/>
<polygon fill="none" stroke="#000000" points="102.5,-37.7 102.5,-56.7 136.5,-56.7 136.5,-37.7 102.5,-37.7"/>
<text text-anchor="start" x="127.3862" y="-43.8" font-family="Helvetica,sans-Serif" font-size="11.00" fill="#000000"> &#160;</text>
<polygon fill="#ffffff" stroke="transparent" points="136.5,-37.7 136.5,-56.7 180.5,-56.7 180.5,-37.7 136.5,-37.7"/>
<polygon fill="none" stroke="#000000" points="136.5,-37.7 136.5,-56.7 180.5,-56.7 180.5,-37.7 136.5,-37.7"/>
<text text-anchor="start" x="161.9053" y="-43.8" font-family="Helvetica,sans-Serif" font-size="11.00" fill="#000000">4 &gt;</text>
</a>
</g>
</g>
<!-- court_appearance&#45;&gt;audit_revision -->
<g id="edge1" class="edge">
<title>court_appearance:w&#45;&gt;audit_revision:e</title>
<path fill="none" stroke="#000000" stroke-dasharray="5,2" d="M259.7195,-182.9931C241.6113,-176.2584 244.7459,-150.959 227,-131.7 207.5118,-110.55 209.2595,-86.7 180.5,-86.7"/>
<polygon fill="#000000" stroke="#000000" points="270.3354,-180.6241 269.0843,-188.5257 267.5039,-188.2754 268.7551,-180.3739 270.3354,-180.6241"/>
<polyline fill="none" stroke="#000000" points="270.5,-184.7 266.5492,-184.0744 "/>
<ellipse fill="none" stroke="#000000" cx="263.3886" cy="-183.5739" rx="3.2" ry="3.2"/>
</g>
<!-- person_summary -->
<g id="node3" class="node">
<title>person_summary</title>
<g id="a_node3"><a xlink:href="../../tables/person_summary.html" xlink:title="person_summary" target="_top">
<polygon fill="#ffffff" stroke="transparent" points="36.5,-438.2 36.5,-521.2 190.5,-521.2 190.5,-438.2 36.5,-438.2"/>
<polygon fill="#f5f5f5" stroke="transparent" points="36.5,-497.7 36.5,-520.7 190.5,-520.7 190.5,-497.7 36.5,-497.7"/>
<polygon fill="none" stroke="#000000" points="36.5,-497.7 36.5,-520.7 190.5,-520.7 190.5,-497.7 36.5,-497.7"/>
<text text-anchor="start" x="41.5" y="-506.3" font-family="Helvetica,sans-Serif" font-weight="bold" font-size="11.00" fill="#000000">person_summary</text>
<text text-anchor="start" x="156.0219" y="-505.8" font-family="Helvetica,sans-Serif" font-size="11.00" fill="#000000">[table]</text>
<polygon fill="none" stroke="#000000" points="36.5,-475.7 36.5,-497.7 190.5,-497.7 190.5,-475.7 36.5,-475.7"/>
<image xlink:href="../../images/primaryKeys.png" width="11px" height="12px" preserveAspectRatio="xMinYMin meet" x="41.5" y="-492.7"/>
<text text-anchor="start" x="65.5" y="-482.8" font-family="Helvetica,sans-Serif" font-size="11.00" fill="#000000">person_identifier</text>
<polygon fill="none" stroke="#000000" points="36.5,-456.7 36.5,-475.7 190.5,-475.7 190.5,-456.7 36.5,-456.7"/>
<text text-anchor="start" x="39.5" y="-462.8" font-family="Helvetica,sans-Serif" font-size="11.00" fill="#000000">...</text>
<polygon fill="#ffffff" stroke="transparent" points="36.5,-437.7 36.5,-456.7 102.5,-456.7 102.5,-437.7 36.5,-437.7"/>
<polygon fill="none" stroke="#000000" points="36.5,-437.7 36.5,-456.7 102.5,-456.7 102.5,-437.7 36.5,-437.7"/>
<text text-anchor="start" x="39.5" y="-443.8" font-family="Helvetica,sans-Serif" font-size="11.00" fill="#000000"> &#160;</text>
<polygon fill="#ffffff" stroke="transparent" points="102.5,-437.7 102.5,-456.7 141.5,-456.7 141.5,-437.7 102.5,-437.7"/>
<polygon fill="none" stroke="#000000" points="102.5,-437.7 102.5,-456.7 141.5,-456.7 141.5,-437.7 102.5,-437.7"/>
<text text-anchor="start" x="132.3862" y="-443.8" font-family="Helvetica,sans-Serif" font-size="11.00" fill="#000000"> &#160;</text>
<polygon fill="#ffffff" stroke="transparent" points="141.5,-437.7 141.5,-456.7 190.5,-456.7 190.5,-437.7 141.5,-437.7"/>
<polygon fill="none" stroke="#000000" points="141.5,-437.7 141.5,-456.7 190.5,-456.7 190.5,-437.7 141.5,-437.7"/>
<text text-anchor="start" x="171.9053" y="-443.8" font-family="Helvetica,sans-Serif" font-size="11.00" fill="#000000">2 &gt;</text>
</a>
</g>
</g>
<!-- court_appearance&#45;&gt;person_summary -->
<g id="edge2" class="edge">
<title>court_appearance:w&#45;&gt;person_summary:e</title>
<path fill="none" stroke="#000000" d="M255.955,-385.4817C218.4335,-402.0207 243.1206,-486.7 190.5,-486.7"/>
<polygon fill="#000000" stroke="#000000" points="262.6424,-384.2028 271.1763,-386.2359 266.5712,-383.4514 270.5,-382.7 270.5,-382.7 270.5,-382.7 266.5712,-383.4514 269.8237,-379.1641 262.6424,-384.2028 262.6424,-384.2028"/>
<ellipse fill="none" stroke="#000000" cx="259.4994" cy="-384.8039" rx="3.2" ry="3.2"/>
</g>
<!-- court_appearance_reason -->
<g id="node4" class="node">
<title>court_appearance_reason</title>
<g id="a_node4"><a xlink:href="../../tables/court_appearance_reason.html" xlink:title="court_appearance_reason" target="_top">
<polygon fill="#ffffff" stroke="transparent" points="8,-290.2 8,-417.2 219,-417.2 219,-290.2 8,-290.2"/>
<polygon fill="#f5f5f5" stroke="transparent" points="8.5,-393.7 8.5,-416.7 219.5,-416.7 219.5,-393.7 8.5,-393.7"/>
<polygon fill="none" stroke="#000000" points="8.5,-393.7 8.5,-416.7 219.5,-416.7 219.5,-393.7 8.5,-393.7"/>
<text text-anchor="start" x="13.5" y="-402.3" font-family="Helvetica,sans-Serif" font-weight="bold" font-size="11.00" fill="#000000">court_appearance_reason</text>
<text text-anchor="start" x="185.0219" y="-401.8" font-family="Helvetica,sans-Serif" font-size="11.00" fill="#000000">[table]</text>
<polygon fill="none" stroke="#000000" points="8.5,-371.7 8.5,-393.7 219.5,-393.7 219.5,-371.7 8.5,-371.7"/>
<image xlink:href="../../images/primaryKeys.png" width="11px" height="12px" preserveAspectRatio="xMinYMin meet" x="13.5" y="-388.7"/>
<text text-anchor="start" x="37.5" y="-378.8" font-family="Helvetica,sans-Serif" font-size="11.00" fill="#000000">id</text>
<polygon fill="#ffffff" stroke="transparent" points="8.5,-349.7 8.5,-371.7 219.5,-371.7 219.5,-349.7 8.5,-349.7"/>
<polygon fill="none" stroke="#000000" points="8.5,-349.7 8.5,-371.7 219.5,-371.7 219.5,-349.7 8.5,-349.7"/>
<text text-anchor="start" x="37.5" y="-356.8" font-family="Helvetica,sans-Serif" font-size="11.00" fill="#000000">code</text>
<polygon fill="#ffffff" stroke="transparent" points="8.5,-327.7 8.5,-349.7 219.5,-349.7 219.5,-327.7 8.5,-327.7"/>
<polygon fill="none" stroke="#000000" points="8.5,-327.7 8.5,-349.7 219.5,-349.7 219.5,-327.7 8.5,-327.7"/>
<text text-anchor="start" x="37.5" y="-334.8" font-family="Helvetica,sans-Serif" font-size="11.00" fill="#000000">sequence_number</text>
<polygon fill="none" stroke="#000000" points="8.5,-308.7 8.5,-327.7 219.5,-327.7 219.5,-308.7 8.5,-308.7"/>
<text text-anchor="start" x="11.5" y="-314.8" font-family="Helvetica,sans-Serif" font-size="11.00" fill="#000000">...</text>
<polygon fill="#ffffff" stroke="transparent" points="8.5,-289.7 8.5,-308.7 103.5,-308.7 103.5,-289.7 8.5,-289.7"/>
<polygon fill="none" stroke="#000000" points="8.5,-289.7 8.5,-308.7 103.5,-308.7 103.5,-289.7 8.5,-289.7"/>
<text text-anchor="start" x="11.5" y="-295.8" font-family="Helvetica,sans-Serif" font-size="11.00" fill="#000000"> &#160;</text>
<polygon fill="#ffffff" stroke="transparent" points="103.5,-289.7 103.5,-308.7 156.5,-308.7 156.5,-289.7 103.5,-289.7"/>
<polygon fill="none" stroke="#000000" points="103.5,-289.7 103.5,-308.7 156.5,-308.7 156.5,-289.7 103.5,-289.7"/>
<text text-anchor="start" x="147.3862" y="-295.8" font-family="Helvetica,sans-Serif" font-size="11.00" fill="#000000"> &#160;</text>
<polygon fill="#ffffff" stroke="transparent" points="156.5,-289.7 156.5,-308.7 219.5,-308.7 219.5,-289.7 156.5,-289.7"/>
<polygon fill="none" stroke="#000000" points="156.5,-289.7 156.5,-308.7 219.5,-308.7 219.5,-289.7 156.5,-289.7"/>
<text text-anchor="start" x="200.9053" y="-295.8" font-family="Helvetica,sans-Serif" font-size="11.00" fill="#000000">1 &gt;</text>
</a>
</g>
</g>
<!-- court_appearance&#45;&gt;court_appearance_reason -->
<g id="edge3" class="edge">
<title>court_appearance:w&#45;&gt;court_appearance_reason:e</title>
<path fill="none" stroke="#000000" d="M256.5846,-321.4466C239.402,-336.5798 250.4886,-382.7 219.5,-382.7"/>
<polygon fill="#000000" stroke="#000000" points="262.9284,-319.2827 271.6622,-320.1072 266.7142,-317.9914 270.5,-316.7 270.5,-316.7 270.5,-316.7 266.7142,-317.9914 269.3378,-313.2928 262.9284,-319.2827 262.9284,-319.2827"/>
<ellipse fill="none" stroke="#000000" cx="259.8997" cy="-320.3158" rx="3.2" ry="3.2"/>
</g>
<!-- court_appearance_status -->
<g id="node5" class="node">
<title>court_appearance_status</title>
<g id="a_node5"><a xlink:href="../../tables/court_appearance_status.html" xlink:title="court_appearance_status" target="_top">
<polygon fill="#ffffff" stroke="transparent" points="9.5,-142.2 9.5,-269.2 217.5,-269.2 217.5,-142.2 9.5,-142.2"/>
<polygon fill="#f5f5f5" stroke="transparent" points="9.5,-245.7 9.5,-268.7 217.5,-268.7 217.5,-245.7 9.5,-245.7"/>
<polygon fill="none" stroke="#000000" points="9.5,-245.7 9.5,-268.7 217.5,-268.7 217.5,-245.7 9.5,-245.7"/>
<text text-anchor="start" x="14.5" y="-254.3" font-family="Helvetica,sans-Serif" font-weight="bold" font-size="11.00" fill="#000000">court_appearance_status</text>
<text text-anchor="start" x="183.0219" y="-253.8" font-family="Helvetica,sans-Serif" font-size="11.00" fill="#000000">[table]</text>
<polygon fill="none" stroke="#000000" points="9.5,-223.7 9.5,-245.7 217.5,-245.7 217.5,-223.7 9.5,-223.7"/>
<image xlink:href="../../images/primaryKeys.png" width="11px" height="12px" preserveAspectRatio="xMinYMin meet" x="14.5" y="-240.7"/>
<text text-anchor="start" x="38.5" y="-230.8" font-family="Helvetica,sans-Serif" font-size="11.00" fill="#000000">id</text>
<polygon fill="#ffffff" stroke="transparent" points="9.5,-201.7 9.5,-223.7 217.5,-223.7 217.5,-201.7 9.5,-201.7"/>
<polygon fill="none" stroke="#000000" points="9.5,-201.7 9.5,-223.7 217.5,-223.7 217.5,-201.7 9.5,-201.7"/>
<text text-anchor="start" x="38.5" y="-208.8" font-family="Helvetica,sans-Serif" font-size="11.00" fill="#000000">code</text>
<polygon fill="#ffffff" stroke="transparent" points="9.5,-179.7 9.5,-201.7 217.5,-201.7 217.5,-179.7 9.5,-179.7"/>
<polygon fill="none" stroke="#000000" points="9.5,-179.7 9.5,-201.7 217.5,-201.7 217.5,-179.7 9.5,-179.7"/>
<text text-anchor="start" x="38.5" y="-186.8" font-family="Helvetica,sans-Serif" font-size="11.00" fill="#000000">sequence_number</text>
<polygon fill="none" stroke="#000000" points="9.5,-160.7 9.5,-179.7 217.5,-179.7 217.5,-160.7 9.5,-160.7"/>
<text text-anchor="start" x="12.5" y="-166.8" font-family="Helvetica,sans-Serif" font-size="11.00" fill="#000000">...</text>
<polygon fill="#ffffff" stroke="transparent" points="9.5,-141.7 9.5,-160.7 102.5,-160.7 102.5,-141.7 9.5,-141.7"/>
<polygon fill="none" stroke="#000000" points="9.5,-141.7 9.5,-160.7 102.5,-160.7 102.5,-141.7 9.5,-141.7"/>
<text text-anchor="start" x="12.5" y="-147.8" font-family="Helvetica,sans-Serif" font-size="11.00" fill="#000000"> &#160;</text>
<polygon fill="#ffffff" stroke="transparent" points="102.5,-141.7 102.5,-160.7 155.5,-160.7 155.5,-141.7 102.5,-141.7"/>
<polygon fill="none" stroke="#000000" points="102.5,-141.7 102.5,-160.7 155.5,-160.7 155.5,-141.7 102.5,-141.7"/>
<text text-anchor="start" x="146.3862" y="-147.8" font-family="Helvetica,sans-Serif" font-size="11.00" fill="#000000"> &#160;</text>
<polygon fill="#ffffff" stroke="transparent" points="155.5,-141.7 155.5,-160.7 217.5,-160.7 217.5,-141.7 155.5,-141.7"/>
<polygon fill="none" stroke="#000000" points="155.5,-141.7 155.5,-160.7 217.5,-160.7 217.5,-141.7 155.5,-141.7"/>
<text text-anchor="start" x="198.9053" y="-147.8" font-family="Helvetica,sans-Serif" font-size="11.00" fill="#000000">1 &gt;</text>
</a>
</g>
</g>
<!-- court_appearance&#45;&gt;court_appearance_status -->
<g id="edge4" class="edge">
<title>court_appearance:w&#45;&gt;court_appearance_status:e</title>
<path fill="none" stroke="#000000" d="M256.4712,-268.6333C242.1333,-258.8304 240.597,-234.7 217.5,-234.7"/>
<polygon fill="#000000" stroke="#000000" points="262.8163,-270.4726 269.4977,-276.1577 266.6582,-271.5863 270.5,-272.7 270.5,-272.7 270.5,-272.7 266.6582,-271.5863 271.5023,-269.2423 262.8163,-270.4726 262.8163,-270.4726"/>
<ellipse fill="none" stroke="#000000" cx="259.7428" cy="-269.5817" rx="3.2" ry="3.2"/>
</g>
<!-- court_appearance_movement -->
<g id="node6" class="node">
<title>court_appearance_movement</title>
<g id="a_node6"><a xlink:href="../../tables/court_appearance_movement.html" xlink:title="court_appearance_movement" target="_top">
<polygon fill="#ffffff" stroke="transparent" points="556,-375.2 556,-524.2 793,-524.2 793,-375.2 556,-375.2"/>
<polygon fill="#f5f5f5" stroke="transparent" points="556.5,-500.7 556.5,-523.7 793.5,-523.7 793.5,-500.7 556.5,-500.7"/>
<polygon fill="none" stroke="#000000" points="556.5,-500.7 556.5,-523.7 793.5,-523.7 793.5,-500.7 556.5,-500.7"/>
<text text-anchor="start" x="561.5" y="-509.3" font-family="Helvetica,sans-Serif" font-weight="bold" font-size="11.00" fill="#000000">court_appearance_movement</text>
<text text-anchor="start" x="759.0219" y="-508.8" font-family="Helvetica,sans-Serif" font-size="11.00" fill="#000000">[table]</text>
<polygon fill="none" stroke="#000000" points="556.5,-478.7 556.5,-500.7 793.5,-500.7 793.5,-478.7 556.5,-478.7"/>
<image xlink:href="../../images/primaryKeys.png" width="11px" height="12px" preserveAspectRatio="xMinYMin meet" x="561.5" y="-495.7"/>
<text text-anchor="start" x="585.5" y="-485.8" font-family="Helvetica,sans-Serif" font-size="11.00" fill="#000000">id</text>
<polygon fill="none" stroke="#000000" points="556.5,-456.7 556.5,-478.7 793.5,-478.7 793.5,-456.7 556.5,-456.7"/>
<image xlink:href="../../images/foreignKeys.png" width="11px" height="12px" preserveAspectRatio="xMinYMin meet" x="561.5" y="-473.7"/>
<text text-anchor="start" x="585.5" y="-463.8" font-family="Helvetica,sans-Serif" font-size="11.00" fill="#000000">court_appearance_id</text>
<polygon fill="#ffffff" stroke="transparent" points="556.5,-434.7 556.5,-456.7 793.5,-456.7 793.5,-434.7 556.5,-434.7"/>
<polygon fill="none" stroke="#000000" points="556.5,-434.7 556.5,-456.7 793.5,-456.7 793.5,-434.7 556.5,-434.7"/>
<image xlink:href="../../images/foreignKeys.png" width="11px" height="12px" preserveAspectRatio="xMinYMin meet" x="561.5" y="-451.7"/>
<text text-anchor="start" x="585.5" y="-441.8" font-family="Helvetica,sans-Serif" font-size="11.00" fill="#000000">person_identifier</text>
<polygon fill="#ffffff" stroke="transparent" points="556.5,-412.7 556.5,-434.7 793.5,-434.7 793.5,-412.7 556.5,-412.7"/>
<polygon fill="none" stroke="#000000" points="556.5,-412.7 556.5,-434.7 793.5,-434.7 793.5,-412.7 556.5,-412.7"/>
<text text-anchor="start" x="585.5" y="-419.8" font-family="Helvetica,sans-Serif" font-size="11.00" fill="#000000">legacy_id</text>
<polygon fill="none" stroke="#000000" points="556.5,-393.7 556.5,-412.7 793.5,-412.7 793.5,-393.7 556.5,-393.7"/>
<text text-anchor="start" x="559.5" y="-399.8" font-family="Helvetica,sans-Serif" font-size="11.00" fill="#000000">...</text>
<polygon fill="#ffffff" stroke="transparent" points="556.5,-374.7 556.5,-393.7 673.5,-393.7 673.5,-374.7 556.5,-374.7"/>
<polygon fill="none" stroke="#000000" points="556.5,-374.7 556.5,-393.7 673.5,-393.7 673.5,-374.7 556.5,-374.7"/>
<text text-anchor="start" x="559.5" y="-380.8" font-family="Helvetica,sans-Serif" font-size="11.00" fill="#000000">&lt; 2</text>
<polygon fill="#ffffff" stroke="transparent" points="673.5,-374.7 673.5,-393.7 733.5,-393.7 733.5,-374.7 673.5,-374.7"/>
<polygon fill="none" stroke="#000000" points="673.5,-374.7 673.5,-393.7 733.5,-393.7 733.5,-374.7 673.5,-374.7"/>
<text text-anchor="start" x="724.3862" y="-380.8" font-family="Helvetica,sans-Serif" font-size="11.00" fill="#000000"> &#160;</text>
<polygon fill="#ffffff" stroke="transparent" points="733.5,-374.7 733.5,-393.7 793.5,-393.7 793.5,-374.7 733.5,-374.7"/>
<polygon fill="none" stroke="#000000" points="733.5,-374.7 733.5,-393.7 793.5,-393.7 793.5,-374.7 733.5,-374.7"/>
<text text-anchor="start" x="784.3862" y="-380.8" font-family="Helvetica,sans-Serif" font-size="11.00" fill="#000000"> &#160;</text>
</a>
</g>
</g>
<!-- court_appearance_movement&#45;&gt;court_appearance -->
<g id="edge5" class="edge">
<title>court_appearance_movement:w&#45;&gt;court_appearance:e</title>
<path fill="none" stroke="#000000" d="M542.6568,-463.3123C528.8325,-452.7354 528.6756,-426.7 505.5,-426.7"/>
<polygon fill="#000000" stroke="#000000" points="548.8739,-465.2828 555.4123,-471.1317 552.6869,-466.4914 556.5,-467.7 556.5,-467.7 556.5,-467.7 552.6869,-466.4914 557.5877,-464.2683 548.8739,-465.2828 548.8739,-465.2828"/>
<ellipse fill="none" stroke="#000000" cx="545.8235" cy="-464.3159" rx="3.2" ry="3.2"/>
</g>
<!-- court_appearance_movement&#45;&gt;person_summary -->
<g id="edge6" class="edge">
<title>court_appearance_movement:w&#45;&gt;person_summary:e</title>
<path fill="none" stroke="#000000" d="M542.4062,-449.9165C533.4926,-456.4329 530.1964,-468.7181 515,-473.7 377.8444,-518.664 334.8379,-486.7 190.5,-486.7"/>
<polygon fill="#000000" stroke="#000000" points="548.8356,-447.993 557.5318,-449.149 552.6678,-446.8465 556.5,-445.7 556.5,-445.7 556.5,-445.7 552.6678,-446.8465 555.4682,-442.251 548.8356,-447.993 548.8356,-447.993"/>
<ellipse fill="none" stroke="#000000" cx="545.7699" cy="-448.9102" rx="3.2" ry="3.2"/>
</g>
</g>
</svg>
