<?xml version="1.0" encoding="UTF-8" standalone="no"?>
<!DOCTYPE svg PUBLIC "-//W3C//DTD SVG 1.1//EN"
 "http://www.w3.org/Graphics/SVG/1.1/DTD/svg11.dtd">
<!-- Generated by graphviz version 2.40.1 (20161225.0304)
 -->
<!-- Title: twoDegreesRelationshipsDiagramImplied Pages: 1 -->
<svg width="928pt" height="448pt"
 viewBox="0.00 0.00 928.00 447.70" xmlns="http://www.w3.org/2000/svg" xmlns:xlink="http://www.w3.org/1999/xlink">
<g id="graph0" class="graph" transform="scale(1 1) rotate(0) translate(4 443.7)">
<title>twoDegreesRelationshipsDiagramImplied</title>
<polygon fill="#ffffff" stroke="transparent" points="-4,4 -4,-443.7 924,-443.7 924,4 -4,4"/>
<text text-anchor="middle" x="72.4936" y="-7.3" font-family="Helvetica,sans-Serif" font-size="11.00" fill="#000000">Generated by SchemaSpy</text>
<!-- court_appearance -->
<g id="node1" class="node">
<title>court_appearance</title>
<g id="a_node1"><a xlink:href="../../tables/court_appearance.html" xlink:title="court_appearance" target="_top">
<polygon fill="#ffffff" stroke="transparent" points="327.5,-210.7 327.5,-271.7 486.5,-271.7 486.5,-210.7 327.5,-210.7"/>
<polygon fill="#f5f5f5" stroke="transparent" points="328,-248.2 328,-271.2 487,-271.2 487,-248.2 328,-248.2"/>
<polygon fill="none" stroke="#000000" points="328,-248.2 328,-271.2 487,-271.2 487,-248.2 328,-248.2"/>
<text text-anchor="start" x="333" y="-256.8" font-family="Helvetica,sans-Serif" font-weight="bold" font-size="11.00" fill="#000000">court_appearance</text>
<text text-anchor="start" x="452.5219" y="-256.3" font-family="Helvetica,sans-Serif" font-size="11.00" fill="#000000">[table]</text>
<polygon fill="none" stroke="#000000" points="328,-229.2 328,-248.2 487,-248.2 487,-229.2 328,-229.2"/>
<text text-anchor="start" x="331" y="-235.3" font-family="Helvetica,sans-Serif" font-size="11.00" fill="#000000">...</text>
<polygon fill="#ffffff" stroke="transparent" points="328,-210.2 328,-229.2 401,-229.2 401,-210.2 328,-210.2"/>
<polygon fill="none" stroke="#000000" points="328,-210.2 328,-229.2 401,-229.2 401,-210.2 328,-210.2"/>
<text text-anchor="start" x="331" y="-216.3" font-family="Helvetica,sans-Serif" font-size="11.00" fill="#000000">&lt; 4</text>
<polygon fill="#ffffff" stroke="transparent" points="401,-210.2 401,-229.2 439,-229.2 439,-210.2 401,-210.2"/>
<polygon fill="none" stroke="#000000" points="401,-210.2 401,-229.2 439,-229.2 439,-210.2 401,-210.2"/>
<text text-anchor="start" x="429.8862" y="-216.3" font-family="Helvetica,sans-Serif" font-size="11.00" fill="#000000"> &#160;</text>
<polygon fill="#ffffff" stroke="transparent" points="439,-210.2 439,-229.2 487,-229.2 487,-210.2 439,-210.2"/>
<polygon fill="none" stroke="#000000" points="439,-210.2 439,-229.2 487,-229.2 487,-210.2 439,-210.2"/>
<text text-anchor="start" x="468.4053" y="-216.3" font-family="Helvetica,sans-Serif" font-size="11.00" fill="#000000">1 &gt;</text>
</a>
</g>
</g>
<!-- audit_revision -->
<g id="node2" class="node">
<title>audit_revision</title>
<g id="a_node2"><a xlink:href="../../tables/audit_revision.html" xlink:title="audit_revision" target="_top">
<polygon fill="#ffffff" stroke="transparent" points="46.5,-373.7 46.5,-434.7 180.5,-434.7 180.5,-373.7 46.5,-373.7"/>
<polygon fill="#f5f5f5" stroke="transparent" points="46.5,-411.2 46.5,-434.2 180.5,-434.2 180.5,-411.2 46.5,-411.2"/>
<polygon fill="none" stroke="#000000" points="46.5,-411.2 46.5,-434.2 180.5,-434.2 180.5,-411.2 46.5,-411.2"/>
<text text-anchor="start" x="51.5" y="-419.8" font-family="Helvetica,sans-Serif" font-weight="bold" font-size="11.00" fill="#000000">audit_revision</text>
<text text-anchor="start" x="146.0219" y="-419.3" font-family="Helvetica,sans-Serif" font-size="11.00" fill="#000000">[table]</text>
<polygon fill="none" stroke="#000000" points="46.5,-392.2 46.5,-411.2 180.5,-411.2 180.5,-392.2 46.5,-392.2"/>
<text text-anchor="start" x="49.5" y="-398.3" font-family="Helvetica,sans-Serif" font-size="11.00" fill="#000000">...</text>
<polygon fill="#ffffff" stroke="transparent" points="46.5,-373.2 46.5,-392.2 102.5,-392.2 102.5,-373.2 46.5,-373.2"/>
<polygon fill="none" stroke="#000000" points="46.5,-373.2 46.5,-392.2 102.5,-392.2 102.5,-373.2 46.5,-373.2"/>
<text text-anchor="start" x="49.5" y="-379.3" font-family="Helvetica,sans-Serif" font-size="11.00" fill="#000000"> &#160;</text>
<polygon fill="#ffffff" stroke="transparent" points="102.5,-373.2 102.5,-392.2 136.5,-392.2 136.5,-373.2 102.5,-373.2"/>
<polygon fill="none" stroke="#000000" points="102.5,-373.2 102.5,-392.2 136.5,-392.2 136.5,-373.2 102.5,-373.2"/>
<text text-anchor="start" x="127.3862" y="-379.3" font-family="Helvetica,sans-Serif" font-size="11.00" fill="#000000"> &#160;</text>
<polygon fill="#ffffff" stroke="transparent" points="136.5,-373.2 136.5,-392.2 180.5,-392.2 180.5,-373.2 136.5,-373.2"/>
<polygon fill="none" stroke="#000000" points="136.5,-373.2 136.5,-392.2 180.5,-392.2 180.5,-373.2 136.5,-373.2"/>
<text text-anchor="start" x="161.9053" y="-379.3" font-family="Helvetica,sans-Serif" font-size="11.00" fill="#000000">4 &gt;</text>
</a>
</g>
</g>
<!-- court_appearance&#45;&gt;audit_revision -->
<g id="edge1" class="edge">
<title>court_appearance:w&#45;&gt;audit_revision:e</title>
<path fill="none" stroke="#000000" stroke-dasharray="5,2" d="M309.2769,-255.0681C291.373,-261.1354 273.9622,-269.8107 260,-282.2 231.2313,-307.7278 249.7237,-331.1687 227,-362.2 211.0639,-383.9623 207.4732,-401.2 180.5,-401.2"/>
<polygon fill="#000000" stroke="#000000" points="317.3016,-248.3778 319.6816,-256.0156 318.1541,-256.4916 315.774,-248.8538 317.3016,-248.3778"/>
<polyline fill="none" stroke="#000000" points="319.2554,-251.9587 315.4365,-253.1487 "/>
<ellipse fill="none" stroke="#000000" cx="312.3814" cy="-254.1007" rx="3.2" ry="3.2"/>
</g>
<!-- person_summary -->
<g id="node3" class="node">
<title>person_summary</title>
<g id="a_node3"><a xlink:href="../../tables/person_summary.html" xlink:title="person_summary" target="_top">
<polygon fill="#ffffff" stroke="transparent" points="36.5,-290.7 36.5,-351.7 190.5,-351.7 190.5,-290.7 36.5,-290.7"/>
<polygon fill="#f5f5f5" stroke="transparent" points="36.5,-328.2 36.5,-351.2 190.5,-351.2 190.5,-328.2 36.5,-328.2"/>
<polygon fill="none" stroke="#000000" points="36.5,-328.2 36.5,-351.2 190.5,-351.2 190.5,-328.2 36.5,-328.2"/>
<text text-anchor="start" x="41.5" y="-336.8" font-family="Helvetica,sans-Serif" font-weight="bold" font-size="11.00" fill="#000000">person_summary</text>
<text text-anchor="start" x="156.0219" y="-336.3" font-family="Helvetica,sans-Serif" font-size="11.00" fill="#000000">[table]</text>
<polygon fill="none" stroke="#000000" points="36.5,-309.2 36.5,-328.2 190.5,-328.2 190.5,-309.2 36.5,-309.2"/>
<text text-anchor="start" x="39.5" y="-315.3" font-family="Helvetica,sans-Serif" font-size="11.00" fill="#000000">...</text>
<polygon fill="#ffffff" stroke="transparent" points="36.5,-290.2 36.5,-309.2 102.5,-309.2 102.5,-290.2 36.5,-290.2"/>
<polygon fill="none" stroke="#000000" points="36.5,-290.2 36.5,-309.2 102.5,-309.2 102.5,-290.2 36.5,-290.2"/>
<text text-anchor="start" x="39.5" y="-296.3" font-family="Helvetica,sans-Serif" font-size="11.00" fill="#000000"> &#160;</text>
<polygon fill="#ffffff" stroke="transparent" points="102.5,-290.2 102.5,-309.2 141.5,-309.2 141.5,-290.2 102.5,-290.2"/>
<polygon fill="none" stroke="#000000" points="102.5,-290.2 102.5,-309.2 141.5,-309.2 141.5,-290.2 102.5,-290.2"/>
<text text-anchor="start" x="132.3862" y="-296.3" font-family="Helvetica,sans-Serif" font-size="11.00" fill="#000000"> &#160;</text>
<polygon fill="#ffffff" stroke="transparent" points="141.5,-290.2 141.5,-309.2 190.5,-309.2 190.5,-290.2 141.5,-290.2"/>
<polygon fill="none" stroke="#000000" points="141.5,-290.2 141.5,-309.2 190.5,-309.2 190.5,-290.2 141.5,-290.2"/>
<text text-anchor="start" x="171.9053" y="-296.3" font-family="Helvetica,sans-Serif" font-size="11.00" fill="#000000">4 &gt;</text>
</a>
</g>
</g>
<!-- court_appearance&#45;&gt;person_summary -->
<g id="edge2" class="edge">
<title>court_appearance:w&#45;&gt;person_summary:e</title>
<path fill="none" stroke="#000000" d="M305.2112,-268.9448C270.4647,-278.4158 231.9957,-288.9013 198.6926,-297.9788"/>
<polygon fill="#000000" stroke="#000000" points="311.6195,-267.1981 320.2846,-268.5676 315.4787,-266.1462 319.3379,-265.0943 319.3379,-265.0943 319.3379,-265.0943 315.4787,-266.1462 318.3911,-261.621 311.6195,-267.1981 311.6195,-267.1981"/>
<ellipse fill="none" stroke="#000000" cx="308.5321" cy="-268.0397" rx="3.2" ry="3.2"/>
</g>
<!-- court_appearance_reason -->
<g id="node4" class="node">
<title>court_appearance_reason</title>
<g id="a_node4"><a xlink:href="../../tables/court_appearance_reason.html" xlink:title="court_appearance_reason" target="_top">
<polygon fill="#ffffff" stroke="transparent" points="8,-208.7 8,-269.7 219,-269.7 219,-208.7 8,-208.7"/>
<polygon fill="#f5f5f5" stroke="transparent" points="8.5,-246.2 8.5,-269.2 219.5,-269.2 219.5,-246.2 8.5,-246.2"/>
<polygon fill="none" stroke="#000000" points="8.5,-246.2 8.5,-269.2 219.5,-269.2 219.5,-246.2 8.5,-246.2"/>
<text text-anchor="start" x="13.5" y="-254.8" font-family="Helvetica,sans-Serif" font-weight="bold" font-size="11.00" fill="#000000">court_appearance_reason</text>
<text text-anchor="start" x="185.0219" y="-254.3" font-family="Helvetica,sans-Serif" font-size="11.00" fill="#000000">[table]</text>
<polygon fill="none" stroke="#000000" points="8.5,-227.2 8.5,-246.2 219.5,-246.2 219.5,-227.2 8.5,-227.2"/>
<text text-anchor="start" x="11.5" y="-233.3" font-family="Helvetica,sans-Serif" font-size="11.00" fill="#000000">...</text>
<polygon fill="#ffffff" stroke="transparent" points="8.5,-208.2 8.5,-227.2 103.5,-227.2 103.5,-208.2 8.5,-208.2"/>
<polygon fill="none" stroke="#000000" points="8.5,-208.2 8.5,-227.2 103.5,-227.2 103.5,-208.2 8.5,-208.2"/>
<text text-anchor="start" x="11.5" y="-214.3" font-family="Helvetica,sans-Serif" font-size="11.00" fill="#000000"> &#160;</text>
<polygon fill="#ffffff" stroke="transparent" points="103.5,-208.2 103.5,-227.2 156.5,-227.2 156.5,-208.2 103.5,-208.2"/>
<polygon fill="none" stroke="#000000" points="103.5,-208.2 103.5,-227.2 156.5,-227.2 156.5,-208.2 103.5,-208.2"/>
<text text-anchor="start" x="147.3862" y="-214.3" font-family="Helvetica,sans-Serif" font-size="11.00" fill="#000000"> &#160;</text>
<polygon fill="#ffffff" stroke="transparent" points="156.5,-208.2 156.5,-227.2 219.5,-227.2 219.5,-208.2 156.5,-208.2"/>
<polygon fill="none" stroke="#000000" points="156.5,-208.2 156.5,-227.2 219.5,-227.2 219.5,-208.2 156.5,-208.2"/>
<text text-anchor="start" x="200.9053" y="-214.3" font-family="Helvetica,sans-Serif" font-size="11.00" fill="#000000">1 &gt;</text>
</a>
</g>
</g>
<!-- court_appearance&#45;&gt;court_appearance_reason -->
<g id="edge3" class="edge">
<title>court_appearance:w&#45;&gt;court_appearance_reason:e</title>
<path fill="none" stroke="#000000" d="M304.6066,-237.4815C276.9832,-236.7482 247.1028,-236.2 219.5,-236.2"/>
<polygon fill="#000000" stroke="#000000" points="311.2585,-237.6682 319.1543,-241.4914 315.2569,-237.7805 319.2553,-237.8928 319.2553,-237.8928 319.2553,-237.8928 315.2569,-237.7805 319.3564,-234.2942 311.2585,-237.6682 311.2585,-237.6682"/>
<ellipse fill="none" stroke="#000000" cx="308.0597" cy="-237.5784" rx="3.2" ry="3.2"/>
</g>
<!-- court_appearance_status -->
<g id="node5" class="node">
<title>court_appearance_status</title>
<g id="a_node5"><a xlink:href="../../tables/court_appearance_status.html" xlink:title="court_appearance_status" target="_top">
<polygon fill="#ffffff" stroke="transparent" points="9.5,-126.7 9.5,-187.7 217.5,-187.7 217.5,-126.7 9.5,-126.7"/>
<polygon fill="#f5f5f5" stroke="transparent" points="9.5,-164.2 9.5,-187.2 217.5,-187.2 217.5,-164.2 9.5,-164.2"/>
<polygon fill="none" stroke="#000000" points="9.5,-164.2 9.5,-187.2 217.5,-187.2 217.5,-164.2 9.5,-164.2"/>
<text text-anchor="start" x="14.5" y="-172.8" font-family="Helvetica,sans-Serif" font-weight="bold" font-size="11.00" fill="#000000">court_appearance_status</text>
<text text-anchor="start" x="183.0219" y="-172.3" font-family="Helvetica,sans-Serif" font-size="11.00" fill="#000000">[table]</text>
<polygon fill="none" stroke="#000000" points="9.5,-145.2 9.5,-164.2 217.5,-164.2 217.5,-145.2 9.5,-145.2"/>
<text text-anchor="start" x="12.5" y="-151.3" font-family="Helvetica,sans-Serif" font-size="11.00" fill="#000000">...</text>
<polygon fill="#ffffff" stroke="transparent" points="9.5,-126.2 9.5,-145.2 102.5,-145.2 102.5,-126.2 9.5,-126.2"/>
<polygon fill="none" stroke="#000000" points="9.5,-126.2 9.5,-145.2 102.5,-145.2 102.5,-126.2 9.5,-126.2"/>
<text text-anchor="start" x="12.5" y="-132.3" font-family="Helvetica,sans-Serif" font-size="11.00" fill="#000000"> &#160;</text>
<polygon fill="#ffffff" stroke="transparent" points="102.5,-126.2 102.5,-145.2 155.5,-145.2 155.5,-126.2 102.5,-126.2"/>
<polygon fill="none" stroke="#000000" points="102.5,-126.2 102.5,-145.2 155.5,-145.2 155.5,-126.2 102.5,-126.2"/>
<text text-anchor="start" x="146.3862" y="-132.3" font-family="Helvetica,sans-Serif" font-size="11.00" fill="#000000"> &#160;</text>
<polygon fill="#ffffff" stroke="transparent" points="155.5,-126.2 155.5,-145.2 217.5,-145.2 217.5,-126.2 155.5,-126.2"/>
<polygon fill="none" stroke="#000000" points="155.5,-126.2 155.5,-145.2 217.5,-145.2 217.5,-126.2 155.5,-126.2"/>
<text text-anchor="start" x="198.9053" y="-132.3" font-family="Helvetica,sans-Serif" font-size="11.00" fill="#000000">1 &gt;</text>
</a>
</g>
</g>
<!-- court_appearance&#45;&gt;court_appearance_status -->
<g id="edge4" class="edge">
<title>court_appearance:w&#45;&gt;court_appearance_status:e</title>
<path fill="none" stroke="#000000" d="M348.8,-198.7981C312.807,-176.6883 264.6169,-154.2 217.5,-154.2"/>
<polygon fill="#000000" stroke="#000000" points="354.2522,-202.2691 359.0674,-209.6021 357.6265,-204.4172 361.0007,-206.5653 361.0007,-206.5653 361.0007,-206.5653 357.6265,-204.4172 362.9341,-203.5285 354.2522,-202.2691 354.2522,-202.2691"/>
<ellipse fill="none" stroke="#000000" cx="351.5528" cy="-200.5505" rx="3.2" ry="3.2"/>
</g>
<!-- court_appearance_audit -->
<g id="node6" class="node">
<title>court_appearance_audit</title>
<g id="a_node6"><a xlink:href="../../tables/court_appearance_audit.html" xlink:title="court_appearance_audit" target="_top">
<polygon fill="#ffffff" stroke="transparent" points="307,-374.7 307,-435.7 507,-435.7 507,-374.7 307,-374.7"/>
<polygon fill="#f5f5f5" stroke="transparent" points="307,-412.2 307,-435.2 507,-435.2 507,-412.2 307,-412.2"/>
<polygon fill="none" stroke="#000000" points="307,-412.2 307,-435.2 507,-435.2 507,-412.2 307,-412.2"/>
<text text-anchor="start" x="312" y="-420.8" font-family="Helvetica,sans-Serif" font-weight="bold" font-size="11.00" fill="#000000">court_appearance_audit</text>
<text text-anchor="start" x="472.5219" y="-420.3" font-family="Helvetica,sans-Serif" font-size="11.00" fill="#000000">[table]</text>
<polygon fill="none" stroke="#000000" points="307,-393.2 307,-412.2 507,-412.2 507,-393.2 307,-393.2"/>
<text text-anchor="start" x="310" y="-399.3" font-family="Helvetica,sans-Serif" font-size="11.00" fill="#000000">...</text>
<polygon fill="#ffffff" stroke="transparent" points="307,-374.2 307,-393.2 405,-393.2 405,-374.2 307,-374.2"/>
<polygon fill="none" stroke="#000000" points="307,-374.2 307,-393.2 405,-393.2 405,-374.2 307,-374.2"/>
<text text-anchor="start" x="310" y="-380.3" font-family="Helvetica,sans-Serif" font-size="11.00" fill="#000000">&lt; 3</text>
<polygon fill="#ffffff" stroke="transparent" points="405,-374.2 405,-393.2 456,-393.2 456,-374.2 405,-374.2"/>
<polygon fill="none" stroke="#000000" points="405,-374.2 405,-393.2 456,-393.2 456,-374.2 405,-374.2"/>
<text text-anchor="start" x="446.8862" y="-380.3" font-family="Helvetica,sans-Serif" font-size="11.00" fill="#000000"> &#160;</text>
<polygon fill="#ffffff" stroke="transparent" points="456,-374.2 456,-393.2 507,-393.2 507,-374.2 456,-374.2"/>
<polygon fill="none" stroke="#000000" points="456,-374.2 456,-393.2 507,-393.2 507,-374.2 456,-374.2"/>
<text text-anchor="start" x="497.8862" y="-380.3" font-family="Helvetica,sans-Serif" font-size="11.00" fill="#000000"> &#160;</text>
</a>
</g>
</g>
<!-- court_appearance_audit&#45;&gt;audit_revision -->
<g id="edge5" class="edge">
<title>court_appearance_audit:w&#45;&gt;audit_revision:e</title>
<path fill="none" stroke="#000000" stroke-dasharray="5,2" d="M292.5173,-400.6756C247.8408,-396.0754 231.5628,-395.7508 180.5,-401.2"/>
<polygon fill="#000000" stroke="#000000" points="299.044,-401.3625 306.6231,-405.7802 303.022,-401.7813 307,-402.2 307,-402.2 307,-402.2 303.022,-401.7813 307.3769,-398.6198 299.044,-401.3625 299.044,-401.3625"/>
<ellipse fill="none" stroke="#000000" cx="295.8615" cy="-401.0275" rx="3.2" ry="3.2"/>
</g>
<!-- court_appearance_audit&#45;&gt;audit_revision -->
<g id="edge7" class="edge">
<title>court_appearance_audit:w&#45;&gt;audit_revision:e</title>
<path fill="none" stroke="#000000" d="M292.5173,-403.927C247.8408,-408.9658 231.5628,-407.5574 180.5,-401.2"/>
<polygon fill="#000000" stroke="#000000" points="299.0563,-403.1473 307.4263,-405.7747 303.0281,-402.6737 307,-402.2 307,-402.2 307,-402.2 303.0281,-402.6737 306.5737,-398.6253 299.0563,-403.1473 299.0563,-403.1473"/>
<ellipse fill="none" stroke="#000000" cx="295.8788" cy="-403.5263" rx="3.2" ry="3.2"/>
</g>
<!-- court_appearance_audit&#45;&gt;person_summary -->
<g id="edge6" class="edge">
<title>court_appearance_audit:w&#45;&gt;person_summary:e</title>
<path fill="none" stroke="#000000" stroke-dasharray="5,2" d="M292.5925,-400.9651C265.7269,-395.9355 258.3984,-376.6236 227,-363.2 217.92,-359.3181 208.3483,-355.4458 198.7716,-351.7106"/>
<polygon fill="#000000" stroke="#000000" points="299.0292,-401.5168 306.6925,-405.7868 303.0146,-401.8584 307,-402.2 307,-402.2 307,-402.2 303.0146,-401.8584 307.3075,-398.6132 299.0292,-401.5168 299.0292,-401.5168"/>
<ellipse fill="none" stroke="#000000" cx="295.8409" cy="-401.2435" rx="3.2" ry="3.2"/>
</g>
<!-- court_appearance_movement -->
<g id="node7" class="node">
<title>court_appearance_movement</title>
<g id="a_node7"><a xlink:href="../../tables/court_appearance_movement.html" xlink:title="court_appearance_movement" target="_top">
<polygon fill="#ffffff" stroke="transparent" points="595,-38.2 595,-304.2 912,-304.2 912,-38.2 595,-38.2"/>
<polygon fill="#f5f5f5" stroke="transparent" points="597.5,-279.2 597.5,-302.2 910.5,-302.2 910.5,-279.2 597.5,-279.2"/>
<polygon fill="none" stroke="#000000" points="597.5,-279.2 597.5,-302.2 910.5,-302.2 910.5,-279.2 597.5,-279.2"/>
<text text-anchor="start" x="602.5" y="-287.8" font-family="Helvetica,sans-Serif" font-weight="bold" font-size="11.00" fill="#000000">court_appearance_movement</text>
<text text-anchor="start" x="875.5437" y="-287.3" font-family="Helvetica,sans-Serif" font-size="11.00" fill="#000000">[table]</text>
<polygon fill="none" stroke="#000000" points="597.5,-257.2 597.5,-279.2 816.5,-279.2 816.5,-257.2 597.5,-257.2"/>
<image xlink:href="../../images/primaryKeys.png" width="11px" height="12px" preserveAspectRatio="xMinYMin meet" x="602.5" y="-274.2"/>
<text text-anchor="start" x="617.5" y="-264.3" font-family="Helvetica,sans-Serif" font-size="11.00" fill="#000000">id</text>
<polygon fill="none" stroke="#000000" points="816.5,-257.2 816.5,-279.2 910.5,-279.2 910.5,-257.2 816.5,-257.2"/>
<text text-anchor="start" x="819.4758" y="-264.9" font-family="Helvetica,sans-Serif" font-size="11.00" fill="#000000">uuid[2147483647]</text>
<polygon fill="none" stroke="#000000" points="597.5,-235.2 597.5,-257.2 816.5,-257.2 816.5,-235.2 597.5,-235.2"/>
<text text-anchor="start" x="617.5" y="-242.3" font-family="Helvetica,sans-Serif" font-size="11.00" fill="#000000">version</text>
<polygon fill="none" stroke="#000000" points="816.5,-235.2 816.5,-257.2 910.5,-257.2 910.5,-235.2 816.5,-235.2"/>
<text text-anchor="start" x="819.5" y="-242.9" font-family="Helvetica,sans-Serif" font-size="11.00" fill="#000000">int4[10]</text>
<polygon fill="none" stroke="#000000" points="597.5,-213.2 597.5,-235.2 816.5,-235.2 816.5,-213.2 597.5,-213.2"/>
<image xlink:href="../../images/foreignKeys.png" width="11px" height="12px" preserveAspectRatio="xMinYMin meet" x="602.5" y="-230.2"/>
<text text-anchor="start" x="617.5" y="-220.3" font-family="Helvetica,sans-Serif" font-size="11.00" fill="#000000">court_appearance_id</text>
<polygon fill="none" stroke="#000000" points="816.5,-213.2 816.5,-235.2 910.5,-235.2 910.5,-213.2 816.5,-213.2"/>
<text text-anchor="start" x="819.4758" y="-220.9" font-family="Helvetica,sans-Serif" font-size="11.00" fill="#000000">uuid[2147483647]</text>
<polygon fill="#ffffff" stroke="transparent" points="597.5,-191.2 597.5,-213.2 816.5,-213.2 816.5,-191.2 597.5,-191.2"/>
<polygon fill="none" stroke="#000000" points="597.5,-191.2 597.5,-213.2 816.5,-213.2 816.5,-191.2 597.5,-191.2"/>
<image xlink:href="../../images/foreignKeys.png" width="11px" height="12px" preserveAspectRatio="xMinYMin meet" x="602.5" y="-208.2"/>
<text text-anchor="start" x="617.5" y="-198.3" font-family="Helvetica,sans-Serif" font-size="11.00" fill="#000000">person_identifier</text>
<polygon fill="none" stroke="#000000" points="816.5,-191.2 816.5,-213.2 910.5,-213.2 910.5,-191.2 816.5,-191.2"/>
<text text-anchor="start" x="819.5" y="-198.9" font-family="Helvetica,sans-Serif" font-size="11.00" fill="#000000">varchar[10]</text>
<polygon fill="none" stroke="#000000" points="597.5,-169.2 597.5,-191.2 816.5,-191.2 816.5,-169.2 597.5,-169.2"/>
<text text-anchor="start" x="617.5" y="-176.3" font-family="Helvetica,sans-Serif" font-size="11.00" fill="#000000">prison_code</text>
<polygon fill="none" stroke="#000000" points="816.5,-169.2 816.5,-191.2 910.5,-191.2 910.5,-169.2 816.5,-169.2"/>
<text text-anchor="start" x="819.5" y="-176.9" font-family="Helvetica,sans-Serif" font-size="11.00" fill="#000000">varchar[6]</text>
<polygon fill="none" stroke="#000000" points="597.5,-147.2 597.5,-169.2 816.5,-169.2 816.5,-147.2 597.5,-147.2"/>
<text text-anchor="start" x="617.5" y="-154.3" font-family="Helvetica,sans-Serif" font-size="11.00" fill="#000000">court_code</text>
<polygon fill="none" stroke="#000000" points="816.5,-147.2 816.5,-169.2 910.5,-169.2 910.5,-147.2 816.5,-147.2"/>
<text text-anchor="start" x="819.5" y="-154.9" font-family="Helvetica,sans-Serif" font-size="11.00" fill="#000000">varchar[6]</text>
<polygon fill="none" stroke="#000000" points="597.5,-125.2 597.5,-147.2 816.5,-147.2 816.5,-125.2 597.5,-125.2"/>
<text text-anchor="start" x="617.5" y="-132.3" font-family="Helvetica,sans-Serif" font-size="11.00" fill="#000000">direction</text>
<polygon fill="none" stroke="#000000" points="816.5,-125.2 816.5,-147.2 910.5,-147.2 910.5,-125.2 816.5,-125.2"/>
<text text-anchor="start" x="819.5" y="-132.9" font-family="Helvetica,sans-Serif" font-size="11.00" fill="#000000">varchar[3]</text>
<polygon fill="none" stroke="#000000" points="597.5,-103.2 597.5,-125.2 816.5,-125.2 816.5,-103.2 597.5,-103.2"/>
<text text-anchor="start" x="617.5" y="-110.3" font-family="Helvetica,sans-Serif" font-size="11.00" fill="#000000">occurred_at</text>
<polygon fill="none" stroke="#000000" points="816.5,-103.2 816.5,-125.2 910.5,-125.2 910.5,-103.2 816.5,-103.2"/>
<text text-anchor="start" x="819.5" y="-110.9" font-family="Helvetica,sans-Serif" font-size="11.00" fill="#000000">timestamp[29,6]</text>
<polygon fill="none" stroke="#000000" points="597.5,-81.2 597.5,-103.2 816.5,-103.2 816.5,-81.2 597.5,-81.2"/>
<text text-anchor="start" x="617.5" y="-88.3" font-family="Helvetica,sans-Serif" font-size="11.00" fill="#000000">comments</text>
<polygon fill="none" stroke="#000000" points="816.5,-81.2 816.5,-103.2 910.5,-103.2 910.5,-81.2 816.5,-81.2"/>
<text text-anchor="start" x="819.5" y="-88.9" font-family="Helvetica,sans-Serif" font-size="11.00" fill="#000000">text[2147483647]</text>
<polygon fill="#ffffff" stroke="transparent" points="597.5,-59.2 597.5,-81.2 816.5,-81.2 816.5,-59.2 597.5,-59.2"/>
<polygon fill="none" stroke="#000000" points="597.5,-59.2 597.5,-81.2 816.5,-81.2 816.5,-59.2 597.5,-59.2"/>
<text text-anchor="start" x="617.5" y="-66.3" font-family="Helvetica,sans-Serif" font-size="11.00" fill="#000000">legacy_id</text>
<polygon fill="none" stroke="#000000" points="816.5,-59.2 816.5,-81.2 910.5,-81.2 910.5,-59.2 816.5,-59.2"/>
<text text-anchor="start" x="819.5" y="-66.9" font-family="Helvetica,sans-Serif" font-size="11.00" fill="#000000">varchar[32]</text>
<polygon fill="#ffffff" stroke="transparent" points="597.5,-40.2 597.5,-59.2 711.5,-59.2 711.5,-40.2 597.5,-40.2"/>
<polygon fill="none" stroke="#000000" points="597.5,-40.2 597.5,-59.2 711.5,-59.2 711.5,-40.2 597.5,-40.2"/>
<text text-anchor="start" x="600.5" y="-46.3" font-family="Helvetica,sans-Serif" font-size="11.00" fill="#000000">&lt; 2</text>
<polygon fill="#ffffff" stroke="transparent" points="711.5,-40.2 711.5,-59.2 816.5,-59.2 816.5,-40.2 711.5,-40.2"/>
<polygon fill="none" stroke="#000000" points="711.5,-40.2 711.5,-59.2 816.5,-59.2 816.5,-40.2 711.5,-40.2"/>
<text text-anchor="start" x="807.3862" y="-46.3" font-family="Helvetica,sans-Serif" font-size="11.00" fill="#000000"> &#160;</text>
<polygon fill="#ffffff" stroke="transparent" points="816.5,-40.2 816.5,-59.2 910.5,-59.2 910.5,-40.2 816.5,-40.2"/>
<polygon fill="none" stroke="#000000" points="816.5,-40.2 816.5,-59.2 910.5,-59.2 910.5,-40.2 816.5,-40.2"/>
<text text-anchor="start" x="891.9053" y="-46.3" font-family="Helvetica,sans-Serif" font-size="11.00" fill="#000000">0 &gt;</text>
<polygon fill="none" stroke="#000000" stroke-width="2" points="596,-39.2 596,-303.2 911,-303.2 911,-39.2 596,-39.2"/>
</a>
</g>
</g>
<!-- court_appearance_movement&#45;&gt;court_appearance -->
<g id="edge8" class="edge">
<title>court_appearance_movement:w&#45;&gt;court_appearance:e</title>
<path fill="none" stroke="#000000" d="M582.7087,-224.3611C553.221,-224.984 522.2062,-227.3386 494.5806,-230.0981"/>
<polygon fill="#000000" stroke="#000000" points="589.5005,-224.2872 597.5392,-227.7998 593.5002,-224.2436 597.5,-224.2 597.5,-224.2 597.5,-224.2 593.5002,-224.2436 597.4608,-220.6002 589.5005,-224.2872 589.5005,-224.2872"/>
<ellipse fill="none" stroke="#000000" cx="586.3007" cy="-224.322" rx="3.2" ry="3.2"/>
</g>
<!-- court_appearance_movement&#45;&gt;person_summary -->
<g id="edge9" class="edge">
<title>court_appearance_movement:w&#45;&gt;person_summary:e</title>
<path fill="none" stroke="#000000" d="M582.8412,-201.9268C443.2565,-196.7132 380.5225,-119.5418 260,-200.2 228.0358,-221.5916 254.7961,-253.6164 227,-280.2 218.8237,-288.0196 209.0467,-294.3646 198.708,-299.5091"/>
<polygon fill="#000000" stroke="#000000" points="589.5014,-202.0509 597.4329,-205.7994 593.5007,-202.1254 597.5,-202.2 597.5,-202.2 597.5,-202.2 593.5007,-202.1254 597.5671,-198.6006 589.5014,-202.0509 589.5014,-202.0509"/>
<ellipse fill="none" stroke="#000000" cx="586.3019" cy="-201.9912" rx="3.2" ry="3.2"/>
</g>
<!-- court_appearance_movement_audit -->
<g id="node8" class="node">
<title>court_appearance_movement_audit</title>
<g id="a_node8"><a xlink:href="../../tables/court_appearance_movement_audit.html" xlink:title="court_appearance_movement_audit" target="_top">
<polygon fill="#ffffff" stroke="transparent" points="268,-292.7 268,-353.7 546,-353.7 546,-292.7 268,-292.7"/>
<polygon fill="#f5f5f5" stroke="transparent" points="268,-330.2 268,-353.2 546,-353.2 546,-330.2 268,-330.2"/>
<polygon fill="none" stroke="#000000" points="268,-330.2 268,-353.2 546,-353.2 546,-330.2 268,-330.2"/>
<text text-anchor="start" x="273" y="-338.8" font-family="Helvetica,sans-Serif" font-weight="bold" font-size="11.00" fill="#000000">court_appearance_movement_audit</text>
<text text-anchor="start" x="511.5219" y="-338.3" font-family="Helvetica,sans-Serif" font-size="11.00" fill="#000000">[table]</text>
<polygon fill="none" stroke="#000000" points="268,-311.2 268,-330.2 546,-330.2 546,-311.2 268,-311.2"/>
<text text-anchor="start" x="271" y="-317.3" font-family="Helvetica,sans-Serif" font-size="11.00" fill="#000000">...</text>
<polygon fill="#ffffff" stroke="transparent" points="268,-292.2 268,-311.2 405,-311.2 405,-292.2 268,-292.2"/>
<polygon fill="none" stroke="#000000" points="268,-292.2 268,-311.2 405,-311.2 405,-292.2 268,-292.2"/>
<text text-anchor="start" x="271" y="-298.3" font-family="Helvetica,sans-Serif" font-size="11.00" fill="#000000">&lt; 2</text>
<polygon fill="#ffffff" stroke="transparent" points="405,-292.2 405,-311.2 475,-311.2 475,-292.2 405,-292.2"/>
<polygon fill="none" stroke="#000000" points="405,-292.2 405,-311.2 475,-311.2 475,-292.2 405,-292.2"/>
<text text-anchor="start" x="465.8862" y="-298.3" font-family="Helvetica,sans-Serif" font-size="11.00" fill="#000000"> &#160;</text>
<polygon fill="#ffffff" stroke="transparent" points="475,-292.2 475,-311.2 546,-311.2 546,-292.2 475,-292.2"/>
<polygon fill="none" stroke="#000000" points="475,-292.2 475,-311.2 546,-311.2 546,-292.2 475,-292.2"/>
<text text-anchor="start" x="536.8862" y="-298.3" font-family="Helvetica,sans-Serif" font-size="11.00" fill="#000000"> &#160;</text>
</a>
</g>
</g>
<!-- court_appearance_movement_audit&#45;&gt;audit_revision -->
<g id="edge11" class="edge">
<title>court_appearance_movement_audit:w&#45;&gt;audit_revision:e</title>
<path fill="none" stroke="#000000" d="M253.9609,-323.802C242.6071,-331.2148 241.6451,-348.6201 227,-362.2 207.2213,-380.5401 207.4732,-401.2 180.5,-401.2"/>
<polygon fill="#000000" stroke="#000000" points="260.251,-322.1882 268.8947,-323.6871 264.1255,-321.1941 268,-320.2 268,-320.2 268,-320.2 264.1255,-321.1941 267.1053,-316.7129 260.251,-322.1882 260.251,-322.1882"/>
<ellipse fill="none" stroke="#000000" cx="257.1514" cy="-322.9835" rx="3.2" ry="3.2"/>
</g>
<!-- court_appearance_movement_audit&#45;&gt;person_summary -->
<g id="edge10" class="edge">
<title>court_appearance_movement_audit:w&#45;&gt;person_summary:e</title>
<path fill="none" stroke="#000000" stroke-dasharray="5,2" d="M253.3466,-320.214C235.2745,-320.2474 216.55,-320.3372 198.9032,-320.4498"/>
<polygon fill="#000000" stroke="#000000" points="260,-320.2077 268.0035,-323.8 264,-320.2039 268,-320.2 268,-320.2 268,-320.2 264,-320.2039 267.9965,-316.6 260,-320.2077 260,-320.2077"/>
<ellipse fill="none" stroke="#000000" cx="256.8" cy="-320.2108" rx="3.2" ry="3.2"/>
</g>
</g>
</svg>
