<?xml version="1.0" encoding="UTF-8" standalone="no"?>
<!DOCTYPE svg PUBLIC "-//W3C//DTD SVG 1.1//EN"
 "http://www.w3.org/Graphics/SVG/1.1/DTD/svg11.dtd">
<!-- Generated by graphviz version 2.40.1 (20161225.0304)
 -->
<!-- Title: twoDegreesRelationshipsDiagramImplied Pages: 1 -->
<svg width="806pt" height="436pt"
 viewBox="0.00 0.00 806.00 436.20" xmlns="http://www.w3.org/2000/svg" xmlns:xlink="http://www.w3.org/1999/xlink">
<g id="graph0" class="graph" transform="scale(1 1) rotate(0) translate(4 432.2)">
<title>twoDegreesRelationshipsDiagramImplied</title>
<polygon fill="#ffffff" stroke="transparent" points="-4,4 -4,-432.2 802,-432.2 802,4 -4,4"/>
<text text-anchor="middle" x="72.4936" y="-7.3" font-family="Helvetica,sans-Serif" font-size="11.00" fill="#000000">Generated by SchemaSpy</text>
<!-- court_appearance -->
<g id="node1" class="node">
<title>court_appearance</title>
<g id="a_node1"><a xlink:href="../../tables/court_appearance.html" xlink:title="court_appearance" target="_top">
<polygon fill="#ffffff" stroke="transparent" points="345,-125.2 345,-340.2 504,-340.2 504,-125.2 345,-125.2"/>
<polygon fill="#f5f5f5" stroke="transparent" points="345.5,-316.7 345.5,-339.7 504.5,-339.7 504.5,-316.7 345.5,-316.7"/>
<polygon fill="none" stroke="#000000" points="345.5,-316.7 345.5,-339.7 504.5,-339.7 504.5,-316.7 345.5,-316.7"/>
<text text-anchor="start" x="350.5" y="-325.3" font-family="Helvetica,sans-Serif" font-weight="bold" font-size="11.00" fill="#000000">court_appearance</text>
<text text-anchor="start" x="470.0219" y="-324.8" font-family="Helvetica,sans-Serif" font-size="11.00" fill="#000000">[table]</text>
<polygon fill="none" stroke="#000000" points="345.5,-294.7 345.5,-316.7 504.5,-316.7 504.5,-294.7 345.5,-294.7"/>
<image xlink:href="../../images/primaryKeys.png" width="11px" height="12px" preserveAspectRatio="xMinYMin meet" x="350.5" y="-311.7"/>
<text text-anchor="start" x="374.5" y="-301.8" font-family="Helvetica,sans-Serif" font-size="11.00" fill="#000000">id</text>
<polygon fill="#ffffff" stroke="transparent" points="345.5,-272.7 345.5,-294.7 504.5,-294.7 504.5,-272.7 345.5,-272.7"/>
<polygon fill="none" stroke="#000000" points="345.5,-272.7 345.5,-294.7 504.5,-294.7 504.5,-272.7 345.5,-272.7"/>
<image xlink:href="../../images/foreignKeys.png" width="11px" height="12px" preserveAspectRatio="xMinYMin meet" x="350.5" y="-289.7"/>
<text text-anchor="start" x="374.5" y="-279.8" font-family="Helvetica,sans-Serif" font-size="11.00" fill="#000000">person_identifier</text>
<polygon fill="#ffffff" stroke="transparent" points="345.5,-250.7 345.5,-272.7 504.5,-272.7 504.5,-250.7 345.5,-250.7"/>
<polygon fill="none" stroke="#000000" points="345.5,-250.7 345.5,-272.7 504.5,-272.7 504.5,-250.7 345.5,-250.7"/>
<text text-anchor="start" x="374.5" y="-257.8" font-family="Helvetica,sans-Serif" font-size="11.00" fill="#000000">prison_code</text>
<polygon fill="#ffffff" stroke="transparent" points="345.5,-228.7 345.5,-250.7 504.5,-250.7 504.5,-228.7 345.5,-228.7"/>
<polygon fill="none" stroke="#000000" points="345.5,-228.7 345.5,-250.7 504.5,-250.7 504.5,-228.7 345.5,-228.7"/>
<image xlink:href="../../images/foreignKeys.png" width="11px" height="12px" preserveAspectRatio="xMinYMin meet" x="350.5" y="-245.7"/>
<text text-anchor="start" x="374.5" y="-235.8" font-family="Helvetica,sans-Serif" font-size="11.00" fill="#000000">reason_id</text>
<polygon fill="#ffffff" stroke="transparent" points="345.5,-206.7 345.5,-228.7 504.5,-228.7 504.5,-206.7 345.5,-206.7"/>
<polygon fill="none" stroke="#000000" points="345.5,-206.7 345.5,-228.7 504.5,-228.7 504.5,-206.7 345.5,-206.7"/>
<image xlink:href="../../images/foreignKeys.png" width="11px" height="12px" preserveAspectRatio="xMinYMin meet" x="350.5" y="-223.7"/>
<text text-anchor="start" x="374.5" y="-213.8" font-family="Helvetica,sans-Serif" font-size="11.00" fill="#000000">status_id</text>
<polygon fill="#ffffff" stroke="transparent" points="345.5,-184.7 345.5,-206.7 504.5,-206.7 504.5,-184.7 345.5,-184.7"/>
<polygon fill="none" stroke="#000000" points="345.5,-184.7 345.5,-206.7 504.5,-206.7 504.5,-184.7 345.5,-184.7"/>
<text text-anchor="start" x="374.5" y="-191.8" font-family="Helvetica,sans-Serif" font-size="11.00" fill="#000000">start</text>
<polygon fill="#ffffff" stroke="transparent" points="345.5,-162.7 345.5,-184.7 504.5,-184.7 504.5,-162.7 345.5,-162.7"/>
<polygon fill="none" stroke="#000000" points="345.5,-162.7 345.5,-184.7 504.5,-184.7 504.5,-162.7 345.5,-162.7"/>
<image xlink:href="../../images/foreignKeys.png" width="11px" height="12px" preserveAspectRatio="xMinYMin meet" x="350.5" y="-179.7"/>
<text text-anchor="start" x="374.5" y="-169.8" font-family="Helvetica,sans-Serif" font-size="11.00" fill="#000000">legacy_id</text>
<polygon fill="none" stroke="#000000" points="345.5,-143.7 345.5,-162.7 504.5,-162.7 504.5,-143.7 345.5,-143.7"/>
<text text-anchor="start" x="348.5" y="-149.8" font-family="Helvetica,sans-Serif" font-size="11.00" fill="#000000">...</text>
<polygon fill="#ffffff" stroke="transparent" points="345.5,-124.7 345.5,-143.7 418.5,-143.7 418.5,-124.7 345.5,-124.7"/>
<polygon fill="none" stroke="#000000" points="345.5,-124.7 345.5,-143.7 418.5,-143.7 418.5,-124.7 345.5,-124.7"/>
<text text-anchor="start" x="348.5" y="-130.8" font-family="Helvetica,sans-Serif" font-size="11.00" fill="#000000">&lt; 4</text>
<polygon fill="#ffffff" stroke="transparent" points="418.5,-124.7 418.5,-143.7 456.5,-143.7 456.5,-124.7 418.5,-124.7"/>
<polygon fill="none" stroke="#000000" points="418.5,-124.7 418.5,-143.7 456.5,-143.7 456.5,-124.7 418.5,-124.7"/>
<text text-anchor="start" x="447.3862" y="-130.8" font-family="Helvetica,sans-Serif" font-size="11.00" fill="#000000"> &#160;</text>
<polygon fill="#ffffff" stroke="transparent" points="456.5,-124.7 456.5,-143.7 504.5,-143.7 504.5,-124.7 456.5,-124.7"/>
<polygon fill="none" stroke="#000000" points="456.5,-124.7 456.5,-143.7 504.5,-143.7 504.5,-124.7 456.5,-124.7"/>
<text text-anchor="start" x="485.9053" y="-130.8" font-family="Helvetica,sans-Serif" font-size="11.00" fill="#000000">1 &gt;</text>
</a>
</g>
</g>
<!-- audit_revision -->
<g id="node2" class="node">
<title>audit_revision</title>
<g id="a_node2"><a xlink:href="../../tables/audit_revision.html" xlink:title="audit_revision" target="_top">
<polygon fill="#ffffff" stroke="transparent" points="85,-38.2 85,-99.2 219,-99.2 219,-38.2 85,-38.2"/>
<polygon fill="#f5f5f5" stroke="transparent" points="85,-75.7 85,-98.7 219,-98.7 219,-75.7 85,-75.7"/>
<polygon fill="none" stroke="#000000" points="85,-75.7 85,-98.7 219,-98.7 219,-75.7 85,-75.7"/>
<text text-anchor="start" x="90" y="-84.3" font-family="Helvetica,sans-Serif" font-weight="bold" font-size="11.00" fill="#000000">audit_revision</text>
<text text-anchor="start" x="184.5219" y="-83.8" font-family="Helvetica,sans-Serif" font-size="11.00" fill="#000000">[table]</text>
<polygon fill="none" stroke="#000000" points="85,-56.7 85,-75.7 219,-75.7 219,-56.7 85,-56.7"/>
<text text-anchor="start" x="88" y="-62.8" font-family="Helvetica,sans-Serif" font-size="11.00" fill="#000000">...</text>
<polygon fill="#ffffff" stroke="transparent" points="85,-37.7 85,-56.7 141,-56.7 141,-37.7 85,-37.7"/>
<polygon fill="none" stroke="#000000" points="85,-37.7 85,-56.7 141,-56.7 141,-37.7 85,-37.7"/>
<text text-anchor="start" x="88" y="-43.8" font-family="Helvetica,sans-Serif" font-size="11.00" fill="#000000"> &#160;</text>
<polygon fill="#ffffff" stroke="transparent" points="141,-37.7 141,-56.7 175,-56.7 175,-37.7 141,-37.7"/>
<polygon fill="none" stroke="#000000" points="141,-37.7 141,-56.7 175,-56.7 175,-37.7 141,-37.7"/>
<text text-anchor="start" x="165.8862" y="-43.8" font-family="Helvetica,sans-Serif" font-size="11.00" fill="#000000"> &#160;</text>
<polygon fill="#ffffff" stroke="transparent" points="175,-37.7 175,-56.7 219,-56.7 219,-37.7 175,-37.7"/>
<polygon fill="none" stroke="#000000" points="175,-37.7 175,-56.7 219,-56.7 219,-37.7 175,-37.7"/>
<text text-anchor="start" x="200.4053" y="-43.8" font-family="Helvetica,sans-Serif" font-size="11.00" fill="#000000">4 &gt;</text>
</a>
</g>
</g>
<!-- court_appearance&#45;&gt;audit_revision -->
<g id="edge1" class="edge">
<title>court_appearance:w&#45;&gt;audit_revision:e</title>
<path fill="none" stroke="#000000" stroke-dasharray="5,2" d="M335.0135,-171.8841C315.3113,-163.6817 325.9736,-129.627 304,-109.7 272.4886,-81.1236 261.5392,-65.7 219,-65.7"/>
<polygon fill="#000000" stroke="#000000" points="345.3943,-169.6221 344.0292,-177.5048 342.4527,-177.2318 343.8177,-169.3491 345.3943,-169.6221"/>
<polyline fill="none" stroke="#000000" points="345.5,-173.7 341.5587,-173.0175 "/>
<ellipse fill="none" stroke="#000000" cx="338.4056" cy="-172.4714" rx="3.2" ry="3.2"/>
</g>
<!-- person_summary -->
<g id="node3" class="node">
<title>person_summary</title>
<g id="a_node3"><a xlink:href="../../tables/person_summary.html" xlink:title="person_summary" target="_top">
<polygon fill="#ffffff" stroke="transparent" points="75,-363.2 75,-424.2 229,-424.2 229,-363.2 75,-363.2"/>
<polygon fill="#f5f5f5" stroke="transparent" points="75,-400.7 75,-423.7 229,-423.7 229,-400.7 75,-400.7"/>
<polygon fill="none" stroke="#000000" points="75,-400.7 75,-423.7 229,-423.7 229,-400.7 75,-400.7"/>
<text text-anchor="start" x="80" y="-409.3" font-family="Helvetica,sans-Serif" font-weight="bold" font-size="11.00" fill="#000000">person_summary</text>
<text text-anchor="start" x="194.5219" y="-408.8" font-family="Helvetica,sans-Serif" font-size="11.00" fill="#000000">[table]</text>
<polygon fill="none" stroke="#000000" points="75,-381.7 75,-400.7 229,-400.7 229,-381.7 75,-381.7"/>
<text text-anchor="start" x="78" y="-387.8" font-family="Helvetica,sans-Serif" font-size="11.00" fill="#000000">...</text>
<polygon fill="#ffffff" stroke="transparent" points="75,-362.7 75,-381.7 141,-381.7 141,-362.7 75,-362.7"/>
<polygon fill="none" stroke="#000000" points="75,-362.7 75,-381.7 141,-381.7 141,-362.7 75,-362.7"/>
<text text-anchor="start" x="78" y="-368.8" font-family="Helvetica,sans-Serif" font-size="11.00" fill="#000000"> &#160;</text>
<polygon fill="#ffffff" stroke="transparent" points="141,-362.7 141,-381.7 180,-381.7 180,-362.7 141,-362.7"/>
<polygon fill="none" stroke="#000000" points="141,-362.7 141,-381.7 180,-381.7 180,-362.7 141,-362.7"/>
<text text-anchor="start" x="170.8862" y="-368.8" font-family="Helvetica,sans-Serif" font-size="11.00" fill="#000000"> &#160;</text>
<polygon fill="#ffffff" stroke="transparent" points="180,-362.7 180,-381.7 229,-381.7 229,-362.7 180,-362.7"/>
<polygon fill="none" stroke="#000000" points="180,-362.7 180,-381.7 229,-381.7 229,-362.7 180,-362.7"/>
<text text-anchor="start" x="210.4053" y="-368.8" font-family="Helvetica,sans-Serif" font-size="11.00" fill="#000000">2 &gt;</text>
</a>
</g>
</g>
<!-- court_appearance&#45;&gt;person_summary -->
<g id="edge2" class="edge">
<title>court_appearance:w&#45;&gt;person_summary:e</title>
<path fill="none" stroke="#000000" d="M331.2864,-287.509C315.8892,-298.5529 324.9632,-331.0493 304,-350.7 276.4382,-376.5362 266.7778,-390.7 229,-390.7"/>
<polygon fill="#000000" stroke="#000000" points="337.7727,-285.7708 346.4319,-287.1773 341.6363,-284.7354 345.5,-283.7 345.5,-283.7 345.5,-283.7 341.6363,-284.7354 344.5681,-280.2227 337.7727,-285.7708 337.7727,-285.7708"/>
<ellipse fill="none" stroke="#000000" cx="334.6817" cy="-286.5991" rx="3.2" ry="3.2"/>
</g>
<!-- court_appearance_reason -->
<g id="node4" class="node">
<title>court_appearance_reason</title>
<g id="a_node4"><a xlink:href="../../tables/court_appearance_reason.html" xlink:title="court_appearance_reason" target="_top">
<polygon fill="#ffffff" stroke="transparent" points="46.5,-279.2 46.5,-340.2 257.5,-340.2 257.5,-279.2 46.5,-279.2"/>
<polygon fill="#f5f5f5" stroke="transparent" points="47,-316.7 47,-339.7 258,-339.7 258,-316.7 47,-316.7"/>
<polygon fill="none" stroke="#000000" points="47,-316.7 47,-339.7 258,-339.7 258,-316.7 47,-316.7"/>
<text text-anchor="start" x="52" y="-325.3" font-family="Helvetica,sans-Serif" font-weight="bold" font-size="11.00" fill="#000000">court_appearance_reason</text>
<text text-anchor="start" x="223.5219" y="-324.8" font-family="Helvetica,sans-Serif" font-size="11.00" fill="#000000">[table]</text>
<polygon fill="none" stroke="#000000" points="47,-297.7 47,-316.7 258,-316.7 258,-297.7 47,-297.7"/>
<text text-anchor="start" x="50" y="-303.8" font-family="Helvetica,sans-Serif" font-size="11.00" fill="#000000">...</text>
<polygon fill="#ffffff" stroke="transparent" points="47,-278.7 47,-297.7 142,-297.7 142,-278.7 47,-278.7"/>
<polygon fill="none" stroke="#000000" points="47,-278.7 47,-297.7 142,-297.7 142,-278.7 47,-278.7"/>
<text text-anchor="start" x="50" y="-284.8" font-family="Helvetica,sans-Serif" font-size="11.00" fill="#000000"> &#160;</text>
<polygon fill="#ffffff" stroke="transparent" points="142,-278.7 142,-297.7 195,-297.7 195,-278.7 142,-278.7"/>
<polygon fill="none" stroke="#000000" points="142,-278.7 142,-297.7 195,-297.7 195,-278.7 142,-278.7"/>
<text text-anchor="start" x="185.8862" y="-284.8" font-family="Helvetica,sans-Serif" font-size="11.00" fill="#000000"> &#160;</text>
<polygon fill="#ffffff" stroke="transparent" points="195,-278.7 195,-297.7 258,-297.7 258,-278.7 195,-278.7"/>
<polygon fill="none" stroke="#000000" points="195,-278.7 195,-297.7 258,-297.7 258,-278.7 195,-278.7"/>
<text text-anchor="start" x="239.4053" y="-284.8" font-family="Helvetica,sans-Serif" font-size="11.00" fill="#000000">2 &gt;</text>
</a>
</g>
</g>
<!-- court_appearance&#45;&gt;court_appearance_reason -->
<g id="edge3" class="edge">
<title>court_appearance:w&#45;&gt;court_appearance_reason:e</title>
<path fill="none" stroke="#000000" d="M330.9699,-242.0846C298.1269,-254.0199 301.4317,-306.7 258,-306.7"/>
<polygon fill="#000000" stroke="#000000" points="337.6056,-240.9956 346.083,-243.2525 341.5528,-240.3478 345.5,-239.7 345.5,-239.7 345.5,-239.7 341.5528,-240.3478 344.917,-236.1475 337.6056,-240.9956 337.6056,-240.9956"/>
<ellipse fill="none" stroke="#000000" cx="334.4478" cy="-241.5139" rx="3.2" ry="3.2"/>
</g>
<!-- court_appearance_status -->
<g id="node5" class="node">
<title>court_appearance_status</title>
<g id="a_node5"><a xlink:href="../../tables/court_appearance_status.html" xlink:title="court_appearance_status" target="_top">
<polygon fill="#ffffff" stroke="transparent" points="8,-120.7 8,-254.7 296,-254.7 296,-120.7 8,-120.7"/>
<polygon fill="#f5f5f5" stroke="transparent" points="10,-229.7 10,-252.7 294,-252.7 294,-229.7 10,-229.7"/>
<polygon fill="none" stroke="#000000" points="10,-229.7 10,-252.7 294,-252.7 294,-229.7 10,-229.7"/>
<text text-anchor="start" x="15" y="-238.3" font-family="Helvetica,sans-Serif" font-weight="bold" font-size="11.00" fill="#000000">court_appearance_status</text>
<text text-anchor="start" x="259.0437" y="-237.8" font-family="Helvetica,sans-Serif" font-size="11.00" fill="#000000">[table]</text>
<polygon fill="none" stroke="#000000" points="10,-207.7 10,-229.7 200,-229.7 200,-207.7 10,-207.7"/>
<image xlink:href="../../images/primaryKeys.png" width="11px" height="12px" preserveAspectRatio="xMinYMin meet" x="15" y="-224.7"/>
<text text-anchor="start" x="30" y="-214.8" font-family="Helvetica,sans-Serif" font-size="11.00" fill="#000000">id</text>
<polygon fill="none" stroke="#000000" points="200,-207.7 200,-229.7 294,-229.7 294,-207.7 200,-207.7"/>
<text text-anchor="start" x="202.9758" y="-215.4" font-family="Helvetica,sans-Serif" font-size="11.00" fill="#000000">uuid[2147483647]</text>
<polygon fill="#ffffff" stroke="transparent" points="10,-185.7 10,-207.7 200,-207.7 200,-185.7 10,-185.7"/>
<polygon fill="none" stroke="#000000" points="10,-185.7 10,-207.7 200,-207.7 200,-185.7 10,-185.7"/>
<text text-anchor="start" x="30" y="-192.8" font-family="Helvetica,sans-Serif" font-size="11.00" fill="#000000">code</text>
<polygon fill="none" stroke="#000000" points="200,-185.7 200,-207.7 294,-207.7 294,-185.7 200,-185.7"/>
<text text-anchor="start" x="203" y="-193.4" font-family="Helvetica,sans-Serif" font-size="11.00" fill="#000000">varchar[16]</text>
<polygon fill="none" stroke="#000000" points="10,-163.7 10,-185.7 200,-185.7 200,-163.7 10,-163.7"/>
<text text-anchor="start" x="30" y="-170.8" font-family="Helvetica,sans-Serif" font-size="11.00" fill="#000000">description</text>
<polygon fill="none" stroke="#000000" points="200,-163.7 200,-185.7 294,-185.7 294,-163.7 200,-163.7"/>
<text text-anchor="start" x="203" y="-171.4" font-family="Helvetica,sans-Serif" font-size="11.00" fill="#000000">varchar[255]</text>
<polygon fill="#ffffff" stroke="transparent" points="10,-141.7 10,-163.7 200,-163.7 200,-141.7 10,-141.7"/>
<polygon fill="none" stroke="#000000" points="10,-141.7 10,-163.7 200,-163.7 200,-141.7 10,-141.7"/>
<text text-anchor="start" x="30" y="-148.8" font-family="Helvetica,sans-Serif" font-size="11.00" fill="#000000">sequence_number</text>
<polygon fill="none" stroke="#000000" points="200,-141.7 200,-163.7 294,-163.7 294,-141.7 200,-141.7"/>
<text text-anchor="start" x="203" y="-149.4" font-family="Helvetica,sans-Serif" font-size="11.00" fill="#000000">int4[10]</text>
<polygon fill="#ffffff" stroke="transparent" points="10,-122.7 10,-141.7 109,-141.7 109,-122.7 10,-122.7"/>
<polygon fill="none" stroke="#000000" points="10,-122.7 10,-141.7 109,-141.7 109,-122.7 10,-122.7"/>
<text text-anchor="start" x="13" y="-128.8" font-family="Helvetica,sans-Serif" font-size="11.00" fill="#000000">&lt; 0</text>
<polygon fill="#ffffff" stroke="transparent" points="109,-122.7 109,-141.7 200,-141.7 200,-122.7 109,-122.7"/>
<polygon fill="none" stroke="#000000" points="109,-122.7 109,-141.7 200,-141.7 200,-122.7 109,-122.7"/>
<text text-anchor="start" x="190.8862" y="-128.8" font-family="Helvetica,sans-Serif" font-size="11.00" fill="#000000"> &#160;</text>
<polygon fill="#ffffff" stroke="transparent" points="200,-122.7 200,-141.7 294,-141.7 294,-122.7 200,-122.7"/>
<polygon fill="none" stroke="#000000" points="200,-122.7 200,-141.7 294,-141.7 294,-122.7 200,-122.7"/>
<text text-anchor="start" x="275.4053" y="-128.8" font-family="Helvetica,sans-Serif" font-size="11.00" fill="#000000">1 &gt;</text>
<polygon fill="none" stroke="#000000" stroke-width="2" points="9,-121.7 9,-253.7 295,-253.7 295,-121.7 9,-121.7"/>
</a>
</g>
</g>
<!-- court_appearance&#45;&gt;court_appearance_status -->
<g id="edge4" class="edge">
<title>court_appearance:w&#45;&gt;court_appearance_status:e</title>
<path fill="none" stroke="#000000" d="M331.0144,-217.8563C318.6763,-218.1375 311.1699,-218.7 294,-218.7"/>
<polygon fill="#000000" stroke="#000000" points="337.5005,-217.7863 345.5389,-221.2998 341.5002,-217.7432 345.5,-217.7 345.5,-217.7 345.5,-217.7 341.5002,-217.7432 345.4611,-214.1002 337.5005,-217.7863 337.5005,-217.7863"/>
<ellipse fill="none" stroke="#000000" cx="334.3007" cy="-217.8209" rx="3.2" ry="3.2"/>
</g>
<!-- court_appearance_movement -->
<g id="node6" class="node">
<title>court_appearance_movement</title>
<g id="a_node6"><a xlink:href="../../tables/court_appearance_movement.html" xlink:title="court_appearance_movement" target="_top">
<polygon fill="#ffffff" stroke="transparent" points="553,-337.2 553,-398.2 790,-398.2 790,-337.2 553,-337.2"/>
<polygon fill="#f5f5f5" stroke="transparent" points="553.5,-374.7 553.5,-397.7 790.5,-397.7 790.5,-374.7 553.5,-374.7"/>
<polygon fill="none" stroke="#000000" points="553.5,-374.7 553.5,-397.7 790.5,-397.7 790.5,-374.7 553.5,-374.7"/>
<text text-anchor="start" x="558.5" y="-383.3" font-family="Helvetica,sans-Serif" font-weight="bold" font-size="11.00" fill="#000000">court_appearance_movement</text>
<text text-anchor="start" x="756.0219" y="-382.8" font-family="Helvetica,sans-Serif" font-size="11.00" fill="#000000">[table]</text>
<polygon fill="none" stroke="#000000" points="553.5,-355.7 553.5,-374.7 790.5,-374.7 790.5,-355.7 553.5,-355.7"/>
<text text-anchor="start" x="556.5" y="-361.8" font-family="Helvetica,sans-Serif" font-size="11.00" fill="#000000">...</text>
<polygon fill="#ffffff" stroke="transparent" points="553.5,-336.7 553.5,-355.7 670.5,-355.7 670.5,-336.7 553.5,-336.7"/>
<polygon fill="none" stroke="#000000" points="553.5,-336.7 553.5,-355.7 670.5,-355.7 670.5,-336.7 553.5,-336.7"/>
<text text-anchor="start" x="556.5" y="-342.8" font-family="Helvetica,sans-Serif" font-size="11.00" fill="#000000">&lt; 3</text>
<polygon fill="#ffffff" stroke="transparent" points="670.5,-336.7 670.5,-355.7 730.5,-355.7 730.5,-336.7 670.5,-336.7"/>
<polygon fill="none" stroke="#000000" points="670.5,-336.7 670.5,-355.7 730.5,-355.7 730.5,-336.7 670.5,-336.7"/>
<text text-anchor="start" x="721.3862" y="-342.8" font-family="Helvetica,sans-Serif" font-size="11.00" fill="#000000"> &#160;</text>
<polygon fill="#ffffff" stroke="transparent" points="730.5,-336.7 730.5,-355.7 790.5,-355.7 790.5,-336.7 730.5,-336.7"/>
<polygon fill="none" stroke="#000000" points="730.5,-336.7 730.5,-355.7 790.5,-355.7 790.5,-336.7 730.5,-336.7"/>
<text text-anchor="start" x="781.3862" y="-342.8" font-family="Helvetica,sans-Serif" font-size="11.00" fill="#000000"> &#160;</text>
</a>
</g>
</g>
<!-- court_appearance_movement&#45;&gt;court_appearance -->
<g id="edge5" class="edge">
<title>court_appearance_movement:w&#45;&gt;court_appearance:e</title>
<path fill="none" stroke="#000000" d="M539.6662,-359.6697C524.5842,-345.4018 532.4614,-305.7 504.5,-305.7"/>
<polygon fill="#000000" stroke="#000000" points="545.9816,-361.9661 552.2697,-368.0833 549.7408,-363.3331 553.5,-364.7 553.5,-364.7 553.5,-364.7 549.7408,-363.3331 554.7303,-361.3167 545.9816,-361.9661 545.9816,-361.9661"/>
<ellipse fill="none" stroke="#000000" cx="542.9743" cy="-360.8725" rx="3.2" ry="3.2"/>
</g>
<!-- court_appearance_movement&#45;&gt;person_summary -->
<g id="edge6" class="edge">
<title>court_appearance_movement:w&#45;&gt;person_summary:e</title>
<path fill="none" stroke="#000000" d="M538.9583,-366.5414C530.5798,-368.8746 524.7572,-372.818 512,-374.7 387.3702,-393.0858 354.9786,-390.7 229,-390.7"/>
<polygon fill="#000000" stroke="#000000" points="545.5634,-365.7051 553.9523,-368.2715 549.5317,-365.2025 553.5,-364.7 553.5,-364.7 553.5,-364.7 549.5317,-365.2025 553.0477,-361.1285 545.5634,-365.7051 545.5634,-365.7051"/>
<ellipse fill="none" stroke="#000000" cx="542.3887" cy="-366.1071" rx="3.2" ry="3.2"/>
</g>
<!-- court_appearance_movement&#45;&gt;court_appearance_reason -->
<g id="edge7" class="edge">
<title>court_appearance_movement:w&#45;&gt;court_appearance_reason:e</title>
<path fill="none" stroke="#000000" d="M539.0628,-364.7989C454.0479,-365.9618 424.7089,-376.5275 337,-350.7 298.4471,-339.3474 298.1897,-306.7 258,-306.7"/>
<polygon fill="#000000" stroke="#000000" points="545.5002,-364.7549 553.5247,-368.2999 549.5001,-364.7274 553.5,-364.7 553.5,-364.7 553.5,-364.7 549.5001,-364.7274 553.4753,-361.1001 545.5002,-364.7549 545.5002,-364.7549"/>
<ellipse fill="none" stroke="#000000" cx="542.3003" cy="-364.7768" rx="3.2" ry="3.2"/>
</g>
</g>
</svg>
