<?xml version="1.0" encoding="UTF-8" standalone="no"?>
<!DOCTYPE svg PUBLIC "-//W3C//DTD SVG 1.1//EN"
 "http://www.w3.org/Graphics/SVG/1.1/DTD/svg11.dtd">
<!-- Generated by graphviz version 2.40.1 (20161225.0304)
 -->
<!-- Title: twoDegreesRelationshipsDiagram Pages: 1 -->
<svg width="809pt" height="365pt"
 viewBox="0.00 0.00 809.00 364.70" xmlns="http://www.w3.org/2000/svg" xmlns:xlink="http://www.w3.org/1999/xlink">
<g id="graph0" class="graph" transform="scale(1 1) rotate(0) translate(4 360.7)">
<title>twoDegreesRelationshipsDiagram</title>
<polygon fill="#ffffff" stroke="transparent" points="-4,4 -4,-360.7 805,-360.7 805,4 -4,4"/>
<text text-anchor="middle" x="72.4936" y="-7.3" font-family="Helvetica,sans-Serif" font-size="11.00" fill="#000000">Generated by SchemaSpy</text>
<!-- court_appearance -->
<g id="node1" class="node">
<title>court_appearance</title>
<g id="a_node1"><a xlink:href="../../tables/court_appearance.html" xlink:title="court_appearance" target="_top">
<polygon fill="#ffffff" stroke="transparent" points="268,-231.7 268,-292.7 427,-292.7 427,-231.7 268,-231.7"/>
<polygon fill="#f5f5f5" stroke="transparent" points="268.5,-269.2 268.5,-292.2 427.5,-292.2 427.5,-269.2 268.5,-269.2"/>
<polygon fill="none" stroke="#000000" points="268.5,-269.2 268.5,-292.2 427.5,-292.2 427.5,-269.2 268.5,-269.2"/>
<text text-anchor="start" x="273.5" y="-277.8" font-family="Helvetica,sans-Serif" font-weight="bold" font-size="11.00" fill="#000000">court_appearance</text>
<text text-anchor="start" x="393.0219" y="-277.3" font-family="Helvetica,sans-Serif" font-size="11.00" fill="#000000">[table]</text>
<polygon fill="none" stroke="#000000" points="268.5,-250.2 268.5,-269.2 427.5,-269.2 427.5,-250.2 268.5,-250.2"/>
<text text-anchor="start" x="271.5" y="-256.3" font-family="Helvetica,sans-Serif" font-size="11.00" fill="#000000">...</text>
<polygon fill="#ffffff" stroke="transparent" points="268.5,-231.2 268.5,-250.2 341.5,-250.2 341.5,-231.2 268.5,-231.2"/>
<polygon fill="none" stroke="#000000" points="268.5,-231.2 268.5,-250.2 341.5,-250.2 341.5,-231.2 268.5,-231.2"/>
<text text-anchor="start" x="271.5" y="-237.3" font-family="Helvetica,sans-Serif" font-size="11.00" fill="#000000">&lt; 3</text>
<polygon fill="#ffffff" stroke="transparent" points="341.5,-231.2 341.5,-250.2 379.5,-250.2 379.5,-231.2 341.5,-231.2"/>
<polygon fill="none" stroke="#000000" points="341.5,-231.2 341.5,-250.2 379.5,-250.2 379.5,-231.2 341.5,-231.2"/>
<text text-anchor="start" x="370.3862" y="-237.3" font-family="Helvetica,sans-Serif" font-size="11.00" fill="#000000"> &#160;</text>
<polygon fill="#ffffff" stroke="transparent" points="379.5,-231.2 379.5,-250.2 427.5,-250.2 427.5,-231.2 379.5,-231.2"/>
<polygon fill="none" stroke="#000000" points="379.5,-231.2 379.5,-250.2 427.5,-250.2 427.5,-231.2 379.5,-231.2"/>
<text text-anchor="start" x="408.9053" y="-237.3" font-family="Helvetica,sans-Serif" font-size="11.00" fill="#000000">1 &gt;</text>
</a>
</g>
</g>
<!-- person_summary -->
<g id="node2" class="node">
<title>person_summary</title>
<g id="a_node2"><a xlink:href="../../tables/person_summary.html" xlink:title="person_summary" target="_top">
<polygon fill="#ffffff" stroke="transparent" points="36.5,-209.7 36.5,-270.7 190.5,-270.7 190.5,-209.7 36.5,-209.7"/>
<polygon fill="#f5f5f5" stroke="transparent" points="36.5,-247.2 36.5,-270.2 190.5,-270.2 190.5,-247.2 36.5,-247.2"/>
<polygon fill="none" stroke="#000000" points="36.5,-247.2 36.5,-270.2 190.5,-270.2 190.5,-247.2 36.5,-247.2"/>
<text text-anchor="start" x="41.5" y="-255.8" font-family="Helvetica,sans-Serif" font-weight="bold" font-size="11.00" fill="#000000">person_summary</text>
<text text-anchor="start" x="156.0219" y="-255.3" font-family="Helvetica,sans-Serif" font-size="11.00" fill="#000000">[table]</text>
<polygon fill="none" stroke="#000000" points="36.5,-228.2 36.5,-247.2 190.5,-247.2 190.5,-228.2 36.5,-228.2"/>
<text text-anchor="start" x="39.5" y="-234.3" font-family="Helvetica,sans-Serif" font-size="11.00" fill="#000000">...</text>
<polygon fill="#ffffff" stroke="transparent" points="36.5,-209.2 36.5,-228.2 102.5,-228.2 102.5,-209.2 36.5,-209.2"/>
<polygon fill="none" stroke="#000000" points="36.5,-209.2 36.5,-228.2 102.5,-228.2 102.5,-209.2 36.5,-209.2"/>
<text text-anchor="start" x="39.5" y="-215.3" font-family="Helvetica,sans-Serif" font-size="11.00" fill="#000000"> &#160;</text>
<polygon fill="#ffffff" stroke="transparent" points="102.5,-209.2 102.5,-228.2 141.5,-228.2 141.5,-209.2 102.5,-209.2"/>
<polygon fill="none" stroke="#000000" points="102.5,-209.2 102.5,-228.2 141.5,-228.2 141.5,-209.2 102.5,-209.2"/>
<text text-anchor="start" x="132.3862" y="-215.3" font-family="Helvetica,sans-Serif" font-size="11.00" fill="#000000"> &#160;</text>
<polygon fill="#ffffff" stroke="transparent" points="141.5,-209.2 141.5,-228.2 190.5,-228.2 190.5,-209.2 141.5,-209.2"/>
<polygon fill="none" stroke="#000000" points="141.5,-209.2 141.5,-228.2 190.5,-228.2 190.5,-209.2 141.5,-209.2"/>
<text text-anchor="start" x="171.9053" y="-215.3" font-family="Helvetica,sans-Serif" font-size="11.00" fill="#000000">2 &gt;</text>
</a>
</g>
</g>
<!-- court_appearance&#45;&gt;person_summary -->
<g id="edge1" class="edge">
<title>court_appearance:w&#45;&gt;person_summary:e</title>
<path fill="none" stroke="#000000" d="M245.0134,-252.5645C229.5465,-251.1104 213.7358,-249.6239 198.6853,-248.2089"/>
<polygon fill="#000000" stroke="#000000" points="251.7364,-253.1965 259.3643,-257.5296 255.7188,-253.571 259.7013,-253.9454 259.7013,-253.9454 259.7013,-253.9454 255.7188,-253.571 260.0383,-250.3612 251.7364,-253.1965 251.7364,-253.1965"/>
<ellipse fill="none" stroke="#000000" cx="248.5505" cy="-252.897" rx="3.2" ry="3.2"/>
</g>
<!-- court_appearance_reason -->
<g id="node3" class="node">
<title>court_appearance_reason</title>
<g id="a_node3"><a xlink:href="../../tables/court_appearance_reason.html" xlink:title="court_appearance_reason" target="_top">
<polygon fill="#ffffff" stroke="transparent" points="8,-127.7 8,-188.7 219,-188.7 219,-127.7 8,-127.7"/>
<polygon fill="#f5f5f5" stroke="transparent" points="8.5,-165.2 8.5,-188.2 219.5,-188.2 219.5,-165.2 8.5,-165.2"/>
<polygon fill="none" stroke="#000000" points="8.5,-165.2 8.5,-188.2 219.5,-188.2 219.5,-165.2 8.5,-165.2"/>
<text text-anchor="start" x="13.5" y="-173.8" font-family="Helvetica,sans-Serif" font-weight="bold" font-size="11.00" fill="#000000">court_appearance_reason</text>
<text text-anchor="start" x="185.0219" y="-173.3" font-family="Helvetica,sans-Serif" font-size="11.00" fill="#000000">[table]</text>
<polygon fill="none" stroke="#000000" points="8.5,-146.2 8.5,-165.2 219.5,-165.2 219.5,-146.2 8.5,-146.2"/>
<text text-anchor="start" x="11.5" y="-152.3" font-family="Helvetica,sans-Serif" font-size="11.00" fill="#000000">...</text>
<polygon fill="#ffffff" stroke="transparent" points="8.5,-127.2 8.5,-146.2 103.5,-146.2 103.5,-127.2 8.5,-127.2"/>
<polygon fill="none" stroke="#000000" points="8.5,-127.2 8.5,-146.2 103.5,-146.2 103.5,-127.2 8.5,-127.2"/>
<text text-anchor="start" x="11.5" y="-133.3" font-family="Helvetica,sans-Serif" font-size="11.00" fill="#000000"> &#160;</text>
<polygon fill="#ffffff" stroke="transparent" points="103.5,-127.2 103.5,-146.2 156.5,-146.2 156.5,-127.2 103.5,-127.2"/>
<polygon fill="none" stroke="#000000" points="103.5,-127.2 103.5,-146.2 156.5,-146.2 156.5,-127.2 103.5,-127.2"/>
<text text-anchor="start" x="147.3862" y="-133.3" font-family="Helvetica,sans-Serif" font-size="11.00" fill="#000000"> &#160;</text>
<polygon fill="#ffffff" stroke="transparent" points="156.5,-127.2 156.5,-146.2 219.5,-146.2 219.5,-127.2 156.5,-127.2"/>
<polygon fill="none" stroke="#000000" points="156.5,-127.2 156.5,-146.2 219.5,-146.2 219.5,-127.2 156.5,-127.2"/>
<text text-anchor="start" x="200.9053" y="-133.3" font-family="Helvetica,sans-Serif" font-size="11.00" fill="#000000">2 &gt;</text>
</a>
</g>
</g>
<!-- court_appearance&#45;&gt;court_appearance_reason -->
<g id="edge2" class="edge">
<title>court_appearance:w&#45;&gt;court_appearance_reason:e</title>
<path fill="none" stroke="#000000" d="M272.3063,-220.9025C257.4642,-213.3177 241.8759,-205.7398 227,-199.2 222.0133,-197.0077 216.8688,-194.8379 211.65,-192.7084"/>
<polygon fill="#000000" stroke="#000000" points="278.0178,-223.8626 283.464,-230.74 281.5692,-225.7032 285.1205,-227.5438 285.1205,-227.5438 285.1205,-227.5438 281.5692,-225.7032 286.7771,-224.3476 278.0178,-223.8626 278.0178,-223.8626"/>
<ellipse fill="none" stroke="#000000" cx="275.1767" cy="-222.3901" rx="3.2" ry="3.2"/>
</g>
<!-- court_appearance_status -->
<g id="node4" class="node">
<title>court_appearance_status</title>
<g id="a_node4"><a xlink:href="../../tables/court_appearance_status.html" xlink:title="court_appearance_status" target="_top">
<polygon fill="#ffffff" stroke="transparent" points="9.5,-291.7 9.5,-352.7 217.5,-352.7 217.5,-291.7 9.5,-291.7"/>
<polygon fill="#f5f5f5" stroke="transparent" points="9.5,-329.2 9.5,-352.2 217.5,-352.2 217.5,-329.2 9.5,-329.2"/>
<polygon fill="none" stroke="#000000" points="9.5,-329.2 9.5,-352.2 217.5,-352.2 217.5,-329.2 9.5,-329.2"/>
<text text-anchor="start" x="14.5" y="-337.8" font-family="Helvetica,sans-Serif" font-weight="bold" font-size="11.00" fill="#000000">court_appearance_status</text>
<text text-anchor="start" x="183.0219" y="-337.3" font-family="Helvetica,sans-Serif" font-size="11.00" fill="#000000">[table]</text>
<polygon fill="none" stroke="#000000" points="9.5,-310.2 9.5,-329.2 217.5,-329.2 217.5,-310.2 9.5,-310.2"/>
<text text-anchor="start" x="12.5" y="-316.3" font-family="Helvetica,sans-Serif" font-size="11.00" fill="#000000">...</text>
<polygon fill="#ffffff" stroke="transparent" points="9.5,-291.2 9.5,-310.2 102.5,-310.2 102.5,-291.2 9.5,-291.2"/>
<polygon fill="none" stroke="#000000" points="9.5,-291.2 9.5,-310.2 102.5,-310.2 102.5,-291.2 9.5,-291.2"/>
<text text-anchor="start" x="12.5" y="-297.3" font-family="Helvetica,sans-Serif" font-size="11.00" fill="#000000"> &#160;</text>
<polygon fill="#ffffff" stroke="transparent" points="102.5,-291.2 102.5,-310.2 155.5,-310.2 155.5,-291.2 102.5,-291.2"/>
<polygon fill="none" stroke="#000000" points="102.5,-291.2 102.5,-310.2 155.5,-310.2 155.5,-291.2 102.5,-291.2"/>
<text text-anchor="start" x="146.3862" y="-297.3" font-family="Helvetica,sans-Serif" font-size="11.00" fill="#000000"> &#160;</text>
<polygon fill="#ffffff" stroke="transparent" points="155.5,-291.2 155.5,-310.2 217.5,-310.2 217.5,-291.2 155.5,-291.2"/>
<polygon fill="none" stroke="#000000" points="155.5,-291.2 155.5,-310.2 217.5,-310.2 217.5,-291.2 155.5,-291.2"/>
<text text-anchor="start" x="198.9053" y="-297.3" font-family="Helvetica,sans-Serif" font-size="11.00" fill="#000000">1 &gt;</text>
</a>
</g>
</g>
<!-- court_appearance&#45;&gt;court_appearance_status -->
<g id="edge3" class="edge">
<title>court_appearance:w&#45;&gt;court_appearance_status:e</title>
<path fill="none" stroke="#000000" d="M281.9785,-303.2021C262.0274,-312.2492 239.5305,-319.2 217.5,-319.2"/>
<polygon fill="#000000" stroke="#000000" points="287.829,-300.3457 296.5974,-300.0707 291.4234,-298.5907 295.0179,-296.8357 295.0179,-296.8357 295.0179,-296.8357 291.4234,-298.5907 293.4384,-293.6007 287.829,-300.3457 287.829,-300.3457"/>
<ellipse fill="none" stroke="#000000" cx="284.9534" cy="-301.7496" rx="3.2" ry="3.2"/>
</g>
<!-- court_appearance_movement -->
<g id="node5" class="node">
<title>court_appearance_movement</title>
<g id="a_node5"><a xlink:href="../../tables/court_appearance_movement.html" xlink:title="court_appearance_movement" target="_top">
<polygon fill="#ffffff" stroke="transparent" points="476,-38.2 476,-326.2 793,-326.2 793,-38.2 476,-38.2"/>
<polygon fill="#f5f5f5" stroke="transparent" points="478.5,-301.2 478.5,-324.2 791.5,-324.2 791.5,-301.2 478.5,-301.2"/>
<polygon fill="none" stroke="#000000" points="478.5,-301.2 478.5,-324.2 791.5,-324.2 791.5,-301.2 478.5,-301.2"/>
<text text-anchor="start" x="483.5" y="-309.8" font-family="Helvetica,sans-Serif" font-weight="bold" font-size="11.00" fill="#000000">court_appearance_movement</text>
<text text-anchor="start" x="756.5437" y="-309.3" font-family="Helvetica,sans-Serif" font-size="11.00" fill="#000000">[table]</text>
<polygon fill="none" stroke="#000000" points="478.5,-279.2 478.5,-301.2 697.5,-301.2 697.5,-279.2 478.5,-279.2"/>
<image xlink:href="../../images/primaryKeys.png" width="11px" height="12px" preserveAspectRatio="xMinYMin meet" x="483.5" y="-296.2"/>
<text text-anchor="start" x="498.5" y="-286.3" font-family="Helvetica,sans-Serif" font-size="11.00" fill="#000000">id</text>
<polygon fill="none" stroke="#000000" points="697.5,-279.2 697.5,-301.2 791.5,-301.2 791.5,-279.2 697.5,-279.2"/>
<text text-anchor="start" x="700.4758" y="-286.9" font-family="Helvetica,sans-Serif" font-size="11.00" fill="#000000">uuid[2147483647]</text>
<polygon fill="none" stroke="#000000" points="478.5,-257.2 478.5,-279.2 697.5,-279.2 697.5,-257.2 478.5,-257.2"/>
<text text-anchor="start" x="498.5" y="-264.3" font-family="Helvetica,sans-Serif" font-size="11.00" fill="#000000">version</text>
<polygon fill="none" stroke="#000000" points="697.5,-257.2 697.5,-279.2 791.5,-279.2 791.5,-257.2 697.5,-257.2"/>
<text text-anchor="start" x="700.5" y="-264.9" font-family="Helvetica,sans-Serif" font-size="11.00" fill="#000000">int4[10]</text>
<polygon fill="#ffffff" stroke="transparent" points="478.5,-235.2 478.5,-257.2 697.5,-257.2 697.5,-235.2 478.5,-235.2"/>
<polygon fill="none" stroke="#000000" points="478.5,-235.2 478.5,-257.2 697.5,-257.2 697.5,-235.2 478.5,-235.2"/>
<image xlink:href="../../images/foreignKeys.png" width="11px" height="12px" preserveAspectRatio="xMinYMin meet" x="483.5" y="-252.2"/>
<text text-anchor="start" x="498.5" y="-242.3" font-family="Helvetica,sans-Serif" font-size="11.00" fill="#000000">court_appearance_id</text>
<polygon fill="none" stroke="#000000" points="697.5,-235.2 697.5,-257.2 791.5,-257.2 791.5,-235.2 697.5,-235.2"/>
<text text-anchor="start" x="700.4758" y="-242.9" font-family="Helvetica,sans-Serif" font-size="11.00" fill="#000000">uuid[2147483647]</text>
<polygon fill="#ffffff" stroke="transparent" points="478.5,-213.2 478.5,-235.2 697.5,-235.2 697.5,-213.2 478.5,-213.2"/>
<polygon fill="none" stroke="#000000" points="478.5,-213.2 478.5,-235.2 697.5,-235.2 697.5,-213.2 478.5,-213.2"/>
<image xlink:href="../../images/foreignKeys.png" width="11px" height="12px" preserveAspectRatio="xMinYMin meet" x="483.5" y="-230.2"/>
<text text-anchor="start" x="498.5" y="-220.3" font-family="Helvetica,sans-Serif" font-size="11.00" fill="#000000">person_identifier</text>
<polygon fill="none" stroke="#000000" points="697.5,-213.2 697.5,-235.2 791.5,-235.2 791.5,-213.2 697.5,-213.2"/>
<text text-anchor="start" x="700.5" y="-220.9" font-family="Helvetica,sans-Serif" font-size="11.00" fill="#000000">varchar[10]</text>
<polygon fill="none" stroke="#000000" points="478.5,-191.2 478.5,-213.2 697.5,-213.2 697.5,-191.2 478.5,-191.2"/>
<text text-anchor="start" x="498.5" y="-198.3" font-family="Helvetica,sans-Serif" font-size="11.00" fill="#000000">prison_code</text>
<polygon fill="none" stroke="#000000" points="697.5,-191.2 697.5,-213.2 791.5,-213.2 791.5,-191.2 697.5,-191.2"/>
<text text-anchor="start" x="700.5" y="-198.9" font-family="Helvetica,sans-Serif" font-size="11.00" fill="#000000">varchar[6]</text>
<polygon fill="none" stroke="#000000" points="478.5,-169.2 478.5,-191.2 697.5,-191.2 697.5,-169.2 478.5,-169.2"/>
<text text-anchor="start" x="498.5" y="-176.3" font-family="Helvetica,sans-Serif" font-size="11.00" fill="#000000">court_code</text>
<polygon fill="none" stroke="#000000" points="697.5,-169.2 697.5,-191.2 791.5,-191.2 791.5,-169.2 697.5,-169.2"/>
<text text-anchor="start" x="700.5" y="-176.9" font-family="Helvetica,sans-Serif" font-size="11.00" fill="#000000">varchar[6]</text>
<polygon fill="none" stroke="#000000" points="478.5,-147.2 478.5,-169.2 697.5,-169.2 697.5,-147.2 478.5,-147.2"/>
<image xlink:href="../../images/foreignKeys.png" width="11px" height="12px" preserveAspectRatio="xMinYMin meet" x="483.5" y="-164.2"/>
<text text-anchor="start" x="498.5" y="-154.3" font-family="Helvetica,sans-Serif" font-size="11.00" fill="#000000">reason_id</text>
<polygon fill="none" stroke="#000000" points="697.5,-147.2 697.5,-169.2 791.5,-169.2 791.5,-147.2 697.5,-147.2"/>
<text text-anchor="start" x="700.4758" y="-154.9" font-family="Helvetica,sans-Serif" font-size="11.00" fill="#000000">uuid[2147483647]</text>
<polygon fill="none" stroke="#000000" points="478.5,-125.2 478.5,-147.2 697.5,-147.2 697.5,-125.2 478.5,-125.2"/>
<text text-anchor="start" x="498.5" y="-132.3" font-family="Helvetica,sans-Serif" font-size="11.00" fill="#000000">direction</text>
<polygon fill="none" stroke="#000000" points="697.5,-125.2 697.5,-147.2 791.5,-147.2 791.5,-125.2 697.5,-125.2"/>
<text text-anchor="start" x="700.5" y="-132.9" font-family="Helvetica,sans-Serif" font-size="11.00" fill="#000000">varchar[3]</text>
<polygon fill="none" stroke="#000000" points="478.5,-103.2 478.5,-125.2 697.5,-125.2 697.5,-103.2 478.5,-103.2"/>
<text text-anchor="start" x="498.5" y="-110.3" font-family="Helvetica,sans-Serif" font-size="11.00" fill="#000000">occurred_at</text>
<polygon fill="none" stroke="#000000" points="697.5,-103.2 697.5,-125.2 791.5,-125.2 791.5,-103.2 697.5,-103.2"/>
<text text-anchor="start" x="700.5" y="-110.9" font-family="Helvetica,sans-Serif" font-size="11.00" fill="#000000">timestamp[29,6]</text>
<polygon fill="none" stroke="#000000" points="478.5,-81.2 478.5,-103.2 697.5,-103.2 697.5,-81.2 478.5,-81.2"/>
<text text-anchor="start" x="498.5" y="-88.3" font-family="Helvetica,sans-Serif" font-size="11.00" fill="#000000">comments</text>
<polygon fill="none" stroke="#000000" points="697.5,-81.2 697.5,-103.2 791.5,-103.2 791.5,-81.2 697.5,-81.2"/>
<text text-anchor="start" x="700.5" y="-88.9" font-family="Helvetica,sans-Serif" font-size="11.00" fill="#000000">text[2147483647]</text>
<polygon fill="#ffffff" stroke="transparent" points="478.5,-59.2 478.5,-81.2 697.5,-81.2 697.5,-59.2 478.5,-59.2"/>
<polygon fill="none" stroke="#000000" points="478.5,-59.2 478.5,-81.2 697.5,-81.2 697.5,-59.2 478.5,-59.2"/>
<text text-anchor="start" x="498.5" y="-66.3" font-family="Helvetica,sans-Serif" font-size="11.00" fill="#000000">legacy_id</text>
<polygon fill="none" stroke="#000000" points="697.5,-59.2 697.5,-81.2 791.5,-81.2 791.5,-59.2 697.5,-59.2"/>
<text text-anchor="start" x="700.5" y="-66.9" font-family="Helvetica,sans-Serif" font-size="11.00" fill="#000000">varchar[32]</text>
<polygon fill="#ffffff" stroke="transparent" points="478.5,-40.2 478.5,-59.2 592.5,-59.2 592.5,-40.2 478.5,-40.2"/>
<polygon fill="none" stroke="#000000" points="478.5,-40.2 478.5,-59.2 592.5,-59.2 592.5,-40.2 478.5,-40.2"/>
<text text-anchor="start" x="481.5" y="-46.3" font-family="Helvetica,sans-Serif" font-size="11.00" fill="#000000">&lt; 3</text>
<polygon fill="#ffffff" stroke="transparent" points="592.5,-40.2 592.5,-59.2 697.5,-59.2 697.5,-40.2 592.5,-40.2"/>
<polygon fill="none" stroke="#000000" points="592.5,-40.2 592.5,-59.2 697.5,-59.2 697.5,-40.2 592.5,-40.2"/>
<text text-anchor="start" x="688.3862" y="-46.3" font-family="Helvetica,sans-Serif" font-size="11.00" fill="#000000"> &#160;</text>
<polygon fill="#ffffff" stroke="transparent" points="697.5,-40.2 697.5,-59.2 791.5,-59.2 791.5,-40.2 697.5,-40.2"/>
<polygon fill="none" stroke="#000000" points="697.5,-40.2 697.5,-59.2 791.5,-59.2 791.5,-40.2 697.5,-40.2"/>
<text text-anchor="start" x="772.9053" y="-46.3" font-family="Helvetica,sans-Serif" font-size="11.00" fill="#000000">0 &gt;</text>
<polygon fill="none" stroke="#000000" stroke-width="2" points="477,-39.2 477,-325.2 792,-325.2 792,-39.2 477,-39.2"/>
</a>
</g>
</g>
<!-- court_appearance_movement&#45;&gt;court_appearance -->
<g id="edge4" class="edge">
<title>court_appearance_movement:w&#45;&gt;court_appearance:e</title>
<path fill="none" stroke="#000000" d="M464.0767,-246.4958C454.4563,-246.8746 444.6643,-247.5948 435.0498,-248.5265"/>
<polygon fill="#000000" stroke="#000000" points="470.5017,-246.3641 478.5738,-249.7992 474.5008,-246.282 478.5,-246.2 478.5,-246.2 478.5,-246.2 474.5008,-246.282 478.4262,-242.6008 470.5017,-246.3641 470.5017,-246.3641"/>
<ellipse fill="none" stroke="#000000" cx="467.3024" cy="-246.4297" rx="3.2" ry="3.2"/>
</g>
<!-- court_appearance_movement&#45;&gt;person_summary -->
<g id="edge5" class="edge">
<title>court_appearance_movement:w&#45;&gt;person_summary:e</title>
<path fill="none" stroke="#000000" d="M464.0325,-223.6634C454.8676,-222.933 448.4667,-221.6638 435,-221.2 357.2683,-218.5228 337.6161,-216.1879 260,-221.2 240.0369,-222.4891 218.6385,-224.7566 198.5328,-227.2865"/>
<polygon fill="#000000" stroke="#000000" points="470.5055,-223.9034 478.3665,-227.7975 474.5027,-224.0517 478.5,-224.2 478.5,-224.2 478.5,-224.2 474.5027,-224.0517 478.6335,-220.6025 470.5055,-223.9034 470.5055,-223.9034"/>
<ellipse fill="none" stroke="#000000" cx="467.3077" cy="-223.7848" rx="3.2" ry="3.2"/>
</g>
<!-- court_appearance_movement&#45;&gt;court_appearance_reason -->
<g id="edge6" class="edge">
<title>court_appearance_movement:w&#45;&gt;court_appearance_reason:e</title>
<path fill="none" stroke="#000000" d="M463.6076,-158.2C383.322,-158.2 295.1336,-158.2 227.3508,-158.2"/>
<polygon fill="#000000" stroke="#000000" points="470.5,-158.2001 478.5,-161.8 474.5,-158.2 478.5,-158.2 478.5,-158.2 478.5,-158.2 474.5,-158.2 478.5,-154.6 470.5,-158.2001 470.5,-158.2001"/>
<ellipse fill="none" stroke="#000000" cx="467.3" cy="-158.2001" rx="3.2" ry="3.2"/>
</g>
</g>
</svg>
