<?xml version="1.0" encoding="UTF-8" standalone="no"?>
<!DOCTYPE svg PUBLIC "-//W3C//DTD SVG 1.1//EN"
 "http://www.w3.org/Graphics/SVG/1.1/DTD/svg11.dtd">
<!-- Generated by graphviz version 2.40.1 (20161225.0304)
 -->
<!-- Title: oneDegreeRelationshipsDiagram Pages: 1 -->
<svg width="816pt" height="482pt"
 viewBox="0.00 0.00 816.00 481.81" xmlns="http://www.w3.org/2000/svg" xmlns:xlink="http://www.w3.org/1999/xlink">
<g id="graph0" class="graph" transform="scale(1 1) rotate(0) translate(4 477.8101)">
<title>oneDegreeRelationshipsDiagram</title>
<polygon fill="#ffffff" stroke="transparent" points="-4,4 -4,-477.8101 812,-477.8101 812,4 -4,4"/>
<text text-anchor="middle" x="72.4936" y="-7.3" font-family="Helvetica,sans-Serif" font-size="11.00" fill="#000000">Generated by SchemaSpy</text>
<!-- court_appearance -->
<g id="node1" class="node">
<title>court_appearance</title>
<g id="a_node1"><a xlink:href="../../tables/court_appearance.html" xlink:title="court_appearance" target="_top">
<polygon fill="#ffffff" stroke="transparent" points="268,-101.2269 268,-433.2269 514,-433.2269 514,-101.2269 268,-101.2269"/>
<polygon fill="#f5f5f5" stroke="transparent" points="270,-408.2269 270,-431.2269 512,-431.2269 512,-408.2269 270,-408.2269"/>
<polygon fill="none" stroke="#000000" points="270,-408.2269 270,-431.2269 512,-431.2269 512,-408.2269 270,-408.2269"/>
<text text-anchor="start" x="275" y="-416.8269" font-family="Helvetica,sans-Serif" font-weight="bold" font-size="11.00" fill="#000000">court_appearance</text>
<text text-anchor="start" x="477.0437" y="-416.3269" font-family="Helvetica,sans-Serif" font-size="11.00" fill="#000000">[table]</text>
<polygon fill="none" stroke="#000000" points="270,-386.2269 270,-408.2269 418,-408.2269 418,-386.2269 270,-386.2269"/>
<image xlink:href="../../images/primaryKeys.png" width="11px" height="12px" preserveAspectRatio="xMinYMin meet" x="275" y="-403.227"/>
<text text-anchor="start" x="290" y="-393.3269" font-family="Helvetica,sans-Serif" font-size="11.00" fill="#000000">id</text>
<polygon fill="none" stroke="#000000" points="418,-386.2269 418,-408.2269 512,-408.2269 512,-386.2269 418,-386.2269"/>
<text text-anchor="start" x="420.9758" y="-393.9269" font-family="Helvetica,sans-Serif" font-size="11.00" fill="#000000">uuid[2147483647]</text>
<polygon fill="none" stroke="#000000" points="270,-364.2269 270,-386.2269 418,-386.2269 418,-364.2269 270,-364.2269"/>
<text text-anchor="start" x="290" y="-371.3269" font-family="Helvetica,sans-Serif" font-size="11.00" fill="#000000">version</text>
<polygon fill="none" stroke="#000000" points="418,-364.2269 418,-386.2269 512,-386.2269 512,-364.2269 418,-364.2269"/>
<text text-anchor="start" x="421" y="-371.9269" font-family="Helvetica,sans-Serif" font-size="11.00" fill="#000000">int4[10]</text>
<polygon fill="#ffffff" stroke="transparent" points="270,-342.2269 270,-364.2269 418,-364.2269 418,-342.2269 270,-342.2269"/>
<polygon fill="none" stroke="#000000" points="270,-342.2269 270,-364.2269 418,-364.2269 418,-342.2269 270,-342.2269"/>
<image xlink:href="../../images/foreignKeys.png" width="11px" height="12px" preserveAspectRatio="xMinYMin meet" x="275" y="-359.227"/>
<text text-anchor="start" x="290" y="-349.3269" font-family="Helvetica,sans-Serif" font-size="11.00" fill="#000000">person_identifier</text>
<polygon fill="none" stroke="#000000" points="418,-342.2269 418,-364.2269 512,-364.2269 512,-342.2269 418,-342.2269"/>
<text text-anchor="start" x="421" y="-349.9269" font-family="Helvetica,sans-Serif" font-size="11.00" fill="#000000">varchar[10]</text>
<polygon fill="#ffffff" stroke="transparent" points="270,-320.2269 270,-342.2269 418,-342.2269 418,-320.2269 270,-320.2269"/>
<polygon fill="none" stroke="#000000" points="270,-320.2269 270,-342.2269 418,-342.2269 418,-320.2269 270,-320.2269"/>
<text text-anchor="start" x="290" y="-327.3269" font-family="Helvetica,sans-Serif" font-size="11.00" fill="#000000">prison_code</text>
<polygon fill="none" stroke="#000000" points="418,-320.2269 418,-342.2269 512,-342.2269 512,-320.2269 418,-320.2269"/>
<text text-anchor="start" x="421" y="-327.9269" font-family="Helvetica,sans-Serif" font-size="11.00" fill="#000000">varchar[6]</text>
<polygon fill="none" stroke="#000000" points="270,-298.2269 270,-320.2269 418,-320.2269 418,-298.2269 270,-298.2269"/>
<text text-anchor="start" x="290" y="-305.3269" font-family="Helvetica,sans-Serif" font-size="11.00" fill="#000000">court_code</text>
<polygon fill="none" stroke="#000000" points="418,-298.2269 418,-320.2269 512,-320.2269 512,-298.2269 418,-298.2269"/>
<text text-anchor="start" x="421" y="-305.9269" font-family="Helvetica,sans-Serif" font-size="11.00" fill="#000000">varchar[6]</text>
<polygon fill="#ffffff" stroke="transparent" points="270,-276.2269 270,-298.2269 418,-298.2269 418,-276.2269 270,-276.2269"/>
<polygon fill="none" stroke="#000000" points="270,-276.2269 270,-298.2269 418,-298.2269 418,-276.2269 270,-276.2269"/>
<image xlink:href="../../images/foreignKeys.png" width="11px" height="12px" preserveAspectRatio="xMinYMin meet" x="275" y="-293.227"/>
<text text-anchor="start" x="290" y="-283.3269" font-family="Helvetica,sans-Serif" font-size="11.00" fill="#000000">reason_id</text>
<polygon fill="none" stroke="#000000" points="418,-276.2269 418,-298.2269 512,-298.2269 512,-276.2269 418,-276.2269"/>
<text text-anchor="start" x="420.9758" y="-283.9269" font-family="Helvetica,sans-Serif" font-size="11.00" fill="#000000">uuid[2147483647]</text>
<polygon fill="none" stroke="#000000" points="270,-254.2269 270,-276.2269 418,-276.2269 418,-254.2269 270,-254.2269"/>
<text text-anchor="start" x="290" y="-261.3269" font-family="Helvetica,sans-Serif" font-size="11.00" fill="#000000">external</text>
<polygon fill="none" stroke="#000000" points="418,-254.2269 418,-276.2269 512,-276.2269 512,-254.2269 418,-254.2269"/>
<text text-anchor="start" x="421" y="-261.9269" font-family="Helvetica,sans-Serif" font-size="11.00" fill="#000000">bool[1]</text>
<polygon fill="#ffffff" stroke="transparent" points="270,-232.2269 270,-254.2269 418,-254.2269 418,-232.2269 270,-232.2269"/>
<polygon fill="none" stroke="#000000" points="270,-232.2269 270,-254.2269 418,-254.2269 418,-232.2269 270,-232.2269"/>
<image xlink:href="../../images/foreignKeys.png" width="11px" height="12px" preserveAspectRatio="xMinYMin meet" x="275" y="-249.227"/>
<text text-anchor="start" x="290" y="-239.3269" font-family="Helvetica,sans-Serif" font-size="11.00" fill="#000000">status_id</text>
<polygon fill="none" stroke="#000000" points="418,-232.2269 418,-254.2269 512,-254.2269 512,-232.2269 418,-232.2269"/>
<text text-anchor="start" x="420.9758" y="-239.9269" font-family="Helvetica,sans-Serif" font-size="11.00" fill="#000000">uuid[2147483647]</text>
<polygon fill="#ffffff" stroke="transparent" points="270,-210.2269 270,-232.2269 418,-232.2269 418,-210.2269 270,-210.2269"/>
<polygon fill="none" stroke="#000000" points="270,-210.2269 270,-232.2269 418,-232.2269 418,-210.2269 270,-210.2269"/>
<text text-anchor="start" x="290" y="-217.3269" font-family="Helvetica,sans-Serif" font-size="11.00" fill="#000000">start</text>
<polygon fill="none" stroke="#000000" points="418,-210.2269 418,-232.2269 512,-232.2269 512,-210.2269 418,-210.2269"/>
<text text-anchor="start" x="421" y="-217.9269" font-family="Helvetica,sans-Serif" font-size="11.00" fill="#000000">timestamp[29,6]</text>
<polygon fill="none" stroke="#000000" points="270,-188.2269 270,-210.2269 418,-210.2269 418,-188.2269 270,-188.2269"/>
<text text-anchor="start" x="290" y="-195.3269" font-family="Helvetica,sans-Serif" font-size="11.00" fill="#000000">end</text>
<polygon fill="none" stroke="#000000" points="418,-188.2269 418,-210.2269 512,-210.2269 512,-188.2269 418,-188.2269"/>
<text text-anchor="start" x="421" y="-195.9269" font-family="Helvetica,sans-Serif" font-size="11.00" fill="#000000">timestamp[29,6]</text>
<polygon fill="none" stroke="#000000" points="270,-166.2269 270,-188.2269 418,-188.2269 418,-166.2269 270,-166.2269"/>
<text text-anchor="start" x="290" y="-173.3269" font-family="Helvetica,sans-Serif" font-size="11.00" fill="#000000">comments</text>
<polygon fill="none" stroke="#000000" points="418,-166.2269 418,-188.2269 512,-188.2269 512,-166.2269 418,-166.2269"/>
<text text-anchor="start" x="421" y="-173.9269" font-family="Helvetica,sans-Serif" font-size="11.00" fill="#000000">text[2147483647]</text>
<polygon fill="#ffffff" stroke="transparent" points="270,-144.2269 270,-166.2269 418,-166.2269 418,-144.2269 270,-144.2269"/>
<polygon fill="none" stroke="#000000" points="270,-144.2269 270,-166.2269 418,-166.2269 418,-144.2269 270,-144.2269"/>
<image xlink:href="../../images/foreignKeys.png" width="11px" height="12px" preserveAspectRatio="xMinYMin meet" x="275" y="-161.227"/>
<text text-anchor="start" x="290" y="-151.3269" font-family="Helvetica,sans-Serif" font-size="11.00" fill="#000000">legacy_id</text>
<polygon fill="none" stroke="#000000" points="418,-144.2269 418,-166.2269 512,-166.2269 512,-144.2269 418,-144.2269"/>
<text text-anchor="start" x="421" y="-151.9269" font-family="Helvetica,sans-Serif" font-size="11.00" fill="#000000">int8[19]</text>
<polygon fill="#ffffff" stroke="transparent" points="270,-122.2269 270,-144.2269 418,-144.2269 418,-122.2269 270,-122.2269"/>
<polygon fill="none" stroke="#000000" points="270,-122.2269 270,-144.2269 418,-144.2269 418,-122.2269 270,-122.2269"/>
<text text-anchor="start" x="290" y="-129.3269" font-family="Helvetica,sans-Serif" font-size="11.00" fill="#000000">external_reference</text>
<polygon fill="none" stroke="#000000" points="418,-122.2269 418,-144.2269 512,-144.2269 512,-122.2269 418,-122.2269"/>
<text text-anchor="start" x="421" y="-129.9269" font-family="Helvetica,sans-Serif" font-size="11.00" fill="#000000">text[2147483647]</text>
<polygon fill="#ffffff" stroke="transparent" points="270,-103.2269 270,-122.2269 348,-122.2269 348,-103.2269 270,-103.2269"/>
<polygon fill="none" stroke="#000000" points="270,-103.2269 270,-122.2269 348,-122.2269 348,-103.2269 270,-103.2269"/>
<text text-anchor="start" x="273" y="-109.3269" font-family="Helvetica,sans-Serif" font-size="11.00" fill="#000000">&lt; 3</text>
<polygon fill="#ffffff" stroke="transparent" points="348,-103.2269 348,-122.2269 418,-122.2269 418,-103.2269 348,-103.2269"/>
<polygon fill="none" stroke="#000000" points="348,-103.2269 348,-122.2269 418,-122.2269 418,-103.2269 348,-103.2269"/>
<text text-anchor="start" x="408.8862" y="-109.3269" font-family="Helvetica,sans-Serif" font-size="11.00" fill="#000000"> &#160;</text>
<polygon fill="#ffffff" stroke="transparent" points="418,-103.2269 418,-122.2269 512,-122.2269 512,-103.2269 418,-103.2269"/>
<polygon fill="none" stroke="#000000" points="418,-103.2269 418,-122.2269 512,-122.2269 512,-103.2269 418,-103.2269"/>
<text text-anchor="start" x="493.4053" y="-109.3269" font-family="Helvetica,sans-Serif" font-size="11.00" fill="#000000">1 &gt;</text>
<polygon fill="none" stroke="#000000" stroke-width="2" points="269,-102.2269 269,-432.2269 513,-432.2269 513,-102.2269 269,-102.2269"/>
</a>
</g>
</g>
<!-- person_summary -->
<g id="node2" class="node">
<title>person_summary</title>
<g id="a_node2"><a xlink:href="../../tables/person_summary.html" xlink:title="person_summary" target="_top">
<polygon fill="#ffffff" stroke="transparent" points="36.5,-375.7269 36.5,-458.7269 190.5,-458.7269 190.5,-375.7269 36.5,-375.7269"/>
<polygon fill="#f5f5f5" stroke="transparent" points="36.5,-435.2269 36.5,-458.2269 190.5,-458.2269 190.5,-435.2269 36.5,-435.2269"/>
<polygon fill="none" stroke="#000000" points="36.5,-435.2269 36.5,-458.2269 190.5,-458.2269 190.5,-435.2269 36.5,-435.2269"/>
<text text-anchor="start" x="41.5" y="-443.8269" font-family="Helvetica,sans-Serif" font-weight="bold" font-size="11.00" fill="#000000">person_summary</text>
<text text-anchor="start" x="156.0219" y="-443.3269" font-family="Helvetica,sans-Serif" font-size="11.00" fill="#000000">[table]</text>
<polygon fill="none" stroke="#000000" points="36.5,-413.2269 36.5,-435.2269 190.5,-435.2269 190.5,-413.2269 36.5,-413.2269"/>
<image xlink:href="../../images/primaryKeys.png" width="11px" height="12px" preserveAspectRatio="xMinYMin meet" x="41.5" y="-430.227"/>
<text text-anchor="start" x="65.5" y="-420.3269" font-family="Helvetica,sans-Serif" font-size="11.00" fill="#000000">person_identifier</text>
<polygon fill="none" stroke="#000000" points="36.5,-394.2269 36.5,-413.2269 190.5,-413.2269 190.5,-394.2269 36.5,-394.2269"/>
<text text-anchor="start" x="39.5" y="-400.3269" font-family="Helvetica,sans-Serif" font-size="11.00" fill="#000000">...</text>
<polygon fill="#ffffff" stroke="transparent" points="36.5,-375.2269 36.5,-394.2269 102.5,-394.2269 102.5,-375.2269 36.5,-375.2269"/>
<polygon fill="none" stroke="#000000" points="36.5,-375.2269 36.5,-394.2269 102.5,-394.2269 102.5,-375.2269 36.5,-375.2269"/>
<text text-anchor="start" x="39.5" y="-381.3269" font-family="Helvetica,sans-Serif" font-size="11.00" fill="#000000"> &#160;</text>
<polygon fill="#ffffff" stroke="transparent" points="102.5,-375.2269 102.5,-394.2269 141.5,-394.2269 141.5,-375.2269 102.5,-375.2269"/>
<polygon fill="none" stroke="#000000" points="102.5,-375.2269 102.5,-394.2269 141.5,-394.2269 141.5,-375.2269 102.5,-375.2269"/>
<text text-anchor="start" x="132.3862" y="-381.3269" font-family="Helvetica,sans-Serif" font-size="11.00" fill="#000000"> &#160;</text>
<polygon fill="#ffffff" stroke="transparent" points="141.5,-375.2269 141.5,-394.2269 190.5,-394.2269 190.5,-375.2269 141.5,-375.2269"/>
<polygon fill="none" stroke="#000000" points="141.5,-375.2269 141.5,-394.2269 190.5,-394.2269 190.5,-375.2269 141.5,-375.2269"/>
<text text-anchor="start" x="171.9053" y="-381.3269" font-family="Helvetica,sans-Serif" font-size="11.00" fill="#000000">2 &gt;</text>
</a>
</g>
</g>
<!-- court_appearance&#45;&gt;person_summary -->
<g id="edge1" class="edge">
<title>court_appearance:w&#45;&gt;person_summary:e</title>
<path fill="none" stroke="#000000" d="M255.7237,-355.9235C225.3404,-368.8925 232.3214,-424.2269 190.5,-424.2269"/>
<polygon fill="#000000" stroke="#000000" points="262.139,-354.7118 270.6682,-356.7644 266.0695,-353.9694 270,-353.2269 270,-353.2269 270,-353.2269 266.0695,-353.9694 269.3318,-349.6895 262.139,-354.7118 262.139,-354.7118"/>
<ellipse fill="none" stroke="#000000" cx="258.9946" cy="-355.3057" rx="3.2" ry="3.2"/>
</g>
<!-- court_appearance_reason -->
<g id="node3" class="node">
<title>court_appearance_reason</title>
<g id="a_node3"><a xlink:href="../../tables/court_appearance_reason.html" xlink:title="court_appearance_reason" target="_top">
<polygon fill="#ffffff" stroke="transparent" points="8,-194.7269 8,-321.7269 219,-321.7269 219,-194.7269 8,-194.7269"/>
<polygon fill="#f5f5f5" stroke="transparent" points="8.5,-298.2269 8.5,-321.2269 219.5,-321.2269 219.5,-298.2269 8.5,-298.2269"/>
<polygon fill="none" stroke="#000000" points="8.5,-298.2269 8.5,-321.2269 219.5,-321.2269 219.5,-298.2269 8.5,-298.2269"/>
<text text-anchor="start" x="13.5" y="-306.8269" font-family="Helvetica,sans-Serif" font-weight="bold" font-size="11.00" fill="#000000">court_appearance_reason</text>
<text text-anchor="start" x="185.0219" y="-306.3269" font-family="Helvetica,sans-Serif" font-size="11.00" fill="#000000">[table]</text>
<polygon fill="none" stroke="#000000" points="8.5,-276.2269 8.5,-298.2269 219.5,-298.2269 219.5,-276.2269 8.5,-276.2269"/>
<image xlink:href="../../images/primaryKeys.png" width="11px" height="12px" preserveAspectRatio="xMinYMin meet" x="13.5" y="-293.227"/>
<text text-anchor="start" x="37.5" y="-283.3269" font-family="Helvetica,sans-Serif" font-size="11.00" fill="#000000">id</text>
<polygon fill="#ffffff" stroke="transparent" points="8.5,-254.2269 8.5,-276.2269 219.5,-276.2269 219.5,-254.2269 8.5,-254.2269"/>
<polygon fill="none" stroke="#000000" points="8.5,-254.2269 8.5,-276.2269 219.5,-276.2269 219.5,-254.2269 8.5,-254.2269"/>
<text text-anchor="start" x="37.5" y="-261.3269" font-family="Helvetica,sans-Serif" font-size="11.00" fill="#000000">code</text>
<polygon fill="#ffffff" stroke="transparent" points="8.5,-232.2269 8.5,-254.2269 219.5,-254.2269 219.5,-232.2269 8.5,-232.2269"/>
<polygon fill="none" stroke="#000000" points="8.5,-232.2269 8.5,-254.2269 219.5,-254.2269 219.5,-232.2269 8.5,-232.2269"/>
<text text-anchor="start" x="37.5" y="-239.3269" font-family="Helvetica,sans-Serif" font-size="11.00" fill="#000000">sequence_number</text>
<polygon fill="none" stroke="#000000" points="8.5,-213.2269 8.5,-232.2269 219.5,-232.2269 219.5,-213.2269 8.5,-213.2269"/>
<text text-anchor="start" x="11.5" y="-219.3269" font-family="Helvetica,sans-Serif" font-size="11.00" fill="#000000">...</text>
<polygon fill="#ffffff" stroke="transparent" points="8.5,-194.2269 8.5,-213.2269 103.5,-213.2269 103.5,-194.2269 8.5,-194.2269"/>
<polygon fill="none" stroke="#000000" points="8.5,-194.2269 8.5,-213.2269 103.5,-213.2269 103.5,-194.2269 8.5,-194.2269"/>
<text text-anchor="start" x="11.5" y="-200.3269" font-family="Helvetica,sans-Serif" font-size="11.00" fill="#000000"> &#160;</text>
<polygon fill="#ffffff" stroke="transparent" points="103.5,-194.2269 103.5,-213.2269 156.5,-213.2269 156.5,-194.2269 103.5,-194.2269"/>
<polygon fill="none" stroke="#000000" points="103.5,-194.2269 103.5,-213.2269 156.5,-213.2269 156.5,-194.2269 103.5,-194.2269"/>
<text text-anchor="start" x="147.3862" y="-200.3269" font-family="Helvetica,sans-Serif" font-size="11.00" fill="#000000"> &#160;</text>
<polygon fill="#ffffff" stroke="transparent" points="156.5,-194.2269 156.5,-213.2269 219.5,-213.2269 219.5,-194.2269 156.5,-194.2269"/>
<polygon fill="none" stroke="#000000" points="156.5,-194.2269 156.5,-213.2269 219.5,-213.2269 219.5,-194.2269 156.5,-194.2269"/>
<text text-anchor="start" x="200.9053" y="-200.3269" font-family="Helvetica,sans-Serif" font-size="11.00" fill="#000000">2 &gt;</text>
</a>
</g>
</g>
<!-- court_appearance&#45;&gt;court_appearance_reason -->
<g id="edge2" class="edge">
<title>court_appearance:w&#45;&gt;court_appearance_reason:e</title>
<path fill="none" stroke="#000000" d="M255.4203,-287.2269C243.5435,-287.2269 236.158,-287.2269 219.5,-287.2269"/>
<polygon fill="#000000" stroke="#000000" points="262,-287.227 270,-290.8269 266,-287.2269 270,-287.2269 270,-287.2269 270,-287.2269 266,-287.2269 270,-283.6269 262,-287.227 262,-287.227"/>
<ellipse fill="none" stroke="#000000" cx="258.8" cy="-287.227" rx="3.2" ry="3.2"/>
</g>
<!-- court_appearance_status -->
<g id="node4" class="node">
<title>court_appearance_status</title>
<g id="a_node4"><a xlink:href="../../tables/court_appearance_status.html" xlink:title="court_appearance_status" target="_top">
<polygon fill="#ffffff" stroke="transparent" points="9.5,-46.7269 9.5,-173.7269 217.5,-173.7269 217.5,-46.7269 9.5,-46.7269"/>
<polygon fill="#f5f5f5" stroke="transparent" points="9.5,-150.2269 9.5,-173.2269 217.5,-173.2269 217.5,-150.2269 9.5,-150.2269"/>
<polygon fill="none" stroke="#000000" points="9.5,-150.2269 9.5,-173.2269 217.5,-173.2269 217.5,-150.2269 9.5,-150.2269"/>
<text text-anchor="start" x="14.5" y="-158.8269" font-family="Helvetica,sans-Serif" font-weight="bold" font-size="11.00" fill="#000000">court_appearance_status</text>
<text text-anchor="start" x="183.0219" y="-158.3269" font-family="Helvetica,sans-Serif" font-size="11.00" fill="#000000">[table]</text>
<polygon fill="none" stroke="#000000" points="9.5,-128.2269 9.5,-150.2269 217.5,-150.2269 217.5,-128.2269 9.5,-128.2269"/>
<image xlink:href="../../images/primaryKeys.png" width="11px" height="12px" preserveAspectRatio="xMinYMin meet" x="14.5" y="-145.227"/>
<text text-anchor="start" x="38.5" y="-135.3269" font-family="Helvetica,sans-Serif" font-size="11.00" fill="#000000">id</text>
<polygon fill="#ffffff" stroke="transparent" points="9.5,-106.2269 9.5,-128.2269 217.5,-128.2269 217.5,-106.2269 9.5,-106.2269"/>
<polygon fill="none" stroke="#000000" points="9.5,-106.2269 9.5,-128.2269 217.5,-128.2269 217.5,-106.2269 9.5,-106.2269"/>
<text text-anchor="start" x="38.5" y="-113.3269" font-family="Helvetica,sans-Serif" font-size="11.00" fill="#000000">code</text>
<polygon fill="#ffffff" stroke="transparent" points="9.5,-84.2269 9.5,-106.2269 217.5,-106.2269 217.5,-84.2269 9.5,-84.2269"/>
<polygon fill="none" stroke="#000000" points="9.5,-84.2269 9.5,-106.2269 217.5,-106.2269 217.5,-84.2269 9.5,-84.2269"/>
<text text-anchor="start" x="38.5" y="-91.3269" font-family="Helvetica,sans-Serif" font-size="11.00" fill="#000000">sequence_number</text>
<polygon fill="none" stroke="#000000" points="9.5,-65.2269 9.5,-84.2269 217.5,-84.2269 217.5,-65.2269 9.5,-65.2269"/>
<text text-anchor="start" x="12.5" y="-71.3269" font-family="Helvetica,sans-Serif" font-size="11.00" fill="#000000">...</text>
<polygon fill="#ffffff" stroke="transparent" points="9.5,-46.2269 9.5,-65.2269 102.5,-65.2269 102.5,-46.2269 9.5,-46.2269"/>
<polygon fill="none" stroke="#000000" points="9.5,-46.2269 9.5,-65.2269 102.5,-65.2269 102.5,-46.2269 9.5,-46.2269"/>
<text text-anchor="start" x="12.5" y="-52.3269" font-family="Helvetica,sans-Serif" font-size="11.00" fill="#000000"> &#160;</text>
<polygon fill="#ffffff" stroke="transparent" points="102.5,-46.2269 102.5,-65.2269 155.5,-65.2269 155.5,-46.2269 102.5,-46.2269"/>
<polygon fill="none" stroke="#000000" points="102.5,-46.2269 102.5,-65.2269 155.5,-65.2269 155.5,-46.2269 102.5,-46.2269"/>
<text text-anchor="start" x="146.3862" y="-52.3269" font-family="Helvetica,sans-Serif" font-size="11.00" fill="#000000"> &#160;</text>
<polygon fill="#ffffff" stroke="transparent" points="155.5,-46.2269 155.5,-65.2269 217.5,-65.2269 217.5,-46.2269 155.5,-46.2269"/>
<polygon fill="none" stroke="#000000" points="155.5,-46.2269 155.5,-65.2269 217.5,-65.2269 217.5,-46.2269 155.5,-46.2269"/>
<text text-anchor="start" x="198.9053" y="-52.3269" font-family="Helvetica,sans-Serif" font-size="11.00" fill="#000000">1 &gt;</text>
</a>
</g>
</g>
<!-- court_appearance&#45;&gt;court_appearance_status -->
<g id="edge3" class="edge">
<title>court_appearance:w&#45;&gt;court_appearance_status:e</title>
<path fill="none" stroke="#000000" d="M256.0635,-239.5255C228.4699,-220.999 263.4123,-139.2269 217.5,-139.2269"/>
<polygon fill="#000000" stroke="#000000" points="262.2681,-241.1733 269.0759,-246.7063 266.134,-242.2001 270,-243.2269 270,-243.2269 270,-243.2269 266.134,-242.2001 270.9241,-239.7475 262.2681,-241.1733 262.2681,-241.1733"/>
<ellipse fill="none" stroke="#000000" cx="259.1753" cy="-240.3519" rx="3.2" ry="3.2"/>
</g>
<!-- court_appearance_movement -->
<g id="node5" class="node">
<title>court_appearance_movement</title>
<g id="a_node5"><a xlink:href="../../tables/court_appearance_movement.html" xlink:title="court_appearance_movement" target="_top">
<polygon fill="#ffffff" stroke="transparent" points="563,-282.7269 563,-453.7269 800,-453.7269 800,-282.7269 563,-282.7269"/>
<polygon fill="#f5f5f5" stroke="transparent" points="563.5,-430.2269 563.5,-453.2269 800.5,-453.2269 800.5,-430.2269 563.5,-430.2269"/>
<polygon fill="none" stroke="#000000" points="563.5,-430.2269 563.5,-453.2269 800.5,-453.2269 800.5,-430.2269 563.5,-430.2269"/>
<text text-anchor="start" x="568.5" y="-438.8269" font-family="Helvetica,sans-Serif" font-weight="bold" font-size="11.00" fill="#000000">court_appearance_movement</text>
<text text-anchor="start" x="766.0219" y="-438.3269" font-family="Helvetica,sans-Serif" font-size="11.00" fill="#000000">[table]</text>
<polygon fill="none" stroke="#000000" points="563.5,-408.2269 563.5,-430.2269 800.5,-430.2269 800.5,-408.2269 563.5,-408.2269"/>
<image xlink:href="../../images/primaryKeys.png" width="11px" height="12px" preserveAspectRatio="xMinYMin meet" x="568.5" y="-425.227"/>
<text text-anchor="start" x="592.5" y="-415.3269" font-family="Helvetica,sans-Serif" font-size="11.00" fill="#000000">id</text>
<polygon fill="none" stroke="#000000" points="563.5,-386.2269 563.5,-408.2269 800.5,-408.2269 800.5,-386.2269 563.5,-386.2269"/>
<image xlink:href="../../images/foreignKeys.png" width="11px" height="12px" preserveAspectRatio="xMinYMin meet" x="568.5" y="-403.227"/>
<text text-anchor="start" x="592.5" y="-393.3269" font-family="Helvetica,sans-Serif" font-size="11.00" fill="#000000">court_appearance_id</text>
<polygon fill="#ffffff" stroke="transparent" points="563.5,-364.2269 563.5,-386.2269 800.5,-386.2269 800.5,-364.2269 563.5,-364.2269"/>
<polygon fill="none" stroke="#000000" points="563.5,-364.2269 563.5,-386.2269 800.5,-386.2269 800.5,-364.2269 563.5,-364.2269"/>
<image xlink:href="../../images/foreignKeys.png" width="11px" height="12px" preserveAspectRatio="xMinYMin meet" x="568.5" y="-381.227"/>
<text text-anchor="start" x="592.5" y="-371.3269" font-family="Helvetica,sans-Serif" font-size="11.00" fill="#000000">person_identifier</text>
<polygon fill="none" stroke="#000000" points="563.5,-342.2269 563.5,-364.2269 800.5,-364.2269 800.5,-342.2269 563.5,-342.2269"/>
<image xlink:href="../../images/foreignKeys.png" width="11px" height="12px" preserveAspectRatio="xMinYMin meet" x="568.5" y="-359.227"/>
<text text-anchor="start" x="592.5" y="-349.3269" font-family="Helvetica,sans-Serif" font-size="11.00" fill="#000000">reason_id</text>
<polygon fill="#ffffff" stroke="transparent" points="563.5,-320.2269 563.5,-342.2269 800.5,-342.2269 800.5,-320.2269 563.5,-320.2269"/>
<polygon fill="none" stroke="#000000" points="563.5,-320.2269 563.5,-342.2269 800.5,-342.2269 800.5,-320.2269 563.5,-320.2269"/>
<text text-anchor="start" x="592.5" y="-327.3269" font-family="Helvetica,sans-Serif" font-size="11.00" fill="#000000">legacy_id</text>
<polygon fill="none" stroke="#000000" points="563.5,-301.2269 563.5,-320.2269 800.5,-320.2269 800.5,-301.2269 563.5,-301.2269"/>
<text text-anchor="start" x="566.5" y="-307.3269" font-family="Helvetica,sans-Serif" font-size="11.00" fill="#000000">...</text>
<polygon fill="#ffffff" stroke="transparent" points="563.5,-282.2269 563.5,-301.2269 680.5,-301.2269 680.5,-282.2269 563.5,-282.2269"/>
<polygon fill="none" stroke="#000000" points="563.5,-282.2269 563.5,-301.2269 680.5,-301.2269 680.5,-282.2269 563.5,-282.2269"/>
<text text-anchor="start" x="566.5" y="-288.3269" font-family="Helvetica,sans-Serif" font-size="11.00" fill="#000000">&lt; 3</text>
<polygon fill="#ffffff" stroke="transparent" points="680.5,-282.2269 680.5,-301.2269 740.5,-301.2269 740.5,-282.2269 680.5,-282.2269"/>
<polygon fill="none" stroke="#000000" points="680.5,-282.2269 680.5,-301.2269 740.5,-301.2269 740.5,-282.2269 680.5,-282.2269"/>
<text text-anchor="start" x="731.3862" y="-288.3269" font-family="Helvetica,sans-Serif" font-size="11.00" fill="#000000"> &#160;</text>
<polygon fill="#ffffff" stroke="transparent" points="740.5,-282.2269 740.5,-301.2269 800.5,-301.2269 800.5,-282.2269 740.5,-282.2269"/>
<polygon fill="none" stroke="#000000" points="740.5,-282.2269 740.5,-301.2269 800.5,-301.2269 800.5,-282.2269 740.5,-282.2269"/>
<text text-anchor="start" x="791.3862" y="-288.3269" font-family="Helvetica,sans-Serif" font-size="11.00" fill="#000000"> &#160;</text>
</a>
</g>
</g>
<!-- court_appearance_movement&#45;&gt;court_appearance -->
<g id="edge4" class="edge">
<title>court_appearance_movement:w&#45;&gt;court_appearance:e</title>
<path fill="none" stroke="#000000" d="M549.0156,-397.2269C536.6771,-397.2269 529.1667,-397.2269 512,-397.2269"/>
<polygon fill="#000000" stroke="#000000" points="555.5,-397.227 563.5,-400.8269 559.5,-397.2269 563.5,-397.2269 563.5,-397.2269 563.5,-397.2269 559.5,-397.2269 563.5,-393.6269 555.5,-397.227 555.5,-397.227"/>
<ellipse fill="none" stroke="#000000" cx="552.3" cy="-397.227" rx="3.2" ry="3.2"/>
</g>
<!-- court_appearance_movement&#45;&gt;person_summary -->
<g id="edge5" class="edge">
<title>court_appearance_movement:w&#45;&gt;person_summary:e</title>
<path fill="none" stroke="#000000" d="M549.4558,-379.7102C535.0281,-392.603 547.5531,-429.777 522,-444.2269 420.6395,-501.545 375.3035,-460.4874 260,-444.2269 228.1725,-439.7385 222.6424,-424.2269 190.5,-424.2269"/>
<polygon fill="#000000" stroke="#000000" points="555.8789,-377.6598 564.5948,-378.6564 559.6894,-376.4434 563.5,-375.2269 563.5,-375.2269 563.5,-375.2269 559.6894,-376.4434 562.4052,-371.7974 555.8789,-377.6598 555.8789,-377.6598"/>
<ellipse fill="none" stroke="#000000" cx="552.8304" cy="-378.6329" rx="3.2" ry="3.2"/>
</g>
<!-- court_appearance_movement&#45;&gt;court_appearance_reason -->
<g id="edge6" class="edge">
<title>court_appearance_movement:w&#45;&gt;court_appearance_reason:e</title>
<path fill="none" stroke="#000000" d="M549.882,-347.6443C515.133,-312.7576 562.7634,-125.0624 522,-90.2269 433.4767,-14.5768 350.249,-16.6442 260,-90.2269 190.7218,-146.7115 308.8867,-287.2269 219.5,-287.2269"/>
<polygon fill="#000000" stroke="#000000" points="556.0978,-350.1924 562.1345,-356.5579 559.7989,-351.7097 563.5,-353.2269 563.5,-353.2269 563.5,-353.2269 559.7989,-351.7097 564.8655,-349.8959 556.0978,-350.1924 556.0978,-350.1924"/>
<ellipse fill="none" stroke="#000000" cx="553.137" cy="-348.9786" rx="3.2" ry="3.2"/>
</g>
</g>
</svg>
