<?xml version="1.0" encoding="UTF-8" standalone="no"?>
<!DOCTYPE svg PUBLIC "-//W3C//DTD SVG 1.1//EN"
 "http://www.w3.org/Graphics/SVG/1.1/DTD/svg11.dtd">
<!-- Generated by graphviz version 2.40.1 (20161225.0304)
 -->
<!-- Title: oneDegreeRelationshipsDiagram Pages: 1 -->
<svg width="809pt" height="481pt"
 viewBox="0.00 0.00 809.00 481.20" xmlns="http://www.w3.org/2000/svg" xmlns:xlink="http://www.w3.org/1999/xlink">
<g id="graph0" class="graph" transform="scale(1 1) rotate(0) translate(4 477.2)">
<title>oneDegreeRelationshipsDiagram</title>
<polygon fill="#ffffff" stroke="transparent" points="-4,4 -4,-477.2 805,-477.2 805,4 -4,4"/>
<text text-anchor="middle" x="72.4936" y="-7.3" font-family="Helvetica,sans-Serif" font-size="11.00" fill="#000000">Generated by SchemaSpy</text>
<!-- court_appearance -->
<g id="node1" class="node">
<title>court_appearance</title>
<g id="a_node1"><a xlink:href="../../tables/court_appearance.html" xlink:title="court_appearance" target="_top">
<polygon fill="#ffffff" stroke="transparent" points="268,-97.7 268,-407.7 507,-407.7 507,-97.7 268,-97.7"/>
<polygon fill="#f5f5f5" stroke="transparent" points="270.5,-382.7 270.5,-405.7 505.5,-405.7 505.5,-382.7 270.5,-382.7"/>
<polygon fill="none" stroke="#000000" points="270.5,-382.7 270.5,-405.7 505.5,-405.7 505.5,-382.7 270.5,-382.7"/>
<text text-anchor="start" x="275.5" y="-391.3" font-family="Helvetica,sans-Serif" font-weight="bold" font-size="11.00" fill="#000000">court_appearance</text>
<text text-anchor="start" x="470.5437" y="-390.8" font-family="Helvetica,sans-Serif" font-size="11.00" fill="#000000">[table]</text>
<polygon fill="none" stroke="#000000" points="270.5,-360.7 270.5,-382.7 411.5,-382.7 411.5,-360.7 270.5,-360.7"/>
<image xlink:href="../../images/primaryKeys.png" width="11px" height="12px" preserveAspectRatio="xMinYMin meet" x="275.5" y="-377.7"/>
<text text-anchor="start" x="290.5" y="-367.8" font-family="Helvetica,sans-Serif" font-size="11.00" fill="#000000">id</text>
<polygon fill="none" stroke="#000000" points="411.5,-360.7 411.5,-382.7 505.5,-382.7 505.5,-360.7 411.5,-360.7"/>
<text text-anchor="start" x="414.4758" y="-368.4" font-family="Helvetica,sans-Serif" font-size="11.00" fill="#000000">uuid[2147483647]</text>
<polygon fill="none" stroke="#000000" points="270.5,-338.7 270.5,-360.7 411.5,-360.7 411.5,-338.7 270.5,-338.7"/>
<text text-anchor="start" x="290.5" y="-345.8" font-family="Helvetica,sans-Serif" font-size="11.00" fill="#000000">version</text>
<polygon fill="none" stroke="#000000" points="411.5,-338.7 411.5,-360.7 505.5,-360.7 505.5,-338.7 411.5,-338.7"/>
<text text-anchor="start" x="414.5" y="-346.4" font-family="Helvetica,sans-Serif" font-size="11.00" fill="#000000">int4[10]</text>
<polygon fill="#ffffff" stroke="transparent" points="270.5,-316.7 270.5,-338.7 411.5,-338.7 411.5,-316.7 270.5,-316.7"/>
<polygon fill="none" stroke="#000000" points="270.5,-316.7 270.5,-338.7 411.5,-338.7 411.5,-316.7 270.5,-316.7"/>
<image xlink:href="../../images/foreignKeys.png" width="11px" height="12px" preserveAspectRatio="xMinYMin meet" x="275.5" y="-333.7"/>
<text text-anchor="start" x="290.5" y="-323.8" font-family="Helvetica,sans-Serif" font-size="11.00" fill="#000000">person_identifier</text>
<polygon fill="none" stroke="#000000" points="411.5,-316.7 411.5,-338.7 505.5,-338.7 505.5,-316.7 411.5,-316.7"/>
<text text-anchor="start" x="414.5" y="-324.4" font-family="Helvetica,sans-Serif" font-size="11.00" fill="#000000">varchar[10]</text>
<polygon fill="#ffffff" stroke="transparent" points="270.5,-294.7 270.5,-316.7 411.5,-316.7 411.5,-294.7 270.5,-294.7"/>
<polygon fill="none" stroke="#000000" points="270.5,-294.7 270.5,-316.7 411.5,-316.7 411.5,-294.7 270.5,-294.7"/>
<text text-anchor="start" x="290.5" y="-301.8" font-family="Helvetica,sans-Serif" font-size="11.00" fill="#000000">prison_code</text>
<polygon fill="none" stroke="#000000" points="411.5,-294.7 411.5,-316.7 505.5,-316.7 505.5,-294.7 411.5,-294.7"/>
<text text-anchor="start" x="414.5" y="-302.4" font-family="Helvetica,sans-Serif" font-size="11.00" fill="#000000">varchar[6]</text>
<polygon fill="none" stroke="#000000" points="270.5,-272.7 270.5,-294.7 411.5,-294.7 411.5,-272.7 270.5,-272.7"/>
<text text-anchor="start" x="290.5" y="-279.8" font-family="Helvetica,sans-Serif" font-size="11.00" fill="#000000">court_code</text>
<polygon fill="none" stroke="#000000" points="411.5,-272.7 411.5,-294.7 505.5,-294.7 505.5,-272.7 411.5,-272.7"/>
<text text-anchor="start" x="414.5" y="-280.4" font-family="Helvetica,sans-Serif" font-size="11.00" fill="#000000">varchar[6]</text>
<polygon fill="#ffffff" stroke="transparent" points="270.5,-250.7 270.5,-272.7 411.5,-272.7 411.5,-250.7 270.5,-250.7"/>
<polygon fill="none" stroke="#000000" points="270.5,-250.7 270.5,-272.7 411.5,-272.7 411.5,-250.7 270.5,-250.7"/>
<image xlink:href="../../images/foreignKeys.png" width="11px" height="12px" preserveAspectRatio="xMinYMin meet" x="275.5" y="-267.7"/>
<text text-anchor="start" x="290.5" y="-257.8" font-family="Helvetica,sans-Serif" font-size="11.00" fill="#000000">reason_id</text>
<polygon fill="none" stroke="#000000" points="411.5,-250.7 411.5,-272.7 505.5,-272.7 505.5,-250.7 411.5,-250.7"/>
<text text-anchor="start" x="414.4758" y="-258.4" font-family="Helvetica,sans-Serif" font-size="11.00" fill="#000000">uuid[2147483647]</text>
<polygon fill="none" stroke="#000000" points="270.5,-228.7 270.5,-250.7 411.5,-250.7 411.5,-228.7 270.5,-228.7"/>
<text text-anchor="start" x="290.5" y="-235.8" font-family="Helvetica,sans-Serif" font-size="11.00" fill="#000000">external</text>
<polygon fill="none" stroke="#000000" points="411.5,-228.7 411.5,-250.7 505.5,-250.7 505.5,-228.7 411.5,-228.7"/>
<text text-anchor="start" x="414.5" y="-236.4" font-family="Helvetica,sans-Serif" font-size="11.00" fill="#000000">bool[1]</text>
<polygon fill="#ffffff" stroke="transparent" points="270.5,-206.7 270.5,-228.7 411.5,-228.7 411.5,-206.7 270.5,-206.7"/>
<polygon fill="none" stroke="#000000" points="270.5,-206.7 270.5,-228.7 411.5,-228.7 411.5,-206.7 270.5,-206.7"/>
<image xlink:href="../../images/foreignKeys.png" width="11px" height="12px" preserveAspectRatio="xMinYMin meet" x="275.5" y="-223.7"/>
<text text-anchor="start" x="290.5" y="-213.8" font-family="Helvetica,sans-Serif" font-size="11.00" fill="#000000">status_id</text>
<polygon fill="none" stroke="#000000" points="411.5,-206.7 411.5,-228.7 505.5,-228.7 505.5,-206.7 411.5,-206.7"/>
<text text-anchor="start" x="414.4758" y="-214.4" font-family="Helvetica,sans-Serif" font-size="11.00" fill="#000000">uuid[2147483647]</text>
<polygon fill="#ffffff" stroke="transparent" points="270.5,-184.7 270.5,-206.7 411.5,-206.7 411.5,-184.7 270.5,-184.7"/>
<polygon fill="none" stroke="#000000" points="270.5,-184.7 270.5,-206.7 411.5,-206.7 411.5,-184.7 270.5,-184.7"/>
<text text-anchor="start" x="290.5" y="-191.8" font-family="Helvetica,sans-Serif" font-size="11.00" fill="#000000">start</text>
<polygon fill="none" stroke="#000000" points="411.5,-184.7 411.5,-206.7 505.5,-206.7 505.5,-184.7 411.5,-184.7"/>
<text text-anchor="start" x="414.5" y="-192.4" font-family="Helvetica,sans-Serif" font-size="11.00" fill="#000000">timestamp[29,6]</text>
<polygon fill="none" stroke="#000000" points="270.5,-162.7 270.5,-184.7 411.5,-184.7 411.5,-162.7 270.5,-162.7"/>
<text text-anchor="start" x="290.5" y="-169.8" font-family="Helvetica,sans-Serif" font-size="11.00" fill="#000000">end</text>
<polygon fill="none" stroke="#000000" points="411.5,-162.7 411.5,-184.7 505.5,-184.7 505.5,-162.7 411.5,-162.7"/>
<text text-anchor="start" x="414.5" y="-170.4" font-family="Helvetica,sans-Serif" font-size="11.00" fill="#000000">timestamp[29,6]</text>
<polygon fill="none" stroke="#000000" points="270.5,-140.7 270.5,-162.7 411.5,-162.7 411.5,-140.7 270.5,-140.7"/>
<text text-anchor="start" x="290.5" y="-147.8" font-family="Helvetica,sans-Serif" font-size="11.00" fill="#000000">comments</text>
<polygon fill="none" stroke="#000000" points="411.5,-140.7 411.5,-162.7 505.5,-162.7 505.5,-140.7 411.5,-140.7"/>
<text text-anchor="start" x="414.5" y="-148.4" font-family="Helvetica,sans-Serif" font-size="11.00" fill="#000000">text[2147483647]</text>
<polygon fill="#ffffff" stroke="transparent" points="270.5,-118.7 270.5,-140.7 411.5,-140.7 411.5,-118.7 270.5,-118.7"/>
<polygon fill="none" stroke="#000000" points="270.5,-118.7 270.5,-140.7 411.5,-140.7 411.5,-118.7 270.5,-118.7"/>
<image xlink:href="../../images/foreignKeys.png" width="11px" height="12px" preserveAspectRatio="xMinYMin meet" x="275.5" y="-135.7"/>
<text text-anchor="start" x="290.5" y="-125.8" font-family="Helvetica,sans-Serif" font-size="11.00" fill="#000000">legacy_id</text>
<polygon fill="none" stroke="#000000" points="411.5,-118.7 411.5,-140.7 505.5,-140.7 505.5,-118.7 411.5,-118.7"/>
<text text-anchor="start" x="414.5" y="-126.4" font-family="Helvetica,sans-Serif" font-size="11.00" fill="#000000">int8[19]</text>
<polygon fill="#ffffff" stroke="transparent" points="270.5,-99.7 270.5,-118.7 345.5,-118.7 345.5,-99.7 270.5,-99.7"/>
<polygon fill="none" stroke="#000000" points="270.5,-99.7 270.5,-118.7 345.5,-118.7 345.5,-99.7 270.5,-99.7"/>
<text text-anchor="start" x="273.5" y="-105.8" font-family="Helvetica,sans-Serif" font-size="11.00" fill="#000000">&lt; 3</text>
<polygon fill="#ffffff" stroke="transparent" points="345.5,-99.7 345.5,-118.7 411.5,-118.7 411.5,-99.7 345.5,-99.7"/>
<polygon fill="none" stroke="#000000" points="345.5,-99.7 345.5,-118.7 411.5,-118.7 411.5,-99.7 345.5,-99.7"/>
<text text-anchor="start" x="402.3862" y="-105.8" font-family="Helvetica,sans-Serif" font-size="11.00" fill="#000000"> &#160;</text>
<polygon fill="#ffffff" stroke="transparent" points="411.5,-99.7 411.5,-118.7 505.5,-118.7 505.5,-99.7 411.5,-99.7"/>
<polygon fill="none" stroke="#000000" points="411.5,-99.7 411.5,-118.7 505.5,-118.7 505.5,-99.7 411.5,-99.7"/>
<text text-anchor="start" x="486.9053" y="-105.8" font-family="Helvetica,sans-Serif" font-size="11.00" fill="#000000">1 &gt;</text>
<polygon fill="none" stroke="#000000" stroke-width="2" points="269,-98.7 269,-406.7 506,-406.7 506,-98.7 269,-98.7"/>
</a>
</g>
</g>
<!-- person_summary -->
<g id="node2" class="node">
<title>person_summary</title>
<g id="a_node2"><a xlink:href="../../tables/person_summary.html" xlink:title="person_summary" target="_top">
<polygon fill="#ffffff" stroke="transparent" points="36.5,-350.2 36.5,-433.2 190.5,-433.2 190.5,-350.2 36.5,-350.2"/>
<polygon fill="#f5f5f5" stroke="transparent" points="36.5,-409.7 36.5,-432.7 190.5,-432.7 190.5,-409.7 36.5,-409.7"/>
<polygon fill="none" stroke="#000000" points="36.5,-409.7 36.5,-432.7 190.5,-432.7 190.5,-409.7 36.5,-409.7"/>
<text text-anchor="start" x="41.5" y="-418.3" font-family="Helvetica,sans-Serif" font-weight="bold" font-size="11.00" fill="#000000">person_summary</text>
<text text-anchor="start" x="156.0219" y="-417.8" font-family="Helvetica,sans-Serif" font-size="11.00" fill="#000000">[table]</text>
<polygon fill="none" stroke="#000000" points="36.5,-387.7 36.5,-409.7 190.5,-409.7 190.5,-387.7 36.5,-387.7"/>
<image xlink:href="../../images/primaryKeys.png" width="11px" height="12px" preserveAspectRatio="xMinYMin meet" x="41.5" y="-404.7"/>
<text text-anchor="start" x="65.5" y="-394.8" font-family="Helvetica,sans-Serif" font-size="11.00" fill="#000000">person_identifier</text>
<polygon fill="none" stroke="#000000" points="36.5,-368.7 36.5,-387.7 190.5,-387.7 190.5,-368.7 36.5,-368.7"/>
<text text-anchor="start" x="39.5" y="-374.8" font-family="Helvetica,sans-Serif" font-size="11.00" fill="#000000">...</text>
<polygon fill="#ffffff" stroke="transparent" points="36.5,-349.7 36.5,-368.7 102.5,-368.7 102.5,-349.7 36.5,-349.7"/>
<polygon fill="none" stroke="#000000" points="36.5,-349.7 36.5,-368.7 102.5,-368.7 102.5,-349.7 36.5,-349.7"/>
<text text-anchor="start" x="39.5" y="-355.8" font-family="Helvetica,sans-Serif" font-size="11.00" fill="#000000"> &#160;</text>
<polygon fill="#ffffff" stroke="transparent" points="102.5,-349.7 102.5,-368.7 141.5,-368.7 141.5,-349.7 102.5,-349.7"/>
<polygon fill="none" stroke="#000000" points="102.5,-349.7 102.5,-368.7 141.5,-368.7 141.5,-349.7 102.5,-349.7"/>
<text text-anchor="start" x="132.3862" y="-355.8" font-family="Helvetica,sans-Serif" font-size="11.00" fill="#000000"> &#160;</text>
<polygon fill="#ffffff" stroke="transparent" points="141.5,-349.7 141.5,-368.7 190.5,-368.7 190.5,-349.7 141.5,-349.7"/>
<polygon fill="none" stroke="#000000" points="141.5,-349.7 141.5,-368.7 190.5,-368.7 190.5,-349.7 141.5,-349.7"/>
<text text-anchor="start" x="171.9053" y="-355.8" font-family="Helvetica,sans-Serif" font-size="11.00" fill="#000000">2 &gt;</text>
</a>
</g>
</g>
<!-- court_appearance&#45;&gt;person_summary -->
<g id="edge1" class="edge">
<title>court_appearance:w&#45;&gt;person_summary:e</title>
<path fill="none" stroke="#000000" d="M256.1653,-330.3966C225.635,-343.3656 232.468,-398.7 190.5,-398.7"/>
<polygon fill="#000000" stroke="#000000" points="262.6379,-329.179 271.1656,-331.2379 266.5689,-328.4395 270.5,-327.7 270.5,-327.7 270.5,-327.7 266.5689,-328.4395 269.8344,-324.1621 262.6379,-329.179 262.6379,-329.179"/>
<ellipse fill="none" stroke="#000000" cx="259.4931" cy="-329.7706" rx="3.2" ry="3.2"/>
</g>
<!-- court_appearance_reason -->
<g id="node3" class="node">
<title>court_appearance_reason</title>
<g id="a_node3"><a xlink:href="../../tables/court_appearance_reason.html" xlink:title="court_appearance_reason" target="_top">
<polygon fill="#ffffff" stroke="transparent" points="8,-186.2 8,-313.2 219,-313.2 219,-186.2 8,-186.2"/>
<polygon fill="#f5f5f5" stroke="transparent" points="8.5,-289.7 8.5,-312.7 219.5,-312.7 219.5,-289.7 8.5,-289.7"/>
<polygon fill="none" stroke="#000000" points="8.5,-289.7 8.5,-312.7 219.5,-312.7 219.5,-289.7 8.5,-289.7"/>
<text text-anchor="start" x="13.5" y="-298.3" font-family="Helvetica,sans-Serif" font-weight="bold" font-size="11.00" fill="#000000">court_appearance_reason</text>
<text text-anchor="start" x="185.0219" y="-297.8" font-family="Helvetica,sans-Serif" font-size="11.00" fill="#000000">[table]</text>
<polygon fill="none" stroke="#000000" points="8.5,-267.7 8.5,-289.7 219.5,-289.7 219.5,-267.7 8.5,-267.7"/>
<image xlink:href="../../images/primaryKeys.png" width="11px" height="12px" preserveAspectRatio="xMinYMin meet" x="13.5" y="-284.7"/>
<text text-anchor="start" x="37.5" y="-274.8" font-family="Helvetica,sans-Serif" font-size="11.00" fill="#000000">id</text>
<polygon fill="#ffffff" stroke="transparent" points="8.5,-245.7 8.5,-267.7 219.5,-267.7 219.5,-245.7 8.5,-245.7"/>
<polygon fill="none" stroke="#000000" points="8.5,-245.7 8.5,-267.7 219.5,-267.7 219.5,-245.7 8.5,-245.7"/>
<text text-anchor="start" x="37.5" y="-252.8" font-family="Helvetica,sans-Serif" font-size="11.00" fill="#000000">code</text>
<polygon fill="#ffffff" stroke="transparent" points="8.5,-223.7 8.5,-245.7 219.5,-245.7 219.5,-223.7 8.5,-223.7"/>
<polygon fill="none" stroke="#000000" points="8.5,-223.7 8.5,-245.7 219.5,-245.7 219.5,-223.7 8.5,-223.7"/>
<text text-anchor="start" x="37.5" y="-230.8" font-family="Helvetica,sans-Serif" font-size="11.00" fill="#000000">sequence_number</text>
<polygon fill="none" stroke="#000000" points="8.5,-204.7 8.5,-223.7 219.5,-223.7 219.5,-204.7 8.5,-204.7"/>
<text text-anchor="start" x="11.5" y="-210.8" font-family="Helvetica,sans-Serif" font-size="11.00" fill="#000000">...</text>
<polygon fill="#ffffff" stroke="transparent" points="8.5,-185.7 8.5,-204.7 103.5,-204.7 103.5,-185.7 8.5,-185.7"/>
<polygon fill="none" stroke="#000000" points="8.5,-185.7 8.5,-204.7 103.5,-204.7 103.5,-185.7 8.5,-185.7"/>
<text text-anchor="start" x="11.5" y="-191.8" font-family="Helvetica,sans-Serif" font-size="11.00" fill="#000000"> &#160;</text>
<polygon fill="#ffffff" stroke="transparent" points="103.5,-185.7 103.5,-204.7 156.5,-204.7 156.5,-185.7 103.5,-185.7"/>
<polygon fill="none" stroke="#000000" points="103.5,-185.7 103.5,-204.7 156.5,-204.7 156.5,-185.7 103.5,-185.7"/>
<text text-anchor="start" x="147.3862" y="-191.8" font-family="Helvetica,sans-Serif" font-size="11.00" fill="#000000"> &#160;</text>
<polygon fill="#ffffff" stroke="transparent" points="156.5,-185.7 156.5,-204.7 219.5,-204.7 219.5,-185.7 156.5,-185.7"/>
<polygon fill="none" stroke="#000000" points="156.5,-185.7 156.5,-204.7 219.5,-204.7 219.5,-185.7 156.5,-185.7"/>
<text text-anchor="start" x="200.9053" y="-191.8" font-family="Helvetica,sans-Serif" font-size="11.00" fill="#000000">1 &gt;</text>
</a>
</g>
</g>
<!-- court_appearance&#45;&gt;court_appearance_reason -->
<g id="edge2" class="edge">
<title>court_appearance:w&#45;&gt;court_appearance_reason:e</title>
<path fill="none" stroke="#000000" d="M256.1916,-264.2084C243.8373,-268.9372 237.6062,-278.7 219.5,-278.7"/>
<polygon fill="#000000" stroke="#000000" points="262.6202,-263.0815 271.1217,-265.2459 266.5601,-262.3907 270.5,-261.7 270.5,-261.7 270.5,-261.7 266.5601,-262.3907 269.8783,-258.1541 262.6202,-263.0815 262.6202,-263.0815"/>
<ellipse fill="none" stroke="#000000" cx="259.4682" cy="-263.634" rx="3.2" ry="3.2"/>
</g>
<!-- court_appearance_status -->
<g id="node4" class="node">
<title>court_appearance_status</title>
<g id="a_node4"><a xlink:href="../../tables/court_appearance_status.html" xlink:title="court_appearance_status" target="_top">
<polygon fill="#ffffff" stroke="transparent" points="9.5,-38.2 9.5,-165.2 217.5,-165.2 217.5,-38.2 9.5,-38.2"/>
<polygon fill="#f5f5f5" stroke="transparent" points="9.5,-141.7 9.5,-164.7 217.5,-164.7 217.5,-141.7 9.5,-141.7"/>
<polygon fill="none" stroke="#000000" points="9.5,-141.7 9.5,-164.7 217.5,-164.7 217.5,-141.7 9.5,-141.7"/>
<text text-anchor="start" x="14.5" y="-150.3" font-family="Helvetica,sans-Serif" font-weight="bold" font-size="11.00" fill="#000000">court_appearance_status</text>
<text text-anchor="start" x="183.0219" y="-149.8" font-family="Helvetica,sans-Serif" font-size="11.00" fill="#000000">[table]</text>
<polygon fill="none" stroke="#000000" points="9.5,-119.7 9.5,-141.7 217.5,-141.7 217.5,-119.7 9.5,-119.7"/>
<image xlink:href="../../images/primaryKeys.png" width="11px" height="12px" preserveAspectRatio="xMinYMin meet" x="14.5" y="-136.7"/>
<text text-anchor="start" x="38.5" y="-126.8" font-family="Helvetica,sans-Serif" font-size="11.00" fill="#000000">id</text>
<polygon fill="#ffffff" stroke="transparent" points="9.5,-97.7 9.5,-119.7 217.5,-119.7 217.5,-97.7 9.5,-97.7"/>
<polygon fill="none" stroke="#000000" points="9.5,-97.7 9.5,-119.7 217.5,-119.7 217.5,-97.7 9.5,-97.7"/>
<text text-anchor="start" x="38.5" y="-104.8" font-family="Helvetica,sans-Serif" font-size="11.00" fill="#000000">code</text>
<polygon fill="#ffffff" stroke="transparent" points="9.5,-75.7 9.5,-97.7 217.5,-97.7 217.5,-75.7 9.5,-75.7"/>
<polygon fill="none" stroke="#000000" points="9.5,-75.7 9.5,-97.7 217.5,-97.7 217.5,-75.7 9.5,-75.7"/>
<text text-anchor="start" x="38.5" y="-82.8" font-family="Helvetica,sans-Serif" font-size="11.00" fill="#000000">sequence_number</text>
<polygon fill="none" stroke="#000000" points="9.5,-56.7 9.5,-75.7 217.5,-75.7 217.5,-56.7 9.5,-56.7"/>
<text text-anchor="start" x="12.5" y="-62.8" font-family="Helvetica,sans-Serif" font-size="11.00" fill="#000000">...</text>
<polygon fill="#ffffff" stroke="transparent" points="9.5,-37.7 9.5,-56.7 102.5,-56.7 102.5,-37.7 9.5,-37.7"/>
<polygon fill="none" stroke="#000000" points="9.5,-37.7 9.5,-56.7 102.5,-56.7 102.5,-37.7 9.5,-37.7"/>
<text text-anchor="start" x="12.5" y="-43.8" font-family="Helvetica,sans-Serif" font-size="11.00" fill="#000000"> &#160;</text>
<polygon fill="#ffffff" stroke="transparent" points="102.5,-37.7 102.5,-56.7 155.5,-56.7 155.5,-37.7 102.5,-37.7"/>
<polygon fill="none" stroke="#000000" points="102.5,-37.7 102.5,-56.7 155.5,-56.7 155.5,-37.7 102.5,-37.7"/>
<text text-anchor="start" x="146.3862" y="-43.8" font-family="Helvetica,sans-Serif" font-size="11.00" fill="#000000"> &#160;</text>
<polygon fill="#ffffff" stroke="transparent" points="155.5,-37.7 155.5,-56.7 217.5,-56.7 217.5,-37.7 155.5,-37.7"/>
<polygon fill="none" stroke="#000000" points="155.5,-37.7 155.5,-56.7 217.5,-56.7 217.5,-37.7 155.5,-37.7"/>
<text text-anchor="start" x="198.9053" y="-43.8" font-family="Helvetica,sans-Serif" font-size="11.00" fill="#000000">1 &gt;</text>
</a>
</g>
</g>
<!-- court_appearance&#45;&gt;court_appearance_status -->
<g id="edge3" class="edge">
<title>court_appearance:w&#45;&gt;court_appearance_status:e</title>
<path fill="none" stroke="#000000" d="M256.4551,-213.5038C233.7374,-196.1252 256.7633,-130.7 217.5,-130.7"/>
<polygon fill="#000000" stroke="#000000" points="262.8348,-215.4098 269.4694,-221.1493 266.6674,-216.5549 270.5,-217.7 270.5,-217.7 270.5,-217.7 266.6674,-216.5549 271.5306,-214.2507 262.8348,-215.4098 262.8348,-215.4098"/>
<ellipse fill="none" stroke="#000000" cx="259.7687" cy="-214.4938" rx="3.2" ry="3.2"/>
</g>
<!-- court_appearance_movement -->
<g id="node5" class="node">
<title>court_appearance_movement</title>
<g id="a_node5"><a xlink:href="../../tables/court_appearance_movement.html" xlink:title="court_appearance_movement" target="_top">
<polygon fill="#ffffff" stroke="transparent" points="556,-320.2 556,-469.2 793,-469.2 793,-320.2 556,-320.2"/>
<polygon fill="#f5f5f5" stroke="transparent" points="556.5,-445.7 556.5,-468.7 793.5,-468.7 793.5,-445.7 556.5,-445.7"/>
<polygon fill="none" stroke="#000000" points="556.5,-445.7 556.5,-468.7 793.5,-468.7 793.5,-445.7 556.5,-445.7"/>
<text text-anchor="start" x="561.5" y="-454.3" font-family="Helvetica,sans-Serif" font-weight="bold" font-size="11.00" fill="#000000">court_appearance_movement</text>
<text text-anchor="start" x="759.0219" y="-453.8" font-family="Helvetica,sans-Serif" font-size="11.00" fill="#000000">[table]</text>
<polygon fill="none" stroke="#000000" points="556.5,-423.7 556.5,-445.7 793.5,-445.7 793.5,-423.7 556.5,-423.7"/>
<image xlink:href="../../images/primaryKeys.png" width="11px" height="12px" preserveAspectRatio="xMinYMin meet" x="561.5" y="-440.7"/>
<text text-anchor="start" x="585.5" y="-430.8" font-family="Helvetica,sans-Serif" font-size="11.00" fill="#000000">id</text>
<polygon fill="none" stroke="#000000" points="556.5,-401.7 556.5,-423.7 793.5,-423.7 793.5,-401.7 556.5,-401.7"/>
<image xlink:href="../../images/foreignKeys.png" width="11px" height="12px" preserveAspectRatio="xMinYMin meet" x="561.5" y="-418.7"/>
<text text-anchor="start" x="585.5" y="-408.8" font-family="Helvetica,sans-Serif" font-size="11.00" fill="#000000">court_appearance_id</text>
<polygon fill="#ffffff" stroke="transparent" points="556.5,-379.7 556.5,-401.7 793.5,-401.7 793.5,-379.7 556.5,-379.7"/>
<polygon fill="none" stroke="#000000" points="556.5,-379.7 556.5,-401.7 793.5,-401.7 793.5,-379.7 556.5,-379.7"/>
<image xlink:href="../../images/foreignKeys.png" width="11px" height="12px" preserveAspectRatio="xMinYMin meet" x="561.5" y="-396.7"/>
<text text-anchor="start" x="585.5" y="-386.8" font-family="Helvetica,sans-Serif" font-size="11.00" fill="#000000">person_identifier</text>
<polygon fill="#ffffff" stroke="transparent" points="556.5,-357.7 556.5,-379.7 793.5,-379.7 793.5,-357.7 556.5,-357.7"/>
<polygon fill="none" stroke="#000000" points="556.5,-357.7 556.5,-379.7 793.5,-379.7 793.5,-357.7 556.5,-357.7"/>
<text text-anchor="start" x="585.5" y="-364.8" font-family="Helvetica,sans-Serif" font-size="11.00" fill="#000000">legacy_id</text>
<polygon fill="none" stroke="#000000" points="556.5,-338.7 556.5,-357.7 793.5,-357.7 793.5,-338.7 556.5,-338.7"/>
<text text-anchor="start" x="559.5" y="-344.8" font-family="Helvetica,sans-Serif" font-size="11.00" fill="#000000">...</text>
<polygon fill="#ffffff" stroke="transparent" points="556.5,-319.7 556.5,-338.7 673.5,-338.7 673.5,-319.7 556.5,-319.7"/>
<polygon fill="none" stroke="#000000" points="556.5,-319.7 556.5,-338.7 673.5,-338.7 673.5,-319.7 556.5,-319.7"/>
<text text-anchor="start" x="559.5" y="-325.8" font-family="Helvetica,sans-Serif" font-size="11.00" fill="#000000">&lt; 2</text>
<polygon fill="#ffffff" stroke="transparent" points="673.5,-319.7 673.5,-338.7 733.5,-338.7 733.5,-319.7 673.5,-319.7"/>
<polygon fill="none" stroke="#000000" points="673.5,-319.7 673.5,-338.7 733.5,-338.7 733.5,-319.7 673.5,-319.7"/>
<text text-anchor="start" x="724.3862" y="-325.8" font-family="Helvetica,sans-Serif" font-size="11.00" fill="#000000"> &#160;</text>
<polygon fill="#ffffff" stroke="transparent" points="733.5,-319.7 733.5,-338.7 793.5,-338.7 793.5,-319.7 733.5,-319.7"/>
<polygon fill="none" stroke="#000000" points="733.5,-319.7 733.5,-338.7 793.5,-338.7 793.5,-319.7 733.5,-319.7"/>
<text text-anchor="start" x="784.3862" y="-325.8" font-family="Helvetica,sans-Serif" font-size="11.00" fill="#000000"> &#160;</text>
</a>
</g>
</g>
<!-- court_appearance_movement&#45;&gt;court_appearance -->
<g id="edge4" class="edge">
<title>court_appearance_movement:w&#45;&gt;court_appearance:e</title>
<path fill="none" stroke="#000000" d="M542.6568,-408.3123C528.8325,-397.7354 528.6756,-371.7 505.5,-371.7"/>
<polygon fill="#000000" stroke="#000000" points="548.8739,-410.2828 555.4123,-416.1317 552.6869,-411.4914 556.5,-412.7 556.5,-412.7 556.5,-412.7 552.6869,-411.4914 557.5877,-409.2683 548.8739,-410.2828 548.8739,-410.2828"/>
<ellipse fill="none" stroke="#000000" cx="545.8235" cy="-409.3159" rx="3.2" ry="3.2"/>
</g>
<!-- court_appearance_movement&#45;&gt;person_summary -->
<g id="edge5" class="edge">
<title>court_appearance_movement:w&#45;&gt;person_summary:e</title>
<path fill="none" stroke="#000000" d="M542.4291,-394.9889C533.547,-401.6045 530.2931,-414.0233 515,-418.7 406.621,-451.8425 372.2229,-434.5261 260,-418.7 228.1725,-414.2116 222.6424,-398.7 190.5,-398.7"/>
<polygon fill="#000000" stroke="#000000" points="548.8476,-393.0325 557.5496,-394.1436 552.6738,-391.8663 556.5,-390.7 556.5,-390.7 556.5,-390.7 552.6738,-391.8663 555.4504,-387.2564 548.8476,-393.0325 548.8476,-393.0325"/>
<ellipse fill="none" stroke="#000000" cx="545.7866" cy="-393.9656" rx="3.2" ry="3.2"/>
</g>
</g>
</svg>
