<?xml version="1.0" encoding="UTF-8" standalone="no"?>
<!DOCTYPE svg PUBLIC "-//W3C//DTD SVG 1.1//EN"
 "http://www.w3.org/Graphics/SVG/1.1/DTD/svg11.dtd">
<!-- Generated by graphviz version 2.40.1 (20161225.0304)
 -->
<!-- Title: oneDegreeRelationshipsDiagramImplied Pages: 1 -->
<svg width="507pt" height="426pt"
 viewBox="0.00 0.00 507.00 426.20" xmlns="http://www.w3.org/2000/svg" xmlns:xlink="http://www.w3.org/1999/xlink">
<g id="graph0" class="graph" transform="scale(1 1) rotate(0) translate(4 422.2)">
<title>oneDegreeRelationshipsDiagramImplied</title>
<polygon fill="#ffffff" stroke="transparent" points="-4,4 -4,-422.2 503,-422.2 503,4 -4,4"/>
<text text-anchor="middle" x="72.4936" y="-7.3" font-family="Helvetica,sans-Serif" font-size="11.00" fill="#000000">Generated by SchemaSpy</text>
<!-- court_appearance_audit -->
<g id="node1" class="node">
<title>court_appearance_audit</title>
<g id="a_node1"><a xlink:href="../../tables/court_appearance_audit.html" xlink:title="court_appearance_audit" target="_top">
<polygon fill="#ffffff" stroke="transparent" points="211,-38.2 211,-414.2 491,-414.2 491,-38.2 211,-38.2"/>
<polygon fill="#f5f5f5" stroke="transparent" points="213,-389.2 213,-412.2 489,-412.2 489,-389.2 213,-389.2"/>
<polygon fill="none" stroke="#000000" points="213,-389.2 213,-412.2 489,-412.2 489,-389.2 213,-389.2"/>
<text text-anchor="start" x="218" y="-397.8" font-family="Helvetica,sans-Serif" font-weight="bold" font-size="11.00" fill="#000000">court_appearance_audit</text>
<text text-anchor="start" x="454.0437" y="-397.3" font-family="Helvetica,sans-Serif" font-size="11.00" fill="#000000">[table]</text>
<polygon fill="none" stroke="#000000" points="213,-367.2 213,-389.2 395,-389.2 395,-367.2 213,-367.2"/>
<image xlink:href="../../images/primaryKeys.png" width="11px" height="12px" preserveAspectRatio="xMinYMin meet" x="218" y="-384.2"/>
<text text-anchor="start" x="233" y="-374.3" font-family="Helvetica,sans-Serif" font-size="11.00" fill="#000000">rev_id</text>
<polygon fill="none" stroke="#000000" points="395,-367.2 395,-389.2 489,-389.2 489,-367.2 395,-367.2"/>
<text text-anchor="start" x="398" y="-374.9" font-family="Helvetica,sans-Serif" font-size="11.00" fill="#000000">int8[19]</text>
<polygon fill="none" stroke="#000000" points="213,-345.2 213,-367.2 395,-367.2 395,-345.2 213,-345.2"/>
<text text-anchor="start" x="233" y="-352.3" font-family="Helvetica,sans-Serif" font-size="11.00" fill="#000000">rev_type</text>
<polygon fill="none" stroke="#000000" points="395,-345.2 395,-367.2 489,-367.2 489,-345.2 395,-345.2"/>
<text text-anchor="start" x="398" y="-352.9" font-family="Helvetica,sans-Serif" font-size="11.00" fill="#000000">int2[5]</text>
<polygon fill="none" stroke="#000000" points="213,-323.2 213,-345.2 395,-345.2 395,-323.2 213,-323.2"/>
<image xlink:href="../../images/primaryKeys.png" width="11px" height="12px" preserveAspectRatio="xMinYMin meet" x="218" y="-340.2"/>
<text text-anchor="start" x="233" y="-330.3" font-family="Helvetica,sans-Serif" font-size="11.00" fill="#000000">id</text>
<polygon fill="none" stroke="#000000" points="395,-323.2 395,-345.2 489,-345.2 489,-323.2 395,-323.2"/>
<text text-anchor="start" x="397.9758" y="-330.9" font-family="Helvetica,sans-Serif" font-size="11.00" fill="#000000">uuid[2147483647]</text>
<polygon fill="none" stroke="#000000" points="213,-301.2 213,-323.2 395,-323.2 395,-301.2 213,-301.2"/>
<text text-anchor="start" x="233" y="-308.3" font-family="Helvetica,sans-Serif" font-size="11.00" fill="#000000">version</text>
<polygon fill="none" stroke="#000000" points="395,-301.2 395,-323.2 489,-323.2 489,-301.2 395,-301.2"/>
<text text-anchor="start" x="398" y="-308.9" font-family="Helvetica,sans-Serif" font-size="11.00" fill="#000000">int4[10]</text>
<polygon fill="none" stroke="#000000" points="213,-279.2 213,-301.2 395,-301.2 395,-279.2 213,-279.2"/>
<image xlink:href="../../images/foreignKeys.png" width="11px" height="12px" preserveAspectRatio="xMinYMin meet" x="218" y="-296.2"/>
<text text-anchor="start" x="233" y="-286.3" font-family="Helvetica,sans-Serif" font-size="11.00" fill="#000000">person_identifier</text>
<polygon fill="none" stroke="#000000" points="395,-279.2 395,-301.2 489,-301.2 489,-279.2 395,-279.2"/>
<text text-anchor="start" x="398" y="-286.9" font-family="Helvetica,sans-Serif" font-size="11.00" fill="#000000">varchar[10]</text>
<polygon fill="none" stroke="#000000" points="213,-257.2 213,-279.2 395,-279.2 395,-257.2 213,-257.2"/>
<text text-anchor="start" x="233" y="-264.3" font-family="Helvetica,sans-Serif" font-size="11.00" fill="#000000">prison_code</text>
<polygon fill="none" stroke="#000000" points="395,-257.2 395,-279.2 489,-279.2 489,-257.2 395,-257.2"/>
<text text-anchor="start" x="398" y="-264.9" font-family="Helvetica,sans-Serif" font-size="11.00" fill="#000000">varchar[6]</text>
<polygon fill="none" stroke="#000000" points="213,-235.2 213,-257.2 395,-257.2 395,-235.2 213,-235.2"/>
<text text-anchor="start" x="233" y="-242.3" font-family="Helvetica,sans-Serif" font-size="11.00" fill="#000000">court_code</text>
<polygon fill="none" stroke="#000000" points="395,-235.2 395,-257.2 489,-257.2 489,-235.2 395,-235.2"/>
<text text-anchor="start" x="398" y="-242.9" font-family="Helvetica,sans-Serif" font-size="11.00" fill="#000000">varchar[6]</text>
<polygon fill="none" stroke="#000000" points="213,-213.2 213,-235.2 395,-235.2 395,-213.2 213,-213.2"/>
<text text-anchor="start" x="233" y="-220.3" font-family="Helvetica,sans-Serif" font-size="11.00" fill="#000000">reason_id</text>
<polygon fill="none" stroke="#000000" points="395,-213.2 395,-235.2 489,-235.2 489,-213.2 395,-213.2"/>
<text text-anchor="start" x="397.9758" y="-220.9" font-family="Helvetica,sans-Serif" font-size="11.00" fill="#000000">uuid[2147483647]</text>
<polygon fill="none" stroke="#000000" points="213,-191.2 213,-213.2 395,-213.2 395,-191.2 213,-191.2"/>
<text text-anchor="start" x="233" y="-198.3" font-family="Helvetica,sans-Serif" font-size="11.00" fill="#000000">external</text>
<polygon fill="none" stroke="#000000" points="395,-191.2 395,-213.2 489,-213.2 489,-191.2 395,-191.2"/>
<text text-anchor="start" x="398" y="-198.9" font-family="Helvetica,sans-Serif" font-size="11.00" fill="#000000">bool[1]</text>
<polygon fill="none" stroke="#000000" points="213,-169.2 213,-191.2 395,-191.2 395,-169.2 213,-169.2"/>
<text text-anchor="start" x="233" y="-176.3" font-family="Helvetica,sans-Serif" font-size="11.00" fill="#000000">status_id</text>
<polygon fill="none" stroke="#000000" points="395,-169.2 395,-191.2 489,-191.2 489,-169.2 395,-169.2"/>
<text text-anchor="start" x="397.9758" y="-176.9" font-family="Helvetica,sans-Serif" font-size="11.00" fill="#000000">uuid[2147483647]</text>
<polygon fill="none" stroke="#000000" points="213,-147.2 213,-169.2 395,-169.2 395,-147.2 213,-147.2"/>
<text text-anchor="start" x="233" y="-154.3" font-family="Helvetica,sans-Serif" font-size="11.00" fill="#000000">start</text>
<polygon fill="none" stroke="#000000" points="395,-147.2 395,-169.2 489,-169.2 489,-147.2 395,-147.2"/>
<text text-anchor="start" x="398" y="-154.9" font-family="Helvetica,sans-Serif" font-size="11.00" fill="#000000">timestamp[29,6]</text>
<polygon fill="none" stroke="#000000" points="213,-125.2 213,-147.2 395,-147.2 395,-125.2 213,-125.2"/>
<text text-anchor="start" x="233" y="-132.3" font-family="Helvetica,sans-Serif" font-size="11.00" fill="#000000">end</text>
<polygon fill="none" stroke="#000000" points="395,-125.2 395,-147.2 489,-147.2 489,-125.2 395,-125.2"/>
<text text-anchor="start" x="398" y="-132.9" font-family="Helvetica,sans-Serif" font-size="11.00" fill="#000000">timestamp[29,6]</text>
<polygon fill="none" stroke="#000000" points="213,-103.2 213,-125.2 395,-125.2 395,-103.2 213,-103.2"/>
<text text-anchor="start" x="233" y="-110.3" font-family="Helvetica,sans-Serif" font-size="11.00" fill="#000000">comments</text>
<polygon fill="none" stroke="#000000" points="395,-103.2 395,-125.2 489,-125.2 489,-103.2 395,-103.2"/>
<text text-anchor="start" x="398" y="-110.9" font-family="Helvetica,sans-Serif" font-size="11.00" fill="#000000">text[2147483647]</text>
<polygon fill="none" stroke="#000000" points="213,-81.2 213,-103.2 395,-103.2 395,-81.2 213,-81.2"/>
<image xlink:href="../../images/foreignKeys.png" width="11px" height="12px" preserveAspectRatio="xMinYMin meet" x="218" y="-98.2"/>
<text text-anchor="start" x="233" y="-88.3" font-family="Helvetica,sans-Serif" font-size="11.00" fill="#000000">legacy_id</text>
<polygon fill="none" stroke="#000000" points="395,-81.2 395,-103.2 489,-103.2 489,-81.2 395,-81.2"/>
<text text-anchor="start" x="398" y="-88.9" font-family="Helvetica,sans-Serif" font-size="11.00" fill="#000000">int8[19]</text>
<polygon fill="none" stroke="#000000" points="213,-59.2 213,-81.2 395,-81.2 395,-59.2 213,-59.2"/>
<text text-anchor="start" x="233" y="-66.3" font-family="Helvetica,sans-Serif" font-size="11.00" fill="#000000">external_reference</text>
<polygon fill="none" stroke="#000000" points="395,-59.2 395,-81.2 489,-81.2 489,-59.2 395,-59.2"/>
<text text-anchor="start" x="398" y="-66.9" font-family="Helvetica,sans-Serif" font-size="11.00" fill="#000000">text[2147483647]</text>
<polygon fill="#ffffff" stroke="transparent" points="213,-40.2 213,-59.2 308,-59.2 308,-40.2 213,-40.2"/>
<polygon fill="none" stroke="#000000" points="213,-40.2 213,-59.2 308,-59.2 308,-40.2 213,-40.2"/>
<text text-anchor="start" x="216" y="-46.3" font-family="Helvetica,sans-Serif" font-size="11.00" fill="#000000">&lt; 3</text>
<polygon fill="#ffffff" stroke="transparent" points="308,-40.2 308,-59.2 395,-59.2 395,-40.2 308,-40.2"/>
<polygon fill="none" stroke="#000000" points="308,-40.2 308,-59.2 395,-59.2 395,-40.2 308,-40.2"/>
<text text-anchor="start" x="385.8862" y="-46.3" font-family="Helvetica,sans-Serif" font-size="11.00" fill="#000000"> &#160;</text>
<polygon fill="#ffffff" stroke="transparent" points="395,-40.2 395,-59.2 489,-59.2 489,-40.2 395,-40.2"/>
<polygon fill="none" stroke="#000000" points="395,-40.2 395,-59.2 489,-59.2 489,-40.2 395,-40.2"/>
<text text-anchor="start" x="470.4053" y="-46.3" font-family="Helvetica,sans-Serif" font-size="11.00" fill="#000000">0 &gt;</text>
<polygon fill="none" stroke="#000000" stroke-width="2" points="212,-39.2 212,-413.2 490,-413.2 490,-39.2 212,-39.2"/>
</a>
</g>
</g>
<!-- audit_revision -->
<g id="node2" class="node">
<title>audit_revision</title>
<g id="a_node2"><a xlink:href="../../tables/audit_revision.html" xlink:title="audit_revision" target="_top">
<polygon fill="#ffffff" stroke="transparent" points="18,-90.7 18,-173.7 152,-173.7 152,-90.7 18,-90.7"/>
<polygon fill="#f5f5f5" stroke="transparent" points="18,-150.2 18,-173.2 152,-173.2 152,-150.2 18,-150.2"/>
<polygon fill="none" stroke="#000000" points="18,-150.2 18,-173.2 152,-173.2 152,-150.2 18,-150.2"/>
<text text-anchor="start" x="23" y="-158.8" font-family="Helvetica,sans-Serif" font-weight="bold" font-size="11.00" fill="#000000">audit_revision</text>
<text text-anchor="start" x="117.5219" y="-158.3" font-family="Helvetica,sans-Serif" font-size="11.00" fill="#000000">[table]</text>
<polygon fill="none" stroke="#000000" points="18,-128.2 18,-150.2 152,-150.2 152,-128.2 18,-128.2"/>
<image xlink:href="../../images/primaryKeys.png" width="11px" height="12px" preserveAspectRatio="xMinYMin meet" x="23" y="-145.2"/>
<text text-anchor="start" x="38" y="-135.3" font-family="Helvetica,sans-Serif" font-size="11.00" fill="#000000">id</text>
<polygon fill="none" stroke="#000000" points="18,-109.2 18,-128.2 152,-128.2 152,-109.2 18,-109.2"/>
<text text-anchor="start" x="21" y="-115.3" font-family="Helvetica,sans-Serif" font-size="11.00" fill="#000000">...</text>
<polygon fill="#ffffff" stroke="transparent" points="18,-90.2 18,-109.2 74,-109.2 74,-90.2 18,-90.2"/>
<polygon fill="none" stroke="#000000" points="18,-90.2 18,-109.2 74,-109.2 74,-90.2 18,-90.2"/>
<text text-anchor="start" x="21" y="-96.3" font-family="Helvetica,sans-Serif" font-size="11.00" fill="#000000"> &#160;</text>
<polygon fill="#ffffff" stroke="transparent" points="74,-90.2 74,-109.2 108,-109.2 108,-90.2 74,-90.2"/>
<polygon fill="none" stroke="#000000" points="74,-90.2 74,-109.2 108,-109.2 108,-90.2 74,-90.2"/>
<text text-anchor="start" x="98.8862" y="-96.3" font-family="Helvetica,sans-Serif" font-size="11.00" fill="#000000"> &#160;</text>
<polygon fill="#ffffff" stroke="transparent" points="108,-90.2 108,-109.2 152,-109.2 152,-90.2 108,-90.2"/>
<polygon fill="none" stroke="#000000" points="108,-90.2 108,-109.2 152,-109.2 152,-90.2 108,-90.2"/>
<text text-anchor="start" x="133.4053" y="-96.3" font-family="Helvetica,sans-Serif" font-size="11.00" fill="#000000">4 &gt;</text>
</a>
</g>
</g>
<!-- court_appearance_audit&#45;&gt;audit_revision -->
<g id="edge1" class="edge">
<title>court_appearance_audit:w&#45;&gt;audit_revision:e</title>
<path fill="none" stroke="#000000" stroke-dasharray="5,2" d="M198.8862,-95.7326C180.1019,-106.663 180.4764,-139.2 152,-139.2"/>
<polygon fill="#000000" stroke="#000000" points="205.2394,-94.1425 213.8741,-95.6923 209.1197,-93.1712 213,-92.2 213,-92.2 213,-92.2 209.1197,-93.1712 212.1259,-88.7077 205.2394,-94.1425 205.2394,-94.1425"/>
<ellipse fill="none" stroke="#000000" cx="202.1352" cy="-94.9195" rx="3.2" ry="3.2"/>
</g>
<!-- court_appearance_audit&#45;&gt;audit_revision -->
<g id="edge3" class="edge">
<title>court_appearance_audit:w&#45;&gt;audit_revision:e</title>
<path fill="none" stroke="#000000" d="M198.3012,-376.4136C118.7545,-354.5429 256.0604,-139.2 152,-139.2"/>
<polygon fill="#000000" stroke="#000000" points="205.0584,-377.2348 212.5657,-381.7737 209.0292,-377.7174 213,-378.2 213,-378.2 213,-378.2 209.0292,-377.7174 213.4343,-374.6263 205.0584,-377.2348 205.0584,-377.2348"/>
<ellipse fill="none" stroke="#000000" cx="201.8818" cy="-376.8487" rx="3.2" ry="3.2"/>
</g>
<!-- person_summary -->
<g id="node3" class="node">
<title>person_summary</title>
<g id="a_node3"><a xlink:href="../../tables/person_summary.html" xlink:title="person_summary" target="_top">
<polygon fill="#ffffff" stroke="transparent" points="8,-241.7 8,-324.7 162,-324.7 162,-241.7 8,-241.7"/>
<polygon fill="#f5f5f5" stroke="transparent" points="8,-301.2 8,-324.2 162,-324.2 162,-301.2 8,-301.2"/>
<polygon fill="none" stroke="#000000" points="8,-301.2 8,-324.2 162,-324.2 162,-301.2 8,-301.2"/>
<text text-anchor="start" x="13" y="-309.8" font-family="Helvetica,sans-Serif" font-weight="bold" font-size="11.00" fill="#000000">person_summary</text>
<text text-anchor="start" x="127.5219" y="-309.3" font-family="Helvetica,sans-Serif" font-size="11.00" fill="#000000">[table]</text>
<polygon fill="none" stroke="#000000" points="8,-279.2 8,-301.2 162,-301.2 162,-279.2 8,-279.2"/>
<image xlink:href="../../images/primaryKeys.png" width="11px" height="12px" preserveAspectRatio="xMinYMin meet" x="13" y="-296.2"/>
<text text-anchor="start" x="37" y="-286.3" font-family="Helvetica,sans-Serif" font-size="11.00" fill="#000000">person_identifier</text>
<polygon fill="none" stroke="#000000" points="8,-260.2 8,-279.2 162,-279.2 162,-260.2 8,-260.2"/>
<text text-anchor="start" x="11" y="-266.3" font-family="Helvetica,sans-Serif" font-size="11.00" fill="#000000">...</text>
<polygon fill="#ffffff" stroke="transparent" points="8,-241.2 8,-260.2 74,-260.2 74,-241.2 8,-241.2"/>
<polygon fill="none" stroke="#000000" points="8,-241.2 8,-260.2 74,-260.2 74,-241.2 8,-241.2"/>
<text text-anchor="start" x="11" y="-247.3" font-family="Helvetica,sans-Serif" font-size="11.00" fill="#000000"> &#160;</text>
<polygon fill="#ffffff" stroke="transparent" points="74,-241.2 74,-260.2 113,-260.2 113,-241.2 74,-241.2"/>
<polygon fill="none" stroke="#000000" points="74,-241.2 74,-260.2 113,-260.2 113,-241.2 74,-241.2"/>
<text text-anchor="start" x="103.8862" y="-247.3" font-family="Helvetica,sans-Serif" font-size="11.00" fill="#000000"> &#160;</text>
<polygon fill="#ffffff" stroke="transparent" points="113,-241.2 113,-260.2 162,-260.2 162,-241.2 113,-241.2"/>
<polygon fill="none" stroke="#000000" points="113,-241.2 113,-260.2 162,-260.2 162,-241.2 113,-241.2"/>
<text text-anchor="start" x="143.4053" y="-247.3" font-family="Helvetica,sans-Serif" font-size="11.00" fill="#000000">4 &gt;</text>
</a>
</g>
</g>
<!-- court_appearance_audit&#45;&gt;person_summary -->
<g id="edge2" class="edge">
<title>court_appearance_audit:w&#45;&gt;person_summary:e</title>
<path fill="none" stroke="#000000" stroke-dasharray="5,2" d="M198.276,-290.2C186.2815,-290.2 178.8229,-290.2 162,-290.2"/>
<polygon fill="#000000" stroke="#000000" points="205,-290.2001 213,-293.8 209,-290.2 213,-290.2 213,-290.2 213,-290.2 209,-290.2 213,-286.6 205,-290.2001 205,-290.2001"/>
<ellipse fill="none" stroke="#000000" cx="201.8" cy="-290.2001" rx="3.2" ry="3.2"/>
</g>
</g>
</svg>
