<?xml version="1.0" encoding="UTF-8" standalone="no"?>
<!DOCTYPE svg PUBLIC "-//W3C//DTD SVG 1.1//EN"
 "http://www.w3.org/Graphics/SVG/1.1/DTD/svg11.dtd">
<!-- Generated by graphviz version 2.40.1 (20161225.0304)
 -->
<!-- Title: twoDegreesRelationshipsDiagramImplied Pages: 1 -->
<svg width="848pt" height="552pt"
 viewBox="0.00 0.00 848.00 551.70" xmlns="http://www.w3.org/2000/svg" xmlns:xlink="http://www.w3.org/1999/xlink">
<g id="graph0" class="graph" transform="scale(1 1) rotate(0) translate(4 547.7)">
<title>twoDegreesRelationshipsDiagramImplied</title>
<polygon fill="#ffffff" stroke="transparent" points="-4,4 -4,-547.7 844,-547.7 844,4 -4,4"/>
<text text-anchor="middle" x="72.4936" y="-7.3" font-family="Helvetica,sans-Serif" font-size="11.00" fill="#000000">Generated by SchemaSpy</text>
<!-- court_appearance -->
<g id="node1" class="node">
<title>court_appearance</title>
<g id="a_node1"><a xlink:href="../../tables/court_appearance.html" xlink:title="court_appearance" target="_top">
<polygon fill="#ffffff" stroke="transparent" points="287.5,-38.2 287.5,-348.2 526.5,-348.2 526.5,-38.2 287.5,-38.2"/>
<polygon fill="#f5f5f5" stroke="transparent" points="290,-323.2 290,-346.2 525,-346.2 525,-323.2 290,-323.2"/>
<polygon fill="none" stroke="#000000" points="290,-323.2 290,-346.2 525,-346.2 525,-323.2 290,-323.2"/>
<text text-anchor="start" x="295" y="-331.8" font-family="Helvetica,sans-Serif" font-weight="bold" font-size="11.00" fill="#000000">court_appearance</text>
<text text-anchor="start" x="490.0437" y="-331.3" font-family="Helvetica,sans-Serif" font-size="11.00" fill="#000000">[table]</text>
<polygon fill="none" stroke="#000000" points="290,-301.2 290,-323.2 431,-323.2 431,-301.2 290,-301.2"/>
<image xlink:href="../../images/primaryKeys.png" width="11px" height="12px" preserveAspectRatio="xMinYMin meet" x="295" y="-318.2"/>
<text text-anchor="start" x="310" y="-308.3" font-family="Helvetica,sans-Serif" font-size="11.00" fill="#000000">id</text>
<polygon fill="none" stroke="#000000" points="431,-301.2 431,-323.2 525,-323.2 525,-301.2 431,-301.2"/>
<text text-anchor="start" x="433.9758" y="-308.9" font-family="Helvetica,sans-Serif" font-size="11.00" fill="#000000">uuid[2147483647]</text>
<polygon fill="none" stroke="#000000" points="290,-279.2 290,-301.2 431,-301.2 431,-279.2 290,-279.2"/>
<text text-anchor="start" x="310" y="-286.3" font-family="Helvetica,sans-Serif" font-size="11.00" fill="#000000">version</text>
<polygon fill="none" stroke="#000000" points="431,-279.2 431,-301.2 525,-301.2 525,-279.2 431,-279.2"/>
<text text-anchor="start" x="434" y="-286.9" font-family="Helvetica,sans-Serif" font-size="11.00" fill="#000000">int4[10]</text>
<polygon fill="#ffffff" stroke="transparent" points="290,-257.2 290,-279.2 431,-279.2 431,-257.2 290,-257.2"/>
<polygon fill="none" stroke="#000000" points="290,-257.2 290,-279.2 431,-279.2 431,-257.2 290,-257.2"/>
<image xlink:href="../../images/foreignKeys.png" width="11px" height="12px" preserveAspectRatio="xMinYMin meet" x="295" y="-274.2"/>
<text text-anchor="start" x="310" y="-264.3" font-family="Helvetica,sans-Serif" font-size="11.00" fill="#000000">person_identifier</text>
<polygon fill="none" stroke="#000000" points="431,-257.2 431,-279.2 525,-279.2 525,-257.2 431,-257.2"/>
<text text-anchor="start" x="434" y="-264.9" font-family="Helvetica,sans-Serif" font-size="11.00" fill="#000000">varchar[10]</text>
<polygon fill="#ffffff" stroke="transparent" points="290,-235.2 290,-257.2 431,-257.2 431,-235.2 290,-235.2"/>
<polygon fill="none" stroke="#000000" points="290,-235.2 290,-257.2 431,-257.2 431,-235.2 290,-235.2"/>
<text text-anchor="start" x="310" y="-242.3" font-family="Helvetica,sans-Serif" font-size="11.00" fill="#000000">prison_code</text>
<polygon fill="none" stroke="#000000" points="431,-235.2 431,-257.2 525,-257.2 525,-235.2 431,-235.2"/>
<text text-anchor="start" x="434" y="-242.9" font-family="Helvetica,sans-Serif" font-size="11.00" fill="#000000">varchar[6]</text>
<polygon fill="none" stroke="#000000" points="290,-213.2 290,-235.2 431,-235.2 431,-213.2 290,-213.2"/>
<text text-anchor="start" x="310" y="-220.3" font-family="Helvetica,sans-Serif" font-size="11.00" fill="#000000">court_code</text>
<polygon fill="none" stroke="#000000" points="431,-213.2 431,-235.2 525,-235.2 525,-213.2 431,-213.2"/>
<text text-anchor="start" x="434" y="-220.9" font-family="Helvetica,sans-Serif" font-size="11.00" fill="#000000">varchar[6]</text>
<polygon fill="#ffffff" stroke="transparent" points="290,-191.2 290,-213.2 431,-213.2 431,-191.2 290,-191.2"/>
<polygon fill="none" stroke="#000000" points="290,-191.2 290,-213.2 431,-213.2 431,-191.2 290,-191.2"/>
<image xlink:href="../../images/foreignKeys.png" width="11px" height="12px" preserveAspectRatio="xMinYMin meet" x="295" y="-208.2"/>
<text text-anchor="start" x="310" y="-198.3" font-family="Helvetica,sans-Serif" font-size="11.00" fill="#000000">reason_id</text>
<polygon fill="none" stroke="#000000" points="431,-191.2 431,-213.2 525,-213.2 525,-191.2 431,-191.2"/>
<text text-anchor="start" x="433.9758" y="-198.9" font-family="Helvetica,sans-Serif" font-size="11.00" fill="#000000">uuid[2147483647]</text>
<polygon fill="none" stroke="#000000" points="290,-169.2 290,-191.2 431,-191.2 431,-169.2 290,-169.2"/>
<text text-anchor="start" x="310" y="-176.3" font-family="Helvetica,sans-Serif" font-size="11.00" fill="#000000">external</text>
<polygon fill="none" stroke="#000000" points="431,-169.2 431,-191.2 525,-191.2 525,-169.2 431,-169.2"/>
<text text-anchor="start" x="434" y="-176.9" font-family="Helvetica,sans-Serif" font-size="11.00" fill="#000000">bool[1]</text>
<polygon fill="#ffffff" stroke="transparent" points="290,-147.2 290,-169.2 431,-169.2 431,-147.2 290,-147.2"/>
<polygon fill="none" stroke="#000000" points="290,-147.2 290,-169.2 431,-169.2 431,-147.2 290,-147.2"/>
<image xlink:href="../../images/foreignKeys.png" width="11px" height="12px" preserveAspectRatio="xMinYMin meet" x="295" y="-164.2"/>
<text text-anchor="start" x="310" y="-154.3" font-family="Helvetica,sans-Serif" font-size="11.00" fill="#000000">status_id</text>
<polygon fill="none" stroke="#000000" points="431,-147.2 431,-169.2 525,-169.2 525,-147.2 431,-147.2"/>
<text text-anchor="start" x="433.9758" y="-154.9" font-family="Helvetica,sans-Serif" font-size="11.00" fill="#000000">uuid[2147483647]</text>
<polygon fill="#ffffff" stroke="transparent" points="290,-125.2 290,-147.2 431,-147.2 431,-125.2 290,-125.2"/>
<polygon fill="none" stroke="#000000" points="290,-125.2 290,-147.2 431,-147.2 431,-125.2 290,-125.2"/>
<text text-anchor="start" x="310" y="-132.3" font-family="Helvetica,sans-Serif" font-size="11.00" fill="#000000">start</text>
<polygon fill="none" stroke="#000000" points="431,-125.2 431,-147.2 525,-147.2 525,-125.2 431,-125.2"/>
<text text-anchor="start" x="434" y="-132.9" font-family="Helvetica,sans-Serif" font-size="11.00" fill="#000000">timestamp[29,6]</text>
<polygon fill="none" stroke="#000000" points="290,-103.2 290,-125.2 431,-125.2 431,-103.2 290,-103.2"/>
<text text-anchor="start" x="310" y="-110.3" font-family="Helvetica,sans-Serif" font-size="11.00" fill="#000000">end</text>
<polygon fill="none" stroke="#000000" points="431,-103.2 431,-125.2 525,-125.2 525,-103.2 431,-103.2"/>
<text text-anchor="start" x="434" y="-110.9" font-family="Helvetica,sans-Serif" font-size="11.00" fill="#000000">timestamp[29,6]</text>
<polygon fill="none" stroke="#000000" points="290,-81.2 290,-103.2 431,-103.2 431,-81.2 290,-81.2"/>
<text text-anchor="start" x="310" y="-88.3" font-family="Helvetica,sans-Serif" font-size="11.00" fill="#000000">comments</text>
<polygon fill="none" stroke="#000000" points="431,-81.2 431,-103.2 525,-103.2 525,-81.2 431,-81.2"/>
<text text-anchor="start" x="434" y="-88.9" font-family="Helvetica,sans-Serif" font-size="11.00" fill="#000000">text[2147483647]</text>
<polygon fill="#ffffff" stroke="transparent" points="290,-59.2 290,-81.2 431,-81.2 431,-59.2 290,-59.2"/>
<polygon fill="none" stroke="#000000" points="290,-59.2 290,-81.2 431,-81.2 431,-59.2 290,-59.2"/>
<image xlink:href="../../images/foreignKeys.png" width="11px" height="12px" preserveAspectRatio="xMinYMin meet" x="295" y="-76.2"/>
<text text-anchor="start" x="310" y="-66.3" font-family="Helvetica,sans-Serif" font-size="11.00" fill="#000000">legacy_id</text>
<polygon fill="none" stroke="#000000" points="431,-59.2 431,-81.2 525,-81.2 525,-59.2 431,-59.2"/>
<text text-anchor="start" x="434" y="-66.9" font-family="Helvetica,sans-Serif" font-size="11.00" fill="#000000">int8[19]</text>
<polygon fill="#ffffff" stroke="transparent" points="290,-40.2 290,-59.2 365,-59.2 365,-40.2 290,-40.2"/>
<polygon fill="none" stroke="#000000" points="290,-40.2 290,-59.2 365,-59.2 365,-40.2 290,-40.2"/>
<text text-anchor="start" x="293" y="-46.3" font-family="Helvetica,sans-Serif" font-size="11.00" fill="#000000">&lt; 4</text>
<polygon fill="#ffffff" stroke="transparent" points="365,-40.2 365,-59.2 431,-59.2 431,-40.2 365,-40.2"/>
<polygon fill="none" stroke="#000000" points="365,-40.2 365,-59.2 431,-59.2 431,-40.2 365,-40.2"/>
<text text-anchor="start" x="421.8862" y="-46.3" font-family="Helvetica,sans-Serif" font-size="11.00" fill="#000000"> &#160;</text>
<polygon fill="#ffffff" stroke="transparent" points="431,-40.2 431,-59.2 525,-59.2 525,-40.2 431,-40.2"/>
<polygon fill="none" stroke="#000000" points="431,-40.2 431,-59.2 525,-59.2 525,-40.2 431,-40.2"/>
<text text-anchor="start" x="506.4053" y="-46.3" font-family="Helvetica,sans-Serif" font-size="11.00" fill="#000000">1 &gt;</text>
<polygon fill="none" stroke="#000000" stroke-width="2" points="288.5,-39.2 288.5,-347.2 525.5,-347.2 525.5,-39.2 288.5,-39.2"/>
</a>
</g>
</g>
<!-- audit_revision -->
<g id="node2" class="node">
<title>audit_revision</title>
<g id="a_node2"><a xlink:href="../../tables/audit_revision.html" xlink:title="audit_revision" target="_top">
<polygon fill="#ffffff" stroke="transparent" points="46.5,-440.7 46.5,-523.7 180.5,-523.7 180.5,-440.7 46.5,-440.7"/>
<polygon fill="#f5f5f5" stroke="transparent" points="46.5,-500.2 46.5,-523.2 180.5,-523.2 180.5,-500.2 46.5,-500.2"/>
<polygon fill="none" stroke="#000000" points="46.5,-500.2 46.5,-523.2 180.5,-523.2 180.5,-500.2 46.5,-500.2"/>
<text text-anchor="start" x="51.5" y="-508.8" font-family="Helvetica,sans-Serif" font-weight="bold" font-size="11.00" fill="#000000">audit_revision</text>
<text text-anchor="start" x="146.0219" y="-508.3" font-family="Helvetica,sans-Serif" font-size="11.00" fill="#000000">[table]</text>
<polygon fill="none" stroke="#000000" points="46.5,-478.2 46.5,-500.2 180.5,-500.2 180.5,-478.2 46.5,-478.2"/>
<image xlink:href="../../images/primaryKeys.png" width="11px" height="12px" preserveAspectRatio="xMinYMin meet" x="51.5" y="-495.2"/>
<text text-anchor="start" x="66.5" y="-485.3" font-family="Helvetica,sans-Serif" font-size="11.00" fill="#000000">id</text>
<polygon fill="none" stroke="#000000" points="46.5,-459.2 46.5,-478.2 180.5,-478.2 180.5,-459.2 46.5,-459.2"/>
<text text-anchor="start" x="49.5" y="-465.3" font-family="Helvetica,sans-Serif" font-size="11.00" fill="#000000">...</text>
<polygon fill="#ffffff" stroke="transparent" points="46.5,-440.2 46.5,-459.2 102.5,-459.2 102.5,-440.2 46.5,-440.2"/>
<polygon fill="none" stroke="#000000" points="46.5,-440.2 46.5,-459.2 102.5,-459.2 102.5,-440.2 46.5,-440.2"/>
<text text-anchor="start" x="49.5" y="-446.3" font-family="Helvetica,sans-Serif" font-size="11.00" fill="#000000"> &#160;</text>
<polygon fill="#ffffff" stroke="transparent" points="102.5,-440.2 102.5,-459.2 136.5,-459.2 136.5,-440.2 102.5,-440.2"/>
<polygon fill="none" stroke="#000000" points="102.5,-440.2 102.5,-459.2 136.5,-459.2 136.5,-440.2 102.5,-440.2"/>
<text text-anchor="start" x="127.3862" y="-446.3" font-family="Helvetica,sans-Serif" font-size="11.00" fill="#000000"> &#160;</text>
<polygon fill="#ffffff" stroke="transparent" points="136.5,-440.2 136.5,-459.2 180.5,-459.2 180.5,-440.2 136.5,-440.2"/>
<polygon fill="none" stroke="#000000" points="136.5,-440.2 136.5,-459.2 180.5,-459.2 180.5,-440.2 136.5,-440.2"/>
<text text-anchor="start" x="161.9053" y="-446.3" font-family="Helvetica,sans-Serif" font-size="11.00" fill="#000000">4 &gt;</text>
</a>
</g>
</g>
<!-- court_appearance&#45;&gt;audit_revision -->
<g id="edge1" class="edge">
<title>court_appearance:w&#45;&gt;audit_revision:e</title>
<path fill="none" stroke="#000000" stroke-dasharray="5,2" d="M279.5076,-72.0154C213.9118,-96.2799 257.5421,-356.7528 227,-427.2 213.299,-458.8022 214.9444,-489.2 180.5,-489.2"/>
<polygon fill="#000000" stroke="#000000" points="288.5297,-66.3949 289.8937,-74.2778 288.3171,-74.5506 286.9532,-66.6677 288.5297,-66.3949"/>
<polyline fill="none" stroke="#000000" points="290,-70.2 286.0586,-70.882 "/>
<ellipse fill="none" stroke="#000000" cx="282.9054" cy="-71.4275" rx="3.2" ry="3.2"/>
</g>
<!-- person_summary -->
<g id="node3" class="node">
<title>person_summary</title>
<g id="a_node3"><a xlink:href="../../tables/person_summary.html" xlink:title="person_summary" target="_top">
<polygon fill="#ffffff" stroke="transparent" points="36.5,-355.7 36.5,-416.7 190.5,-416.7 190.5,-355.7 36.5,-355.7"/>
<polygon fill="#f5f5f5" stroke="transparent" points="36.5,-393.2 36.5,-416.2 190.5,-416.2 190.5,-393.2 36.5,-393.2"/>
<polygon fill="none" stroke="#000000" points="36.5,-393.2 36.5,-416.2 190.5,-416.2 190.5,-393.2 36.5,-393.2"/>
<text text-anchor="start" x="41.5" y="-401.8" font-family="Helvetica,sans-Serif" font-weight="bold" font-size="11.00" fill="#000000">person_summary</text>
<text text-anchor="start" x="156.0219" y="-401.3" font-family="Helvetica,sans-Serif" font-size="11.00" fill="#000000">[table]</text>
<polygon fill="none" stroke="#000000" points="36.5,-374.2 36.5,-393.2 190.5,-393.2 190.5,-374.2 36.5,-374.2"/>
<text text-anchor="start" x="39.5" y="-380.3" font-family="Helvetica,sans-Serif" font-size="11.00" fill="#000000">...</text>
<polygon fill="#ffffff" stroke="transparent" points="36.5,-355.2 36.5,-374.2 102.5,-374.2 102.5,-355.2 36.5,-355.2"/>
<polygon fill="none" stroke="#000000" points="36.5,-355.2 36.5,-374.2 102.5,-374.2 102.5,-355.2 36.5,-355.2"/>
<text text-anchor="start" x="39.5" y="-361.3" font-family="Helvetica,sans-Serif" font-size="11.00" fill="#000000"> &#160;</text>
<polygon fill="#ffffff" stroke="transparent" points="102.5,-355.2 102.5,-374.2 141.5,-374.2 141.5,-355.2 102.5,-355.2"/>
<polygon fill="none" stroke="#000000" points="102.5,-355.2 102.5,-374.2 141.5,-374.2 141.5,-355.2 102.5,-355.2"/>
<text text-anchor="start" x="132.3862" y="-361.3" font-family="Helvetica,sans-Serif" font-size="11.00" fill="#000000"> &#160;</text>
<polygon fill="#ffffff" stroke="transparent" points="141.5,-355.2 141.5,-374.2 190.5,-374.2 190.5,-355.2 141.5,-355.2"/>
<polygon fill="none" stroke="#000000" points="141.5,-355.2 141.5,-374.2 190.5,-374.2 190.5,-355.2 141.5,-355.2"/>
<text text-anchor="start" x="171.9053" y="-361.3" font-family="Helvetica,sans-Serif" font-size="11.00" fill="#000000">4 &gt;</text>
</a>
</g>
</g>
<!-- court_appearance&#45;&gt;person_summary -->
<g id="edge2" class="edge">
<title>court_appearance:w&#45;&gt;person_summary:e</title>
<path fill="none" stroke="#000000" d="M275.6454,-270.5918C250.8047,-280.2992 256.4282,-317.2336 227,-338.2 218.2878,-344.4071 208.6491,-350.0206 198.7781,-355.0356"/>
<polygon fill="#000000" stroke="#000000" points="282.1088,-269.5149 290.5917,-271.751 286.0544,-268.8575 290,-268.2 290,-268.2 290,-268.2 286.0544,-268.8575 289.4083,-264.649 282.1088,-269.5149 282.1088,-269.5149"/>
<ellipse fill="none" stroke="#000000" cx="278.9523" cy="-270.0409" rx="3.2" ry="3.2"/>
</g>
<!-- court_appearance_reason -->
<g id="node4" class="node">
<title>court_appearance_reason</title>
<g id="a_node4"><a xlink:href="../../tables/court_appearance_reason.html" xlink:title="court_appearance_reason" target="_top">
<polygon fill="#ffffff" stroke="transparent" points="8,-200.7 8,-327.7 219,-327.7 219,-200.7 8,-200.7"/>
<polygon fill="#f5f5f5" stroke="transparent" points="8.5,-304.2 8.5,-327.2 219.5,-327.2 219.5,-304.2 8.5,-304.2"/>
<polygon fill="none" stroke="#000000" points="8.5,-304.2 8.5,-327.2 219.5,-327.2 219.5,-304.2 8.5,-304.2"/>
<text text-anchor="start" x="13.5" y="-312.8" font-family="Helvetica,sans-Serif" font-weight="bold" font-size="11.00" fill="#000000">court_appearance_reason</text>
<text text-anchor="start" x="185.0219" y="-312.3" font-family="Helvetica,sans-Serif" font-size="11.00" fill="#000000">[table]</text>
<polygon fill="none" stroke="#000000" points="8.5,-282.2 8.5,-304.2 219.5,-304.2 219.5,-282.2 8.5,-282.2"/>
<image xlink:href="../../images/primaryKeys.png" width="11px" height="12px" preserveAspectRatio="xMinYMin meet" x="13.5" y="-299.2"/>
<text text-anchor="start" x="37.5" y="-289.3" font-family="Helvetica,sans-Serif" font-size="11.00" fill="#000000">id</text>
<polygon fill="#ffffff" stroke="transparent" points="8.5,-260.2 8.5,-282.2 219.5,-282.2 219.5,-260.2 8.5,-260.2"/>
<polygon fill="none" stroke="#000000" points="8.5,-260.2 8.5,-282.2 219.5,-282.2 219.5,-260.2 8.5,-260.2"/>
<text text-anchor="start" x="37.5" y="-267.3" font-family="Helvetica,sans-Serif" font-size="11.00" fill="#000000">code</text>
<polygon fill="#ffffff" stroke="transparent" points="8.5,-238.2 8.5,-260.2 219.5,-260.2 219.5,-238.2 8.5,-238.2"/>
<polygon fill="none" stroke="#000000" points="8.5,-238.2 8.5,-260.2 219.5,-260.2 219.5,-238.2 8.5,-238.2"/>
<text text-anchor="start" x="37.5" y="-245.3" font-family="Helvetica,sans-Serif" font-size="11.00" fill="#000000">sequence_number</text>
<polygon fill="none" stroke="#000000" points="8.5,-219.2 8.5,-238.2 219.5,-238.2 219.5,-219.2 8.5,-219.2"/>
<text text-anchor="start" x="11.5" y="-225.3" font-family="Helvetica,sans-Serif" font-size="11.00" fill="#000000">...</text>
<polygon fill="#ffffff" stroke="transparent" points="8.5,-200.2 8.5,-219.2 103.5,-219.2 103.5,-200.2 8.5,-200.2"/>
<polygon fill="none" stroke="#000000" points="8.5,-200.2 8.5,-219.2 103.5,-219.2 103.5,-200.2 8.5,-200.2"/>
<text text-anchor="start" x="11.5" y="-206.3" font-family="Helvetica,sans-Serif" font-size="11.00" fill="#000000"> &#160;</text>
<polygon fill="#ffffff" stroke="transparent" points="103.5,-200.2 103.5,-219.2 156.5,-219.2 156.5,-200.2 103.5,-200.2"/>
<polygon fill="none" stroke="#000000" points="103.5,-200.2 103.5,-219.2 156.5,-219.2 156.5,-200.2 103.5,-200.2"/>
<text text-anchor="start" x="147.3862" y="-206.3" font-family="Helvetica,sans-Serif" font-size="11.00" fill="#000000"> &#160;</text>
<polygon fill="#ffffff" stroke="transparent" points="156.5,-200.2 156.5,-219.2 219.5,-219.2 219.5,-200.2 156.5,-200.2"/>
<polygon fill="none" stroke="#000000" points="156.5,-200.2 156.5,-219.2 219.5,-219.2 219.5,-200.2 156.5,-200.2"/>
<text text-anchor="start" x="200.9053" y="-206.3" font-family="Helvetica,sans-Serif" font-size="11.00" fill="#000000">1 &gt;</text>
</a>
</g>
</g>
<!-- court_appearance&#45;&gt;court_appearance_reason -->
<g id="edge3" class="edge">
<title>court_appearance:w&#45;&gt;court_appearance_reason:e</title>
<path fill="none" stroke="#000000" d="M275.5665,-205.4387C244.9833,-221.6494 264.8661,-293.2 219.5,-293.2"/>
<polygon fill="#000000" stroke="#000000" points="282.1941,-203.9516 290.7882,-205.7127 286.0971,-203.0758 290,-202.2 290,-202.2 290,-202.2 286.0971,-203.0758 289.2118,-198.6873 282.1941,-203.9516 282.1941,-203.9516"/>
<ellipse fill="none" stroke="#000000" cx="279.0717" cy="-204.6522" rx="3.2" ry="3.2"/>
</g>
<!-- court_appearance_status -->
<g id="node5" class="node">
<title>court_appearance_status</title>
<g id="a_node5"><a xlink:href="../../tables/court_appearance_status.html" xlink:title="court_appearance_status" target="_top">
<polygon fill="#ffffff" stroke="transparent" points="9.5,-52.7 9.5,-179.7 217.5,-179.7 217.5,-52.7 9.5,-52.7"/>
<polygon fill="#f5f5f5" stroke="transparent" points="9.5,-156.2 9.5,-179.2 217.5,-179.2 217.5,-156.2 9.5,-156.2"/>
<polygon fill="none" stroke="#000000" points="9.5,-156.2 9.5,-179.2 217.5,-179.2 217.5,-156.2 9.5,-156.2"/>
<text text-anchor="start" x="14.5" y="-164.8" font-family="Helvetica,sans-Serif" font-weight="bold" font-size="11.00" fill="#000000">court_appearance_status</text>
<text text-anchor="start" x="183.0219" y="-164.3" font-family="Helvetica,sans-Serif" font-size="11.00" fill="#000000">[table]</text>
<polygon fill="none" stroke="#000000" points="9.5,-134.2 9.5,-156.2 217.5,-156.2 217.5,-134.2 9.5,-134.2"/>
<image xlink:href="../../images/primaryKeys.png" width="11px" height="12px" preserveAspectRatio="xMinYMin meet" x="14.5" y="-151.2"/>
<text text-anchor="start" x="38.5" y="-141.3" font-family="Helvetica,sans-Serif" font-size="11.00" fill="#000000">id</text>
<polygon fill="#ffffff" stroke="transparent" points="9.5,-112.2 9.5,-134.2 217.5,-134.2 217.5,-112.2 9.5,-112.2"/>
<polygon fill="none" stroke="#000000" points="9.5,-112.2 9.5,-134.2 217.5,-134.2 217.5,-112.2 9.5,-112.2"/>
<text text-anchor="start" x="38.5" y="-119.3" font-family="Helvetica,sans-Serif" font-size="11.00" fill="#000000">code</text>
<polygon fill="#ffffff" stroke="transparent" points="9.5,-90.2 9.5,-112.2 217.5,-112.2 217.5,-90.2 9.5,-90.2"/>
<polygon fill="none" stroke="#000000" points="9.5,-90.2 9.5,-112.2 217.5,-112.2 217.5,-90.2 9.5,-90.2"/>
<text text-anchor="start" x="38.5" y="-97.3" font-family="Helvetica,sans-Serif" font-size="11.00" fill="#000000">sequence_number</text>
<polygon fill="none" stroke="#000000" points="9.5,-71.2 9.5,-90.2 217.5,-90.2 217.5,-71.2 9.5,-71.2"/>
<text text-anchor="start" x="12.5" y="-77.3" font-family="Helvetica,sans-Serif" font-size="11.00" fill="#000000">...</text>
<polygon fill="#ffffff" stroke="transparent" points="9.5,-52.2 9.5,-71.2 102.5,-71.2 102.5,-52.2 9.5,-52.2"/>
<polygon fill="none" stroke="#000000" points="9.5,-52.2 9.5,-71.2 102.5,-71.2 102.5,-52.2 9.5,-52.2"/>
<text text-anchor="start" x="12.5" y="-58.3" font-family="Helvetica,sans-Serif" font-size="11.00" fill="#000000"> &#160;</text>
<polygon fill="#ffffff" stroke="transparent" points="102.5,-52.2 102.5,-71.2 155.5,-71.2 155.5,-52.2 102.5,-52.2"/>
<polygon fill="none" stroke="#000000" points="102.5,-52.2 102.5,-71.2 155.5,-71.2 155.5,-52.2 102.5,-52.2"/>
<text text-anchor="start" x="146.3862" y="-58.3" font-family="Helvetica,sans-Serif" font-size="11.00" fill="#000000"> &#160;</text>
<polygon fill="#ffffff" stroke="transparent" points="155.5,-52.2 155.5,-71.2 217.5,-71.2 217.5,-52.2 155.5,-52.2"/>
<polygon fill="none" stroke="#000000" points="155.5,-52.2 155.5,-71.2 217.5,-71.2 217.5,-52.2 155.5,-52.2"/>
<text text-anchor="start" x="198.9053" y="-58.3" font-family="Helvetica,sans-Serif" font-size="11.00" fill="#000000">1 &gt;</text>
</a>
</g>
</g>
<!-- court_appearance&#45;&gt;court_appearance_status -->
<g id="edge4" class="edge">
<title>court_appearance:w&#45;&gt;court_appearance_status:e</title>
<path fill="none" stroke="#000000" d="M275.4364,-157.2229C254.1777,-154.1996 244.7375,-145.2 217.5,-145.2"/>
<polygon fill="#000000" stroke="#000000" points="282.0179,-157.6644 289.759,-161.7919 286.009,-157.9322 290,-158.2 290,-158.2 290,-158.2 286.009,-157.9322 290.241,-154.6081 282.0179,-157.6644 282.0179,-157.6644"/>
<ellipse fill="none" stroke="#000000" cx="278.8251" cy="-157.4502" rx="3.2" ry="3.2"/>
</g>
<!-- court_appearance_audit -->
<g id="node6" class="node">
<title>court_appearance_audit</title>
<g id="a_node6"><a xlink:href="../../tables/court_appearance_audit.html" xlink:title="court_appearance_audit" target="_top">
<polygon fill="#ffffff" stroke="transparent" points="307,-478.7 307,-539.7 507,-539.7 507,-478.7 307,-478.7"/>
<polygon fill="#f5f5f5" stroke="transparent" points="307,-516.2 307,-539.2 507,-539.2 507,-516.2 307,-516.2"/>
<polygon fill="none" stroke="#000000" points="307,-516.2 307,-539.2 507,-539.2 507,-516.2 307,-516.2"/>
<text text-anchor="start" x="312" y="-524.8" font-family="Helvetica,sans-Serif" font-weight="bold" font-size="11.00" fill="#000000">court_appearance_audit</text>
<text text-anchor="start" x="472.5219" y="-524.3" font-family="Helvetica,sans-Serif" font-size="11.00" fill="#000000">[table]</text>
<polygon fill="none" stroke="#000000" points="307,-497.2 307,-516.2 507,-516.2 507,-497.2 307,-497.2"/>
<text text-anchor="start" x="310" y="-503.3" font-family="Helvetica,sans-Serif" font-size="11.00" fill="#000000">...</text>
<polygon fill="#ffffff" stroke="transparent" points="307,-478.2 307,-497.2 405,-497.2 405,-478.2 307,-478.2"/>
<polygon fill="none" stroke="#000000" points="307,-478.2 307,-497.2 405,-497.2 405,-478.2 307,-478.2"/>
<text text-anchor="start" x="310" y="-484.3" font-family="Helvetica,sans-Serif" font-size="11.00" fill="#000000">&lt; 3</text>
<polygon fill="#ffffff" stroke="transparent" points="405,-478.2 405,-497.2 456,-497.2 456,-478.2 405,-478.2"/>
<polygon fill="none" stroke="#000000" points="405,-478.2 405,-497.2 456,-497.2 456,-478.2 405,-478.2"/>
<text text-anchor="start" x="446.8862" y="-484.3" font-family="Helvetica,sans-Serif" font-size="11.00" fill="#000000"> &#160;</text>
<polygon fill="#ffffff" stroke="transparent" points="456,-478.2 456,-497.2 507,-497.2 507,-478.2 456,-478.2"/>
<polygon fill="none" stroke="#000000" points="456,-478.2 456,-497.2 507,-497.2 507,-478.2 456,-478.2"/>
<text text-anchor="start" x="497.8862" y="-484.3" font-family="Helvetica,sans-Serif" font-size="11.00" fill="#000000"> &#160;</text>
</a>
</g>
</g>
<!-- court_appearance_audit&#45;&gt;audit_revision -->
<g id="edge5" class="edge">
<title>court_appearance_audit:w&#45;&gt;audit_revision:e</title>
<path fill="none" stroke="#000000" stroke-dasharray="5,2" d="M292.7046,-504.3411C247.5758,-497.331 232.131,-483.7391 180.5,-489.2"/>
<polygon fill="#000000" stroke="#000000" points="299.0668,-505.1684 306.5358,-509.7699 303.0334,-505.6842 307,-506.2 307,-506.2 307,-506.2 303.0334,-505.6842 307.4642,-502.6301 299.0668,-505.1684 299.0668,-505.1684"/>
<ellipse fill="none" stroke="#000000" cx="295.8935" cy="-504.7557" rx="3.2" ry="3.2"/>
</g>
<!-- court_appearance_audit&#45;&gt;audit_revision -->
<g id="edge7" class="edge">
<title>court_appearance_audit:w&#45;&gt;audit_revision:e</title>
<path fill="none" stroke="#000000" d="M292.4145,-507.5473C247.5093,-510.1632 232.0202,-495.5574 180.5,-489.2"/>
<polygon fill="#000000" stroke="#000000" points="299.0339,-506.9359 307.3312,-509.7847 303.017,-506.568 307,-506.2 307,-506.2 307,-506.2 303.017,-506.568 306.6688,-502.6153 299.0339,-506.9359 299.0339,-506.9359"/>
<ellipse fill="none" stroke="#000000" cx="295.8475" cy="-507.2303" rx="3.2" ry="3.2"/>
</g>
<!-- court_appearance_audit&#45;&gt;person_summary -->
<g id="edge6" class="edge">
<title>court_appearance_audit:w&#45;&gt;person_summary:e</title>
<path fill="none" stroke="#000000" stroke-dasharray="5,2" d="M292.4178,-504.458C259.4011,-495.623 262.5747,-455.2106 227,-430.2 218.2692,-424.0619 208.5663,-418.6332 198.6145,-413.873"/>
<polygon fill="#000000" stroke="#000000" points="299.0565,-505.251 306.573,-509.7746 303.0282,-505.7255 307,-506.2 307,-506.2 307,-506.2 303.0282,-505.7255 307.427,-502.6254 299.0565,-505.251 299.0565,-505.251"/>
<ellipse fill="none" stroke="#000000" cx="295.8791" cy="-504.8714" rx="3.2" ry="3.2"/>
</g>
<!-- court_appearance_movement -->
<g id="node7" class="node">
<title>court_appearance_movement</title>
<g id="a_node7"><a xlink:href="../../tables/court_appearance_movement.html" xlink:title="court_appearance_movement" target="_top">
<polygon fill="#ffffff" stroke="transparent" points="595,-311.7 595,-372.7 832,-372.7 832,-311.7 595,-311.7"/>
<polygon fill="#f5f5f5" stroke="transparent" points="595.5,-349.2 595.5,-372.2 832.5,-372.2 832.5,-349.2 595.5,-349.2"/>
<polygon fill="none" stroke="#000000" points="595.5,-349.2 595.5,-372.2 832.5,-372.2 832.5,-349.2 595.5,-349.2"/>
<text text-anchor="start" x="600.5" y="-357.8" font-family="Helvetica,sans-Serif" font-weight="bold" font-size="11.00" fill="#000000">court_appearance_movement</text>
<text text-anchor="start" x="798.0219" y="-357.3" font-family="Helvetica,sans-Serif" font-size="11.00" fill="#000000">[table]</text>
<polygon fill="none" stroke="#000000" points="595.5,-330.2 595.5,-349.2 832.5,-349.2 832.5,-330.2 595.5,-330.2"/>
<text text-anchor="start" x="598.5" y="-336.3" font-family="Helvetica,sans-Serif" font-size="11.00" fill="#000000">...</text>
<polygon fill="#ffffff" stroke="transparent" points="595.5,-311.2 595.5,-330.2 712.5,-330.2 712.5,-311.2 595.5,-311.2"/>
<polygon fill="none" stroke="#000000" points="595.5,-311.2 595.5,-330.2 712.5,-330.2 712.5,-311.2 595.5,-311.2"/>
<text text-anchor="start" x="598.5" y="-317.3" font-family="Helvetica,sans-Serif" font-size="11.00" fill="#000000">&lt; 2</text>
<polygon fill="#ffffff" stroke="transparent" points="712.5,-311.2 712.5,-330.2 772.5,-330.2 772.5,-311.2 712.5,-311.2"/>
<polygon fill="none" stroke="#000000" points="712.5,-311.2 712.5,-330.2 772.5,-330.2 772.5,-311.2 712.5,-311.2"/>
<text text-anchor="start" x="763.3862" y="-317.3" font-family="Helvetica,sans-Serif" font-size="11.00" fill="#000000"> &#160;</text>
<polygon fill="#ffffff" stroke="transparent" points="772.5,-311.2 772.5,-330.2 832.5,-330.2 832.5,-311.2 772.5,-311.2"/>
<polygon fill="none" stroke="#000000" points="772.5,-311.2 772.5,-330.2 832.5,-330.2 832.5,-311.2 772.5,-311.2"/>
<text text-anchor="start" x="823.3862" y="-317.3" font-family="Helvetica,sans-Serif" font-size="11.00" fill="#000000"> &#160;</text>
</a>
</g>
</g>
<!-- court_appearance_movement&#45;&gt;court_appearance -->
<g id="edge8" class="edge">
<title>court_appearance_movement:w&#45;&gt;court_appearance:e</title>
<path fill="none" stroke="#000000" d="M572.3691,-314.811C556.4475,-313.1903 540.4128,-312.2 525,-312.2"/>
<polygon fill="#000000" stroke="#000000" points="578.9894,-315.5632 586.5318,-320.0434 582.9638,-316.0148 586.9382,-316.4664 586.9382,-316.4664 586.9382,-316.4664 582.9638,-316.0148 587.3447,-312.8894 578.9894,-315.5632 578.9894,-315.5632"/>
<ellipse fill="none" stroke="#000000" cx="575.8098" cy="-315.2019" rx="3.2" ry="3.2"/>
</g>
<!-- court_appearance_movement&#45;&gt;person_summary -->
<g id="edge9" class="edge">
<title>court_appearance_movement:w&#45;&gt;person_summary:e</title>
<path fill="none" stroke="#000000" d="M572.3317,-356.639C566.1387,-357.1847 560.0068,-357.708 554,-358.2 430.6556,-368.3033 287.6254,-376.8026 198.8364,-381.7008"/>
<polygon fill="#000000" stroke="#000000" points="578.8946,-356.0474 587.1855,-358.9145 582.8784,-355.6882 586.8623,-355.329 586.8623,-355.329 586.8623,-355.329 582.8784,-355.6882 586.539,-351.7436 578.8946,-356.0474 578.8946,-356.0474"/>
<ellipse fill="none" stroke="#000000" cx="575.7075" cy="-356.3347" rx="3.2" ry="3.2"/>
</g>
<!-- court_appearance_movement_audit -->
<g id="node8" class="node">
<title>court_appearance_movement_audit</title>
<g id="a_node8"><a xlink:href="../../tables/court_appearance_movement_audit.html" xlink:title="court_appearance_movement_audit" target="_top">
<polygon fill="#ffffff" stroke="transparent" points="268,-396.7 268,-457.7 546,-457.7 546,-396.7 268,-396.7"/>
<polygon fill="#f5f5f5" stroke="transparent" points="268,-434.2 268,-457.2 546,-457.2 546,-434.2 268,-434.2"/>
<polygon fill="none" stroke="#000000" points="268,-434.2 268,-457.2 546,-457.2 546,-434.2 268,-434.2"/>
<text text-anchor="start" x="273" y="-442.8" font-family="Helvetica,sans-Serif" font-weight="bold" font-size="11.00" fill="#000000">court_appearance_movement_audit</text>
<text text-anchor="start" x="511.5219" y="-442.3" font-family="Helvetica,sans-Serif" font-size="11.00" fill="#000000">[table]</text>
<polygon fill="none" stroke="#000000" points="268,-415.2 268,-434.2 546,-434.2 546,-415.2 268,-415.2"/>
<text text-anchor="start" x="271" y="-421.3" font-family="Helvetica,sans-Serif" font-size="11.00" fill="#000000">...</text>
<polygon fill="#ffffff" stroke="transparent" points="268,-396.2 268,-415.2 405,-415.2 405,-396.2 268,-396.2"/>
<polygon fill="none" stroke="#000000" points="268,-396.2 268,-415.2 405,-415.2 405,-396.2 268,-396.2"/>
<text text-anchor="start" x="271" y="-402.3" font-family="Helvetica,sans-Serif" font-size="11.00" fill="#000000">&lt; 2</text>
<polygon fill="#ffffff" stroke="transparent" points="405,-396.2 405,-415.2 475,-415.2 475,-396.2 405,-396.2"/>
<polygon fill="none" stroke="#000000" points="405,-396.2 405,-415.2 475,-415.2 475,-396.2 405,-396.2"/>
<text text-anchor="start" x="465.8862" y="-402.3" font-family="Helvetica,sans-Serif" font-size="11.00" fill="#000000"> &#160;</text>
<polygon fill="#ffffff" stroke="transparent" points="475,-396.2 475,-415.2 546,-415.2 546,-396.2 475,-396.2"/>
<polygon fill="none" stroke="#000000" points="475,-396.2 475,-415.2 546,-415.2 546,-396.2 475,-396.2"/>
<text text-anchor="start" x="536.8862" y="-402.3" font-family="Helvetica,sans-Serif" font-size="11.00" fill="#000000"> &#160;</text>
</a>
</g>
</g>
<!-- court_appearance_movement_audit&#45;&gt;audit_revision -->
<g id="edge11" class="edge">
<title>court_appearance_movement_audit:w&#45;&gt;audit_revision:e</title>
<path fill="none" stroke="#000000" d="M253.5947,-426.5134C220.9403,-438.0924 223.457,-489.2 180.5,-489.2"/>
<polygon fill="#000000" stroke="#000000" points="260.1012,-425.4685 268.5708,-427.7545 264.0506,-424.8343 268,-424.2 268,-424.2 268,-424.2 264.0506,-424.8343 267.4292,-420.6455 260.1012,-425.4685 260.1012,-425.4685"/>
<ellipse fill="none" stroke="#000000" cx="256.9417" cy="-425.9759" rx="3.2" ry="3.2"/>
</g>
<!-- court_appearance_movement_audit&#45;&gt;person_summary -->
<g id="edge10" class="edge">
<title>court_appearance_movement_audit:w&#45;&gt;person_summary:e</title>
<path fill="none" stroke="#000000" stroke-dasharray="5,2" d="M253.4284,-423.6971C235.1087,-422.4727 216.3695,-419.1251 198.8033,-414.9042"/>
<polygon fill="#000000" stroke="#000000" points="260.0048,-423.924 267.8758,-427.7979 264.0024,-424.062 268,-424.2 268,-424.2 268,-424.2 264.0024,-424.062 268.1242,-420.6021 260.0048,-423.924 260.0048,-423.924"/>
<ellipse fill="none" stroke="#000000" cx="256.8067" cy="-423.8136" rx="3.2" ry="3.2"/>
</g>
</g>
</svg>
