<?xml version="1.0" encoding="UTF-8" standalone="no"?>
<!DOCTYPE svg PUBLIC "-//W3C//DTD SVG 1.1//EN"
 "http://www.w3.org/Graphics/SVG/1.1/DTD/svg11.dtd">
<!-- Generated by graphviz version 2.40.1 (20161225.0304)
 -->
<!-- Title: oneDegreeRelationshipsDiagramImplied Pages: 1 -->
<svg width="809pt" height="374pt"
 viewBox="0.00 0.00 809.00 373.70" xmlns="http://www.w3.org/2000/svg" xmlns:xlink="http://www.w3.org/1999/xlink">
<g id="graph0" class="graph" transform="scale(1 1) rotate(0) translate(4 369.7)">
<title>oneDegreeRelationshipsDiagramImplied</title>
<polygon fill="#ffffff" stroke="transparent" points="-4,4 -4,-369.7 805,-369.7 805,4 -4,4"/>
<text text-anchor="middle" x="72.4936" y="-7.3" font-family="Helvetica,sans-Serif" font-size="11.00" fill="#000000">Generated by SchemaSpy</text>
<!-- court_appearance -->
<g id="node1" class="node">
<title>court_appearance</title>
<g id="a_node1"><a xlink:href="../../tables/court_appearance.html" xlink:title="court_appearance" target="_top">
<polygon fill="#ffffff" stroke="transparent" points="348,-124.7 348,-361.7 507,-361.7 507,-124.7 348,-124.7"/>
<polygon fill="#f5f5f5" stroke="transparent" points="348.5,-338.2 348.5,-361.2 507.5,-361.2 507.5,-338.2 348.5,-338.2"/>
<polygon fill="none" stroke="#000000" points="348.5,-338.2 348.5,-361.2 507.5,-361.2 507.5,-338.2 348.5,-338.2"/>
<text text-anchor="start" x="353.5" y="-346.8" font-family="Helvetica,sans-Serif" font-weight="bold" font-size="11.00" fill="#000000">court_appearance</text>
<text text-anchor="start" x="473.0219" y="-346.3" font-family="Helvetica,sans-Serif" font-size="11.00" fill="#000000">[table]</text>
<polygon fill="none" stroke="#000000" points="348.5,-316.2 348.5,-338.2 507.5,-338.2 507.5,-316.2 348.5,-316.2"/>
<image xlink:href="../../images/primaryKeys.png" width="11px" height="12px" preserveAspectRatio="xMinYMin meet" x="353.5" y="-333.2"/>
<text text-anchor="start" x="374.5" y="-323.3" font-family="Helvetica,sans-Serif" font-size="11.00" fill="#000000">id</text>
<polygon fill="#ffffff" stroke="transparent" points="348.5,-294.2 348.5,-316.2 507.5,-316.2 507.5,-294.2 348.5,-294.2"/>
<polygon fill="none" stroke="#000000" points="348.5,-294.2 348.5,-316.2 507.5,-316.2 507.5,-294.2 348.5,-294.2"/>
<image xlink:href="../../images/foreignKeys.png" width="11px" height="12px" preserveAspectRatio="xMinYMin meet" x="353.5" y="-311.2"/>
<text text-anchor="start" x="374.5" y="-301.3" font-family="Helvetica,sans-Serif" font-size="11.00" fill="#000000">person_identifier</text>
<polygon fill="#ffffff" stroke="transparent" points="348.5,-272.2 348.5,-294.2 507.5,-294.2 507.5,-272.2 348.5,-272.2"/>
<polygon fill="none" stroke="#000000" points="348.5,-272.2 348.5,-294.2 507.5,-294.2 507.5,-272.2 348.5,-272.2"/>
<text text-anchor="start" x="374.5" y="-279.3" font-family="Helvetica,sans-Serif" font-size="11.00" fill="#000000">prison_code</text>
<polygon fill="#ffffff" stroke="transparent" points="348.5,-250.2 348.5,-272.2 507.5,-272.2 507.5,-250.2 348.5,-250.2"/>
<polygon fill="none" stroke="#000000" points="348.5,-250.2 348.5,-272.2 507.5,-272.2 507.5,-250.2 348.5,-250.2"/>
<image xlink:href="../../images/foreignKeys.png" width="11px" height="12px" preserveAspectRatio="xMinYMin meet" x="353.5" y="-267.2"/>
<text text-anchor="start" x="374.5" y="-257.3" font-family="Helvetica,sans-Serif" font-size="11.00" fill="#000000">reason_id</text>
<polygon fill="#ffffff" stroke="transparent" points="348.5,-228.2 348.5,-250.2 507.5,-250.2 507.5,-228.2 348.5,-228.2"/>
<polygon fill="none" stroke="#000000" points="348.5,-228.2 348.5,-250.2 507.5,-250.2 507.5,-228.2 348.5,-228.2"/>
<image xlink:href="../../images/foreignKeys.png" width="11px" height="12px" preserveAspectRatio="xMinYMin meet" x="353.5" y="-245.2"/>
<text text-anchor="start" x="374.5" y="-235.3" font-family="Helvetica,sans-Serif" font-size="11.00" fill="#000000">status_id</text>
<polygon fill="#ffffff" stroke="transparent" points="348.5,-206.2 348.5,-228.2 507.5,-228.2 507.5,-206.2 348.5,-206.2"/>
<polygon fill="none" stroke="#000000" points="348.5,-206.2 348.5,-228.2 507.5,-228.2 507.5,-206.2 348.5,-206.2"/>
<text text-anchor="start" x="374.5" y="-213.3" font-family="Helvetica,sans-Serif" font-size="11.00" fill="#000000">start</text>
<polygon fill="#ffffff" stroke="transparent" points="348.5,-184.2 348.5,-206.2 507.5,-206.2 507.5,-184.2 348.5,-184.2"/>
<polygon fill="none" stroke="#000000" points="348.5,-184.2 348.5,-206.2 507.5,-206.2 507.5,-184.2 348.5,-184.2"/>
<image xlink:href="../../images/foreignKeys.png" width="11px" height="12px" preserveAspectRatio="xMinYMin meet" x="353.5" y="-201.2"/>
<text text-anchor="start" x="374.5" y="-191.3" font-family="Helvetica,sans-Serif" font-size="11.00" fill="#000000">legacy_id</text>
<polygon fill="#ffffff" stroke="transparent" points="348.5,-162.2 348.5,-184.2 507.5,-184.2 507.5,-162.2 348.5,-162.2"/>
<polygon fill="none" stroke="#000000" points="348.5,-162.2 348.5,-184.2 507.5,-184.2 507.5,-162.2 348.5,-162.2"/>
<text text-anchor="start" x="374.5" y="-169.3" font-family="Helvetica,sans-Serif" font-size="11.00" fill="#000000">external_reference</text>
<polygon fill="none" stroke="#000000" points="348.5,-143.2 348.5,-162.2 507.5,-162.2 507.5,-143.2 348.5,-143.2"/>
<text text-anchor="start" x="351.5" y="-149.3" font-family="Helvetica,sans-Serif" font-size="11.00" fill="#000000">...</text>
<polygon fill="#ffffff" stroke="transparent" points="348.5,-124.2 348.5,-143.2 421.5,-143.2 421.5,-124.2 348.5,-124.2"/>
<polygon fill="none" stroke="#000000" points="348.5,-124.2 348.5,-143.2 421.5,-143.2 421.5,-124.2 348.5,-124.2"/>
<text text-anchor="start" x="351.5" y="-130.3" font-family="Helvetica,sans-Serif" font-size="11.00" fill="#000000">&lt; 3</text>
<polygon fill="#ffffff" stroke="transparent" points="421.5,-124.2 421.5,-143.2 459.5,-143.2 459.5,-124.2 421.5,-124.2"/>
<polygon fill="none" stroke="#000000" points="421.5,-124.2 421.5,-143.2 459.5,-143.2 459.5,-124.2 421.5,-124.2"/>
<text text-anchor="start" x="450.3862" y="-130.3" font-family="Helvetica,sans-Serif" font-size="11.00" fill="#000000"> &#160;</text>
<polygon fill="#ffffff" stroke="transparent" points="459.5,-124.2 459.5,-143.2 507.5,-143.2 507.5,-124.2 459.5,-124.2"/>
<polygon fill="none" stroke="#000000" points="459.5,-124.2 459.5,-143.2 507.5,-143.2 507.5,-124.2 459.5,-124.2"/>
<text text-anchor="start" x="488.9053" y="-130.3" font-family="Helvetica,sans-Serif" font-size="11.00" fill="#000000">1 &gt;</text>
</a>
</g>
</g>
<!-- court_appearance_reason -->
<g id="node2" class="node">
<title>court_appearance_reason</title>
<g id="a_node2"><a xlink:href="../../tables/court_appearance_reason.html" xlink:title="court_appearance_reason" target="_top">
<polygon fill="#ffffff" stroke="transparent" points="8,-38.2 8,-216.2 299,-216.2 299,-38.2 8,-38.2"/>
<polygon fill="#f5f5f5" stroke="transparent" points="10.5,-191.2 10.5,-214.2 297.5,-214.2 297.5,-191.2 10.5,-191.2"/>
<polygon fill="none" stroke="#000000" points="10.5,-191.2 10.5,-214.2 297.5,-214.2 297.5,-191.2 10.5,-191.2"/>
<text text-anchor="start" x="15.5" y="-199.8" font-family="Helvetica,sans-Serif" font-weight="bold" font-size="11.00" fill="#000000">court_appearance_reason</text>
<text text-anchor="start" x="262.5437" y="-199.3" font-family="Helvetica,sans-Serif" font-size="11.00" fill="#000000">[table]</text>
<polygon fill="none" stroke="#000000" points="10.5,-169.2 10.5,-191.2 203.5,-191.2 203.5,-169.2 10.5,-169.2"/>
<image xlink:href="../../images/primaryKeys.png" width="11px" height="12px" preserveAspectRatio="xMinYMin meet" x="15.5" y="-186.2"/>
<text text-anchor="start" x="30.5" y="-176.3" font-family="Helvetica,sans-Serif" font-size="11.00" fill="#000000">id</text>
<polygon fill="none" stroke="#000000" points="203.5,-169.2 203.5,-191.2 297.5,-191.2 297.5,-169.2 203.5,-169.2"/>
<text text-anchor="start" x="206.4758" y="-176.9" font-family="Helvetica,sans-Serif" font-size="11.00" fill="#000000">uuid[2147483647]</text>
<polygon fill="#ffffff" stroke="transparent" points="10.5,-147.2 10.5,-169.2 203.5,-169.2 203.5,-147.2 10.5,-147.2"/>
<polygon fill="none" stroke="#000000" points="10.5,-147.2 10.5,-169.2 203.5,-169.2 203.5,-147.2 10.5,-147.2"/>
<text text-anchor="start" x="30.5" y="-154.3" font-family="Helvetica,sans-Serif" font-size="11.00" fill="#000000">code</text>
<polygon fill="none" stroke="#000000" points="203.5,-147.2 203.5,-169.2 297.5,-169.2 297.5,-147.2 203.5,-147.2"/>
<text text-anchor="start" x="206.5" y="-154.9" font-family="Helvetica,sans-Serif" font-size="11.00" fill="#000000">varchar[16]</text>
<polygon fill="none" stroke="#000000" points="10.5,-125.2 10.5,-147.2 203.5,-147.2 203.5,-125.2 10.5,-125.2"/>
<text text-anchor="start" x="30.5" y="-132.3" font-family="Helvetica,sans-Serif" font-size="11.00" fill="#000000">description</text>
<polygon fill="none" stroke="#000000" points="203.5,-125.2 203.5,-147.2 297.5,-147.2 297.5,-125.2 203.5,-125.2"/>
<text text-anchor="start" x="206.5" y="-132.9" font-family="Helvetica,sans-Serif" font-size="11.00" fill="#000000">varchar[255]</text>
<polygon fill="#ffffff" stroke="transparent" points="10.5,-103.2 10.5,-125.2 203.5,-125.2 203.5,-103.2 10.5,-103.2"/>
<polygon fill="none" stroke="#000000" points="10.5,-103.2 10.5,-125.2 203.5,-125.2 203.5,-103.2 10.5,-103.2"/>
<text text-anchor="start" x="30.5" y="-110.3" font-family="Helvetica,sans-Serif" font-size="11.00" fill="#000000">sequence_number</text>
<polygon fill="none" stroke="#000000" points="203.5,-103.2 203.5,-125.2 297.5,-125.2 297.5,-103.2 203.5,-103.2"/>
<text text-anchor="start" x="206.5" y="-110.9" font-family="Helvetica,sans-Serif" font-size="11.00" fill="#000000">int4[10]</text>
<polygon fill="none" stroke="#000000" points="10.5,-81.2 10.5,-103.2 203.5,-103.2 203.5,-81.2 10.5,-81.2"/>
<text text-anchor="start" x="30.5" y="-88.3" font-family="Helvetica,sans-Serif" font-size="11.00" fill="#000000">active</text>
<polygon fill="none" stroke="#000000" points="203.5,-81.2 203.5,-103.2 297.5,-103.2 297.5,-81.2 203.5,-81.2"/>
<text text-anchor="start" x="206.5" y="-88.9" font-family="Helvetica,sans-Serif" font-size="11.00" fill="#000000">bool[1]</text>
<polygon fill="none" stroke="#000000" points="10.5,-59.2 10.5,-81.2 203.5,-81.2 203.5,-59.2 10.5,-59.2"/>
<text text-anchor="start" x="30.5" y="-66.3" font-family="Helvetica,sans-Serif" font-size="11.00" fill="#000000">external</text>
<polygon fill="none" stroke="#000000" points="203.5,-59.2 203.5,-81.2 297.5,-81.2 297.5,-59.2 203.5,-59.2"/>
<text text-anchor="start" x="206.5" y="-66.9" font-family="Helvetica,sans-Serif" font-size="11.00" fill="#000000">bool[1]</text>
<polygon fill="#ffffff" stroke="transparent" points="10.5,-40.2 10.5,-59.2 111.5,-59.2 111.5,-40.2 10.5,-40.2"/>
<polygon fill="none" stroke="#000000" points="10.5,-40.2 10.5,-59.2 111.5,-59.2 111.5,-40.2 10.5,-40.2"/>
<text text-anchor="start" x="13.5" y="-46.3" font-family="Helvetica,sans-Serif" font-size="11.00" fill="#000000">&lt; 0</text>
<polygon fill="#ffffff" stroke="transparent" points="111.5,-40.2 111.5,-59.2 203.5,-59.2 203.5,-40.2 111.5,-40.2"/>
<polygon fill="none" stroke="#000000" points="111.5,-40.2 111.5,-59.2 203.5,-59.2 203.5,-40.2 111.5,-40.2"/>
<text text-anchor="start" x="194.3862" y="-46.3" font-family="Helvetica,sans-Serif" font-size="11.00" fill="#000000"> &#160;</text>
<polygon fill="#ffffff" stroke="transparent" points="203.5,-40.2 203.5,-59.2 297.5,-59.2 297.5,-40.2 203.5,-40.2"/>
<polygon fill="none" stroke="#000000" points="203.5,-40.2 203.5,-59.2 297.5,-59.2 297.5,-40.2 203.5,-40.2"/>
<text text-anchor="start" x="278.9053" y="-46.3" font-family="Helvetica,sans-Serif" font-size="11.00" fill="#000000">2 &gt;</text>
<polygon fill="none" stroke="#000000" stroke-width="2" points="9,-39.2 9,-215.2 298,-215.2 298,-39.2 9,-39.2"/>
</a>
</g>
</g>
<!-- court_appearance&#45;&gt;court_appearance_reason -->
<g id="edge1" class="edge">
<title>court_appearance:w&#45;&gt;court_appearance_reason:e</title>
<path fill="none" stroke="#000000" d="M334.6725,-256.8451C314.0291,-240.0206 334.0591,-180.2 297.5,-180.2"/>
<polygon fill="#000000" stroke="#000000" points="340.8695,-258.7968 347.4185,-264.6337 344.6847,-259.9984 348.5,-261.2 348.5,-261.2 348.5,-261.2 344.6847,-259.9984 349.5815,-257.7663 340.8695,-258.7968 340.8695,-258.7968"/>
<ellipse fill="none" stroke="#000000" cx="337.8173" cy="-257.8355" rx="3.2" ry="3.2"/>
</g>
<!-- court_appearance_movement -->
<g id="node3" class="node">
<title>court_appearance_movement</title>
<g id="a_node3"><a xlink:href="../../tables/court_appearance_movement.html" xlink:title="court_appearance_movement" target="_top">
<polygon fill="#ffffff" stroke="transparent" points="556,-120.7 556,-291.7 793,-291.7 793,-120.7 556,-120.7"/>
<polygon fill="#f5f5f5" stroke="transparent" points="556.5,-268.2 556.5,-291.2 793.5,-291.2 793.5,-268.2 556.5,-268.2"/>
<polygon fill="none" stroke="#000000" points="556.5,-268.2 556.5,-291.2 793.5,-291.2 793.5,-268.2 556.5,-268.2"/>
<text text-anchor="start" x="561.5" y="-276.8" font-family="Helvetica,sans-Serif" font-weight="bold" font-size="11.00" fill="#000000">court_appearance_movement</text>
<text text-anchor="start" x="759.0219" y="-276.3" font-family="Helvetica,sans-Serif" font-size="11.00" fill="#000000">[table]</text>
<polygon fill="none" stroke="#000000" points="556.5,-246.2 556.5,-268.2 793.5,-268.2 793.5,-246.2 556.5,-246.2"/>
<image xlink:href="../../images/primaryKeys.png" width="11px" height="12px" preserveAspectRatio="xMinYMin meet" x="561.5" y="-263.2"/>
<text text-anchor="start" x="585.5" y="-253.3" font-family="Helvetica,sans-Serif" font-size="11.00" fill="#000000">id</text>
<polygon fill="#ffffff" stroke="transparent" points="556.5,-224.2 556.5,-246.2 793.5,-246.2 793.5,-224.2 556.5,-224.2"/>
<polygon fill="none" stroke="#000000" points="556.5,-224.2 556.5,-246.2 793.5,-246.2 793.5,-224.2 556.5,-224.2"/>
<image xlink:href="../../images/foreignKeys.png" width="11px" height="12px" preserveAspectRatio="xMinYMin meet" x="561.5" y="-241.2"/>
<text text-anchor="start" x="585.5" y="-231.3" font-family="Helvetica,sans-Serif" font-size="11.00" fill="#000000">court_appearance_id</text>
<polygon fill="#ffffff" stroke="transparent" points="556.5,-202.2 556.5,-224.2 793.5,-224.2 793.5,-202.2 556.5,-202.2"/>
<polygon fill="none" stroke="#000000" points="556.5,-202.2 556.5,-224.2 793.5,-224.2 793.5,-202.2 556.5,-202.2"/>
<image xlink:href="../../images/foreignKeys.png" width="11px" height="12px" preserveAspectRatio="xMinYMin meet" x="561.5" y="-219.2"/>
<text text-anchor="start" x="585.5" y="-209.3" font-family="Helvetica,sans-Serif" font-size="11.00" fill="#000000">person_identifier</text>
<polygon fill="none" stroke="#000000" points="556.5,-180.2 556.5,-202.2 793.5,-202.2 793.5,-180.2 556.5,-180.2"/>
<image xlink:href="../../images/foreignKeys.png" width="11px" height="12px" preserveAspectRatio="xMinYMin meet" x="561.5" y="-197.2"/>
<text text-anchor="start" x="585.5" y="-187.3" font-family="Helvetica,sans-Serif" font-size="11.00" fill="#000000">reason_id</text>
<polygon fill="#ffffff" stroke="transparent" points="556.5,-158.2 556.5,-180.2 793.5,-180.2 793.5,-158.2 556.5,-158.2"/>
<polygon fill="none" stroke="#000000" points="556.5,-158.2 556.5,-180.2 793.5,-180.2 793.5,-158.2 556.5,-158.2"/>
<text text-anchor="start" x="585.5" y="-165.3" font-family="Helvetica,sans-Serif" font-size="11.00" fill="#000000">legacy_id</text>
<polygon fill="none" stroke="#000000" points="556.5,-139.2 556.5,-158.2 793.5,-158.2 793.5,-139.2 556.5,-139.2"/>
<text text-anchor="start" x="559.5" y="-145.3" font-family="Helvetica,sans-Serif" font-size="11.00" fill="#000000">...</text>
<polygon fill="#ffffff" stroke="transparent" points="556.5,-120.2 556.5,-139.2 673.5,-139.2 673.5,-120.2 556.5,-120.2"/>
<polygon fill="none" stroke="#000000" points="556.5,-120.2 556.5,-139.2 673.5,-139.2 673.5,-120.2 556.5,-120.2"/>
<text text-anchor="start" x="559.5" y="-126.3" font-family="Helvetica,sans-Serif" font-size="11.00" fill="#000000">&lt; 3</text>
<polygon fill="#ffffff" stroke="transparent" points="673.5,-120.2 673.5,-139.2 733.5,-139.2 733.5,-120.2 673.5,-120.2"/>
<polygon fill="none" stroke="#000000" points="673.5,-120.2 673.5,-139.2 733.5,-139.2 733.5,-120.2 673.5,-120.2"/>
<text text-anchor="start" x="724.3862" y="-126.3" font-family="Helvetica,sans-Serif" font-size="11.00" fill="#000000"> &#160;</text>
<polygon fill="#ffffff" stroke="transparent" points="733.5,-120.2 733.5,-139.2 793.5,-139.2 793.5,-120.2 733.5,-120.2"/>
<polygon fill="none" stroke="#000000" points="733.5,-120.2 733.5,-139.2 793.5,-139.2 793.5,-120.2 733.5,-120.2"/>
<text text-anchor="start" x="784.3862" y="-126.3" font-family="Helvetica,sans-Serif" font-size="11.00" fill="#000000"> &#160;</text>
</a>
</g>
</g>
<!-- court_appearance_movement&#45;&gt;court_appearance -->
<g id="edge2" class="edge">
<title>court_appearance_movement:w&#45;&gt;court_appearance:e</title>
<path fill="none" stroke="#000000" d="M542.6846,-239.3921C519.9325,-257.39 547.855,-327.2 507.5,-327.2"/>
<polygon fill="#000000" stroke="#000000" points="548.8447,-237.523 557.5453,-238.6449 552.6723,-236.3615 556.5,-235.2 556.5,-235.2 556.5,-235.2 552.6723,-236.3615 555.4547,-231.7551 548.8447,-237.523 548.8447,-237.523"/>
<ellipse fill="none" stroke="#000000" cx="545.7825" cy="-238.4521" rx="3.2" ry="3.2"/>
</g>
<!-- court_appearance_movement&#45;&gt;court_appearance_reason -->
<g id="edge3" class="edge">
<title>court_appearance_movement:w&#45;&gt;court_appearance_reason:e</title>
<path fill="none" stroke="#000000" d="M542.3977,-187.0076C525.9893,-173.4732 542.9033,-130.8592 515,-114.2 448.2188,-74.3295 408.2808,-76.9559 340,-114.2 309.3712,-130.9066 332.3889,-180.2 297.5,-180.2"/>
<polygon fill="#000000" stroke="#000000" points="548.8317,-188.9203 555.4741,-194.6507 552.6658,-190.0601 556.5,-191.2 556.5,-191.2 556.5,-191.2 552.6658,-190.0601 557.5259,-187.7493 548.8317,-188.9203 548.8317,-188.9203"/>
<ellipse fill="none" stroke="#000000" cx="545.7644" cy="-188.0084" rx="3.2" ry="3.2"/>
</g>
</g>
</svg>
