<?xml version="1.0" encoding="UTF-8" standalone="no"?>
<!DOCTYPE svg PUBLIC "-//W3C//DTD SVG 1.1//EN"
 "http://www.w3.org/Graphics/SVG/1.1/DTD/svg11.dtd">
<!-- Generated by graphviz version 2.40.1 (20161225.0304)
 -->
<!-- Title: oneDegreeRelationshipsDiagramImplied Pages: 1 -->
<svg width="520pt" height="271pt"
 viewBox="0.00 0.00 520.00 270.70" xmlns="http://www.w3.org/2000/svg" xmlns:xlink="http://www.w3.org/1999/xlink">
<g id="graph0" class="graph" transform="scale(1 1) rotate(0) translate(4 266.7)">
<title>oneDegreeRelationshipsDiagramImplied</title>
<polygon fill="#ffffff" stroke="transparent" points="-4,4 -4,-266.7 516,-266.7 516,4 -4,4"/>
<text text-anchor="middle" x="72.4936" y="-7.3" font-family="Helvetica,sans-Serif" font-size="11.00" fill="#000000">Generated by SchemaSpy</text>
<!-- court_appearance -->
<g id="node1" class="node">
<title>court_appearance</title>
<g id="a_node1"><a xlink:href="../../tables/court_appearance.html" xlink:title="court_appearance" target="_top">
<polygon fill="#ffffff" stroke="transparent" points="345,-43.7 345,-258.7 504,-258.7 504,-43.7 345,-43.7"/>
<polygon fill="#f5f5f5" stroke="transparent" points="345.5,-235.2 345.5,-258.2 504.5,-258.2 504.5,-235.2 345.5,-235.2"/>
<polygon fill="none" stroke="#000000" points="345.5,-235.2 345.5,-258.2 504.5,-258.2 504.5,-235.2 345.5,-235.2"/>
<text text-anchor="start" x="350.5" y="-243.8" font-family="Helvetica,sans-Serif" font-weight="bold" font-size="11.00" fill="#000000">court_appearance</text>
<text text-anchor="start" x="470.0219" y="-243.3" font-family="Helvetica,sans-Serif" font-size="11.00" fill="#000000">[table]</text>
<polygon fill="none" stroke="#000000" points="345.5,-213.2 345.5,-235.2 504.5,-235.2 504.5,-213.2 345.5,-213.2"/>
<image xlink:href="../../images/primaryKeys.png" width="11px" height="12px" preserveAspectRatio="xMinYMin meet" x="350.5" y="-230.2"/>
<text text-anchor="start" x="374.5" y="-220.3" font-family="Helvetica,sans-Serif" font-size="11.00" fill="#000000">id</text>
<polygon fill="#ffffff" stroke="transparent" points="345.5,-191.2 345.5,-213.2 504.5,-213.2 504.5,-191.2 345.5,-191.2"/>
<polygon fill="none" stroke="#000000" points="345.5,-191.2 345.5,-213.2 504.5,-213.2 504.5,-191.2 345.5,-191.2"/>
<image xlink:href="../../images/foreignKeys.png" width="11px" height="12px" preserveAspectRatio="xMinYMin meet" x="350.5" y="-208.2"/>
<text text-anchor="start" x="374.5" y="-198.3" font-family="Helvetica,sans-Serif" font-size="11.00" fill="#000000">person_identifier</text>
<polygon fill="#ffffff" stroke="transparent" points="345.5,-169.2 345.5,-191.2 504.5,-191.2 504.5,-169.2 345.5,-169.2"/>
<polygon fill="none" stroke="#000000" points="345.5,-169.2 345.5,-191.2 504.5,-191.2 504.5,-169.2 345.5,-169.2"/>
<text text-anchor="start" x="374.5" y="-176.3" font-family="Helvetica,sans-Serif" font-size="11.00" fill="#000000">prison_code</text>
<polygon fill="#ffffff" stroke="transparent" points="345.5,-147.2 345.5,-169.2 504.5,-169.2 504.5,-147.2 345.5,-147.2"/>
<polygon fill="none" stroke="#000000" points="345.5,-147.2 345.5,-169.2 504.5,-169.2 504.5,-147.2 345.5,-147.2"/>
<image xlink:href="../../images/foreignKeys.png" width="11px" height="12px" preserveAspectRatio="xMinYMin meet" x="350.5" y="-164.2"/>
<text text-anchor="start" x="374.5" y="-154.3" font-family="Helvetica,sans-Serif" font-size="11.00" fill="#000000">reason_id</text>
<polygon fill="#ffffff" stroke="transparent" points="345.5,-125.2 345.5,-147.2 504.5,-147.2 504.5,-125.2 345.5,-125.2"/>
<polygon fill="none" stroke="#000000" points="345.5,-125.2 345.5,-147.2 504.5,-147.2 504.5,-125.2 345.5,-125.2"/>
<image xlink:href="../../images/foreignKeys.png" width="11px" height="12px" preserveAspectRatio="xMinYMin meet" x="350.5" y="-142.2"/>
<text text-anchor="start" x="374.5" y="-132.3" font-family="Helvetica,sans-Serif" font-size="11.00" fill="#000000">status_id</text>
<polygon fill="#ffffff" stroke="transparent" points="345.5,-103.2 345.5,-125.2 504.5,-125.2 504.5,-103.2 345.5,-103.2"/>
<polygon fill="none" stroke="#000000" points="345.5,-103.2 345.5,-125.2 504.5,-125.2 504.5,-103.2 345.5,-103.2"/>
<text text-anchor="start" x="374.5" y="-110.3" font-family="Helvetica,sans-Serif" font-size="11.00" fill="#000000">start</text>
<polygon fill="#ffffff" stroke="transparent" points="345.5,-81.2 345.5,-103.2 504.5,-103.2 504.5,-81.2 345.5,-81.2"/>
<polygon fill="none" stroke="#000000" points="345.5,-81.2 345.5,-103.2 504.5,-103.2 504.5,-81.2 345.5,-81.2"/>
<image xlink:href="../../images/foreignKeys.png" width="11px" height="12px" preserveAspectRatio="xMinYMin meet" x="350.5" y="-98.2"/>
<text text-anchor="start" x="374.5" y="-88.3" font-family="Helvetica,sans-Serif" font-size="11.00" fill="#000000">legacy_id</text>
<polygon fill="none" stroke="#000000" points="345.5,-62.2 345.5,-81.2 504.5,-81.2 504.5,-62.2 345.5,-62.2"/>
<text text-anchor="start" x="348.5" y="-68.3" font-family="Helvetica,sans-Serif" font-size="11.00" fill="#000000">...</text>
<polygon fill="#ffffff" stroke="transparent" points="345.5,-43.2 345.5,-62.2 418.5,-62.2 418.5,-43.2 345.5,-43.2"/>
<polygon fill="none" stroke="#000000" points="345.5,-43.2 345.5,-62.2 418.5,-62.2 418.5,-43.2 345.5,-43.2"/>
<text text-anchor="start" x="348.5" y="-49.3" font-family="Helvetica,sans-Serif" font-size="11.00" fill="#000000">&lt; 3</text>
<polygon fill="#ffffff" stroke="transparent" points="418.5,-43.2 418.5,-62.2 456.5,-62.2 456.5,-43.2 418.5,-43.2"/>
<polygon fill="none" stroke="#000000" points="418.5,-43.2 418.5,-62.2 456.5,-62.2 456.5,-43.2 418.5,-43.2"/>
<text text-anchor="start" x="447.3862" y="-49.3" font-family="Helvetica,sans-Serif" font-size="11.00" fill="#000000"> &#160;</text>
<polygon fill="#ffffff" stroke="transparent" points="456.5,-43.2 456.5,-62.2 504.5,-62.2 504.5,-43.2 456.5,-43.2"/>
<polygon fill="none" stroke="#000000" points="456.5,-43.2 456.5,-62.2 504.5,-62.2 504.5,-43.2 456.5,-43.2"/>
<text text-anchor="start" x="485.9053" y="-49.3" font-family="Helvetica,sans-Serif" font-size="11.00" fill="#000000">1 &gt;</text>
</a>
</g>
</g>
<!-- court_appearance_status -->
<g id="node2" class="node">
<title>court_appearance_status</title>
<g id="a_node2"><a xlink:href="../../tables/court_appearance_status.html" xlink:title="court_appearance_status" target="_top">
<polygon fill="#ffffff" stroke="transparent" points="8,-38.2 8,-172.2 296,-172.2 296,-38.2 8,-38.2"/>
<polygon fill="#f5f5f5" stroke="transparent" points="10,-147.2 10,-170.2 294,-170.2 294,-147.2 10,-147.2"/>
<polygon fill="none" stroke="#000000" points="10,-147.2 10,-170.2 294,-170.2 294,-147.2 10,-147.2"/>
<text text-anchor="start" x="15" y="-155.8" font-family="Helvetica,sans-Serif" font-weight="bold" font-size="11.00" fill="#000000">court_appearance_status</text>
<text text-anchor="start" x="259.0437" y="-155.3" font-family="Helvetica,sans-Serif" font-size="11.00" fill="#000000">[table]</text>
<polygon fill="none" stroke="#000000" points="10,-125.2 10,-147.2 200,-147.2 200,-125.2 10,-125.2"/>
<image xlink:href="../../images/primaryKeys.png" width="11px" height="12px" preserveAspectRatio="xMinYMin meet" x="15" y="-142.2"/>
<text text-anchor="start" x="30" y="-132.3" font-family="Helvetica,sans-Serif" font-size="11.00" fill="#000000">id</text>
<polygon fill="none" stroke="#000000" points="200,-125.2 200,-147.2 294,-147.2 294,-125.2 200,-125.2"/>
<text text-anchor="start" x="202.9758" y="-132.9" font-family="Helvetica,sans-Serif" font-size="11.00" fill="#000000">uuid[2147483647]</text>
<polygon fill="#ffffff" stroke="transparent" points="10,-103.2 10,-125.2 200,-125.2 200,-103.2 10,-103.2"/>
<polygon fill="none" stroke="#000000" points="10,-103.2 10,-125.2 200,-125.2 200,-103.2 10,-103.2"/>
<text text-anchor="start" x="30" y="-110.3" font-family="Helvetica,sans-Serif" font-size="11.00" fill="#000000">code</text>
<polygon fill="none" stroke="#000000" points="200,-103.2 200,-125.2 294,-125.2 294,-103.2 200,-103.2"/>
<text text-anchor="start" x="203" y="-110.9" font-family="Helvetica,sans-Serif" font-size="11.00" fill="#000000">varchar[16]</text>
<polygon fill="none" stroke="#000000" points="10,-81.2 10,-103.2 200,-103.2 200,-81.2 10,-81.2"/>
<text text-anchor="start" x="30" y="-88.3" font-family="Helvetica,sans-Serif" font-size="11.00" fill="#000000">description</text>
<polygon fill="none" stroke="#000000" points="200,-81.2 200,-103.2 294,-103.2 294,-81.2 200,-81.2"/>
<text text-anchor="start" x="203" y="-88.9" font-family="Helvetica,sans-Serif" font-size="11.00" fill="#000000">varchar[255]</text>
<polygon fill="#ffffff" stroke="transparent" points="10,-59.2 10,-81.2 200,-81.2 200,-59.2 10,-59.2"/>
<polygon fill="none" stroke="#000000" points="10,-59.2 10,-81.2 200,-81.2 200,-59.2 10,-59.2"/>
<text text-anchor="start" x="30" y="-66.3" font-family="Helvetica,sans-Serif" font-size="11.00" fill="#000000">sequence_number</text>
<polygon fill="none" stroke="#000000" points="200,-59.2 200,-81.2 294,-81.2 294,-59.2 200,-59.2"/>
<text text-anchor="start" x="203" y="-66.9" font-family="Helvetica,sans-Serif" font-size="11.00" fill="#000000">int4[10]</text>
<polygon fill="#ffffff" stroke="transparent" points="10,-40.2 10,-59.2 109,-59.2 109,-40.2 10,-40.2"/>
<polygon fill="none" stroke="#000000" points="10,-40.2 10,-59.2 109,-59.2 109,-40.2 10,-40.2"/>
<text text-anchor="start" x="13" y="-46.3" font-family="Helvetica,sans-Serif" font-size="11.00" fill="#000000">&lt; 0</text>
<polygon fill="#ffffff" stroke="transparent" points="109,-40.2 109,-59.2 200,-59.2 200,-40.2 109,-40.2"/>
<polygon fill="none" stroke="#000000" points="109,-40.2 109,-59.2 200,-59.2 200,-40.2 109,-40.2"/>
<text text-anchor="start" x="190.8862" y="-46.3" font-family="Helvetica,sans-Serif" font-size="11.00" fill="#000000"> &#160;</text>
<polygon fill="#ffffff" stroke="transparent" points="200,-40.2 200,-59.2 294,-59.2 294,-40.2 200,-40.2"/>
<polygon fill="none" stroke="#000000" points="200,-40.2 200,-59.2 294,-59.2 294,-40.2 200,-40.2"/>
<text text-anchor="start" x="275.4053" y="-46.3" font-family="Helvetica,sans-Serif" font-size="11.00" fill="#000000">1 &gt;</text>
<polygon fill="none" stroke="#000000" stroke-width="2" points="9,-39.2 9,-171.2 295,-171.2 295,-39.2 9,-39.2"/>
</a>
</g>
</g>
<!-- court_appearance&#45;&gt;court_appearance_status -->
<g id="edge1" class="edge">
<title>court_appearance:w&#45;&gt;court_appearance_status:e</title>
<path fill="none" stroke="#000000" d="M331.0156,-136.2C318.6771,-136.2 311.1667,-136.2 294,-136.2"/>
<polygon fill="#000000" stroke="#000000" points="337.5,-136.2001 345.5,-139.8 341.5,-136.2 345.5,-136.2 345.5,-136.2 345.5,-136.2 341.5,-136.2 345.5,-132.6 337.5,-136.2001 337.5,-136.2001"/>
<ellipse fill="none" stroke="#000000" cx="334.3" cy="-136.2001" rx="3.2" ry="3.2"/>
</g>
</g>
</svg>
