<?xml version="1.0" encoding="UTF-8" standalone="no"?>
<!DOCTYPE svg PUBLIC "-//W3C//DTD SVG 1.1//EN"
 "http://www.w3.org/Graphics/SVG/1.1/DTD/svg11.dtd">
<!-- Generated by graphviz version 2.40.1 (20161225.0304)
 -->
<!-- Title: twoDegreesRelationshipsDiagramImplied Pages: 1 -->
<svg width="809pt" height="475pt"
 viewBox="0.00 0.00 809.00 475.20" xmlns="http://www.w3.org/2000/svg" xmlns:xlink="http://www.w3.org/1999/xlink">
<g id="graph0" class="graph" transform="scale(1 1) rotate(0) translate(4 471.2)">
<title>twoDegreesRelationshipsDiagramImplied</title>
<polygon fill="#ffffff" stroke="transparent" points="-4,4 -4,-471.2 805,-471.2 805,4 -4,4"/>
<text text-anchor="middle" x="72.4936" y="-7.3" font-family="Helvetica,sans-Serif" font-size="11.00" fill="#000000">Generated by SchemaSpy</text>
<!-- court_appearance -->
<g id="node1" class="node">
<title>court_appearance</title>
<g id="a_node1"><a xlink:href="../../tables/court_appearance.html" xlink:title="court_appearance" target="_top">
<polygon fill="#ffffff" stroke="transparent" points="348,-190.2 348,-405.2 507,-405.2 507,-190.2 348,-190.2"/>
<polygon fill="#f5f5f5" stroke="transparent" points="348.5,-381.7 348.5,-404.7 507.5,-404.7 507.5,-381.7 348.5,-381.7"/>
<polygon fill="none" stroke="#000000" points="348.5,-381.7 348.5,-404.7 507.5,-404.7 507.5,-381.7 348.5,-381.7"/>
<text text-anchor="start" x="353.5" y="-390.3" font-family="Helvetica,sans-Serif" font-weight="bold" font-size="11.00" fill="#000000">court_appearance</text>
<text text-anchor="start" x="473.0219" y="-389.8" font-family="Helvetica,sans-Serif" font-size="11.00" fill="#000000">[table]</text>
<polygon fill="none" stroke="#000000" points="348.5,-359.7 348.5,-381.7 507.5,-381.7 507.5,-359.7 348.5,-359.7"/>
<image xlink:href="../../images/primaryKeys.png" width="11px" height="12px" preserveAspectRatio="xMinYMin meet" x="353.5" y="-376.7"/>
<text text-anchor="start" x="377.5" y="-366.8" font-family="Helvetica,sans-Serif" font-size="11.00" fill="#000000">id</text>
<polygon fill="#ffffff" stroke="transparent" points="348.5,-337.7 348.5,-359.7 507.5,-359.7 507.5,-337.7 348.5,-337.7"/>
<polygon fill="none" stroke="#000000" points="348.5,-337.7 348.5,-359.7 507.5,-359.7 507.5,-337.7 348.5,-337.7"/>
<image xlink:href="../../images/foreignKeys.png" width="11px" height="12px" preserveAspectRatio="xMinYMin meet" x="353.5" y="-354.7"/>
<text text-anchor="start" x="377.5" y="-344.8" font-family="Helvetica,sans-Serif" font-size="11.00" fill="#000000">person_identifier</text>
<polygon fill="#ffffff" stroke="transparent" points="348.5,-315.7 348.5,-337.7 507.5,-337.7 507.5,-315.7 348.5,-315.7"/>
<polygon fill="none" stroke="#000000" points="348.5,-315.7 348.5,-337.7 507.5,-337.7 507.5,-315.7 348.5,-315.7"/>
<text text-anchor="start" x="377.5" y="-322.8" font-family="Helvetica,sans-Serif" font-size="11.00" fill="#000000">prison_code</text>
<polygon fill="#ffffff" stroke="transparent" points="348.5,-293.7 348.5,-315.7 507.5,-315.7 507.5,-293.7 348.5,-293.7"/>
<polygon fill="none" stroke="#000000" points="348.5,-293.7 348.5,-315.7 507.5,-315.7 507.5,-293.7 348.5,-293.7"/>
<image xlink:href="../../images/foreignKeys.png" width="11px" height="12px" preserveAspectRatio="xMinYMin meet" x="353.5" y="-310.7"/>
<text text-anchor="start" x="377.5" y="-300.8" font-family="Helvetica,sans-Serif" font-size="11.00" fill="#000000">reason_id</text>
<polygon fill="#ffffff" stroke="transparent" points="348.5,-271.7 348.5,-293.7 507.5,-293.7 507.5,-271.7 348.5,-271.7"/>
<polygon fill="none" stroke="#000000" points="348.5,-271.7 348.5,-293.7 507.5,-293.7 507.5,-271.7 348.5,-271.7"/>
<image xlink:href="../../images/foreignKeys.png" width="11px" height="12px" preserveAspectRatio="xMinYMin meet" x="353.5" y="-288.7"/>
<text text-anchor="start" x="377.5" y="-278.8" font-family="Helvetica,sans-Serif" font-size="11.00" fill="#000000">status_id</text>
<polygon fill="#ffffff" stroke="transparent" points="348.5,-249.7 348.5,-271.7 507.5,-271.7 507.5,-249.7 348.5,-249.7"/>
<polygon fill="none" stroke="#000000" points="348.5,-249.7 348.5,-271.7 507.5,-271.7 507.5,-249.7 348.5,-249.7"/>
<text text-anchor="start" x="377.5" y="-256.8" font-family="Helvetica,sans-Serif" font-size="11.00" fill="#000000">start</text>
<polygon fill="#ffffff" stroke="transparent" points="348.5,-227.7 348.5,-249.7 507.5,-249.7 507.5,-227.7 348.5,-227.7"/>
<polygon fill="none" stroke="#000000" points="348.5,-227.7 348.5,-249.7 507.5,-249.7 507.5,-227.7 348.5,-227.7"/>
<image xlink:href="../../images/foreignKeys.png" width="11px" height="12px" preserveAspectRatio="xMinYMin meet" x="353.5" y="-244.7"/>
<text text-anchor="start" x="377.5" y="-234.8" font-family="Helvetica,sans-Serif" font-size="11.00" fill="#000000">legacy_id</text>
<polygon fill="none" stroke="#000000" points="348.5,-208.7 348.5,-227.7 507.5,-227.7 507.5,-208.7 348.5,-208.7"/>
<text text-anchor="start" x="351.5" y="-214.8" font-family="Helvetica,sans-Serif" font-size="11.00" fill="#000000">...</text>
<polygon fill="#ffffff" stroke="transparent" points="348.5,-189.7 348.5,-208.7 421.5,-208.7 421.5,-189.7 348.5,-189.7"/>
<polygon fill="none" stroke="#000000" points="348.5,-189.7 348.5,-208.7 421.5,-208.7 421.5,-189.7 348.5,-189.7"/>
<text text-anchor="start" x="351.5" y="-195.8" font-family="Helvetica,sans-Serif" font-size="11.00" fill="#000000">&lt; 4</text>
<polygon fill="#ffffff" stroke="transparent" points="421.5,-189.7 421.5,-208.7 459.5,-208.7 459.5,-189.7 421.5,-189.7"/>
<polygon fill="none" stroke="#000000" points="421.5,-189.7 421.5,-208.7 459.5,-208.7 459.5,-189.7 421.5,-189.7"/>
<text text-anchor="start" x="450.3862" y="-195.8" font-family="Helvetica,sans-Serif" font-size="11.00" fill="#000000"> &#160;</text>
<polygon fill="#ffffff" stroke="transparent" points="459.5,-189.7 459.5,-208.7 507.5,-208.7 507.5,-189.7 459.5,-189.7"/>
<polygon fill="none" stroke="#000000" points="459.5,-189.7 459.5,-208.7 507.5,-208.7 507.5,-189.7 459.5,-189.7"/>
<text text-anchor="start" x="488.9053" y="-195.8" font-family="Helvetica,sans-Serif" font-size="11.00" fill="#000000">1 &gt;</text>
</a>
</g>
</g>
<!-- audit_revision -->
<g id="node2" class="node">
<title>audit_revision</title>
<g id="a_node2"><a xlink:href="../../tables/audit_revision.html" xlink:title="audit_revision" target="_top">
<polygon fill="#ffffff" stroke="transparent" points="86.5,-38.2 86.5,-99.2 220.5,-99.2 220.5,-38.2 86.5,-38.2"/>
<polygon fill="#f5f5f5" stroke="transparent" points="86.5,-75.7 86.5,-98.7 220.5,-98.7 220.5,-75.7 86.5,-75.7"/>
<polygon fill="none" stroke="#000000" points="86.5,-75.7 86.5,-98.7 220.5,-98.7 220.5,-75.7 86.5,-75.7"/>
<text text-anchor="start" x="91.5" y="-84.3" font-family="Helvetica,sans-Serif" font-weight="bold" font-size="11.00" fill="#000000">audit_revision</text>
<text text-anchor="start" x="186.0219" y="-83.8" font-family="Helvetica,sans-Serif" font-size="11.00" fill="#000000">[table]</text>
<polygon fill="none" stroke="#000000" points="86.5,-56.7 86.5,-75.7 220.5,-75.7 220.5,-56.7 86.5,-56.7"/>
<text text-anchor="start" x="89.5" y="-62.8" font-family="Helvetica,sans-Serif" font-size="11.00" fill="#000000">...</text>
<polygon fill="#ffffff" stroke="transparent" points="86.5,-37.7 86.5,-56.7 142.5,-56.7 142.5,-37.7 86.5,-37.7"/>
<polygon fill="none" stroke="#000000" points="86.5,-37.7 86.5,-56.7 142.5,-56.7 142.5,-37.7 86.5,-37.7"/>
<text text-anchor="start" x="89.5" y="-43.8" font-family="Helvetica,sans-Serif" font-size="11.00" fill="#000000"> &#160;</text>
<polygon fill="#ffffff" stroke="transparent" points="142.5,-37.7 142.5,-56.7 176.5,-56.7 176.5,-37.7 142.5,-37.7"/>
<polygon fill="none" stroke="#000000" points="142.5,-37.7 142.5,-56.7 176.5,-56.7 176.5,-37.7 142.5,-37.7"/>
<text text-anchor="start" x="167.3862" y="-43.8" font-family="Helvetica,sans-Serif" font-size="11.00" fill="#000000"> &#160;</text>
<polygon fill="#ffffff" stroke="transparent" points="176.5,-37.7 176.5,-56.7 220.5,-56.7 220.5,-37.7 176.5,-37.7"/>
<polygon fill="none" stroke="#000000" points="176.5,-37.7 176.5,-56.7 220.5,-56.7 220.5,-37.7 176.5,-37.7"/>
<text text-anchor="start" x="201.9053" y="-43.8" font-family="Helvetica,sans-Serif" font-size="11.00" fill="#000000">4 &gt;</text>
</a>
</g>
</g>
<!-- court_appearance&#45;&gt;audit_revision -->
<g id="edge1" class="edge">
<title>court_appearance:w&#45;&gt;audit_revision:e</title>
<path fill="none" stroke="#000000" stroke-dasharray="5,2" d="M338,-237.6351C295.521,-227.82 343.4692,-152.4966 307,-109.7 279.0244,-76.8707 263.6323,-65.7 220.5,-65.7"/>
<polygon fill="#000000" stroke="#000000" points="348.1077,-234.6397 347.3005,-242.5989 345.7086,-242.4374 346.5159,-234.4782 348.1077,-234.6397"/>
<polyline fill="none" stroke="#000000" points="348.5,-238.7 344.5204,-238.2964 "/>
<ellipse fill="none" stroke="#000000" cx="341.3367" cy="-237.9735" rx="3.2" ry="3.2"/>
</g>
<!-- person_summary -->
<g id="node3" class="node">
<title>person_summary</title>
<g id="a_node3"><a xlink:href="../../tables/person_summary.html" xlink:title="person_summary" target="_top">
<polygon fill="#ffffff" stroke="transparent" points="76.5,-402.2 76.5,-463.2 230.5,-463.2 230.5,-402.2 76.5,-402.2"/>
<polygon fill="#f5f5f5" stroke="transparent" points="76.5,-439.7 76.5,-462.7 230.5,-462.7 230.5,-439.7 76.5,-439.7"/>
<polygon fill="none" stroke="#000000" points="76.5,-439.7 76.5,-462.7 230.5,-462.7 230.5,-439.7 76.5,-439.7"/>
<text text-anchor="start" x="81.5" y="-448.3" font-family="Helvetica,sans-Serif" font-weight="bold" font-size="11.00" fill="#000000">person_summary</text>
<text text-anchor="start" x="196.0219" y="-447.8" font-family="Helvetica,sans-Serif" font-size="11.00" fill="#000000">[table]</text>
<polygon fill="none" stroke="#000000" points="76.5,-420.7 76.5,-439.7 230.5,-439.7 230.5,-420.7 76.5,-420.7"/>
<text text-anchor="start" x="79.5" y="-426.8" font-family="Helvetica,sans-Serif" font-size="11.00" fill="#000000">...</text>
<polygon fill="#ffffff" stroke="transparent" points="76.5,-401.7 76.5,-420.7 142.5,-420.7 142.5,-401.7 76.5,-401.7"/>
<polygon fill="none" stroke="#000000" points="76.5,-401.7 76.5,-420.7 142.5,-420.7 142.5,-401.7 76.5,-401.7"/>
<text text-anchor="start" x="79.5" y="-407.8" font-family="Helvetica,sans-Serif" font-size="11.00" fill="#000000"> &#160;</text>
<polygon fill="#ffffff" stroke="transparent" points="142.5,-401.7 142.5,-420.7 181.5,-420.7 181.5,-401.7 142.5,-401.7"/>
<polygon fill="none" stroke="#000000" points="142.5,-401.7 142.5,-420.7 181.5,-420.7 181.5,-401.7 142.5,-401.7"/>
<text text-anchor="start" x="172.3862" y="-407.8" font-family="Helvetica,sans-Serif" font-size="11.00" fill="#000000"> &#160;</text>
<polygon fill="#ffffff" stroke="transparent" points="181.5,-401.7 181.5,-420.7 230.5,-420.7 230.5,-401.7 181.5,-401.7"/>
<polygon fill="none" stroke="#000000" points="181.5,-401.7 181.5,-420.7 230.5,-420.7 230.5,-401.7 181.5,-401.7"/>
<text text-anchor="start" x="211.9053" y="-407.8" font-family="Helvetica,sans-Serif" font-size="11.00" fill="#000000">2 &gt;</text>
</a>
</g>
</g>
<!-- court_appearance&#45;&gt;person_summary -->
<g id="edge2" class="edge">
<title>court_appearance:w&#45;&gt;person_summary:e</title>
<path fill="none" stroke="#000000" d="M334.4863,-352.699C323.448,-360.8624 323.4062,-379.6855 307,-391.7 276.3712,-414.1301 268.4636,-429.7 230.5,-429.7"/>
<polygon fill="#000000" stroke="#000000" points="340.8071,-350.8953 349.4879,-352.1618 344.6535,-349.7977 348.5,-348.7 348.5,-348.7 348.5,-348.7 344.6535,-349.7977 347.5121,-345.2382 340.8071,-350.8953 340.8071,-350.8953"/>
<ellipse fill="none" stroke="#000000" cx="337.7299" cy="-351.7735" rx="3.2" ry="3.2"/>
</g>
<!-- court_appearance_reason -->
<g id="node4" class="node">
<title>court_appearance_reason</title>
<g id="a_node4"><a xlink:href="../../tables/court_appearance_reason.html" xlink:title="court_appearance_reason" target="_top">
<polygon fill="#ffffff" stroke="transparent" points="8,-202.7 8,-380.7 299,-380.7 299,-202.7 8,-202.7"/>
<polygon fill="#f5f5f5" stroke="transparent" points="10.5,-355.7 10.5,-378.7 297.5,-378.7 297.5,-355.7 10.5,-355.7"/>
<polygon fill="none" stroke="#000000" points="10.5,-355.7 10.5,-378.7 297.5,-378.7 297.5,-355.7 10.5,-355.7"/>
<text text-anchor="start" x="15.5" y="-364.3" font-family="Helvetica,sans-Serif" font-weight="bold" font-size="11.00" fill="#000000">court_appearance_reason</text>
<text text-anchor="start" x="262.5437" y="-363.8" font-family="Helvetica,sans-Serif" font-size="11.00" fill="#000000">[table]</text>
<polygon fill="none" stroke="#000000" points="10.5,-333.7 10.5,-355.7 203.5,-355.7 203.5,-333.7 10.5,-333.7"/>
<image xlink:href="../../images/primaryKeys.png" width="11px" height="12px" preserveAspectRatio="xMinYMin meet" x="15.5" y="-350.7"/>
<text text-anchor="start" x="30.5" y="-340.8" font-family="Helvetica,sans-Serif" font-size="11.00" fill="#000000">id</text>
<polygon fill="none" stroke="#000000" points="203.5,-333.7 203.5,-355.7 297.5,-355.7 297.5,-333.7 203.5,-333.7"/>
<text text-anchor="start" x="206.4758" y="-341.4" font-family="Helvetica,sans-Serif" font-size="11.00" fill="#000000">uuid[2147483647]</text>
<polygon fill="#ffffff" stroke="transparent" points="10.5,-311.7 10.5,-333.7 203.5,-333.7 203.5,-311.7 10.5,-311.7"/>
<polygon fill="none" stroke="#000000" points="10.5,-311.7 10.5,-333.7 203.5,-333.7 203.5,-311.7 10.5,-311.7"/>
<text text-anchor="start" x="30.5" y="-318.8" font-family="Helvetica,sans-Serif" font-size="11.00" fill="#000000">code</text>
<polygon fill="none" stroke="#000000" points="203.5,-311.7 203.5,-333.7 297.5,-333.7 297.5,-311.7 203.5,-311.7"/>
<text text-anchor="start" x="206.5" y="-319.4" font-family="Helvetica,sans-Serif" font-size="11.00" fill="#000000">varchar[16]</text>
<polygon fill="none" stroke="#000000" points="10.5,-289.7 10.5,-311.7 203.5,-311.7 203.5,-289.7 10.5,-289.7"/>
<text text-anchor="start" x="30.5" y="-296.8" font-family="Helvetica,sans-Serif" font-size="11.00" fill="#000000">description</text>
<polygon fill="none" stroke="#000000" points="203.5,-289.7 203.5,-311.7 297.5,-311.7 297.5,-289.7 203.5,-289.7"/>
<text text-anchor="start" x="206.5" y="-297.4" font-family="Helvetica,sans-Serif" font-size="11.00" fill="#000000">varchar[255]</text>
<polygon fill="#ffffff" stroke="transparent" points="10.5,-267.7 10.5,-289.7 203.5,-289.7 203.5,-267.7 10.5,-267.7"/>
<polygon fill="none" stroke="#000000" points="10.5,-267.7 10.5,-289.7 203.5,-289.7 203.5,-267.7 10.5,-267.7"/>
<text text-anchor="start" x="30.5" y="-274.8" font-family="Helvetica,sans-Serif" font-size="11.00" fill="#000000">sequence_number</text>
<polygon fill="none" stroke="#000000" points="203.5,-267.7 203.5,-289.7 297.5,-289.7 297.5,-267.7 203.5,-267.7"/>
<text text-anchor="start" x="206.5" y="-275.4" font-family="Helvetica,sans-Serif" font-size="11.00" fill="#000000">int4[10]</text>
<polygon fill="none" stroke="#000000" points="10.5,-245.7 10.5,-267.7 203.5,-267.7 203.5,-245.7 10.5,-245.7"/>
<text text-anchor="start" x="30.5" y="-252.8" font-family="Helvetica,sans-Serif" font-size="11.00" fill="#000000">active</text>
<polygon fill="none" stroke="#000000" points="203.5,-245.7 203.5,-267.7 297.5,-267.7 297.5,-245.7 203.5,-245.7"/>
<text text-anchor="start" x="206.5" y="-253.4" font-family="Helvetica,sans-Serif" font-size="11.00" fill="#000000">bool[1]</text>
<polygon fill="none" stroke="#000000" points="10.5,-223.7 10.5,-245.7 203.5,-245.7 203.5,-223.7 10.5,-223.7"/>
<text text-anchor="start" x="30.5" y="-230.8" font-family="Helvetica,sans-Serif" font-size="11.00" fill="#000000">external</text>
<polygon fill="none" stroke="#000000" points="203.5,-223.7 203.5,-245.7 297.5,-245.7 297.5,-223.7 203.5,-223.7"/>
<text text-anchor="start" x="206.5" y="-231.4" font-family="Helvetica,sans-Serif" font-size="11.00" fill="#000000">bool[1]</text>
<polygon fill="#ffffff" stroke="transparent" points="10.5,-204.7 10.5,-223.7 111.5,-223.7 111.5,-204.7 10.5,-204.7"/>
<polygon fill="none" stroke="#000000" points="10.5,-204.7 10.5,-223.7 111.5,-223.7 111.5,-204.7 10.5,-204.7"/>
<text text-anchor="start" x="13.5" y="-210.8" font-family="Helvetica,sans-Serif" font-size="11.00" fill="#000000">&lt; 0</text>
<polygon fill="#ffffff" stroke="transparent" points="111.5,-204.7 111.5,-223.7 203.5,-223.7 203.5,-204.7 111.5,-204.7"/>
<polygon fill="none" stroke="#000000" points="111.5,-204.7 111.5,-223.7 203.5,-223.7 203.5,-204.7 111.5,-204.7"/>
<text text-anchor="start" x="194.3862" y="-210.8" font-family="Helvetica,sans-Serif" font-size="11.00" fill="#000000"> &#160;</text>
<polygon fill="#ffffff" stroke="transparent" points="203.5,-204.7 203.5,-223.7 297.5,-223.7 297.5,-204.7 203.5,-204.7"/>
<polygon fill="none" stroke="#000000" points="203.5,-204.7 203.5,-223.7 297.5,-223.7 297.5,-204.7 203.5,-204.7"/>
<text text-anchor="start" x="278.9053" y="-210.8" font-family="Helvetica,sans-Serif" font-size="11.00" fill="#000000">1 &gt;</text>
<polygon fill="none" stroke="#000000" stroke-width="2" points="9,-203.7 9,-379.7 298,-379.7 298,-203.7 9,-203.7"/>
</a>
</g>
</g>
<!-- court_appearance&#45;&gt;court_appearance_reason -->
<g id="edge3" class="edge">
<title>court_appearance:w&#45;&gt;court_appearance_reason:e</title>
<path fill="none" stroke="#000000" d="M334.7365,-308.9807C320.9186,-319.2996 320.4554,-344.7 297.5,-344.7"/>
<polygon fill="#000000" stroke="#000000" points="340.8609,-307.0759 349.5692,-308.1376 344.6805,-305.888 348.5,-304.7 348.5,-304.7 348.5,-304.7 344.6805,-305.888 347.4308,-301.2624 340.8609,-307.0759 340.8609,-307.0759"/>
<ellipse fill="none" stroke="#000000" cx="337.8053" cy="-308.0263" rx="3.2" ry="3.2"/>
</g>
<!-- court_appearance_status -->
<g id="node5" class="node">
<title>court_appearance_status</title>
<g id="a_node5"><a xlink:href="../../tables/court_appearance_status.html" xlink:title="court_appearance_status" target="_top">
<polygon fill="#ffffff" stroke="transparent" points="49.5,-120.2 49.5,-181.2 257.5,-181.2 257.5,-120.2 49.5,-120.2"/>
<polygon fill="#f5f5f5" stroke="transparent" points="49.5,-157.7 49.5,-180.7 257.5,-180.7 257.5,-157.7 49.5,-157.7"/>
<polygon fill="none" stroke="#000000" points="49.5,-157.7 49.5,-180.7 257.5,-180.7 257.5,-157.7 49.5,-157.7"/>
<text text-anchor="start" x="54.5" y="-166.3" font-family="Helvetica,sans-Serif" font-weight="bold" font-size="11.00" fill="#000000">court_appearance_status</text>
<text text-anchor="start" x="223.0219" y="-165.8" font-family="Helvetica,sans-Serif" font-size="11.00" fill="#000000">[table]</text>
<polygon fill="none" stroke="#000000" points="49.5,-138.7 49.5,-157.7 257.5,-157.7 257.5,-138.7 49.5,-138.7"/>
<text text-anchor="start" x="52.5" y="-144.8" font-family="Helvetica,sans-Serif" font-size="11.00" fill="#000000">...</text>
<polygon fill="#ffffff" stroke="transparent" points="49.5,-119.7 49.5,-138.7 142.5,-138.7 142.5,-119.7 49.5,-119.7"/>
<polygon fill="none" stroke="#000000" points="49.5,-119.7 49.5,-138.7 142.5,-138.7 142.5,-119.7 49.5,-119.7"/>
<text text-anchor="start" x="52.5" y="-125.8" font-family="Helvetica,sans-Serif" font-size="11.00" fill="#000000"> &#160;</text>
<polygon fill="#ffffff" stroke="transparent" points="142.5,-119.7 142.5,-138.7 195.5,-138.7 195.5,-119.7 142.5,-119.7"/>
<polygon fill="none" stroke="#000000" points="142.5,-119.7 142.5,-138.7 195.5,-138.7 195.5,-119.7 142.5,-119.7"/>
<text text-anchor="start" x="186.3862" y="-125.8" font-family="Helvetica,sans-Serif" font-size="11.00" fill="#000000"> &#160;</text>
<polygon fill="#ffffff" stroke="transparent" points="195.5,-119.7 195.5,-138.7 257.5,-138.7 257.5,-119.7 195.5,-119.7"/>
<polygon fill="none" stroke="#000000" points="195.5,-119.7 195.5,-138.7 257.5,-138.7 257.5,-119.7 195.5,-119.7"/>
<text text-anchor="start" x="238.9053" y="-125.8" font-family="Helvetica,sans-Serif" font-size="11.00" fill="#000000">1 &gt;</text>
</a>
</g>
</g>
<!-- court_appearance&#45;&gt;court_appearance_status -->
<g id="edge4" class="edge">
<title>court_appearance:w&#45;&gt;court_appearance_status:e</title>
<path fill="none" stroke="#000000" d="M334.0756,-279.7933C311.033,-267.9595 329.794,-222.571 307,-191.7 289.5159,-168.0204 286.935,-147.7 257.5,-147.7"/>
<polygon fill="#000000" stroke="#000000" points="340.6576,-281.1196 347.7888,-286.2291 344.5788,-281.9098 348.5,-282.7 348.5,-282.7 348.5,-282.7 344.5788,-281.9098 349.2112,-279.1709 340.6576,-281.1196 340.6576,-281.1196"/>
<ellipse fill="none" stroke="#000000" cx="337.5207" cy="-280.4875" rx="3.2" ry="3.2"/>
</g>
<!-- court_appearance_movement -->
<g id="node6" class="node">
<title>court_appearance_movement</title>
<g id="a_node6"><a xlink:href="../../tables/court_appearance_movement.html" xlink:title="court_appearance_movement" target="_top">
<polygon fill="#ffffff" stroke="transparent" points="556,-372.2 556,-433.2 793,-433.2 793,-372.2 556,-372.2"/>
<polygon fill="#f5f5f5" stroke="transparent" points="556.5,-409.7 556.5,-432.7 793.5,-432.7 793.5,-409.7 556.5,-409.7"/>
<polygon fill="none" stroke="#000000" points="556.5,-409.7 556.5,-432.7 793.5,-432.7 793.5,-409.7 556.5,-409.7"/>
<text text-anchor="start" x="561.5" y="-418.3" font-family="Helvetica,sans-Serif" font-weight="bold" font-size="11.00" fill="#000000">court_appearance_movement</text>
<text text-anchor="start" x="759.0219" y="-417.8" font-family="Helvetica,sans-Serif" font-size="11.00" fill="#000000">[table]</text>
<polygon fill="none" stroke="#000000" points="556.5,-390.7 556.5,-409.7 793.5,-409.7 793.5,-390.7 556.5,-390.7"/>
<text text-anchor="start" x="559.5" y="-396.8" font-family="Helvetica,sans-Serif" font-size="11.00" fill="#000000">...</text>
<polygon fill="#ffffff" stroke="transparent" points="556.5,-371.7 556.5,-390.7 673.5,-390.7 673.5,-371.7 556.5,-371.7"/>
<polygon fill="none" stroke="#000000" points="556.5,-371.7 556.5,-390.7 673.5,-390.7 673.5,-371.7 556.5,-371.7"/>
<text text-anchor="start" x="559.5" y="-377.8" font-family="Helvetica,sans-Serif" font-size="11.00" fill="#000000">&lt; 2</text>
<polygon fill="#ffffff" stroke="transparent" points="673.5,-371.7 673.5,-390.7 733.5,-390.7 733.5,-371.7 673.5,-371.7"/>
<polygon fill="none" stroke="#000000" points="673.5,-371.7 673.5,-390.7 733.5,-390.7 733.5,-371.7 673.5,-371.7"/>
<text text-anchor="start" x="724.3862" y="-377.8" font-family="Helvetica,sans-Serif" font-size="11.00" fill="#000000"> &#160;</text>
<polygon fill="#ffffff" stroke="transparent" points="733.5,-371.7 733.5,-390.7 793.5,-390.7 793.5,-371.7 733.5,-371.7"/>
<polygon fill="none" stroke="#000000" points="733.5,-371.7 733.5,-390.7 793.5,-390.7 793.5,-371.7 733.5,-371.7"/>
<text text-anchor="start" x="784.3862" y="-377.8" font-family="Helvetica,sans-Serif" font-size="11.00" fill="#000000"> &#160;</text>
</a>
</g>
</g>
<!-- court_appearance_movement&#45;&gt;court_appearance -->
<g id="edge5" class="edge">
<title>court_appearance_movement:w&#45;&gt;court_appearance:e</title>
<path fill="none" stroke="#000000" d="M542.4495,-395.6677C530.471,-387.6993 526.8749,-370.7 507.5,-370.7"/>
<polygon fill="#000000" stroke="#000000" points="548.8104,-397.4931 555.5069,-403.1603 552.6552,-398.5966 556.5,-399.7 556.5,-399.7 556.5,-399.7 552.6552,-398.5966 557.4931,-396.2397 548.8104,-397.4931 548.8104,-397.4931"/>
<ellipse fill="none" stroke="#000000" cx="545.7346" cy="-396.6104" rx="3.2" ry="3.2"/>
</g>
<!-- court_appearance_movement&#45;&gt;person_summary -->
<g id="edge6" class="edge">
<title>court_appearance_movement:w&#45;&gt;person_summary:e</title>
<path fill="none" stroke="#000000" d="M542.2992,-402.4583C533.7008,-406.2303 528.4469,-412.8539 515,-415.7 391.1463,-441.9141 357.0974,-429.7 230.5,-429.7"/>
<polygon fill="#000000" stroke="#000000" points="548.6468,-401.2254 557.1864,-403.234 552.5734,-400.4627 556.5,-399.7 556.5,-399.7 556.5,-399.7 552.5734,-400.4627 555.8136,-396.166 548.6468,-401.2254 548.6468,-401.2254"/>
<ellipse fill="none" stroke="#000000" cx="545.5055" cy="-401.8356" rx="3.2" ry="3.2"/>
</g>
</g>
</svg>
