<?xml version="1.0" encoding="UTF-8" standalone="no"?>
<!DOCTYPE svg PUBLIC "-//W3C//DTD SVG 1.1//EN"
 "http://www.w3.org/Graphics/SVG/1.1/DTD/svg11.dtd">
<!-- Generated by graphviz version 2.40.1 (20161225.0304)
 -->
<!-- Title: twoDegreesRelationshipsDiagramImplied Pages: 1 -->
<svg width="848pt" height="627pt"
 viewBox="0.00 0.00 848.00 626.73" xmlns="http://www.w3.org/2000/svg" xmlns:xlink="http://www.w3.org/1999/xlink">
<g id="graph0" class="graph" transform="scale(1 1) rotate(0) translate(4 622.7262)">
<title>twoDegreesRelationshipsDiagramImplied</title>
<polygon fill="#ffffff" stroke="transparent" points="-4,4 -4,-622.7262 844,-622.7262 844,4 -4,4"/>
<text text-anchor="middle" x="72.4936" y="-7.3" font-family="Helvetica,sans-Serif" font-size="11.00" fill="#000000">Generated by SchemaSpy</text>
<!-- court_appearance -->
<g id="node1" class="node">
<title>court_appearance</title>
<g id="a_node1"><a xlink:href="../../tables/court_appearance.html" xlink:title="court_appearance" target="_top">
<polygon fill="#ffffff" stroke="transparent" points="284,-91.2262 284,-423.2262 530,-423.2262 530,-91.2262 284,-91.2262"/>
<polygon fill="#f5f5f5" stroke="transparent" points="286,-398.2262 286,-421.2262 528,-421.2262 528,-398.2262 286,-398.2262"/>
<polygon fill="none" stroke="#000000" points="286,-398.2262 286,-421.2262 528,-421.2262 528,-398.2262 286,-398.2262"/>
<text text-anchor="start" x="291" y="-406.8262" font-family="Helvetica,sans-Serif" font-weight="bold" font-size="11.00" fill="#000000">court_appearance</text>
<text text-anchor="start" x="493.0437" y="-406.3262" font-family="Helvetica,sans-Serif" font-size="11.00" fill="#000000">[table]</text>
<polygon fill="none" stroke="#000000" points="286,-376.2262 286,-398.2262 434,-398.2262 434,-376.2262 286,-376.2262"/>
<image xlink:href="../../images/primaryKeys.png" width="11px" height="12px" preserveAspectRatio="xMinYMin meet" x="291" y="-393.226"/>
<text text-anchor="start" x="306" y="-383.3262" font-family="Helvetica,sans-Serif" font-size="11.00" fill="#000000">id</text>
<polygon fill="none" stroke="#000000" points="434,-376.2262 434,-398.2262 528,-398.2262 528,-376.2262 434,-376.2262"/>
<text text-anchor="start" x="436.9758" y="-383.9262" font-family="Helvetica,sans-Serif" font-size="11.00" fill="#000000">uuid[2147483647]</text>
<polygon fill="none" stroke="#000000" points="286,-354.2262 286,-376.2262 434,-376.2262 434,-354.2262 286,-354.2262"/>
<text text-anchor="start" x="306" y="-361.3262" font-family="Helvetica,sans-Serif" font-size="11.00" fill="#000000">version</text>
<polygon fill="none" stroke="#000000" points="434,-354.2262 434,-376.2262 528,-376.2262 528,-354.2262 434,-354.2262"/>
<text text-anchor="start" x="437" y="-361.9262" font-family="Helvetica,sans-Serif" font-size="11.00" fill="#000000">int4[10]</text>
<polygon fill="#ffffff" stroke="transparent" points="286,-332.2262 286,-354.2262 434,-354.2262 434,-332.2262 286,-332.2262"/>
<polygon fill="none" stroke="#000000" points="286,-332.2262 286,-354.2262 434,-354.2262 434,-332.2262 286,-332.2262"/>
<image xlink:href="../../images/foreignKeys.png" width="11px" height="12px" preserveAspectRatio="xMinYMin meet" x="291" y="-349.226"/>
<text text-anchor="start" x="306" y="-339.3262" font-family="Helvetica,sans-Serif" font-size="11.00" fill="#000000">person_identifier</text>
<polygon fill="none" stroke="#000000" points="434,-332.2262 434,-354.2262 528,-354.2262 528,-332.2262 434,-332.2262"/>
<text text-anchor="start" x="437" y="-339.9262" font-family="Helvetica,sans-Serif" font-size="11.00" fill="#000000">varchar[10]</text>
<polygon fill="#ffffff" stroke="transparent" points="286,-310.2262 286,-332.2262 434,-332.2262 434,-310.2262 286,-310.2262"/>
<polygon fill="none" stroke="#000000" points="286,-310.2262 286,-332.2262 434,-332.2262 434,-310.2262 286,-310.2262"/>
<text text-anchor="start" x="306" y="-317.3262" font-family="Helvetica,sans-Serif" font-size="11.00" fill="#000000">prison_code</text>
<polygon fill="none" stroke="#000000" points="434,-310.2262 434,-332.2262 528,-332.2262 528,-310.2262 434,-310.2262"/>
<text text-anchor="start" x="437" y="-317.9262" font-family="Helvetica,sans-Serif" font-size="11.00" fill="#000000">varchar[6]</text>
<polygon fill="none" stroke="#000000" points="286,-288.2262 286,-310.2262 434,-310.2262 434,-288.2262 286,-288.2262"/>
<text text-anchor="start" x="306" y="-295.3262" font-family="Helvetica,sans-Serif" font-size="11.00" fill="#000000">court_code</text>
<polygon fill="none" stroke="#000000" points="434,-288.2262 434,-310.2262 528,-310.2262 528,-288.2262 434,-288.2262"/>
<text text-anchor="start" x="437" y="-295.9262" font-family="Helvetica,sans-Serif" font-size="11.00" fill="#000000">varchar[6]</text>
<polygon fill="#ffffff" stroke="transparent" points="286,-266.2262 286,-288.2262 434,-288.2262 434,-266.2262 286,-266.2262"/>
<polygon fill="none" stroke="#000000" points="286,-266.2262 286,-288.2262 434,-288.2262 434,-266.2262 286,-266.2262"/>
<image xlink:href="../../images/foreignKeys.png" width="11px" height="12px" preserveAspectRatio="xMinYMin meet" x="291" y="-283.226"/>
<text text-anchor="start" x="306" y="-273.3262" font-family="Helvetica,sans-Serif" font-size="11.00" fill="#000000">reason_id</text>
<polygon fill="none" stroke="#000000" points="434,-266.2262 434,-288.2262 528,-288.2262 528,-266.2262 434,-266.2262"/>
<text text-anchor="start" x="436.9758" y="-273.9262" font-family="Helvetica,sans-Serif" font-size="11.00" fill="#000000">uuid[2147483647]</text>
<polygon fill="none" stroke="#000000" points="286,-244.2262 286,-266.2262 434,-266.2262 434,-244.2262 286,-244.2262"/>
<text text-anchor="start" x="306" y="-251.3262" font-family="Helvetica,sans-Serif" font-size="11.00" fill="#000000">external</text>
<polygon fill="none" stroke="#000000" points="434,-244.2262 434,-266.2262 528,-266.2262 528,-244.2262 434,-244.2262"/>
<text text-anchor="start" x="437" y="-251.9262" font-family="Helvetica,sans-Serif" font-size="11.00" fill="#000000">bool[1]</text>
<polygon fill="#ffffff" stroke="transparent" points="286,-222.2262 286,-244.2262 434,-244.2262 434,-222.2262 286,-222.2262"/>
<polygon fill="none" stroke="#000000" points="286,-222.2262 286,-244.2262 434,-244.2262 434,-222.2262 286,-222.2262"/>
<image xlink:href="../../images/foreignKeys.png" width="11px" height="12px" preserveAspectRatio="xMinYMin meet" x="291" y="-239.226"/>
<text text-anchor="start" x="306" y="-229.3262" font-family="Helvetica,sans-Serif" font-size="11.00" fill="#000000">status_id</text>
<polygon fill="none" stroke="#000000" points="434,-222.2262 434,-244.2262 528,-244.2262 528,-222.2262 434,-222.2262"/>
<text text-anchor="start" x="436.9758" y="-229.9262" font-family="Helvetica,sans-Serif" font-size="11.00" fill="#000000">uuid[2147483647]</text>
<polygon fill="#ffffff" stroke="transparent" points="286,-200.2262 286,-222.2262 434,-222.2262 434,-200.2262 286,-200.2262"/>
<polygon fill="none" stroke="#000000" points="286,-200.2262 286,-222.2262 434,-222.2262 434,-200.2262 286,-200.2262"/>
<text text-anchor="start" x="306" y="-207.3262" font-family="Helvetica,sans-Serif" font-size="11.00" fill="#000000">start</text>
<polygon fill="none" stroke="#000000" points="434,-200.2262 434,-222.2262 528,-222.2262 528,-200.2262 434,-200.2262"/>
<text text-anchor="start" x="437" y="-207.9262" font-family="Helvetica,sans-Serif" font-size="11.00" fill="#000000">timestamp[29,6]</text>
<polygon fill="none" stroke="#000000" points="286,-178.2262 286,-200.2262 434,-200.2262 434,-178.2262 286,-178.2262"/>
<text text-anchor="start" x="306" y="-185.3262" font-family="Helvetica,sans-Serif" font-size="11.00" fill="#000000">end</text>
<polygon fill="none" stroke="#000000" points="434,-178.2262 434,-200.2262 528,-200.2262 528,-178.2262 434,-178.2262"/>
<text text-anchor="start" x="437" y="-185.9262" font-family="Helvetica,sans-Serif" font-size="11.00" fill="#000000">timestamp[29,6]</text>
<polygon fill="none" stroke="#000000" points="286,-156.2262 286,-178.2262 434,-178.2262 434,-156.2262 286,-156.2262"/>
<text text-anchor="start" x="306" y="-163.3262" font-family="Helvetica,sans-Serif" font-size="11.00" fill="#000000">comments</text>
<polygon fill="none" stroke="#000000" points="434,-156.2262 434,-178.2262 528,-178.2262 528,-156.2262 434,-156.2262"/>
<text text-anchor="start" x="437" y="-163.9262" font-family="Helvetica,sans-Serif" font-size="11.00" fill="#000000">text[2147483647]</text>
<polygon fill="#ffffff" stroke="transparent" points="286,-134.2262 286,-156.2262 434,-156.2262 434,-134.2262 286,-134.2262"/>
<polygon fill="none" stroke="#000000" points="286,-134.2262 286,-156.2262 434,-156.2262 434,-134.2262 286,-134.2262"/>
<image xlink:href="../../images/foreignKeys.png" width="11px" height="12px" preserveAspectRatio="xMinYMin meet" x="291" y="-151.226"/>
<text text-anchor="start" x="306" y="-141.3262" font-family="Helvetica,sans-Serif" font-size="11.00" fill="#000000">legacy_id</text>
<polygon fill="none" stroke="#000000" points="434,-134.2262 434,-156.2262 528,-156.2262 528,-134.2262 434,-134.2262"/>
<text text-anchor="start" x="437" y="-141.9262" font-family="Helvetica,sans-Serif" font-size="11.00" fill="#000000">int8[19]</text>
<polygon fill="#ffffff" stroke="transparent" points="286,-112.2262 286,-134.2262 434,-134.2262 434,-112.2262 286,-112.2262"/>
<polygon fill="none" stroke="#000000" points="286,-112.2262 286,-134.2262 434,-134.2262 434,-112.2262 286,-112.2262"/>
<text text-anchor="start" x="306" y="-119.3262" font-family="Helvetica,sans-Serif" font-size="11.00" fill="#000000">external_reference</text>
<polygon fill="none" stroke="#000000" points="434,-112.2262 434,-134.2262 528,-134.2262 528,-112.2262 434,-112.2262"/>
<text text-anchor="start" x="437" y="-119.9262" font-family="Helvetica,sans-Serif" font-size="11.00" fill="#000000">text[2147483647]</text>
<polygon fill="#ffffff" stroke="transparent" points="286,-93.2262 286,-112.2262 364,-112.2262 364,-93.2262 286,-93.2262"/>
<polygon fill="none" stroke="#000000" points="286,-93.2262 286,-112.2262 364,-112.2262 364,-93.2262 286,-93.2262"/>
<text text-anchor="start" x="289" y="-99.3262" font-family="Helvetica,sans-Serif" font-size="11.00" fill="#000000">&lt; 4</text>
<polygon fill="#ffffff" stroke="transparent" points="364,-93.2262 364,-112.2262 434,-112.2262 434,-93.2262 364,-93.2262"/>
<polygon fill="none" stroke="#000000" points="364,-93.2262 364,-112.2262 434,-112.2262 434,-93.2262 364,-93.2262"/>
<text text-anchor="start" x="424.8862" y="-99.3262" font-family="Helvetica,sans-Serif" font-size="11.00" fill="#000000"> &#160;</text>
<polygon fill="#ffffff" stroke="transparent" points="434,-93.2262 434,-112.2262 528,-112.2262 528,-93.2262 434,-93.2262"/>
<polygon fill="none" stroke="#000000" points="434,-93.2262 434,-112.2262 528,-112.2262 528,-93.2262 434,-93.2262"/>
<text text-anchor="start" x="509.4053" y="-99.3262" font-family="Helvetica,sans-Serif" font-size="11.00" fill="#000000">1 &gt;</text>
<polygon fill="none" stroke="#000000" stroke-width="2" points="285,-92.2262 285,-422.2262 529,-422.2262 529,-92.2262 285,-92.2262"/>
</a>
</g>
</g>
<!-- audit_revision -->
<g id="node2" class="node">
<title>audit_revision</title>
<g id="a_node2"><a xlink:href="../../tables/audit_revision.html" xlink:title="audit_revision" target="_top">
<polygon fill="#ffffff" stroke="transparent" points="46.5,-523.7262 46.5,-606.7262 180.5,-606.7262 180.5,-523.7262 46.5,-523.7262"/>
<polygon fill="#f5f5f5" stroke="transparent" points="46.5,-583.2262 46.5,-606.2262 180.5,-606.2262 180.5,-583.2262 46.5,-583.2262"/>
<polygon fill="none" stroke="#000000" points="46.5,-583.2262 46.5,-606.2262 180.5,-606.2262 180.5,-583.2262 46.5,-583.2262"/>
<text text-anchor="start" x="51.5" y="-591.8262" font-family="Helvetica,sans-Serif" font-weight="bold" font-size="11.00" fill="#000000">audit_revision</text>
<text text-anchor="start" x="146.0219" y="-591.3262" font-family="Helvetica,sans-Serif" font-size="11.00" fill="#000000">[table]</text>
<polygon fill="none" stroke="#000000" points="46.5,-561.2262 46.5,-583.2262 180.5,-583.2262 180.5,-561.2262 46.5,-561.2262"/>
<image xlink:href="../../images/primaryKeys.png" width="11px" height="12px" preserveAspectRatio="xMinYMin meet" x="51.5" y="-578.226"/>
<text text-anchor="start" x="66.5" y="-568.3262" font-family="Helvetica,sans-Serif" font-size="11.00" fill="#000000">id</text>
<polygon fill="none" stroke="#000000" points="46.5,-542.2262 46.5,-561.2262 180.5,-561.2262 180.5,-542.2262 46.5,-542.2262"/>
<text text-anchor="start" x="49.5" y="-548.3262" font-family="Helvetica,sans-Serif" font-size="11.00" fill="#000000">...</text>
<polygon fill="#ffffff" stroke="transparent" points="46.5,-523.2262 46.5,-542.2262 102.5,-542.2262 102.5,-523.2262 46.5,-523.2262"/>
<polygon fill="none" stroke="#000000" points="46.5,-523.2262 46.5,-542.2262 102.5,-542.2262 102.5,-523.2262 46.5,-523.2262"/>
<text text-anchor="start" x="49.5" y="-529.3262" font-family="Helvetica,sans-Serif" font-size="11.00" fill="#000000"> &#160;</text>
<polygon fill="#ffffff" stroke="transparent" points="102.5,-523.2262 102.5,-542.2262 136.5,-542.2262 136.5,-523.2262 102.5,-523.2262"/>
<polygon fill="none" stroke="#000000" points="102.5,-523.2262 102.5,-542.2262 136.5,-542.2262 136.5,-523.2262 102.5,-523.2262"/>
<text text-anchor="start" x="127.3862" y="-529.3262" font-family="Helvetica,sans-Serif" font-size="11.00" fill="#000000"> &#160;</text>
<polygon fill="#ffffff" stroke="transparent" points="136.5,-523.2262 136.5,-542.2262 180.5,-542.2262 180.5,-523.2262 136.5,-523.2262"/>
<polygon fill="none" stroke="#000000" points="136.5,-523.2262 136.5,-542.2262 180.5,-542.2262 180.5,-523.2262 136.5,-523.2262"/>
<text text-anchor="start" x="161.9053" y="-529.3262" font-family="Helvetica,sans-Serif" font-size="11.00" fill="#000000">4 &gt;</text>
</a>
</g>
</g>
<!-- court_appearance&#45;&gt;audit_revision -->
<g id="edge1" class="edge">
<title>court_appearance:w&#45;&gt;audit_revision:e</title>
<path fill="none" stroke="#000000" stroke-dasharray="5,2" d="M275.693,-147.0021C211.2206,-170.7413 253.4021,-425.6139 227,-496.2262 213.1317,-533.3169 220.0986,-572.2262 180.5,-572.2262"/>
<polygon fill="#000000" stroke="#000000" points="284.5324,-141.4201 285.8909,-149.3039 284.3141,-149.5756 282.9556,-141.6918 284.5324,-141.4201"/>
<polyline fill="none" stroke="#000000" points="286,-145.2262 282.0581,-145.9054 "/>
<ellipse fill="none" stroke="#000000" cx="278.9046" cy="-146.4488" rx="3.2" ry="3.2"/>
</g>
<!-- person_summary -->
<g id="node3" class="node">
<title>person_summary</title>
<g id="a_node3"><a xlink:href="../../tables/person_summary.html" xlink:title="person_summary" target="_top">
<polygon fill="#ffffff" stroke="transparent" points="36.5,-424.7262 36.5,-485.7262 190.5,-485.7262 190.5,-424.7262 36.5,-424.7262"/>
<polygon fill="#f5f5f5" stroke="transparent" points="36.5,-462.2262 36.5,-485.2262 190.5,-485.2262 190.5,-462.2262 36.5,-462.2262"/>
<polygon fill="none" stroke="#000000" points="36.5,-462.2262 36.5,-485.2262 190.5,-485.2262 190.5,-462.2262 36.5,-462.2262"/>
<text text-anchor="start" x="41.5" y="-470.8262" font-family="Helvetica,sans-Serif" font-weight="bold" font-size="11.00" fill="#000000">person_summary</text>
<text text-anchor="start" x="156.0219" y="-470.3262" font-family="Helvetica,sans-Serif" font-size="11.00" fill="#000000">[table]</text>
<polygon fill="none" stroke="#000000" points="36.5,-443.2262 36.5,-462.2262 190.5,-462.2262 190.5,-443.2262 36.5,-443.2262"/>
<text text-anchor="start" x="39.5" y="-449.3262" font-family="Helvetica,sans-Serif" font-size="11.00" fill="#000000">...</text>
<polygon fill="#ffffff" stroke="transparent" points="36.5,-424.2262 36.5,-443.2262 102.5,-443.2262 102.5,-424.2262 36.5,-424.2262"/>
<polygon fill="none" stroke="#000000" points="36.5,-424.2262 36.5,-443.2262 102.5,-443.2262 102.5,-424.2262 36.5,-424.2262"/>
<text text-anchor="start" x="39.5" y="-430.3262" font-family="Helvetica,sans-Serif" font-size="11.00" fill="#000000"> &#160;</text>
<polygon fill="#ffffff" stroke="transparent" points="102.5,-424.2262 102.5,-443.2262 141.5,-443.2262 141.5,-424.2262 102.5,-424.2262"/>
<polygon fill="none" stroke="#000000" points="102.5,-424.2262 102.5,-443.2262 141.5,-443.2262 141.5,-424.2262 102.5,-424.2262"/>
<text text-anchor="start" x="132.3862" y="-430.3262" font-family="Helvetica,sans-Serif" font-size="11.00" fill="#000000"> &#160;</text>
<polygon fill="#ffffff" stroke="transparent" points="141.5,-424.2262 141.5,-443.2262 190.5,-443.2262 190.5,-424.2262 141.5,-424.2262"/>
<polygon fill="none" stroke="#000000" points="141.5,-424.2262 141.5,-443.2262 190.5,-443.2262 190.5,-424.2262 141.5,-424.2262"/>
<text text-anchor="start" x="171.9053" y="-430.3262" font-family="Helvetica,sans-Serif" font-size="11.00" fill="#000000">4 &gt;</text>
</a>
</g>
</g>
<!-- court_appearance&#45;&gt;person_summary -->
<g id="edge2" class="edge">
<title>court_appearance:w&#45;&gt;person_summary:e</title>
<path fill="none" stroke="#000000" d="M271.5682,-344.136C219.4917,-350.6309 172.113,-390.5641 143.0896,-420.7086"/>
<polygon fill="#000000" stroke="#000000" points="278.0159,-343.7296 286.2265,-346.819 282.0079,-343.4779 286,-343.2262 286,-343.2262 286,-343.2262 282.0079,-343.4779 285.7735,-339.6333 278.0159,-343.7296 278.0159,-343.7296"/>
<ellipse fill="none" stroke="#000000" cx="274.8222" cy="-343.931" rx="3.2" ry="3.2"/>
</g>
<!-- court_appearance_reason -->
<g id="node4" class="node">
<title>court_appearance_reason</title>
<g id="a_node4"><a xlink:href="../../tables/court_appearance_reason.html" xlink:title="court_appearance_reason" target="_top">
<polygon fill="#ffffff" stroke="transparent" points="8,-47.7262 8,-108.7262 219,-108.7262 219,-47.7262 8,-47.7262"/>
<polygon fill="#f5f5f5" stroke="transparent" points="8.5,-85.2262 8.5,-108.2262 219.5,-108.2262 219.5,-85.2262 8.5,-85.2262"/>
<polygon fill="none" stroke="#000000" points="8.5,-85.2262 8.5,-108.2262 219.5,-108.2262 219.5,-85.2262 8.5,-85.2262"/>
<text text-anchor="start" x="13.5" y="-93.8262" font-family="Helvetica,sans-Serif" font-weight="bold" font-size="11.00" fill="#000000">court_appearance_reason</text>
<text text-anchor="start" x="185.0219" y="-93.3262" font-family="Helvetica,sans-Serif" font-size="11.00" fill="#000000">[table]</text>
<polygon fill="none" stroke="#000000" points="8.5,-66.2262 8.5,-85.2262 219.5,-85.2262 219.5,-66.2262 8.5,-66.2262"/>
<text text-anchor="start" x="11.5" y="-72.3262" font-family="Helvetica,sans-Serif" font-size="11.00" fill="#000000">...</text>
<polygon fill="#ffffff" stroke="transparent" points="8.5,-47.2262 8.5,-66.2262 103.5,-66.2262 103.5,-47.2262 8.5,-47.2262"/>
<polygon fill="none" stroke="#000000" points="8.5,-47.2262 8.5,-66.2262 103.5,-66.2262 103.5,-47.2262 8.5,-47.2262"/>
<text text-anchor="start" x="11.5" y="-53.3262" font-family="Helvetica,sans-Serif" font-size="11.00" fill="#000000"> &#160;</text>
<polygon fill="#ffffff" stroke="transparent" points="103.5,-47.2262 103.5,-66.2262 156.5,-66.2262 156.5,-47.2262 103.5,-47.2262"/>
<polygon fill="none" stroke="#000000" points="103.5,-47.2262 103.5,-66.2262 156.5,-66.2262 156.5,-47.2262 103.5,-47.2262"/>
<text text-anchor="start" x="147.3862" y="-53.3262" font-family="Helvetica,sans-Serif" font-size="11.00" fill="#000000"> &#160;</text>
<polygon fill="#ffffff" stroke="transparent" points="156.5,-47.2262 156.5,-66.2262 219.5,-66.2262 219.5,-47.2262 156.5,-47.2262"/>
<polygon fill="none" stroke="#000000" points="156.5,-47.2262 156.5,-66.2262 219.5,-66.2262 219.5,-47.2262 156.5,-47.2262"/>
<text text-anchor="start" x="200.9053" y="-53.3262" font-family="Helvetica,sans-Serif" font-size="11.00" fill="#000000">2 &gt;</text>
</a>
</g>
</g>
<!-- court_appearance&#45;&gt;court_appearance_reason -->
<g id="edge3" class="edge">
<title>court_appearance:w&#45;&gt;court_appearance_reason:e</title>
<path fill="none" stroke="#000000" d="M271.473,-275.451C224.5096,-262.1336 271.683,-177.1039 227,-130.2262 220.7939,-123.7152 213.6172,-117.9487 205.9477,-112.8564"/>
<polygon fill="#000000" stroke="#000000" points="278.0591,-276.2558 285.5633,-280.7996 282.0295,-276.741 286,-277.2262 286,-277.2262 286,-277.2262 282.0295,-276.741 286.4367,-273.6527 278.0591,-276.2558 278.0591,-276.2558"/>
<ellipse fill="none" stroke="#000000" cx="274.8827" cy="-275.8676" rx="3.2" ry="3.2"/>
</g>
<!-- court_appearance_status -->
<g id="node5" class="node">
<title>court_appearance_status</title>
<g id="a_node5"><a xlink:href="../../tables/court_appearance_status.html" xlink:title="court_appearance_status" target="_top">
<polygon fill="#ffffff" stroke="transparent" points="9.5,-140.7262 9.5,-267.7262 217.5,-267.7262 217.5,-140.7262 9.5,-140.7262"/>
<polygon fill="#f5f5f5" stroke="transparent" points="9.5,-244.2262 9.5,-267.2262 217.5,-267.2262 217.5,-244.2262 9.5,-244.2262"/>
<polygon fill="none" stroke="#000000" points="9.5,-244.2262 9.5,-267.2262 217.5,-267.2262 217.5,-244.2262 9.5,-244.2262"/>
<text text-anchor="start" x="14.5" y="-252.8262" font-family="Helvetica,sans-Serif" font-weight="bold" font-size="11.00" fill="#000000">court_appearance_status</text>
<text text-anchor="start" x="183.0219" y="-252.3262" font-family="Helvetica,sans-Serif" font-size="11.00" fill="#000000">[table]</text>
<polygon fill="none" stroke="#000000" points="9.5,-222.2262 9.5,-244.2262 217.5,-244.2262 217.5,-222.2262 9.5,-222.2262"/>
<image xlink:href="../../images/primaryKeys.png" width="11px" height="12px" preserveAspectRatio="xMinYMin meet" x="14.5" y="-239.226"/>
<text text-anchor="start" x="38.5" y="-229.3262" font-family="Helvetica,sans-Serif" font-size="11.00" fill="#000000">id</text>
<polygon fill="#ffffff" stroke="transparent" points="9.5,-200.2262 9.5,-222.2262 217.5,-222.2262 217.5,-200.2262 9.5,-200.2262"/>
<polygon fill="none" stroke="#000000" points="9.5,-200.2262 9.5,-222.2262 217.5,-222.2262 217.5,-200.2262 9.5,-200.2262"/>
<text text-anchor="start" x="38.5" y="-207.3262" font-family="Helvetica,sans-Serif" font-size="11.00" fill="#000000">code</text>
<polygon fill="#ffffff" stroke="transparent" points="9.5,-178.2262 9.5,-200.2262 217.5,-200.2262 217.5,-178.2262 9.5,-178.2262"/>
<polygon fill="none" stroke="#000000" points="9.5,-178.2262 9.5,-200.2262 217.5,-200.2262 217.5,-178.2262 9.5,-178.2262"/>
<text text-anchor="start" x="38.5" y="-185.3262" font-family="Helvetica,sans-Serif" font-size="11.00" fill="#000000">sequence_number</text>
<polygon fill="none" stroke="#000000" points="9.5,-159.2262 9.5,-178.2262 217.5,-178.2262 217.5,-159.2262 9.5,-159.2262"/>
<text text-anchor="start" x="12.5" y="-165.3262" font-family="Helvetica,sans-Serif" font-size="11.00" fill="#000000">...</text>
<polygon fill="#ffffff" stroke="transparent" points="9.5,-140.2262 9.5,-159.2262 102.5,-159.2262 102.5,-140.2262 9.5,-140.2262"/>
<polygon fill="none" stroke="#000000" points="9.5,-140.2262 9.5,-159.2262 102.5,-159.2262 102.5,-140.2262 9.5,-140.2262"/>
<text text-anchor="start" x="12.5" y="-146.3262" font-family="Helvetica,sans-Serif" font-size="11.00" fill="#000000"> &#160;</text>
<polygon fill="#ffffff" stroke="transparent" points="102.5,-140.2262 102.5,-159.2262 155.5,-159.2262 155.5,-140.2262 102.5,-140.2262"/>
<polygon fill="none" stroke="#000000" points="102.5,-140.2262 102.5,-159.2262 155.5,-159.2262 155.5,-140.2262 102.5,-140.2262"/>
<text text-anchor="start" x="146.3862" y="-146.3262" font-family="Helvetica,sans-Serif" font-size="11.00" fill="#000000"> &#160;</text>
<polygon fill="#ffffff" stroke="transparent" points="155.5,-140.2262 155.5,-159.2262 217.5,-159.2262 217.5,-140.2262 155.5,-140.2262"/>
<polygon fill="none" stroke="#000000" points="155.5,-140.2262 155.5,-159.2262 217.5,-159.2262 217.5,-140.2262 155.5,-140.2262"/>
<text text-anchor="start" x="198.9053" y="-146.3262" font-family="Helvetica,sans-Serif" font-size="11.00" fill="#000000">1 &gt;</text>
</a>
</g>
</g>
<!-- court_appearance&#45;&gt;court_appearance_status -->
<g id="edge4" class="edge">
<title>court_appearance:w&#45;&gt;court_appearance_status:e</title>
<path fill="none" stroke="#000000" d="M271.5353,-233.2262C252.0831,-233.2262 242.474,-233.2262 217.5,-233.2262"/>
<polygon fill="#000000" stroke="#000000" points="278,-233.2262 286,-236.8262 282,-233.2262 286,-233.2262 286,-233.2262 286,-233.2262 282,-233.2262 286,-229.6262 278,-233.2262 278,-233.2262"/>
<ellipse fill="none" stroke="#000000" cx="274.8" cy="-233.2262" rx="3.2" ry="3.2"/>
</g>
<!-- court_appearance_audit -->
<g id="node6" class="node">
<title>court_appearance_audit</title>
<g id="a_node6"><a xlink:href="../../tables/court_appearance_audit.html" xlink:title="court_appearance_audit" target="_top">
<polygon fill="#ffffff" stroke="transparent" points="307,-553.7262 307,-614.7262 507,-614.7262 507,-553.7262 307,-553.7262"/>
<polygon fill="#f5f5f5" stroke="transparent" points="307,-591.2262 307,-614.2262 507,-614.2262 507,-591.2262 307,-591.2262"/>
<polygon fill="none" stroke="#000000" points="307,-591.2262 307,-614.2262 507,-614.2262 507,-591.2262 307,-591.2262"/>
<text text-anchor="start" x="312" y="-599.8262" font-family="Helvetica,sans-Serif" font-weight="bold" font-size="11.00" fill="#000000">court_appearance_audit</text>
<text text-anchor="start" x="472.5219" y="-599.3262" font-family="Helvetica,sans-Serif" font-size="11.00" fill="#000000">[table]</text>
<polygon fill="none" stroke="#000000" points="307,-572.2262 307,-591.2262 507,-591.2262 507,-572.2262 307,-572.2262"/>
<text text-anchor="start" x="310" y="-578.3262" font-family="Helvetica,sans-Serif" font-size="11.00" fill="#000000">...</text>
<polygon fill="#ffffff" stroke="transparent" points="307,-553.2262 307,-572.2262 405,-572.2262 405,-553.2262 307,-553.2262"/>
<polygon fill="none" stroke="#000000" points="307,-553.2262 307,-572.2262 405,-572.2262 405,-553.2262 307,-553.2262"/>
<text text-anchor="start" x="310" y="-559.3262" font-family="Helvetica,sans-Serif" font-size="11.00" fill="#000000">&lt; 3</text>
<polygon fill="#ffffff" stroke="transparent" points="405,-553.2262 405,-572.2262 456,-572.2262 456,-553.2262 405,-553.2262"/>
<polygon fill="none" stroke="#000000" points="405,-553.2262 405,-572.2262 456,-572.2262 456,-553.2262 405,-553.2262"/>
<text text-anchor="start" x="446.8862" y="-559.3262" font-family="Helvetica,sans-Serif" font-size="11.00" fill="#000000"> &#160;</text>
<polygon fill="#ffffff" stroke="transparent" points="456,-553.2262 456,-572.2262 507,-572.2262 507,-553.2262 456,-553.2262"/>
<polygon fill="none" stroke="#000000" points="456,-553.2262 456,-572.2262 507,-572.2262 507,-553.2262 456,-553.2262"/>
<text text-anchor="start" x="497.8862" y="-559.3262" font-family="Helvetica,sans-Serif" font-size="11.00" fill="#000000"> &#160;</text>
</a>
</g>
</g>
<!-- court_appearance_audit&#45;&gt;audit_revision -->
<g id="edge5" class="edge">
<title>court_appearance_audit:w&#45;&gt;audit_revision:e</title>
<path fill="none" stroke="#000000" stroke-dasharray="5,2" d="M292.4886,-579.5119C247.7484,-573.7002 231.6903,-566.7769 180.5,-572.2262"/>
<polygon fill="#000000" stroke="#000000" points="299.0552,-580.2876 306.5776,-584.8013 303.0276,-580.7569 307,-581.2262 307,-581.2262 307,-581.2262 303.0276,-580.7569 307.4224,-577.651 299.0552,-580.2876 299.0552,-580.2876"/>
<ellipse fill="none" stroke="#000000" cx="295.8773" cy="-579.9121" rx="3.2" ry="3.2"/>
</g>
<!-- court_appearance_audit&#45;&gt;audit_revision -->
<g id="edge7" class="edge">
<title>court_appearance_audit:w&#45;&gt;audit_revision:e</title>
<path fill="none" stroke="#000000" d="M292.4886,-582.7633C247.7484,-586.5907 231.6903,-578.5836 180.5,-572.2262"/>
<polygon fill="#000000" stroke="#000000" points="299.0445,-582.0689 307.3792,-584.8061 303.0223,-581.6475 307,-581.2262 307,-581.2262 307,-581.2262 303.0223,-581.6475 306.6208,-577.6462 299.0445,-582.0689 299.0445,-582.0689"/>
<ellipse fill="none" stroke="#000000" cx="295.8623" cy="-582.406" rx="3.2" ry="3.2"/>
</g>
<!-- court_appearance_audit&#45;&gt;person_summary -->
<g id="edge6" class="edge">
<title>court_appearance_audit:w&#45;&gt;person_summary:e</title>
<path fill="none" stroke="#000000" stroke-dasharray="5,2" d="M292.5717,-579.609C260.9211,-571.715 260.8811,-536.6609 227,-513.2262 214.8974,-504.8551 201.4238,-496.9193 188.108,-489.7576"/>
<polygon fill="#000000" stroke="#000000" points="299.0498,-580.335 306.599,-584.8038 303.0249,-580.7806 307,-581.2262 307,-581.2262 307,-581.2262 303.0249,-580.7806 307.401,-577.6486 299.0498,-580.335 299.0498,-580.335"/>
<ellipse fill="none" stroke="#000000" cx="295.8697" cy="-579.9786" rx="3.2" ry="3.2"/>
</g>
<!-- court_appearance_movement -->
<g id="node7" class="node">
<title>court_appearance_movement</title>
<g id="a_node7"><a xlink:href="../../tables/court_appearance_movement.html" xlink:title="court_appearance_movement" target="_top">
<polygon fill="#ffffff" stroke="transparent" points="595,-356.7262 595,-417.7262 832,-417.7262 832,-356.7262 595,-356.7262"/>
<polygon fill="#f5f5f5" stroke="transparent" points="595.5,-394.2262 595.5,-417.2262 832.5,-417.2262 832.5,-394.2262 595.5,-394.2262"/>
<polygon fill="none" stroke="#000000" points="595.5,-394.2262 595.5,-417.2262 832.5,-417.2262 832.5,-394.2262 595.5,-394.2262"/>
<text text-anchor="start" x="600.5" y="-402.8262" font-family="Helvetica,sans-Serif" font-weight="bold" font-size="11.00" fill="#000000">court_appearance_movement</text>
<text text-anchor="start" x="798.0219" y="-402.3262" font-family="Helvetica,sans-Serif" font-size="11.00" fill="#000000">[table]</text>
<polygon fill="none" stroke="#000000" points="595.5,-375.2262 595.5,-394.2262 832.5,-394.2262 832.5,-375.2262 595.5,-375.2262"/>
<text text-anchor="start" x="598.5" y="-381.3262" font-family="Helvetica,sans-Serif" font-size="11.00" fill="#000000">...</text>
<polygon fill="#ffffff" stroke="transparent" points="595.5,-356.2262 595.5,-375.2262 712.5,-375.2262 712.5,-356.2262 595.5,-356.2262"/>
<polygon fill="none" stroke="#000000" points="595.5,-356.2262 595.5,-375.2262 712.5,-375.2262 712.5,-356.2262 595.5,-356.2262"/>
<text text-anchor="start" x="598.5" y="-362.3262" font-family="Helvetica,sans-Serif" font-size="11.00" fill="#000000">&lt; 3</text>
<polygon fill="#ffffff" stroke="transparent" points="712.5,-356.2262 712.5,-375.2262 772.5,-375.2262 772.5,-356.2262 712.5,-356.2262"/>
<polygon fill="none" stroke="#000000" points="712.5,-356.2262 712.5,-375.2262 772.5,-375.2262 772.5,-356.2262 712.5,-356.2262"/>
<text text-anchor="start" x="763.3862" y="-362.3262" font-family="Helvetica,sans-Serif" font-size="11.00" fill="#000000"> &#160;</text>
<polygon fill="#ffffff" stroke="transparent" points="772.5,-356.2262 772.5,-375.2262 832.5,-375.2262 832.5,-356.2262 772.5,-356.2262"/>
<polygon fill="none" stroke="#000000" points="772.5,-356.2262 772.5,-375.2262 832.5,-375.2262 832.5,-356.2262 772.5,-356.2262"/>
<text text-anchor="start" x="823.3862" y="-362.3262" font-family="Helvetica,sans-Serif" font-size="11.00" fill="#000000"> &#160;</text>
</a>
</g>
</g>
<!-- court_appearance_movement&#45;&gt;court_appearance -->
<g id="edge8" class="edge">
<title>court_appearance_movement:w&#45;&gt;court_appearance:e</title>
<path fill="none" stroke="#000000" d="M571.9607,-387.2262C557.1171,-387.2262 542.2507,-387.2262 528,-387.2262"/>
<polygon fill="#000000" stroke="#000000" points="578.7731,-387.2262 586.7731,-390.8262 582.7731,-387.2262 586.7731,-387.2262 586.7731,-387.2262 586.7731,-387.2262 582.7731,-387.2262 586.773,-383.6262 578.7731,-387.2262 578.7731,-387.2262"/>
<ellipse fill="none" stroke="#000000" cx="575.5731" cy="-387.2262" rx="3.2" ry="3.2"/>
</g>
<!-- court_appearance_movement&#45;&gt;person_summary -->
<g id="edge9" class="edge">
<title>court_appearance_movement:w&#45;&gt;person_summary:e</title>
<path fill="none" stroke="#000000" d="M591.8935,-425.4081C579.1891,-428.4608 566.3922,-431.1583 554,-433.2262 431.6467,-453.6427 287.7478,-457.0295 198.5686,-456.764"/>
<polygon fill="#000000" stroke="#000000" points="598.412,-423.7724 607.0476,-425.3169 602.2917,-422.7988 606.1714,-421.8252 606.1714,-421.8252 606.1714,-421.8252 602.2917,-422.7988 605.2951,-418.3334 598.412,-423.7724 598.412,-423.7724"/>
<ellipse fill="none" stroke="#000000" cx="595.3082" cy="-424.5513" rx="3.2" ry="3.2"/>
</g>
<!-- court_appearance_movement&#45;&gt;court_appearance_reason -->
<g id="edge10" class="edge">
<title>court_appearance_movement:w&#45;&gt;court_appearance_reason:e</title>
<path fill="none" stroke="#000000" d="M704.3756,-338.3399C688.1552,-267.0527 646.8495,-136.9087 554,-80.2262 456.0884,-20.4533 321.6833,-30.0401 227.1658,-48.2271"/>
<polygon fill="#000000" stroke="#000000" points="705.7726,-344.792 703.9471,-353.3727 706.6191,-348.7014 707.4656,-352.6108 707.4656,-352.6108 707.4656,-352.6108 706.6191,-348.7014 710.984,-351.849 705.7726,-344.792 705.7726,-344.792"/>
<ellipse fill="none" stroke="#000000" cx="705.0954" cy="-341.6645" rx="3.2" ry="3.2"/>
</g>
<!-- court_appearance_movement_audit -->
<g id="node8" class="node">
<title>court_appearance_movement_audit</title>
<g id="a_node8"><a xlink:href="../../tables/court_appearance_movement_audit.html" xlink:title="court_appearance_movement_audit" target="_top">
<polygon fill="#ffffff" stroke="transparent" points="268,-471.7262 268,-532.7262 546,-532.7262 546,-471.7262 268,-471.7262"/>
<polygon fill="#f5f5f5" stroke="transparent" points="268,-509.2262 268,-532.2262 546,-532.2262 546,-509.2262 268,-509.2262"/>
<polygon fill="none" stroke="#000000" points="268,-509.2262 268,-532.2262 546,-532.2262 546,-509.2262 268,-509.2262"/>
<text text-anchor="start" x="273" y="-517.8262" font-family="Helvetica,sans-Serif" font-weight="bold" font-size="11.00" fill="#000000">court_appearance_movement_audit</text>
<text text-anchor="start" x="511.5219" y="-517.3262" font-family="Helvetica,sans-Serif" font-size="11.00" fill="#000000">[table]</text>
<polygon fill="none" stroke="#000000" points="268,-490.2262 268,-509.2262 546,-509.2262 546,-490.2262 268,-490.2262"/>
<text text-anchor="start" x="271" y="-496.3262" font-family="Helvetica,sans-Serif" font-size="11.00" fill="#000000">...</text>
<polygon fill="#ffffff" stroke="transparent" points="268,-471.2262 268,-490.2262 405,-490.2262 405,-471.2262 268,-471.2262"/>
<polygon fill="none" stroke="#000000" points="268,-471.2262 268,-490.2262 405,-490.2262 405,-471.2262 268,-471.2262"/>
<text text-anchor="start" x="271" y="-477.3262" font-family="Helvetica,sans-Serif" font-size="11.00" fill="#000000">&lt; 2</text>
<polygon fill="#ffffff" stroke="transparent" points="405,-471.2262 405,-490.2262 475,-490.2262 475,-471.2262 405,-471.2262"/>
<polygon fill="none" stroke="#000000" points="405,-471.2262 405,-490.2262 475,-490.2262 475,-471.2262 405,-471.2262"/>
<text text-anchor="start" x="465.8862" y="-477.3262" font-family="Helvetica,sans-Serif" font-size="11.00" fill="#000000"> &#160;</text>
<polygon fill="#ffffff" stroke="transparent" points="475,-471.2262 475,-490.2262 546,-490.2262 546,-471.2262 475,-471.2262"/>
<polygon fill="none" stroke="#000000" points="475,-471.2262 475,-490.2262 546,-490.2262 546,-471.2262 475,-471.2262"/>
<text text-anchor="start" x="536.8862" y="-477.3262" font-family="Helvetica,sans-Serif" font-size="11.00" fill="#000000"> &#160;</text>
</a>
</g>
</g>
<!-- court_appearance_movement_audit&#45;&gt;audit_revision -->
<g id="edge12" class="edge">
<title>court_appearance_movement_audit:w&#45;&gt;audit_revision:e</title>
<path fill="none" stroke="#000000" d="M253.5258,-501.655C219.6003,-514.3216 225.6063,-572.2262 180.5,-572.2262"/>
<polygon fill="#000000" stroke="#000000" points="260.1103,-500.5501 268.5958,-502.7765 264.0552,-499.8881 268,-499.2262 268,-499.2262 268,-499.2262 264.0552,-499.8881 267.4042,-495.6758 260.1103,-500.5501 260.1103,-500.5501"/>
<ellipse fill="none" stroke="#000000" cx="256.9544" cy="-501.0797" rx="3.2" ry="3.2"/>
</g>
<!-- court_appearance_movement_audit&#45;&gt;person_summary -->
<g id="edge11" class="edge">
<title>court_appearance_movement_audit:w&#45;&gt;person_summary:e</title>
<path fill="none" stroke="#000000" stroke-dasharray="5,2" d="M253.3969,-498.6507C235.0612,-497.2495 216.3868,-493.4173 198.9046,-488.575"/>
<polygon fill="#000000" stroke="#000000" points="260.0062,-498.9111 267.8582,-502.8234 264.0031,-499.0686 268,-499.2262 268,-499.2262 268,-499.2262 264.0031,-499.0686 268.1418,-495.6289 260.0062,-498.9111 260.0062,-498.9111"/>
<ellipse fill="none" stroke="#000000" cx="256.8087" cy="-498.7851" rx="3.2" ry="3.2"/>
</g>
</g>
</svg>
