<?xml version="1.0" encoding="UTF-8" standalone="no"?>
<!DOCTYPE svg PUBLIC "-//W3C//DTD SVG 1.1//EN"
 "http://www.w3.org/Graphics/SVG/1.1/DTD/svg11.dtd">
<!-- Generated by graphviz version 2.40.1 (20161225.0304)
 -->
<!-- Title: oneDegreeRelationshipsDiagramImplied Pages: 1 -->
<svg width="523pt" height="293pt"
 viewBox="0.00 0.00 523.00 292.70" xmlns="http://www.w3.org/2000/svg" xmlns:xlink="http://www.w3.org/1999/xlink">
<g id="graph0" class="graph" transform="scale(1 1) rotate(0) translate(4 288.7)">
<title>oneDegreeRelationshipsDiagramImplied</title>
<polygon fill="#ffffff" stroke="transparent" points="-4,4 -4,-288.7 519,-288.7 519,4 -4,4"/>
<text text-anchor="middle" x="72.4936" y="-7.3" font-family="Helvetica,sans-Serif" font-size="11.00" fill="#000000">Generated by SchemaSpy</text>
<!-- court_appearance -->
<g id="node1" class="node">
<title>court_appearance</title>
<g id="a_node1"><a xlink:href="../../tables/court_appearance.html" xlink:title="court_appearance" target="_top">
<polygon fill="#ffffff" stroke="transparent" points="348,-65.7 348,-280.7 507,-280.7 507,-65.7 348,-65.7"/>
<polygon fill="#f5f5f5" stroke="transparent" points="348.5,-257.2 348.5,-280.2 507.5,-280.2 507.5,-257.2 348.5,-257.2"/>
<polygon fill="none" stroke="#000000" points="348.5,-257.2 348.5,-280.2 507.5,-280.2 507.5,-257.2 348.5,-257.2"/>
<text text-anchor="start" x="353.5" y="-265.8" font-family="Helvetica,sans-Serif" font-weight="bold" font-size="11.00" fill="#000000">court_appearance</text>
<text text-anchor="start" x="473.0219" y="-265.3" font-family="Helvetica,sans-Serif" font-size="11.00" fill="#000000">[table]</text>
<polygon fill="none" stroke="#000000" points="348.5,-235.2 348.5,-257.2 507.5,-257.2 507.5,-235.2 348.5,-235.2"/>
<image xlink:href="../../images/primaryKeys.png" width="11px" height="12px" preserveAspectRatio="xMinYMin meet" x="353.5" y="-252.2"/>
<text text-anchor="start" x="377.5" y="-242.3" font-family="Helvetica,sans-Serif" font-size="11.00" fill="#000000">id</text>
<polygon fill="#ffffff" stroke="transparent" points="348.5,-213.2 348.5,-235.2 507.5,-235.2 507.5,-213.2 348.5,-213.2"/>
<polygon fill="none" stroke="#000000" points="348.5,-213.2 348.5,-235.2 507.5,-235.2 507.5,-213.2 348.5,-213.2"/>
<image xlink:href="../../images/foreignKeys.png" width="11px" height="12px" preserveAspectRatio="xMinYMin meet" x="353.5" y="-230.2"/>
<text text-anchor="start" x="377.5" y="-220.3" font-family="Helvetica,sans-Serif" font-size="11.00" fill="#000000">person_identifier</text>
<polygon fill="#ffffff" stroke="transparent" points="348.5,-191.2 348.5,-213.2 507.5,-213.2 507.5,-191.2 348.5,-191.2"/>
<polygon fill="none" stroke="#000000" points="348.5,-191.2 348.5,-213.2 507.5,-213.2 507.5,-191.2 348.5,-191.2"/>
<text text-anchor="start" x="377.5" y="-198.3" font-family="Helvetica,sans-Serif" font-size="11.00" fill="#000000">prison_code</text>
<polygon fill="#ffffff" stroke="transparent" points="348.5,-169.2 348.5,-191.2 507.5,-191.2 507.5,-169.2 348.5,-169.2"/>
<polygon fill="none" stroke="#000000" points="348.5,-169.2 348.5,-191.2 507.5,-191.2 507.5,-169.2 348.5,-169.2"/>
<image xlink:href="../../images/foreignKeys.png" width="11px" height="12px" preserveAspectRatio="xMinYMin meet" x="353.5" y="-186.2"/>
<text text-anchor="start" x="377.5" y="-176.3" font-family="Helvetica,sans-Serif" font-size="11.00" fill="#000000">reason_id</text>
<polygon fill="#ffffff" stroke="transparent" points="348.5,-147.2 348.5,-169.2 507.5,-169.2 507.5,-147.2 348.5,-147.2"/>
<polygon fill="none" stroke="#000000" points="348.5,-147.2 348.5,-169.2 507.5,-169.2 507.5,-147.2 348.5,-147.2"/>
<image xlink:href="../../images/foreignKeys.png" width="11px" height="12px" preserveAspectRatio="xMinYMin meet" x="353.5" y="-164.2"/>
<text text-anchor="start" x="377.5" y="-154.3" font-family="Helvetica,sans-Serif" font-size="11.00" fill="#000000">status_id</text>
<polygon fill="#ffffff" stroke="transparent" points="348.5,-125.2 348.5,-147.2 507.5,-147.2 507.5,-125.2 348.5,-125.2"/>
<polygon fill="none" stroke="#000000" points="348.5,-125.2 348.5,-147.2 507.5,-147.2 507.5,-125.2 348.5,-125.2"/>
<text text-anchor="start" x="377.5" y="-132.3" font-family="Helvetica,sans-Serif" font-size="11.00" fill="#000000">start</text>
<polygon fill="#ffffff" stroke="transparent" points="348.5,-103.2 348.5,-125.2 507.5,-125.2 507.5,-103.2 348.5,-103.2"/>
<polygon fill="none" stroke="#000000" points="348.5,-103.2 348.5,-125.2 507.5,-125.2 507.5,-103.2 348.5,-103.2"/>
<image xlink:href="../../images/foreignKeys.png" width="11px" height="12px" preserveAspectRatio="xMinYMin meet" x="353.5" y="-120.2"/>
<text text-anchor="start" x="377.5" y="-110.3" font-family="Helvetica,sans-Serif" font-size="11.00" fill="#000000">legacy_id</text>
<polygon fill="none" stroke="#000000" points="348.5,-84.2 348.5,-103.2 507.5,-103.2 507.5,-84.2 348.5,-84.2"/>
<text text-anchor="start" x="351.5" y="-90.3" font-family="Helvetica,sans-Serif" font-size="11.00" fill="#000000">...</text>
<polygon fill="#ffffff" stroke="transparent" points="348.5,-65.2 348.5,-84.2 421.5,-84.2 421.5,-65.2 348.5,-65.2"/>
<polygon fill="none" stroke="#000000" points="348.5,-65.2 348.5,-84.2 421.5,-84.2 421.5,-65.2 348.5,-65.2"/>
<text text-anchor="start" x="351.5" y="-71.3" font-family="Helvetica,sans-Serif" font-size="11.00" fill="#000000">&lt; 3</text>
<polygon fill="#ffffff" stroke="transparent" points="421.5,-65.2 421.5,-84.2 459.5,-84.2 459.5,-65.2 421.5,-65.2"/>
<polygon fill="none" stroke="#000000" points="421.5,-65.2 421.5,-84.2 459.5,-84.2 459.5,-65.2 421.5,-65.2"/>
<text text-anchor="start" x="450.3862" y="-71.3" font-family="Helvetica,sans-Serif" font-size="11.00" fill="#000000"> &#160;</text>
<polygon fill="#ffffff" stroke="transparent" points="459.5,-65.2 459.5,-84.2 507.5,-84.2 507.5,-65.2 459.5,-65.2"/>
<polygon fill="none" stroke="#000000" points="459.5,-65.2 459.5,-84.2 507.5,-84.2 507.5,-65.2 459.5,-65.2"/>
<text text-anchor="start" x="488.9053" y="-71.3" font-family="Helvetica,sans-Serif" font-size="11.00" fill="#000000">1 &gt;</text>
</a>
</g>
</g>
<!-- court_appearance_reason -->
<g id="node2" class="node">
<title>court_appearance_reason</title>
<g id="a_node2"><a xlink:href="../../tables/court_appearance_reason.html" xlink:title="court_appearance_reason" target="_top">
<polygon fill="#ffffff" stroke="transparent" points="8,-38.2 8,-216.2 299,-216.2 299,-38.2 8,-38.2"/>
<polygon fill="#f5f5f5" stroke="transparent" points="10.5,-191.2 10.5,-214.2 297.5,-214.2 297.5,-191.2 10.5,-191.2"/>
<polygon fill="none" stroke="#000000" points="10.5,-191.2 10.5,-214.2 297.5,-214.2 297.5,-191.2 10.5,-191.2"/>
<text text-anchor="start" x="15.5" y="-199.8" font-family="Helvetica,sans-Serif" font-weight="bold" font-size="11.00" fill="#000000">court_appearance_reason</text>
<text text-anchor="start" x="262.5437" y="-199.3" font-family="Helvetica,sans-Serif" font-size="11.00" fill="#000000">[table]</text>
<polygon fill="none" stroke="#000000" points="10.5,-169.2 10.5,-191.2 203.5,-191.2 203.5,-169.2 10.5,-169.2"/>
<image xlink:href="../../images/primaryKeys.png" width="11px" height="12px" preserveAspectRatio="xMinYMin meet" x="15.5" y="-186.2"/>
<text text-anchor="start" x="30.5" y="-176.3" font-family="Helvetica,sans-Serif" font-size="11.00" fill="#000000">id</text>
<polygon fill="none" stroke="#000000" points="203.5,-169.2 203.5,-191.2 297.5,-191.2 297.5,-169.2 203.5,-169.2"/>
<text text-anchor="start" x="206.4758" y="-176.9" font-family="Helvetica,sans-Serif" font-size="11.00" fill="#000000">uuid[2147483647]</text>
<polygon fill="#ffffff" stroke="transparent" points="10.5,-147.2 10.5,-169.2 203.5,-169.2 203.5,-147.2 10.5,-147.2"/>
<polygon fill="none" stroke="#000000" points="10.5,-147.2 10.5,-169.2 203.5,-169.2 203.5,-147.2 10.5,-147.2"/>
<text text-anchor="start" x="30.5" y="-154.3" font-family="Helvetica,sans-Serif" font-size="11.00" fill="#000000">code</text>
<polygon fill="none" stroke="#000000" points="203.5,-147.2 203.5,-169.2 297.5,-169.2 297.5,-147.2 203.5,-147.2"/>
<text text-anchor="start" x="206.5" y="-154.9" font-family="Helvetica,sans-Serif" font-size="11.00" fill="#000000">varchar[16]</text>
<polygon fill="none" stroke="#000000" points="10.5,-125.2 10.5,-147.2 203.5,-147.2 203.5,-125.2 10.5,-125.2"/>
<text text-anchor="start" x="30.5" y="-132.3" font-family="Helvetica,sans-Serif" font-size="11.00" fill="#000000">description</text>
<polygon fill="none" stroke="#000000" points="203.5,-125.2 203.5,-147.2 297.5,-147.2 297.5,-125.2 203.5,-125.2"/>
<text text-anchor="start" x="206.5" y="-132.9" font-family="Helvetica,sans-Serif" font-size="11.00" fill="#000000">varchar[255]</text>
<polygon fill="#ffffff" stroke="transparent" points="10.5,-103.2 10.5,-125.2 203.5,-125.2 203.5,-103.2 10.5,-103.2"/>
<polygon fill="none" stroke="#000000" points="10.5,-103.2 10.5,-125.2 203.5,-125.2 203.5,-103.2 10.5,-103.2"/>
<text text-anchor="start" x="30.5" y="-110.3" font-family="Helvetica,sans-Serif" font-size="11.00" fill="#000000">sequence_number</text>
<polygon fill="none" stroke="#000000" points="203.5,-103.2 203.5,-125.2 297.5,-125.2 297.5,-103.2 203.5,-103.2"/>
<text text-anchor="start" x="206.5" y="-110.9" font-family="Helvetica,sans-Serif" font-size="11.00" fill="#000000">int4[10]</text>
<polygon fill="none" stroke="#000000" points="10.5,-81.2 10.5,-103.2 203.5,-103.2 203.5,-81.2 10.5,-81.2"/>
<text text-anchor="start" x="30.5" y="-88.3" font-family="Helvetica,sans-Serif" font-size="11.00" fill="#000000">active</text>
<polygon fill="none" stroke="#000000" points="203.5,-81.2 203.5,-103.2 297.5,-103.2 297.5,-81.2 203.5,-81.2"/>
<text text-anchor="start" x="206.5" y="-88.9" font-family="Helvetica,sans-Serif" font-size="11.00" fill="#000000">bool[1]</text>
<polygon fill="none" stroke="#000000" points="10.5,-59.2 10.5,-81.2 203.5,-81.2 203.5,-59.2 10.5,-59.2"/>
<text text-anchor="start" x="30.5" y="-66.3" font-family="Helvetica,sans-Serif" font-size="11.00" fill="#000000">external</text>
<polygon fill="none" stroke="#000000" points="203.5,-59.2 203.5,-81.2 297.5,-81.2 297.5,-59.2 203.5,-59.2"/>
<text text-anchor="start" x="206.5" y="-66.9" font-family="Helvetica,sans-Serif" font-size="11.00" fill="#000000">bool[1]</text>
<polygon fill="#ffffff" stroke="transparent" points="10.5,-40.2 10.5,-59.2 111.5,-59.2 111.5,-40.2 10.5,-40.2"/>
<polygon fill="none" stroke="#000000" points="10.5,-40.2 10.5,-59.2 111.5,-59.2 111.5,-40.2 10.5,-40.2"/>
<text text-anchor="start" x="13.5" y="-46.3" font-family="Helvetica,sans-Serif" font-size="11.00" fill="#000000">&lt; 0</text>
<polygon fill="#ffffff" stroke="transparent" points="111.5,-40.2 111.5,-59.2 203.5,-59.2 203.5,-40.2 111.5,-40.2"/>
<polygon fill="none" stroke="#000000" points="111.5,-40.2 111.5,-59.2 203.5,-59.2 203.5,-40.2 111.5,-40.2"/>
<text text-anchor="start" x="194.3862" y="-46.3" font-family="Helvetica,sans-Serif" font-size="11.00" fill="#000000"> &#160;</text>
<polygon fill="#ffffff" stroke="transparent" points="203.5,-40.2 203.5,-59.2 297.5,-59.2 297.5,-40.2 203.5,-40.2"/>
<polygon fill="none" stroke="#000000" points="203.5,-40.2 203.5,-59.2 297.5,-59.2 297.5,-40.2 203.5,-40.2"/>
<text text-anchor="start" x="278.9053" y="-46.3" font-family="Helvetica,sans-Serif" font-size="11.00" fill="#000000">1 &gt;</text>
<polygon fill="none" stroke="#000000" stroke-width="2" points="9,-39.2 9,-215.2 298,-215.2 298,-39.2 9,-39.2"/>
</a>
</g>
</g>
<!-- court_appearance&#45;&gt;court_appearance_reason -->
<g id="edge1" class="edge">
<title>court_appearance:w&#45;&gt;court_appearance_reason:e</title>
<path fill="none" stroke="#000000" d="M333.776,-180.2C321.7815,-180.2 314.3229,-180.2 297.5,-180.2"/>
<polygon fill="#000000" stroke="#000000" points="340.5,-180.2001 348.5,-183.8 344.5,-180.2 348.5,-180.2 348.5,-180.2 348.5,-180.2 344.5,-180.2 348.5,-176.6 340.5,-180.2001 340.5,-180.2001"/>
<ellipse fill="none" stroke="#000000" cx="337.3" cy="-180.2001" rx="3.2" ry="3.2"/>
</g>
</g>
</svg>
