<?xml version="1.0" encoding="UTF-8" standalone="no"?>
<!DOCTYPE svg PUBLIC "-//W3C//DTD SVG 1.1//EN"
 "http://www.w3.org/Graphics/SVG/1.1/DTD/svg11.dtd">
<!-- Generated by graphviz version 2.40.1 (20161225.0304)
 -->
<!-- Title: twoDegreesRelationshipsDiagram Pages: 1 -->
<svg width="809pt" height="387pt"
 viewBox="0.00 0.00 809.00 386.70" xmlns="http://www.w3.org/2000/svg" xmlns:xlink="http://www.w3.org/1999/xlink">
<g id="graph0" class="graph" transform="scale(1 1) rotate(0) translate(4 382.7)">
<title>twoDegreesRelationshipsDiagram</title>
<polygon fill="#ffffff" stroke="transparent" points="-4,4 -4,-382.7 805,-382.7 805,4 -4,4"/>
<text text-anchor="middle" x="72.4936" y="-7.3" font-family="Helvetica,sans-Serif" font-size="11.00" fill="#000000">Generated by SchemaSpy</text>
<!-- court_appearance -->
<g id="node1" class="node">
<title>court_appearance</title>
<g id="a_node1"><a xlink:href="../../tables/court_appearance.html" xlink:title="court_appearance" target="_top">
<polygon fill="#ffffff" stroke="transparent" points="268,-222.7 268,-283.7 427,-283.7 427,-222.7 268,-222.7"/>
<polygon fill="#f5f5f5" stroke="transparent" points="268.5,-260.2 268.5,-283.2 427.5,-283.2 427.5,-260.2 268.5,-260.2"/>
<polygon fill="none" stroke="#000000" points="268.5,-260.2 268.5,-283.2 427.5,-283.2 427.5,-260.2 268.5,-260.2"/>
<text text-anchor="start" x="273.5" y="-268.8" font-family="Helvetica,sans-Serif" font-weight="bold" font-size="11.00" fill="#000000">court_appearance</text>
<text text-anchor="start" x="393.0219" y="-268.3" font-family="Helvetica,sans-Serif" font-size="11.00" fill="#000000">[table]</text>
<polygon fill="none" stroke="#000000" points="268.5,-241.2 268.5,-260.2 427.5,-260.2 427.5,-241.2 268.5,-241.2"/>
<text text-anchor="start" x="271.5" y="-247.3" font-family="Helvetica,sans-Serif" font-size="11.00" fill="#000000">...</text>
<polygon fill="#ffffff" stroke="transparent" points="268.5,-222.2 268.5,-241.2 341.5,-241.2 341.5,-222.2 268.5,-222.2"/>
<polygon fill="none" stroke="#000000" points="268.5,-222.2 268.5,-241.2 341.5,-241.2 341.5,-222.2 268.5,-222.2"/>
<text text-anchor="start" x="271.5" y="-228.3" font-family="Helvetica,sans-Serif" font-size="11.00" fill="#000000">&lt; 3</text>
<polygon fill="#ffffff" stroke="transparent" points="341.5,-222.2 341.5,-241.2 379.5,-241.2 379.5,-222.2 341.5,-222.2"/>
<polygon fill="none" stroke="#000000" points="341.5,-222.2 341.5,-241.2 379.5,-241.2 379.5,-222.2 341.5,-222.2"/>
<text text-anchor="start" x="370.3862" y="-228.3" font-family="Helvetica,sans-Serif" font-size="11.00" fill="#000000"> &#160;</text>
<polygon fill="#ffffff" stroke="transparent" points="379.5,-222.2 379.5,-241.2 427.5,-241.2 427.5,-222.2 379.5,-222.2"/>
<polygon fill="none" stroke="#000000" points="379.5,-222.2 379.5,-241.2 427.5,-241.2 427.5,-222.2 379.5,-222.2"/>
<text text-anchor="start" x="408.9053" y="-228.3" font-family="Helvetica,sans-Serif" font-size="11.00" fill="#000000">1 &gt;</text>
</a>
</g>
</g>
<!-- person_summary -->
<g id="node2" class="node">
<title>person_summary</title>
<g id="a_node2"><a xlink:href="../../tables/person_summary.html" xlink:title="person_summary" target="_top">
<polygon fill="#ffffff" stroke="transparent" points="36.5,-149.7 36.5,-210.7 190.5,-210.7 190.5,-149.7 36.5,-149.7"/>
<polygon fill="#f5f5f5" stroke="transparent" points="36.5,-187.2 36.5,-210.2 190.5,-210.2 190.5,-187.2 36.5,-187.2"/>
<polygon fill="none" stroke="#000000" points="36.5,-187.2 36.5,-210.2 190.5,-210.2 190.5,-187.2 36.5,-187.2"/>
<text text-anchor="start" x="41.5" y="-195.8" font-family="Helvetica,sans-Serif" font-weight="bold" font-size="11.00" fill="#000000">person_summary</text>
<text text-anchor="start" x="156.0219" y="-195.3" font-family="Helvetica,sans-Serif" font-size="11.00" fill="#000000">[table]</text>
<polygon fill="none" stroke="#000000" points="36.5,-168.2 36.5,-187.2 190.5,-187.2 190.5,-168.2 36.5,-168.2"/>
<text text-anchor="start" x="39.5" y="-174.3" font-family="Helvetica,sans-Serif" font-size="11.00" fill="#000000">...</text>
<polygon fill="#ffffff" stroke="transparent" points="36.5,-149.2 36.5,-168.2 102.5,-168.2 102.5,-149.2 36.5,-149.2"/>
<polygon fill="none" stroke="#000000" points="36.5,-149.2 36.5,-168.2 102.5,-168.2 102.5,-149.2 36.5,-149.2"/>
<text text-anchor="start" x="39.5" y="-155.3" font-family="Helvetica,sans-Serif" font-size="11.00" fill="#000000"> &#160;</text>
<polygon fill="#ffffff" stroke="transparent" points="102.5,-149.2 102.5,-168.2 141.5,-168.2 141.5,-149.2 102.5,-149.2"/>
<polygon fill="none" stroke="#000000" points="102.5,-149.2 102.5,-168.2 141.5,-168.2 141.5,-149.2 102.5,-149.2"/>
<text text-anchor="start" x="132.3862" y="-155.3" font-family="Helvetica,sans-Serif" font-size="11.00" fill="#000000"> &#160;</text>
<polygon fill="#ffffff" stroke="transparent" points="141.5,-149.2 141.5,-168.2 190.5,-168.2 190.5,-149.2 141.5,-149.2"/>
<polygon fill="none" stroke="#000000" points="141.5,-149.2 141.5,-168.2 190.5,-168.2 190.5,-149.2 141.5,-149.2"/>
<text text-anchor="start" x="171.9053" y="-155.3" font-family="Helvetica,sans-Serif" font-size="11.00" fill="#000000">2 &gt;</text>
</a>
</g>
</g>
<!-- court_appearance&#45;&gt;person_summary -->
<g id="edge1" class="edge">
<title>court_appearance:w&#45;&gt;person_summary:e</title>
<path fill="none" stroke="#000000" d="M245.4917,-221.3769C229.8725,-216.5043 213.891,-211.5186 198.6853,-206.7749"/>
<polygon fill="#000000" stroke="#000000" points="252.0643,-223.4273 258.6292,-229.2465 255.8828,-224.6185 259.7013,-225.8098 259.7013,-225.8098 259.7013,-225.8098 255.8828,-224.6185 260.7734,-222.3732 252.0643,-223.4273 252.0643,-223.4273"/>
<ellipse fill="none" stroke="#000000" cx="249.0095" cy="-222.4743" rx="3.2" ry="3.2"/>
</g>
<!-- court_appearance_reason -->
<g id="node3" class="node">
<title>court_appearance_reason</title>
<g id="a_node3"><a xlink:href="../../tables/court_appearance_reason.html" xlink:title="court_appearance_reason" target="_top">
<polygon fill="#ffffff" stroke="transparent" points="8,-231.7 8,-292.7 219,-292.7 219,-231.7 8,-231.7"/>
<polygon fill="#f5f5f5" stroke="transparent" points="8.5,-269.2 8.5,-292.2 219.5,-292.2 219.5,-269.2 8.5,-269.2"/>
<polygon fill="none" stroke="#000000" points="8.5,-269.2 8.5,-292.2 219.5,-292.2 219.5,-269.2 8.5,-269.2"/>
<text text-anchor="start" x="13.5" y="-277.8" font-family="Helvetica,sans-Serif" font-weight="bold" font-size="11.00" fill="#000000">court_appearance_reason</text>
<text text-anchor="start" x="185.0219" y="-277.3" font-family="Helvetica,sans-Serif" font-size="11.00" fill="#000000">[table]</text>
<polygon fill="none" stroke="#000000" points="8.5,-250.2 8.5,-269.2 219.5,-269.2 219.5,-250.2 8.5,-250.2"/>
<text text-anchor="start" x="11.5" y="-256.3" font-family="Helvetica,sans-Serif" font-size="11.00" fill="#000000">...</text>
<polygon fill="#ffffff" stroke="transparent" points="8.5,-231.2 8.5,-250.2 103.5,-250.2 103.5,-231.2 8.5,-231.2"/>
<polygon fill="none" stroke="#000000" points="8.5,-231.2 8.5,-250.2 103.5,-250.2 103.5,-231.2 8.5,-231.2"/>
<text text-anchor="start" x="11.5" y="-237.3" font-family="Helvetica,sans-Serif" font-size="11.00" fill="#000000"> &#160;</text>
<polygon fill="#ffffff" stroke="transparent" points="103.5,-231.2 103.5,-250.2 156.5,-250.2 156.5,-231.2 103.5,-231.2"/>
<polygon fill="none" stroke="#000000" points="103.5,-231.2 103.5,-250.2 156.5,-250.2 156.5,-231.2 103.5,-231.2"/>
<text text-anchor="start" x="147.3862" y="-237.3" font-family="Helvetica,sans-Serif" font-size="11.00" fill="#000000"> &#160;</text>
<polygon fill="#ffffff" stroke="transparent" points="156.5,-231.2 156.5,-250.2 219.5,-250.2 219.5,-231.2 156.5,-231.2"/>
<polygon fill="none" stroke="#000000" points="156.5,-231.2 156.5,-250.2 219.5,-250.2 219.5,-231.2 156.5,-231.2"/>
<text text-anchor="start" x="200.9053" y="-237.3" font-family="Helvetica,sans-Serif" font-size="11.00" fill="#000000">1 &gt;</text>
</a>
</g>
</g>
<!-- court_appearance&#45;&gt;court_appearance_reason -->
<g id="edge2" class="edge">
<title>court_appearance:w&#45;&gt;court_appearance_reason:e</title>
<path fill="none" stroke="#000000" d="M245.151,-258.8519C236.4767,-259.0714 227.8373,-259.2 219.5,-259.2"/>
<polygon fill="#000000" stroke="#000000" points="251.739,-258.6493 259.846,-262.0015 255.7371,-258.5263 259.7352,-258.4032 259.7352,-258.4032 259.7352,-258.4032 255.7371,-258.5263 259.6245,-254.8049 251.739,-258.6493 251.739,-258.6493"/>
<ellipse fill="none" stroke="#000000" cx="248.5405" cy="-258.7477" rx="3.2" ry="3.2"/>
</g>
<!-- court_appearance_status -->
<g id="node4" class="node">
<title>court_appearance_status</title>
<g id="a_node4"><a xlink:href="../../tables/court_appearance_status.html" xlink:title="court_appearance_status" target="_top">
<polygon fill="#ffffff" stroke="transparent" points="9.5,-313.7 9.5,-374.7 217.5,-374.7 217.5,-313.7 9.5,-313.7"/>
<polygon fill="#f5f5f5" stroke="transparent" points="9.5,-351.2 9.5,-374.2 217.5,-374.2 217.5,-351.2 9.5,-351.2"/>
<polygon fill="none" stroke="#000000" points="9.5,-351.2 9.5,-374.2 217.5,-374.2 217.5,-351.2 9.5,-351.2"/>
<text text-anchor="start" x="14.5" y="-359.8" font-family="Helvetica,sans-Serif" font-weight="bold" font-size="11.00" fill="#000000">court_appearance_status</text>
<text text-anchor="start" x="183.0219" y="-359.3" font-family="Helvetica,sans-Serif" font-size="11.00" fill="#000000">[table]</text>
<polygon fill="none" stroke="#000000" points="9.5,-332.2 9.5,-351.2 217.5,-351.2 217.5,-332.2 9.5,-332.2"/>
<text text-anchor="start" x="12.5" y="-338.3" font-family="Helvetica,sans-Serif" font-size="11.00" fill="#000000">...</text>
<polygon fill="#ffffff" stroke="transparent" points="9.5,-313.2 9.5,-332.2 102.5,-332.2 102.5,-313.2 9.5,-313.2"/>
<polygon fill="none" stroke="#000000" points="9.5,-313.2 9.5,-332.2 102.5,-332.2 102.5,-313.2 9.5,-313.2"/>
<text text-anchor="start" x="12.5" y="-319.3" font-family="Helvetica,sans-Serif" font-size="11.00" fill="#000000"> &#160;</text>
<polygon fill="#ffffff" stroke="transparent" points="102.5,-313.2 102.5,-332.2 155.5,-332.2 155.5,-313.2 102.5,-313.2"/>
<polygon fill="none" stroke="#000000" points="102.5,-313.2 102.5,-332.2 155.5,-332.2 155.5,-313.2 102.5,-313.2"/>
<text text-anchor="start" x="146.3862" y="-319.3" font-family="Helvetica,sans-Serif" font-size="11.00" fill="#000000"> &#160;</text>
<polygon fill="#ffffff" stroke="transparent" points="155.5,-313.2 155.5,-332.2 217.5,-332.2 217.5,-313.2 155.5,-313.2"/>
<polygon fill="none" stroke="#000000" points="155.5,-313.2 155.5,-332.2 217.5,-332.2 217.5,-313.2 155.5,-313.2"/>
<text text-anchor="start" x="198.9053" y="-319.3" font-family="Helvetica,sans-Serif" font-size="11.00" fill="#000000">1 &gt;</text>
</a>
</g>
</g>
<!-- court_appearance&#45;&gt;court_appearance_status -->
<g id="edge3" class="edge">
<title>court_appearance:w&#45;&gt;court_appearance_status:e</title>
<path fill="none" stroke="#000000" d="M307.808,-297.9885C284.1084,-319.7226 251.9686,-341.2 217.5,-341.2"/>
<polygon fill="#000000" stroke="#000000" points="312.6605,-293.2914 320.9125,-290.314 315.5345,-290.5094 318.4086,-287.7274 318.4086,-287.7274 318.4086,-287.7274 315.5345,-290.5094 315.9048,-285.1407 312.6605,-293.2914 312.6605,-293.2914"/>
<ellipse fill="none" stroke="#000000" cx="310.3612" cy="-295.5171" rx="3.2" ry="3.2"/>
</g>
<!-- court_appearance_movement -->
<g id="node5" class="node">
<title>court_appearance_movement</title>
<g id="a_node5"><a xlink:href="../../tables/court_appearance_movement.html" xlink:title="court_appearance_movement" target="_top">
<polygon fill="#ffffff" stroke="transparent" points="476,-38.2 476,-304.2 793,-304.2 793,-38.2 476,-38.2"/>
<polygon fill="#f5f5f5" stroke="transparent" points="478.5,-279.2 478.5,-302.2 791.5,-302.2 791.5,-279.2 478.5,-279.2"/>
<polygon fill="none" stroke="#000000" points="478.5,-279.2 478.5,-302.2 791.5,-302.2 791.5,-279.2 478.5,-279.2"/>
<text text-anchor="start" x="483.5" y="-287.8" font-family="Helvetica,sans-Serif" font-weight="bold" font-size="11.00" fill="#000000">court_appearance_movement</text>
<text text-anchor="start" x="756.5437" y="-287.3" font-family="Helvetica,sans-Serif" font-size="11.00" fill="#000000">[table]</text>
<polygon fill="none" stroke="#000000" points="478.5,-257.2 478.5,-279.2 697.5,-279.2 697.5,-257.2 478.5,-257.2"/>
<image xlink:href="../../images/primaryKeys.png" width="11px" height="12px" preserveAspectRatio="xMinYMin meet" x="483.5" y="-274.2"/>
<text text-anchor="start" x="498.5" y="-264.3" font-family="Helvetica,sans-Serif" font-size="11.00" fill="#000000">id</text>
<polygon fill="none" stroke="#000000" points="697.5,-257.2 697.5,-279.2 791.5,-279.2 791.5,-257.2 697.5,-257.2"/>
<text text-anchor="start" x="700.4758" y="-264.9" font-family="Helvetica,sans-Serif" font-size="11.00" fill="#000000">uuid[2147483647]</text>
<polygon fill="none" stroke="#000000" points="478.5,-235.2 478.5,-257.2 697.5,-257.2 697.5,-235.2 478.5,-235.2"/>
<text text-anchor="start" x="498.5" y="-242.3" font-family="Helvetica,sans-Serif" font-size="11.00" fill="#000000">version</text>
<polygon fill="none" stroke="#000000" points="697.5,-235.2 697.5,-257.2 791.5,-257.2 791.5,-235.2 697.5,-235.2"/>
<text text-anchor="start" x="700.5" y="-242.9" font-family="Helvetica,sans-Serif" font-size="11.00" fill="#000000">int4[10]</text>
<polygon fill="none" stroke="#000000" points="478.5,-213.2 478.5,-235.2 697.5,-235.2 697.5,-213.2 478.5,-213.2"/>
<image xlink:href="../../images/foreignKeys.png" width="11px" height="12px" preserveAspectRatio="xMinYMin meet" x="483.5" y="-230.2"/>
<text text-anchor="start" x="498.5" y="-220.3" font-family="Helvetica,sans-Serif" font-size="11.00" fill="#000000">court_appearance_id</text>
<polygon fill="none" stroke="#000000" points="697.5,-213.2 697.5,-235.2 791.5,-235.2 791.5,-213.2 697.5,-213.2"/>
<text text-anchor="start" x="700.4758" y="-220.9" font-family="Helvetica,sans-Serif" font-size="11.00" fill="#000000">uuid[2147483647]</text>
<polygon fill="#ffffff" stroke="transparent" points="478.5,-191.2 478.5,-213.2 697.5,-213.2 697.5,-191.2 478.5,-191.2"/>
<polygon fill="none" stroke="#000000" points="478.5,-191.2 478.5,-213.2 697.5,-213.2 697.5,-191.2 478.5,-191.2"/>
<image xlink:href="../../images/foreignKeys.png" width="11px" height="12px" preserveAspectRatio="xMinYMin meet" x="483.5" y="-208.2"/>
<text text-anchor="start" x="498.5" y="-198.3" font-family="Helvetica,sans-Serif" font-size="11.00" fill="#000000">person_identifier</text>
<polygon fill="none" stroke="#000000" points="697.5,-191.2 697.5,-213.2 791.5,-213.2 791.5,-191.2 697.5,-191.2"/>
<text text-anchor="start" x="700.5" y="-198.9" font-family="Helvetica,sans-Serif" font-size="11.00" fill="#000000">varchar[10]</text>
<polygon fill="none" stroke="#000000" points="478.5,-169.2 478.5,-191.2 697.5,-191.2 697.5,-169.2 478.5,-169.2"/>
<text text-anchor="start" x="498.5" y="-176.3" font-family="Helvetica,sans-Serif" font-size="11.00" fill="#000000">prison_code</text>
<polygon fill="none" stroke="#000000" points="697.5,-169.2 697.5,-191.2 791.5,-191.2 791.5,-169.2 697.5,-169.2"/>
<text text-anchor="start" x="700.5" y="-176.9" font-family="Helvetica,sans-Serif" font-size="11.00" fill="#000000">varchar[6]</text>
<polygon fill="none" stroke="#000000" points="478.5,-147.2 478.5,-169.2 697.5,-169.2 697.5,-147.2 478.5,-147.2"/>
<text text-anchor="start" x="498.5" y="-154.3" font-family="Helvetica,sans-Serif" font-size="11.00" fill="#000000">court_code</text>
<polygon fill="none" stroke="#000000" points="697.5,-147.2 697.5,-169.2 791.5,-169.2 791.5,-147.2 697.5,-147.2"/>
<text text-anchor="start" x="700.5" y="-154.9" font-family="Helvetica,sans-Serif" font-size="11.00" fill="#000000">varchar[6]</text>
<polygon fill="none" stroke="#000000" points="478.5,-125.2 478.5,-147.2 697.5,-147.2 697.5,-125.2 478.5,-125.2"/>
<text text-anchor="start" x="498.5" y="-132.3" font-family="Helvetica,sans-Serif" font-size="11.00" fill="#000000">direction</text>
<polygon fill="none" stroke="#000000" points="697.5,-125.2 697.5,-147.2 791.5,-147.2 791.5,-125.2 697.5,-125.2"/>
<text text-anchor="start" x="700.5" y="-132.9" font-family="Helvetica,sans-Serif" font-size="11.00" fill="#000000">varchar[3]</text>
<polygon fill="none" stroke="#000000" points="478.5,-103.2 478.5,-125.2 697.5,-125.2 697.5,-103.2 478.5,-103.2"/>
<text text-anchor="start" x="498.5" y="-110.3" font-family="Helvetica,sans-Serif" font-size="11.00" fill="#000000">occurred_at</text>
<polygon fill="none" stroke="#000000" points="697.5,-103.2 697.5,-125.2 791.5,-125.2 791.5,-103.2 697.5,-103.2"/>
<text text-anchor="start" x="700.5" y="-110.9" font-family="Helvetica,sans-Serif" font-size="11.00" fill="#000000">timestamp[29,6]</text>
<polygon fill="none" stroke="#000000" points="478.5,-81.2 478.5,-103.2 697.5,-103.2 697.5,-81.2 478.5,-81.2"/>
<text text-anchor="start" x="498.5" y="-88.3" font-family="Helvetica,sans-Serif" font-size="11.00" fill="#000000">comments</text>
<polygon fill="none" stroke="#000000" points="697.5,-81.2 697.5,-103.2 791.5,-103.2 791.5,-81.2 697.5,-81.2"/>
<text text-anchor="start" x="700.5" y="-88.9" font-family="Helvetica,sans-Serif" font-size="11.00" fill="#000000">text[2147483647]</text>
<polygon fill="#ffffff" stroke="transparent" points="478.5,-59.2 478.5,-81.2 697.5,-81.2 697.5,-59.2 478.5,-59.2"/>
<polygon fill="none" stroke="#000000" points="478.5,-59.2 478.5,-81.2 697.5,-81.2 697.5,-59.2 478.5,-59.2"/>
<text text-anchor="start" x="498.5" y="-66.3" font-family="Helvetica,sans-Serif" font-size="11.00" fill="#000000">legacy_id</text>
<polygon fill="none" stroke="#000000" points="697.5,-59.2 697.5,-81.2 791.5,-81.2 791.5,-59.2 697.5,-59.2"/>
<text text-anchor="start" x="700.5" y="-66.9" font-family="Helvetica,sans-Serif" font-size="11.00" fill="#000000">varchar[32]</text>
<polygon fill="#ffffff" stroke="transparent" points="478.5,-40.2 478.5,-59.2 592.5,-59.2 592.5,-40.2 478.5,-40.2"/>
<polygon fill="none" stroke="#000000" points="478.5,-40.2 478.5,-59.2 592.5,-59.2 592.5,-40.2 478.5,-40.2"/>
<text text-anchor="start" x="481.5" y="-46.3" font-family="Helvetica,sans-Serif" font-size="11.00" fill="#000000">&lt; 2</text>
<polygon fill="#ffffff" stroke="transparent" points="592.5,-40.2 592.5,-59.2 697.5,-59.2 697.5,-40.2 592.5,-40.2"/>
<polygon fill="none" stroke="#000000" points="592.5,-40.2 592.5,-59.2 697.5,-59.2 697.5,-40.2 592.5,-40.2"/>
<text text-anchor="start" x="688.3862" y="-46.3" font-family="Helvetica,sans-Serif" font-size="11.00" fill="#000000"> &#160;</text>
<polygon fill="#ffffff" stroke="transparent" points="697.5,-40.2 697.5,-59.2 791.5,-59.2 791.5,-40.2 697.5,-40.2"/>
<polygon fill="none" stroke="#000000" points="697.5,-40.2 697.5,-59.2 791.5,-59.2 791.5,-40.2 697.5,-40.2"/>
<text text-anchor="start" x="772.9053" y="-46.3" font-family="Helvetica,sans-Serif" font-size="11.00" fill="#000000">0 &gt;</text>
<polygon fill="none" stroke="#000000" stroke-width="2" points="477,-39.2 477,-303.2 792,-303.2 792,-39.2 477,-39.2"/>
</a>
</g>
</g>
<!-- court_appearance_movement&#45;&gt;court_appearance -->
<g id="edge4" class="edge">
<title>court_appearance_movement:w&#45;&gt;court_appearance:e</title>
<path fill="none" stroke="#000000" d="M463.7791,-224.7431C454.3201,-225.4145 444.7412,-226.67 435.3524,-228.2935"/>
<polygon fill="#000000" stroke="#000000" points="470.5054,-224.495 478.6327,-227.7976 474.5027,-224.3475 478.5,-224.2 478.5,-224.2 478.5,-224.2 474.5027,-224.3475 478.3673,-220.6024 470.5054,-224.495 470.5054,-224.495"/>
<ellipse fill="none" stroke="#000000" cx="467.3076" cy="-224.613" rx="3.2" ry="3.2"/>
</g>
<!-- court_appearance_movement&#45;&gt;person_summary -->
<g id="edge5" class="edge">
<title>court_appearance_movement:w&#45;&gt;person_summary:e</title>
<path fill="none" stroke="#000000" d="M464.0559,-202.144C371.6173,-201.4385 268.8311,-194.2075 198.5944,-188.2359"/>
<polygon fill="#000000" stroke="#000000" points="470.5001,-202.1689 478.486,-205.8 474.5,-202.1845 478.5,-202.2 478.5,-202.2 478.5,-202.2 474.5,-202.1845 478.514,-198.6 470.5001,-202.1689 470.5001,-202.1689"/>
<ellipse fill="none" stroke="#000000" cx="467.3001" cy="-202.1565" rx="3.2" ry="3.2"/>
</g>
</g>
</svg>
