<?xml version="1.0" encoding="UTF-8" standalone="no"?>
<!DOCTYPE svg PUBLIC "-//W3C//DTD SVG 1.1//EN"
 "http://www.w3.org/Graphics/SVG/1.1/DTD/svg11.dtd">
<!-- Generated by graphviz version 2.40.1 (20161225.0304)
 -->
<!-- Title: twoDegreesRelationshipsDiagramImplied Pages: 1 -->
<svg width="928pt" height="453pt"
 viewBox="0.00 0.00 928.00 452.70" xmlns="http://www.w3.org/2000/svg" xmlns:xlink="http://www.w3.org/1999/xlink">
<g id="graph0" class="graph" transform="scale(1 1) rotate(0) translate(4 448.7)">
<title>twoDegreesRelationshipsDiagramImplied</title>
<polygon fill="#ffffff" stroke="transparent" points="-4,4 -4,-448.7 924,-448.7 924,4 -4,4"/>
<text text-anchor="middle" x="72.4936" y="-7.3" font-family="Helvetica,sans-Serif" font-size="11.00" fill="#000000">Generated by SchemaSpy</text>
<!-- court_appearance -->
<g id="node1" class="node">
<title>court_appearance</title>
<g id="a_node1"><a xlink:href="../../tables/court_appearance.html" xlink:title="court_appearance" target="_top">
<polygon fill="#ffffff" stroke="transparent" points="327.5,-215.7 327.5,-276.7 486.5,-276.7 486.5,-215.7 327.5,-215.7"/>
<polygon fill="#f5f5f5" stroke="transparent" points="328,-253.2 328,-276.2 487,-276.2 487,-253.2 328,-253.2"/>
<polygon fill="none" stroke="#000000" points="328,-253.2 328,-276.2 487,-276.2 487,-253.2 328,-253.2"/>
<text text-anchor="start" x="333" y="-261.8" font-family="Helvetica,sans-Serif" font-weight="bold" font-size="11.00" fill="#000000">court_appearance</text>
<text text-anchor="start" x="452.5219" y="-261.3" font-family="Helvetica,sans-Serif" font-size="11.00" fill="#000000">[table]</text>
<polygon fill="none" stroke="#000000" points="328,-234.2 328,-253.2 487,-253.2 487,-234.2 328,-234.2"/>
<text text-anchor="start" x="331" y="-240.3" font-family="Helvetica,sans-Serif" font-size="11.00" fill="#000000">...</text>
<polygon fill="#ffffff" stroke="transparent" points="328,-215.2 328,-234.2 401,-234.2 401,-215.2 328,-215.2"/>
<polygon fill="none" stroke="#000000" points="328,-215.2 328,-234.2 401,-234.2 401,-215.2 328,-215.2"/>
<text text-anchor="start" x="331" y="-221.3" font-family="Helvetica,sans-Serif" font-size="11.00" fill="#000000">&lt; 4</text>
<polygon fill="#ffffff" stroke="transparent" points="401,-215.2 401,-234.2 439,-234.2 439,-215.2 401,-215.2"/>
<polygon fill="none" stroke="#000000" points="401,-215.2 401,-234.2 439,-234.2 439,-215.2 401,-215.2"/>
<text text-anchor="start" x="429.8862" y="-221.3" font-family="Helvetica,sans-Serif" font-size="11.00" fill="#000000"> &#160;</text>
<polygon fill="#ffffff" stroke="transparent" points="439,-215.2 439,-234.2 487,-234.2 487,-215.2 439,-215.2"/>
<polygon fill="none" stroke="#000000" points="439,-215.2 439,-234.2 487,-234.2 487,-215.2 439,-215.2"/>
<text text-anchor="start" x="468.4053" y="-221.3" font-family="Helvetica,sans-Serif" font-size="11.00" fill="#000000">1 &gt;</text>
</a>
</g>
</g>
<!-- audit_revision -->
<g id="node2" class="node">
<title>audit_revision</title>
<g id="a_node2"><a xlink:href="../../tables/audit_revision.html" xlink:title="audit_revision" target="_top">
<polygon fill="#ffffff" stroke="transparent" points="46.5,-377.7 46.5,-438.7 180.5,-438.7 180.5,-377.7 46.5,-377.7"/>
<polygon fill="#f5f5f5" stroke="transparent" points="46.5,-415.2 46.5,-438.2 180.5,-438.2 180.5,-415.2 46.5,-415.2"/>
<polygon fill="none" stroke="#000000" points="46.5,-415.2 46.5,-438.2 180.5,-438.2 180.5,-415.2 46.5,-415.2"/>
<text text-anchor="start" x="51.5" y="-423.8" font-family="Helvetica,sans-Serif" font-weight="bold" font-size="11.00" fill="#000000">audit_revision</text>
<text text-anchor="start" x="146.0219" y="-423.3" font-family="Helvetica,sans-Serif" font-size="11.00" fill="#000000">[table]</text>
<polygon fill="none" stroke="#000000" points="46.5,-396.2 46.5,-415.2 180.5,-415.2 180.5,-396.2 46.5,-396.2"/>
<text text-anchor="start" x="49.5" y="-402.3" font-family="Helvetica,sans-Serif" font-size="11.00" fill="#000000">...</text>
<polygon fill="#ffffff" stroke="transparent" points="46.5,-377.2 46.5,-396.2 102.5,-396.2 102.5,-377.2 46.5,-377.2"/>
<polygon fill="none" stroke="#000000" points="46.5,-377.2 46.5,-396.2 102.5,-396.2 102.5,-377.2 46.5,-377.2"/>
<text text-anchor="start" x="49.5" y="-383.3" font-family="Helvetica,sans-Serif" font-size="11.00" fill="#000000"> &#160;</text>
<polygon fill="#ffffff" stroke="transparent" points="102.5,-377.2 102.5,-396.2 136.5,-396.2 136.5,-377.2 102.5,-377.2"/>
<polygon fill="none" stroke="#000000" points="102.5,-377.2 102.5,-396.2 136.5,-396.2 136.5,-377.2 102.5,-377.2"/>
<text text-anchor="start" x="127.3862" y="-383.3" font-family="Helvetica,sans-Serif" font-size="11.00" fill="#000000"> &#160;</text>
<polygon fill="#ffffff" stroke="transparent" points="136.5,-377.2 136.5,-396.2 180.5,-396.2 180.5,-377.2 136.5,-377.2"/>
<polygon fill="none" stroke="#000000" points="136.5,-377.2 136.5,-396.2 180.5,-396.2 180.5,-377.2 136.5,-377.2"/>
<text text-anchor="start" x="161.9053" y="-383.3" font-family="Helvetica,sans-Serif" font-size="11.00" fill="#000000">4 &gt;</text>
</a>
</g>
</g>
<!-- court_appearance&#45;&gt;audit_revision -->
<g id="edge1" class="edge">
<title>court_appearance:w&#45;&gt;audit_revision:e</title>
<path fill="none" stroke="#000000" stroke-dasharray="5,2" d="M309.3203,-260.1171C291.413,-266.1805 273.9898,-274.8418 260,-287.2 231.4821,-312.3919 249.5495,-335.55 227,-366.2 211.0155,-387.9267 207.4732,-405.2 180.5,-405.2"/>
<polygon fill="#000000" stroke="#000000" points="317.3466,-253.4278 319.7256,-261.0659 318.1979,-261.5417 315.819,-253.9036 317.3466,-253.4278"/>
<polyline fill="none" stroke="#000000" points="319.2999,-257.0089 315.4808,-258.1984 "/>
<ellipse fill="none" stroke="#000000" cx="312.4256" cy="-259.15" rx="3.2" ry="3.2"/>
</g>
<!-- person_summary -->
<g id="node3" class="node">
<title>person_summary</title>
<g id="a_node3"><a xlink:href="../../tables/person_summary.html" xlink:title="person_summary" target="_top">
<polygon fill="#ffffff" stroke="transparent" points="36.5,-294.7 36.5,-355.7 190.5,-355.7 190.5,-294.7 36.5,-294.7"/>
<polygon fill="#f5f5f5" stroke="transparent" points="36.5,-332.2 36.5,-355.2 190.5,-355.2 190.5,-332.2 36.5,-332.2"/>
<polygon fill="none" stroke="#000000" points="36.5,-332.2 36.5,-355.2 190.5,-355.2 190.5,-332.2 36.5,-332.2"/>
<text text-anchor="start" x="41.5" y="-340.8" font-family="Helvetica,sans-Serif" font-weight="bold" font-size="11.00" fill="#000000">person_summary</text>
<text text-anchor="start" x="156.0219" y="-340.3" font-family="Helvetica,sans-Serif" font-size="11.00" fill="#000000">[table]</text>
<polygon fill="none" stroke="#000000" points="36.5,-313.2 36.5,-332.2 190.5,-332.2 190.5,-313.2 36.5,-313.2"/>
<text text-anchor="start" x="39.5" y="-319.3" font-family="Helvetica,sans-Serif" font-size="11.00" fill="#000000">...</text>
<polygon fill="#ffffff" stroke="transparent" points="36.5,-294.2 36.5,-313.2 102.5,-313.2 102.5,-294.2 36.5,-294.2"/>
<polygon fill="none" stroke="#000000" points="36.5,-294.2 36.5,-313.2 102.5,-313.2 102.5,-294.2 36.5,-294.2"/>
<text text-anchor="start" x="39.5" y="-300.3" font-family="Helvetica,sans-Serif" font-size="11.00" fill="#000000"> &#160;</text>
<polygon fill="#ffffff" stroke="transparent" points="102.5,-294.2 102.5,-313.2 141.5,-313.2 141.5,-294.2 102.5,-294.2"/>
<polygon fill="none" stroke="#000000" points="102.5,-294.2 102.5,-313.2 141.5,-313.2 141.5,-294.2 102.5,-294.2"/>
<text text-anchor="start" x="132.3862" y="-300.3" font-family="Helvetica,sans-Serif" font-size="11.00" fill="#000000"> &#160;</text>
<polygon fill="#ffffff" stroke="transparent" points="141.5,-294.2 141.5,-313.2 190.5,-313.2 190.5,-294.2 141.5,-294.2"/>
<polygon fill="none" stroke="#000000" points="141.5,-294.2 141.5,-313.2 190.5,-313.2 190.5,-294.2 141.5,-294.2"/>
<text text-anchor="start" x="171.9053" y="-300.3" font-family="Helvetica,sans-Serif" font-size="11.00" fill="#000000">4 &gt;</text>
</a>
</g>
</g>
<!-- court_appearance&#45;&gt;person_summary -->
<g id="edge2" class="edge">
<title>court_appearance:w&#45;&gt;person_summary:e</title>
<path fill="none" stroke="#000000" d="M305.2112,-273.598C270.4647,-282.9506 231.9957,-293.3051 198.6926,-302.2691"/>
<polygon fill="#000000" stroke="#000000" points="311.6128,-271.875 320.2736,-273.2719 315.4754,-270.8353 319.3379,-269.7956 319.3379,-269.7956 319.3379,-269.7956 315.4754,-270.8353 318.4022,-266.3193 311.6128,-271.875 311.6128,-271.875"/>
<ellipse fill="none" stroke="#000000" cx="308.5228" cy="-272.7067" rx="3.2" ry="3.2"/>
</g>
<!-- court_appearance_reason -->
<g id="node4" class="node">
<title>court_appearance_reason</title>
<g id="a_node4"><a xlink:href="../../tables/court_appearance_reason.html" xlink:title="court_appearance_reason" target="_top">
<polygon fill="#ffffff" stroke="transparent" points="8,-129.7 8,-190.7 219,-190.7 219,-129.7 8,-129.7"/>
<polygon fill="#f5f5f5" stroke="transparent" points="8.5,-167.2 8.5,-190.2 219.5,-190.2 219.5,-167.2 8.5,-167.2"/>
<polygon fill="none" stroke="#000000" points="8.5,-167.2 8.5,-190.2 219.5,-190.2 219.5,-167.2 8.5,-167.2"/>
<text text-anchor="start" x="13.5" y="-175.8" font-family="Helvetica,sans-Serif" font-weight="bold" font-size="11.00" fill="#000000">court_appearance_reason</text>
<text text-anchor="start" x="185.0219" y="-175.3" font-family="Helvetica,sans-Serif" font-size="11.00" fill="#000000">[table]</text>
<polygon fill="none" stroke="#000000" points="8.5,-148.2 8.5,-167.2 219.5,-167.2 219.5,-148.2 8.5,-148.2"/>
<text text-anchor="start" x="11.5" y="-154.3" font-family="Helvetica,sans-Serif" font-size="11.00" fill="#000000">...</text>
<polygon fill="#ffffff" stroke="transparent" points="8.5,-129.2 8.5,-148.2 103.5,-148.2 103.5,-129.2 8.5,-129.2"/>
<polygon fill="none" stroke="#000000" points="8.5,-129.2 8.5,-148.2 103.5,-148.2 103.5,-129.2 8.5,-129.2"/>
<text text-anchor="start" x="11.5" y="-135.3" font-family="Helvetica,sans-Serif" font-size="11.00" fill="#000000"> &#160;</text>
<polygon fill="#ffffff" stroke="transparent" points="103.5,-129.2 103.5,-148.2 156.5,-148.2 156.5,-129.2 103.5,-129.2"/>
<polygon fill="none" stroke="#000000" points="103.5,-129.2 103.5,-148.2 156.5,-148.2 156.5,-129.2 103.5,-129.2"/>
<text text-anchor="start" x="147.3862" y="-135.3" font-family="Helvetica,sans-Serif" font-size="11.00" fill="#000000"> &#160;</text>
<polygon fill="#ffffff" stroke="transparent" points="156.5,-129.2 156.5,-148.2 219.5,-148.2 219.5,-129.2 156.5,-129.2"/>
<polygon fill="none" stroke="#000000" points="156.5,-129.2 156.5,-148.2 219.5,-148.2 219.5,-129.2 156.5,-129.2"/>
<text text-anchor="start" x="200.9053" y="-135.3" font-family="Helvetica,sans-Serif" font-size="11.00" fill="#000000">2 &gt;</text>
</a>
</g>
</g>
<!-- court_appearance&#45;&gt;court_appearance_reason -->
<g id="edge3" class="edge">
<title>court_appearance:w&#45;&gt;court_appearance_reason:e</title>
<path fill="none" stroke="#000000" d="M305.5104,-216.462C280.2133,-209.0496 252.9272,-201.0543 227.0884,-193.4831"/>
<polygon fill="#000000" stroke="#000000" points="311.6607,-218.2641 318.3256,-223.9684 315.4993,-219.3889 319.3379,-220.5137 319.3379,-220.5137 319.3379,-220.5137 315.4993,-219.3889 320.3502,-217.0589 311.6607,-218.2641 311.6607,-218.2641"/>
<ellipse fill="none" stroke="#000000" cx="308.5898" cy="-217.3642" rx="3.2" ry="3.2"/>
</g>
<!-- court_appearance_status -->
<g id="node5" class="node">
<title>court_appearance_status</title>
<g id="a_node5"><a xlink:href="../../tables/court_appearance_status.html" xlink:title="court_appearance_status" target="_top">
<polygon fill="#ffffff" stroke="transparent" points="9.5,-212.7 9.5,-273.7 217.5,-273.7 217.5,-212.7 9.5,-212.7"/>
<polygon fill="#f5f5f5" stroke="transparent" points="9.5,-250.2 9.5,-273.2 217.5,-273.2 217.5,-250.2 9.5,-250.2"/>
<polygon fill="none" stroke="#000000" points="9.5,-250.2 9.5,-273.2 217.5,-273.2 217.5,-250.2 9.5,-250.2"/>
<text text-anchor="start" x="14.5" y="-258.8" font-family="Helvetica,sans-Serif" font-weight="bold" font-size="11.00" fill="#000000">court_appearance_status</text>
<text text-anchor="start" x="183.0219" y="-258.3" font-family="Helvetica,sans-Serif" font-size="11.00" fill="#000000">[table]</text>
<polygon fill="none" stroke="#000000" points="9.5,-231.2 9.5,-250.2 217.5,-250.2 217.5,-231.2 9.5,-231.2"/>
<text text-anchor="start" x="12.5" y="-237.3" font-family="Helvetica,sans-Serif" font-size="11.00" fill="#000000">...</text>
<polygon fill="#ffffff" stroke="transparent" points="9.5,-212.2 9.5,-231.2 102.5,-231.2 102.5,-212.2 9.5,-212.2"/>
<polygon fill="none" stroke="#000000" points="9.5,-212.2 9.5,-231.2 102.5,-231.2 102.5,-212.2 9.5,-212.2"/>
<text text-anchor="start" x="12.5" y="-218.3" font-family="Helvetica,sans-Serif" font-size="11.00" fill="#000000"> &#160;</text>
<polygon fill="#ffffff" stroke="transparent" points="102.5,-212.2 102.5,-231.2 155.5,-231.2 155.5,-212.2 102.5,-212.2"/>
<polygon fill="none" stroke="#000000" points="102.5,-212.2 102.5,-231.2 155.5,-231.2 155.5,-212.2 102.5,-212.2"/>
<text text-anchor="start" x="146.3862" y="-218.3" font-family="Helvetica,sans-Serif" font-size="11.00" fill="#000000"> &#160;</text>
<polygon fill="#ffffff" stroke="transparent" points="155.5,-212.2 155.5,-231.2 217.5,-231.2 217.5,-212.2 155.5,-212.2"/>
<polygon fill="none" stroke="#000000" points="155.5,-212.2 155.5,-231.2 217.5,-231.2 217.5,-212.2 155.5,-212.2"/>
<text text-anchor="start" x="198.9053" y="-218.3" font-family="Helvetica,sans-Serif" font-size="11.00" fill="#000000">1 &gt;</text>
</a>
</g>
</g>
<!-- court_appearance&#45;&gt;court_appearance_status -->
<g id="edge4" class="edge">
<title>court_appearance:w&#45;&gt;court_appearance_status:e</title>
<path fill="none" stroke="#000000" d="M304.7457,-241.7767C276.4874,-240.8772 245.8102,-240.2 217.5,-240.2"/>
<polygon fill="#000000" stroke="#000000" points="311.2817,-241.9962 319.1563,-245.8628 315.2794,-242.1305 319.2772,-242.2649 319.2772,-242.2649 319.2772,-242.2649 315.2794,-242.1305 319.3981,-238.6669 311.2817,-241.9962 311.2817,-241.9962"/>
<ellipse fill="none" stroke="#000000" cx="308.0835" cy="-241.8887" rx="3.2" ry="3.2"/>
</g>
<!-- court_appearance_audit -->
<g id="node6" class="node">
<title>court_appearance_audit</title>
<g id="a_node6"><a xlink:href="../../tables/court_appearance_audit.html" xlink:title="court_appearance_audit" target="_top">
<polygon fill="#ffffff" stroke="transparent" points="307,-379.7 307,-440.7 507,-440.7 507,-379.7 307,-379.7"/>
<polygon fill="#f5f5f5" stroke="transparent" points="307,-417.2 307,-440.2 507,-440.2 507,-417.2 307,-417.2"/>
<polygon fill="none" stroke="#000000" points="307,-417.2 307,-440.2 507,-440.2 507,-417.2 307,-417.2"/>
<text text-anchor="start" x="312" y="-425.8" font-family="Helvetica,sans-Serif" font-weight="bold" font-size="11.00" fill="#000000">court_appearance_audit</text>
<text text-anchor="start" x="472.5219" y="-425.3" font-family="Helvetica,sans-Serif" font-size="11.00" fill="#000000">[table]</text>
<polygon fill="none" stroke="#000000" points="307,-398.2 307,-417.2 507,-417.2 507,-398.2 307,-398.2"/>
<text text-anchor="start" x="310" y="-404.3" font-family="Helvetica,sans-Serif" font-size="11.00" fill="#000000">...</text>
<polygon fill="#ffffff" stroke="transparent" points="307,-379.2 307,-398.2 405,-398.2 405,-379.2 307,-379.2"/>
<polygon fill="none" stroke="#000000" points="307,-379.2 307,-398.2 405,-398.2 405,-379.2 307,-379.2"/>
<text text-anchor="start" x="310" y="-385.3" font-family="Helvetica,sans-Serif" font-size="11.00" fill="#000000">&lt; 3</text>
<polygon fill="#ffffff" stroke="transparent" points="405,-379.2 405,-398.2 456,-398.2 456,-379.2 405,-379.2"/>
<polygon fill="none" stroke="#000000" points="405,-379.2 405,-398.2 456,-398.2 456,-379.2 405,-379.2"/>
<text text-anchor="start" x="446.8862" y="-385.3" font-family="Helvetica,sans-Serif" font-size="11.00" fill="#000000"> &#160;</text>
<polygon fill="#ffffff" stroke="transparent" points="456,-379.2 456,-398.2 507,-398.2 507,-379.2 456,-379.2"/>
<polygon fill="none" stroke="#000000" points="456,-379.2 456,-398.2 507,-398.2 507,-379.2 456,-379.2"/>
<text text-anchor="start" x="497.8862" y="-385.3" font-family="Helvetica,sans-Serif" font-size="11.00" fill="#000000"> &#160;</text>
</a>
</g>
</g>
<!-- court_appearance_audit&#45;&gt;audit_revision -->
<g id="edge5" class="edge">
<title>court_appearance_audit:w&#45;&gt;audit_revision:e</title>
<path fill="none" stroke="#000000" stroke-dasharray="5,2" d="M292.5162,-405.6519C247.8373,-400.9002 231.5676,-399.7508 180.5,-405.2"/>
<polygon fill="#000000" stroke="#000000" points="299.0453,-406.3497 306.6174,-410.7796 303.0227,-406.7748 307,-407.2 307,-407.2 307,-407.2 303.0227,-406.7748 307.3826,-403.6204 299.0453,-406.3497 299.0453,-406.3497"/>
<ellipse fill="none" stroke="#000000" cx="295.8634" cy="-406.0096" rx="3.2" ry="3.2"/>
</g>
<!-- court_appearance_audit&#45;&gt;audit_revision -->
<g id="edge7" class="edge">
<title>court_appearance_audit:w&#45;&gt;audit_revision:e</title>
<path fill="none" stroke="#000000" d="M292.5162,-408.9033C247.8373,-413.7907 231.5676,-411.5574 180.5,-405.2"/>
<polygon fill="#000000" stroke="#000000" points="299.0548,-408.1344 307.4205,-410.7754 303.0274,-407.6672 307,-407.2 307,-407.2 307,-407.2 303.0274,-407.6672 306.5795,-403.6246 299.0548,-408.1344 299.0548,-408.1344"/>
<ellipse fill="none" stroke="#000000" cx="295.8767" cy="-408.5082" rx="3.2" ry="3.2"/>
</g>
<!-- court_appearance_audit&#45;&gt;person_summary -->
<g id="edge6" class="edge">
<title>court_appearance_audit:w&#45;&gt;person_summary:e</title>
<path fill="none" stroke="#000000" stroke-dasharray="5,2" d="M292.5373,-405.9268C265.6043,-400.7423 258.4864,-380.8488 227,-367.2 217.8432,-363.2307 208.1769,-359.2884 198.5054,-355.4998"/>
<polygon fill="#000000" stroke="#000000" points="299.0308,-406.4984 306.6843,-410.7861 303.0154,-406.8492 307,-407.2 307,-407.2 307,-407.2 303.0154,-406.8492 307.3157,-403.6139 299.0308,-406.4984 299.0308,-406.4984"/>
<ellipse fill="none" stroke="#000000" cx="295.8432" cy="-406.2177" rx="3.2" ry="3.2"/>
</g>
<!-- court_appearance_movement -->
<g id="node7" class="node">
<title>court_appearance_movement</title>
<g id="a_node7"><a xlink:href="../../tables/court_appearance_movement.html" xlink:title="court_appearance_movement" target="_top">
<polygon fill="#ffffff" stroke="transparent" points="595,-38.2 595,-326.2 912,-326.2 912,-38.2 595,-38.2"/>
<polygon fill="#f5f5f5" stroke="transparent" points="597.5,-301.2 597.5,-324.2 910.5,-324.2 910.5,-301.2 597.5,-301.2"/>
<polygon fill="none" stroke="#000000" points="597.5,-301.2 597.5,-324.2 910.5,-324.2 910.5,-301.2 597.5,-301.2"/>
<text text-anchor="start" x="602.5" y="-309.8" font-family="Helvetica,sans-Serif" font-weight="bold" font-size="11.00" fill="#000000">court_appearance_movement</text>
<text text-anchor="start" x="875.5437" y="-309.3" font-family="Helvetica,sans-Serif" font-size="11.00" fill="#000000">[table]</text>
<polygon fill="none" stroke="#000000" points="597.5,-279.2 597.5,-301.2 816.5,-301.2 816.5,-279.2 597.5,-279.2"/>
<image xlink:href="../../images/primaryKeys.png" width="11px" height="12px" preserveAspectRatio="xMinYMin meet" x="602.5" y="-296.2"/>
<text text-anchor="start" x="617.5" y="-286.3" font-family="Helvetica,sans-Serif" font-size="11.00" fill="#000000">id</text>
<polygon fill="none" stroke="#000000" points="816.5,-279.2 816.5,-301.2 910.5,-301.2 910.5,-279.2 816.5,-279.2"/>
<text text-anchor="start" x="819.4758" y="-286.9" font-family="Helvetica,sans-Serif" font-size="11.00" fill="#000000">uuid[2147483647]</text>
<polygon fill="none" stroke="#000000" points="597.5,-257.2 597.5,-279.2 816.5,-279.2 816.5,-257.2 597.5,-257.2"/>
<text text-anchor="start" x="617.5" y="-264.3" font-family="Helvetica,sans-Serif" font-size="11.00" fill="#000000">version</text>
<polygon fill="none" stroke="#000000" points="816.5,-257.2 816.5,-279.2 910.5,-279.2 910.5,-257.2 816.5,-257.2"/>
<text text-anchor="start" x="819.5" y="-264.9" font-family="Helvetica,sans-Serif" font-size="11.00" fill="#000000">int4[10]</text>
<polygon fill="#ffffff" stroke="transparent" points="597.5,-235.2 597.5,-257.2 816.5,-257.2 816.5,-235.2 597.5,-235.2"/>
<polygon fill="none" stroke="#000000" points="597.5,-235.2 597.5,-257.2 816.5,-257.2 816.5,-235.2 597.5,-235.2"/>
<image xlink:href="../../images/foreignKeys.png" width="11px" height="12px" preserveAspectRatio="xMinYMin meet" x="602.5" y="-252.2"/>
<text text-anchor="start" x="617.5" y="-242.3" font-family="Helvetica,sans-Serif" font-size="11.00" fill="#000000">court_appearance_id</text>
<polygon fill="none" stroke="#000000" points="816.5,-235.2 816.5,-257.2 910.5,-257.2 910.5,-235.2 816.5,-235.2"/>
<text text-anchor="start" x="819.4758" y="-242.9" font-family="Helvetica,sans-Serif" font-size="11.00" fill="#000000">uuid[2147483647]</text>
<polygon fill="#ffffff" stroke="transparent" points="597.5,-213.2 597.5,-235.2 816.5,-235.2 816.5,-213.2 597.5,-213.2"/>
<polygon fill="none" stroke="#000000" points="597.5,-213.2 597.5,-235.2 816.5,-235.2 816.5,-213.2 597.5,-213.2"/>
<image xlink:href="../../images/foreignKeys.png" width="11px" height="12px" preserveAspectRatio="xMinYMin meet" x="602.5" y="-230.2"/>
<text text-anchor="start" x="617.5" y="-220.3" font-family="Helvetica,sans-Serif" font-size="11.00" fill="#000000">person_identifier</text>
<polygon fill="none" stroke="#000000" points="816.5,-213.2 816.5,-235.2 910.5,-235.2 910.5,-213.2 816.5,-213.2"/>
<text text-anchor="start" x="819.5" y="-220.9" font-family="Helvetica,sans-Serif" font-size="11.00" fill="#000000">varchar[10]</text>
<polygon fill="none" stroke="#000000" points="597.5,-191.2 597.5,-213.2 816.5,-213.2 816.5,-191.2 597.5,-191.2"/>
<text text-anchor="start" x="617.5" y="-198.3" font-family="Helvetica,sans-Serif" font-size="11.00" fill="#000000">prison_code</text>
<polygon fill="none" stroke="#000000" points="816.5,-191.2 816.5,-213.2 910.5,-213.2 910.5,-191.2 816.5,-191.2"/>
<text text-anchor="start" x="819.5" y="-198.9" font-family="Helvetica,sans-Serif" font-size="11.00" fill="#000000">varchar[6]</text>
<polygon fill="none" stroke="#000000" points="597.5,-169.2 597.5,-191.2 816.5,-191.2 816.5,-169.2 597.5,-169.2"/>
<text text-anchor="start" x="617.5" y="-176.3" font-family="Helvetica,sans-Serif" font-size="11.00" fill="#000000">court_code</text>
<polygon fill="none" stroke="#000000" points="816.5,-169.2 816.5,-191.2 910.5,-191.2 910.5,-169.2 816.5,-169.2"/>
<text text-anchor="start" x="819.5" y="-176.9" font-family="Helvetica,sans-Serif" font-size="11.00" fill="#000000">varchar[6]</text>
<polygon fill="none" stroke="#000000" points="597.5,-147.2 597.5,-169.2 816.5,-169.2 816.5,-147.2 597.5,-147.2"/>
<image xlink:href="../../images/foreignKeys.png" width="11px" height="12px" preserveAspectRatio="xMinYMin meet" x="602.5" y="-164.2"/>
<text text-anchor="start" x="617.5" y="-154.3" font-family="Helvetica,sans-Serif" font-size="11.00" fill="#000000">reason_id</text>
<polygon fill="none" stroke="#000000" points="816.5,-147.2 816.5,-169.2 910.5,-169.2 910.5,-147.2 816.5,-147.2"/>
<text text-anchor="start" x="819.4758" y="-154.9" font-family="Helvetica,sans-Serif" font-size="11.00" fill="#000000">uuid[2147483647]</text>
<polygon fill="none" stroke="#000000" points="597.5,-125.2 597.5,-147.2 816.5,-147.2 816.5,-125.2 597.5,-125.2"/>
<text text-anchor="start" x="617.5" y="-132.3" font-family="Helvetica,sans-Serif" font-size="11.00" fill="#000000">direction</text>
<polygon fill="none" stroke="#000000" points="816.5,-125.2 816.5,-147.2 910.5,-147.2 910.5,-125.2 816.5,-125.2"/>
<text text-anchor="start" x="819.5" y="-132.9" font-family="Helvetica,sans-Serif" font-size="11.00" fill="#000000">varchar[3]</text>
<polygon fill="none" stroke="#000000" points="597.5,-103.2 597.5,-125.2 816.5,-125.2 816.5,-103.2 597.5,-103.2"/>
<text text-anchor="start" x="617.5" y="-110.3" font-family="Helvetica,sans-Serif" font-size="11.00" fill="#000000">occurred_at</text>
<polygon fill="none" stroke="#000000" points="816.5,-103.2 816.5,-125.2 910.5,-125.2 910.5,-103.2 816.5,-103.2"/>
<text text-anchor="start" x="819.5" y="-110.9" font-family="Helvetica,sans-Serif" font-size="11.00" fill="#000000">timestamp[29,6]</text>
<polygon fill="none" stroke="#000000" points="597.5,-81.2 597.5,-103.2 816.5,-103.2 816.5,-81.2 597.5,-81.2"/>
<text text-anchor="start" x="617.5" y="-88.3" font-family="Helvetica,sans-Serif" font-size="11.00" fill="#000000">comments</text>
<polygon fill="none" stroke="#000000" points="816.5,-81.2 816.5,-103.2 910.5,-103.2 910.5,-81.2 816.5,-81.2"/>
<text text-anchor="start" x="819.5" y="-88.9" font-family="Helvetica,sans-Serif" font-size="11.00" fill="#000000">text[2147483647]</text>
<polygon fill="#ffffff" stroke="transparent" points="597.5,-59.2 597.5,-81.2 816.5,-81.2 816.5,-59.2 597.5,-59.2"/>
<polygon fill="none" stroke="#000000" points="597.5,-59.2 597.5,-81.2 816.5,-81.2 816.5,-59.2 597.5,-59.2"/>
<text text-anchor="start" x="617.5" y="-66.3" font-family="Helvetica,sans-Serif" font-size="11.00" fill="#000000">legacy_id</text>
<polygon fill="none" stroke="#000000" points="816.5,-59.2 816.5,-81.2 910.5,-81.2 910.5,-59.2 816.5,-59.2"/>
<text text-anchor="start" x="819.5" y="-66.9" font-family="Helvetica,sans-Serif" font-size="11.00" fill="#000000">varchar[32]</text>
<polygon fill="#ffffff" stroke="transparent" points="597.5,-40.2 597.5,-59.2 711.5,-59.2 711.5,-40.2 597.5,-40.2"/>
<polygon fill="none" stroke="#000000" points="597.5,-40.2 597.5,-59.2 711.5,-59.2 711.5,-40.2 597.5,-40.2"/>
<text text-anchor="start" x="600.5" y="-46.3" font-family="Helvetica,sans-Serif" font-size="11.00" fill="#000000">&lt; 3</text>
<polygon fill="#ffffff" stroke="transparent" points="711.5,-40.2 711.5,-59.2 816.5,-59.2 816.5,-40.2 711.5,-40.2"/>
<polygon fill="none" stroke="#000000" points="711.5,-40.2 711.5,-59.2 816.5,-59.2 816.5,-40.2 711.5,-40.2"/>
<text text-anchor="start" x="807.3862" y="-46.3" font-family="Helvetica,sans-Serif" font-size="11.00" fill="#000000"> &#160;</text>
<polygon fill="#ffffff" stroke="transparent" points="816.5,-40.2 816.5,-59.2 910.5,-59.2 910.5,-40.2 816.5,-40.2"/>
<polygon fill="none" stroke="#000000" points="816.5,-40.2 816.5,-59.2 910.5,-59.2 910.5,-40.2 816.5,-40.2"/>
<text text-anchor="start" x="891.9053" y="-46.3" font-family="Helvetica,sans-Serif" font-size="11.00" fill="#000000">0 &gt;</text>
<polygon fill="none" stroke="#000000" stroke-width="2" points="596,-39.2 596,-325.2 911,-325.2 911,-39.2 596,-39.2"/>
</a>
</g>
</g>
<!-- court_appearance_movement&#45;&gt;court_appearance -->
<g id="edge8" class="edge">
<title>court_appearance_movement:w&#45;&gt;court_appearance:e</title>
<path fill="none" stroke="#000000" d="M582.7601,-246.2C553.3615,-246.2 522.365,-246.2 494.7263,-246.2"/>
<polygon fill="#000000" stroke="#000000" points="589.5,-246.2001 597.5,-249.8 593.5,-246.2 597.5,-246.2 597.5,-246.2 597.5,-246.2 593.5,-246.2 597.5,-242.6 589.5,-246.2001 589.5,-246.2001"/>
<ellipse fill="none" stroke="#000000" cx="586.3" cy="-246.2001" rx="3.2" ry="3.2"/>
</g>
<!-- court_appearance_movement&#45;&gt;person_summary -->
<g id="edge9" class="edge">
<title>court_appearance_movement:w&#45;&gt;person_summary:e</title>
<path fill="none" stroke="#000000" d="M583.1305,-221.1238C573.8111,-216.576 568.6819,-208.2665 554,-205.2 490.0467,-191.8425 314.3769,-168.984 260,-205.2 228.3299,-226.2928 254.558,-257.9615 227,-284.2 218.8063,-292.0014 209.0192,-298.3358 198.6755,-303.4751"/>
<polygon fill="#000000" stroke="#000000" points="589.6773,-222.5252 596.7464,-227.7202 593.5886,-223.3626 597.5,-224.2 597.5,-224.2 597.5,-224.2 593.5886,-223.3626 598.2536,-220.6798 589.6773,-222.5252 589.6773,-222.5252"/>
<ellipse fill="none" stroke="#000000" cx="586.5482" cy="-221.8553" rx="3.2" ry="3.2"/>
</g>
<!-- court_appearance_movement&#45;&gt;court_appearance_reason -->
<g id="edge10" class="edge">
<title>court_appearance_movement:w&#45;&gt;court_appearance_reason:e</title>
<path fill="none" stroke="#000000" d="M582.9491,-158.203C459.8263,-158.2526 321.7717,-158.9152 227.4271,-159.4638"/>
<polygon fill="#000000" stroke="#000000" points="589.5,-158.2017 597.5008,-161.8 593.5,-158.2008 597.5,-158.2 597.5,-158.2 597.5,-158.2 593.5,-158.2008 597.4992,-154.6 589.5,-158.2017 589.5,-158.2017"/>
<ellipse fill="none" stroke="#000000" cx="586.3" cy="-158.2024" rx="3.2" ry="3.2"/>
</g>
<!-- court_appearance_movement_audit -->
<g id="node8" class="node">
<title>court_appearance_movement_audit</title>
<g id="a_node8"><a xlink:href="../../tables/court_appearance_movement_audit.html" xlink:title="court_appearance_movement_audit" target="_top">
<polygon fill="#ffffff" stroke="transparent" points="268,-297.7 268,-358.7 546,-358.7 546,-297.7 268,-297.7"/>
<polygon fill="#f5f5f5" stroke="transparent" points="268,-335.2 268,-358.2 546,-358.2 546,-335.2 268,-335.2"/>
<polygon fill="none" stroke="#000000" points="268,-335.2 268,-358.2 546,-358.2 546,-335.2 268,-335.2"/>
<text text-anchor="start" x="273" y="-343.8" font-family="Helvetica,sans-Serif" font-weight="bold" font-size="11.00" fill="#000000">court_appearance_movement_audit</text>
<text text-anchor="start" x="511.5219" y="-343.3" font-family="Helvetica,sans-Serif" font-size="11.00" fill="#000000">[table]</text>
<polygon fill="none" stroke="#000000" points="268,-316.2 268,-335.2 546,-335.2 546,-316.2 268,-316.2"/>
<text text-anchor="start" x="271" y="-322.3" font-family="Helvetica,sans-Serif" font-size="11.00" fill="#000000">...</text>
<polygon fill="#ffffff" stroke="transparent" points="268,-297.2 268,-316.2 405,-316.2 405,-297.2 268,-297.2"/>
<polygon fill="none" stroke="#000000" points="268,-297.2 268,-316.2 405,-316.2 405,-297.2 268,-297.2"/>
<text text-anchor="start" x="271" y="-303.3" font-family="Helvetica,sans-Serif" font-size="11.00" fill="#000000">&lt; 2</text>
<polygon fill="#ffffff" stroke="transparent" points="405,-297.2 405,-316.2 475,-316.2 475,-297.2 405,-297.2"/>
<polygon fill="none" stroke="#000000" points="405,-297.2 405,-316.2 475,-316.2 475,-297.2 405,-297.2"/>
<text text-anchor="start" x="465.8862" y="-303.3" font-family="Helvetica,sans-Serif" font-size="11.00" fill="#000000"> &#160;</text>
<polygon fill="#ffffff" stroke="transparent" points="475,-297.2 475,-316.2 546,-316.2 546,-297.2 475,-297.2"/>
<polygon fill="none" stroke="#000000" points="475,-297.2 475,-316.2 546,-316.2 546,-297.2 475,-297.2"/>
<text text-anchor="start" x="536.8862" y="-303.3" font-family="Helvetica,sans-Serif" font-size="11.00" fill="#000000"> &#160;</text>
</a>
</g>
</g>
<!-- court_appearance_movement_audit&#45;&gt;audit_revision -->
<g id="edge12" class="edge">
<title>court_appearance_movement_audit:w&#45;&gt;audit_revision:e</title>
<path fill="none" stroke="#000000" d="M253.7316,-328.9284C242.7211,-336.2647 241.3997,-353.0081 227,-366.2 207.1112,-384.4206 207.4732,-405.2 180.5,-405.2"/>
<polygon fill="#000000" stroke="#000000" points="260.2599,-327.2226 268.9102,-328.6831 264.1299,-326.2113 268,-325.2 268,-325.2 268,-325.2 264.1299,-326.2113 267.0898,-321.7169 260.2599,-327.2226 260.2599,-327.2226"/>
<ellipse fill="none" stroke="#000000" cx="257.1638" cy="-328.0316" rx="3.2" ry="3.2"/>
</g>
<!-- court_appearance_movement_audit&#45;&gt;person_summary -->
<g id="edge11" class="edge">
<title>court_appearance_movement_audit:w&#45;&gt;person_summary:e</title>
<path fill="none" stroke="#000000" stroke-dasharray="5,2" d="M253.5294,-325.2C235.2633,-325.2 216.3244,-325.2 198.5002,-325.2"/>
<polygon fill="#000000" stroke="#000000" points="260,-325.2001 268,-328.8 264,-325.2 268,-325.2 268,-325.2 268,-325.2 264,-325.2 268,-321.6 260,-325.2001 260,-325.2001"/>
<ellipse fill="none" stroke="#000000" cx="256.8" cy="-325.2001" rx="3.2" ry="3.2"/>
</g>
</g>
</svg>
