<?xml version="1.0" encoding="UTF-8" standalone="no"?>
<!DOCTYPE svg PUBLIC "-//W3C//DTD SVG 1.1//EN"
 "http://www.w3.org/Graphics/SVG/1.1/DTD/svg11.dtd">
<!-- Generated by graphviz version 2.40.1 (20161225.0304)
 -->
<!-- Title: twoDegreesRelationshipsDiagram Pages: 1 -->
<svg width="809pt" height="413pt"
 viewBox="0.00 0.00 809.00 413.20" xmlns="http://www.w3.org/2000/svg" xmlns:xlink="http://www.w3.org/1999/xlink">
<g id="graph0" class="graph" transform="scale(1 1) rotate(0) translate(4 409.2)">
<title>twoDegreesRelationshipsDiagram</title>
<polygon fill="#ffffff" stroke="transparent" points="-4,4 -4,-409.2 805,-409.2 805,4 -4,4"/>
<text text-anchor="middle" x="72.4936" y="-7.3" font-family="Helvetica,sans-Serif" font-size="11.00" fill="#000000">Generated by SchemaSpy</text>
<!-- court_appearance -->
<g id="node1" class="node">
<title>court_appearance</title>
<g id="a_node1"><a xlink:href="../../tables/court_appearance.html" xlink:title="court_appearance" target="_top">
<polygon fill="#ffffff" stroke="transparent" points="348,-138.2 348,-353.2 507,-353.2 507,-138.2 348,-138.2"/>
<polygon fill="#f5f5f5" stroke="transparent" points="348.5,-329.7 348.5,-352.7 507.5,-352.7 507.5,-329.7 348.5,-329.7"/>
<polygon fill="none" stroke="#000000" points="348.5,-329.7 348.5,-352.7 507.5,-352.7 507.5,-329.7 348.5,-329.7"/>
<text text-anchor="start" x="353.5" y="-338.3" font-family="Helvetica,sans-Serif" font-weight="bold" font-size="11.00" fill="#000000">court_appearance</text>
<text text-anchor="start" x="473.0219" y="-337.8" font-family="Helvetica,sans-Serif" font-size="11.00" fill="#000000">[table]</text>
<polygon fill="none" stroke="#000000" points="348.5,-307.7 348.5,-329.7 507.5,-329.7 507.5,-307.7 348.5,-307.7"/>
<image xlink:href="../../images/primaryKeys.png" width="11px" height="12px" preserveAspectRatio="xMinYMin meet" x="353.5" y="-324.7"/>
<text text-anchor="start" x="377.5" y="-314.8" font-family="Helvetica,sans-Serif" font-size="11.00" fill="#000000">id</text>
<polygon fill="#ffffff" stroke="transparent" points="348.5,-285.7 348.5,-307.7 507.5,-307.7 507.5,-285.7 348.5,-285.7"/>
<polygon fill="none" stroke="#000000" points="348.5,-285.7 348.5,-307.7 507.5,-307.7 507.5,-285.7 348.5,-285.7"/>
<image xlink:href="../../images/foreignKeys.png" width="11px" height="12px" preserveAspectRatio="xMinYMin meet" x="353.5" y="-302.7"/>
<text text-anchor="start" x="377.5" y="-292.8" font-family="Helvetica,sans-Serif" font-size="11.00" fill="#000000">person_identifier</text>
<polygon fill="#ffffff" stroke="transparent" points="348.5,-263.7 348.5,-285.7 507.5,-285.7 507.5,-263.7 348.5,-263.7"/>
<polygon fill="none" stroke="#000000" points="348.5,-263.7 348.5,-285.7 507.5,-285.7 507.5,-263.7 348.5,-263.7"/>
<text text-anchor="start" x="377.5" y="-270.8" font-family="Helvetica,sans-Serif" font-size="11.00" fill="#000000">prison_code</text>
<polygon fill="#ffffff" stroke="transparent" points="348.5,-241.7 348.5,-263.7 507.5,-263.7 507.5,-241.7 348.5,-241.7"/>
<polygon fill="none" stroke="#000000" points="348.5,-241.7 348.5,-263.7 507.5,-263.7 507.5,-241.7 348.5,-241.7"/>
<image xlink:href="../../images/foreignKeys.png" width="11px" height="12px" preserveAspectRatio="xMinYMin meet" x="353.5" y="-258.7"/>
<text text-anchor="start" x="377.5" y="-248.8" font-family="Helvetica,sans-Serif" font-size="11.00" fill="#000000">reason_id</text>
<polygon fill="#ffffff" stroke="transparent" points="348.5,-219.7 348.5,-241.7 507.5,-241.7 507.5,-219.7 348.5,-219.7"/>
<polygon fill="none" stroke="#000000" points="348.5,-219.7 348.5,-241.7 507.5,-241.7 507.5,-219.7 348.5,-219.7"/>
<image xlink:href="../../images/foreignKeys.png" width="11px" height="12px" preserveAspectRatio="xMinYMin meet" x="353.5" y="-236.7"/>
<text text-anchor="start" x="377.5" y="-226.8" font-family="Helvetica,sans-Serif" font-size="11.00" fill="#000000">status_id</text>
<polygon fill="#ffffff" stroke="transparent" points="348.5,-197.7 348.5,-219.7 507.5,-219.7 507.5,-197.7 348.5,-197.7"/>
<polygon fill="none" stroke="#000000" points="348.5,-197.7 348.5,-219.7 507.5,-219.7 507.5,-197.7 348.5,-197.7"/>
<text text-anchor="start" x="377.5" y="-204.8" font-family="Helvetica,sans-Serif" font-size="11.00" fill="#000000">start</text>
<polygon fill="#ffffff" stroke="transparent" points="348.5,-175.7 348.5,-197.7 507.5,-197.7 507.5,-175.7 348.5,-175.7"/>
<polygon fill="none" stroke="#000000" points="348.5,-175.7 348.5,-197.7 507.5,-197.7 507.5,-175.7 348.5,-175.7"/>
<image xlink:href="../../images/foreignKeys.png" width="11px" height="12px" preserveAspectRatio="xMinYMin meet" x="353.5" y="-192.7"/>
<text text-anchor="start" x="377.5" y="-182.8" font-family="Helvetica,sans-Serif" font-size="11.00" fill="#000000">legacy_id</text>
<polygon fill="none" stroke="#000000" points="348.5,-156.7 348.5,-175.7 507.5,-175.7 507.5,-156.7 348.5,-156.7"/>
<text text-anchor="start" x="351.5" y="-162.8" font-family="Helvetica,sans-Serif" font-size="11.00" fill="#000000">...</text>
<polygon fill="#ffffff" stroke="transparent" points="348.5,-137.7 348.5,-156.7 421.5,-156.7 421.5,-137.7 348.5,-137.7"/>
<polygon fill="none" stroke="#000000" points="348.5,-137.7 348.5,-156.7 421.5,-156.7 421.5,-137.7 348.5,-137.7"/>
<text text-anchor="start" x="351.5" y="-143.8" font-family="Helvetica,sans-Serif" font-size="11.00" fill="#000000">&lt; 3</text>
<polygon fill="#ffffff" stroke="transparent" points="421.5,-137.7 421.5,-156.7 459.5,-156.7 459.5,-137.7 421.5,-137.7"/>
<polygon fill="none" stroke="#000000" points="421.5,-137.7 421.5,-156.7 459.5,-156.7 459.5,-137.7 421.5,-137.7"/>
<text text-anchor="start" x="450.3862" y="-143.8" font-family="Helvetica,sans-Serif" font-size="11.00" fill="#000000"> &#160;</text>
<polygon fill="#ffffff" stroke="transparent" points="459.5,-137.7 459.5,-156.7 507.5,-156.7 507.5,-137.7 459.5,-137.7"/>
<polygon fill="none" stroke="#000000" points="459.5,-137.7 459.5,-156.7 507.5,-156.7 507.5,-137.7 459.5,-137.7"/>
<text text-anchor="start" x="488.9053" y="-143.8" font-family="Helvetica,sans-Serif" font-size="11.00" fill="#000000">1 &gt;</text>
</a>
</g>
</g>
<!-- person_summary -->
<g id="node2" class="node">
<title>person_summary</title>
<g id="a_node2"><a xlink:href="../../tables/person_summary.html" xlink:title="person_summary" target="_top">
<polygon fill="#ffffff" stroke="transparent" points="76.5,-340.2 76.5,-401.2 230.5,-401.2 230.5,-340.2 76.5,-340.2"/>
<polygon fill="#f5f5f5" stroke="transparent" points="76.5,-377.7 76.5,-400.7 230.5,-400.7 230.5,-377.7 76.5,-377.7"/>
<polygon fill="none" stroke="#000000" points="76.5,-377.7 76.5,-400.7 230.5,-400.7 230.5,-377.7 76.5,-377.7"/>
<text text-anchor="start" x="81.5" y="-386.3" font-family="Helvetica,sans-Serif" font-weight="bold" font-size="11.00" fill="#000000">person_summary</text>
<text text-anchor="start" x="196.0219" y="-385.8" font-family="Helvetica,sans-Serif" font-size="11.00" fill="#000000">[table]</text>
<polygon fill="none" stroke="#000000" points="76.5,-358.7 76.5,-377.7 230.5,-377.7 230.5,-358.7 76.5,-358.7"/>
<text text-anchor="start" x="79.5" y="-364.8" font-family="Helvetica,sans-Serif" font-size="11.00" fill="#000000">...</text>
<polygon fill="#ffffff" stroke="transparent" points="76.5,-339.7 76.5,-358.7 142.5,-358.7 142.5,-339.7 76.5,-339.7"/>
<polygon fill="none" stroke="#000000" points="76.5,-339.7 76.5,-358.7 142.5,-358.7 142.5,-339.7 76.5,-339.7"/>
<text text-anchor="start" x="79.5" y="-345.8" font-family="Helvetica,sans-Serif" font-size="11.00" fill="#000000"> &#160;</text>
<polygon fill="#ffffff" stroke="transparent" points="142.5,-339.7 142.5,-358.7 181.5,-358.7 181.5,-339.7 142.5,-339.7"/>
<polygon fill="none" stroke="#000000" points="142.5,-339.7 142.5,-358.7 181.5,-358.7 181.5,-339.7 142.5,-339.7"/>
<text text-anchor="start" x="172.3862" y="-345.8" font-family="Helvetica,sans-Serif" font-size="11.00" fill="#000000"> &#160;</text>
<polygon fill="#ffffff" stroke="transparent" points="181.5,-339.7 181.5,-358.7 230.5,-358.7 230.5,-339.7 181.5,-339.7"/>
<polygon fill="none" stroke="#000000" points="181.5,-339.7 181.5,-358.7 230.5,-358.7 230.5,-339.7 181.5,-339.7"/>
<text text-anchor="start" x="211.9053" y="-345.8" font-family="Helvetica,sans-Serif" font-size="11.00" fill="#000000">2 &gt;</text>
</a>
</g>
</g>
<!-- court_appearance&#45;&gt;person_summary -->
<g id="edge1" class="edge">
<title>court_appearance:w&#45;&gt;person_summary:e</title>
<path fill="none" stroke="#000000" d="M334.0909,-298.1829C287.5677,-308.3788 286.4461,-367.7 230.5,-367.7"/>
<polygon fill="#000000" stroke="#000000" points="340.542,-297.5191 348.8686,-300.2811 344.521,-297.1095 348.5,-296.7 348.5,-296.7 348.5,-296.7 344.521,-297.1095 348.1314,-293.1189 340.542,-297.5191 340.542,-297.5191"/>
<ellipse fill="none" stroke="#000000" cx="337.3588" cy="-297.8467" rx="3.2" ry="3.2"/>
</g>
<!-- court_appearance_reason -->
<g id="node3" class="node">
<title>court_appearance_reason</title>
<g id="a_node3"><a xlink:href="../../tables/court_appearance_reason.html" xlink:title="court_appearance_reason" target="_top">
<polygon fill="#ffffff" stroke="transparent" points="8,-120.7 8,-298.7 299,-298.7 299,-120.7 8,-120.7"/>
<polygon fill="#f5f5f5" stroke="transparent" points="10.5,-273.7 10.5,-296.7 297.5,-296.7 297.5,-273.7 10.5,-273.7"/>
<polygon fill="none" stroke="#000000" points="10.5,-273.7 10.5,-296.7 297.5,-296.7 297.5,-273.7 10.5,-273.7"/>
<text text-anchor="start" x="15.5" y="-282.3" font-family="Helvetica,sans-Serif" font-weight="bold" font-size="11.00" fill="#000000">court_appearance_reason</text>
<text text-anchor="start" x="262.5437" y="-281.8" font-family="Helvetica,sans-Serif" font-size="11.00" fill="#000000">[table]</text>
<polygon fill="none" stroke="#000000" points="10.5,-251.7 10.5,-273.7 203.5,-273.7 203.5,-251.7 10.5,-251.7"/>
<image xlink:href="../../images/primaryKeys.png" width="11px" height="12px" preserveAspectRatio="xMinYMin meet" x="15.5" y="-268.7"/>
<text text-anchor="start" x="30.5" y="-258.8" font-family="Helvetica,sans-Serif" font-size="11.00" fill="#000000">id</text>
<polygon fill="none" stroke="#000000" points="203.5,-251.7 203.5,-273.7 297.5,-273.7 297.5,-251.7 203.5,-251.7"/>
<text text-anchor="start" x="206.4758" y="-259.4" font-family="Helvetica,sans-Serif" font-size="11.00" fill="#000000">uuid[2147483647]</text>
<polygon fill="#ffffff" stroke="transparent" points="10.5,-229.7 10.5,-251.7 203.5,-251.7 203.5,-229.7 10.5,-229.7"/>
<polygon fill="none" stroke="#000000" points="10.5,-229.7 10.5,-251.7 203.5,-251.7 203.5,-229.7 10.5,-229.7"/>
<text text-anchor="start" x="30.5" y="-236.8" font-family="Helvetica,sans-Serif" font-size="11.00" fill="#000000">code</text>
<polygon fill="none" stroke="#000000" points="203.5,-229.7 203.5,-251.7 297.5,-251.7 297.5,-229.7 203.5,-229.7"/>
<text text-anchor="start" x="206.5" y="-237.4" font-family="Helvetica,sans-Serif" font-size="11.00" fill="#000000">varchar[16]</text>
<polygon fill="none" stroke="#000000" points="10.5,-207.7 10.5,-229.7 203.5,-229.7 203.5,-207.7 10.5,-207.7"/>
<text text-anchor="start" x="30.5" y="-214.8" font-family="Helvetica,sans-Serif" font-size="11.00" fill="#000000">description</text>
<polygon fill="none" stroke="#000000" points="203.5,-207.7 203.5,-229.7 297.5,-229.7 297.5,-207.7 203.5,-207.7"/>
<text text-anchor="start" x="206.5" y="-215.4" font-family="Helvetica,sans-Serif" font-size="11.00" fill="#000000">varchar[255]</text>
<polygon fill="#ffffff" stroke="transparent" points="10.5,-185.7 10.5,-207.7 203.5,-207.7 203.5,-185.7 10.5,-185.7"/>
<polygon fill="none" stroke="#000000" points="10.5,-185.7 10.5,-207.7 203.5,-207.7 203.5,-185.7 10.5,-185.7"/>
<text text-anchor="start" x="30.5" y="-192.8" font-family="Helvetica,sans-Serif" font-size="11.00" fill="#000000">sequence_number</text>
<polygon fill="none" stroke="#000000" points="203.5,-185.7 203.5,-207.7 297.5,-207.7 297.5,-185.7 203.5,-185.7"/>
<text text-anchor="start" x="206.5" y="-193.4" font-family="Helvetica,sans-Serif" font-size="11.00" fill="#000000">int4[10]</text>
<polygon fill="none" stroke="#000000" points="10.5,-163.7 10.5,-185.7 203.5,-185.7 203.5,-163.7 10.5,-163.7"/>
<text text-anchor="start" x="30.5" y="-170.8" font-family="Helvetica,sans-Serif" font-size="11.00" fill="#000000">active</text>
<polygon fill="none" stroke="#000000" points="203.5,-163.7 203.5,-185.7 297.5,-185.7 297.5,-163.7 203.5,-163.7"/>
<text text-anchor="start" x="206.5" y="-171.4" font-family="Helvetica,sans-Serif" font-size="11.00" fill="#000000">bool[1]</text>
<polygon fill="none" stroke="#000000" points="10.5,-141.7 10.5,-163.7 203.5,-163.7 203.5,-141.7 10.5,-141.7"/>
<text text-anchor="start" x="30.5" y="-148.8" font-family="Helvetica,sans-Serif" font-size="11.00" fill="#000000">external</text>
<polygon fill="none" stroke="#000000" points="203.5,-141.7 203.5,-163.7 297.5,-163.7 297.5,-141.7 203.5,-141.7"/>
<text text-anchor="start" x="206.5" y="-149.4" font-family="Helvetica,sans-Serif" font-size="11.00" fill="#000000">bool[1]</text>
<polygon fill="#ffffff" stroke="transparent" points="10.5,-122.7 10.5,-141.7 111.5,-141.7 111.5,-122.7 10.5,-122.7"/>
<polygon fill="none" stroke="#000000" points="10.5,-122.7 10.5,-141.7 111.5,-141.7 111.5,-122.7 10.5,-122.7"/>
<text text-anchor="start" x="13.5" y="-128.8" font-family="Helvetica,sans-Serif" font-size="11.00" fill="#000000">&lt; 0</text>
<polygon fill="#ffffff" stroke="transparent" points="111.5,-122.7 111.5,-141.7 203.5,-141.7 203.5,-122.7 111.5,-122.7"/>
<polygon fill="none" stroke="#000000" points="111.5,-122.7 111.5,-141.7 203.5,-141.7 203.5,-122.7 111.5,-122.7"/>
<text text-anchor="start" x="194.3862" y="-128.8" font-family="Helvetica,sans-Serif" font-size="11.00" fill="#000000"> &#160;</text>
<polygon fill="#ffffff" stroke="transparent" points="203.5,-122.7 203.5,-141.7 297.5,-141.7 297.5,-122.7 203.5,-122.7"/>
<polygon fill="none" stroke="#000000" points="203.5,-122.7 203.5,-141.7 297.5,-141.7 297.5,-122.7 203.5,-122.7"/>
<text text-anchor="start" x="278.9053" y="-128.8" font-family="Helvetica,sans-Serif" font-size="11.00" fill="#000000">1 &gt;</text>
<polygon fill="none" stroke="#000000" stroke-width="2" points="9,-121.7 9,-297.7 298,-297.7 298,-121.7 9,-121.7"/>
</a>
</g>
</g>
<!-- court_appearance&#45;&gt;court_appearance_reason -->
<g id="edge2" class="edge">
<title>court_appearance:w&#45;&gt;court_appearance_reason:e</title>
<path fill="none" stroke="#000000" d="M334.0349,-254.2625C321.8566,-257.075 314.8237,-262.7 297.5,-262.7"/>
<polygon fill="#000000" stroke="#000000" points="340.5463,-253.5592 348.8866,-256.2792 344.5231,-253.1296 348.5,-252.7 348.5,-252.7 348.5,-252.7 344.5231,-253.1296 348.1134,-249.1208 340.5463,-253.5592 340.5463,-253.5592"/>
<ellipse fill="none" stroke="#000000" cx="337.3648" cy="-253.9029" rx="3.2" ry="3.2"/>
</g>
<!-- court_appearance_status -->
<g id="node4" class="node">
<title>court_appearance_status</title>
<g id="a_node4"><a xlink:href="../../tables/court_appearance_status.html" xlink:title="court_appearance_status" target="_top">
<polygon fill="#ffffff" stroke="transparent" points="49.5,-38.2 49.5,-99.2 257.5,-99.2 257.5,-38.2 49.5,-38.2"/>
<polygon fill="#f5f5f5" stroke="transparent" points="49.5,-75.7 49.5,-98.7 257.5,-98.7 257.5,-75.7 49.5,-75.7"/>
<polygon fill="none" stroke="#000000" points="49.5,-75.7 49.5,-98.7 257.5,-98.7 257.5,-75.7 49.5,-75.7"/>
<text text-anchor="start" x="54.5" y="-84.3" font-family="Helvetica,sans-Serif" font-weight="bold" font-size="11.00" fill="#000000">court_appearance_status</text>
<text text-anchor="start" x="223.0219" y="-83.8" font-family="Helvetica,sans-Serif" font-size="11.00" fill="#000000">[table]</text>
<polygon fill="none" stroke="#000000" points="49.5,-56.7 49.5,-75.7 257.5,-75.7 257.5,-56.7 49.5,-56.7"/>
<text text-anchor="start" x="52.5" y="-62.8" font-family="Helvetica,sans-Serif" font-size="11.00" fill="#000000">...</text>
<polygon fill="#ffffff" stroke="transparent" points="49.5,-37.7 49.5,-56.7 142.5,-56.7 142.5,-37.7 49.5,-37.7"/>
<polygon fill="none" stroke="#000000" points="49.5,-37.7 49.5,-56.7 142.5,-56.7 142.5,-37.7 49.5,-37.7"/>
<text text-anchor="start" x="52.5" y="-43.8" font-family="Helvetica,sans-Serif" font-size="11.00" fill="#000000"> &#160;</text>
<polygon fill="#ffffff" stroke="transparent" points="142.5,-37.7 142.5,-56.7 195.5,-56.7 195.5,-37.7 142.5,-37.7"/>
<polygon fill="none" stroke="#000000" points="142.5,-37.7 142.5,-56.7 195.5,-56.7 195.5,-37.7 142.5,-37.7"/>
<text text-anchor="start" x="186.3862" y="-43.8" font-family="Helvetica,sans-Serif" font-size="11.00" fill="#000000"> &#160;</text>
<polygon fill="#ffffff" stroke="transparent" points="195.5,-37.7 195.5,-56.7 257.5,-56.7 257.5,-37.7 195.5,-37.7"/>
<polygon fill="none" stroke="#000000" points="195.5,-37.7 195.5,-56.7 257.5,-56.7 257.5,-37.7 195.5,-37.7"/>
<text text-anchor="start" x="238.9053" y="-43.8" font-family="Helvetica,sans-Serif" font-size="11.00" fill="#000000">1 &gt;</text>
</a>
</g>
</g>
<!-- court_appearance&#45;&gt;court_appearance_status -->
<g id="edge3" class="edge">
<title>court_appearance:w&#45;&gt;court_appearance_status:e</title>
<path fill="none" stroke="#000000" d="M334.1961,-228.525C300.3563,-216.007 335.3026,-152.2206 307,-109.7 290.6901,-85.1968 286.935,-65.7 257.5,-65.7"/>
<polygon fill="#000000" stroke="#000000" points="340.5909,-229.4973 347.9588,-234.2591 344.5455,-230.0987 348.5,-230.7 348.5,-230.7 348.5,-230.7 344.5455,-230.0987 349.0412,-227.1409 340.5909,-229.4973 340.5909,-229.4973"/>
<ellipse fill="none" stroke="#000000" cx="337.4273" cy="-229.0162" rx="3.2" ry="3.2"/>
</g>
<!-- court_appearance_movement -->
<g id="node5" class="node">
<title>court_appearance_movement</title>
<g id="a_node5"><a xlink:href="../../tables/court_appearance_movement.html" xlink:title="court_appearance_movement" target="_top">
<polygon fill="#ffffff" stroke="transparent" points="556,-320.2 556,-381.2 793,-381.2 793,-320.2 556,-320.2"/>
<polygon fill="#f5f5f5" stroke="transparent" points="556.5,-357.7 556.5,-380.7 793.5,-380.7 793.5,-357.7 556.5,-357.7"/>
<polygon fill="none" stroke="#000000" points="556.5,-357.7 556.5,-380.7 793.5,-380.7 793.5,-357.7 556.5,-357.7"/>
<text text-anchor="start" x="561.5" y="-366.3" font-family="Helvetica,sans-Serif" font-weight="bold" font-size="11.00" fill="#000000">court_appearance_movement</text>
<text text-anchor="start" x="759.0219" y="-365.8" font-family="Helvetica,sans-Serif" font-size="11.00" fill="#000000">[table]</text>
<polygon fill="none" stroke="#000000" points="556.5,-338.7 556.5,-357.7 793.5,-357.7 793.5,-338.7 556.5,-338.7"/>
<text text-anchor="start" x="559.5" y="-344.8" font-family="Helvetica,sans-Serif" font-size="11.00" fill="#000000">...</text>
<polygon fill="#ffffff" stroke="transparent" points="556.5,-319.7 556.5,-338.7 673.5,-338.7 673.5,-319.7 556.5,-319.7"/>
<polygon fill="none" stroke="#000000" points="556.5,-319.7 556.5,-338.7 673.5,-338.7 673.5,-319.7 556.5,-319.7"/>
<text text-anchor="start" x="559.5" y="-325.8" font-family="Helvetica,sans-Serif" font-size="11.00" fill="#000000">&lt; 2</text>
<polygon fill="#ffffff" stroke="transparent" points="673.5,-319.7 673.5,-338.7 733.5,-338.7 733.5,-319.7 673.5,-319.7"/>
<polygon fill="none" stroke="#000000" points="673.5,-319.7 673.5,-338.7 733.5,-338.7 733.5,-319.7 673.5,-319.7"/>
<text text-anchor="start" x="724.3862" y="-325.8" font-family="Helvetica,sans-Serif" font-size="11.00" fill="#000000"> &#160;</text>
<polygon fill="#ffffff" stroke="transparent" points="733.5,-319.7 733.5,-338.7 793.5,-338.7 793.5,-319.7 733.5,-319.7"/>
<polygon fill="none" stroke="#000000" points="733.5,-319.7 733.5,-338.7 793.5,-338.7 793.5,-319.7 733.5,-319.7"/>
<text text-anchor="start" x="784.3862" y="-325.8" font-family="Helvetica,sans-Serif" font-size="11.00" fill="#000000"> &#160;</text>
</a>
</g>
</g>
<!-- court_appearance_movement&#45;&gt;court_appearance -->
<g id="edge4" class="edge">
<title>court_appearance_movement:w&#45;&gt;court_appearance:e</title>
<path fill="none" stroke="#000000" d="M542.4495,-343.6677C530.471,-335.6993 526.8749,-318.7 507.5,-318.7"/>
<polygon fill="#000000" stroke="#000000" points="548.8104,-345.4931 555.5069,-351.1603 552.6552,-346.5966 556.5,-347.7 556.5,-347.7 556.5,-347.7 552.6552,-346.5966 557.4931,-344.2397 548.8104,-345.4931 548.8104,-345.4931"/>
<ellipse fill="none" stroke="#000000" cx="545.7346" cy="-344.6104" rx="3.2" ry="3.2"/>
</g>
<!-- court_appearance_movement&#45;&gt;person_summary -->
<g id="edge5" class="edge">
<title>court_appearance_movement:w&#45;&gt;person_summary:e</title>
<path fill="none" stroke="#000000" d="M542.3125,-350.5241C533.73,-354.3744 528.4948,-361.0904 515,-363.7 390.8432,-387.7092 356.9569,-367.7 230.5,-367.7"/>
<polygon fill="#000000" stroke="#000000" points="548.6539,-349.2619 557.2028,-351.2307 552.577,-348.4809 556.5,-347.7 556.5,-347.7 556.5,-347.7 552.577,-348.4809 555.7972,-344.1693 548.6539,-349.2619 548.6539,-349.2619"/>
<ellipse fill="none" stroke="#000000" cx="545.5155" cy="-349.8866" rx="3.2" ry="3.2"/>
</g>
</g>
</svg>
