<?xml version="1.0" encoding="UTF-8" standalone="no"?>
<!DOCTYPE svg PUBLIC "-//W3C//DTD SVG 1.1//EN"
 "http://www.w3.org/Graphics/SVG/1.1/DTD/svg11.dtd">
<!-- Generated by graphviz version 2.40.1 (20161225.0304)
 -->
<!-- Title: twoDegreesRelationshipsDiagramImplied Pages: 1 -->
<svg width="809pt" height="475pt"
 viewBox="0.00 0.00 809.00 474.70" xmlns="http://www.w3.org/2000/svg" xmlns:xlink="http://www.w3.org/1999/xlink">
<g id="graph0" class="graph" transform="scale(1 1) rotate(0) translate(4 470.7)">
<title>twoDegreesRelationshipsDiagramImplied</title>
<polygon fill="#ffffff" stroke="transparent" points="-4,4 -4,-470.7 805,-470.7 805,4 -4,4"/>
<text text-anchor="middle" x="72.4936" y="-7.3" font-family="Helvetica,sans-Serif" font-size="11.00" fill="#000000">Generated by SchemaSpy</text>
<!-- court_appearance -->
<g id="node1" class="node">
<title>court_appearance</title>
<g id="a_node1"><a xlink:href="../../tables/court_appearance.html" xlink:title="court_appearance" target="_top">
<polygon fill="#ffffff" stroke="transparent" points="348,-261.7 348,-322.7 507,-322.7 507,-261.7 348,-261.7"/>
<polygon fill="#f5f5f5" stroke="transparent" points="348.5,-299.2 348.5,-322.2 507.5,-322.2 507.5,-299.2 348.5,-299.2"/>
<polygon fill="none" stroke="#000000" points="348.5,-299.2 348.5,-322.2 507.5,-322.2 507.5,-299.2 348.5,-299.2"/>
<text text-anchor="start" x="353.5" y="-307.8" font-family="Helvetica,sans-Serif" font-weight="bold" font-size="11.00" fill="#000000">court_appearance</text>
<text text-anchor="start" x="473.0219" y="-307.3" font-family="Helvetica,sans-Serif" font-size="11.00" fill="#000000">[table]</text>
<polygon fill="none" stroke="#000000" points="348.5,-280.2 348.5,-299.2 507.5,-299.2 507.5,-280.2 348.5,-280.2"/>
<text text-anchor="start" x="351.5" y="-286.3" font-family="Helvetica,sans-Serif" font-size="11.00" fill="#000000">...</text>
<polygon fill="#ffffff" stroke="transparent" points="348.5,-261.2 348.5,-280.2 421.5,-280.2 421.5,-261.2 348.5,-261.2"/>
<polygon fill="none" stroke="#000000" points="348.5,-261.2 348.5,-280.2 421.5,-280.2 421.5,-261.2 348.5,-261.2"/>
<text text-anchor="start" x="351.5" y="-267.3" font-family="Helvetica,sans-Serif" font-size="11.00" fill="#000000">&lt; 4</text>
<polygon fill="#ffffff" stroke="transparent" points="421.5,-261.2 421.5,-280.2 459.5,-280.2 459.5,-261.2 421.5,-261.2"/>
<polygon fill="none" stroke="#000000" points="421.5,-261.2 421.5,-280.2 459.5,-280.2 459.5,-261.2 421.5,-261.2"/>
<text text-anchor="start" x="450.3862" y="-267.3" font-family="Helvetica,sans-Serif" font-size="11.00" fill="#000000"> &#160;</text>
<polygon fill="#ffffff" stroke="transparent" points="459.5,-261.2 459.5,-280.2 507.5,-280.2 507.5,-261.2 459.5,-261.2"/>
<polygon fill="none" stroke="#000000" points="459.5,-261.2 459.5,-280.2 507.5,-280.2 507.5,-261.2 459.5,-261.2"/>
<text text-anchor="start" x="488.9053" y="-267.3" font-family="Helvetica,sans-Serif" font-size="11.00" fill="#000000">1 &gt;</text>
</a>
</g>
</g>
<!-- audit_revision -->
<g id="node2" class="node">
<title>audit_revision</title>
<g id="a_node2"><a xlink:href="../../tables/audit_revision.html" xlink:title="audit_revision" target="_top">
<polygon fill="#ffffff" stroke="transparent" points="86.5,-319.7 86.5,-380.7 220.5,-380.7 220.5,-319.7 86.5,-319.7"/>
<polygon fill="#f5f5f5" stroke="transparent" points="86.5,-357.2 86.5,-380.2 220.5,-380.2 220.5,-357.2 86.5,-357.2"/>
<polygon fill="none" stroke="#000000" points="86.5,-357.2 86.5,-380.2 220.5,-380.2 220.5,-357.2 86.5,-357.2"/>
<text text-anchor="start" x="91.5" y="-365.8" font-family="Helvetica,sans-Serif" font-weight="bold" font-size="11.00" fill="#000000">audit_revision</text>
<text text-anchor="start" x="186.0219" y="-365.3" font-family="Helvetica,sans-Serif" font-size="11.00" fill="#000000">[table]</text>
<polygon fill="none" stroke="#000000" points="86.5,-338.2 86.5,-357.2 220.5,-357.2 220.5,-338.2 86.5,-338.2"/>
<text text-anchor="start" x="89.5" y="-344.3" font-family="Helvetica,sans-Serif" font-size="11.00" fill="#000000">...</text>
<polygon fill="#ffffff" stroke="transparent" points="86.5,-319.2 86.5,-338.2 142.5,-338.2 142.5,-319.2 86.5,-319.2"/>
<polygon fill="none" stroke="#000000" points="86.5,-319.2 86.5,-338.2 142.5,-338.2 142.5,-319.2 86.5,-319.2"/>
<text text-anchor="start" x="89.5" y="-325.3" font-family="Helvetica,sans-Serif" font-size="11.00" fill="#000000"> &#160;</text>
<polygon fill="#ffffff" stroke="transparent" points="142.5,-319.2 142.5,-338.2 176.5,-338.2 176.5,-319.2 142.5,-319.2"/>
<polygon fill="none" stroke="#000000" points="142.5,-319.2 142.5,-338.2 176.5,-338.2 176.5,-319.2 142.5,-319.2"/>
<text text-anchor="start" x="167.3862" y="-325.3" font-family="Helvetica,sans-Serif" font-size="11.00" fill="#000000"> &#160;</text>
<polygon fill="#ffffff" stroke="transparent" points="176.5,-319.2 176.5,-338.2 220.5,-338.2 220.5,-319.2 176.5,-319.2"/>
<polygon fill="none" stroke="#000000" points="176.5,-319.2 176.5,-338.2 220.5,-338.2 220.5,-319.2 176.5,-319.2"/>
<text text-anchor="start" x="201.9053" y="-325.3" font-family="Helvetica,sans-Serif" font-size="11.00" fill="#000000">4 &gt;</text>
</a>
</g>
</g>
<!-- court_appearance&#45;&gt;audit_revision -->
<g id="edge1" class="edge">
<title>court_appearance:w&#45;&gt;audit_revision:e</title>
<path fill="none" stroke="#000000" stroke-dasharray="5,2" d="M329.995,-329.1698C295.8714,-339.1286 256.9665,-347.2 220.5,-347.2"/>
<polygon fill="#000000" stroke="#000000" points="338.0342,-322.5719 340.3407,-330.2322 338.8086,-330.6935 336.5022,-323.0332 338.0342,-322.5719"/>
<polyline fill="none" stroke="#000000" points="339.9535,-326.1714 336.1233,-327.3247 "/>
<ellipse fill="none" stroke="#000000" cx="333.0592" cy="-328.2473" rx="3.2" ry="3.2"/>
</g>
<!-- person_summary -->
<g id="node3" class="node">
<title>person_summary</title>
<g id="a_node3"><a xlink:href="../../tables/person_summary.html" xlink:title="person_summary" target="_top">
<polygon fill="#ffffff" stroke="transparent" points="76.5,-401.7 76.5,-462.7 230.5,-462.7 230.5,-401.7 76.5,-401.7"/>
<polygon fill="#f5f5f5" stroke="transparent" points="76.5,-439.2 76.5,-462.2 230.5,-462.2 230.5,-439.2 76.5,-439.2"/>
<polygon fill="none" stroke="#000000" points="76.5,-439.2 76.5,-462.2 230.5,-462.2 230.5,-439.2 76.5,-439.2"/>
<text text-anchor="start" x="81.5" y="-447.8" font-family="Helvetica,sans-Serif" font-weight="bold" font-size="11.00" fill="#000000">person_summary</text>
<text text-anchor="start" x="196.0219" y="-447.3" font-family="Helvetica,sans-Serif" font-size="11.00" fill="#000000">[table]</text>
<polygon fill="none" stroke="#000000" points="76.5,-420.2 76.5,-439.2 230.5,-439.2 230.5,-420.2 76.5,-420.2"/>
<text text-anchor="start" x="79.5" y="-426.3" font-family="Helvetica,sans-Serif" font-size="11.00" fill="#000000">...</text>
<polygon fill="#ffffff" stroke="transparent" points="76.5,-401.2 76.5,-420.2 142.5,-420.2 142.5,-401.2 76.5,-401.2"/>
<polygon fill="none" stroke="#000000" points="76.5,-401.2 76.5,-420.2 142.5,-420.2 142.5,-401.2 76.5,-401.2"/>
<text text-anchor="start" x="79.5" y="-407.3" font-family="Helvetica,sans-Serif" font-size="11.00" fill="#000000"> &#160;</text>
<polygon fill="#ffffff" stroke="transparent" points="142.5,-401.2 142.5,-420.2 181.5,-420.2 181.5,-401.2 142.5,-401.2"/>
<polygon fill="none" stroke="#000000" points="142.5,-401.2 142.5,-420.2 181.5,-420.2 181.5,-401.2 142.5,-401.2"/>
<text text-anchor="start" x="172.3862" y="-407.3" font-family="Helvetica,sans-Serif" font-size="11.00" fill="#000000"> &#160;</text>
<polygon fill="#ffffff" stroke="transparent" points="181.5,-401.2 181.5,-420.2 230.5,-420.2 230.5,-401.2 181.5,-401.2"/>
<polygon fill="none" stroke="#000000" points="181.5,-401.2 181.5,-420.2 230.5,-420.2 230.5,-401.2 181.5,-401.2"/>
<text text-anchor="start" x="211.9053" y="-407.3" font-family="Helvetica,sans-Serif" font-size="11.00" fill="#000000">2 &gt;</text>
</a>
</g>
</g>
<!-- court_appearance&#45;&gt;person_summary -->
<g id="edge2" class="edge">
<title>court_appearance:w&#45;&gt;person_summary:e</title>
<path fill="none" stroke="#000000" d="M391.3963,-337.6525C355.3456,-377.5287 295.9953,-429.2 230.5,-429.2"/>
<polygon fill="#000000" stroke="#000000" points="395.6597,-332.7875 403.6398,-329.1436 398.296,-329.7792 400.9324,-326.7709 400.9324,-326.7709 400.9324,-326.7709 398.296,-329.7792 398.2249,-324.3982 395.6597,-332.7875 395.6597,-332.7875"/>
<ellipse fill="none" stroke="#000000" cx="393.5507" cy="-335.1942" rx="3.2" ry="3.2"/>
</g>
<!-- court_appearance_reason -->
<g id="node4" class="node">
<title>court_appearance_reason</title>
<g id="a_node4"><a xlink:href="../../tables/court_appearance_reason.html" xlink:title="court_appearance_reason" target="_top">
<polygon fill="#ffffff" stroke="transparent" points="8,-38.2 8,-216.2 299,-216.2 299,-38.2 8,-38.2"/>
<polygon fill="#f5f5f5" stroke="transparent" points="10.5,-191.2 10.5,-214.2 297.5,-214.2 297.5,-191.2 10.5,-191.2"/>
<polygon fill="none" stroke="#000000" points="10.5,-191.2 10.5,-214.2 297.5,-214.2 297.5,-191.2 10.5,-191.2"/>
<text text-anchor="start" x="15.5" y="-199.8" font-family="Helvetica,sans-Serif" font-weight="bold" font-size="11.00" fill="#000000">court_appearance_reason</text>
<text text-anchor="start" x="262.5437" y="-199.3" font-family="Helvetica,sans-Serif" font-size="11.00" fill="#000000">[table]</text>
<polygon fill="none" stroke="#000000" points="10.5,-169.2 10.5,-191.2 203.5,-191.2 203.5,-169.2 10.5,-169.2"/>
<image xlink:href="../../images/primaryKeys.png" width="11px" height="12px" preserveAspectRatio="xMinYMin meet" x="15.5" y="-186.2"/>
<text text-anchor="start" x="30.5" y="-176.3" font-family="Helvetica,sans-Serif" font-size="11.00" fill="#000000">id</text>
<polygon fill="none" stroke="#000000" points="203.5,-169.2 203.5,-191.2 297.5,-191.2 297.5,-169.2 203.5,-169.2"/>
<text text-anchor="start" x="206.4758" y="-176.9" font-family="Helvetica,sans-Serif" font-size="11.00" fill="#000000">uuid[2147483647]</text>
<polygon fill="#ffffff" stroke="transparent" points="10.5,-147.2 10.5,-169.2 203.5,-169.2 203.5,-147.2 10.5,-147.2"/>
<polygon fill="none" stroke="#000000" points="10.5,-147.2 10.5,-169.2 203.5,-169.2 203.5,-147.2 10.5,-147.2"/>
<text text-anchor="start" x="30.5" y="-154.3" font-family="Helvetica,sans-Serif" font-size="11.00" fill="#000000">code</text>
<polygon fill="none" stroke="#000000" points="203.5,-147.2 203.5,-169.2 297.5,-169.2 297.5,-147.2 203.5,-147.2"/>
<text text-anchor="start" x="206.5" y="-154.9" font-family="Helvetica,sans-Serif" font-size="11.00" fill="#000000">varchar[16]</text>
<polygon fill="none" stroke="#000000" points="10.5,-125.2 10.5,-147.2 203.5,-147.2 203.5,-125.2 10.5,-125.2"/>
<text text-anchor="start" x="30.5" y="-132.3" font-family="Helvetica,sans-Serif" font-size="11.00" fill="#000000">description</text>
<polygon fill="none" stroke="#000000" points="203.5,-125.2 203.5,-147.2 297.5,-147.2 297.5,-125.2 203.5,-125.2"/>
<text text-anchor="start" x="206.5" y="-132.9" font-family="Helvetica,sans-Serif" font-size="11.00" fill="#000000">varchar[255]</text>
<polygon fill="#ffffff" stroke="transparent" points="10.5,-103.2 10.5,-125.2 203.5,-125.2 203.5,-103.2 10.5,-103.2"/>
<polygon fill="none" stroke="#000000" points="10.5,-103.2 10.5,-125.2 203.5,-125.2 203.5,-103.2 10.5,-103.2"/>
<text text-anchor="start" x="30.5" y="-110.3" font-family="Helvetica,sans-Serif" font-size="11.00" fill="#000000">sequence_number</text>
<polygon fill="none" stroke="#000000" points="203.5,-103.2 203.5,-125.2 297.5,-125.2 297.5,-103.2 203.5,-103.2"/>
<text text-anchor="start" x="206.5" y="-110.9" font-family="Helvetica,sans-Serif" font-size="11.00" fill="#000000">int4[10]</text>
<polygon fill="none" stroke="#000000" points="10.5,-81.2 10.5,-103.2 203.5,-103.2 203.5,-81.2 10.5,-81.2"/>
<text text-anchor="start" x="30.5" y="-88.3" font-family="Helvetica,sans-Serif" font-size="11.00" fill="#000000">active</text>
<polygon fill="none" stroke="#000000" points="203.5,-81.2 203.5,-103.2 297.5,-103.2 297.5,-81.2 203.5,-81.2"/>
<text text-anchor="start" x="206.5" y="-88.9" font-family="Helvetica,sans-Serif" font-size="11.00" fill="#000000">bool[1]</text>
<polygon fill="none" stroke="#000000" points="10.5,-59.2 10.5,-81.2 203.5,-81.2 203.5,-59.2 10.5,-59.2"/>
<text text-anchor="start" x="30.5" y="-66.3" font-family="Helvetica,sans-Serif" font-size="11.00" fill="#000000">external</text>
<polygon fill="none" stroke="#000000" points="203.5,-59.2 203.5,-81.2 297.5,-81.2 297.5,-59.2 203.5,-59.2"/>
<text text-anchor="start" x="206.5" y="-66.9" font-family="Helvetica,sans-Serif" font-size="11.00" fill="#000000">bool[1]</text>
<polygon fill="#ffffff" stroke="transparent" points="10.5,-40.2 10.5,-59.2 111.5,-59.2 111.5,-40.2 10.5,-40.2"/>
<polygon fill="none" stroke="#000000" points="10.5,-40.2 10.5,-59.2 111.5,-59.2 111.5,-40.2 10.5,-40.2"/>
<text text-anchor="start" x="13.5" y="-46.3" font-family="Helvetica,sans-Serif" font-size="11.00" fill="#000000">&lt; 0</text>
<polygon fill="#ffffff" stroke="transparent" points="111.5,-40.2 111.5,-59.2 203.5,-59.2 203.5,-40.2 111.5,-40.2"/>
<polygon fill="none" stroke="#000000" points="111.5,-40.2 111.5,-59.2 203.5,-59.2 203.5,-40.2 111.5,-40.2"/>
<text text-anchor="start" x="194.3862" y="-46.3" font-family="Helvetica,sans-Serif" font-size="11.00" fill="#000000"> &#160;</text>
<polygon fill="#ffffff" stroke="transparent" points="203.5,-40.2 203.5,-59.2 297.5,-59.2 297.5,-40.2 203.5,-40.2"/>
<polygon fill="none" stroke="#000000" points="203.5,-40.2 203.5,-59.2 297.5,-59.2 297.5,-40.2 203.5,-40.2"/>
<text text-anchor="start" x="278.9053" y="-46.3" font-family="Helvetica,sans-Serif" font-size="11.00" fill="#000000">2 &gt;</text>
<polygon fill="none" stroke="#000000" stroke-width="2" points="9,-39.2 9,-215.2 298,-215.2 298,-39.2 9,-39.2"/>
</a>
</g>
</g>
<!-- court_appearance&#45;&gt;court_appearance_reason -->
<g id="edge3" class="edge">
<title>court_appearance:w&#45;&gt;court_appearance_reason:e</title>
<path fill="none" stroke="#000000" d="M360.3666,-249.1305C353.2632,-243.7123 346.3311,-238.0197 340,-232.2 318.0252,-212.0004 327.3482,-180.2 297.5,-180.2"/>
<polygon fill="#000000" stroke="#000000" points="365.5552,-252.9419 369.8714,-260.5794 368.7789,-255.31 372.0027,-257.678 372.0027,-257.678 372.0027,-257.678 368.7789,-255.31 374.1339,-254.7767 365.5552,-252.9419 365.5552,-252.9419"/>
<ellipse fill="none" stroke="#000000" cx="362.9762" cy="-251.0475" rx="3.2" ry="3.2"/>
</g>
<!-- court_appearance_status -->
<g id="node5" class="node">
<title>court_appearance_status</title>
<g id="a_node5"><a xlink:href="../../tables/court_appearance_status.html" xlink:title="court_appearance_status" target="_top">
<polygon fill="#ffffff" stroke="transparent" points="49.5,-237.7 49.5,-298.7 257.5,-298.7 257.5,-237.7 49.5,-237.7"/>
<polygon fill="#f5f5f5" stroke="transparent" points="49.5,-275.2 49.5,-298.2 257.5,-298.2 257.5,-275.2 49.5,-275.2"/>
<polygon fill="none" stroke="#000000" points="49.5,-275.2 49.5,-298.2 257.5,-298.2 257.5,-275.2 49.5,-275.2"/>
<text text-anchor="start" x="54.5" y="-283.8" font-family="Helvetica,sans-Serif" font-weight="bold" font-size="11.00" fill="#000000">court_appearance_status</text>
<text text-anchor="start" x="223.0219" y="-283.3" font-family="Helvetica,sans-Serif" font-size="11.00" fill="#000000">[table]</text>
<polygon fill="none" stroke="#000000" points="49.5,-256.2 49.5,-275.2 257.5,-275.2 257.5,-256.2 49.5,-256.2"/>
<text text-anchor="start" x="52.5" y="-262.3" font-family="Helvetica,sans-Serif" font-size="11.00" fill="#000000">...</text>
<polygon fill="#ffffff" stroke="transparent" points="49.5,-237.2 49.5,-256.2 142.5,-256.2 142.5,-237.2 49.5,-237.2"/>
<polygon fill="none" stroke="#000000" points="49.5,-237.2 49.5,-256.2 142.5,-256.2 142.5,-237.2 49.5,-237.2"/>
<text text-anchor="start" x="52.5" y="-243.3" font-family="Helvetica,sans-Serif" font-size="11.00" fill="#000000"> &#160;</text>
<polygon fill="#ffffff" stroke="transparent" points="142.5,-237.2 142.5,-256.2 195.5,-256.2 195.5,-237.2 142.5,-237.2"/>
<polygon fill="none" stroke="#000000" points="142.5,-237.2 142.5,-256.2 195.5,-256.2 195.5,-237.2 142.5,-237.2"/>
<text text-anchor="start" x="186.3862" y="-243.3" font-family="Helvetica,sans-Serif" font-size="11.00" fill="#000000"> &#160;</text>
<polygon fill="#ffffff" stroke="transparent" points="195.5,-237.2 195.5,-256.2 257.5,-256.2 257.5,-237.2 195.5,-237.2"/>
<polygon fill="none" stroke="#000000" points="195.5,-237.2 195.5,-256.2 257.5,-256.2 257.5,-237.2 195.5,-237.2"/>
<text text-anchor="start" x="238.9053" y="-243.3" font-family="Helvetica,sans-Serif" font-size="11.00" fill="#000000">1 &gt;</text>
</a>
</g>
</g>
<!-- court_appearance&#45;&gt;court_appearance_status -->
<g id="edge4" class="edge">
<title>court_appearance:w&#45;&gt;court_appearance_status:e</title>
<path fill="none" stroke="#000000" d="M325.2781,-270.6415C303.0388,-267.4456 279.5627,-265.2 257.5,-265.2"/>
<polygon fill="#000000" stroke="#000000" points="331.7803,-271.6448 339.1377,-276.4228 335.7335,-272.2549 339.6867,-272.8649 339.6867,-272.8649 339.6867,-272.8649 335.7335,-272.2549 340.2358,-269.307 331.7803,-271.6448 331.7803,-271.6448"/>
<ellipse fill="none" stroke="#000000" cx="328.6177" cy="-271.1568" rx="3.2" ry="3.2"/>
</g>
<!-- court_appearance_movement -->
<g id="node6" class="node">
<title>court_appearance_movement</title>
<g id="a_node6"><a xlink:href="../../tables/court_appearance_movement.html" xlink:title="court_appearance_movement" target="_top">
<polygon fill="#ffffff" stroke="transparent" points="556,-261.7 556,-322.7 793,-322.7 793,-261.7 556,-261.7"/>
<polygon fill="#f5f5f5" stroke="transparent" points="556.5,-299.2 556.5,-322.2 793.5,-322.2 793.5,-299.2 556.5,-299.2"/>
<polygon fill="none" stroke="#000000" points="556.5,-299.2 556.5,-322.2 793.5,-322.2 793.5,-299.2 556.5,-299.2"/>
<text text-anchor="start" x="561.5" y="-307.8" font-family="Helvetica,sans-Serif" font-weight="bold" font-size="11.00" fill="#000000">court_appearance_movement</text>
<text text-anchor="start" x="759.0219" y="-307.3" font-family="Helvetica,sans-Serif" font-size="11.00" fill="#000000">[table]</text>
<polygon fill="none" stroke="#000000" points="556.5,-280.2 556.5,-299.2 793.5,-299.2 793.5,-280.2 556.5,-280.2"/>
<text text-anchor="start" x="559.5" y="-286.3" font-family="Helvetica,sans-Serif" font-size="11.00" fill="#000000">...</text>
<polygon fill="#ffffff" stroke="transparent" points="556.5,-261.2 556.5,-280.2 673.5,-280.2 673.5,-261.2 556.5,-261.2"/>
<polygon fill="none" stroke="#000000" points="556.5,-261.2 556.5,-280.2 673.5,-280.2 673.5,-261.2 556.5,-261.2"/>
<text text-anchor="start" x="559.5" y="-267.3" font-family="Helvetica,sans-Serif" font-size="11.00" fill="#000000">&lt; 3</text>
<polygon fill="#ffffff" stroke="transparent" points="673.5,-261.2 673.5,-280.2 733.5,-280.2 733.5,-261.2 673.5,-261.2"/>
<polygon fill="none" stroke="#000000" points="673.5,-261.2 673.5,-280.2 733.5,-280.2 733.5,-261.2 673.5,-261.2"/>
<text text-anchor="start" x="724.3862" y="-267.3" font-family="Helvetica,sans-Serif" font-size="11.00" fill="#000000"> &#160;</text>
<polygon fill="#ffffff" stroke="transparent" points="733.5,-261.2 733.5,-280.2 793.5,-280.2 793.5,-261.2 733.5,-261.2"/>
<polygon fill="none" stroke="#000000" points="733.5,-261.2 733.5,-280.2 793.5,-280.2 793.5,-261.2 733.5,-261.2"/>
<text text-anchor="start" x="784.3862" y="-267.3" font-family="Helvetica,sans-Serif" font-size="11.00" fill="#000000"> &#160;</text>
</a>
</g>
</g>
<!-- court_appearance_movement&#45;&gt;court_appearance -->
<g id="edge5" class="edge">
<title>court_appearance_movement:w&#45;&gt;court_appearance:e</title>
<path fill="none" stroke="#000000" d="M533.3351,-292.2C527.1935,-292.2 521.1114,-292.2 515.1513,-292.2"/>
<polygon fill="#000000" stroke="#000000" points="539.744,-292.2001 547.744,-295.8 543.744,-292.2 547.744,-292.2 547.744,-292.2 547.744,-292.2 543.744,-292.2 547.744,-288.6 539.744,-292.2001 539.744,-292.2001"/>
<ellipse fill="none" stroke="#000000" cx="536.544" cy="-292.2001" rx="3.2" ry="3.2"/>
</g>
<!-- court_appearance_movement&#45;&gt;person_summary -->
<g id="edge6" class="edge">
<title>court_appearance_movement:w&#45;&gt;person_summary:e</title>
<path fill="none" stroke="#000000" d="M594.0408,-332.9828C506.8054,-373.3628 362.3409,-429.2 230.5,-429.2"/>
<polygon fill="#000000" stroke="#000000" points="600.0344,-330.1698 608.806,-330.0298 603.6554,-328.4704 607.2765,-326.7709 607.2765,-326.7709 607.2765,-326.7709 603.6554,-328.4704 605.7469,-323.512 600.0344,-330.1698 600.0344,-330.1698"/>
<ellipse fill="none" stroke="#000000" cx="597.1376" cy="-331.5294" rx="3.2" ry="3.2"/>
</g>
<!-- court_appearance_movement&#45;&gt;court_appearance_reason -->
<g id="edge7" class="edge">
<title>court_appearance_movement:w&#45;&gt;court_appearance_reason:e</title>
<path fill="none" stroke="#000000" d="M589.8343,-251.7889C514.7867,-219.7037 401.3088,-180.2 297.5,-180.2"/>
<polygon fill="#000000" stroke="#000000" points="596.0526,-254.4925 601.9537,-260.9839 599.7208,-256.0875 603.3891,-257.6824 603.3891,-257.6824 603.3891,-257.6824 599.7208,-256.0875 604.8246,-254.381 596.0526,-254.4925 596.0526,-254.4925"/>
<ellipse fill="none" stroke="#000000" cx="593.118" cy="-253.2166" rx="3.2" ry="3.2"/>
</g>
</g>
</svg>
