<?xml version="1.0" encoding="UTF-8" standalone="no"?>
<!DOCTYPE svg PUBLIC "-//W3C//DTD SVG 1.1//EN"
 "http://www.w3.org/Graphics/SVG/1.1/DTD/svg11.dtd">
<!-- Generated by graphviz version 2.40.1 (20161225.0304)
 -->
<!-- Title: twoDegreesRelationshipsDiagram Pages: 1 -->
<svg width="487pt" height="509pt"
 viewBox="0.00 0.00 487.00 508.70" xmlns="http://www.w3.org/2000/svg" xmlns:xlink="http://www.w3.org/1999/xlink">
<g id="graph0" class="graph" transform="scale(1 1) rotate(0) translate(4 504.7)">
<title>twoDegreesRelationshipsDiagram</title>
<polygon fill="#ffffff" stroke="transparent" points="-4,4 -4,-504.7 483,-504.7 483,4 -4,4"/>
<text text-anchor="middle" x="72.4936" y="-7.3" font-family="Helvetica,sans-Serif" font-size="11.00" fill="#000000">Generated by SchemaSpy</text>
<!-- court_appearance_audit -->
<g id="node1" class="node">
<title>court_appearance_audit</title>
<g id="a_node1"><a xlink:href="../../tables/court_appearance_audit.html" xlink:title="court_appearance_audit" target="_top">
<polygon fill="#ffffff" stroke="transparent" points="191,-120.7 191,-496.7 471,-496.7 471,-120.7 191,-120.7"/>
<polygon fill="#f5f5f5" stroke="transparent" points="193,-471.7 193,-494.7 469,-494.7 469,-471.7 193,-471.7"/>
<polygon fill="none" stroke="#000000" points="193,-471.7 193,-494.7 469,-494.7 469,-471.7 193,-471.7"/>
<text text-anchor="start" x="198" y="-480.3" font-family="Helvetica,sans-Serif" font-weight="bold" font-size="11.00" fill="#000000">court_appearance_audit</text>
<text text-anchor="start" x="434.0437" y="-479.8" font-family="Helvetica,sans-Serif" font-size="11.00" fill="#000000">[table]</text>
<polygon fill="none" stroke="#000000" points="193,-449.7 193,-471.7 375,-471.7 375,-449.7 193,-449.7"/>
<image xlink:href="../../images/primaryKeys.png" width="11px" height="12px" preserveAspectRatio="xMinYMin meet" x="198" y="-466.7"/>
<text text-anchor="start" x="213" y="-456.8" font-family="Helvetica,sans-Serif" font-size="11.00" fill="#000000">rev_id</text>
<polygon fill="none" stroke="#000000" points="375,-449.7 375,-471.7 469,-471.7 469,-449.7 375,-449.7"/>
<text text-anchor="start" x="378" y="-457.4" font-family="Helvetica,sans-Serif" font-size="11.00" fill="#000000">int8[19]</text>
<polygon fill="none" stroke="#000000" points="193,-427.7 193,-449.7 375,-449.7 375,-427.7 193,-427.7"/>
<text text-anchor="start" x="213" y="-434.8" font-family="Helvetica,sans-Serif" font-size="11.00" fill="#000000">rev_type</text>
<polygon fill="none" stroke="#000000" points="375,-427.7 375,-449.7 469,-449.7 469,-427.7 375,-427.7"/>
<text text-anchor="start" x="378" y="-435.4" font-family="Helvetica,sans-Serif" font-size="11.00" fill="#000000">int2[5]</text>
<polygon fill="none" stroke="#000000" points="193,-405.7 193,-427.7 375,-427.7 375,-405.7 193,-405.7"/>
<image xlink:href="../../images/primaryKeys.png" width="11px" height="12px" preserveAspectRatio="xMinYMin meet" x="198" y="-422.7"/>
<text text-anchor="start" x="213" y="-412.8" font-family="Helvetica,sans-Serif" font-size="11.00" fill="#000000">id</text>
<polygon fill="none" stroke="#000000" points="375,-405.7 375,-427.7 469,-427.7 469,-405.7 375,-405.7"/>
<text text-anchor="start" x="377.9758" y="-413.4" font-family="Helvetica,sans-Serif" font-size="11.00" fill="#000000">uuid[2147483647]</text>
<polygon fill="none" stroke="#000000" points="193,-383.7 193,-405.7 375,-405.7 375,-383.7 193,-383.7"/>
<text text-anchor="start" x="213" y="-390.8" font-family="Helvetica,sans-Serif" font-size="11.00" fill="#000000">version</text>
<polygon fill="none" stroke="#000000" points="375,-383.7 375,-405.7 469,-405.7 469,-383.7 375,-383.7"/>
<text text-anchor="start" x="378" y="-391.4" font-family="Helvetica,sans-Serif" font-size="11.00" fill="#000000">int4[10]</text>
<polygon fill="none" stroke="#000000" points="193,-361.7 193,-383.7 375,-383.7 375,-361.7 193,-361.7"/>
<image xlink:href="../../images/foreignKeys.png" width="11px" height="12px" preserveAspectRatio="xMinYMin meet" x="198" y="-378.7"/>
<text text-anchor="start" x="213" y="-368.8" font-family="Helvetica,sans-Serif" font-size="11.00" fill="#000000">person_identifier</text>
<polygon fill="none" stroke="#000000" points="375,-361.7 375,-383.7 469,-383.7 469,-361.7 375,-361.7"/>
<text text-anchor="start" x="378" y="-369.4" font-family="Helvetica,sans-Serif" font-size="11.00" fill="#000000">varchar[10]</text>
<polygon fill="none" stroke="#000000" points="193,-339.7 193,-361.7 375,-361.7 375,-339.7 193,-339.7"/>
<text text-anchor="start" x="213" y="-346.8" font-family="Helvetica,sans-Serif" font-size="11.00" fill="#000000">prison_code</text>
<polygon fill="none" stroke="#000000" points="375,-339.7 375,-361.7 469,-361.7 469,-339.7 375,-339.7"/>
<text text-anchor="start" x="378" y="-347.4" font-family="Helvetica,sans-Serif" font-size="11.00" fill="#000000">varchar[6]</text>
<polygon fill="none" stroke="#000000" points="193,-317.7 193,-339.7 375,-339.7 375,-317.7 193,-317.7"/>
<text text-anchor="start" x="213" y="-324.8" font-family="Helvetica,sans-Serif" font-size="11.00" fill="#000000">court_code</text>
<polygon fill="none" stroke="#000000" points="375,-317.7 375,-339.7 469,-339.7 469,-317.7 375,-317.7"/>
<text text-anchor="start" x="378" y="-325.4" font-family="Helvetica,sans-Serif" font-size="11.00" fill="#000000">varchar[6]</text>
<polygon fill="none" stroke="#000000" points="193,-295.7 193,-317.7 375,-317.7 375,-295.7 193,-295.7"/>
<text text-anchor="start" x="213" y="-302.8" font-family="Helvetica,sans-Serif" font-size="11.00" fill="#000000">reason_id</text>
<polygon fill="none" stroke="#000000" points="375,-295.7 375,-317.7 469,-317.7 469,-295.7 375,-295.7"/>
<text text-anchor="start" x="377.9758" y="-303.4" font-family="Helvetica,sans-Serif" font-size="11.00" fill="#000000">uuid[2147483647]</text>
<polygon fill="none" stroke="#000000" points="193,-273.7 193,-295.7 375,-295.7 375,-273.7 193,-273.7"/>
<text text-anchor="start" x="213" y="-280.8" font-family="Helvetica,sans-Serif" font-size="11.00" fill="#000000">external</text>
<polygon fill="none" stroke="#000000" points="375,-273.7 375,-295.7 469,-295.7 469,-273.7 375,-273.7"/>
<text text-anchor="start" x="378" y="-281.4" font-family="Helvetica,sans-Serif" font-size="11.00" fill="#000000">bool[1]</text>
<polygon fill="none" stroke="#000000" points="193,-251.7 193,-273.7 375,-273.7 375,-251.7 193,-251.7"/>
<text text-anchor="start" x="213" y="-258.8" font-family="Helvetica,sans-Serif" font-size="11.00" fill="#000000">status_id</text>
<polygon fill="none" stroke="#000000" points="375,-251.7 375,-273.7 469,-273.7 469,-251.7 375,-251.7"/>
<text text-anchor="start" x="377.9758" y="-259.4" font-family="Helvetica,sans-Serif" font-size="11.00" fill="#000000">uuid[2147483647]</text>
<polygon fill="none" stroke="#000000" points="193,-229.7 193,-251.7 375,-251.7 375,-229.7 193,-229.7"/>
<text text-anchor="start" x="213" y="-236.8" font-family="Helvetica,sans-Serif" font-size="11.00" fill="#000000">start</text>
<polygon fill="none" stroke="#000000" points="375,-229.7 375,-251.7 469,-251.7 469,-229.7 375,-229.7"/>
<text text-anchor="start" x="378" y="-237.4" font-family="Helvetica,sans-Serif" font-size="11.00" fill="#000000">timestamp[29,6]</text>
<polygon fill="none" stroke="#000000" points="193,-207.7 193,-229.7 375,-229.7 375,-207.7 193,-207.7"/>
<text text-anchor="start" x="213" y="-214.8" font-family="Helvetica,sans-Serif" font-size="11.00" fill="#000000">end</text>
<polygon fill="none" stroke="#000000" points="375,-207.7 375,-229.7 469,-229.7 469,-207.7 375,-207.7"/>
<text text-anchor="start" x="378" y="-215.4" font-family="Helvetica,sans-Serif" font-size="11.00" fill="#000000">timestamp[29,6]</text>
<polygon fill="none" stroke="#000000" points="193,-185.7 193,-207.7 375,-207.7 375,-185.7 193,-185.7"/>
<text text-anchor="start" x="213" y="-192.8" font-family="Helvetica,sans-Serif" font-size="11.00" fill="#000000">comments</text>
<polygon fill="none" stroke="#000000" points="375,-185.7 375,-207.7 469,-207.7 469,-185.7 375,-185.7"/>
<text text-anchor="start" x="378" y="-193.4" font-family="Helvetica,sans-Serif" font-size="11.00" fill="#000000">text[2147483647]</text>
<polygon fill="none" stroke="#000000" points="193,-163.7 193,-185.7 375,-185.7 375,-163.7 193,-163.7"/>
<image xlink:href="../../images/foreignKeys.png" width="11px" height="12px" preserveAspectRatio="xMinYMin meet" x="198" y="-180.7"/>
<text text-anchor="start" x="213" y="-170.8" font-family="Helvetica,sans-Serif" font-size="11.00" fill="#000000">legacy_id</text>
<polygon fill="none" stroke="#000000" points="375,-163.7 375,-185.7 469,-185.7 469,-163.7 375,-163.7"/>
<text text-anchor="start" x="378" y="-171.4" font-family="Helvetica,sans-Serif" font-size="11.00" fill="#000000">int8[19]</text>
<polygon fill="none" stroke="#000000" points="193,-141.7 193,-163.7 375,-163.7 375,-141.7 193,-141.7"/>
<text text-anchor="start" x="213" y="-148.8" font-family="Helvetica,sans-Serif" font-size="11.00" fill="#000000">external_reference</text>
<polygon fill="none" stroke="#000000" points="375,-141.7 375,-163.7 469,-163.7 469,-141.7 375,-141.7"/>
<text text-anchor="start" x="378" y="-149.4" font-family="Helvetica,sans-Serif" font-size="11.00" fill="#000000">text[2147483647]</text>
<polygon fill="#ffffff" stroke="transparent" points="193,-122.7 193,-141.7 288,-141.7 288,-122.7 193,-122.7"/>
<polygon fill="none" stroke="#000000" points="193,-122.7 193,-141.7 288,-141.7 288,-122.7 193,-122.7"/>
<text text-anchor="start" x="196" y="-128.8" font-family="Helvetica,sans-Serif" font-size="11.00" fill="#000000">&lt; 1</text>
<polygon fill="#ffffff" stroke="transparent" points="288,-122.7 288,-141.7 375,-141.7 375,-122.7 288,-122.7"/>
<polygon fill="none" stroke="#000000" points="288,-122.7 288,-141.7 375,-141.7 375,-122.7 288,-122.7"/>
<text text-anchor="start" x="365.8862" y="-128.8" font-family="Helvetica,sans-Serif" font-size="11.00" fill="#000000"> &#160;</text>
<polygon fill="#ffffff" stroke="transparent" points="375,-122.7 375,-141.7 469,-141.7 469,-122.7 375,-122.7"/>
<polygon fill="none" stroke="#000000" points="375,-122.7 375,-141.7 469,-141.7 469,-122.7 375,-122.7"/>
<text text-anchor="start" x="450.4053" y="-128.8" font-family="Helvetica,sans-Serif" font-size="11.00" fill="#000000">0 &gt;</text>
<polygon fill="none" stroke="#000000" stroke-width="2" points="192,-121.7 192,-495.7 470,-495.7 470,-121.7 192,-121.7"/>
</a>
</g>
</g>
<!-- audit_revision -->
<g id="node2" class="node">
<title>audit_revision</title>
<g id="a_node2"><a xlink:href="../../tables/audit_revision.html" xlink:title="audit_revision" target="_top">
<polygon fill="#ffffff" stroke="transparent" points="8,-214.2 8,-297.2 142,-297.2 142,-214.2 8,-214.2"/>
<polygon fill="#f5f5f5" stroke="transparent" points="8,-273.7 8,-296.7 142,-296.7 142,-273.7 8,-273.7"/>
<polygon fill="none" stroke="#000000" points="8,-273.7 8,-296.7 142,-296.7 142,-273.7 8,-273.7"/>
<text text-anchor="start" x="13" y="-282.3" font-family="Helvetica,sans-Serif" font-weight="bold" font-size="11.00" fill="#000000">audit_revision</text>
<text text-anchor="start" x="107.5219" y="-281.8" font-family="Helvetica,sans-Serif" font-size="11.00" fill="#000000">[table]</text>
<polygon fill="none" stroke="#000000" points="8,-251.7 8,-273.7 142,-273.7 142,-251.7 8,-251.7"/>
<image xlink:href="../../images/primaryKeys.png" width="11px" height="12px" preserveAspectRatio="xMinYMin meet" x="13" y="-268.7"/>
<text text-anchor="start" x="28" y="-258.8" font-family="Helvetica,sans-Serif" font-size="11.00" fill="#000000">id</text>
<polygon fill="none" stroke="#000000" points="8,-232.7 8,-251.7 142,-251.7 142,-232.7 8,-232.7"/>
<text text-anchor="start" x="11" y="-238.8" font-family="Helvetica,sans-Serif" font-size="11.00" fill="#000000">...</text>
<polygon fill="#ffffff" stroke="transparent" points="8,-213.7 8,-232.7 64,-232.7 64,-213.7 8,-213.7"/>
<polygon fill="none" stroke="#000000" points="8,-213.7 8,-232.7 64,-232.7 64,-213.7 8,-213.7"/>
<text text-anchor="start" x="11" y="-219.8" font-family="Helvetica,sans-Serif" font-size="11.00" fill="#000000"> &#160;</text>
<polygon fill="#ffffff" stroke="transparent" points="64,-213.7 64,-232.7 98,-232.7 98,-213.7 64,-213.7"/>
<polygon fill="none" stroke="#000000" points="64,-213.7 64,-232.7 98,-232.7 98,-213.7 64,-213.7"/>
<text text-anchor="start" x="88.8862" y="-219.8" font-family="Helvetica,sans-Serif" font-size="11.00" fill="#000000"> &#160;</text>
<polygon fill="#ffffff" stroke="transparent" points="98,-213.7 98,-232.7 142,-232.7 142,-213.7 98,-213.7"/>
<polygon fill="none" stroke="#000000" points="98,-213.7 98,-232.7 142,-232.7 142,-213.7 98,-213.7"/>
<text text-anchor="start" x="123.4053" y="-219.8" font-family="Helvetica,sans-Serif" font-size="11.00" fill="#000000">2 &gt;</text>
</a>
</g>
</g>
<!-- court_appearance_audit&#45;&gt;audit_revision -->
<g id="edge1" class="edge">
<title>court_appearance_audit:w&#45;&gt;audit_revision:e</title>
<path fill="none" stroke="#000000" d="M178.4503,-458.4764C117.6051,-436.7234 227.1928,-262.7 142,-262.7"/>
<polygon fill="#000000" stroke="#000000" points="185.0918,-459.4913 192.4561,-464.2587 189.0459,-460.0957 193,-460.7 193,-460.7 193,-460.7 189.0459,-460.0957 193.5439,-457.1413 185.0918,-459.4913 185.0918,-459.4913"/>
<ellipse fill="none" stroke="#000000" cx="181.9286" cy="-459.0079" rx="3.2" ry="3.2"/>
</g>
<!-- court_appearance_movement_audit -->
<g id="node3" class="node">
<title>court_appearance_movement_audit</title>
<g id="a_node3"><a xlink:href="../../tables/court_appearance_movement_audit.html" xlink:title="court_appearance_movement_audit" target="_top">
<polygon fill="#ffffff" stroke="transparent" points="192,-38.2 192,-99.2 470,-99.2 470,-38.2 192,-38.2"/>
<polygon fill="#f5f5f5" stroke="transparent" points="192,-75.7 192,-98.7 470,-98.7 470,-75.7 192,-75.7"/>
<polygon fill="none" stroke="#000000" points="192,-75.7 192,-98.7 470,-98.7 470,-75.7 192,-75.7"/>
<text text-anchor="start" x="197" y="-84.3" font-family="Helvetica,sans-Serif" font-weight="bold" font-size="11.00" fill="#000000">court_appearance_movement_audit</text>
<text text-anchor="start" x="435.5219" y="-83.8" font-family="Helvetica,sans-Serif" font-size="11.00" fill="#000000">[table]</text>
<polygon fill="none" stroke="#000000" points="192,-56.7 192,-75.7 470,-75.7 470,-56.7 192,-56.7"/>
<text text-anchor="start" x="195" y="-62.8" font-family="Helvetica,sans-Serif" font-size="11.00" fill="#000000">...</text>
<polygon fill="#ffffff" stroke="transparent" points="192,-37.7 192,-56.7 329,-56.7 329,-37.7 192,-37.7"/>
<polygon fill="none" stroke="#000000" points="192,-37.7 192,-56.7 329,-56.7 329,-37.7 192,-37.7"/>
<text text-anchor="start" x="195" y="-43.8" font-family="Helvetica,sans-Serif" font-size="11.00" fill="#000000">&lt; 1</text>
<polygon fill="#ffffff" stroke="transparent" points="329,-37.7 329,-56.7 399,-56.7 399,-37.7 329,-37.7"/>
<polygon fill="none" stroke="#000000" points="329,-37.7 329,-56.7 399,-56.7 399,-37.7 329,-37.7"/>
<text text-anchor="start" x="389.8862" y="-43.8" font-family="Helvetica,sans-Serif" font-size="11.00" fill="#000000"> &#160;</text>
<polygon fill="#ffffff" stroke="transparent" points="399,-37.7 399,-56.7 470,-56.7 470,-37.7 399,-37.7"/>
<polygon fill="none" stroke="#000000" points="399,-37.7 399,-56.7 470,-56.7 470,-37.7 399,-37.7"/>
<text text-anchor="start" x="460.8862" y="-43.8" font-family="Helvetica,sans-Serif" font-size="11.00" fill="#000000"> &#160;</text>
</a>
</g>
</g>
<!-- court_appearance_movement_audit&#45;&gt;audit_revision -->
<g id="edge2" class="edge">
<title>court_appearance_movement_audit:w&#45;&gt;audit_revision:e</title>
<path fill="none" stroke="#000000" d="M177.5447,-67.9124C117.138,-89.5555 226.6859,-262.7 142,-262.7"/>
<polygon fill="#000000" stroke="#000000" points="184.0921,-66.9104 192.5447,-69.2586 188.046,-66.3052 192,-65.7 192,-65.7 192,-65.7 188.046,-66.3052 191.4553,-62.1414 184.0921,-66.9104 184.0921,-66.9104"/>
<ellipse fill="none" stroke="#000000" cx="180.9289" cy="-67.3945" rx="3.2" ry="3.2"/>
</g>
</g>
</svg>
