<?xml version="1.0" encoding="UTF-8" standalone="no"?>
<!DOCTYPE svg PUBLIC "-//W3C//DTD SVG 1.1//EN"
 "http://www.w3.org/Graphics/SVG/1.1/DTD/svg11.dtd">
<!-- Generated by graphviz version 2.40.1 (20161225.0304)
 -->
<!-- Title: twoDegreesRelationshipsDiagramImplied Pages: 1 -->
<svg width="793pt" height="642pt"
 viewBox="0.00 0.00 793.00 641.95" xmlns="http://www.w3.org/2000/svg" xmlns:xlink="http://www.w3.org/1999/xlink">
<g id="graph0" class="graph" transform="scale(1 1) rotate(0) translate(4 637.9503)">
<title>twoDegreesRelationshipsDiagramImplied</title>
<polygon fill="#ffffff" stroke="transparent" points="-4,4 -4,-637.9503 789,-637.9503 789,4 -4,4"/>
<text text-anchor="middle" x="72.4936" y="-7.3" font-family="Helvetica,sans-Serif" font-size="11.00" fill="#000000">Generated by SchemaSpy</text>
<!-- court_appearance -->
<g id="node1" class="node">
<title>court_appearance</title>
<g id="a_node1"><a xlink:href="../../tables/court_appearance.html" xlink:title="court_appearance" target="_top">
<polygon fill="#ffffff" stroke="transparent" points="271.5,-171.4503 271.5,-232.4503 430.5,-232.4503 430.5,-171.4503 271.5,-171.4503"/>
<polygon fill="#f5f5f5" stroke="transparent" points="272,-208.9503 272,-231.9503 431,-231.9503 431,-208.9503 272,-208.9503"/>
<polygon fill="none" stroke="#000000" points="272,-208.9503 272,-231.9503 431,-231.9503 431,-208.9503 272,-208.9503"/>
<text text-anchor="start" x="277" y="-217.5503" font-family="Helvetica,sans-Serif" font-weight="bold" font-size="11.00" fill="#000000">court_appearance</text>
<text text-anchor="start" x="396.5219" y="-217.0503" font-family="Helvetica,sans-Serif" font-size="11.00" fill="#000000">[table]</text>
<polygon fill="none" stroke="#000000" points="272,-189.9503 272,-208.9503 431,-208.9503 431,-189.9503 272,-189.9503"/>
<text text-anchor="start" x="275" y="-196.0503" font-family="Helvetica,sans-Serif" font-size="11.00" fill="#000000">...</text>
<polygon fill="#ffffff" stroke="transparent" points="272,-170.9503 272,-189.9503 345,-189.9503 345,-170.9503 272,-170.9503"/>
<polygon fill="none" stroke="#000000" points="272,-170.9503 272,-189.9503 345,-189.9503 345,-170.9503 272,-170.9503"/>
<text text-anchor="start" x="275" y="-177.0503" font-family="Helvetica,sans-Serif" font-size="11.00" fill="#000000">&lt; 4</text>
<polygon fill="#ffffff" stroke="transparent" points="345,-170.9503 345,-189.9503 383,-189.9503 383,-170.9503 345,-170.9503"/>
<polygon fill="none" stroke="#000000" points="345,-170.9503 345,-189.9503 383,-189.9503 383,-170.9503 345,-170.9503"/>
<text text-anchor="start" x="373.8862" y="-177.0503" font-family="Helvetica,sans-Serif" font-size="11.00" fill="#000000"> &#160;</text>
<polygon fill="#ffffff" stroke="transparent" points="383,-170.9503 383,-189.9503 431,-189.9503 431,-170.9503 383,-170.9503"/>
<polygon fill="none" stroke="#000000" points="383,-170.9503 383,-189.9503 431,-189.9503 431,-170.9503 383,-170.9503"/>
<text text-anchor="start" x="412.4053" y="-177.0503" font-family="Helvetica,sans-Serif" font-size="11.00" fill="#000000">1 &gt;</text>
</a>
</g>
</g>
<!-- audit_revision -->
<g id="node2" class="node">
<title>audit_revision</title>
<g id="a_node2"><a xlink:href="../../tables/audit_revision.html" xlink:title="audit_revision" target="_top">
<polygon fill="#ffffff" stroke="transparent" points="18,-237.4503 18,-320.4503 152,-320.4503 152,-237.4503 18,-237.4503"/>
<polygon fill="#f5f5f5" stroke="transparent" points="18,-296.9503 18,-319.9503 152,-319.9503 152,-296.9503 18,-296.9503"/>
<polygon fill="none" stroke="#000000" points="18,-296.9503 18,-319.9503 152,-319.9503 152,-296.9503 18,-296.9503"/>
<text text-anchor="start" x="23" y="-305.5503" font-family="Helvetica,sans-Serif" font-weight="bold" font-size="11.00" fill="#000000">audit_revision</text>
<text text-anchor="start" x="117.5219" y="-305.0503" font-family="Helvetica,sans-Serif" font-size="11.00" fill="#000000">[table]</text>
<polygon fill="none" stroke="#000000" points="18,-274.9503 18,-296.9503 152,-296.9503 152,-274.9503 18,-274.9503"/>
<image xlink:href="../../images/primaryKeys.png" width="11px" height="12px" preserveAspectRatio="xMinYMin meet" x="23" y="-291.95"/>
<text text-anchor="start" x="38" y="-282.0503" font-family="Helvetica,sans-Serif" font-size="11.00" fill="#000000">id</text>
<polygon fill="none" stroke="#000000" points="18,-255.9503 18,-274.9503 152,-274.9503 152,-255.9503 18,-255.9503"/>
<text text-anchor="start" x="21" y="-262.0503" font-family="Helvetica,sans-Serif" font-size="11.00" fill="#000000">...</text>
<polygon fill="#ffffff" stroke="transparent" points="18,-236.9503 18,-255.9503 74,-255.9503 74,-236.9503 18,-236.9503"/>
<polygon fill="none" stroke="#000000" points="18,-236.9503 18,-255.9503 74,-255.9503 74,-236.9503 18,-236.9503"/>
<text text-anchor="start" x="21" y="-243.0503" font-family="Helvetica,sans-Serif" font-size="11.00" fill="#000000"> &#160;</text>
<polygon fill="#ffffff" stroke="transparent" points="74,-236.9503 74,-255.9503 108,-255.9503 108,-236.9503 74,-236.9503"/>
<polygon fill="none" stroke="#000000" points="74,-236.9503 74,-255.9503 108,-255.9503 108,-236.9503 74,-236.9503"/>
<text text-anchor="start" x="98.8862" y="-243.0503" font-family="Helvetica,sans-Serif" font-size="11.00" fill="#000000"> &#160;</text>
<polygon fill="#ffffff" stroke="transparent" points="108,-236.9503 108,-255.9503 152,-255.9503 152,-236.9503 108,-236.9503"/>
<polygon fill="none" stroke="#000000" points="108,-236.9503 108,-255.9503 152,-255.9503 152,-236.9503 108,-236.9503"/>
<text text-anchor="start" x="133.4053" y="-243.0503" font-family="Helvetica,sans-Serif" font-size="11.00" fill="#000000">4 &gt;</text>
</a>
</g>
</g>
<!-- court_appearance&#45;&gt;audit_revision -->
<g id="edge1" class="edge">
<title>court_appearance:w&#45;&gt;audit_revision:e</title>
<path fill="none" stroke="#000000" stroke-dasharray="5,2" d="M261.4706,-199.6995C234.4846,-203.8529 229.3974,-224.5652 203,-243.9503 179.3326,-261.3306 181.3636,-285.9503 152,-285.9503"/>
<polygon fill="#000000" stroke="#000000" points="270.9181,-195.0171 271.486,-202.997 269.89,-203.1105 269.3221,-195.1307 270.9181,-195.0171"/>
<polyline fill="none" stroke="#000000" points="272,-198.9503 268.0101,-199.2342 "/>
<ellipse fill="none" stroke="#000000" cx="264.8182" cy="-199.4614" rx="3.2" ry="3.2"/>
</g>
<!-- person_summary -->
<g id="node3" class="node">
<title>person_summary</title>
<g id="a_node3"><a xlink:href="../../tables/person_summary.html" xlink:title="person_summary" target="_top">
<polygon fill="#ffffff" stroke="transparent" points="8,-90.4503 8,-173.4503 162,-173.4503 162,-90.4503 8,-90.4503"/>
<polygon fill="#f5f5f5" stroke="transparent" points="8,-149.9503 8,-172.9503 162,-172.9503 162,-149.9503 8,-149.9503"/>
<polygon fill="none" stroke="#000000" points="8,-149.9503 8,-172.9503 162,-172.9503 162,-149.9503 8,-149.9503"/>
<text text-anchor="start" x="13" y="-158.5503" font-family="Helvetica,sans-Serif" font-weight="bold" font-size="11.00" fill="#000000">person_summary</text>
<text text-anchor="start" x="127.5219" y="-158.0503" font-family="Helvetica,sans-Serif" font-size="11.00" fill="#000000">[table]</text>
<polygon fill="none" stroke="#000000" points="8,-127.9503 8,-149.9503 162,-149.9503 162,-127.9503 8,-127.9503"/>
<image xlink:href="../../images/primaryKeys.png" width="11px" height="12px" preserveAspectRatio="xMinYMin meet" x="13" y="-144.95"/>
<text text-anchor="start" x="37" y="-135.0503" font-family="Helvetica,sans-Serif" font-size="11.00" fill="#000000">person_identifier</text>
<polygon fill="none" stroke="#000000" points="8,-108.9503 8,-127.9503 162,-127.9503 162,-108.9503 8,-108.9503"/>
<text text-anchor="start" x="11" y="-115.0503" font-family="Helvetica,sans-Serif" font-size="11.00" fill="#000000">...</text>
<polygon fill="#ffffff" stroke="transparent" points="8,-89.9503 8,-108.9503 74,-108.9503 74,-89.9503 8,-89.9503"/>
<polygon fill="none" stroke="#000000" points="8,-89.9503 8,-108.9503 74,-108.9503 74,-89.9503 8,-89.9503"/>
<text text-anchor="start" x="11" y="-96.0503" font-family="Helvetica,sans-Serif" font-size="11.00" fill="#000000"> &#160;</text>
<polygon fill="#ffffff" stroke="transparent" points="74,-89.9503 74,-108.9503 113,-108.9503 113,-89.9503 74,-89.9503"/>
<polygon fill="none" stroke="#000000" points="74,-89.9503 74,-108.9503 113,-108.9503 113,-89.9503 74,-89.9503"/>
<text text-anchor="start" x="103.8862" y="-96.0503" font-family="Helvetica,sans-Serif" font-size="11.00" fill="#000000"> &#160;</text>
<polygon fill="#ffffff" stroke="transparent" points="113,-89.9503 113,-108.9503 162,-108.9503 162,-89.9503 113,-89.9503"/>
<polygon fill="none" stroke="#000000" points="113,-89.9503 113,-108.9503 162,-108.9503 162,-89.9503 113,-89.9503"/>
<text text-anchor="start" x="143.4053" y="-96.0503" font-family="Helvetica,sans-Serif" font-size="11.00" fill="#000000">4 &gt;</text>
</a>
</g>
</g>
<!-- court_appearance&#45;&gt;person_summary -->
<g id="edge2" class="edge">
<title>court_appearance:w&#45;&gt;person_summary:e</title>
<path fill="none" stroke="#000000" d="M258.8034,-192.3C230.1222,-176.6782 164.76,-138.9503 162,-138.9503"/>
<polygon fill="#000000" stroke="#000000" points="264.8559,-195.35 270.3799,-202.1651 268.4279,-197.1502 272,-198.9503 272,-198.9503 272,-198.9503 268.4279,-197.1502 273.6201,-195.7354 264.8559,-195.35 264.8559,-195.35"/>
<ellipse fill="none" stroke="#000000" cx="261.9982" cy="-193.9099" rx="3.2" ry="3.2"/>
</g>
<!-- court_appearance_audit -->
<g id="node4" class="node">
<title>court_appearance_audit</title>
<g id="a_node4"><a xlink:href="../../tables/court_appearance_audit.html" xlink:title="court_appearance_audit" target="_top">
<polygon fill="#ffffff" stroke="transparent" points="211,-253.9503 211,-629.9503 491,-629.9503 491,-253.9503 211,-253.9503"/>
<polygon fill="#f5f5f5" stroke="transparent" points="213,-604.9503 213,-627.9503 489,-627.9503 489,-604.9503 213,-604.9503"/>
<polygon fill="none" stroke="#000000" points="213,-604.9503 213,-627.9503 489,-627.9503 489,-604.9503 213,-604.9503"/>
<text text-anchor="start" x="218" y="-613.5503" font-family="Helvetica,sans-Serif" font-weight="bold" font-size="11.00" fill="#000000">court_appearance_audit</text>
<text text-anchor="start" x="454.0437" y="-613.0503" font-family="Helvetica,sans-Serif" font-size="11.00" fill="#000000">[table]</text>
<polygon fill="none" stroke="#000000" points="213,-582.9503 213,-604.9503 395,-604.9503 395,-582.9503 213,-582.9503"/>
<image xlink:href="../../images/primaryKeys.png" width="11px" height="12px" preserveAspectRatio="xMinYMin meet" x="218" y="-599.95"/>
<text text-anchor="start" x="233" y="-590.0503" font-family="Helvetica,sans-Serif" font-size="11.00" fill="#000000">rev_id</text>
<polygon fill="none" stroke="#000000" points="395,-582.9503 395,-604.9503 489,-604.9503 489,-582.9503 395,-582.9503"/>
<text text-anchor="start" x="398" y="-590.6503" font-family="Helvetica,sans-Serif" font-size="11.00" fill="#000000">int8[19]</text>
<polygon fill="none" stroke="#000000" points="213,-560.9503 213,-582.9503 395,-582.9503 395,-560.9503 213,-560.9503"/>
<text text-anchor="start" x="233" y="-568.0503" font-family="Helvetica,sans-Serif" font-size="11.00" fill="#000000">rev_type</text>
<polygon fill="none" stroke="#000000" points="395,-560.9503 395,-582.9503 489,-582.9503 489,-560.9503 395,-560.9503"/>
<text text-anchor="start" x="398" y="-568.6503" font-family="Helvetica,sans-Serif" font-size="11.00" fill="#000000">int2[5]</text>
<polygon fill="none" stroke="#000000" points="213,-538.9503 213,-560.9503 395,-560.9503 395,-538.9503 213,-538.9503"/>
<image xlink:href="../../images/primaryKeys.png" width="11px" height="12px" preserveAspectRatio="xMinYMin meet" x="218" y="-555.95"/>
<text text-anchor="start" x="233" y="-546.0503" font-family="Helvetica,sans-Serif" font-size="11.00" fill="#000000">id</text>
<polygon fill="none" stroke="#000000" points="395,-538.9503 395,-560.9503 489,-560.9503 489,-538.9503 395,-538.9503"/>
<text text-anchor="start" x="397.9758" y="-546.6503" font-family="Helvetica,sans-Serif" font-size="11.00" fill="#000000">uuid[2147483647]</text>
<polygon fill="none" stroke="#000000" points="213,-516.9503 213,-538.9503 395,-538.9503 395,-516.9503 213,-516.9503"/>
<text text-anchor="start" x="233" y="-524.0503" font-family="Helvetica,sans-Serif" font-size="11.00" fill="#000000">version</text>
<polygon fill="none" stroke="#000000" points="395,-516.9503 395,-538.9503 489,-538.9503 489,-516.9503 395,-516.9503"/>
<text text-anchor="start" x="398" y="-524.6503" font-family="Helvetica,sans-Serif" font-size="11.00" fill="#000000">int4[10]</text>
<polygon fill="none" stroke="#000000" points="213,-494.9503 213,-516.9503 395,-516.9503 395,-494.9503 213,-494.9503"/>
<image xlink:href="../../images/foreignKeys.png" width="11px" height="12px" preserveAspectRatio="xMinYMin meet" x="218" y="-511.95"/>
<text text-anchor="start" x="233" y="-502.0503" font-family="Helvetica,sans-Serif" font-size="11.00" fill="#000000">person_identifier</text>
<polygon fill="none" stroke="#000000" points="395,-494.9503 395,-516.9503 489,-516.9503 489,-494.9503 395,-494.9503"/>
<text text-anchor="start" x="398" y="-502.6503" font-family="Helvetica,sans-Serif" font-size="11.00" fill="#000000">varchar[10]</text>
<polygon fill="none" stroke="#000000" points="213,-472.9503 213,-494.9503 395,-494.9503 395,-472.9503 213,-472.9503"/>
<text text-anchor="start" x="233" y="-480.0503" font-family="Helvetica,sans-Serif" font-size="11.00" fill="#000000">prison_code</text>
<polygon fill="none" stroke="#000000" points="395,-472.9503 395,-494.9503 489,-494.9503 489,-472.9503 395,-472.9503"/>
<text text-anchor="start" x="398" y="-480.6503" font-family="Helvetica,sans-Serif" font-size="11.00" fill="#000000">varchar[6]</text>
<polygon fill="none" stroke="#000000" points="213,-450.9503 213,-472.9503 395,-472.9503 395,-450.9503 213,-450.9503"/>
<text text-anchor="start" x="233" y="-458.0503" font-family="Helvetica,sans-Serif" font-size="11.00" fill="#000000">court_code</text>
<polygon fill="none" stroke="#000000" points="395,-450.9503 395,-472.9503 489,-472.9503 489,-450.9503 395,-450.9503"/>
<text text-anchor="start" x="398" y="-458.6503" font-family="Helvetica,sans-Serif" font-size="11.00" fill="#000000">varchar[6]</text>
<polygon fill="none" stroke="#000000" points="213,-428.9503 213,-450.9503 395,-450.9503 395,-428.9503 213,-428.9503"/>
<text text-anchor="start" x="233" y="-436.0503" font-family="Helvetica,sans-Serif" font-size="11.00" fill="#000000">reason_id</text>
<polygon fill="none" stroke="#000000" points="395,-428.9503 395,-450.9503 489,-450.9503 489,-428.9503 395,-428.9503"/>
<text text-anchor="start" x="397.9758" y="-436.6503" font-family="Helvetica,sans-Serif" font-size="11.00" fill="#000000">uuid[2147483647]</text>
<polygon fill="none" stroke="#000000" points="213,-406.9503 213,-428.9503 395,-428.9503 395,-406.9503 213,-406.9503"/>
<text text-anchor="start" x="233" y="-414.0503" font-family="Helvetica,sans-Serif" font-size="11.00" fill="#000000">external</text>
<polygon fill="none" stroke="#000000" points="395,-406.9503 395,-428.9503 489,-428.9503 489,-406.9503 395,-406.9503"/>
<text text-anchor="start" x="398" y="-414.6503" font-family="Helvetica,sans-Serif" font-size="11.00" fill="#000000">bool[1]</text>
<polygon fill="none" stroke="#000000" points="213,-384.9503 213,-406.9503 395,-406.9503 395,-384.9503 213,-384.9503"/>
<text text-anchor="start" x="233" y="-392.0503" font-family="Helvetica,sans-Serif" font-size="11.00" fill="#000000">status_id</text>
<polygon fill="none" stroke="#000000" points="395,-384.9503 395,-406.9503 489,-406.9503 489,-384.9503 395,-384.9503"/>
<text text-anchor="start" x="397.9758" y="-392.6503" font-family="Helvetica,sans-Serif" font-size="11.00" fill="#000000">uuid[2147483647]</text>
<polygon fill="none" stroke="#000000" points="213,-362.9503 213,-384.9503 395,-384.9503 395,-362.9503 213,-362.9503"/>
<text text-anchor="start" x="233" y="-370.0503" font-family="Helvetica,sans-Serif" font-size="11.00" fill="#000000">start</text>
<polygon fill="none" stroke="#000000" points="395,-362.9503 395,-384.9503 489,-384.9503 489,-362.9503 395,-362.9503"/>
<text text-anchor="start" x="398" y="-370.6503" font-family="Helvetica,sans-Serif" font-size="11.00" fill="#000000">timestamp[29,6]</text>
<polygon fill="none" stroke="#000000" points="213,-340.9503 213,-362.9503 395,-362.9503 395,-340.9503 213,-340.9503"/>
<text text-anchor="start" x="233" y="-348.0503" font-family="Helvetica,sans-Serif" font-size="11.00" fill="#000000">end</text>
<polygon fill="none" stroke="#000000" points="395,-340.9503 395,-362.9503 489,-362.9503 489,-340.9503 395,-340.9503"/>
<text text-anchor="start" x="398" y="-348.6503" font-family="Helvetica,sans-Serif" font-size="11.00" fill="#000000">timestamp[29,6]</text>
<polygon fill="none" stroke="#000000" points="213,-318.9503 213,-340.9503 395,-340.9503 395,-318.9503 213,-318.9503"/>
<text text-anchor="start" x="233" y="-326.0503" font-family="Helvetica,sans-Serif" font-size="11.00" fill="#000000">comments</text>
<polygon fill="none" stroke="#000000" points="395,-318.9503 395,-340.9503 489,-340.9503 489,-318.9503 395,-318.9503"/>
<text text-anchor="start" x="398" y="-326.6503" font-family="Helvetica,sans-Serif" font-size="11.00" fill="#000000">text[2147483647]</text>
<polygon fill="none" stroke="#000000" points="213,-296.9503 213,-318.9503 395,-318.9503 395,-296.9503 213,-296.9503"/>
<image xlink:href="../../images/foreignKeys.png" width="11px" height="12px" preserveAspectRatio="xMinYMin meet" x="218" y="-313.95"/>
<text text-anchor="start" x="233" y="-304.0503" font-family="Helvetica,sans-Serif" font-size="11.00" fill="#000000">legacy_id</text>
<polygon fill="none" stroke="#000000" points="395,-296.9503 395,-318.9503 489,-318.9503 489,-296.9503 395,-296.9503"/>
<text text-anchor="start" x="398" y="-304.6503" font-family="Helvetica,sans-Serif" font-size="11.00" fill="#000000">int8[19]</text>
<polygon fill="#ffffff" stroke="transparent" points="213,-274.9503 213,-296.9503 395,-296.9503 395,-274.9503 213,-274.9503"/>
<polygon fill="none" stroke="#000000" points="213,-274.9503 213,-296.9503 395,-296.9503 395,-274.9503 213,-274.9503"/>
<text text-anchor="start" x="233" y="-282.0503" font-family="Helvetica,sans-Serif" font-size="11.00" fill="#000000">external_reference</text>
<polygon fill="none" stroke="#000000" points="395,-274.9503 395,-296.9503 489,-296.9503 489,-274.9503 395,-274.9503"/>
<text text-anchor="start" x="398" y="-282.6503" font-family="Helvetica,sans-Serif" font-size="11.00" fill="#000000">text[2147483647]</text>
<polygon fill="#ffffff" stroke="transparent" points="213,-255.9503 213,-274.9503 308,-274.9503 308,-255.9503 213,-255.9503"/>
<polygon fill="none" stroke="#000000" points="213,-255.9503 213,-274.9503 308,-274.9503 308,-255.9503 213,-255.9503"/>
<text text-anchor="start" x="216" y="-262.0503" font-family="Helvetica,sans-Serif" font-size="11.00" fill="#000000">&lt; 3</text>
<polygon fill="#ffffff" stroke="transparent" points="308,-255.9503 308,-274.9503 395,-274.9503 395,-255.9503 308,-255.9503"/>
<polygon fill="none" stroke="#000000" points="308,-255.9503 308,-274.9503 395,-274.9503 395,-255.9503 308,-255.9503"/>
<text text-anchor="start" x="385.8862" y="-262.0503" font-family="Helvetica,sans-Serif" font-size="11.00" fill="#000000"> &#160;</text>
<polygon fill="#ffffff" stroke="transparent" points="395,-255.9503 395,-274.9503 489,-274.9503 489,-255.9503 395,-255.9503"/>
<polygon fill="none" stroke="#000000" points="395,-255.9503 395,-274.9503 489,-274.9503 489,-255.9503 395,-255.9503"/>
<text text-anchor="start" x="470.4053" y="-262.0503" font-family="Helvetica,sans-Serif" font-size="11.00" fill="#000000">0 &gt;</text>
<polygon fill="none" stroke="#000000" stroke-width="2" points="212,-254.9503 212,-628.9503 490,-628.9503 490,-254.9503 212,-254.9503"/>
</a>
</g>
</g>
<!-- court_appearance_audit&#45;&gt;audit_revision -->
<g id="edge3" class="edge">
<title>court_appearance_audit:w&#45;&gt;audit_revision:e</title>
<path fill="none" stroke="#000000" stroke-dasharray="5,2" d="M198.6474,-305.7604C181.8961,-300.1958 175.1914,-285.9503 152,-285.9503"/>
<polygon fill="#000000" stroke="#000000" points="205.0915,-306.7436 212.457,-311.5091 209.0458,-307.3469 213,-307.9503 213,-307.9503 213,-307.9503 209.0458,-307.3469 213.543,-304.3915 205.0915,-306.7436 205.0915,-306.7436"/>
<ellipse fill="none" stroke="#000000" cx="201.9281" cy="-306.2609" rx="3.2" ry="3.2"/>
</g>
<!-- court_appearance_audit&#45;&gt;audit_revision -->
<g id="edge5" class="edge">
<title>court_appearance_audit:w&#45;&gt;audit_revision:e</title>
<path fill="none" stroke="#000000" d="M198.5724,-592.644C89.5462,-570.9361 286.233,-285.9503 152,-285.9503"/>
<polygon fill="#000000" stroke="#000000" points="205.0326,-593.2289 212.6754,-597.5356 209.0163,-593.5896 213,-593.9503 213,-593.9503 213,-593.9503 209.0163,-593.5896 213.3246,-590.3649 205.0326,-593.2289 205.0326,-593.2289"/>
<ellipse fill="none" stroke="#000000" cx="201.8456" cy="-592.9403" rx="3.2" ry="3.2"/>
</g>
<!-- court_appearance_audit&#45;&gt;person_summary -->
<g id="edge4" class="edge">
<title>court_appearance_audit:w&#45;&gt;person_summary:e</title>
<path fill="none" stroke="#000000" stroke-dasharray="5,2" d="M199.0749,-501.31C144.8943,-458.8265 238.8714,-138.9503 162,-138.9503"/>
<polygon fill="#000000" stroke="#000000" points="205.4103,-503.4211 211.8619,-509.3656 209.2051,-504.6857 213,-505.9503 213,-505.9503 213,-505.9503 209.2051,-504.6857 214.1381,-502.5349 205.4103,-503.4211 205.4103,-503.4211"/>
<ellipse fill="none" stroke="#000000" cx="202.3744" cy="-502.4095" rx="3.2" ry="3.2"/>
</g>
<!-- court_appearance_movement -->
<g id="node5" class="node">
<title>court_appearance_movement</title>
<g id="a_node5"><a xlink:href="../../tables/court_appearance_movement.html" xlink:title="court_appearance_movement" target="_top">
<polygon fill="#ffffff" stroke="transparent" points="540,-104.4503 540,-165.4503 777,-165.4503 777,-104.4503 540,-104.4503"/>
<polygon fill="#f5f5f5" stroke="transparent" points="540.5,-141.9503 540.5,-164.9503 777.5,-164.9503 777.5,-141.9503 540.5,-141.9503"/>
<polygon fill="none" stroke="#000000" points="540.5,-141.9503 540.5,-164.9503 777.5,-164.9503 777.5,-141.9503 540.5,-141.9503"/>
<text text-anchor="start" x="545.5" y="-150.5503" font-family="Helvetica,sans-Serif" font-weight="bold" font-size="11.00" fill="#000000">court_appearance_movement</text>
<text text-anchor="start" x="743.0219" y="-150.0503" font-family="Helvetica,sans-Serif" font-size="11.00" fill="#000000">[table]</text>
<polygon fill="none" stroke="#000000" points="540.5,-122.9503 540.5,-141.9503 777.5,-141.9503 777.5,-122.9503 540.5,-122.9503"/>
<text text-anchor="start" x="543.5" y="-129.0503" font-family="Helvetica,sans-Serif" font-size="11.00" fill="#000000">...</text>
<polygon fill="#ffffff" stroke="transparent" points="540.5,-103.9503 540.5,-122.9503 657.5,-122.9503 657.5,-103.9503 540.5,-103.9503"/>
<polygon fill="none" stroke="#000000" points="540.5,-103.9503 540.5,-122.9503 657.5,-122.9503 657.5,-103.9503 540.5,-103.9503"/>
<text text-anchor="start" x="543.5" y="-110.0503" font-family="Helvetica,sans-Serif" font-size="11.00" fill="#000000">&lt; 3</text>
<polygon fill="#ffffff" stroke="transparent" points="657.5,-103.9503 657.5,-122.9503 717.5,-122.9503 717.5,-103.9503 657.5,-103.9503"/>
<polygon fill="none" stroke="#000000" points="657.5,-103.9503 657.5,-122.9503 717.5,-122.9503 717.5,-103.9503 657.5,-103.9503"/>
<text text-anchor="start" x="708.3862" y="-110.0503" font-family="Helvetica,sans-Serif" font-size="11.00" fill="#000000"> &#160;</text>
<polygon fill="#ffffff" stroke="transparent" points="717.5,-103.9503 717.5,-122.9503 777.5,-122.9503 777.5,-103.9503 717.5,-103.9503"/>
<polygon fill="none" stroke="#000000" points="717.5,-103.9503 717.5,-122.9503 777.5,-122.9503 777.5,-103.9503 717.5,-103.9503"/>
<text text-anchor="start" x="768.3862" y="-110.0503" font-family="Helvetica,sans-Serif" font-size="11.00" fill="#000000"> &#160;</text>
</a>
</g>
</g>
<!-- court_appearance_movement&#45;&gt;court_appearance -->
<g id="edge6" class="edge">
<title>court_appearance_movement:w&#45;&gt;court_appearance:e</title>
<path fill="none" stroke="#000000" d="M526.2517,-135.3222C516.6054,-140.894 512.8537,-152.2694 499,-160.9503 469.6626,-179.3333 465.6211,-198.9503 431,-198.9503"/>
<polygon fill="#000000" stroke="#000000" points="532.715,-133.7926 541.3291,-135.4535 536.6075,-132.8715 540.5,-131.9503 540.5,-131.9503 540.5,-131.9503 536.6075,-132.8715 539.6709,-128.447 532.715,-133.7926 532.715,-133.7926"/>
<ellipse fill="none" stroke="#000000" cx="529.601" cy="-134.5296" rx="3.2" ry="3.2"/>
</g>
<!-- court_appearance_movement&#45;&gt;person_summary -->
<g id="edge7" class="edge">
<title>court_appearance_movement:w&#45;&gt;person_summary:e</title>
<path fill="none" stroke="#000000" d="M526.7848,-127.2503C515.165,-116.3101 520.2233,-89.2874 499,-78.9503 380.7277,-21.3437 319.3427,-17.5398 203,-78.9503 174.4369,-94.0271 194.298,-138.9503 162,-138.9503"/>
<polygon fill="#000000" stroke="#000000" points="532.932,-129.3568 539.333,-135.3559 536.716,-130.6536 540.5,-131.9503 540.5,-131.9503 540.5,-131.9503 536.716,-130.6536 541.667,-128.5447 532.932,-129.3568 532.932,-129.3568"/>
<ellipse fill="none" stroke="#000000" cx="529.9048" cy="-128.3195" rx="3.2" ry="3.2"/>
</g>
<!-- court_appearance_movement_audit -->
<g id="node6" class="node">
<title>court_appearance_movement_audit</title>
<g id="a_node6"><a xlink:href="../../tables/court_appearance_movement_audit.html" xlink:title="court_appearance_movement_audit" target="_top">
<polygon fill="#ffffff" stroke="transparent" points="212,-89.4503 212,-150.4503 490,-150.4503 490,-89.4503 212,-89.4503"/>
<polygon fill="#f5f5f5" stroke="transparent" points="212,-126.9503 212,-149.9503 490,-149.9503 490,-126.9503 212,-126.9503"/>
<polygon fill="none" stroke="#000000" points="212,-126.9503 212,-149.9503 490,-149.9503 490,-126.9503 212,-126.9503"/>
<text text-anchor="start" x="217" y="-135.5503" font-family="Helvetica,sans-Serif" font-weight="bold" font-size="11.00" fill="#000000">court_appearance_movement_audit</text>
<text text-anchor="start" x="455.5219" y="-135.0503" font-family="Helvetica,sans-Serif" font-size="11.00" fill="#000000">[table]</text>
<polygon fill="none" stroke="#000000" points="212,-107.9503 212,-126.9503 490,-126.9503 490,-107.9503 212,-107.9503"/>
<text text-anchor="start" x="215" y="-114.0503" font-family="Helvetica,sans-Serif" font-size="11.00" fill="#000000">...</text>
<polygon fill="#ffffff" stroke="transparent" points="212,-88.9503 212,-107.9503 349,-107.9503 349,-88.9503 212,-88.9503"/>
<polygon fill="none" stroke="#000000" points="212,-88.9503 212,-107.9503 349,-107.9503 349,-88.9503 212,-88.9503"/>
<text text-anchor="start" x="215" y="-95.0503" font-family="Helvetica,sans-Serif" font-size="11.00" fill="#000000">&lt; 2</text>
<polygon fill="#ffffff" stroke="transparent" points="349,-88.9503 349,-107.9503 419,-107.9503 419,-88.9503 349,-88.9503"/>
<polygon fill="none" stroke="#000000" points="349,-88.9503 349,-107.9503 419,-107.9503 419,-88.9503 349,-88.9503"/>
<text text-anchor="start" x="409.8862" y="-95.0503" font-family="Helvetica,sans-Serif" font-size="11.00" fill="#000000"> &#160;</text>
<polygon fill="#ffffff" stroke="transparent" points="419,-88.9503 419,-107.9503 490,-107.9503 490,-88.9503 419,-88.9503"/>
<polygon fill="none" stroke="#000000" points="419,-88.9503 419,-107.9503 490,-107.9503 490,-88.9503 419,-88.9503"/>
<text text-anchor="start" x="480.8862" y="-95.0503" font-family="Helvetica,sans-Serif" font-size="11.00" fill="#000000"> &#160;</text>
</a>
</g>
</g>
<!-- court_appearance_movement_audit&#45;&gt;audit_revision -->
<g id="edge9" class="edge">
<title>court_appearance_movement_audit:w&#45;&gt;audit_revision:e</title>
<path fill="none" stroke="#000000" d="M197.7194,-119.3393C145.3895,-139.8804 226.1002,-285.9503 152,-285.9503"/>
<polygon fill="#000000" stroke="#000000" points="204.1096,-118.2703 212.594,-120.5009 208.0548,-117.6103 212,-116.9503 212,-116.9503 212,-116.9503 208.0548,-117.6103 211.406,-113.3996 204.1096,-118.2703 204.1096,-118.2703"/>
<ellipse fill="none" stroke="#000000" cx="200.9535" cy="-118.7983" rx="3.2" ry="3.2"/>
</g>
<!-- court_appearance_movement_audit&#45;&gt;person_summary -->
<g id="edge8" class="edge">
<title>court_appearance_movement_audit:w&#45;&gt;person_summary:e</title>
<path fill="none" stroke="#000000" stroke-dasharray="5,2" d="M197.7297,-120.1964C185.6832,-126.3161 180.3983,-138.9503 162,-138.9503"/>
<polygon fill="#000000" stroke="#000000" points="204.1993,-118.7248 212.7985,-120.4606 208.0996,-117.8375 212,-116.9503 212,-116.9503 212,-116.9503 208.0996,-117.8375 211.2015,-113.4399 204.1993,-118.7248 204.1993,-118.7248"/>
<ellipse fill="none" stroke="#000000" cx="201.079" cy="-119.4346" rx="3.2" ry="3.2"/>
</g>
</g>
</svg>
