<?xml version="1.0" encoding="UTF-8" standalone="no"?>
<!DOCTYPE svg PUBLIC "-//W3C//DTD SVG 1.1//EN"
 "http://www.w3.org/Graphics/SVG/1.1/DTD/svg11.dtd">
<!-- Generated by graphviz version 2.40.1 (20161225.0304)
 -->
<!-- Title: twoDegreesRelationshipsDiagramImplied Pages: 1 -->
<svg width="871pt" height="605pt"
 viewBox="0.00 0.00 871.00 604.58" xmlns="http://www.w3.org/2000/svg" xmlns:xlink="http://www.w3.org/1999/xlink">
<g id="graph0" class="graph" transform="scale(1 1) rotate(0) translate(4 600.5818)">
<title>twoDegreesRelationshipsDiagramImplied</title>
<polygon fill="#ffffff" stroke="transparent" points="-4,4 -4,-600.5818 867,-600.5818 867,4 -4,4"/>
<text text-anchor="middle" x="72.4936" y="-7.3" font-family="Helvetica,sans-Serif" font-size="11.00" fill="#000000">Generated by SchemaSpy</text>
<!-- court_appearance -->
<g id="node1" class="node">
<title>court_appearance</title>
<g id="a_node1"><a xlink:href="../../tables/court_appearance.html" xlink:title="court_appearance" target="_top">
<polygon fill="#ffffff" stroke="transparent" points="310.5,-95.5818 310.5,-156.5818 469.5,-156.5818 469.5,-95.5818 310.5,-95.5818"/>
<polygon fill="#f5f5f5" stroke="transparent" points="311,-133.0818 311,-156.0818 470,-156.0818 470,-133.0818 311,-133.0818"/>
<polygon fill="none" stroke="#000000" points="311,-133.0818 311,-156.0818 470,-156.0818 470,-133.0818 311,-133.0818"/>
<text text-anchor="start" x="316" y="-141.6818" font-family="Helvetica,sans-Serif" font-weight="bold" font-size="11.00" fill="#000000">court_appearance</text>
<text text-anchor="start" x="435.5219" y="-141.1818" font-family="Helvetica,sans-Serif" font-size="11.00" fill="#000000">[table]</text>
<polygon fill="none" stroke="#000000" points="311,-114.0818 311,-133.0818 470,-133.0818 470,-114.0818 311,-114.0818"/>
<text text-anchor="start" x="314" y="-120.1818" font-family="Helvetica,sans-Serif" font-size="11.00" fill="#000000">...</text>
<polygon fill="#ffffff" stroke="transparent" points="311,-95.0818 311,-114.0818 384,-114.0818 384,-95.0818 311,-95.0818"/>
<polygon fill="none" stroke="#000000" points="311,-95.0818 311,-114.0818 384,-114.0818 384,-95.0818 311,-95.0818"/>
<text text-anchor="start" x="314" y="-101.1818" font-family="Helvetica,sans-Serif" font-size="11.00" fill="#000000">&lt; 4</text>
<polygon fill="#ffffff" stroke="transparent" points="384,-95.0818 384,-114.0818 422,-114.0818 422,-95.0818 384,-95.0818"/>
<polygon fill="none" stroke="#000000" points="384,-95.0818 384,-114.0818 422,-114.0818 422,-95.0818 384,-95.0818"/>
<text text-anchor="start" x="412.8862" y="-101.1818" font-family="Helvetica,sans-Serif" font-size="11.00" fill="#000000"> &#160;</text>
<polygon fill="#ffffff" stroke="transparent" points="422,-95.0818 422,-114.0818 470,-114.0818 470,-95.0818 422,-95.0818"/>
<polygon fill="none" stroke="#000000" points="422,-95.0818 422,-114.0818 470,-114.0818 470,-95.0818 422,-95.0818"/>
<text text-anchor="start" x="451.4053" y="-101.1818" font-family="Helvetica,sans-Serif" font-size="11.00" fill="#000000">1 &gt;</text>
</a>
</g>
</g>
<!-- audit_revision -->
<g id="node2" class="node">
<title>audit_revision</title>
<g id="a_node2"><a xlink:href="../../tables/audit_revision.html" xlink:title="audit_revision" target="_top">
<polygon fill="#ffffff" stroke="transparent" points="18,-467.5818 18,-550.5818 152,-550.5818 152,-467.5818 18,-467.5818"/>
<polygon fill="#f5f5f5" stroke="transparent" points="18,-527.0818 18,-550.0818 152,-550.0818 152,-527.0818 18,-527.0818"/>
<polygon fill="none" stroke="#000000" points="18,-527.0818 18,-550.0818 152,-550.0818 152,-527.0818 18,-527.0818"/>
<text text-anchor="start" x="23" y="-535.6818" font-family="Helvetica,sans-Serif" font-weight="bold" font-size="11.00" fill="#000000">audit_revision</text>
<text text-anchor="start" x="117.5219" y="-535.1818" font-family="Helvetica,sans-Serif" font-size="11.00" fill="#000000">[table]</text>
<polygon fill="none" stroke="#000000" points="18,-505.0818 18,-527.0818 152,-527.0818 152,-505.0818 18,-505.0818"/>
<image xlink:href="../../images/primaryKeys.png" width="11px" height="12px" preserveAspectRatio="xMinYMin meet" x="23" y="-522.082"/>
<text text-anchor="start" x="38" y="-512.1818" font-family="Helvetica,sans-Serif" font-size="11.00" fill="#000000">id</text>
<polygon fill="none" stroke="#000000" points="18,-486.0818 18,-505.0818 152,-505.0818 152,-486.0818 18,-486.0818"/>
<text text-anchor="start" x="21" y="-492.1818" font-family="Helvetica,sans-Serif" font-size="11.00" fill="#000000">...</text>
<polygon fill="#ffffff" stroke="transparent" points="18,-467.0818 18,-486.0818 74,-486.0818 74,-467.0818 18,-467.0818"/>
<polygon fill="none" stroke="#000000" points="18,-467.0818 18,-486.0818 74,-486.0818 74,-467.0818 18,-467.0818"/>
<text text-anchor="start" x="21" y="-473.1818" font-family="Helvetica,sans-Serif" font-size="11.00" fill="#000000"> &#160;</text>
<polygon fill="#ffffff" stroke="transparent" points="74,-467.0818 74,-486.0818 108,-486.0818 108,-467.0818 74,-467.0818"/>
<polygon fill="none" stroke="#000000" points="74,-467.0818 74,-486.0818 108,-486.0818 108,-467.0818 74,-467.0818"/>
<text text-anchor="start" x="98.8862" y="-473.1818" font-family="Helvetica,sans-Serif" font-size="11.00" fill="#000000"> &#160;</text>
<polygon fill="#ffffff" stroke="transparent" points="108,-467.0818 108,-486.0818 152,-486.0818 152,-467.0818 108,-467.0818"/>
<polygon fill="none" stroke="#000000" points="108,-467.0818 108,-486.0818 152,-486.0818 152,-467.0818 108,-467.0818"/>
<text text-anchor="start" x="133.4053" y="-473.1818" font-family="Helvetica,sans-Serif" font-size="11.00" fill="#000000">4 &gt;</text>
</a>
</g>
</g>
<!-- court_appearance&#45;&gt;audit_revision -->
<g id="edge1" class="edge">
<title>court_appearance:w&#45;&gt;audit_revision:e</title>
<path fill="none" stroke="#000000" stroke-dasharray="5,2" d="M300.4644,-123.1412C255.7269,-123.7174 232.7153,-129.1486 203,-167.0818 154.6654,-228.7833 230.3793,-516.0818 152,-516.0818"/>
<polygon fill="#000000" stroke="#000000" points="310.1774,-119.0863 310.2226,-127.0862 308.6226,-127.0953 308.5775,-119.0954 310.1774,-119.0863"/>
<polyline fill="none" stroke="#000000" points="311,-123.0818 307.0001,-123.1043 "/>
<ellipse fill="none" stroke="#000000" cx="303.8001" cy="-123.1224" rx="3.2" ry="3.2"/>
</g>
<!-- person_summary -->
<g id="node3" class="node">
<title>person_summary</title>
<g id="a_node3"><a xlink:href="../../tables/person_summary.html" xlink:title="person_summary" target="_top">
<polygon fill="#ffffff" stroke="transparent" points="8,-194.5818 8,-277.5818 162,-277.5818 162,-194.5818 8,-194.5818"/>
<polygon fill="#f5f5f5" stroke="transparent" points="8,-254.0818 8,-277.0818 162,-277.0818 162,-254.0818 8,-254.0818"/>
<polygon fill="none" stroke="#000000" points="8,-254.0818 8,-277.0818 162,-277.0818 162,-254.0818 8,-254.0818"/>
<text text-anchor="start" x="13" y="-262.6818" font-family="Helvetica,sans-Serif" font-weight="bold" font-size="11.00" fill="#000000">person_summary</text>
<text text-anchor="start" x="127.5219" y="-262.1818" font-family="Helvetica,sans-Serif" font-size="11.00" fill="#000000">[table]</text>
<polygon fill="none" stroke="#000000" points="8,-232.0818 8,-254.0818 162,-254.0818 162,-232.0818 8,-232.0818"/>
<image xlink:href="../../images/primaryKeys.png" width="11px" height="12px" preserveAspectRatio="xMinYMin meet" x="13" y="-249.082"/>
<text text-anchor="start" x="37" y="-239.1818" font-family="Helvetica,sans-Serif" font-size="11.00" fill="#000000">person_identifier</text>
<polygon fill="none" stroke="#000000" points="8,-213.0818 8,-232.0818 162,-232.0818 162,-213.0818 8,-213.0818"/>
<text text-anchor="start" x="11" y="-219.1818" font-family="Helvetica,sans-Serif" font-size="11.00" fill="#000000">...</text>
<polygon fill="#ffffff" stroke="transparent" points="8,-194.0818 8,-213.0818 74,-213.0818 74,-194.0818 8,-194.0818"/>
<polygon fill="none" stroke="#000000" points="8,-194.0818 8,-213.0818 74,-213.0818 74,-194.0818 8,-194.0818"/>
<text text-anchor="start" x="11" y="-200.1818" font-family="Helvetica,sans-Serif" font-size="11.00" fill="#000000"> &#160;</text>
<polygon fill="#ffffff" stroke="transparent" points="74,-194.0818 74,-213.0818 113,-213.0818 113,-194.0818 74,-194.0818"/>
<polygon fill="none" stroke="#000000" points="74,-194.0818 74,-213.0818 113,-213.0818 113,-194.0818 74,-194.0818"/>
<text text-anchor="start" x="103.8862" y="-200.1818" font-family="Helvetica,sans-Serif" font-size="11.00" fill="#000000"> &#160;</text>
<polygon fill="#ffffff" stroke="transparent" points="113,-194.0818 113,-213.0818 162,-213.0818 162,-194.0818 113,-194.0818"/>
<polygon fill="none" stroke="#000000" points="113,-194.0818 113,-213.0818 162,-213.0818 162,-194.0818 113,-194.0818"/>
<text text-anchor="start" x="143.4053" y="-200.1818" font-family="Helvetica,sans-Serif" font-size="11.00" fill="#000000">4 &gt;</text>
</a>
</g>
</g>
<!-- court_appearance&#45;&gt;person_summary -->
<g id="edge2" class="edge">
<title>court_appearance:w&#45;&gt;person_summary:e</title>
<path fill="none" stroke="#000000" d="M296.476,-123.3766C255.4555,-125.2007 237.7298,-135.9092 203,-167.0818 174.4383,-192.718 200.3795,-243.0818 162,-243.0818"/>
<polygon fill="#000000" stroke="#000000" points="303.0016,-123.2442 311.0731,-126.681 307.0008,-123.163 311,-123.0818 311,-123.0818 311,-123.0818 307.0008,-123.163 310.9269,-119.4825 303.0016,-123.2442 303.0016,-123.2442"/>
<ellipse fill="none" stroke="#000000" cx="299.8023" cy="-123.3092" rx="3.2" ry="3.2"/>
</g>
<!-- court_appearance_audit -->
<g id="node4" class="node">
<title>court_appearance_audit</title>
<g id="a_node4"><a xlink:href="../../tables/court_appearance_audit.html" xlink:title="court_appearance_audit" target="_top">
<polygon fill="#ffffff" stroke="transparent" points="290,-531.5818 290,-592.5818 490,-592.5818 490,-531.5818 290,-531.5818"/>
<polygon fill="#f5f5f5" stroke="transparent" points="290,-569.0818 290,-592.0818 490,-592.0818 490,-569.0818 290,-569.0818"/>
<polygon fill="none" stroke="#000000" points="290,-569.0818 290,-592.0818 490,-592.0818 490,-569.0818 290,-569.0818"/>
<text text-anchor="start" x="295" y="-577.6818" font-family="Helvetica,sans-Serif" font-weight="bold" font-size="11.00" fill="#000000">court_appearance_audit</text>
<text text-anchor="start" x="455.5219" y="-577.1818" font-family="Helvetica,sans-Serif" font-size="11.00" fill="#000000">[table]</text>
<polygon fill="none" stroke="#000000" points="290,-550.0818 290,-569.0818 490,-569.0818 490,-550.0818 290,-550.0818"/>
<text text-anchor="start" x="293" y="-556.1818" font-family="Helvetica,sans-Serif" font-size="11.00" fill="#000000">...</text>
<polygon fill="#ffffff" stroke="transparent" points="290,-531.0818 290,-550.0818 388,-550.0818 388,-531.0818 290,-531.0818"/>
<polygon fill="none" stroke="#000000" points="290,-531.0818 290,-550.0818 388,-550.0818 388,-531.0818 290,-531.0818"/>
<text text-anchor="start" x="293" y="-537.1818" font-family="Helvetica,sans-Serif" font-size="11.00" fill="#000000">&lt; 3</text>
<polygon fill="#ffffff" stroke="transparent" points="388,-531.0818 388,-550.0818 439,-550.0818 439,-531.0818 388,-531.0818"/>
<polygon fill="none" stroke="#000000" points="388,-531.0818 388,-550.0818 439,-550.0818 439,-531.0818 388,-531.0818"/>
<text text-anchor="start" x="429.8862" y="-537.1818" font-family="Helvetica,sans-Serif" font-size="11.00" fill="#000000"> &#160;</text>
<polygon fill="#ffffff" stroke="transparent" points="439,-531.0818 439,-550.0818 490,-550.0818 490,-531.0818 439,-531.0818"/>
<polygon fill="none" stroke="#000000" points="439,-531.0818 439,-550.0818 490,-550.0818 490,-531.0818 439,-531.0818"/>
<text text-anchor="start" x="480.8862" y="-537.1818" font-family="Helvetica,sans-Serif" font-size="11.00" fill="#000000"> &#160;</text>
</a>
</g>
</g>
<!-- court_appearance_audit&#45;&gt;audit_revision -->
<g id="edge3" class="edge">
<title>court_appearance_audit:w&#45;&gt;audit_revision:e</title>
<path fill="none" stroke="#000000" stroke-dasharray="5,2" d="M275.5635,-556.9727C223.8831,-546.5093 211.0975,-510.5622 152,-516.0818"/>
<polygon fill="#000000" stroke="#000000" points="282.084,-557.9253 289.4796,-562.644 286.042,-558.5035 290,-559.0818 290,-559.0818 290,-559.0818 286.042,-558.5035 290.5204,-555.5196 282.084,-557.9253 282.084,-557.9253"/>
<ellipse fill="none" stroke="#000000" cx="278.9176" cy="-557.4627" rx="3.2" ry="3.2"/>
</g>
<!-- court_appearance_audit&#45;&gt;audit_revision -->
<g id="edge5" class="edge">
<title>court_appearance_audit:w&#45;&gt;audit_revision:e</title>
<path fill="none" stroke="#000000" d="M275.5635,-559.8457C223.8831,-559.4259 211.0975,-522.5212 152,-516.0818"/>
<polygon fill="#000000" stroke="#000000" points="282.0112,-559.5046 290.1903,-562.6767 286.0056,-559.2932 290,-559.0818 290,-559.0818 290,-559.0818 286.0056,-559.2932 289.8097,-555.4868 282.0112,-559.5046 282.0112,-559.5046"/>
<ellipse fill="none" stroke="#000000" cx="278.8156" cy="-559.6737" rx="3.2" ry="3.2"/>
</g>
<!-- court_appearance_audit&#45;&gt;person_summary -->
<g id="edge4" class="edge">
<title>court_appearance_audit:w&#45;&gt;person_summary:e</title>
<path fill="none" stroke="#000000" stroke-dasharray="5,2" d="M275.1985,-558.8238C242.9102,-557.5082 225.4229,-550.4125 203,-521.0818 165.074,-471.472 224.446,-243.0818 162,-243.0818"/>
<polygon fill="#000000" stroke="#000000" points="282.0012,-558.9423 289.9373,-562.6812 286.0006,-559.012 290,-559.0818 290,-559.0818 290,-559.0818 286.0006,-559.012 290.0627,-555.4823 282.0012,-558.9423 282.0012,-558.9423"/>
<ellipse fill="none" stroke="#000000" cx="278.8017" cy="-558.8865" rx="3.2" ry="3.2"/>
</g>
<!-- court_appearance_movement -->
<g id="node5" class="node">
<title>court_appearance_movement</title>
<g id="a_node5"><a xlink:href="../../tables/court_appearance_movement.html" xlink:title="court_appearance_movement" target="_top">
<polygon fill="#ffffff" stroke="transparent" points="618,-69.5818 618,-130.5818 855,-130.5818 855,-69.5818 618,-69.5818"/>
<polygon fill="#f5f5f5" stroke="transparent" points="618.5,-107.0818 618.5,-130.0818 855.5,-130.0818 855.5,-107.0818 618.5,-107.0818"/>
<polygon fill="none" stroke="#000000" points="618.5,-107.0818 618.5,-130.0818 855.5,-130.0818 855.5,-107.0818 618.5,-107.0818"/>
<text text-anchor="start" x="623.5" y="-115.6818" font-family="Helvetica,sans-Serif" font-weight="bold" font-size="11.00" fill="#000000">court_appearance_movement</text>
<text text-anchor="start" x="821.0219" y="-115.1818" font-family="Helvetica,sans-Serif" font-size="11.00" fill="#000000">[table]</text>
<polygon fill="none" stroke="#000000" points="618.5,-88.0818 618.5,-107.0818 855.5,-107.0818 855.5,-88.0818 618.5,-88.0818"/>
<text text-anchor="start" x="621.5" y="-94.1818" font-family="Helvetica,sans-Serif" font-size="11.00" fill="#000000">...</text>
<polygon fill="#ffffff" stroke="transparent" points="618.5,-69.0818 618.5,-88.0818 735.5,-88.0818 735.5,-69.0818 618.5,-69.0818"/>
<polygon fill="none" stroke="#000000" points="618.5,-69.0818 618.5,-88.0818 735.5,-88.0818 735.5,-69.0818 618.5,-69.0818"/>
<text text-anchor="start" x="621.5" y="-75.1818" font-family="Helvetica,sans-Serif" font-size="11.00" fill="#000000">&lt; 3</text>
<polygon fill="#ffffff" stroke="transparent" points="735.5,-69.0818 735.5,-88.0818 795.5,-88.0818 795.5,-69.0818 735.5,-69.0818"/>
<polygon fill="none" stroke="#000000" points="735.5,-69.0818 735.5,-88.0818 795.5,-88.0818 795.5,-69.0818 735.5,-69.0818"/>
<text text-anchor="start" x="786.3862" y="-75.1818" font-family="Helvetica,sans-Serif" font-size="11.00" fill="#000000"> &#160;</text>
<polygon fill="#ffffff" stroke="transparent" points="795.5,-69.0818 795.5,-88.0818 855.5,-88.0818 855.5,-69.0818 795.5,-69.0818"/>
<polygon fill="none" stroke="#000000" points="795.5,-69.0818 795.5,-88.0818 855.5,-88.0818 855.5,-69.0818 795.5,-69.0818"/>
<text text-anchor="start" x="846.3862" y="-75.1818" font-family="Helvetica,sans-Serif" font-size="11.00" fill="#000000"> &#160;</text>
</a>
</g>
</g>
<!-- court_appearance_movement&#45;&gt;court_appearance -->
<g id="edge6" class="edge">
<title>court_appearance_movement:w&#45;&gt;court_appearance:e</title>
<path fill="none" stroke="#000000" d="M604.0562,-97.5113C548.9836,-100.8918 531.9001,-123.0818 470,-123.0818"/>
<polygon fill="#000000" stroke="#000000" points="610.5035,-97.3196 618.607,-100.6802 614.5018,-97.2007 618.5,-97.0818 618.5,-97.0818 618.5,-97.0818 614.5018,-97.2007 618.393,-93.4834 610.5035,-97.3196 610.5035,-97.3196"/>
<ellipse fill="none" stroke="#000000" cx="607.305" cy="-97.4148" rx="3.2" ry="3.2"/>
</g>
<!-- court_appearance_movement&#45;&gt;person_summary -->
<g id="edge7" class="edge">
<title>court_appearance_movement:w&#45;&gt;person_summary:e</title>
<path fill="none" stroke="#000000" d="M604.1959,-94.841C595.7087,-91.9109 590.0695,-86.9334 577,-85.0818 412.4213,-61.7649 334.4719,16.6284 203,-85.0818 145.6188,-129.4733 234.548,-243.0818 162,-243.0818"/>
<polygon fill="#000000" stroke="#000000" points="610.5964,-95.8436 617.9428,-100.6384 614.5482,-96.4627 618.5,-97.0818 618.5,-97.0818 618.5,-97.0818 614.5482,-96.4627 619.0572,-93.5251 610.5964,-95.8436 610.5964,-95.8436"/>
<ellipse fill="none" stroke="#000000" cx="607.4349" cy="-95.3484" rx="3.2" ry="3.2"/>
</g>
<!-- court_appearance_movement_audit -->
<g id="node6" class="node">
<title>court_appearance_movement_audit</title>
<g id="a_node6"><a xlink:href="../../tables/court_appearance_movement_audit.html" xlink:title="court_appearance_movement_audit" target="_top">
<polygon fill="#ffffff" stroke="transparent" points="211,-178.0818 211,-510.0818 569,-510.0818 569,-178.0818 211,-178.0818"/>
<polygon fill="#f5f5f5" stroke="transparent" points="213,-485.0818 213,-508.0818 567,-508.0818 567,-485.0818 213,-485.0818"/>
<polygon fill="none" stroke="#000000" points="213,-485.0818 213,-508.0818 567,-508.0818 567,-485.0818 213,-485.0818"/>
<text text-anchor="start" x="218" y="-493.6818" font-family="Helvetica,sans-Serif" font-weight="bold" font-size="11.00" fill="#000000">court_appearance_movement_audit</text>
<text text-anchor="start" x="532.0437" y="-493.1818" font-family="Helvetica,sans-Serif" font-size="11.00" fill="#000000">[table]</text>
<polygon fill="none" stroke="#000000" points="213,-463.0818 213,-485.0818 473,-485.0818 473,-463.0818 213,-463.0818"/>
<image xlink:href="../../images/primaryKeys.png" width="11px" height="12px" preserveAspectRatio="xMinYMin meet" x="218" y="-480.082"/>
<text text-anchor="start" x="233" y="-470.1818" font-family="Helvetica,sans-Serif" font-size="11.00" fill="#000000">rev_id</text>
<polygon fill="none" stroke="#000000" points="473,-463.0818 473,-485.0818 567,-485.0818 567,-463.0818 473,-463.0818"/>
<text text-anchor="start" x="476" y="-470.7818" font-family="Helvetica,sans-Serif" font-size="11.00" fill="#000000">int8[19]</text>
<polygon fill="none" stroke="#000000" points="213,-441.0818 213,-463.0818 473,-463.0818 473,-441.0818 213,-441.0818"/>
<text text-anchor="start" x="233" y="-448.1818" font-family="Helvetica,sans-Serif" font-size="11.00" fill="#000000">rev_type</text>
<polygon fill="none" stroke="#000000" points="473,-441.0818 473,-463.0818 567,-463.0818 567,-441.0818 473,-441.0818"/>
<text text-anchor="start" x="476" y="-448.7818" font-family="Helvetica,sans-Serif" font-size="11.00" fill="#000000">int2[5]</text>
<polygon fill="none" stroke="#000000" points="213,-419.0818 213,-441.0818 473,-441.0818 473,-419.0818 213,-419.0818"/>
<image xlink:href="../../images/primaryKeys.png" width="11px" height="12px" preserveAspectRatio="xMinYMin meet" x="218" y="-436.082"/>
<text text-anchor="start" x="233" y="-426.1818" font-family="Helvetica,sans-Serif" font-size="11.00" fill="#000000">id</text>
<polygon fill="none" stroke="#000000" points="473,-419.0818 473,-441.0818 567,-441.0818 567,-419.0818 473,-419.0818"/>
<text text-anchor="start" x="475.9758" y="-426.7818" font-family="Helvetica,sans-Serif" font-size="11.00" fill="#000000">uuid[2147483647]</text>
<polygon fill="none" stroke="#000000" points="213,-397.0818 213,-419.0818 473,-419.0818 473,-397.0818 213,-397.0818"/>
<text text-anchor="start" x="233" y="-404.1818" font-family="Helvetica,sans-Serif" font-size="11.00" fill="#000000">version</text>
<polygon fill="none" stroke="#000000" points="473,-397.0818 473,-419.0818 567,-419.0818 567,-397.0818 473,-397.0818"/>
<text text-anchor="start" x="476" y="-404.7818" font-family="Helvetica,sans-Serif" font-size="11.00" fill="#000000">int4[10]</text>
<polygon fill="#ffffff" stroke="transparent" points="213,-375.0818 213,-397.0818 473,-397.0818 473,-375.0818 213,-375.0818"/>
<polygon fill="none" stroke="#000000" points="213,-375.0818 213,-397.0818 473,-397.0818 473,-375.0818 213,-375.0818"/>
<text text-anchor="start" x="233" y="-382.1818" font-family="Helvetica,sans-Serif" font-size="11.00" fill="#000000">court_appearance_id</text>
<polygon fill="none" stroke="#000000" points="473,-375.0818 473,-397.0818 567,-397.0818 567,-375.0818 473,-375.0818"/>
<text text-anchor="start" x="475.9758" y="-382.7818" font-family="Helvetica,sans-Serif" font-size="11.00" fill="#000000">uuid[2147483647]</text>
<polygon fill="none" stroke="#000000" points="213,-353.0818 213,-375.0818 473,-375.0818 473,-353.0818 213,-353.0818"/>
<image xlink:href="../../images/foreignKeys.png" width="11px" height="12px" preserveAspectRatio="xMinYMin meet" x="218" y="-370.082"/>
<text text-anchor="start" x="233" y="-360.1818" font-family="Helvetica,sans-Serif" font-size="11.00" fill="#000000">person_identifier</text>
<polygon fill="none" stroke="#000000" points="473,-353.0818 473,-375.0818 567,-375.0818 567,-353.0818 473,-353.0818"/>
<text text-anchor="start" x="476" y="-360.7818" font-family="Helvetica,sans-Serif" font-size="11.00" fill="#000000">varchar[10]</text>
<polygon fill="none" stroke="#000000" points="213,-331.0818 213,-353.0818 473,-353.0818 473,-331.0818 213,-331.0818"/>
<text text-anchor="start" x="233" y="-338.1818" font-family="Helvetica,sans-Serif" font-size="11.00" fill="#000000">prison_code</text>
<polygon fill="none" stroke="#000000" points="473,-331.0818 473,-353.0818 567,-353.0818 567,-331.0818 473,-331.0818"/>
<text text-anchor="start" x="476" y="-338.7818" font-family="Helvetica,sans-Serif" font-size="11.00" fill="#000000">varchar[6]</text>
<polygon fill="none" stroke="#000000" points="213,-309.0818 213,-331.0818 473,-331.0818 473,-309.0818 213,-309.0818"/>
<text text-anchor="start" x="233" y="-316.1818" font-family="Helvetica,sans-Serif" font-size="11.00" fill="#000000">court_code</text>
<polygon fill="none" stroke="#000000" points="473,-309.0818 473,-331.0818 567,-331.0818 567,-309.0818 473,-309.0818"/>
<text text-anchor="start" x="476" y="-316.7818" font-family="Helvetica,sans-Serif" font-size="11.00" fill="#000000">varchar[6]</text>
<polygon fill="none" stroke="#000000" points="213,-287.0818 213,-309.0818 473,-309.0818 473,-287.0818 213,-287.0818"/>
<text text-anchor="start" x="233" y="-294.1818" font-family="Helvetica,sans-Serif" font-size="11.00" fill="#000000">reason_id</text>
<polygon fill="none" stroke="#000000" points="473,-287.0818 473,-309.0818 567,-309.0818 567,-287.0818 473,-287.0818"/>
<text text-anchor="start" x="475.9758" y="-294.7818" font-family="Helvetica,sans-Serif" font-size="11.00" fill="#000000">uuid[2147483647]</text>
<polygon fill="none" stroke="#000000" points="213,-265.0818 213,-287.0818 473,-287.0818 473,-265.0818 213,-265.0818"/>
<text text-anchor="start" x="233" y="-272.1818" font-family="Helvetica,sans-Serif" font-size="11.00" fill="#000000">direction</text>
<polygon fill="none" stroke="#000000" points="473,-265.0818 473,-287.0818 567,-287.0818 567,-265.0818 473,-265.0818"/>
<text text-anchor="start" x="476" y="-272.7818" font-family="Helvetica,sans-Serif" font-size="11.00" fill="#000000">varchar[3]</text>
<polygon fill="none" stroke="#000000" points="213,-243.0818 213,-265.0818 473,-265.0818 473,-243.0818 213,-243.0818"/>
<text text-anchor="start" x="233" y="-250.1818" font-family="Helvetica,sans-Serif" font-size="11.00" fill="#000000">occurred_at</text>
<polygon fill="none" stroke="#000000" points="473,-243.0818 473,-265.0818 567,-265.0818 567,-243.0818 473,-243.0818"/>
<text text-anchor="start" x="476" y="-250.7818" font-family="Helvetica,sans-Serif" font-size="11.00" fill="#000000">timestamp[29,6]</text>
<polygon fill="none" stroke="#000000" points="213,-221.0818 213,-243.0818 473,-243.0818 473,-221.0818 213,-221.0818"/>
<text text-anchor="start" x="233" y="-228.1818" font-family="Helvetica,sans-Serif" font-size="11.00" fill="#000000">comments</text>
<polygon fill="none" stroke="#000000" points="473,-221.0818 473,-243.0818 567,-243.0818 567,-221.0818 473,-221.0818"/>
<text text-anchor="start" x="476" y="-228.7818" font-family="Helvetica,sans-Serif" font-size="11.00" fill="#000000">text[2147483647]</text>
<polygon fill="none" stroke="#000000" points="213,-199.0818 213,-221.0818 473,-221.0818 473,-199.0818 213,-199.0818"/>
<text text-anchor="start" x="233" y="-206.1818" font-family="Helvetica,sans-Serif" font-size="11.00" fill="#000000">legacy_id</text>
<polygon fill="none" stroke="#000000" points="473,-199.0818 473,-221.0818 567,-221.0818 567,-199.0818 473,-199.0818"/>
<text text-anchor="start" x="476" y="-206.7818" font-family="Helvetica,sans-Serif" font-size="11.00" fill="#000000">varchar[32]</text>
<polygon fill="#ffffff" stroke="transparent" points="213,-180.0818 213,-199.0818 347,-199.0818 347,-180.0818 213,-180.0818"/>
<polygon fill="none" stroke="#000000" points="213,-180.0818 213,-199.0818 347,-199.0818 347,-180.0818 213,-180.0818"/>
<text text-anchor="start" x="216" y="-186.1818" font-family="Helvetica,sans-Serif" font-size="11.00" fill="#000000">&lt; 2</text>
<polygon fill="#ffffff" stroke="transparent" points="347,-180.0818 347,-199.0818 473,-199.0818 473,-180.0818 347,-180.0818"/>
<polygon fill="none" stroke="#000000" points="347,-180.0818 347,-199.0818 473,-199.0818 473,-180.0818 347,-180.0818"/>
<text text-anchor="start" x="463.8862" y="-186.1818" font-family="Helvetica,sans-Serif" font-size="11.00" fill="#000000"> &#160;</text>
<polygon fill="#ffffff" stroke="transparent" points="473,-180.0818 473,-199.0818 567,-199.0818 567,-180.0818 473,-180.0818"/>
<polygon fill="none" stroke="#000000" points="473,-180.0818 473,-199.0818 567,-199.0818 567,-180.0818 473,-180.0818"/>
<text text-anchor="start" x="548.4053" y="-186.1818" font-family="Helvetica,sans-Serif" font-size="11.00" fill="#000000">0 &gt;</text>
<polygon fill="none" stroke="#000000" stroke-width="2" points="212,-179.0818 212,-509.0818 568,-509.0818 568,-179.0818 212,-179.0818"/>
</a>
</g>
</g>
<!-- court_appearance_movement_audit&#45;&gt;audit_revision -->
<g id="edge9" class="edge">
<title>court_appearance_movement_audit:w&#45;&gt;audit_revision:e</title>
<path fill="none" stroke="#000000" d="M198.7311,-477.5188C180.6164,-487.5496 179.1299,-516.0818 152,-516.0818"/>
<polygon fill="#000000" stroke="#000000" points="205.2224,-475.9552 213.8431,-477.5817 209.1112,-475.0185 213,-474.0818 213,-474.0818 213,-474.0818 209.1112,-475.0185 212.1569,-470.5819 205.2224,-475.9552 205.2224,-475.9552"/>
<ellipse fill="none" stroke="#000000" cx="202.1114" cy="-476.7046" rx="3.2" ry="3.2"/>
</g>
<!-- court_appearance_movement_audit&#45;&gt;person_summary -->
<g id="edge8" class="edge">
<title>court_appearance_movement_audit:w&#45;&gt;person_summary:e</title>
<path fill="none" stroke="#000000" stroke-dasharray="5,2" d="M198.7982,-360.591C166.7098,-340.7517 214.4323,-243.0818 162,-243.0818"/>
<polygon fill="#000000" stroke="#000000" points="205.2312,-362.1722 212.1407,-367.5777 209.1156,-363.127 213,-364.0818 213,-364.0818 213,-364.0818 209.1156,-363.127 213.8593,-360.5858 205.2312,-362.1722 205.2312,-362.1722"/>
<ellipse fill="none" stroke="#000000" cx="202.1237" cy="-361.4083" rx="3.2" ry="3.2"/>
</g>
</g>
</svg>
