<?xml version="1.0" encoding="UTF-8" standalone="no"?>
<!DOCTYPE svg PUBLIC "-//W3C//DTD SVG 1.1//EN"
 "http://www.w3.org/Graphics/SVG/1.1/DTD/svg11.dtd">
<!-- Generated by graphviz version 2.40.1 (20161225.0304)
 -->
<!-- Title: twoDegreesRelationshipsDiagramImplied Pages: 1 -->
<svg width="793pt" height="619pt"
 viewBox="0.00 0.00 793.00 618.76" xmlns="http://www.w3.org/2000/svg" xmlns:xlink="http://www.w3.org/1999/xlink">
<g id="graph0" class="graph" transform="scale(1 1) rotate(0) translate(4 614.7622)">
<title>twoDegreesRelationshipsDiagramImplied</title>
<polygon fill="#ffffff" stroke="transparent" points="-4,4 -4,-614.7622 789,-614.7622 789,4 -4,4"/>
<text text-anchor="middle" x="72.4936" y="-7.3" font-family="Helvetica,sans-Serif" font-size="11.00" fill="#000000">Generated by SchemaSpy</text>
<!-- court_appearance -->
<g id="node1" class="node">
<title>court_appearance</title>
<g id="a_node1"><a xlink:href="../../tables/court_appearance.html" xlink:title="court_appearance" target="_top">
<polygon fill="#ffffff" stroke="transparent" points="271.5,-170.2622 271.5,-231.2622 430.5,-231.2622 430.5,-170.2622 271.5,-170.2622"/>
<polygon fill="#f5f5f5" stroke="transparent" points="272,-207.7622 272,-230.7622 431,-230.7622 431,-207.7622 272,-207.7622"/>
<polygon fill="none" stroke="#000000" points="272,-207.7622 272,-230.7622 431,-230.7622 431,-207.7622 272,-207.7622"/>
<text text-anchor="start" x="277" y="-216.3622" font-family="Helvetica,sans-Serif" font-weight="bold" font-size="11.00" fill="#000000">court_appearance</text>
<text text-anchor="start" x="396.5219" y="-215.8622" font-family="Helvetica,sans-Serif" font-size="11.00" fill="#000000">[table]</text>
<polygon fill="none" stroke="#000000" points="272,-188.7622 272,-207.7622 431,-207.7622 431,-188.7622 272,-188.7622"/>
<text text-anchor="start" x="275" y="-194.8622" font-family="Helvetica,sans-Serif" font-size="11.00" fill="#000000">...</text>
<polygon fill="#ffffff" stroke="transparent" points="272,-169.7622 272,-188.7622 345,-188.7622 345,-169.7622 272,-169.7622"/>
<polygon fill="none" stroke="#000000" points="272,-169.7622 272,-188.7622 345,-188.7622 345,-169.7622 272,-169.7622"/>
<text text-anchor="start" x="275" y="-175.8622" font-family="Helvetica,sans-Serif" font-size="11.00" fill="#000000">&lt; 4</text>
<polygon fill="#ffffff" stroke="transparent" points="345,-169.7622 345,-188.7622 383,-188.7622 383,-169.7622 345,-169.7622"/>
<polygon fill="none" stroke="#000000" points="345,-169.7622 345,-188.7622 383,-188.7622 383,-169.7622 345,-169.7622"/>
<text text-anchor="start" x="373.8862" y="-175.8622" font-family="Helvetica,sans-Serif" font-size="11.00" fill="#000000"> &#160;</text>
<polygon fill="#ffffff" stroke="transparent" points="383,-169.7622 383,-188.7622 431,-188.7622 431,-169.7622 383,-169.7622"/>
<polygon fill="none" stroke="#000000" points="383,-169.7622 383,-188.7622 431,-188.7622 431,-169.7622 383,-169.7622"/>
<text text-anchor="start" x="412.4053" y="-175.8622" font-family="Helvetica,sans-Serif" font-size="11.00" fill="#000000">1 &gt;</text>
</a>
</g>
</g>
<!-- audit_revision -->
<g id="node2" class="node">
<title>audit_revision</title>
<g id="a_node2"><a xlink:href="../../tables/audit_revision.html" xlink:title="audit_revision" target="_top">
<polygon fill="#ffffff" stroke="transparent" points="18,-219.2622 18,-302.2622 152,-302.2622 152,-219.2622 18,-219.2622"/>
<polygon fill="#f5f5f5" stroke="transparent" points="18,-278.7622 18,-301.7622 152,-301.7622 152,-278.7622 18,-278.7622"/>
<polygon fill="none" stroke="#000000" points="18,-278.7622 18,-301.7622 152,-301.7622 152,-278.7622 18,-278.7622"/>
<text text-anchor="start" x="23" y="-287.3622" font-family="Helvetica,sans-Serif" font-weight="bold" font-size="11.00" fill="#000000">audit_revision</text>
<text text-anchor="start" x="117.5219" y="-286.8622" font-family="Helvetica,sans-Serif" font-size="11.00" fill="#000000">[table]</text>
<polygon fill="none" stroke="#000000" points="18,-256.7622 18,-278.7622 152,-278.7622 152,-256.7622 18,-256.7622"/>
<image xlink:href="../../images/primaryKeys.png" width="11px" height="12px" preserveAspectRatio="xMinYMin meet" x="23" y="-273.762"/>
<text text-anchor="start" x="38" y="-263.8622" font-family="Helvetica,sans-Serif" font-size="11.00" fill="#000000">id</text>
<polygon fill="none" stroke="#000000" points="18,-237.7622 18,-256.7622 152,-256.7622 152,-237.7622 18,-237.7622"/>
<text text-anchor="start" x="21" y="-243.8622" font-family="Helvetica,sans-Serif" font-size="11.00" fill="#000000">...</text>
<polygon fill="#ffffff" stroke="transparent" points="18,-218.7622 18,-237.7622 74,-237.7622 74,-218.7622 18,-218.7622"/>
<polygon fill="none" stroke="#000000" points="18,-218.7622 18,-237.7622 74,-237.7622 74,-218.7622 18,-218.7622"/>
<text text-anchor="start" x="21" y="-224.8622" font-family="Helvetica,sans-Serif" font-size="11.00" fill="#000000"> &#160;</text>
<polygon fill="#ffffff" stroke="transparent" points="74,-218.7622 74,-237.7622 108,-237.7622 108,-218.7622 74,-218.7622"/>
<polygon fill="none" stroke="#000000" points="74,-218.7622 74,-237.7622 108,-237.7622 108,-218.7622 74,-218.7622"/>
<text text-anchor="start" x="98.8862" y="-224.8622" font-family="Helvetica,sans-Serif" font-size="11.00" fill="#000000"> &#160;</text>
<polygon fill="#ffffff" stroke="transparent" points="108,-218.7622 108,-237.7622 152,-237.7622 152,-218.7622 108,-218.7622"/>
<polygon fill="none" stroke="#000000" points="108,-218.7622 108,-237.7622 152,-237.7622 152,-218.7622 108,-218.7622"/>
<text text-anchor="start" x="133.4053" y="-224.8622" font-family="Helvetica,sans-Serif" font-size="11.00" fill="#000000">4 &gt;</text>
</a>
</g>
</g>
<!-- court_appearance&#45;&gt;audit_revision -->
<g id="edge1" class="edge">
<title>court_appearance:w&#45;&gt;audit_revision:e</title>
<path fill="none" stroke="#000000" stroke-dasharray="5,2" d="M261.3823,-199.934C229.1442,-211.7492 179.6161,-267.7622 152,-267.7622"/>
<polygon fill="#000000" stroke="#000000" points="270.4146,-194.0037 272.0178,-201.8414 270.4503,-202.162 268.8471,-194.3243 270.4146,-194.0037"/>
<polyline fill="none" stroke="#000000" points="272,-197.7622 268.0811,-198.5638 "/>
<ellipse fill="none" stroke="#000000" cx="264.946" cy="-199.2051" rx="3.2" ry="3.2"/>
</g>
<!-- person_summary -->
<g id="node3" class="node">
<title>person_summary</title>
<g id="a_node3"><a xlink:href="../../tables/person_summary.html" xlink:title="person_summary" target="_top">
<polygon fill="#ffffff" stroke="transparent" points="8,-83.2622 8,-166.2622 162,-166.2622 162,-83.2622 8,-83.2622"/>
<polygon fill="#f5f5f5" stroke="transparent" points="8,-142.7622 8,-165.7622 162,-165.7622 162,-142.7622 8,-142.7622"/>
<polygon fill="none" stroke="#000000" points="8,-142.7622 8,-165.7622 162,-165.7622 162,-142.7622 8,-142.7622"/>
<text text-anchor="start" x="13" y="-151.3622" font-family="Helvetica,sans-Serif" font-weight="bold" font-size="11.00" fill="#000000">person_summary</text>
<text text-anchor="start" x="127.5219" y="-150.8622" font-family="Helvetica,sans-Serif" font-size="11.00" fill="#000000">[table]</text>
<polygon fill="none" stroke="#000000" points="8,-120.7622 8,-142.7622 162,-142.7622 162,-120.7622 8,-120.7622"/>
<image xlink:href="../../images/primaryKeys.png" width="11px" height="12px" preserveAspectRatio="xMinYMin meet" x="13" y="-137.762"/>
<text text-anchor="start" x="37" y="-127.8622" font-family="Helvetica,sans-Serif" font-size="11.00" fill="#000000">person_identifier</text>
<polygon fill="none" stroke="#000000" points="8,-101.7622 8,-120.7622 162,-120.7622 162,-101.7622 8,-101.7622"/>
<text text-anchor="start" x="11" y="-107.8622" font-family="Helvetica,sans-Serif" font-size="11.00" fill="#000000">...</text>
<polygon fill="#ffffff" stroke="transparent" points="8,-82.7622 8,-101.7622 74,-101.7622 74,-82.7622 8,-82.7622"/>
<polygon fill="none" stroke="#000000" points="8,-82.7622 8,-101.7622 74,-101.7622 74,-82.7622 8,-82.7622"/>
<text text-anchor="start" x="11" y="-88.8622" font-family="Helvetica,sans-Serif" font-size="11.00" fill="#000000"> &#160;</text>
<polygon fill="#ffffff" stroke="transparent" points="74,-82.7622 74,-101.7622 113,-101.7622 113,-82.7622 74,-82.7622"/>
<polygon fill="none" stroke="#000000" points="74,-82.7622 74,-101.7622 113,-101.7622 113,-82.7622 74,-82.7622"/>
<text text-anchor="start" x="103.8862" y="-88.8622" font-family="Helvetica,sans-Serif" font-size="11.00" fill="#000000"> &#160;</text>
<polygon fill="#ffffff" stroke="transparent" points="113,-82.7622 113,-101.7622 162,-101.7622 162,-82.7622 113,-82.7622"/>
<polygon fill="none" stroke="#000000" points="113,-82.7622 113,-101.7622 162,-101.7622 162,-82.7622 113,-82.7622"/>
<text text-anchor="start" x="143.4053" y="-88.8622" font-family="Helvetica,sans-Serif" font-size="11.00" fill="#000000">4 &gt;</text>
</a>
</g>
</g>
<!-- court_appearance&#45;&gt;person_summary -->
<g id="edge2" class="edge">
<title>court_appearance:w&#45;&gt;person_summary:e</title>
<path fill="none" stroke="#000000" d="M257.6326,-196.4022C235.0617,-191.6501 228.1632,-175.2345 203,-159.7622 184.203,-148.2043 184.0661,-131.7622 162,-131.7622"/>
<polygon fill="#000000" stroke="#000000" points="264.0356,-197.0082 271.6607,-201.3462 268.0178,-197.3852 272,-197.7622 272,-197.7622 272,-197.7622 268.0178,-197.3852 272.3393,-194.1783 264.0356,-197.0082 264.0356,-197.0082"/>
<ellipse fill="none" stroke="#000000" cx="260.8498" cy="-196.7066" rx="3.2" ry="3.2"/>
</g>
<!-- court_appearance_audit -->
<g id="node4" class="node">
<title>court_appearance_audit</title>
<g id="a_node4"><a xlink:href="../../tables/court_appearance_audit.html" xlink:title="court_appearance_audit" target="_top">
<polygon fill="#ffffff" stroke="transparent" points="211,-252.7622 211,-606.7622 491,-606.7622 491,-252.7622 211,-252.7622"/>
<polygon fill="#f5f5f5" stroke="transparent" points="213,-581.7622 213,-604.7622 489,-604.7622 489,-581.7622 213,-581.7622"/>
<polygon fill="none" stroke="#000000" points="213,-581.7622 213,-604.7622 489,-604.7622 489,-581.7622 213,-581.7622"/>
<text text-anchor="start" x="218" y="-590.3622" font-family="Helvetica,sans-Serif" font-weight="bold" font-size="11.00" fill="#000000">court_appearance_audit</text>
<text text-anchor="start" x="454.0437" y="-589.8622" font-family="Helvetica,sans-Serif" font-size="11.00" fill="#000000">[table]</text>
<polygon fill="none" stroke="#000000" points="213,-559.7622 213,-581.7622 395,-581.7622 395,-559.7622 213,-559.7622"/>
<image xlink:href="../../images/primaryKeys.png" width="11px" height="12px" preserveAspectRatio="xMinYMin meet" x="218" y="-576.762"/>
<text text-anchor="start" x="233" y="-566.8622" font-family="Helvetica,sans-Serif" font-size="11.00" fill="#000000">rev_id</text>
<polygon fill="none" stroke="#000000" points="395,-559.7622 395,-581.7622 489,-581.7622 489,-559.7622 395,-559.7622"/>
<text text-anchor="start" x="398" y="-567.4622" font-family="Helvetica,sans-Serif" font-size="11.00" fill="#000000">int8[19]</text>
<polygon fill="none" stroke="#000000" points="213,-537.7622 213,-559.7622 395,-559.7622 395,-537.7622 213,-537.7622"/>
<text text-anchor="start" x="233" y="-544.8622" font-family="Helvetica,sans-Serif" font-size="11.00" fill="#000000">rev_type</text>
<polygon fill="none" stroke="#000000" points="395,-537.7622 395,-559.7622 489,-559.7622 489,-537.7622 395,-537.7622"/>
<text text-anchor="start" x="398" y="-545.4622" font-family="Helvetica,sans-Serif" font-size="11.00" fill="#000000">int2[5]</text>
<polygon fill="none" stroke="#000000" points="213,-515.7622 213,-537.7622 395,-537.7622 395,-515.7622 213,-515.7622"/>
<image xlink:href="../../images/primaryKeys.png" width="11px" height="12px" preserveAspectRatio="xMinYMin meet" x="218" y="-532.762"/>
<text text-anchor="start" x="233" y="-522.8622" font-family="Helvetica,sans-Serif" font-size="11.00" fill="#000000">id</text>
<polygon fill="none" stroke="#000000" points="395,-515.7622 395,-537.7622 489,-537.7622 489,-515.7622 395,-515.7622"/>
<text text-anchor="start" x="397.9758" y="-523.4622" font-family="Helvetica,sans-Serif" font-size="11.00" fill="#000000">uuid[2147483647]</text>
<polygon fill="none" stroke="#000000" points="213,-493.7622 213,-515.7622 395,-515.7622 395,-493.7622 213,-493.7622"/>
<text text-anchor="start" x="233" y="-500.8622" font-family="Helvetica,sans-Serif" font-size="11.00" fill="#000000">version</text>
<polygon fill="none" stroke="#000000" points="395,-493.7622 395,-515.7622 489,-515.7622 489,-493.7622 395,-493.7622"/>
<text text-anchor="start" x="398" y="-501.4622" font-family="Helvetica,sans-Serif" font-size="11.00" fill="#000000">int4[10]</text>
<polygon fill="none" stroke="#000000" points="213,-471.7622 213,-493.7622 395,-493.7622 395,-471.7622 213,-471.7622"/>
<image xlink:href="../../images/foreignKeys.png" width="11px" height="12px" preserveAspectRatio="xMinYMin meet" x="218" y="-488.762"/>
<text text-anchor="start" x="233" y="-478.8622" font-family="Helvetica,sans-Serif" font-size="11.00" fill="#000000">person_identifier</text>
<polygon fill="none" stroke="#000000" points="395,-471.7622 395,-493.7622 489,-493.7622 489,-471.7622 395,-471.7622"/>
<text text-anchor="start" x="398" y="-479.4622" font-family="Helvetica,sans-Serif" font-size="11.00" fill="#000000">varchar[10]</text>
<polygon fill="none" stroke="#000000" points="213,-449.7622 213,-471.7622 395,-471.7622 395,-449.7622 213,-449.7622"/>
<text text-anchor="start" x="233" y="-456.8622" font-family="Helvetica,sans-Serif" font-size="11.00" fill="#000000">prison_code</text>
<polygon fill="none" stroke="#000000" points="395,-449.7622 395,-471.7622 489,-471.7622 489,-449.7622 395,-449.7622"/>
<text text-anchor="start" x="398" y="-457.4622" font-family="Helvetica,sans-Serif" font-size="11.00" fill="#000000">varchar[6]</text>
<polygon fill="none" stroke="#000000" points="213,-427.7622 213,-449.7622 395,-449.7622 395,-427.7622 213,-427.7622"/>
<text text-anchor="start" x="233" y="-434.8622" font-family="Helvetica,sans-Serif" font-size="11.00" fill="#000000">court_code</text>
<polygon fill="none" stroke="#000000" points="395,-427.7622 395,-449.7622 489,-449.7622 489,-427.7622 395,-427.7622"/>
<text text-anchor="start" x="398" y="-435.4622" font-family="Helvetica,sans-Serif" font-size="11.00" fill="#000000">varchar[6]</text>
<polygon fill="none" stroke="#000000" points="213,-405.7622 213,-427.7622 395,-427.7622 395,-405.7622 213,-405.7622"/>
<text text-anchor="start" x="233" y="-412.8622" font-family="Helvetica,sans-Serif" font-size="11.00" fill="#000000">reason_id</text>
<polygon fill="none" stroke="#000000" points="395,-405.7622 395,-427.7622 489,-427.7622 489,-405.7622 395,-405.7622"/>
<text text-anchor="start" x="397.9758" y="-413.4622" font-family="Helvetica,sans-Serif" font-size="11.00" fill="#000000">uuid[2147483647]</text>
<polygon fill="none" stroke="#000000" points="213,-383.7622 213,-405.7622 395,-405.7622 395,-383.7622 213,-383.7622"/>
<text text-anchor="start" x="233" y="-390.8622" font-family="Helvetica,sans-Serif" font-size="11.00" fill="#000000">external</text>
<polygon fill="none" stroke="#000000" points="395,-383.7622 395,-405.7622 489,-405.7622 489,-383.7622 395,-383.7622"/>
<text text-anchor="start" x="398" y="-391.4622" font-family="Helvetica,sans-Serif" font-size="11.00" fill="#000000">bool[1]</text>
<polygon fill="none" stroke="#000000" points="213,-361.7622 213,-383.7622 395,-383.7622 395,-361.7622 213,-361.7622"/>
<text text-anchor="start" x="233" y="-368.8622" font-family="Helvetica,sans-Serif" font-size="11.00" fill="#000000">status_id</text>
<polygon fill="none" stroke="#000000" points="395,-361.7622 395,-383.7622 489,-383.7622 489,-361.7622 395,-361.7622"/>
<text text-anchor="start" x="397.9758" y="-369.4622" font-family="Helvetica,sans-Serif" font-size="11.00" fill="#000000">uuid[2147483647]</text>
<polygon fill="none" stroke="#000000" points="213,-339.7622 213,-361.7622 395,-361.7622 395,-339.7622 213,-339.7622"/>
<text text-anchor="start" x="233" y="-346.8622" font-family="Helvetica,sans-Serif" font-size="11.00" fill="#000000">start</text>
<polygon fill="none" stroke="#000000" points="395,-339.7622 395,-361.7622 489,-361.7622 489,-339.7622 395,-339.7622"/>
<text text-anchor="start" x="398" y="-347.4622" font-family="Helvetica,sans-Serif" font-size="11.00" fill="#000000">timestamp[29,6]</text>
<polygon fill="none" stroke="#000000" points="213,-317.7622 213,-339.7622 395,-339.7622 395,-317.7622 213,-317.7622"/>
<text text-anchor="start" x="233" y="-324.8622" font-family="Helvetica,sans-Serif" font-size="11.00" fill="#000000">end</text>
<polygon fill="none" stroke="#000000" points="395,-317.7622 395,-339.7622 489,-339.7622 489,-317.7622 395,-317.7622"/>
<text text-anchor="start" x="398" y="-325.4622" font-family="Helvetica,sans-Serif" font-size="11.00" fill="#000000">timestamp[29,6]</text>
<polygon fill="none" stroke="#000000" points="213,-295.7622 213,-317.7622 395,-317.7622 395,-295.7622 213,-295.7622"/>
<text text-anchor="start" x="233" y="-302.8622" font-family="Helvetica,sans-Serif" font-size="11.00" fill="#000000">comments</text>
<polygon fill="none" stroke="#000000" points="395,-295.7622 395,-317.7622 489,-317.7622 489,-295.7622 395,-295.7622"/>
<text text-anchor="start" x="398" y="-303.4622" font-family="Helvetica,sans-Serif" font-size="11.00" fill="#000000">text[2147483647]</text>
<polygon fill="none" stroke="#000000" points="213,-273.7622 213,-295.7622 395,-295.7622 395,-273.7622 213,-273.7622"/>
<image xlink:href="../../images/foreignKeys.png" width="11px" height="12px" preserveAspectRatio="xMinYMin meet" x="218" y="-290.762"/>
<text text-anchor="start" x="233" y="-280.8622" font-family="Helvetica,sans-Serif" font-size="11.00" fill="#000000">legacy_id</text>
<polygon fill="none" stroke="#000000" points="395,-273.7622 395,-295.7622 489,-295.7622 489,-273.7622 395,-273.7622"/>
<text text-anchor="start" x="398" y="-281.4622" font-family="Helvetica,sans-Serif" font-size="11.00" fill="#000000">int8[19]</text>
<polygon fill="#ffffff" stroke="transparent" points="213,-254.7622 213,-273.7622 308,-273.7622 308,-254.7622 213,-254.7622"/>
<polygon fill="none" stroke="#000000" points="213,-254.7622 213,-273.7622 308,-273.7622 308,-254.7622 213,-254.7622"/>
<text text-anchor="start" x="216" y="-260.8622" font-family="Helvetica,sans-Serif" font-size="11.00" fill="#000000">&lt; 3</text>
<polygon fill="#ffffff" stroke="transparent" points="308,-254.7622 308,-273.7622 395,-273.7622 395,-254.7622 308,-254.7622"/>
<polygon fill="none" stroke="#000000" points="308,-254.7622 308,-273.7622 395,-273.7622 395,-254.7622 308,-254.7622"/>
<text text-anchor="start" x="385.8862" y="-260.8622" font-family="Helvetica,sans-Serif" font-size="11.00" fill="#000000"> &#160;</text>
<polygon fill="#ffffff" stroke="transparent" points="395,-254.7622 395,-273.7622 489,-273.7622 489,-254.7622 395,-254.7622"/>
<polygon fill="none" stroke="#000000" points="395,-254.7622 395,-273.7622 489,-273.7622 489,-254.7622 395,-254.7622"/>
<text text-anchor="start" x="470.4053" y="-260.8622" font-family="Helvetica,sans-Serif" font-size="11.00" fill="#000000">0 &gt;</text>
<polygon fill="none" stroke="#000000" stroke-width="2" points="212,-253.7622 212,-605.7622 490,-605.7622 490,-253.7622 212,-253.7622"/>
</a>
</g>
</g>
<!-- court_appearance_audit&#45;&gt;audit_revision -->
<g id="edge3" class="edge">
<title>court_appearance_audit:w&#45;&gt;audit_revision:e</title>
<path fill="none" stroke="#000000" stroke-dasharray="5,2" d="M198.3573,-282.9429C181.9749,-278.5574 174.4274,-267.7622 152,-267.7622"/>
<polygon fill="#000000" stroke="#000000" points="205.061,-283.7758 212.5561,-288.3348 209.0305,-284.269 213,-284.7622 213,-284.7622 213,-284.7622 209.0305,-284.269 213.4439,-281.1897 205.061,-283.7758 205.061,-283.7758"/>
<ellipse fill="none" stroke="#000000" cx="201.8855" cy="-283.3812" rx="3.2" ry="3.2"/>
</g>
<!-- court_appearance_audit&#45;&gt;audit_revision -->
<g id="edge5" class="edge">
<title>court_appearance_audit:w&#45;&gt;audit_revision:e</title>
<path fill="none" stroke="#000000" d="M198.4675,-569.4113C91.7939,-547.5527 284.0026,-267.7622 152,-267.7622"/>
<polygon fill="#000000" stroke="#000000" points="205.0343,-570.0217 212.6668,-574.3468 209.0172,-570.392 213,-570.7622 213,-570.7622 213,-570.7622 209.0172,-570.392 213.3332,-567.1777 205.0343,-570.0217 205.0343,-570.0217"/>
<ellipse fill="none" stroke="#000000" cx="201.8481" cy="-569.7255" rx="3.2" ry="3.2"/>
</g>
<!-- court_appearance_audit&#45;&gt;person_summary -->
<g id="edge4" class="edge">
<title>court_appearance_audit:w&#45;&gt;person_summary:e</title>
<path fill="none" stroke="#000000" stroke-dasharray="5,2" d="M199.3174,-478.0658C147.8937,-436.4142 235.431,-131.7622 162,-131.7622"/>
<polygon fill="#000000" stroke="#000000" points="205.4333,-480.165 211.8312,-486.1672 209.2167,-481.4636 213,-482.7622 213,-482.7622 213,-482.7622 209.2167,-481.4636 214.1688,-479.3572 205.4333,-480.165 205.4333,-480.165"/>
<ellipse fill="none" stroke="#000000" cx="202.4066" cy="-479.1261" rx="3.2" ry="3.2"/>
</g>
<!-- court_appearance_movement -->
<g id="node5" class="node">
<title>court_appearance_movement</title>
<g id="a_node5"><a xlink:href="../../tables/court_appearance_movement.html" xlink:title="court_appearance_movement" target="_top">
<polygon fill="#ffffff" stroke="transparent" points="540,-103.2622 540,-164.2622 777,-164.2622 777,-103.2622 540,-103.2622"/>
<polygon fill="#f5f5f5" stroke="transparent" points="540.5,-140.7622 540.5,-163.7622 777.5,-163.7622 777.5,-140.7622 540.5,-140.7622"/>
<polygon fill="none" stroke="#000000" points="540.5,-140.7622 540.5,-163.7622 777.5,-163.7622 777.5,-140.7622 540.5,-140.7622"/>
<text text-anchor="start" x="545.5" y="-149.3622" font-family="Helvetica,sans-Serif" font-weight="bold" font-size="11.00" fill="#000000">court_appearance_movement</text>
<text text-anchor="start" x="743.0219" y="-148.8622" font-family="Helvetica,sans-Serif" font-size="11.00" fill="#000000">[table]</text>
<polygon fill="none" stroke="#000000" points="540.5,-121.7622 540.5,-140.7622 777.5,-140.7622 777.5,-121.7622 540.5,-121.7622"/>
<text text-anchor="start" x="543.5" y="-127.8622" font-family="Helvetica,sans-Serif" font-size="11.00" fill="#000000">...</text>
<polygon fill="#ffffff" stroke="transparent" points="540.5,-102.7622 540.5,-121.7622 657.5,-121.7622 657.5,-102.7622 540.5,-102.7622"/>
<polygon fill="none" stroke="#000000" points="540.5,-102.7622 540.5,-121.7622 657.5,-121.7622 657.5,-102.7622 540.5,-102.7622"/>
<text text-anchor="start" x="543.5" y="-108.8622" font-family="Helvetica,sans-Serif" font-size="11.00" fill="#000000">&lt; 3</text>
<polygon fill="#ffffff" stroke="transparent" points="657.5,-102.7622 657.5,-121.7622 717.5,-121.7622 717.5,-102.7622 657.5,-102.7622"/>
<polygon fill="none" stroke="#000000" points="657.5,-102.7622 657.5,-121.7622 717.5,-121.7622 717.5,-102.7622 657.5,-102.7622"/>
<text text-anchor="start" x="708.3862" y="-108.8622" font-family="Helvetica,sans-Serif" font-size="11.00" fill="#000000"> &#160;</text>
<polygon fill="#ffffff" stroke="transparent" points="717.5,-102.7622 717.5,-121.7622 777.5,-121.7622 777.5,-102.7622 717.5,-102.7622"/>
<polygon fill="none" stroke="#000000" points="717.5,-102.7622 717.5,-121.7622 777.5,-121.7622 777.5,-102.7622 717.5,-102.7622"/>
<text text-anchor="start" x="768.3862" y="-108.8622" font-family="Helvetica,sans-Serif" font-size="11.00" fill="#000000"> &#160;</text>
</a>
</g>
</g>
<!-- court_appearance_movement&#45;&gt;court_appearance -->
<g id="edge6" class="edge">
<title>court_appearance_movement:w&#45;&gt;court_appearance:e</title>
<path fill="none" stroke="#000000" d="M526.2517,-134.1341C516.6054,-139.706 512.8537,-151.0814 499,-159.7622 469.6626,-178.1453 465.6211,-197.7622 431,-197.7622"/>
<polygon fill="#000000" stroke="#000000" points="532.715,-132.6046 541.3291,-134.2655 536.6075,-131.6834 540.5,-130.7622 540.5,-130.7622 540.5,-130.7622 536.6075,-131.6834 539.6709,-127.259 532.715,-132.6046 532.715,-132.6046"/>
<ellipse fill="none" stroke="#000000" cx="529.601" cy="-133.3416" rx="3.2" ry="3.2"/>
</g>
<!-- court_appearance_movement&#45;&gt;person_summary -->
<g id="edge7" class="edge">
<title>court_appearance_movement:w&#45;&gt;person_summary:e</title>
<path fill="none" stroke="#000000" d="M526.7848,-126.0623C515.165,-115.1221 520.2233,-88.0994 499,-77.7622 380.7277,-20.1557 320.8399,-19.2761 203,-77.7622 176.0078,-91.1589 192.1339,-131.7622 162,-131.7622"/>
<polygon fill="#000000" stroke="#000000" points="532.932,-128.1688 539.333,-134.1678 536.716,-129.4655 540.5,-130.7622 540.5,-130.7622 540.5,-130.7622 536.716,-129.4655 541.667,-127.3566 532.932,-128.1688 532.932,-128.1688"/>
<ellipse fill="none" stroke="#000000" cx="529.9048" cy="-127.1314" rx="3.2" ry="3.2"/>
</g>
<!-- court_appearance_movement_audit -->
<g id="node6" class="node">
<title>court_appearance_movement_audit</title>
<g id="a_node6"><a xlink:href="../../tables/court_appearance_movement_audit.html" xlink:title="court_appearance_movement_audit" target="_top">
<polygon fill="#ffffff" stroke="transparent" points="212,-88.2622 212,-149.2622 490,-149.2622 490,-88.2622 212,-88.2622"/>
<polygon fill="#f5f5f5" stroke="transparent" points="212,-125.7622 212,-148.7622 490,-148.7622 490,-125.7622 212,-125.7622"/>
<polygon fill="none" stroke="#000000" points="212,-125.7622 212,-148.7622 490,-148.7622 490,-125.7622 212,-125.7622"/>
<text text-anchor="start" x="217" y="-134.3622" font-family="Helvetica,sans-Serif" font-weight="bold" font-size="11.00" fill="#000000">court_appearance_movement_audit</text>
<text text-anchor="start" x="455.5219" y="-133.8622" font-family="Helvetica,sans-Serif" font-size="11.00" fill="#000000">[table]</text>
<polygon fill="none" stroke="#000000" points="212,-106.7622 212,-125.7622 490,-125.7622 490,-106.7622 212,-106.7622"/>
<text text-anchor="start" x="215" y="-112.8622" font-family="Helvetica,sans-Serif" font-size="11.00" fill="#000000">...</text>
<polygon fill="#ffffff" stroke="transparent" points="212,-87.7622 212,-106.7622 349,-106.7622 349,-87.7622 212,-87.7622"/>
<polygon fill="none" stroke="#000000" points="212,-87.7622 212,-106.7622 349,-106.7622 349,-87.7622 212,-87.7622"/>
<text text-anchor="start" x="215" y="-93.8622" font-family="Helvetica,sans-Serif" font-size="11.00" fill="#000000">&lt; 2</text>
<polygon fill="#ffffff" stroke="transparent" points="349,-87.7622 349,-106.7622 419,-106.7622 419,-87.7622 349,-87.7622"/>
<polygon fill="none" stroke="#000000" points="349,-87.7622 349,-106.7622 419,-106.7622 419,-87.7622 349,-87.7622"/>
<text text-anchor="start" x="409.8862" y="-93.8622" font-family="Helvetica,sans-Serif" font-size="11.00" fill="#000000"> &#160;</text>
<polygon fill="#ffffff" stroke="transparent" points="419,-87.7622 419,-106.7622 490,-106.7622 490,-87.7622 419,-87.7622"/>
<polygon fill="none" stroke="#000000" points="419,-87.7622 419,-106.7622 490,-106.7622 490,-87.7622 419,-87.7622"/>
<text text-anchor="start" x="480.8862" y="-93.8622" font-family="Helvetica,sans-Serif" font-size="11.00" fill="#000000"> &#160;</text>
</a>
</g>
</g>
<!-- court_appearance_movement_audit&#45;&gt;audit_revision -->
<g id="edge9" class="edge">
<title>court_appearance_movement_audit:w&#45;&gt;audit_revision:e</title>
<path fill="none" stroke="#000000" d="M197.7181,-118.4005C151.7294,-138.5845 218.9542,-267.7622 152,-267.7622"/>
<polygon fill="#000000" stroke="#000000" points="204.1331,-117.2155 212.654,-119.3023 208.0665,-116.4889 212,-115.7622 212,-115.7622 212,-115.7622 208.0665,-116.4889 211.346,-112.2221 204.1331,-117.2155 204.1331,-117.2155"/>
<ellipse fill="none" stroke="#000000" cx="200.9863" cy="-117.7968" rx="3.2" ry="3.2"/>
</g>
<!-- court_appearance_movement_audit&#45;&gt;person_summary -->
<g id="edge8" class="edge">
<title>court_appearance_movement_audit:w&#45;&gt;person_summary:e</title>
<path fill="none" stroke="#000000" stroke-dasharray="5,2" d="M197.6253,-118.2622C185.7502,-122.7622 179.4992,-131.7622 162,-131.7622"/>
<polygon fill="#000000" stroke="#000000" points="204.1183,-117.133 212.6169,-119.309 208.0592,-116.4476 212,-115.7622 212,-115.7622 212,-115.7622 208.0592,-116.4476 211.3831,-112.2155 204.1183,-117.133 204.1183,-117.133"/>
<ellipse fill="none" stroke="#000000" cx="200.9656" cy="-117.6814" rx="3.2" ry="3.2"/>
</g>
</g>
</svg>
