<?xml version="1.0" encoding="UTF-8" standalone="no"?>
<!DOCTYPE svg PUBLIC "-//W3C//DTD SVG 1.1//EN"
 "http://www.w3.org/Graphics/SVG/1.1/DTD/svg11.dtd">
<!-- Generated by graphviz version 2.40.1 (20161225.0304)
 -->
<!-- Title: twoDegreesRelationshipsDiagram Pages: 1 -->
<svg width="806pt" height="370pt"
 viewBox="0.00 0.00 806.00 370.20" xmlns="http://www.w3.org/2000/svg" xmlns:xlink="http://www.w3.org/1999/xlink">
<g id="graph0" class="graph" transform="scale(1 1) rotate(0) translate(4 366.2)">
<title>twoDegreesRelationshipsDiagram</title>
<polygon fill="#ffffff" stroke="transparent" points="-4,4 -4,-366.2 802,-366.2 802,4 -4,4"/>
<text text-anchor="middle" x="72.4936" y="-7.3" font-family="Helvetica,sans-Serif" font-size="11.00" fill="#000000">Generated by SchemaSpy</text>
<!-- court_appearance -->
<g id="node1" class="node">
<title>court_appearance</title>
<g id="a_node1"><a xlink:href="../../tables/court_appearance.html" xlink:title="court_appearance" target="_top">
<polygon fill="#ffffff" stroke="transparent" points="345,-38.2 345,-275.2 504,-275.2 504,-38.2 345,-38.2"/>
<polygon fill="#f5f5f5" stroke="transparent" points="345.5,-251.7 345.5,-274.7 504.5,-274.7 504.5,-251.7 345.5,-251.7"/>
<polygon fill="none" stroke="#000000" points="345.5,-251.7 345.5,-274.7 504.5,-274.7 504.5,-251.7 345.5,-251.7"/>
<text text-anchor="start" x="350.5" y="-260.3" font-family="Helvetica,sans-Serif" font-weight="bold" font-size="11.00" fill="#000000">court_appearance</text>
<text text-anchor="start" x="470.0219" y="-259.8" font-family="Helvetica,sans-Serif" font-size="11.00" fill="#000000">[table]</text>
<polygon fill="none" stroke="#000000" points="345.5,-229.7 345.5,-251.7 504.5,-251.7 504.5,-229.7 345.5,-229.7"/>
<image xlink:href="../../images/primaryKeys.png" width="11px" height="12px" preserveAspectRatio="xMinYMin meet" x="350.5" y="-246.7"/>
<text text-anchor="start" x="371.5" y="-236.8" font-family="Helvetica,sans-Serif" font-size="11.00" fill="#000000">id</text>
<polygon fill="#ffffff" stroke="transparent" points="345.5,-207.7 345.5,-229.7 504.5,-229.7 504.5,-207.7 345.5,-207.7"/>
<polygon fill="none" stroke="#000000" points="345.5,-207.7 345.5,-229.7 504.5,-229.7 504.5,-207.7 345.5,-207.7"/>
<image xlink:href="../../images/foreignKeys.png" width="11px" height="12px" preserveAspectRatio="xMinYMin meet" x="350.5" y="-224.7"/>
<text text-anchor="start" x="371.5" y="-214.8" font-family="Helvetica,sans-Serif" font-size="11.00" fill="#000000">person_identifier</text>
<polygon fill="#ffffff" stroke="transparent" points="345.5,-185.7 345.5,-207.7 504.5,-207.7 504.5,-185.7 345.5,-185.7"/>
<polygon fill="none" stroke="#000000" points="345.5,-185.7 345.5,-207.7 504.5,-207.7 504.5,-185.7 345.5,-185.7"/>
<text text-anchor="start" x="371.5" y="-192.8" font-family="Helvetica,sans-Serif" font-size="11.00" fill="#000000">prison_code</text>
<polygon fill="#ffffff" stroke="transparent" points="345.5,-163.7 345.5,-185.7 504.5,-185.7 504.5,-163.7 345.5,-163.7"/>
<polygon fill="none" stroke="#000000" points="345.5,-163.7 345.5,-185.7 504.5,-185.7 504.5,-163.7 345.5,-163.7"/>
<image xlink:href="../../images/foreignKeys.png" width="11px" height="12px" preserveAspectRatio="xMinYMin meet" x="350.5" y="-180.7"/>
<text text-anchor="start" x="371.5" y="-170.8" font-family="Helvetica,sans-Serif" font-size="11.00" fill="#000000">reason_id</text>
<polygon fill="#ffffff" stroke="transparent" points="345.5,-141.7 345.5,-163.7 504.5,-163.7 504.5,-141.7 345.5,-141.7"/>
<polygon fill="none" stroke="#000000" points="345.5,-141.7 345.5,-163.7 504.5,-163.7 504.5,-141.7 345.5,-141.7"/>
<image xlink:href="../../images/foreignKeys.png" width="11px" height="12px" preserveAspectRatio="xMinYMin meet" x="350.5" y="-158.7"/>
<text text-anchor="start" x="371.5" y="-148.8" font-family="Helvetica,sans-Serif" font-size="11.00" fill="#000000">status_id</text>
<polygon fill="#ffffff" stroke="transparent" points="345.5,-119.7 345.5,-141.7 504.5,-141.7 504.5,-119.7 345.5,-119.7"/>
<polygon fill="none" stroke="#000000" points="345.5,-119.7 345.5,-141.7 504.5,-141.7 504.5,-119.7 345.5,-119.7"/>
<text text-anchor="start" x="371.5" y="-126.8" font-family="Helvetica,sans-Serif" font-size="11.00" fill="#000000">start</text>
<polygon fill="#ffffff" stroke="transparent" points="345.5,-97.7 345.5,-119.7 504.5,-119.7 504.5,-97.7 345.5,-97.7"/>
<polygon fill="none" stroke="#000000" points="345.5,-97.7 345.5,-119.7 504.5,-119.7 504.5,-97.7 345.5,-97.7"/>
<image xlink:href="../../images/foreignKeys.png" width="11px" height="12px" preserveAspectRatio="xMinYMin meet" x="350.5" y="-114.7"/>
<text text-anchor="start" x="371.5" y="-104.8" font-family="Helvetica,sans-Serif" font-size="11.00" fill="#000000">legacy_id</text>
<polygon fill="#ffffff" stroke="transparent" points="345.5,-75.7 345.5,-97.7 504.5,-97.7 504.5,-75.7 345.5,-75.7"/>
<polygon fill="none" stroke="#000000" points="345.5,-75.7 345.5,-97.7 504.5,-97.7 504.5,-75.7 345.5,-75.7"/>
<text text-anchor="start" x="371.5" y="-82.8" font-family="Helvetica,sans-Serif" font-size="11.00" fill="#000000">external_reference</text>
<polygon fill="none" stroke="#000000" points="345.5,-56.7 345.5,-75.7 504.5,-75.7 504.5,-56.7 345.5,-56.7"/>
<text text-anchor="start" x="348.5" y="-62.8" font-family="Helvetica,sans-Serif" font-size="11.00" fill="#000000">...</text>
<polygon fill="#ffffff" stroke="transparent" points="345.5,-37.7 345.5,-56.7 418.5,-56.7 418.5,-37.7 345.5,-37.7"/>
<polygon fill="none" stroke="#000000" points="345.5,-37.7 345.5,-56.7 418.5,-56.7 418.5,-37.7 345.5,-37.7"/>
<text text-anchor="start" x="348.5" y="-43.8" font-family="Helvetica,sans-Serif" font-size="11.00" fill="#000000">&lt; 3</text>
<polygon fill="#ffffff" stroke="transparent" points="418.5,-37.7 418.5,-56.7 456.5,-56.7 456.5,-37.7 418.5,-37.7"/>
<polygon fill="none" stroke="#000000" points="418.5,-37.7 418.5,-56.7 456.5,-56.7 456.5,-37.7 418.5,-37.7"/>
<text text-anchor="start" x="447.3862" y="-43.8" font-family="Helvetica,sans-Serif" font-size="11.00" fill="#000000"> &#160;</text>
<polygon fill="#ffffff" stroke="transparent" points="456.5,-37.7 456.5,-56.7 504.5,-56.7 504.5,-37.7 456.5,-37.7"/>
<polygon fill="none" stroke="#000000" points="456.5,-37.7 456.5,-56.7 504.5,-56.7 504.5,-37.7 456.5,-37.7"/>
<text text-anchor="start" x="485.9053" y="-43.8" font-family="Helvetica,sans-Serif" font-size="11.00" fill="#000000">1 &gt;</text>
</a>
</g>
</g>
<!-- person_summary -->
<g id="node2" class="node">
<title>person_summary</title>
<g id="a_node2"><a xlink:href="../../tables/person_summary.html" xlink:title="person_summary" target="_top">
<polygon fill="#ffffff" stroke="transparent" points="75,-297.2 75,-358.2 229,-358.2 229,-297.2 75,-297.2"/>
<polygon fill="#f5f5f5" stroke="transparent" points="75,-334.7 75,-357.7 229,-357.7 229,-334.7 75,-334.7"/>
<polygon fill="none" stroke="#000000" points="75,-334.7 75,-357.7 229,-357.7 229,-334.7 75,-334.7"/>
<text text-anchor="start" x="80" y="-343.3" font-family="Helvetica,sans-Serif" font-weight="bold" font-size="11.00" fill="#000000">person_summary</text>
<text text-anchor="start" x="194.5219" y="-342.8" font-family="Helvetica,sans-Serif" font-size="11.00" fill="#000000">[table]</text>
<polygon fill="none" stroke="#000000" points="75,-315.7 75,-334.7 229,-334.7 229,-315.7 75,-315.7"/>
<text text-anchor="start" x="78" y="-321.8" font-family="Helvetica,sans-Serif" font-size="11.00" fill="#000000">...</text>
<polygon fill="#ffffff" stroke="transparent" points="75,-296.7 75,-315.7 141,-315.7 141,-296.7 75,-296.7"/>
<polygon fill="none" stroke="#000000" points="75,-296.7 75,-315.7 141,-315.7 141,-296.7 75,-296.7"/>
<text text-anchor="start" x="78" y="-302.8" font-family="Helvetica,sans-Serif" font-size="11.00" fill="#000000"> &#160;</text>
<polygon fill="#ffffff" stroke="transparent" points="141,-296.7 141,-315.7 180,-315.7 180,-296.7 141,-296.7"/>
<polygon fill="none" stroke="#000000" points="141,-296.7 141,-315.7 180,-315.7 180,-296.7 141,-296.7"/>
<text text-anchor="start" x="170.8862" y="-302.8" font-family="Helvetica,sans-Serif" font-size="11.00" fill="#000000"> &#160;</text>
<polygon fill="#ffffff" stroke="transparent" points="180,-296.7 180,-315.7 229,-315.7 229,-296.7 180,-296.7"/>
<polygon fill="none" stroke="#000000" points="180,-296.7 180,-315.7 229,-315.7 229,-296.7 180,-296.7"/>
<text text-anchor="start" x="210.4053" y="-302.8" font-family="Helvetica,sans-Serif" font-size="11.00" fill="#000000">2 &gt;</text>
</a>
</g>
</g>
<!-- court_appearance&#45;&gt;person_summary -->
<g id="edge1" class="edge">
<title>court_appearance:w&#45;&gt;person_summary:e</title>
<path fill="none" stroke="#000000" d="M331.4077,-222.451C316.0854,-233.327 324.803,-265.3309 304,-284.7 276.3511,-310.443 266.7778,-324.7 229,-324.7"/>
<polygon fill="#000000" stroke="#000000" points="337.7692,-220.7578 346.426,-222.1789 341.6346,-219.7289 345.5,-218.7 345.5,-218.7 345.5,-218.7 341.6346,-219.7289 344.574,-215.2211 337.7692,-220.7578 337.7692,-220.7578"/>
<ellipse fill="none" stroke="#000000" cx="334.6768" cy="-221.5809" rx="3.2" ry="3.2"/>
</g>
<!-- court_appearance_reason -->
<g id="node3" class="node">
<title>court_appearance_reason</title>
<g id="a_node3"><a xlink:href="../../tables/court_appearance_reason.html" xlink:title="court_appearance_reason" target="_top">
<polygon fill="#ffffff" stroke="transparent" points="46.5,-213.2 46.5,-274.2 257.5,-274.2 257.5,-213.2 46.5,-213.2"/>
<polygon fill="#f5f5f5" stroke="transparent" points="47,-250.7 47,-273.7 258,-273.7 258,-250.7 47,-250.7"/>
<polygon fill="none" stroke="#000000" points="47,-250.7 47,-273.7 258,-273.7 258,-250.7 47,-250.7"/>
<text text-anchor="start" x="52" y="-259.3" font-family="Helvetica,sans-Serif" font-weight="bold" font-size="11.00" fill="#000000">court_appearance_reason</text>
<text text-anchor="start" x="223.5219" y="-258.8" font-family="Helvetica,sans-Serif" font-size="11.00" fill="#000000">[table]</text>
<polygon fill="none" stroke="#000000" points="47,-231.7 47,-250.7 258,-250.7 258,-231.7 47,-231.7"/>
<text text-anchor="start" x="50" y="-237.8" font-family="Helvetica,sans-Serif" font-size="11.00" fill="#000000">...</text>
<polygon fill="#ffffff" stroke="transparent" points="47,-212.7 47,-231.7 142,-231.7 142,-212.7 47,-212.7"/>
<polygon fill="none" stroke="#000000" points="47,-212.7 47,-231.7 142,-231.7 142,-212.7 47,-212.7"/>
<text text-anchor="start" x="50" y="-218.8" font-family="Helvetica,sans-Serif" font-size="11.00" fill="#000000"> &#160;</text>
<polygon fill="#ffffff" stroke="transparent" points="142,-212.7 142,-231.7 195,-231.7 195,-212.7 142,-212.7"/>
<polygon fill="none" stroke="#000000" points="142,-212.7 142,-231.7 195,-231.7 195,-212.7 142,-212.7"/>
<text text-anchor="start" x="185.8862" y="-218.8" font-family="Helvetica,sans-Serif" font-size="11.00" fill="#000000"> &#160;</text>
<polygon fill="#ffffff" stroke="transparent" points="195,-212.7 195,-231.7 258,-231.7 258,-212.7 195,-212.7"/>
<polygon fill="none" stroke="#000000" points="195,-212.7 195,-231.7 258,-231.7 258,-212.7 195,-212.7"/>
<text text-anchor="start" x="239.4053" y="-218.8" font-family="Helvetica,sans-Serif" font-size="11.00" fill="#000000">2 &gt;</text>
</a>
</g>
</g>
<!-- court_appearance&#45;&gt;court_appearance_reason -->
<g id="edge2" class="edge">
<title>court_appearance:w&#45;&gt;court_appearance_reason:e</title>
<path fill="none" stroke="#000000" d="M331.0326,-177.049C298.2844,-188.8062 301.1932,-240.7 258,-240.7"/>
<polygon fill="#000000" stroke="#000000" points="337.6034,-175.9822 346.077,-178.2535 341.5517,-175.3411 345.5,-174.7 345.5,-174.7 345.5,-174.7 341.5517,-175.3411 344.923,-171.1465 337.6034,-175.9822 337.6034,-175.9822"/>
<ellipse fill="none" stroke="#000000" cx="334.4448" cy="-176.495" rx="3.2" ry="3.2"/>
</g>
<!-- court_appearance_status -->
<g id="node4" class="node">
<title>court_appearance_status</title>
<g id="a_node4"><a xlink:href="../../tables/court_appearance_status.html" xlink:title="court_appearance_status" target="_top">
<polygon fill="#ffffff" stroke="transparent" points="8,-54.7 8,-188.7 296,-188.7 296,-54.7 8,-54.7"/>
<polygon fill="#f5f5f5" stroke="transparent" points="10,-163.7 10,-186.7 294,-186.7 294,-163.7 10,-163.7"/>
<polygon fill="none" stroke="#000000" points="10,-163.7 10,-186.7 294,-186.7 294,-163.7 10,-163.7"/>
<text text-anchor="start" x="15" y="-172.3" font-family="Helvetica,sans-Serif" font-weight="bold" font-size="11.00" fill="#000000">court_appearance_status</text>
<text text-anchor="start" x="259.0437" y="-171.8" font-family="Helvetica,sans-Serif" font-size="11.00" fill="#000000">[table]</text>
<polygon fill="none" stroke="#000000" points="10,-141.7 10,-163.7 200,-163.7 200,-141.7 10,-141.7"/>
<image xlink:href="../../images/primaryKeys.png" width="11px" height="12px" preserveAspectRatio="xMinYMin meet" x="15" y="-158.7"/>
<text text-anchor="start" x="30" y="-148.8" font-family="Helvetica,sans-Serif" font-size="11.00" fill="#000000">id</text>
<polygon fill="none" stroke="#000000" points="200,-141.7 200,-163.7 294,-163.7 294,-141.7 200,-141.7"/>
<text text-anchor="start" x="202.9758" y="-149.4" font-family="Helvetica,sans-Serif" font-size="11.00" fill="#000000">uuid[2147483647]</text>
<polygon fill="#ffffff" stroke="transparent" points="10,-119.7 10,-141.7 200,-141.7 200,-119.7 10,-119.7"/>
<polygon fill="none" stroke="#000000" points="10,-119.7 10,-141.7 200,-141.7 200,-119.7 10,-119.7"/>
<text text-anchor="start" x="30" y="-126.8" font-family="Helvetica,sans-Serif" font-size="11.00" fill="#000000">code</text>
<polygon fill="none" stroke="#000000" points="200,-119.7 200,-141.7 294,-141.7 294,-119.7 200,-119.7"/>
<text text-anchor="start" x="203" y="-127.4" font-family="Helvetica,sans-Serif" font-size="11.00" fill="#000000">varchar[16]</text>
<polygon fill="none" stroke="#000000" points="10,-97.7 10,-119.7 200,-119.7 200,-97.7 10,-97.7"/>
<text text-anchor="start" x="30" y="-104.8" font-family="Helvetica,sans-Serif" font-size="11.00" fill="#000000">description</text>
<polygon fill="none" stroke="#000000" points="200,-97.7 200,-119.7 294,-119.7 294,-97.7 200,-97.7"/>
<text text-anchor="start" x="203" y="-105.4" font-family="Helvetica,sans-Serif" font-size="11.00" fill="#000000">varchar[255]</text>
<polygon fill="#ffffff" stroke="transparent" points="10,-75.7 10,-97.7 200,-97.7 200,-75.7 10,-75.7"/>
<polygon fill="none" stroke="#000000" points="10,-75.7 10,-97.7 200,-97.7 200,-75.7 10,-75.7"/>
<text text-anchor="start" x="30" y="-82.8" font-family="Helvetica,sans-Serif" font-size="11.00" fill="#000000">sequence_number</text>
<polygon fill="none" stroke="#000000" points="200,-75.7 200,-97.7 294,-97.7 294,-75.7 200,-75.7"/>
<text text-anchor="start" x="203" y="-83.4" font-family="Helvetica,sans-Serif" font-size="11.00" fill="#000000">int4[10]</text>
<polygon fill="#ffffff" stroke="transparent" points="10,-56.7 10,-75.7 109,-75.7 109,-56.7 10,-56.7"/>
<polygon fill="none" stroke="#000000" points="10,-56.7 10,-75.7 109,-75.7 109,-56.7 10,-56.7"/>
<text text-anchor="start" x="13" y="-62.8" font-family="Helvetica,sans-Serif" font-size="11.00" fill="#000000">&lt; 0</text>
<polygon fill="#ffffff" stroke="transparent" points="109,-56.7 109,-75.7 200,-75.7 200,-56.7 109,-56.7"/>
<polygon fill="none" stroke="#000000" points="109,-56.7 109,-75.7 200,-75.7 200,-56.7 109,-56.7"/>
<text text-anchor="start" x="190.8862" y="-62.8" font-family="Helvetica,sans-Serif" font-size="11.00" fill="#000000"> &#160;</text>
<polygon fill="#ffffff" stroke="transparent" points="200,-56.7 200,-75.7 294,-75.7 294,-56.7 200,-56.7"/>
<polygon fill="none" stroke="#000000" points="200,-56.7 200,-75.7 294,-75.7 294,-56.7 200,-56.7"/>
<text text-anchor="start" x="275.4053" y="-62.8" font-family="Helvetica,sans-Serif" font-size="11.00" fill="#000000">1 &gt;</text>
<polygon fill="none" stroke="#000000" stroke-width="2" points="9,-55.7 9,-187.7 295,-187.7 295,-55.7 9,-55.7"/>
</a>
</g>
</g>
<!-- court_appearance&#45;&gt;court_appearance_status -->
<g id="edge3" class="edge">
<title>court_appearance:w&#45;&gt;court_appearance_status:e</title>
<path fill="none" stroke="#000000" d="M331.0156,-152.7C318.6771,-152.7 311.1667,-152.7 294,-152.7"/>
<polygon fill="#000000" stroke="#000000" points="337.5,-152.7001 345.5,-156.3 341.5,-152.7 345.5,-152.7 345.5,-152.7 345.5,-152.7 341.5,-152.7 345.5,-149.1 337.5,-152.7001 337.5,-152.7001"/>
<ellipse fill="none" stroke="#000000" cx="334.3" cy="-152.7001" rx="3.2" ry="3.2"/>
</g>
<!-- court_appearance_movement -->
<g id="node5" class="node">
<title>court_appearance_movement</title>
<g id="a_node5"><a xlink:href="../../tables/court_appearance_movement.html" xlink:title="court_appearance_movement" target="_top">
<polygon fill="#ffffff" stroke="transparent" points="553,-272.2 553,-333.2 790,-333.2 790,-272.2 553,-272.2"/>
<polygon fill="#f5f5f5" stroke="transparent" points="553.5,-309.7 553.5,-332.7 790.5,-332.7 790.5,-309.7 553.5,-309.7"/>
<polygon fill="none" stroke="#000000" points="553.5,-309.7 553.5,-332.7 790.5,-332.7 790.5,-309.7 553.5,-309.7"/>
<text text-anchor="start" x="558.5" y="-318.3" font-family="Helvetica,sans-Serif" font-weight="bold" font-size="11.00" fill="#000000">court_appearance_movement</text>
<text text-anchor="start" x="756.0219" y="-317.8" font-family="Helvetica,sans-Serif" font-size="11.00" fill="#000000">[table]</text>
<polygon fill="none" stroke="#000000" points="553.5,-290.7 553.5,-309.7 790.5,-309.7 790.5,-290.7 553.5,-290.7"/>
<text text-anchor="start" x="556.5" y="-296.8" font-family="Helvetica,sans-Serif" font-size="11.00" fill="#000000">...</text>
<polygon fill="#ffffff" stroke="transparent" points="553.5,-271.7 553.5,-290.7 670.5,-290.7 670.5,-271.7 553.5,-271.7"/>
<polygon fill="none" stroke="#000000" points="553.5,-271.7 553.5,-290.7 670.5,-290.7 670.5,-271.7 553.5,-271.7"/>
<text text-anchor="start" x="556.5" y="-277.8" font-family="Helvetica,sans-Serif" font-size="11.00" fill="#000000">&lt; 3</text>
<polygon fill="#ffffff" stroke="transparent" points="670.5,-271.7 670.5,-290.7 730.5,-290.7 730.5,-271.7 670.5,-271.7"/>
<polygon fill="none" stroke="#000000" points="670.5,-271.7 670.5,-290.7 730.5,-290.7 730.5,-271.7 670.5,-271.7"/>
<text text-anchor="start" x="721.3862" y="-277.8" font-family="Helvetica,sans-Serif" font-size="11.00" fill="#000000"> &#160;</text>
<polygon fill="#ffffff" stroke="transparent" points="730.5,-271.7 730.5,-290.7 790.5,-290.7 790.5,-271.7 730.5,-271.7"/>
<polygon fill="none" stroke="#000000" points="730.5,-271.7 730.5,-290.7 790.5,-290.7 790.5,-271.7 730.5,-271.7"/>
<text text-anchor="start" x="781.3862" y="-277.8" font-family="Helvetica,sans-Serif" font-size="11.00" fill="#000000"> &#160;</text>
</a>
</g>
</g>
<!-- court_appearance_movement&#45;&gt;court_appearance -->
<g id="edge4" class="edge">
<title>court_appearance_movement:w&#45;&gt;court_appearance:e</title>
<path fill="none" stroke="#000000" d="M539.6662,-294.6697C524.5842,-280.4018 532.4614,-240.7 504.5,-240.7"/>
<polygon fill="#000000" stroke="#000000" points="545.9816,-296.9661 552.2697,-303.0833 549.7408,-298.3331 553.5,-299.7 553.5,-299.7 553.5,-299.7 549.7408,-298.3331 554.7303,-296.3167 545.9816,-296.9661 545.9816,-296.9661"/>
<ellipse fill="none" stroke="#000000" cx="542.9743" cy="-295.8725" rx="3.2" ry="3.2"/>
</g>
<!-- court_appearance_movement&#45;&gt;person_summary -->
<g id="edge5" class="edge">
<title>court_appearance_movement:w&#45;&gt;person_summary:e</title>
<path fill="none" stroke="#000000" d="M538.9593,-301.5484C530.5819,-303.889 524.7605,-307.8405 512,-309.7 387.3621,-327.8627 354.9543,-324.7 229,-324.7"/>
<polygon fill="#000000" stroke="#000000" points="545.5639,-300.7089 553.954,-303.2713 549.5319,-300.2044 553.5,-299.7 553.5,-299.7 553.5,-299.7 549.5319,-300.2044 553.046,-296.1287 545.5639,-300.7089 545.5639,-300.7089"/>
<ellipse fill="none" stroke="#000000" cx="542.3894" cy="-301.1124" rx="3.2" ry="3.2"/>
</g>
<!-- court_appearance_movement&#45;&gt;court_appearance_reason -->
<g id="edge6" class="edge">
<title>court_appearance_movement:w&#45;&gt;court_appearance_reason:e</title>
<path fill="none" stroke="#000000" d="M539.0618,-299.8023C454.0349,-301.0054 424.5838,-311.9486 337,-285.7 298.2931,-274.0997 298.4078,-240.7 258,-240.7"/>
<polygon fill="#000000" stroke="#000000" points="545.5002,-299.7567 553.5255,-303.2999 549.5001,-299.7284 553.5,-299.7 553.5,-299.7 553.5,-299.7 549.5001,-299.7284 553.4745,-296.1001 545.5002,-299.7567 545.5002,-299.7567"/>
<ellipse fill="none" stroke="#000000" cx="542.3003" cy="-299.7794" rx="3.2" ry="3.2"/>
</g>
</g>
</svg>
