<?xml version="1.0" encoding="UTF-8" standalone="no"?>
<!DOCTYPE svg PUBLIC "-//W3C//DTD SVG 1.1//EN"
 "http://www.w3.org/Graphics/SVG/1.1/DTD/svg11.dtd">
<!-- Generated by graphviz version 2.40.1 (20161225.0304)
 -->
<!-- Title: twoDegreesRelationshipsDiagramImplied Pages: 1 -->
<svg width="871pt" height="582pt"
 viewBox="0.00 0.00 871.00 582.10" xmlns="http://www.w3.org/2000/svg" xmlns:xlink="http://www.w3.org/1999/xlink">
<g id="graph0" class="graph" transform="scale(1 1) rotate(0) translate(4 578.0973)">
<title>twoDegreesRelationshipsDiagramImplied</title>
<polygon fill="#ffffff" stroke="transparent" points="-4,4 -4,-578.0973 867,-578.0973 867,4 -4,4"/>
<text text-anchor="middle" x="72.4936" y="-7.3" font-family="Helvetica,sans-Serif" font-size="11.00" fill="#000000">Generated by SchemaSpy</text>
<!-- court_appearance -->
<g id="node1" class="node">
<title>court_appearance</title>
<g id="a_node1"><a xlink:href="../../tables/court_appearance.html" xlink:title="court_appearance" target="_top">
<polygon fill="#ffffff" stroke="transparent" points="310.5,-95.0973 310.5,-156.0973 469.5,-156.0973 469.5,-95.0973 310.5,-95.0973"/>
<polygon fill="#f5f5f5" stroke="transparent" points="311,-132.5973 311,-155.5973 470,-155.5973 470,-132.5973 311,-132.5973"/>
<polygon fill="none" stroke="#000000" points="311,-132.5973 311,-155.5973 470,-155.5973 470,-132.5973 311,-132.5973"/>
<text text-anchor="start" x="316" y="-141.1973" font-family="Helvetica,sans-Serif" font-weight="bold" font-size="11.00" fill="#000000">court_appearance</text>
<text text-anchor="start" x="435.5219" y="-140.6973" font-family="Helvetica,sans-Serif" font-size="11.00" fill="#000000">[table]</text>
<polygon fill="none" stroke="#000000" points="311,-113.5973 311,-132.5973 470,-132.5973 470,-113.5973 311,-113.5973"/>
<text text-anchor="start" x="314" y="-119.6973" font-family="Helvetica,sans-Serif" font-size="11.00" fill="#000000">...</text>
<polygon fill="#ffffff" stroke="transparent" points="311,-94.5973 311,-113.5973 384,-113.5973 384,-94.5973 311,-94.5973"/>
<polygon fill="none" stroke="#000000" points="311,-94.5973 311,-113.5973 384,-113.5973 384,-94.5973 311,-94.5973"/>
<text text-anchor="start" x="314" y="-100.6973" font-family="Helvetica,sans-Serif" font-size="11.00" fill="#000000">&lt; 4</text>
<polygon fill="#ffffff" stroke="transparent" points="384,-94.5973 384,-113.5973 422,-113.5973 422,-94.5973 384,-94.5973"/>
<polygon fill="none" stroke="#000000" points="384,-94.5973 384,-113.5973 422,-113.5973 422,-94.5973 384,-94.5973"/>
<text text-anchor="start" x="412.8862" y="-100.6973" font-family="Helvetica,sans-Serif" font-size="11.00" fill="#000000"> &#160;</text>
<polygon fill="#ffffff" stroke="transparent" points="422,-94.5973 422,-113.5973 470,-113.5973 470,-94.5973 422,-94.5973"/>
<polygon fill="none" stroke="#000000" points="422,-94.5973 422,-113.5973 470,-113.5973 470,-94.5973 422,-94.5973"/>
<text text-anchor="start" x="451.4053" y="-100.6973" font-family="Helvetica,sans-Serif" font-size="11.00" fill="#000000">1 &gt;</text>
</a>
</g>
</g>
<!-- audit_revision -->
<g id="node2" class="node">
<title>audit_revision</title>
<g id="a_node2"><a xlink:href="../../tables/audit_revision.html" xlink:title="audit_revision" target="_top">
<polygon fill="#ffffff" stroke="transparent" points="18,-445.0973 18,-528.0973 152,-528.0973 152,-445.0973 18,-445.0973"/>
<polygon fill="#f5f5f5" stroke="transparent" points="18,-504.5973 18,-527.5973 152,-527.5973 152,-504.5973 18,-504.5973"/>
<polygon fill="none" stroke="#000000" points="18,-504.5973 18,-527.5973 152,-527.5973 152,-504.5973 18,-504.5973"/>
<text text-anchor="start" x="23" y="-513.1973" font-family="Helvetica,sans-Serif" font-weight="bold" font-size="11.00" fill="#000000">audit_revision</text>
<text text-anchor="start" x="117.5219" y="-512.6973" font-family="Helvetica,sans-Serif" font-size="11.00" fill="#000000">[table]</text>
<polygon fill="none" stroke="#000000" points="18,-482.5973 18,-504.5973 152,-504.5973 152,-482.5973 18,-482.5973"/>
<image xlink:href="../../images/primaryKeys.png" width="11px" height="12px" preserveAspectRatio="xMinYMin meet" x="23" y="-499.597"/>
<text text-anchor="start" x="38" y="-489.6973" font-family="Helvetica,sans-Serif" font-size="11.00" fill="#000000">id</text>
<polygon fill="none" stroke="#000000" points="18,-463.5973 18,-482.5973 152,-482.5973 152,-463.5973 18,-463.5973"/>
<text text-anchor="start" x="21" y="-469.6973" font-family="Helvetica,sans-Serif" font-size="11.00" fill="#000000">...</text>
<polygon fill="#ffffff" stroke="transparent" points="18,-444.5973 18,-463.5973 74,-463.5973 74,-444.5973 18,-444.5973"/>
<polygon fill="none" stroke="#000000" points="18,-444.5973 18,-463.5973 74,-463.5973 74,-444.5973 18,-444.5973"/>
<text text-anchor="start" x="21" y="-450.6973" font-family="Helvetica,sans-Serif" font-size="11.00" fill="#000000"> &#160;</text>
<polygon fill="#ffffff" stroke="transparent" points="74,-444.5973 74,-463.5973 108,-463.5973 108,-444.5973 74,-444.5973"/>
<polygon fill="none" stroke="#000000" points="74,-444.5973 74,-463.5973 108,-463.5973 108,-444.5973 74,-444.5973"/>
<text text-anchor="start" x="98.8862" y="-450.6973" font-family="Helvetica,sans-Serif" font-size="11.00" fill="#000000"> &#160;</text>
<polygon fill="#ffffff" stroke="transparent" points="108,-444.5973 108,-463.5973 152,-463.5973 152,-444.5973 108,-444.5973"/>
<polygon fill="none" stroke="#000000" points="108,-444.5973 108,-463.5973 152,-463.5973 152,-444.5973 108,-444.5973"/>
<text text-anchor="start" x="133.4053" y="-450.6973" font-family="Helvetica,sans-Serif" font-size="11.00" fill="#000000">4 &gt;</text>
</a>
</g>
</g>
<!-- court_appearance&#45;&gt;audit_revision -->
<g id="edge1" class="edge">
<title>court_appearance:w&#45;&gt;audit_revision:e</title>
<path fill="none" stroke="#000000" stroke-dasharray="5,2" d="M300.4671,-122.6588C255.7525,-123.253 232.8973,-128.8074 203,-166.5973 157.3688,-224.2746 225.5451,-493.5973 152,-493.5973"/>
<polygon fill="#000000" stroke="#000000" points="310.1766,-118.602 310.2234,-126.6019 308.6234,-126.6112 308.5766,-118.6114 310.1766,-118.602"/>
<polyline fill="none" stroke="#000000" points="311,-122.5973 307.0001,-122.6206 "/>
<ellipse fill="none" stroke="#000000" cx="303.8001" cy="-122.6394" rx="3.2" ry="3.2"/>
</g>
<!-- person_summary -->
<g id="node3" class="node">
<title>person_summary</title>
<g id="a_node3"><a xlink:href="../../tables/person_summary.html" xlink:title="person_summary" target="_top">
<polygon fill="#ffffff" stroke="transparent" points="8,-184.0973 8,-267.0973 162,-267.0973 162,-184.0973 8,-184.0973"/>
<polygon fill="#f5f5f5" stroke="transparent" points="8,-243.5973 8,-266.5973 162,-266.5973 162,-243.5973 8,-243.5973"/>
<polygon fill="none" stroke="#000000" points="8,-243.5973 8,-266.5973 162,-266.5973 162,-243.5973 8,-243.5973"/>
<text text-anchor="start" x="13" y="-252.1973" font-family="Helvetica,sans-Serif" font-weight="bold" font-size="11.00" fill="#000000">person_summary</text>
<text text-anchor="start" x="127.5219" y="-251.6973" font-family="Helvetica,sans-Serif" font-size="11.00" fill="#000000">[table]</text>
<polygon fill="none" stroke="#000000" points="8,-221.5973 8,-243.5973 162,-243.5973 162,-221.5973 8,-221.5973"/>
<image xlink:href="../../images/primaryKeys.png" width="11px" height="12px" preserveAspectRatio="xMinYMin meet" x="13" y="-238.597"/>
<text text-anchor="start" x="37" y="-228.6973" font-family="Helvetica,sans-Serif" font-size="11.00" fill="#000000">person_identifier</text>
<polygon fill="none" stroke="#000000" points="8,-202.5973 8,-221.5973 162,-221.5973 162,-202.5973 8,-202.5973"/>
<text text-anchor="start" x="11" y="-208.6973" font-family="Helvetica,sans-Serif" font-size="11.00" fill="#000000">...</text>
<polygon fill="#ffffff" stroke="transparent" points="8,-183.5973 8,-202.5973 74,-202.5973 74,-183.5973 8,-183.5973"/>
<polygon fill="none" stroke="#000000" points="8,-183.5973 8,-202.5973 74,-202.5973 74,-183.5973 8,-183.5973"/>
<text text-anchor="start" x="11" y="-189.6973" font-family="Helvetica,sans-Serif" font-size="11.00" fill="#000000"> &#160;</text>
<polygon fill="#ffffff" stroke="transparent" points="74,-183.5973 74,-202.5973 113,-202.5973 113,-183.5973 74,-183.5973"/>
<polygon fill="none" stroke="#000000" points="74,-183.5973 74,-202.5973 113,-202.5973 113,-183.5973 74,-183.5973"/>
<text text-anchor="start" x="103.8862" y="-189.6973" font-family="Helvetica,sans-Serif" font-size="11.00" fill="#000000"> &#160;</text>
<polygon fill="#ffffff" stroke="transparent" points="113,-183.5973 113,-202.5973 162,-202.5973 162,-183.5973 113,-183.5973"/>
<polygon fill="none" stroke="#000000" points="113,-183.5973 113,-202.5973 162,-202.5973 162,-183.5973 113,-183.5973"/>
<text text-anchor="start" x="143.4053" y="-189.6973" font-family="Helvetica,sans-Serif" font-size="11.00" fill="#000000">4 &gt;</text>
</a>
</g>
</g>
<!-- court_appearance&#45;&gt;person_summary -->
<g id="edge2" class="edge">
<title>court_appearance:w&#45;&gt;person_summary:e</title>
<path fill="none" stroke="#000000" d="M296.5038,-122.9241C255.6421,-124.9305 238.6665,-136.5009 203,-166.5973 176.6081,-188.8675 196.5325,-232.5973 162,-232.5973"/>
<polygon fill="#000000" stroke="#000000" points="303.002,-122.7777 311.0812,-126.1963 307.001,-122.6875 311,-122.5973 311,-122.5973 311,-122.5973 307.001,-122.6875 310.9188,-118.9982 303.002,-122.7777 303.002,-122.7777"/>
<ellipse fill="none" stroke="#000000" cx="299.8028" cy="-122.8498" rx="3.2" ry="3.2"/>
</g>
<!-- court_appearance_audit -->
<g id="node4" class="node">
<title>court_appearance_audit</title>
<g id="a_node4"><a xlink:href="../../tables/court_appearance_audit.html" xlink:title="court_appearance_audit" target="_top">
<polygon fill="#ffffff" stroke="transparent" points="290,-509.0973 290,-570.0973 490,-570.0973 490,-509.0973 290,-509.0973"/>
<polygon fill="#f5f5f5" stroke="transparent" points="290,-546.5973 290,-569.5973 490,-569.5973 490,-546.5973 290,-546.5973"/>
<polygon fill="none" stroke="#000000" points="290,-546.5973 290,-569.5973 490,-569.5973 490,-546.5973 290,-546.5973"/>
<text text-anchor="start" x="295" y="-555.1973" font-family="Helvetica,sans-Serif" font-weight="bold" font-size="11.00" fill="#000000">court_appearance_audit</text>
<text text-anchor="start" x="455.5219" y="-554.6973" font-family="Helvetica,sans-Serif" font-size="11.00" fill="#000000">[table]</text>
<polygon fill="none" stroke="#000000" points="290,-527.5973 290,-546.5973 490,-546.5973 490,-527.5973 290,-527.5973"/>
<text text-anchor="start" x="293" y="-533.6973" font-family="Helvetica,sans-Serif" font-size="11.00" fill="#000000">...</text>
<polygon fill="#ffffff" stroke="transparent" points="290,-508.5973 290,-527.5973 388,-527.5973 388,-508.5973 290,-508.5973"/>
<polygon fill="none" stroke="#000000" points="290,-508.5973 290,-527.5973 388,-527.5973 388,-508.5973 290,-508.5973"/>
<text text-anchor="start" x="293" y="-514.6973" font-family="Helvetica,sans-Serif" font-size="11.00" fill="#000000">&lt; 3</text>
<polygon fill="#ffffff" stroke="transparent" points="388,-508.5973 388,-527.5973 439,-527.5973 439,-508.5973 388,-508.5973"/>
<polygon fill="none" stroke="#000000" points="388,-508.5973 388,-527.5973 439,-527.5973 439,-508.5973 388,-508.5973"/>
<text text-anchor="start" x="429.8862" y="-514.6973" font-family="Helvetica,sans-Serif" font-size="11.00" fill="#000000"> &#160;</text>
<polygon fill="#ffffff" stroke="transparent" points="439,-508.5973 439,-527.5973 490,-527.5973 490,-508.5973 439,-508.5973"/>
<polygon fill="none" stroke="#000000" points="439,-508.5973 439,-527.5973 490,-527.5973 490,-508.5973 439,-508.5973"/>
<text text-anchor="start" x="480.8862" y="-514.6973" font-family="Helvetica,sans-Serif" font-size="11.00" fill="#000000"> &#160;</text>
</a>
</g>
</g>
<!-- court_appearance_audit&#45;&gt;audit_revision -->
<g id="edge3" class="edge">
<title>court_appearance_audit:w&#45;&gt;audit_revision:e</title>
<path fill="none" stroke="#000000" stroke-dasharray="5,2" d="M275.5635,-534.4882C223.8831,-524.0247 211.0975,-488.0777 152,-493.5973"/>
<polygon fill="#000000" stroke="#000000" points="282.084,-535.4408 289.4796,-540.1594 286.042,-536.019 290,-536.5973 290,-536.5973 290,-536.5973 286.042,-536.019 290.5204,-533.0351 282.084,-535.4408 282.084,-535.4408"/>
<ellipse fill="none" stroke="#000000" cx="278.9176" cy="-534.9782" rx="3.2" ry="3.2"/>
</g>
<!-- court_appearance_audit&#45;&gt;audit_revision -->
<g id="edge5" class="edge">
<title>court_appearance_audit:w&#45;&gt;audit_revision:e</title>
<path fill="none" stroke="#000000" d="M275.5635,-537.3612C223.8831,-536.9414 211.0975,-500.0367 152,-493.5973"/>
<polygon fill="#000000" stroke="#000000" points="282.0112,-537.02 290.1903,-540.1922 286.0056,-536.8086 290,-536.5973 290,-536.5973 290,-536.5973 286.0056,-536.8086 289.8097,-533.0023 282.0112,-537.02 282.0112,-537.02"/>
<ellipse fill="none" stroke="#000000" cx="278.8156" cy="-537.1892" rx="3.2" ry="3.2"/>
</g>
<!-- court_appearance_audit&#45;&gt;person_summary -->
<g id="edge4" class="edge">
<title>court_appearance_audit:w&#45;&gt;person_summary:e</title>
<path fill="none" stroke="#000000" stroke-dasharray="5,2" d="M275.2029,-536.3359C242.934,-535.0054 225.5182,-527.8549 203,-498.5973 166.5212,-451.2007 221.8092,-232.5973 162,-232.5973"/>
<polygon fill="#000000" stroke="#000000" points="282.0012,-536.4559 289.9364,-540.1967 286.0006,-536.5266 290,-536.5973 290,-536.5973 290,-536.5973 286.0006,-536.5266 290.0636,-532.9978 282.0012,-536.4559 282.0012,-536.4559"/>
<ellipse fill="none" stroke="#000000" cx="278.8017" cy="-536.3994" rx="3.2" ry="3.2"/>
</g>
<!-- court_appearance_movement -->
<g id="node5" class="node">
<title>court_appearance_movement</title>
<g id="a_node5"><a xlink:href="../../tables/court_appearance_movement.html" xlink:title="court_appearance_movement" target="_top">
<polygon fill="#ffffff" stroke="transparent" points="618,-69.0973 618,-130.0973 855,-130.0973 855,-69.0973 618,-69.0973"/>
<polygon fill="#f5f5f5" stroke="transparent" points="618.5,-106.5973 618.5,-129.5973 855.5,-129.5973 855.5,-106.5973 618.5,-106.5973"/>
<polygon fill="none" stroke="#000000" points="618.5,-106.5973 618.5,-129.5973 855.5,-129.5973 855.5,-106.5973 618.5,-106.5973"/>
<text text-anchor="start" x="623.5" y="-115.1973" font-family="Helvetica,sans-Serif" font-weight="bold" font-size="11.00" fill="#000000">court_appearance_movement</text>
<text text-anchor="start" x="821.0219" y="-114.6973" font-family="Helvetica,sans-Serif" font-size="11.00" fill="#000000">[table]</text>
<polygon fill="none" stroke="#000000" points="618.5,-87.5973 618.5,-106.5973 855.5,-106.5973 855.5,-87.5973 618.5,-87.5973"/>
<text text-anchor="start" x="621.5" y="-93.6973" font-family="Helvetica,sans-Serif" font-size="11.00" fill="#000000">...</text>
<polygon fill="#ffffff" stroke="transparent" points="618.5,-68.5973 618.5,-87.5973 735.5,-87.5973 735.5,-68.5973 618.5,-68.5973"/>
<polygon fill="none" stroke="#000000" points="618.5,-68.5973 618.5,-87.5973 735.5,-87.5973 735.5,-68.5973 618.5,-68.5973"/>
<text text-anchor="start" x="621.5" y="-74.6973" font-family="Helvetica,sans-Serif" font-size="11.00" fill="#000000">&lt; 2</text>
<polygon fill="#ffffff" stroke="transparent" points="735.5,-68.5973 735.5,-87.5973 795.5,-87.5973 795.5,-68.5973 735.5,-68.5973"/>
<polygon fill="none" stroke="#000000" points="735.5,-68.5973 735.5,-87.5973 795.5,-87.5973 795.5,-68.5973 735.5,-68.5973"/>
<text text-anchor="start" x="786.3862" y="-74.6973" font-family="Helvetica,sans-Serif" font-size="11.00" fill="#000000"> &#160;</text>
<polygon fill="#ffffff" stroke="transparent" points="795.5,-68.5973 795.5,-87.5973 855.5,-87.5973 855.5,-68.5973 795.5,-68.5973"/>
<polygon fill="none" stroke="#000000" points="795.5,-68.5973 795.5,-87.5973 855.5,-87.5973 855.5,-68.5973 795.5,-68.5973"/>
<text text-anchor="start" x="846.3862" y="-74.6973" font-family="Helvetica,sans-Serif" font-size="11.00" fill="#000000"> &#160;</text>
</a>
</g>
</g>
<!-- court_appearance_movement&#45;&gt;court_appearance -->
<g id="edge6" class="edge">
<title>court_appearance_movement:w&#45;&gt;court_appearance:e</title>
<path fill="none" stroke="#000000" d="M604.0562,-97.0268C548.9836,-100.4073 531.9001,-122.5973 470,-122.5973"/>
<polygon fill="#000000" stroke="#000000" points="610.5035,-96.8351 618.607,-100.1957 614.5018,-96.7162 618.5,-96.5973 618.5,-96.5973 618.5,-96.5973 614.5018,-96.7162 618.393,-92.9988 610.5035,-96.8351 610.5035,-96.8351"/>
<ellipse fill="none" stroke="#000000" cx="607.305" cy="-96.9303" rx="3.2" ry="3.2"/>
</g>
<!-- court_appearance_movement&#45;&gt;person_summary -->
<g id="edge7" class="edge">
<title>court_appearance_movement:w&#45;&gt;person_summary:e</title>
<path fill="none" stroke="#000000" d="M604.1959,-94.3565C595.7087,-91.4264 590.0695,-86.4489 577,-84.5973 412.4213,-61.2803 335.2993,16.0343 203,-84.5973 148.6745,-125.9192 230.2551,-232.5973 162,-232.5973"/>
<polygon fill="#000000" stroke="#000000" points="610.5964,-95.3591 617.9428,-100.1539 614.5482,-95.9782 618.5,-96.5973 618.5,-96.5973 618.5,-96.5973 614.5482,-95.9782 619.0572,-93.0406 610.5964,-95.3591 610.5964,-95.3591"/>
<ellipse fill="none" stroke="#000000" cx="607.4349" cy="-94.8639" rx="3.2" ry="3.2"/>
</g>
<!-- court_appearance_movement_audit -->
<g id="node6" class="node">
<title>court_appearance_movement_audit</title>
<g id="a_node6"><a xlink:href="../../tables/court_appearance_movement_audit.html" xlink:title="court_appearance_movement_audit" target="_top">
<polygon fill="#ffffff" stroke="transparent" points="211,-177.5973 211,-487.5973 569,-487.5973 569,-177.5973 211,-177.5973"/>
<polygon fill="#f5f5f5" stroke="transparent" points="213,-462.5973 213,-485.5973 567,-485.5973 567,-462.5973 213,-462.5973"/>
<polygon fill="none" stroke="#000000" points="213,-462.5973 213,-485.5973 567,-485.5973 567,-462.5973 213,-462.5973"/>
<text text-anchor="start" x="218" y="-471.1973" font-family="Helvetica,sans-Serif" font-weight="bold" font-size="11.00" fill="#000000">court_appearance_movement_audit</text>
<text text-anchor="start" x="532.0437" y="-470.6973" font-family="Helvetica,sans-Serif" font-size="11.00" fill="#000000">[table]</text>
<polygon fill="none" stroke="#000000" points="213,-440.5973 213,-462.5973 473,-462.5973 473,-440.5973 213,-440.5973"/>
<image xlink:href="../../images/primaryKeys.png" width="11px" height="12px" preserveAspectRatio="xMinYMin meet" x="218" y="-457.597"/>
<text text-anchor="start" x="233" y="-447.6973" font-family="Helvetica,sans-Serif" font-size="11.00" fill="#000000">rev_id</text>
<polygon fill="none" stroke="#000000" points="473,-440.5973 473,-462.5973 567,-462.5973 567,-440.5973 473,-440.5973"/>
<text text-anchor="start" x="476" y="-448.2973" font-family="Helvetica,sans-Serif" font-size="11.00" fill="#000000">int8[19]</text>
<polygon fill="none" stroke="#000000" points="213,-418.5973 213,-440.5973 473,-440.5973 473,-418.5973 213,-418.5973"/>
<text text-anchor="start" x="233" y="-425.6973" font-family="Helvetica,sans-Serif" font-size="11.00" fill="#000000">rev_type</text>
<polygon fill="none" stroke="#000000" points="473,-418.5973 473,-440.5973 567,-440.5973 567,-418.5973 473,-418.5973"/>
<text text-anchor="start" x="476" y="-426.2973" font-family="Helvetica,sans-Serif" font-size="11.00" fill="#000000">int2[5]</text>
<polygon fill="none" stroke="#000000" points="213,-396.5973 213,-418.5973 473,-418.5973 473,-396.5973 213,-396.5973"/>
<image xlink:href="../../images/primaryKeys.png" width="11px" height="12px" preserveAspectRatio="xMinYMin meet" x="218" y="-413.597"/>
<text text-anchor="start" x="233" y="-403.6973" font-family="Helvetica,sans-Serif" font-size="11.00" fill="#000000">id</text>
<polygon fill="none" stroke="#000000" points="473,-396.5973 473,-418.5973 567,-418.5973 567,-396.5973 473,-396.5973"/>
<text text-anchor="start" x="475.9758" y="-404.2973" font-family="Helvetica,sans-Serif" font-size="11.00" fill="#000000">uuid[2147483647]</text>
<polygon fill="none" stroke="#000000" points="213,-374.5973 213,-396.5973 473,-396.5973 473,-374.5973 213,-374.5973"/>
<text text-anchor="start" x="233" y="-381.6973" font-family="Helvetica,sans-Serif" font-size="11.00" fill="#000000">version</text>
<polygon fill="none" stroke="#000000" points="473,-374.5973 473,-396.5973 567,-396.5973 567,-374.5973 473,-374.5973"/>
<text text-anchor="start" x="476" y="-382.2973" font-family="Helvetica,sans-Serif" font-size="11.00" fill="#000000">int4[10]</text>
<polygon fill="none" stroke="#000000" points="213,-352.5973 213,-374.5973 473,-374.5973 473,-352.5973 213,-352.5973"/>
<text text-anchor="start" x="233" y="-359.6973" font-family="Helvetica,sans-Serif" font-size="11.00" fill="#000000">court_appearance_id</text>
<polygon fill="none" stroke="#000000" points="473,-352.5973 473,-374.5973 567,-374.5973 567,-352.5973 473,-352.5973"/>
<text text-anchor="start" x="475.9758" y="-360.2973" font-family="Helvetica,sans-Serif" font-size="11.00" fill="#000000">uuid[2147483647]</text>
<polygon fill="none" stroke="#000000" points="213,-330.5973 213,-352.5973 473,-352.5973 473,-330.5973 213,-330.5973"/>
<image xlink:href="../../images/foreignKeys.png" width="11px" height="12px" preserveAspectRatio="xMinYMin meet" x="218" y="-347.597"/>
<text text-anchor="start" x="233" y="-337.6973" font-family="Helvetica,sans-Serif" font-size="11.00" fill="#000000">person_identifier</text>
<polygon fill="none" stroke="#000000" points="473,-330.5973 473,-352.5973 567,-352.5973 567,-330.5973 473,-330.5973"/>
<text text-anchor="start" x="476" y="-338.2973" font-family="Helvetica,sans-Serif" font-size="11.00" fill="#000000">varchar[10]</text>
<polygon fill="none" stroke="#000000" points="213,-308.5973 213,-330.5973 473,-330.5973 473,-308.5973 213,-308.5973"/>
<text text-anchor="start" x="233" y="-315.6973" font-family="Helvetica,sans-Serif" font-size="11.00" fill="#000000">prison_code</text>
<polygon fill="none" stroke="#000000" points="473,-308.5973 473,-330.5973 567,-330.5973 567,-308.5973 473,-308.5973"/>
<text text-anchor="start" x="476" y="-316.2973" font-family="Helvetica,sans-Serif" font-size="11.00" fill="#000000">varchar[6]</text>
<polygon fill="none" stroke="#000000" points="213,-286.5973 213,-308.5973 473,-308.5973 473,-286.5973 213,-286.5973"/>
<text text-anchor="start" x="233" y="-293.6973" font-family="Helvetica,sans-Serif" font-size="11.00" fill="#000000">court_code</text>
<polygon fill="none" stroke="#000000" points="473,-286.5973 473,-308.5973 567,-308.5973 567,-286.5973 473,-286.5973"/>
<text text-anchor="start" x="476" y="-294.2973" font-family="Helvetica,sans-Serif" font-size="11.00" fill="#000000">varchar[6]</text>
<polygon fill="none" stroke="#000000" points="213,-264.5973 213,-286.5973 473,-286.5973 473,-264.5973 213,-264.5973"/>
<text text-anchor="start" x="233" y="-271.6973" font-family="Helvetica,sans-Serif" font-size="11.00" fill="#000000">direction</text>
<polygon fill="none" stroke="#000000" points="473,-264.5973 473,-286.5973 567,-286.5973 567,-264.5973 473,-264.5973"/>
<text text-anchor="start" x="476" y="-272.2973" font-family="Helvetica,sans-Serif" font-size="11.00" fill="#000000">varchar[3]</text>
<polygon fill="none" stroke="#000000" points="213,-242.5973 213,-264.5973 473,-264.5973 473,-242.5973 213,-242.5973"/>
<text text-anchor="start" x="233" y="-249.6973" font-family="Helvetica,sans-Serif" font-size="11.00" fill="#000000">occurred_at</text>
<polygon fill="none" stroke="#000000" points="473,-242.5973 473,-264.5973 567,-264.5973 567,-242.5973 473,-242.5973"/>
<text text-anchor="start" x="476" y="-250.2973" font-family="Helvetica,sans-Serif" font-size="11.00" fill="#000000">timestamp[29,6]</text>
<polygon fill="none" stroke="#000000" points="213,-220.5973 213,-242.5973 473,-242.5973 473,-220.5973 213,-220.5973"/>
<text text-anchor="start" x="233" y="-227.6973" font-family="Helvetica,sans-Serif" font-size="11.00" fill="#000000">comments</text>
<polygon fill="none" stroke="#000000" points="473,-220.5973 473,-242.5973 567,-242.5973 567,-220.5973 473,-220.5973"/>
<text text-anchor="start" x="476" y="-228.2973" font-family="Helvetica,sans-Serif" font-size="11.00" fill="#000000">text[2147483647]</text>
<polygon fill="none" stroke="#000000" points="213,-198.5973 213,-220.5973 473,-220.5973 473,-198.5973 213,-198.5973"/>
<text text-anchor="start" x="233" y="-205.6973" font-family="Helvetica,sans-Serif" font-size="11.00" fill="#000000">legacy_id</text>
<polygon fill="none" stroke="#000000" points="473,-198.5973 473,-220.5973 567,-220.5973 567,-198.5973 473,-198.5973"/>
<text text-anchor="start" x="476" y="-206.2973" font-family="Helvetica,sans-Serif" font-size="11.00" fill="#000000">varchar[32]</text>
<polygon fill="#ffffff" stroke="transparent" points="213,-179.5973 213,-198.5973 347,-198.5973 347,-179.5973 213,-179.5973"/>
<polygon fill="none" stroke="#000000" points="213,-179.5973 213,-198.5973 347,-198.5973 347,-179.5973 213,-179.5973"/>
<text text-anchor="start" x="216" y="-185.6973" font-family="Helvetica,sans-Serif" font-size="11.00" fill="#000000">&lt; 2</text>
<polygon fill="#ffffff" stroke="transparent" points="347,-179.5973 347,-198.5973 473,-198.5973 473,-179.5973 347,-179.5973"/>
<polygon fill="none" stroke="#000000" points="347,-179.5973 347,-198.5973 473,-198.5973 473,-179.5973 347,-179.5973"/>
<text text-anchor="start" x="463.8862" y="-185.6973" font-family="Helvetica,sans-Serif" font-size="11.00" fill="#000000"> &#160;</text>
<polygon fill="#ffffff" stroke="transparent" points="473,-179.5973 473,-198.5973 567,-198.5973 567,-179.5973 473,-179.5973"/>
<polygon fill="none" stroke="#000000" points="473,-179.5973 473,-198.5973 567,-198.5973 567,-179.5973 473,-179.5973"/>
<text text-anchor="start" x="548.4053" y="-185.6973" font-family="Helvetica,sans-Serif" font-size="11.00" fill="#000000">0 &gt;</text>
<polygon fill="none" stroke="#000000" stroke-width="2" points="212,-178.5973 212,-486.5973 568,-486.5973 568,-178.5973 212,-178.5973"/>
</a>
</g>
</g>
<!-- court_appearance_movement_audit&#45;&gt;audit_revision -->
<g id="edge9" class="edge">
<title>court_appearance_movement_audit:w&#45;&gt;audit_revision:e</title>
<path fill="none" stroke="#000000" d="M198.7311,-455.0343C180.6164,-465.0651 179.1299,-493.5973 152,-493.5973"/>
<polygon fill="#000000" stroke="#000000" points="205.2224,-453.4707 213.8431,-455.0971 209.1112,-452.534 213,-451.5973 213,-451.5973 213,-451.5973 209.1112,-452.534 212.1569,-448.0974 205.2224,-453.4707 205.2224,-453.4707"/>
<ellipse fill="none" stroke="#000000" cx="202.1114" cy="-454.2201" rx="3.2" ry="3.2"/>
</g>
<!-- court_appearance_movement_audit&#45;&gt;person_summary -->
<g id="edge8" class="edge">
<title>court_appearance_movement_audit:w&#45;&gt;person_summary:e</title>
<path fill="none" stroke="#000000" stroke-dasharray="5,2" d="M198.719,-337.7179C170.7911,-318.3007 209.4261,-232.5973 162,-232.5973"/>
<polygon fill="#000000" stroke="#000000" points="205.2798,-339.5 212.0563,-345.0714 209.1399,-340.5486 213,-341.5973 213,-341.5973 213,-341.5973 209.1399,-340.5486 213.9437,-338.1231 205.2798,-339.5 205.2798,-339.5"/>
<ellipse fill="none" stroke="#000000" cx="202.1917" cy="-338.6612" rx="3.2" ry="3.2"/>
</g>
</g>
</svg>
