<?xml version="1.0" encoding="UTF-8" standalone="no"?>
<!DOCTYPE svg PUBLIC "-//W3C//DTD SVG 1.1//EN"
 "http://www.w3.org/Graphics/SVG/1.1/DTD/svg11.dtd">
<!-- Generated by graphviz version 2.40.1 (20161225.0304)
 -->
<!-- Title: twoDegreesRelationshipsDiagramImplied Pages: 1 -->
<svg width="806pt" height="431pt"
 viewBox="0.00 0.00 806.00 431.20" xmlns="http://www.w3.org/2000/svg" xmlns:xlink="http://www.w3.org/1999/xlink">
<g id="graph0" class="graph" transform="scale(1 1) rotate(0) translate(4 427.2)">
<title>twoDegreesRelationshipsDiagramImplied</title>
<polygon fill="#ffffff" stroke="transparent" points="-4,4 -4,-427.2 802,-427.2 802,4 -4,4"/>
<text text-anchor="middle" x="72.4936" y="-7.3" font-family="Helvetica,sans-Serif" font-size="11.00" fill="#000000">Generated by SchemaSpy</text>
<!-- court_appearance -->
<g id="node1" class="node">
<title>court_appearance</title>
<g id="a_node1"><a xlink:href="../../tables/court_appearance.html" xlink:title="court_appearance" target="_top">
<polygon fill="#ffffff" stroke="transparent" points="345,-146.2 345,-361.2 504,-361.2 504,-146.2 345,-146.2"/>
<polygon fill="#f5f5f5" stroke="transparent" points="345.5,-337.7 345.5,-360.7 504.5,-360.7 504.5,-337.7 345.5,-337.7"/>
<polygon fill="none" stroke="#000000" points="345.5,-337.7 345.5,-360.7 504.5,-360.7 504.5,-337.7 345.5,-337.7"/>
<text text-anchor="start" x="350.5" y="-346.3" font-family="Helvetica,sans-Serif" font-weight="bold" font-size="11.00" fill="#000000">court_appearance</text>
<text text-anchor="start" x="470.0219" y="-345.8" font-family="Helvetica,sans-Serif" font-size="11.00" fill="#000000">[table]</text>
<polygon fill="none" stroke="#000000" points="345.5,-315.7 345.5,-337.7 504.5,-337.7 504.5,-315.7 345.5,-315.7"/>
<image xlink:href="../../images/primaryKeys.png" width="11px" height="12px" preserveAspectRatio="xMinYMin meet" x="350.5" y="-332.7"/>
<text text-anchor="start" x="374.5" y="-322.8" font-family="Helvetica,sans-Serif" font-size="11.00" fill="#000000">id</text>
<polygon fill="#ffffff" stroke="transparent" points="345.5,-293.7 345.5,-315.7 504.5,-315.7 504.5,-293.7 345.5,-293.7"/>
<polygon fill="none" stroke="#000000" points="345.5,-293.7 345.5,-315.7 504.5,-315.7 504.5,-293.7 345.5,-293.7"/>
<image xlink:href="../../images/foreignKeys.png" width="11px" height="12px" preserveAspectRatio="xMinYMin meet" x="350.5" y="-310.7"/>
<text text-anchor="start" x="374.5" y="-300.8" font-family="Helvetica,sans-Serif" font-size="11.00" fill="#000000">person_identifier</text>
<polygon fill="#ffffff" stroke="transparent" points="345.5,-271.7 345.5,-293.7 504.5,-293.7 504.5,-271.7 345.5,-271.7"/>
<polygon fill="none" stroke="#000000" points="345.5,-271.7 345.5,-293.7 504.5,-293.7 504.5,-271.7 345.5,-271.7"/>
<text text-anchor="start" x="374.5" y="-278.8" font-family="Helvetica,sans-Serif" font-size="11.00" fill="#000000">prison_code</text>
<polygon fill="#ffffff" stroke="transparent" points="345.5,-249.7 345.5,-271.7 504.5,-271.7 504.5,-249.7 345.5,-249.7"/>
<polygon fill="none" stroke="#000000" points="345.5,-249.7 345.5,-271.7 504.5,-271.7 504.5,-249.7 345.5,-249.7"/>
<image xlink:href="../../images/foreignKeys.png" width="11px" height="12px" preserveAspectRatio="xMinYMin meet" x="350.5" y="-266.7"/>
<text text-anchor="start" x="374.5" y="-256.8" font-family="Helvetica,sans-Serif" font-size="11.00" fill="#000000">reason_id</text>
<polygon fill="#ffffff" stroke="transparent" points="345.5,-227.7 345.5,-249.7 504.5,-249.7 504.5,-227.7 345.5,-227.7"/>
<polygon fill="none" stroke="#000000" points="345.5,-227.7 345.5,-249.7 504.5,-249.7 504.5,-227.7 345.5,-227.7"/>
<image xlink:href="../../images/foreignKeys.png" width="11px" height="12px" preserveAspectRatio="xMinYMin meet" x="350.5" y="-244.7"/>
<text text-anchor="start" x="374.5" y="-234.8" font-family="Helvetica,sans-Serif" font-size="11.00" fill="#000000">status_id</text>
<polygon fill="#ffffff" stroke="transparent" points="345.5,-205.7 345.5,-227.7 504.5,-227.7 504.5,-205.7 345.5,-205.7"/>
<polygon fill="none" stroke="#000000" points="345.5,-205.7 345.5,-227.7 504.5,-227.7 504.5,-205.7 345.5,-205.7"/>
<text text-anchor="start" x="374.5" y="-212.8" font-family="Helvetica,sans-Serif" font-size="11.00" fill="#000000">start</text>
<polygon fill="#ffffff" stroke="transparent" points="345.5,-183.7 345.5,-205.7 504.5,-205.7 504.5,-183.7 345.5,-183.7"/>
<polygon fill="none" stroke="#000000" points="345.5,-183.7 345.5,-205.7 504.5,-205.7 504.5,-183.7 345.5,-183.7"/>
<image xlink:href="../../images/foreignKeys.png" width="11px" height="12px" preserveAspectRatio="xMinYMin meet" x="350.5" y="-200.7"/>
<text text-anchor="start" x="374.5" y="-190.8" font-family="Helvetica,sans-Serif" font-size="11.00" fill="#000000">legacy_id</text>
<polygon fill="none" stroke="#000000" points="345.5,-164.7 345.5,-183.7 504.5,-183.7 504.5,-164.7 345.5,-164.7"/>
<text text-anchor="start" x="348.5" y="-170.8" font-family="Helvetica,sans-Serif" font-size="11.00" fill="#000000">...</text>
<polygon fill="#ffffff" stroke="transparent" points="345.5,-145.7 345.5,-164.7 418.5,-164.7 418.5,-145.7 345.5,-145.7"/>
<polygon fill="none" stroke="#000000" points="345.5,-145.7 345.5,-164.7 418.5,-164.7 418.5,-145.7 345.5,-145.7"/>
<text text-anchor="start" x="348.5" y="-151.8" font-family="Helvetica,sans-Serif" font-size="11.00" fill="#000000">&lt; 4</text>
<polygon fill="#ffffff" stroke="transparent" points="418.5,-145.7 418.5,-164.7 456.5,-164.7 456.5,-145.7 418.5,-145.7"/>
<polygon fill="none" stroke="#000000" points="418.5,-145.7 418.5,-164.7 456.5,-164.7 456.5,-145.7 418.5,-145.7"/>
<text text-anchor="start" x="447.3862" y="-151.8" font-family="Helvetica,sans-Serif" font-size="11.00" fill="#000000"> &#160;</text>
<polygon fill="#ffffff" stroke="transparent" points="456.5,-145.7 456.5,-164.7 504.5,-164.7 504.5,-145.7 456.5,-145.7"/>
<polygon fill="none" stroke="#000000" points="456.5,-145.7 456.5,-164.7 504.5,-164.7 504.5,-145.7 456.5,-145.7"/>
<text text-anchor="start" x="485.9053" y="-151.8" font-family="Helvetica,sans-Serif" font-size="11.00" fill="#000000">1 &gt;</text>
</a>
</g>
</g>
<!-- audit_revision -->
<g id="node2" class="node">
<title>audit_revision</title>
<g id="a_node2"><a xlink:href="../../tables/audit_revision.html" xlink:title="audit_revision" target="_top">
<polygon fill="#ffffff" stroke="transparent" points="85,-38.2 85,-99.2 219,-99.2 219,-38.2 85,-38.2"/>
<polygon fill="#f5f5f5" stroke="transparent" points="85,-75.7 85,-98.7 219,-98.7 219,-75.7 85,-75.7"/>
<polygon fill="none" stroke="#000000" points="85,-75.7 85,-98.7 219,-98.7 219,-75.7 85,-75.7"/>
<text text-anchor="start" x="90" y="-84.3" font-family="Helvetica,sans-Serif" font-weight="bold" font-size="11.00" fill="#000000">audit_revision</text>
<text text-anchor="start" x="184.5219" y="-83.8" font-family="Helvetica,sans-Serif" font-size="11.00" fill="#000000">[table]</text>
<polygon fill="none" stroke="#000000" points="85,-56.7 85,-75.7 219,-75.7 219,-56.7 85,-56.7"/>
<text text-anchor="start" x="88" y="-62.8" font-family="Helvetica,sans-Serif" font-size="11.00" fill="#000000">...</text>
<polygon fill="#ffffff" stroke="transparent" points="85,-37.7 85,-56.7 141,-56.7 141,-37.7 85,-37.7"/>
<polygon fill="none" stroke="#000000" points="85,-37.7 85,-56.7 141,-56.7 141,-37.7 85,-37.7"/>
<text text-anchor="start" x="88" y="-43.8" font-family="Helvetica,sans-Serif" font-size="11.00" fill="#000000"> &#160;</text>
<polygon fill="#ffffff" stroke="transparent" points="141,-37.7 141,-56.7 175,-56.7 175,-37.7 141,-37.7"/>
<polygon fill="none" stroke="#000000" points="141,-37.7 141,-56.7 175,-56.7 175,-37.7 141,-37.7"/>
<text text-anchor="start" x="165.8862" y="-43.8" font-family="Helvetica,sans-Serif" font-size="11.00" fill="#000000"> &#160;</text>
<polygon fill="#ffffff" stroke="transparent" points="175,-37.7 175,-56.7 219,-56.7 219,-37.7 175,-37.7"/>
<polygon fill="none" stroke="#000000" points="175,-37.7 175,-56.7 219,-56.7 219,-37.7 175,-37.7"/>
<text text-anchor="start" x="200.4053" y="-43.8" font-family="Helvetica,sans-Serif" font-size="11.00" fill="#000000">4 &gt;</text>
</a>
</g>
</g>
<!-- court_appearance&#45;&gt;audit_revision -->
<g id="edge1" class="edge">
<title>court_appearance:w&#45;&gt;audit_revision:e</title>
<path fill="none" stroke="#000000" stroke-dasharray="5,2" d="M335.12,-193.2028C308.7375,-184.2092 330.5071,-136.8367 304,-109.7 274.2754,-79.2693 261.5392,-65.7 219,-65.7"/>
<polygon fill="#000000" stroke="#000000" points="345.2793,-190.6268 344.1371,-198.5448 342.5535,-198.3164 343.6956,-190.3983 345.2793,-190.6268"/>
<polyline fill="none" stroke="#000000" points="345.5,-194.7 341.541,-194.1289 "/>
<ellipse fill="none" stroke="#000000" cx="338.3737" cy="-193.6721" rx="3.2" ry="3.2"/>
</g>
<!-- person_summary -->
<g id="node3" class="node">
<title>person_summary</title>
<g id="a_node3"><a xlink:href="../../tables/person_summary.html" xlink:title="person_summary" target="_top">
<polygon fill="#ffffff" stroke="transparent" points="75,-358.2 75,-419.2 229,-419.2 229,-358.2 75,-358.2"/>
<polygon fill="#f5f5f5" stroke="transparent" points="75,-395.7 75,-418.7 229,-418.7 229,-395.7 75,-395.7"/>
<polygon fill="none" stroke="#000000" points="75,-395.7 75,-418.7 229,-418.7 229,-395.7 75,-395.7"/>
<text text-anchor="start" x="80" y="-404.3" font-family="Helvetica,sans-Serif" font-weight="bold" font-size="11.00" fill="#000000">person_summary</text>
<text text-anchor="start" x="194.5219" y="-403.8" font-family="Helvetica,sans-Serif" font-size="11.00" fill="#000000">[table]</text>
<polygon fill="none" stroke="#000000" points="75,-376.7 75,-395.7 229,-395.7 229,-376.7 75,-376.7"/>
<text text-anchor="start" x="78" y="-382.8" font-family="Helvetica,sans-Serif" font-size="11.00" fill="#000000">...</text>
<polygon fill="#ffffff" stroke="transparent" points="75,-357.7 75,-376.7 141,-376.7 141,-357.7 75,-357.7"/>
<polygon fill="none" stroke="#000000" points="75,-357.7 75,-376.7 141,-376.7 141,-357.7 75,-357.7"/>
<text text-anchor="start" x="78" y="-363.8" font-family="Helvetica,sans-Serif" font-size="11.00" fill="#000000"> &#160;</text>
<polygon fill="#ffffff" stroke="transparent" points="141,-357.7 141,-376.7 180,-376.7 180,-357.7 141,-357.7"/>
<polygon fill="none" stroke="#000000" points="141,-357.7 141,-376.7 180,-376.7 180,-357.7 141,-357.7"/>
<text text-anchor="start" x="170.8862" y="-363.8" font-family="Helvetica,sans-Serif" font-size="11.00" fill="#000000"> &#160;</text>
<polygon fill="#ffffff" stroke="transparent" points="180,-357.7 180,-376.7 229,-376.7 229,-357.7 180,-357.7"/>
<polygon fill="none" stroke="#000000" points="180,-357.7 180,-376.7 229,-376.7 229,-357.7 180,-357.7"/>
<text text-anchor="start" x="210.4053" y="-363.8" font-family="Helvetica,sans-Serif" font-size="11.00" fill="#000000">2 &gt;</text>
</a>
</g>
</g>
<!-- court_appearance&#45;&gt;person_summary -->
<g id="edge2" class="edge">
<title>court_appearance:w&#45;&gt;person_summary:e</title>
<path fill="none" stroke="#000000" d="M331.4784,-308.6883C320.4255,-316.8319 320.3584,-335.6204 304,-347.7 273.9398,-369.8975 266.3677,-385.7 229,-385.7"/>
<polygon fill="#000000" stroke="#000000" points="337.8052,-306.8888 346.4849,-308.1626 341.6526,-305.7944 345.5,-304.7 345.5,-304.7 345.5,-304.7 341.6526,-305.7944 344.5151,-301.2374 337.8052,-306.8888 337.8052,-306.8888"/>
<ellipse fill="none" stroke="#000000" cx="334.7273" cy="-307.7643" rx="3.2" ry="3.2"/>
</g>
<!-- court_appearance_reason -->
<g id="node4" class="node">
<title>court_appearance_reason</title>
<g id="a_node4"><a xlink:href="../../tables/court_appearance_reason.html" xlink:title="court_appearance_reason" target="_top">
<polygon fill="#ffffff" stroke="transparent" points="46.5,-276.2 46.5,-337.2 257.5,-337.2 257.5,-276.2 46.5,-276.2"/>
<polygon fill="#f5f5f5" stroke="transparent" points="47,-313.7 47,-336.7 258,-336.7 258,-313.7 47,-313.7"/>
<polygon fill="none" stroke="#000000" points="47,-313.7 47,-336.7 258,-336.7 258,-313.7 47,-313.7"/>
<text text-anchor="start" x="52" y="-322.3" font-family="Helvetica,sans-Serif" font-weight="bold" font-size="11.00" fill="#000000">court_appearance_reason</text>
<text text-anchor="start" x="223.5219" y="-321.8" font-family="Helvetica,sans-Serif" font-size="11.00" fill="#000000">[table]</text>
<polygon fill="none" stroke="#000000" points="47,-294.7 47,-313.7 258,-313.7 258,-294.7 47,-294.7"/>
<text text-anchor="start" x="50" y="-300.8" font-family="Helvetica,sans-Serif" font-size="11.00" fill="#000000">...</text>
<polygon fill="#ffffff" stroke="transparent" points="47,-275.7 47,-294.7 142,-294.7 142,-275.7 47,-275.7"/>
<polygon fill="none" stroke="#000000" points="47,-275.7 47,-294.7 142,-294.7 142,-275.7 47,-275.7"/>
<text text-anchor="start" x="50" y="-281.8" font-family="Helvetica,sans-Serif" font-size="11.00" fill="#000000"> &#160;</text>
<polygon fill="#ffffff" stroke="transparent" points="142,-275.7 142,-294.7 195,-294.7 195,-275.7 142,-275.7"/>
<polygon fill="none" stroke="#000000" points="142,-275.7 142,-294.7 195,-294.7 195,-275.7 142,-275.7"/>
<text text-anchor="start" x="185.8862" y="-281.8" font-family="Helvetica,sans-Serif" font-size="11.00" fill="#000000"> &#160;</text>
<polygon fill="#ffffff" stroke="transparent" points="195,-275.7 195,-294.7 258,-294.7 258,-275.7 195,-275.7"/>
<polygon fill="none" stroke="#000000" points="195,-275.7 195,-294.7 258,-294.7 258,-275.7 195,-275.7"/>
<text text-anchor="start" x="239.4053" y="-281.8" font-family="Helvetica,sans-Serif" font-size="11.00" fill="#000000">1 &gt;</text>
</a>
</g>
</g>
<!-- court_appearance&#45;&gt;court_appearance_reason -->
<g id="edge3" class="edge">
<title>court_appearance:w&#45;&gt;court_appearance_reason:e</title>
<path fill="none" stroke="#000000" d="M331.0767,-262.5477C301.2955,-270.7781 295.9147,-303.7 258,-303.7"/>
<polygon fill="#000000" stroke="#000000" points="337.5648,-261.7166 345.9575,-264.2708 341.5324,-261.2083 345.5,-260.7 345.5,-260.7 345.5,-260.7 341.5324,-261.2083 345.0425,-257.1292 337.5648,-261.7166 337.5648,-261.7166"/>
<ellipse fill="none" stroke="#000000" cx="334.3908" cy="-262.1232" rx="3.2" ry="3.2"/>
</g>
<!-- court_appearance_status -->
<g id="node5" class="node">
<title>court_appearance_status</title>
<g id="a_node5"><a xlink:href="../../tables/court_appearance_status.html" xlink:title="court_appearance_status" target="_top">
<polygon fill="#ffffff" stroke="transparent" points="8,-120.7 8,-254.7 296,-254.7 296,-120.7 8,-120.7"/>
<polygon fill="#f5f5f5" stroke="transparent" points="10,-229.7 10,-252.7 294,-252.7 294,-229.7 10,-229.7"/>
<polygon fill="none" stroke="#000000" points="10,-229.7 10,-252.7 294,-252.7 294,-229.7 10,-229.7"/>
<text text-anchor="start" x="15" y="-238.3" font-family="Helvetica,sans-Serif" font-weight="bold" font-size="11.00" fill="#000000">court_appearance_status</text>
<text text-anchor="start" x="259.0437" y="-237.8" font-family="Helvetica,sans-Serif" font-size="11.00" fill="#000000">[table]</text>
<polygon fill="none" stroke="#000000" points="10,-207.7 10,-229.7 200,-229.7 200,-207.7 10,-207.7"/>
<image xlink:href="../../images/primaryKeys.png" width="11px" height="12px" preserveAspectRatio="xMinYMin meet" x="15" y="-224.7"/>
<text text-anchor="start" x="30" y="-214.8" font-family="Helvetica,sans-Serif" font-size="11.00" fill="#000000">id</text>
<polygon fill="none" stroke="#000000" points="200,-207.7 200,-229.7 294,-229.7 294,-207.7 200,-207.7"/>
<text text-anchor="start" x="202.9758" y="-215.4" font-family="Helvetica,sans-Serif" font-size="11.00" fill="#000000">uuid[2147483647]</text>
<polygon fill="#ffffff" stroke="transparent" points="10,-185.7 10,-207.7 200,-207.7 200,-185.7 10,-185.7"/>
<polygon fill="none" stroke="#000000" points="10,-185.7 10,-207.7 200,-207.7 200,-185.7 10,-185.7"/>
<text text-anchor="start" x="30" y="-192.8" font-family="Helvetica,sans-Serif" font-size="11.00" fill="#000000">code</text>
<polygon fill="none" stroke="#000000" points="200,-185.7 200,-207.7 294,-207.7 294,-185.7 200,-185.7"/>
<text text-anchor="start" x="203" y="-193.4" font-family="Helvetica,sans-Serif" font-size="11.00" fill="#000000">varchar[16]</text>
<polygon fill="none" stroke="#000000" points="10,-163.7 10,-185.7 200,-185.7 200,-163.7 10,-163.7"/>
<text text-anchor="start" x="30" y="-170.8" font-family="Helvetica,sans-Serif" font-size="11.00" fill="#000000">description</text>
<polygon fill="none" stroke="#000000" points="200,-163.7 200,-185.7 294,-185.7 294,-163.7 200,-163.7"/>
<text text-anchor="start" x="203" y="-171.4" font-family="Helvetica,sans-Serif" font-size="11.00" fill="#000000">varchar[255]</text>
<polygon fill="#ffffff" stroke="transparent" points="10,-141.7 10,-163.7 200,-163.7 200,-141.7 10,-141.7"/>
<polygon fill="none" stroke="#000000" points="10,-141.7 10,-163.7 200,-163.7 200,-141.7 10,-141.7"/>
<text text-anchor="start" x="30" y="-148.8" font-family="Helvetica,sans-Serif" font-size="11.00" fill="#000000">sequence_number</text>
<polygon fill="none" stroke="#000000" points="200,-141.7 200,-163.7 294,-163.7 294,-141.7 200,-141.7"/>
<text text-anchor="start" x="203" y="-149.4" font-family="Helvetica,sans-Serif" font-size="11.00" fill="#000000">int4[10]</text>
<polygon fill="#ffffff" stroke="transparent" points="10,-122.7 10,-141.7 109,-141.7 109,-122.7 10,-122.7"/>
<polygon fill="none" stroke="#000000" points="10,-122.7 10,-141.7 109,-141.7 109,-122.7 10,-122.7"/>
<text text-anchor="start" x="13" y="-128.8" font-family="Helvetica,sans-Serif" font-size="11.00" fill="#000000">&lt; 0</text>
<polygon fill="#ffffff" stroke="transparent" points="109,-122.7 109,-141.7 200,-141.7 200,-122.7 109,-122.7"/>
<polygon fill="none" stroke="#000000" points="109,-122.7 109,-141.7 200,-141.7 200,-122.7 109,-122.7"/>
<text text-anchor="start" x="190.8862" y="-128.8" font-family="Helvetica,sans-Serif" font-size="11.00" fill="#000000"> &#160;</text>
<polygon fill="#ffffff" stroke="transparent" points="200,-122.7 200,-141.7 294,-141.7 294,-122.7 200,-122.7"/>
<polygon fill="none" stroke="#000000" points="200,-122.7 200,-141.7 294,-141.7 294,-122.7 200,-122.7"/>
<text text-anchor="start" x="275.4053" y="-128.8" font-family="Helvetica,sans-Serif" font-size="11.00" fill="#000000">1 &gt;</text>
<polygon fill="none" stroke="#000000" stroke-width="2" points="9,-121.7 9,-253.7 295,-253.7 295,-121.7 9,-121.7"/>
</a>
</g>
</g>
<!-- court_appearance&#45;&gt;court_appearance_status -->
<g id="edge4" class="edge">
<title>court_appearance:w&#45;&gt;court_appearance_status:e</title>
<path fill="none" stroke="#000000" d="M331.3169,-235.9191C318.6073,-230.4236 312.7994,-218.7 294,-218.7"/>
<polygon fill="#000000" stroke="#000000" points="337.6495,-237.1607 344.8073,-242.2327 341.5747,-237.9303 345.5,-238.7 345.5,-238.7 345.5,-238.7 341.5747,-237.9303 346.1927,-235.1673 337.6495,-237.1607 337.6495,-237.1607"/>
<ellipse fill="none" stroke="#000000" cx="334.5093" cy="-236.545" rx="3.2" ry="3.2"/>
</g>
<!-- court_appearance_movement -->
<g id="node6" class="node">
<title>court_appearance_movement</title>
<g id="a_node6"><a xlink:href="../../tables/court_appearance_movement.html" xlink:title="court_appearance_movement" target="_top">
<polygon fill="#ffffff" stroke="transparent" points="553,-328.2 553,-389.2 790,-389.2 790,-328.2 553,-328.2"/>
<polygon fill="#f5f5f5" stroke="transparent" points="553.5,-365.7 553.5,-388.7 790.5,-388.7 790.5,-365.7 553.5,-365.7"/>
<polygon fill="none" stroke="#000000" points="553.5,-365.7 553.5,-388.7 790.5,-388.7 790.5,-365.7 553.5,-365.7"/>
<text text-anchor="start" x="558.5" y="-374.3" font-family="Helvetica,sans-Serif" font-weight="bold" font-size="11.00" fill="#000000">court_appearance_movement</text>
<text text-anchor="start" x="756.0219" y="-373.8" font-family="Helvetica,sans-Serif" font-size="11.00" fill="#000000">[table]</text>
<polygon fill="none" stroke="#000000" points="553.5,-346.7 553.5,-365.7 790.5,-365.7 790.5,-346.7 553.5,-346.7"/>
<text text-anchor="start" x="556.5" y="-352.8" font-family="Helvetica,sans-Serif" font-size="11.00" fill="#000000">...</text>
<polygon fill="#ffffff" stroke="transparent" points="553.5,-327.7 553.5,-346.7 670.5,-346.7 670.5,-327.7 553.5,-327.7"/>
<polygon fill="none" stroke="#000000" points="553.5,-327.7 553.5,-346.7 670.5,-346.7 670.5,-327.7 553.5,-327.7"/>
<text text-anchor="start" x="556.5" y="-333.8" font-family="Helvetica,sans-Serif" font-size="11.00" fill="#000000">&lt; 2</text>
<polygon fill="#ffffff" stroke="transparent" points="670.5,-327.7 670.5,-346.7 730.5,-346.7 730.5,-327.7 670.5,-327.7"/>
<polygon fill="none" stroke="#000000" points="670.5,-327.7 670.5,-346.7 730.5,-346.7 730.5,-327.7 670.5,-327.7"/>
<text text-anchor="start" x="721.3862" y="-333.8" font-family="Helvetica,sans-Serif" font-size="11.00" fill="#000000"> &#160;</text>
<polygon fill="#ffffff" stroke="transparent" points="730.5,-327.7 730.5,-346.7 790.5,-346.7 790.5,-327.7 730.5,-327.7"/>
<polygon fill="none" stroke="#000000" points="730.5,-327.7 730.5,-346.7 790.5,-346.7 790.5,-327.7 730.5,-327.7"/>
<text text-anchor="start" x="781.3862" y="-333.8" font-family="Helvetica,sans-Serif" font-size="11.00" fill="#000000"> &#160;</text>
</a>
</g>
</g>
<!-- court_appearance_movement&#45;&gt;court_appearance -->
<g id="edge5" class="edge">
<title>court_appearance_movement:w&#45;&gt;court_appearance:e</title>
<path fill="none" stroke="#000000" d="M539.4495,-351.6677C527.471,-343.6993 523.8749,-326.7 504.5,-326.7"/>
<polygon fill="#000000" stroke="#000000" points="545.8104,-353.4931 552.5069,-359.1603 549.6552,-354.5966 553.5,-355.7 553.5,-355.7 553.5,-355.7 549.6552,-354.5966 554.4931,-352.2397 545.8104,-353.4931 545.8104,-353.4931"/>
<ellipse fill="none" stroke="#000000" cx="542.7346" cy="-352.6104" rx="3.2" ry="3.2"/>
</g>
<!-- court_appearance_movement&#45;&gt;person_summary -->
<g id="edge6" class="edge">
<title>court_appearance_movement:w&#45;&gt;person_summary:e</title>
<path fill="none" stroke="#000000" d="M539.2991,-358.4578C530.7006,-362.2293 525.4465,-368.8522 512,-371.7 388.8011,-397.7922 354.9316,-385.7 229,-385.7"/>
<polygon fill="#000000" stroke="#000000" points="545.6467,-357.2251 554.1863,-359.234 549.5734,-356.4626 553.5,-355.7 553.5,-355.7 553.5,-355.7 549.5734,-356.4626 552.8137,-352.166 545.6467,-357.2251 545.6467,-357.2251"/>
<ellipse fill="none" stroke="#000000" cx="542.5054" cy="-357.8352" rx="3.2" ry="3.2"/>
</g>
</g>
</svg>
