<?xml version="1.0" encoding="UTF-8" standalone="no"?>
<!DOCTYPE svg PUBLIC "-//W3C//DTD SVG 1.1//EN"
 "http://www.w3.org/Graphics/SVG/1.1/DTD/svg11.dtd">
<!-- Generated by graphviz version 2.40.1 (20161225.0304)
 -->
<!-- Title: oneDegreeRelationshipsDiagramImplied Pages: 1 -->
<svg width="585pt" height="382pt"
 viewBox="0.00 0.00 585.00 382.20" xmlns="http://www.w3.org/2000/svg" xmlns:xlink="http://www.w3.org/1999/xlink">
<g id="graph0" class="graph" transform="scale(1 1) rotate(0) translate(4 378.2)">
<title>oneDegreeRelationshipsDiagramImplied</title>
<polygon fill="#ffffff" stroke="transparent" points="-4,4 -4,-378.2 581,-378.2 581,4 -4,4"/>
<text text-anchor="middle" x="72.4936" y="-7.3" font-family="Helvetica,sans-Serif" font-size="11.00" fill="#000000">Generated by SchemaSpy</text>
<!-- court_appearance_movement_audit -->
<g id="node1" class="node">
<title>court_appearance_movement_audit</title>
<g id="a_node1"><a xlink:href="../../tables/court_appearance_movement_audit.html" xlink:title="court_appearance_movement_audit" target="_top">
<polygon fill="#ffffff" stroke="transparent" points="211,-38.2 211,-370.2 569,-370.2 569,-38.2 211,-38.2"/>
<polygon fill="#f5f5f5" stroke="transparent" points="213,-345.2 213,-368.2 567,-368.2 567,-345.2 213,-345.2"/>
<polygon fill="none" stroke="#000000" points="213,-345.2 213,-368.2 567,-368.2 567,-345.2 213,-345.2"/>
<text text-anchor="start" x="218" y="-353.8" font-family="Helvetica,sans-Serif" font-weight="bold" font-size="11.00" fill="#000000">court_appearance_movement_audit</text>
<text text-anchor="start" x="532.0437" y="-353.3" font-family="Helvetica,sans-Serif" font-size="11.00" fill="#000000">[table]</text>
<polygon fill="none" stroke="#000000" points="213,-323.2 213,-345.2 473,-345.2 473,-323.2 213,-323.2"/>
<image xlink:href="../../images/primaryKeys.png" width="11px" height="12px" preserveAspectRatio="xMinYMin meet" x="218" y="-340.2"/>
<text text-anchor="start" x="233" y="-330.3" font-family="Helvetica,sans-Serif" font-size="11.00" fill="#000000">rev_id</text>
<polygon fill="none" stroke="#000000" points="473,-323.2 473,-345.2 567,-345.2 567,-323.2 473,-323.2"/>
<text text-anchor="start" x="476" y="-330.9" font-family="Helvetica,sans-Serif" font-size="11.00" fill="#000000">int8[19]</text>
<polygon fill="none" stroke="#000000" points="213,-301.2 213,-323.2 473,-323.2 473,-301.2 213,-301.2"/>
<text text-anchor="start" x="233" y="-308.3" font-family="Helvetica,sans-Serif" font-size="11.00" fill="#000000">rev_type</text>
<polygon fill="none" stroke="#000000" points="473,-301.2 473,-323.2 567,-323.2 567,-301.2 473,-301.2"/>
<text text-anchor="start" x="476" y="-308.9" font-family="Helvetica,sans-Serif" font-size="11.00" fill="#000000">int2[5]</text>
<polygon fill="none" stroke="#000000" points="213,-279.2 213,-301.2 473,-301.2 473,-279.2 213,-279.2"/>
<image xlink:href="../../images/primaryKeys.png" width="11px" height="12px" preserveAspectRatio="xMinYMin meet" x="218" y="-296.2"/>
<text text-anchor="start" x="233" y="-286.3" font-family="Helvetica,sans-Serif" font-size="11.00" fill="#000000">id</text>
<polygon fill="none" stroke="#000000" points="473,-279.2 473,-301.2 567,-301.2 567,-279.2 473,-279.2"/>
<text text-anchor="start" x="475.9758" y="-286.9" font-family="Helvetica,sans-Serif" font-size="11.00" fill="#000000">uuid[2147483647]</text>
<polygon fill="none" stroke="#000000" points="213,-257.2 213,-279.2 473,-279.2 473,-257.2 213,-257.2"/>
<text text-anchor="start" x="233" y="-264.3" font-family="Helvetica,sans-Serif" font-size="11.00" fill="#000000">version</text>
<polygon fill="none" stroke="#000000" points="473,-257.2 473,-279.2 567,-279.2 567,-257.2 473,-257.2"/>
<text text-anchor="start" x="476" y="-264.9" font-family="Helvetica,sans-Serif" font-size="11.00" fill="#000000">int4[10]</text>
<polygon fill="none" stroke="#000000" points="213,-235.2 213,-257.2 473,-257.2 473,-235.2 213,-235.2"/>
<text text-anchor="start" x="233" y="-242.3" font-family="Helvetica,sans-Serif" font-size="11.00" fill="#000000">court_appearance_id</text>
<polygon fill="none" stroke="#000000" points="473,-235.2 473,-257.2 567,-257.2 567,-235.2 473,-235.2"/>
<text text-anchor="start" x="475.9758" y="-242.9" font-family="Helvetica,sans-Serif" font-size="11.00" fill="#000000">uuid[2147483647]</text>
<polygon fill="none" stroke="#000000" points="213,-213.2 213,-235.2 473,-235.2 473,-213.2 213,-213.2"/>
<image xlink:href="../../images/foreignKeys.png" width="11px" height="12px" preserveAspectRatio="xMinYMin meet" x="218" y="-230.2"/>
<text text-anchor="start" x="233" y="-220.3" font-family="Helvetica,sans-Serif" font-size="11.00" fill="#000000">person_identifier</text>
<polygon fill="none" stroke="#000000" points="473,-213.2 473,-235.2 567,-235.2 567,-213.2 473,-213.2"/>
<text text-anchor="start" x="476" y="-220.9" font-family="Helvetica,sans-Serif" font-size="11.00" fill="#000000">varchar[10]</text>
<polygon fill="none" stroke="#000000" points="213,-191.2 213,-213.2 473,-213.2 473,-191.2 213,-191.2"/>
<text text-anchor="start" x="233" y="-198.3" font-family="Helvetica,sans-Serif" font-size="11.00" fill="#000000">prison_code</text>
<polygon fill="none" stroke="#000000" points="473,-191.2 473,-213.2 567,-213.2 567,-191.2 473,-191.2"/>
<text text-anchor="start" x="476" y="-198.9" font-family="Helvetica,sans-Serif" font-size="11.00" fill="#000000">varchar[6]</text>
<polygon fill="none" stroke="#000000" points="213,-169.2 213,-191.2 473,-191.2 473,-169.2 213,-169.2"/>
<text text-anchor="start" x="233" y="-176.3" font-family="Helvetica,sans-Serif" font-size="11.00" fill="#000000">court_code</text>
<polygon fill="none" stroke="#000000" points="473,-169.2 473,-191.2 567,-191.2 567,-169.2 473,-169.2"/>
<text text-anchor="start" x="476" y="-176.9" font-family="Helvetica,sans-Serif" font-size="11.00" fill="#000000">varchar[6]</text>
<polygon fill="none" stroke="#000000" points="213,-147.2 213,-169.2 473,-169.2 473,-147.2 213,-147.2"/>
<text text-anchor="start" x="233" y="-154.3" font-family="Helvetica,sans-Serif" font-size="11.00" fill="#000000">reason_id</text>
<polygon fill="none" stroke="#000000" points="473,-147.2 473,-169.2 567,-169.2 567,-147.2 473,-147.2"/>
<text text-anchor="start" x="475.9758" y="-154.9" font-family="Helvetica,sans-Serif" font-size="11.00" fill="#000000">uuid[2147483647]</text>
<polygon fill="none" stroke="#000000" points="213,-125.2 213,-147.2 473,-147.2 473,-125.2 213,-125.2"/>
<text text-anchor="start" x="233" y="-132.3" font-family="Helvetica,sans-Serif" font-size="11.00" fill="#000000">direction</text>
<polygon fill="none" stroke="#000000" points="473,-125.2 473,-147.2 567,-147.2 567,-125.2 473,-125.2"/>
<text text-anchor="start" x="476" y="-132.9" font-family="Helvetica,sans-Serif" font-size="11.00" fill="#000000">varchar[3]</text>
<polygon fill="none" stroke="#000000" points="213,-103.2 213,-125.2 473,-125.2 473,-103.2 213,-103.2"/>
<text text-anchor="start" x="233" y="-110.3" font-family="Helvetica,sans-Serif" font-size="11.00" fill="#000000">occurred_at</text>
<polygon fill="none" stroke="#000000" points="473,-103.2 473,-125.2 567,-125.2 567,-103.2 473,-103.2"/>
<text text-anchor="start" x="476" y="-110.9" font-family="Helvetica,sans-Serif" font-size="11.00" fill="#000000">timestamp[29,6]</text>
<polygon fill="none" stroke="#000000" points="213,-81.2 213,-103.2 473,-103.2 473,-81.2 213,-81.2"/>
<text text-anchor="start" x="233" y="-88.3" font-family="Helvetica,sans-Serif" font-size="11.00" fill="#000000">comments</text>
<polygon fill="none" stroke="#000000" points="473,-81.2 473,-103.2 567,-103.2 567,-81.2 473,-81.2"/>
<text text-anchor="start" x="476" y="-88.9" font-family="Helvetica,sans-Serif" font-size="11.00" fill="#000000">text[2147483647]</text>
<polygon fill="none" stroke="#000000" points="213,-59.2 213,-81.2 473,-81.2 473,-59.2 213,-59.2"/>
<text text-anchor="start" x="233" y="-66.3" font-family="Helvetica,sans-Serif" font-size="11.00" fill="#000000">legacy_id</text>
<polygon fill="none" stroke="#000000" points="473,-59.2 473,-81.2 567,-81.2 567,-59.2 473,-59.2"/>
<text text-anchor="start" x="476" y="-66.9" font-family="Helvetica,sans-Serif" font-size="11.00" fill="#000000">varchar[32]</text>
<polygon fill="#ffffff" stroke="transparent" points="213,-40.2 213,-59.2 347,-59.2 347,-40.2 213,-40.2"/>
<polygon fill="none" stroke="#000000" points="213,-40.2 213,-59.2 347,-59.2 347,-40.2 213,-40.2"/>
<text text-anchor="start" x="216" y="-46.3" font-family="Helvetica,sans-Serif" font-size="11.00" fill="#000000">&lt; 2</text>
<polygon fill="#ffffff" stroke="transparent" points="347,-40.2 347,-59.2 473,-59.2 473,-40.2 347,-40.2"/>
<polygon fill="none" stroke="#000000" points="347,-40.2 347,-59.2 473,-59.2 473,-40.2 347,-40.2"/>
<text text-anchor="start" x="463.8862" y="-46.3" font-family="Helvetica,sans-Serif" font-size="11.00" fill="#000000"> &#160;</text>
<polygon fill="#ffffff" stroke="transparent" points="473,-40.2 473,-59.2 567,-59.2 567,-40.2 473,-40.2"/>
<polygon fill="none" stroke="#000000" points="473,-40.2 473,-59.2 567,-59.2 567,-40.2 473,-40.2"/>
<text text-anchor="start" x="548.4053" y="-46.3" font-family="Helvetica,sans-Serif" font-size="11.00" fill="#000000">0 &gt;</text>
<polygon fill="none" stroke="#000000" stroke-width="2" points="212,-39.2 212,-369.2 568,-369.2 568,-39.2 212,-39.2"/>
</a>
</g>
</g>
<!-- person_summary -->
<g id="node2" class="node">
<title>person_summary</title>
<g id="a_node2"><a xlink:href="../../tables/person_summary.html" xlink:title="person_summary" target="_top">
<polygon fill="#ffffff" stroke="transparent" points="8,-175.7 8,-258.7 162,-258.7 162,-175.7 8,-175.7"/>
<polygon fill="#f5f5f5" stroke="transparent" points="8,-235.2 8,-258.2 162,-258.2 162,-235.2 8,-235.2"/>
<polygon fill="none" stroke="#000000" points="8,-235.2 8,-258.2 162,-258.2 162,-235.2 8,-235.2"/>
<text text-anchor="start" x="13" y="-243.8" font-family="Helvetica,sans-Serif" font-weight="bold" font-size="11.00" fill="#000000">person_summary</text>
<text text-anchor="start" x="127.5219" y="-243.3" font-family="Helvetica,sans-Serif" font-size="11.00" fill="#000000">[table]</text>
<polygon fill="none" stroke="#000000" points="8,-213.2 8,-235.2 162,-235.2 162,-213.2 8,-213.2"/>
<image xlink:href="../../images/primaryKeys.png" width="11px" height="12px" preserveAspectRatio="xMinYMin meet" x="13" y="-230.2"/>
<text text-anchor="start" x="37" y="-220.3" font-family="Helvetica,sans-Serif" font-size="11.00" fill="#000000">person_identifier</text>
<polygon fill="none" stroke="#000000" points="8,-194.2 8,-213.2 162,-213.2 162,-194.2 8,-194.2"/>
<text text-anchor="start" x="11" y="-200.3" font-family="Helvetica,sans-Serif" font-size="11.00" fill="#000000">...</text>
<polygon fill="#ffffff" stroke="transparent" points="8,-175.2 8,-194.2 74,-194.2 74,-175.2 8,-175.2"/>
<polygon fill="none" stroke="#000000" points="8,-175.2 8,-194.2 74,-194.2 74,-175.2 8,-175.2"/>
<text text-anchor="start" x="11" y="-181.3" font-family="Helvetica,sans-Serif" font-size="11.00" fill="#000000"> &#160;</text>
<polygon fill="#ffffff" stroke="transparent" points="74,-175.2 74,-194.2 113,-194.2 113,-175.2 74,-175.2"/>
<polygon fill="none" stroke="#000000" points="74,-175.2 74,-194.2 113,-194.2 113,-175.2 74,-175.2"/>
<text text-anchor="start" x="103.8862" y="-181.3" font-family="Helvetica,sans-Serif" font-size="11.00" fill="#000000"> &#160;</text>
<polygon fill="#ffffff" stroke="transparent" points="113,-175.2 113,-194.2 162,-194.2 162,-175.2 113,-175.2"/>
<polygon fill="none" stroke="#000000" points="113,-175.2 113,-194.2 162,-194.2 162,-175.2 113,-175.2"/>
<text text-anchor="start" x="143.4053" y="-181.3" font-family="Helvetica,sans-Serif" font-size="11.00" fill="#000000">4 &gt;</text>
</a>
</g>
</g>
<!-- court_appearance_movement_audit&#45;&gt;person_summary -->
<g id="edge1" class="edge">
<title>court_appearance_movement_audit:w&#45;&gt;person_summary:e</title>
<path fill="none" stroke="#000000" stroke-dasharray="5,2" d="M198.276,-224.2C186.2815,-224.2 178.8229,-224.2 162,-224.2"/>
<polygon fill="#000000" stroke="#000000" points="205,-224.2001 213,-227.8 209,-224.2 213,-224.2 213,-224.2 213,-224.2 209,-224.2 213,-220.6 205,-224.2001 205,-224.2001"/>
<ellipse fill="none" stroke="#000000" cx="201.8" cy="-224.2001" rx="3.2" ry="3.2"/>
</g>
<!-- audit_revision -->
<g id="node3" class="node">
<title>audit_revision</title>
<g id="a_node3"><a xlink:href="../../tables/audit_revision.html" xlink:title="audit_revision" target="_top">
<polygon fill="#ffffff" stroke="transparent" points="18,-285.7 18,-368.7 152,-368.7 152,-285.7 18,-285.7"/>
<polygon fill="#f5f5f5" stroke="transparent" points="18,-345.2 18,-368.2 152,-368.2 152,-345.2 18,-345.2"/>
<polygon fill="none" stroke="#000000" points="18,-345.2 18,-368.2 152,-368.2 152,-345.2 18,-345.2"/>
<text text-anchor="start" x="23" y="-353.8" font-family="Helvetica,sans-Serif" font-weight="bold" font-size="11.00" fill="#000000">audit_revision</text>
<text text-anchor="start" x="117.5219" y="-353.3" font-family="Helvetica,sans-Serif" font-size="11.00" fill="#000000">[table]</text>
<polygon fill="none" stroke="#000000" points="18,-323.2 18,-345.2 152,-345.2 152,-323.2 18,-323.2"/>
<image xlink:href="../../images/primaryKeys.png" width="11px" height="12px" preserveAspectRatio="xMinYMin meet" x="23" y="-340.2"/>
<text text-anchor="start" x="38" y="-330.3" font-family="Helvetica,sans-Serif" font-size="11.00" fill="#000000">id</text>
<polygon fill="none" stroke="#000000" points="18,-304.2 18,-323.2 152,-323.2 152,-304.2 18,-304.2"/>
<text text-anchor="start" x="21" y="-310.3" font-family="Helvetica,sans-Serif" font-size="11.00" fill="#000000">...</text>
<polygon fill="#ffffff" stroke="transparent" points="18,-285.2 18,-304.2 74,-304.2 74,-285.2 18,-285.2"/>
<polygon fill="none" stroke="#000000" points="18,-285.2 18,-304.2 74,-304.2 74,-285.2 18,-285.2"/>
<text text-anchor="start" x="21" y="-291.3" font-family="Helvetica,sans-Serif" font-size="11.00" fill="#000000"> &#160;</text>
<polygon fill="#ffffff" stroke="transparent" points="74,-285.2 74,-304.2 108,-304.2 108,-285.2 74,-285.2"/>
<polygon fill="none" stroke="#000000" points="74,-285.2 74,-304.2 108,-304.2 108,-285.2 74,-285.2"/>
<text text-anchor="start" x="98.8862" y="-291.3" font-family="Helvetica,sans-Serif" font-size="11.00" fill="#000000"> &#160;</text>
<polygon fill="#ffffff" stroke="transparent" points="108,-285.2 108,-304.2 152,-304.2 152,-285.2 108,-285.2"/>
<polygon fill="none" stroke="#000000" points="108,-285.2 108,-304.2 152,-304.2 152,-285.2 108,-285.2"/>
<text text-anchor="start" x="133.4053" y="-291.3" font-family="Helvetica,sans-Serif" font-size="11.00" fill="#000000">2 &gt;</text>
</a>
</g>
</g>
<!-- court_appearance_movement_audit&#45;&gt;audit_revision -->
<g id="edge2" class="edge">
<title>court_appearance_movement_audit:w&#45;&gt;audit_revision:e</title>
<path fill="none" stroke="#000000" d="M198.1762,-334.2C182.1248,-334.2 173.3924,-334.2 152,-334.2"/>
<polygon fill="#000000" stroke="#000000" points="205,-334.2001 213,-337.8 209,-334.2 213,-334.2 213,-334.2 213,-334.2 209,-334.2 213,-330.6 205,-334.2001 205,-334.2001"/>
<ellipse fill="none" stroke="#000000" cx="201.8" cy="-334.2001" rx="3.2" ry="3.2"/>
</g>
</g>
</svg>
