<?xml version="1.0" encoding="UTF-8" standalone="no"?>
<!DOCTYPE svg PUBLIC "-//W3C//DTD SVG 1.1//EN"
 "http://www.w3.org/Graphics/SVG/1.1/DTD/svg11.dtd">
<!-- Generated by graphviz version 2.40.1 (20161225.0304)
 -->
<!-- Title: twoDegreesRelationshipsDiagram Pages: 1 -->
<svg width="806pt" height="354pt"
 viewBox="0.00 0.00 806.00 353.70" xmlns="http://www.w3.org/2000/svg" xmlns:xlink="http://www.w3.org/1999/xlink">
<g id="graph0" class="graph" transform="scale(1 1) rotate(0) translate(4 349.7)">
<title>twoDegreesRelationshipsDiagram</title>
<polygon fill="#ffffff" stroke="transparent" points="-4,4 -4,-349.7 802,-349.7 802,4 -4,4"/>
<text text-anchor="middle" x="72.4936" y="-7.3" font-family="Helvetica,sans-Serif" font-size="11.00" fill="#000000">Generated by SchemaSpy</text>
<!-- court_appearance -->
<g id="node1" class="node">
<title>court_appearance</title>
<g id="a_node1"><a xlink:href="../../tables/court_appearance.html" xlink:title="court_appearance" target="_top">
<polygon fill="#ffffff" stroke="transparent" points="345,-43.7 345,-258.7 504,-258.7 504,-43.7 345,-43.7"/>
<polygon fill="#f5f5f5" stroke="transparent" points="345.5,-235.2 345.5,-258.2 504.5,-258.2 504.5,-235.2 345.5,-235.2"/>
<polygon fill="none" stroke="#000000" points="345.5,-235.2 345.5,-258.2 504.5,-258.2 504.5,-235.2 345.5,-235.2"/>
<text text-anchor="start" x="350.5" y="-243.8" font-family="Helvetica,sans-Serif" font-weight="bold" font-size="11.00" fill="#000000">court_appearance</text>
<text text-anchor="start" x="470.0219" y="-243.3" font-family="Helvetica,sans-Serif" font-size="11.00" fill="#000000">[table]</text>
<polygon fill="none" stroke="#000000" points="345.5,-213.2 345.5,-235.2 504.5,-235.2 504.5,-213.2 345.5,-213.2"/>
<image xlink:href="../../images/primaryKeys.png" width="11px" height="12px" preserveAspectRatio="xMinYMin meet" x="350.5" y="-230.2"/>
<text text-anchor="start" x="374.5" y="-220.3" font-family="Helvetica,sans-Serif" font-size="11.00" fill="#000000">id</text>
<polygon fill="#ffffff" stroke="transparent" points="345.5,-191.2 345.5,-213.2 504.5,-213.2 504.5,-191.2 345.5,-191.2"/>
<polygon fill="none" stroke="#000000" points="345.5,-191.2 345.5,-213.2 504.5,-213.2 504.5,-191.2 345.5,-191.2"/>
<image xlink:href="../../images/foreignKeys.png" width="11px" height="12px" preserveAspectRatio="xMinYMin meet" x="350.5" y="-208.2"/>
<text text-anchor="start" x="374.5" y="-198.3" font-family="Helvetica,sans-Serif" font-size="11.00" fill="#000000">person_identifier</text>
<polygon fill="#ffffff" stroke="transparent" points="345.5,-169.2 345.5,-191.2 504.5,-191.2 504.5,-169.2 345.5,-169.2"/>
<polygon fill="none" stroke="#000000" points="345.5,-169.2 345.5,-191.2 504.5,-191.2 504.5,-169.2 345.5,-169.2"/>
<text text-anchor="start" x="374.5" y="-176.3" font-family="Helvetica,sans-Serif" font-size="11.00" fill="#000000">prison_code</text>
<polygon fill="#ffffff" stroke="transparent" points="345.5,-147.2 345.5,-169.2 504.5,-169.2 504.5,-147.2 345.5,-147.2"/>
<polygon fill="none" stroke="#000000" points="345.5,-147.2 345.5,-169.2 504.5,-169.2 504.5,-147.2 345.5,-147.2"/>
<image xlink:href="../../images/foreignKeys.png" width="11px" height="12px" preserveAspectRatio="xMinYMin meet" x="350.5" y="-164.2"/>
<text text-anchor="start" x="374.5" y="-154.3" font-family="Helvetica,sans-Serif" font-size="11.00" fill="#000000">reason_id</text>
<polygon fill="#ffffff" stroke="transparent" points="345.5,-125.2 345.5,-147.2 504.5,-147.2 504.5,-125.2 345.5,-125.2"/>
<polygon fill="none" stroke="#000000" points="345.5,-125.2 345.5,-147.2 504.5,-147.2 504.5,-125.2 345.5,-125.2"/>
<image xlink:href="../../images/foreignKeys.png" width="11px" height="12px" preserveAspectRatio="xMinYMin meet" x="350.5" y="-142.2"/>
<text text-anchor="start" x="374.5" y="-132.3" font-family="Helvetica,sans-Serif" font-size="11.00" fill="#000000">status_id</text>
<polygon fill="#ffffff" stroke="transparent" points="345.5,-103.2 345.5,-125.2 504.5,-125.2 504.5,-103.2 345.5,-103.2"/>
<polygon fill="none" stroke="#000000" points="345.5,-103.2 345.5,-125.2 504.5,-125.2 504.5,-103.2 345.5,-103.2"/>
<text text-anchor="start" x="374.5" y="-110.3" font-family="Helvetica,sans-Serif" font-size="11.00" fill="#000000">start</text>
<polygon fill="#ffffff" stroke="transparent" points="345.5,-81.2 345.5,-103.2 504.5,-103.2 504.5,-81.2 345.5,-81.2"/>
<polygon fill="none" stroke="#000000" points="345.5,-81.2 345.5,-103.2 504.5,-103.2 504.5,-81.2 345.5,-81.2"/>
<image xlink:href="../../images/foreignKeys.png" width="11px" height="12px" preserveAspectRatio="xMinYMin meet" x="350.5" y="-98.2"/>
<text text-anchor="start" x="374.5" y="-88.3" font-family="Helvetica,sans-Serif" font-size="11.00" fill="#000000">legacy_id</text>
<polygon fill="none" stroke="#000000" points="345.5,-62.2 345.5,-81.2 504.5,-81.2 504.5,-62.2 345.5,-62.2"/>
<text text-anchor="start" x="348.5" y="-68.3" font-family="Helvetica,sans-Serif" font-size="11.00" fill="#000000">...</text>
<polygon fill="#ffffff" stroke="transparent" points="345.5,-43.2 345.5,-62.2 418.5,-62.2 418.5,-43.2 345.5,-43.2"/>
<polygon fill="none" stroke="#000000" points="345.5,-43.2 345.5,-62.2 418.5,-62.2 418.5,-43.2 345.5,-43.2"/>
<text text-anchor="start" x="348.5" y="-49.3" font-family="Helvetica,sans-Serif" font-size="11.00" fill="#000000">&lt; 3</text>
<polygon fill="#ffffff" stroke="transparent" points="418.5,-43.2 418.5,-62.2 456.5,-62.2 456.5,-43.2 418.5,-43.2"/>
<polygon fill="none" stroke="#000000" points="418.5,-43.2 418.5,-62.2 456.5,-62.2 456.5,-43.2 418.5,-43.2"/>
<text text-anchor="start" x="447.3862" y="-49.3" font-family="Helvetica,sans-Serif" font-size="11.00" fill="#000000"> &#160;</text>
<polygon fill="#ffffff" stroke="transparent" points="456.5,-43.2 456.5,-62.2 504.5,-62.2 504.5,-43.2 456.5,-43.2"/>
<polygon fill="none" stroke="#000000" points="456.5,-43.2 456.5,-62.2 504.5,-62.2 504.5,-43.2 456.5,-43.2"/>
<text text-anchor="start" x="485.9053" y="-49.3" font-family="Helvetica,sans-Serif" font-size="11.00" fill="#000000">1 &gt;</text>
</a>
</g>
</g>
<!-- person_summary -->
<g id="node2" class="node">
<title>person_summary</title>
<g id="a_node2"><a xlink:href="../../tables/person_summary.html" xlink:title="person_summary" target="_top">
<polygon fill="#ffffff" stroke="transparent" points="75,-280.7 75,-341.7 229,-341.7 229,-280.7 75,-280.7"/>
<polygon fill="#f5f5f5" stroke="transparent" points="75,-318.2 75,-341.2 229,-341.2 229,-318.2 75,-318.2"/>
<polygon fill="none" stroke="#000000" points="75,-318.2 75,-341.2 229,-341.2 229,-318.2 75,-318.2"/>
<text text-anchor="start" x="80" y="-326.8" font-family="Helvetica,sans-Serif" font-weight="bold" font-size="11.00" fill="#000000">person_summary</text>
<text text-anchor="start" x="194.5219" y="-326.3" font-family="Helvetica,sans-Serif" font-size="11.00" fill="#000000">[table]</text>
<polygon fill="none" stroke="#000000" points="75,-299.2 75,-318.2 229,-318.2 229,-299.2 75,-299.2"/>
<text text-anchor="start" x="78" y="-305.3" font-family="Helvetica,sans-Serif" font-size="11.00" fill="#000000">...</text>
<polygon fill="#ffffff" stroke="transparent" points="75,-280.2 75,-299.2 141,-299.2 141,-280.2 75,-280.2"/>
<polygon fill="none" stroke="#000000" points="75,-280.2 75,-299.2 141,-299.2 141,-280.2 75,-280.2"/>
<text text-anchor="start" x="78" y="-286.3" font-family="Helvetica,sans-Serif" font-size="11.00" fill="#000000"> &#160;</text>
<polygon fill="#ffffff" stroke="transparent" points="141,-280.2 141,-299.2 180,-299.2 180,-280.2 141,-280.2"/>
<polygon fill="none" stroke="#000000" points="141,-280.2 141,-299.2 180,-299.2 180,-280.2 141,-280.2"/>
<text text-anchor="start" x="170.8862" y="-286.3" font-family="Helvetica,sans-Serif" font-size="11.00" fill="#000000"> &#160;</text>
<polygon fill="#ffffff" stroke="transparent" points="180,-280.2 180,-299.2 229,-299.2 229,-280.2 180,-280.2"/>
<polygon fill="none" stroke="#000000" points="180,-280.2 180,-299.2 229,-299.2 229,-280.2 180,-280.2"/>
<text text-anchor="start" x="210.4053" y="-286.3" font-family="Helvetica,sans-Serif" font-size="11.00" fill="#000000">2 &gt;</text>
</a>
</g>
</g>
<!-- court_appearance&#45;&gt;person_summary -->
<g id="edge1" class="edge">
<title>court_appearance:w&#45;&gt;person_summary:e</title>
<path fill="none" stroke="#000000" d="M331.4077,-205.951C316.0854,-216.827 324.803,-248.8309 304,-268.2 276.3511,-293.943 266.7778,-308.2 229,-308.2"/>
<polygon fill="#000000" stroke="#000000" points="337.7692,-204.2578 346.426,-205.6789 341.6346,-203.2289 345.5,-202.2 345.5,-202.2 345.5,-202.2 341.6346,-203.2289 344.574,-198.7211 337.7692,-204.2578 337.7692,-204.2578"/>
<ellipse fill="none" stroke="#000000" cx="334.6768" cy="-205.0809" rx="3.2" ry="3.2"/>
</g>
<!-- court_appearance_reason -->
<g id="node3" class="node">
<title>court_appearance_reason</title>
<g id="a_node3"><a xlink:href="../../tables/court_appearance_reason.html" xlink:title="court_appearance_reason" target="_top">
<polygon fill="#ffffff" stroke="transparent" points="46.5,-196.7 46.5,-257.7 257.5,-257.7 257.5,-196.7 46.5,-196.7"/>
<polygon fill="#f5f5f5" stroke="transparent" points="47,-234.2 47,-257.2 258,-257.2 258,-234.2 47,-234.2"/>
<polygon fill="none" stroke="#000000" points="47,-234.2 47,-257.2 258,-257.2 258,-234.2 47,-234.2"/>
<text text-anchor="start" x="52" y="-242.8" font-family="Helvetica,sans-Serif" font-weight="bold" font-size="11.00" fill="#000000">court_appearance_reason</text>
<text text-anchor="start" x="223.5219" y="-242.3" font-family="Helvetica,sans-Serif" font-size="11.00" fill="#000000">[table]</text>
<polygon fill="none" stroke="#000000" points="47,-215.2 47,-234.2 258,-234.2 258,-215.2 47,-215.2"/>
<text text-anchor="start" x="50" y="-221.3" font-family="Helvetica,sans-Serif" font-size="11.00" fill="#000000">...</text>
<polygon fill="#ffffff" stroke="transparent" points="47,-196.2 47,-215.2 142,-215.2 142,-196.2 47,-196.2"/>
<polygon fill="none" stroke="#000000" points="47,-196.2 47,-215.2 142,-215.2 142,-196.2 47,-196.2"/>
<text text-anchor="start" x="50" y="-202.3" font-family="Helvetica,sans-Serif" font-size="11.00" fill="#000000"> &#160;</text>
<polygon fill="#ffffff" stroke="transparent" points="142,-196.2 142,-215.2 195,-215.2 195,-196.2 142,-196.2"/>
<polygon fill="none" stroke="#000000" points="142,-196.2 142,-215.2 195,-215.2 195,-196.2 142,-196.2"/>
<text text-anchor="start" x="185.8862" y="-202.3" font-family="Helvetica,sans-Serif" font-size="11.00" fill="#000000"> &#160;</text>
<polygon fill="#ffffff" stroke="transparent" points="195,-196.2 195,-215.2 258,-215.2 258,-196.2 195,-196.2"/>
<polygon fill="none" stroke="#000000" points="195,-196.2 195,-215.2 258,-215.2 258,-196.2 195,-196.2"/>
<text text-anchor="start" x="239.4053" y="-202.3" font-family="Helvetica,sans-Serif" font-size="11.00" fill="#000000">2 &gt;</text>
</a>
</g>
</g>
<!-- court_appearance&#45;&gt;court_appearance_reason -->
<g id="edge2" class="edge">
<title>court_appearance:w&#45;&gt;court_appearance_reason:e</title>
<path fill="none" stroke="#000000" d="M331.0326,-160.549C298.2844,-172.3062 301.1932,-224.2 258,-224.2"/>
<polygon fill="#000000" stroke="#000000" points="337.6034,-159.4822 346.077,-161.7535 341.5517,-158.8411 345.5,-158.2 345.5,-158.2 345.5,-158.2 341.5517,-158.8411 344.923,-154.6465 337.6034,-159.4822 337.6034,-159.4822"/>
<ellipse fill="none" stroke="#000000" cx="334.4448" cy="-159.995" rx="3.2" ry="3.2"/>
</g>
<!-- court_appearance_status -->
<g id="node4" class="node">
<title>court_appearance_status</title>
<g id="a_node4"><a xlink:href="../../tables/court_appearance_status.html" xlink:title="court_appearance_status" target="_top">
<polygon fill="#ffffff" stroke="transparent" points="8,-38.2 8,-172.2 296,-172.2 296,-38.2 8,-38.2"/>
<polygon fill="#f5f5f5" stroke="transparent" points="10,-147.2 10,-170.2 294,-170.2 294,-147.2 10,-147.2"/>
<polygon fill="none" stroke="#000000" points="10,-147.2 10,-170.2 294,-170.2 294,-147.2 10,-147.2"/>
<text text-anchor="start" x="15" y="-155.8" font-family="Helvetica,sans-Serif" font-weight="bold" font-size="11.00" fill="#000000">court_appearance_status</text>
<text text-anchor="start" x="259.0437" y="-155.3" font-family="Helvetica,sans-Serif" font-size="11.00" fill="#000000">[table]</text>
<polygon fill="none" stroke="#000000" points="10,-125.2 10,-147.2 200,-147.2 200,-125.2 10,-125.2"/>
<image xlink:href="../../images/primaryKeys.png" width="11px" height="12px" preserveAspectRatio="xMinYMin meet" x="15" y="-142.2"/>
<text text-anchor="start" x="30" y="-132.3" font-family="Helvetica,sans-Serif" font-size="11.00" fill="#000000">id</text>
<polygon fill="none" stroke="#000000" points="200,-125.2 200,-147.2 294,-147.2 294,-125.2 200,-125.2"/>
<text text-anchor="start" x="202.9758" y="-132.9" font-family="Helvetica,sans-Serif" font-size="11.00" fill="#000000">uuid[2147483647]</text>
<polygon fill="#ffffff" stroke="transparent" points="10,-103.2 10,-125.2 200,-125.2 200,-103.2 10,-103.2"/>
<polygon fill="none" stroke="#000000" points="10,-103.2 10,-125.2 200,-125.2 200,-103.2 10,-103.2"/>
<text text-anchor="start" x="30" y="-110.3" font-family="Helvetica,sans-Serif" font-size="11.00" fill="#000000">code</text>
<polygon fill="none" stroke="#000000" points="200,-103.2 200,-125.2 294,-125.2 294,-103.2 200,-103.2"/>
<text text-anchor="start" x="203" y="-110.9" font-family="Helvetica,sans-Serif" font-size="11.00" fill="#000000">varchar[16]</text>
<polygon fill="none" stroke="#000000" points="10,-81.2 10,-103.2 200,-103.2 200,-81.2 10,-81.2"/>
<text text-anchor="start" x="30" y="-88.3" font-family="Helvetica,sans-Serif" font-size="11.00" fill="#000000">description</text>
<polygon fill="none" stroke="#000000" points="200,-81.2 200,-103.2 294,-103.2 294,-81.2 200,-81.2"/>
<text text-anchor="start" x="203" y="-88.9" font-family="Helvetica,sans-Serif" font-size="11.00" fill="#000000">varchar[255]</text>
<polygon fill="#ffffff" stroke="transparent" points="10,-59.2 10,-81.2 200,-81.2 200,-59.2 10,-59.2"/>
<polygon fill="none" stroke="#000000" points="10,-59.2 10,-81.2 200,-81.2 200,-59.2 10,-59.2"/>
<text text-anchor="start" x="30" y="-66.3" font-family="Helvetica,sans-Serif" font-size="11.00" fill="#000000">sequence_number</text>
<polygon fill="none" stroke="#000000" points="200,-59.2 200,-81.2 294,-81.2 294,-59.2 200,-59.2"/>
<text text-anchor="start" x="203" y="-66.9" font-family="Helvetica,sans-Serif" font-size="11.00" fill="#000000">int4[10]</text>
<polygon fill="#ffffff" stroke="transparent" points="10,-40.2 10,-59.2 109,-59.2 109,-40.2 10,-40.2"/>
<polygon fill="none" stroke="#000000" points="10,-40.2 10,-59.2 109,-59.2 109,-40.2 10,-40.2"/>
<text text-anchor="start" x="13" y="-46.3" font-family="Helvetica,sans-Serif" font-size="11.00" fill="#000000">&lt; 0</text>
<polygon fill="#ffffff" stroke="transparent" points="109,-40.2 109,-59.2 200,-59.2 200,-40.2 109,-40.2"/>
<polygon fill="none" stroke="#000000" points="109,-40.2 109,-59.2 200,-59.2 200,-40.2 109,-40.2"/>
<text text-anchor="start" x="190.8862" y="-46.3" font-family="Helvetica,sans-Serif" font-size="11.00" fill="#000000"> &#160;</text>
<polygon fill="#ffffff" stroke="transparent" points="200,-40.2 200,-59.2 294,-59.2 294,-40.2 200,-40.2"/>
<polygon fill="none" stroke="#000000" points="200,-40.2 200,-59.2 294,-59.2 294,-40.2 200,-40.2"/>
<text text-anchor="start" x="275.4053" y="-46.3" font-family="Helvetica,sans-Serif" font-size="11.00" fill="#000000">1 &gt;</text>
<polygon fill="none" stroke="#000000" stroke-width="2" points="9,-39.2 9,-171.2 295,-171.2 295,-39.2 9,-39.2"/>
</a>
</g>
</g>
<!-- court_appearance&#45;&gt;court_appearance_status -->
<g id="edge3" class="edge">
<title>court_appearance:w&#45;&gt;court_appearance_status:e</title>
<path fill="none" stroke="#000000" d="M331.0156,-136.2C318.6771,-136.2 311.1667,-136.2 294,-136.2"/>
<polygon fill="#000000" stroke="#000000" points="337.5,-136.2001 345.5,-139.8 341.5,-136.2 345.5,-136.2 345.5,-136.2 345.5,-136.2 341.5,-136.2 345.5,-132.6 337.5,-136.2001 337.5,-136.2001"/>
<ellipse fill="none" stroke="#000000" cx="334.3" cy="-136.2001" rx="3.2" ry="3.2"/>
</g>
<!-- court_appearance_movement -->
<g id="node5" class="node">
<title>court_appearance_movement</title>
<g id="a_node5"><a xlink:href="../../tables/court_appearance_movement.html" xlink:title="court_appearance_movement" target="_top">
<polygon fill="#ffffff" stroke="transparent" points="553,-255.7 553,-316.7 790,-316.7 790,-255.7 553,-255.7"/>
<polygon fill="#f5f5f5" stroke="transparent" points="553.5,-293.2 553.5,-316.2 790.5,-316.2 790.5,-293.2 553.5,-293.2"/>
<polygon fill="none" stroke="#000000" points="553.5,-293.2 553.5,-316.2 790.5,-316.2 790.5,-293.2 553.5,-293.2"/>
<text text-anchor="start" x="558.5" y="-301.8" font-family="Helvetica,sans-Serif" font-weight="bold" font-size="11.00" fill="#000000">court_appearance_movement</text>
<text text-anchor="start" x="756.0219" y="-301.3" font-family="Helvetica,sans-Serif" font-size="11.00" fill="#000000">[table]</text>
<polygon fill="none" stroke="#000000" points="553.5,-274.2 553.5,-293.2 790.5,-293.2 790.5,-274.2 553.5,-274.2"/>
<text text-anchor="start" x="556.5" y="-280.3" font-family="Helvetica,sans-Serif" font-size="11.00" fill="#000000">...</text>
<polygon fill="#ffffff" stroke="transparent" points="553.5,-255.2 553.5,-274.2 670.5,-274.2 670.5,-255.2 553.5,-255.2"/>
<polygon fill="none" stroke="#000000" points="553.5,-255.2 553.5,-274.2 670.5,-274.2 670.5,-255.2 553.5,-255.2"/>
<text text-anchor="start" x="556.5" y="-261.3" font-family="Helvetica,sans-Serif" font-size="11.00" fill="#000000">&lt; 3</text>
<polygon fill="#ffffff" stroke="transparent" points="670.5,-255.2 670.5,-274.2 730.5,-274.2 730.5,-255.2 670.5,-255.2"/>
<polygon fill="none" stroke="#000000" points="670.5,-255.2 670.5,-274.2 730.5,-274.2 730.5,-255.2 670.5,-255.2"/>
<text text-anchor="start" x="721.3862" y="-261.3" font-family="Helvetica,sans-Serif" font-size="11.00" fill="#000000"> &#160;</text>
<polygon fill="#ffffff" stroke="transparent" points="730.5,-255.2 730.5,-274.2 790.5,-274.2 790.5,-255.2 730.5,-255.2"/>
<polygon fill="none" stroke="#000000" points="730.5,-255.2 730.5,-274.2 790.5,-274.2 790.5,-255.2 730.5,-255.2"/>
<text text-anchor="start" x="781.3862" y="-261.3" font-family="Helvetica,sans-Serif" font-size="11.00" fill="#000000"> &#160;</text>
</a>
</g>
</g>
<!-- court_appearance_movement&#45;&gt;court_appearance -->
<g id="edge4" class="edge">
<title>court_appearance_movement:w&#45;&gt;court_appearance:e</title>
<path fill="none" stroke="#000000" d="M539.6662,-278.1697C524.5842,-263.9018 532.4614,-224.2 504.5,-224.2"/>
<polygon fill="#000000" stroke="#000000" points="545.9816,-280.4661 552.2697,-286.5833 549.7408,-281.8331 553.5,-283.2 553.5,-283.2 553.5,-283.2 549.7408,-281.8331 554.7303,-279.8167 545.9816,-280.4661 545.9816,-280.4661"/>
<ellipse fill="none" stroke="#000000" cx="542.9743" cy="-279.3725" rx="3.2" ry="3.2"/>
</g>
<!-- court_appearance_movement&#45;&gt;person_summary -->
<g id="edge5" class="edge">
<title>court_appearance_movement:w&#45;&gt;person_summary:e</title>
<path fill="none" stroke="#000000" d="M538.9593,-285.0484C530.5819,-287.389 524.7605,-291.3405 512,-293.2 387.3621,-311.3627 354.9543,-308.2 229,-308.2"/>
<polygon fill="#000000" stroke="#000000" points="545.5639,-284.2089 553.954,-286.7713 549.5319,-283.7044 553.5,-283.2 553.5,-283.2 553.5,-283.2 549.5319,-283.7044 553.046,-279.6287 545.5639,-284.2089 545.5639,-284.2089"/>
<ellipse fill="none" stroke="#000000" cx="542.3894" cy="-284.6124" rx="3.2" ry="3.2"/>
</g>
<!-- court_appearance_movement&#45;&gt;court_appearance_reason -->
<g id="edge6" class="edge">
<title>court_appearance_movement:w&#45;&gt;court_appearance_reason:e</title>
<path fill="none" stroke="#000000" d="M539.0618,-283.3023C454.0349,-284.5054 424.5838,-295.4486 337,-269.2 298.2931,-257.5997 298.4078,-224.2 258,-224.2"/>
<polygon fill="#000000" stroke="#000000" points="545.5002,-283.2567 553.5255,-286.7999 549.5001,-283.2284 553.5,-283.2 553.5,-283.2 553.5,-283.2 549.5001,-283.2284 553.4745,-279.6001 545.5002,-283.2567 545.5002,-283.2567"/>
<ellipse fill="none" stroke="#000000" cx="542.3003" cy="-283.2794" rx="3.2" ry="3.2"/>
</g>
</g>
</svg>
