<?xml version="1.0" encoding="UTF-8" standalone="no"?>
<!DOCTYPE svg PUBLIC "-//W3C//DTD SVG 1.1//EN"
 "http://www.w3.org/Graphics/SVG/1.1/DTD/svg11.dtd">
<!-- Generated by graphviz version 2.40.1 (20161225.0304)
 -->
<!-- Title: oneDegreeRelationshipsDiagramImplied Pages: 1 -->
<svg width="752pt" height="363pt"
 viewBox="0.00 0.00 752.00 362.70" xmlns="http://www.w3.org/2000/svg" xmlns:xlink="http://www.w3.org/1999/xlink">
<g id="graph0" class="graph" transform="scale(1 1) rotate(0) translate(4 358.7)">
<title>oneDegreeRelationshipsDiagramImplied</title>
<polygon fill="#ffffff" stroke="transparent" points="-4,4 -4,-358.7 748,-358.7 748,4 -4,4"/>
<text text-anchor="middle" x="72.4936" y="-7.3" font-family="Helvetica,sans-Serif" font-size="11.00" fill="#000000">Generated by SchemaSpy</text>
<!-- court_appearance -->
<g id="node1" class="node">
<title>court_appearance</title>
<g id="a_node1"><a xlink:href="../../tables/court_appearance.html" xlink:title="court_appearance" target="_top">
<polygon fill="#ffffff" stroke="transparent" points="211,-135.7 211,-350.7 370,-350.7 370,-135.7 211,-135.7"/>
<polygon fill="#f5f5f5" stroke="transparent" points="211.5,-327.2 211.5,-350.2 370.5,-350.2 370.5,-327.2 211.5,-327.2"/>
<polygon fill="none" stroke="#000000" points="211.5,-327.2 211.5,-350.2 370.5,-350.2 370.5,-327.2 211.5,-327.2"/>
<text text-anchor="start" x="216.5" y="-335.8" font-family="Helvetica,sans-Serif" font-weight="bold" font-size="11.00" fill="#000000">court_appearance</text>
<text text-anchor="start" x="336.0219" y="-335.3" font-family="Helvetica,sans-Serif" font-size="11.00" fill="#000000">[table]</text>
<polygon fill="none" stroke="#000000" points="211.5,-305.2 211.5,-327.2 370.5,-327.2 370.5,-305.2 211.5,-305.2"/>
<image xlink:href="../../images/primaryKeys.png" width="11px" height="12px" preserveAspectRatio="xMinYMin meet" x="216.5" y="-322.2"/>
<text text-anchor="start" x="240.5" y="-312.3" font-family="Helvetica,sans-Serif" font-size="11.00" fill="#000000">id</text>
<polygon fill="#ffffff" stroke="transparent" points="211.5,-283.2 211.5,-305.2 370.5,-305.2 370.5,-283.2 211.5,-283.2"/>
<polygon fill="none" stroke="#000000" points="211.5,-283.2 211.5,-305.2 370.5,-305.2 370.5,-283.2 211.5,-283.2"/>
<image xlink:href="../../images/foreignKeys.png" width="11px" height="12px" preserveAspectRatio="xMinYMin meet" x="216.5" y="-300.2"/>
<text text-anchor="start" x="240.5" y="-290.3" font-family="Helvetica,sans-Serif" font-size="11.00" fill="#000000">person_identifier</text>
<polygon fill="#ffffff" stroke="transparent" points="211.5,-261.2 211.5,-283.2 370.5,-283.2 370.5,-261.2 211.5,-261.2"/>
<polygon fill="none" stroke="#000000" points="211.5,-261.2 211.5,-283.2 370.5,-283.2 370.5,-261.2 211.5,-261.2"/>
<text text-anchor="start" x="240.5" y="-268.3" font-family="Helvetica,sans-Serif" font-size="11.00" fill="#000000">prison_code</text>
<polygon fill="#ffffff" stroke="transparent" points="211.5,-239.2 211.5,-261.2 370.5,-261.2 370.5,-239.2 211.5,-239.2"/>
<polygon fill="none" stroke="#000000" points="211.5,-239.2 211.5,-261.2 370.5,-261.2 370.5,-239.2 211.5,-239.2"/>
<image xlink:href="../../images/foreignKeys.png" width="11px" height="12px" preserveAspectRatio="xMinYMin meet" x="216.5" y="-256.2"/>
<text text-anchor="start" x="240.5" y="-246.3" font-family="Helvetica,sans-Serif" font-size="11.00" fill="#000000">reason_id</text>
<polygon fill="#ffffff" stroke="transparent" points="211.5,-217.2 211.5,-239.2 370.5,-239.2 370.5,-217.2 211.5,-217.2"/>
<polygon fill="none" stroke="#000000" points="211.5,-217.2 211.5,-239.2 370.5,-239.2 370.5,-217.2 211.5,-217.2"/>
<image xlink:href="../../images/foreignKeys.png" width="11px" height="12px" preserveAspectRatio="xMinYMin meet" x="216.5" y="-234.2"/>
<text text-anchor="start" x="240.5" y="-224.3" font-family="Helvetica,sans-Serif" font-size="11.00" fill="#000000">status_id</text>
<polygon fill="#ffffff" stroke="transparent" points="211.5,-195.2 211.5,-217.2 370.5,-217.2 370.5,-195.2 211.5,-195.2"/>
<polygon fill="none" stroke="#000000" points="211.5,-195.2 211.5,-217.2 370.5,-217.2 370.5,-195.2 211.5,-195.2"/>
<text text-anchor="start" x="240.5" y="-202.3" font-family="Helvetica,sans-Serif" font-size="11.00" fill="#000000">start</text>
<polygon fill="#ffffff" stroke="transparent" points="211.5,-173.2 211.5,-195.2 370.5,-195.2 370.5,-173.2 211.5,-173.2"/>
<polygon fill="none" stroke="#000000" points="211.5,-173.2 211.5,-195.2 370.5,-195.2 370.5,-173.2 211.5,-173.2"/>
<image xlink:href="../../images/foreignKeys.png" width="11px" height="12px" preserveAspectRatio="xMinYMin meet" x="216.5" y="-190.2"/>
<text text-anchor="start" x="240.5" y="-180.3" font-family="Helvetica,sans-Serif" font-size="11.00" fill="#000000">legacy_id</text>
<polygon fill="none" stroke="#000000" points="211.5,-154.2 211.5,-173.2 370.5,-173.2 370.5,-154.2 211.5,-154.2"/>
<text text-anchor="start" x="214.5" y="-160.3" font-family="Helvetica,sans-Serif" font-size="11.00" fill="#000000">...</text>
<polygon fill="#ffffff" stroke="transparent" points="211.5,-135.2 211.5,-154.2 284.5,-154.2 284.5,-135.2 211.5,-135.2"/>
<polygon fill="none" stroke="#000000" points="211.5,-135.2 211.5,-154.2 284.5,-154.2 284.5,-135.2 211.5,-135.2"/>
<text text-anchor="start" x="214.5" y="-141.3" font-family="Helvetica,sans-Serif" font-size="11.00" fill="#000000">&lt; 3</text>
<polygon fill="#ffffff" stroke="transparent" points="284.5,-135.2 284.5,-154.2 322.5,-154.2 322.5,-135.2 284.5,-135.2"/>
<polygon fill="none" stroke="#000000" points="284.5,-135.2 284.5,-154.2 322.5,-154.2 322.5,-135.2 284.5,-135.2"/>
<text text-anchor="start" x="313.3862" y="-141.3" font-family="Helvetica,sans-Serif" font-size="11.00" fill="#000000"> &#160;</text>
<polygon fill="#ffffff" stroke="transparent" points="322.5,-135.2 322.5,-154.2 370.5,-154.2 370.5,-135.2 322.5,-135.2"/>
<polygon fill="none" stroke="#000000" points="322.5,-135.2 322.5,-154.2 370.5,-154.2 370.5,-135.2 322.5,-135.2"/>
<text text-anchor="start" x="351.9053" y="-141.3" font-family="Helvetica,sans-Serif" font-size="11.00" fill="#000000">1 &gt;</text>
</a>
</g>
</g>
<!-- person_summary -->
<g id="node2" class="node">
<title>person_summary</title>
<g id="a_node2"><a xlink:href="../../tables/person_summary.html" xlink:title="person_summary" target="_top">
<polygon fill="#ffffff" stroke="transparent" points="8,-153.7 8,-236.7 162,-236.7 162,-153.7 8,-153.7"/>
<polygon fill="#f5f5f5" stroke="transparent" points="8,-213.2 8,-236.2 162,-236.2 162,-213.2 8,-213.2"/>
<polygon fill="none" stroke="#000000" points="8,-213.2 8,-236.2 162,-236.2 162,-213.2 8,-213.2"/>
<text text-anchor="start" x="13" y="-221.8" font-family="Helvetica,sans-Serif" font-weight="bold" font-size="11.00" fill="#000000">person_summary</text>
<text text-anchor="start" x="127.5219" y="-221.3" font-family="Helvetica,sans-Serif" font-size="11.00" fill="#000000">[table]</text>
<polygon fill="none" stroke="#000000" points="8,-191.2 8,-213.2 162,-213.2 162,-191.2 8,-191.2"/>
<image xlink:href="../../images/primaryKeys.png" width="11px" height="12px" preserveAspectRatio="xMinYMin meet" x="13" y="-208.2"/>
<text text-anchor="start" x="37" y="-198.3" font-family="Helvetica,sans-Serif" font-size="11.00" fill="#000000">person_identifier</text>
<polygon fill="none" stroke="#000000" points="8,-172.2 8,-191.2 162,-191.2 162,-172.2 8,-172.2"/>
<text text-anchor="start" x="11" y="-178.3" font-family="Helvetica,sans-Serif" font-size="11.00" fill="#000000">...</text>
<polygon fill="#ffffff" stroke="transparent" points="8,-153.2 8,-172.2 74,-172.2 74,-153.2 8,-153.2"/>
<polygon fill="none" stroke="#000000" points="8,-153.2 8,-172.2 74,-172.2 74,-153.2 8,-153.2"/>
<text text-anchor="start" x="11" y="-159.3" font-family="Helvetica,sans-Serif" font-size="11.00" fill="#000000"> &#160;</text>
<polygon fill="#ffffff" stroke="transparent" points="74,-153.2 74,-172.2 113,-172.2 113,-153.2 74,-153.2"/>
<polygon fill="none" stroke="#000000" points="74,-153.2 74,-172.2 113,-172.2 113,-153.2 74,-153.2"/>
<text text-anchor="start" x="103.8862" y="-159.3" font-family="Helvetica,sans-Serif" font-size="11.00" fill="#000000"> &#160;</text>
<polygon fill="#ffffff" stroke="transparent" points="113,-153.2 113,-172.2 162,-172.2 162,-153.2 113,-153.2"/>
<polygon fill="none" stroke="#000000" points="113,-153.2 113,-172.2 162,-172.2 162,-153.2 113,-153.2"/>
<text text-anchor="start" x="143.4053" y="-159.3" font-family="Helvetica,sans-Serif" font-size="11.00" fill="#000000">2 &gt;</text>
</a>
</g>
</g>
<!-- court_appearance&#45;&gt;person_summary -->
<g id="edge1" class="edge">
<title>court_appearance:w&#45;&gt;person_summary:e</title>
<path fill="none" stroke="#000000" d="M197.6356,-290.0079C174.7558,-272.01 202.4463,-202.2 162,-202.2"/>
<polygon fill="#000000" stroke="#000000" points="203.8424,-291.8846 210.4581,-297.6459 207.6712,-293.0423 211.5,-294.2 211.5,-294.2 211.5,-294.2 207.6712,-293.0423 212.5419,-290.7541 203.8424,-291.8846 203.8424,-291.8846"/>
<ellipse fill="none" stroke="#000000" cx="200.7793" cy="-290.9584" rx="3.2" ry="3.2"/>
</g>
<!-- court_appearance_movement -->
<g id="node3" class="node">
<title>court_appearance_movement</title>
<g id="a_node3"><a xlink:href="../../tables/court_appearance_movement.html" xlink:title="court_appearance_movement" target="_top">
<polygon fill="#ffffff" stroke="transparent" points="419,-38.2 419,-304.2 736,-304.2 736,-38.2 419,-38.2"/>
<polygon fill="#f5f5f5" stroke="transparent" points="421.5,-279.2 421.5,-302.2 734.5,-302.2 734.5,-279.2 421.5,-279.2"/>
<polygon fill="none" stroke="#000000" points="421.5,-279.2 421.5,-302.2 734.5,-302.2 734.5,-279.2 421.5,-279.2"/>
<text text-anchor="start" x="426.5" y="-287.8" font-family="Helvetica,sans-Serif" font-weight="bold" font-size="11.00" fill="#000000">court_appearance_movement</text>
<text text-anchor="start" x="699.5437" y="-287.3" font-family="Helvetica,sans-Serif" font-size="11.00" fill="#000000">[table]</text>
<polygon fill="none" stroke="#000000" points="421.5,-257.2 421.5,-279.2 640.5,-279.2 640.5,-257.2 421.5,-257.2"/>
<image xlink:href="../../images/primaryKeys.png" width="11px" height="12px" preserveAspectRatio="xMinYMin meet" x="426.5" y="-274.2"/>
<text text-anchor="start" x="441.5" y="-264.3" font-family="Helvetica,sans-Serif" font-size="11.00" fill="#000000">id</text>
<polygon fill="none" stroke="#000000" points="640.5,-257.2 640.5,-279.2 734.5,-279.2 734.5,-257.2 640.5,-257.2"/>
<text text-anchor="start" x="643.4758" y="-264.9" font-family="Helvetica,sans-Serif" font-size="11.00" fill="#000000">uuid[2147483647]</text>
<polygon fill="none" stroke="#000000" points="421.5,-235.2 421.5,-257.2 640.5,-257.2 640.5,-235.2 421.5,-235.2"/>
<text text-anchor="start" x="441.5" y="-242.3" font-family="Helvetica,sans-Serif" font-size="11.00" fill="#000000">version</text>
<polygon fill="none" stroke="#000000" points="640.5,-235.2 640.5,-257.2 734.5,-257.2 734.5,-235.2 640.5,-235.2"/>
<text text-anchor="start" x="643.5" y="-242.9" font-family="Helvetica,sans-Serif" font-size="11.00" fill="#000000">int4[10]</text>
<polygon fill="none" stroke="#000000" points="421.5,-213.2 421.5,-235.2 640.5,-235.2 640.5,-213.2 421.5,-213.2"/>
<image xlink:href="../../images/foreignKeys.png" width="11px" height="12px" preserveAspectRatio="xMinYMin meet" x="426.5" y="-230.2"/>
<text text-anchor="start" x="441.5" y="-220.3" font-family="Helvetica,sans-Serif" font-size="11.00" fill="#000000">court_appearance_id</text>
<polygon fill="none" stroke="#000000" points="640.5,-213.2 640.5,-235.2 734.5,-235.2 734.5,-213.2 640.5,-213.2"/>
<text text-anchor="start" x="643.4758" y="-220.9" font-family="Helvetica,sans-Serif" font-size="11.00" fill="#000000">uuid[2147483647]</text>
<polygon fill="#ffffff" stroke="transparent" points="421.5,-191.2 421.5,-213.2 640.5,-213.2 640.5,-191.2 421.5,-191.2"/>
<polygon fill="none" stroke="#000000" points="421.5,-191.2 421.5,-213.2 640.5,-213.2 640.5,-191.2 421.5,-191.2"/>
<image xlink:href="../../images/foreignKeys.png" width="11px" height="12px" preserveAspectRatio="xMinYMin meet" x="426.5" y="-208.2"/>
<text text-anchor="start" x="441.5" y="-198.3" font-family="Helvetica,sans-Serif" font-size="11.00" fill="#000000">person_identifier</text>
<polygon fill="none" stroke="#000000" points="640.5,-191.2 640.5,-213.2 734.5,-213.2 734.5,-191.2 640.5,-191.2"/>
<text text-anchor="start" x="643.5" y="-198.9" font-family="Helvetica,sans-Serif" font-size="11.00" fill="#000000">varchar[10]</text>
<polygon fill="none" stroke="#000000" points="421.5,-169.2 421.5,-191.2 640.5,-191.2 640.5,-169.2 421.5,-169.2"/>
<text text-anchor="start" x="441.5" y="-176.3" font-family="Helvetica,sans-Serif" font-size="11.00" fill="#000000">prison_code</text>
<polygon fill="none" stroke="#000000" points="640.5,-169.2 640.5,-191.2 734.5,-191.2 734.5,-169.2 640.5,-169.2"/>
<text text-anchor="start" x="643.5" y="-176.9" font-family="Helvetica,sans-Serif" font-size="11.00" fill="#000000">varchar[6]</text>
<polygon fill="none" stroke="#000000" points="421.5,-147.2 421.5,-169.2 640.5,-169.2 640.5,-147.2 421.5,-147.2"/>
<text text-anchor="start" x="441.5" y="-154.3" font-family="Helvetica,sans-Serif" font-size="11.00" fill="#000000">court_code</text>
<polygon fill="none" stroke="#000000" points="640.5,-147.2 640.5,-169.2 734.5,-169.2 734.5,-147.2 640.5,-147.2"/>
<text text-anchor="start" x="643.5" y="-154.9" font-family="Helvetica,sans-Serif" font-size="11.00" fill="#000000">varchar[6]</text>
<polygon fill="none" stroke="#000000" points="421.5,-125.2 421.5,-147.2 640.5,-147.2 640.5,-125.2 421.5,-125.2"/>
<text text-anchor="start" x="441.5" y="-132.3" font-family="Helvetica,sans-Serif" font-size="11.00" fill="#000000">direction</text>
<polygon fill="none" stroke="#000000" points="640.5,-125.2 640.5,-147.2 734.5,-147.2 734.5,-125.2 640.5,-125.2"/>
<text text-anchor="start" x="643.5" y="-132.9" font-family="Helvetica,sans-Serif" font-size="11.00" fill="#000000">varchar[3]</text>
<polygon fill="none" stroke="#000000" points="421.5,-103.2 421.5,-125.2 640.5,-125.2 640.5,-103.2 421.5,-103.2"/>
<text text-anchor="start" x="441.5" y="-110.3" font-family="Helvetica,sans-Serif" font-size="11.00" fill="#000000">occurred_at</text>
<polygon fill="none" stroke="#000000" points="640.5,-103.2 640.5,-125.2 734.5,-125.2 734.5,-103.2 640.5,-103.2"/>
<text text-anchor="start" x="643.5" y="-110.9" font-family="Helvetica,sans-Serif" font-size="11.00" fill="#000000">timestamp[29,6]</text>
<polygon fill="none" stroke="#000000" points="421.5,-81.2 421.5,-103.2 640.5,-103.2 640.5,-81.2 421.5,-81.2"/>
<text text-anchor="start" x="441.5" y="-88.3" font-family="Helvetica,sans-Serif" font-size="11.00" fill="#000000">comments</text>
<polygon fill="none" stroke="#000000" points="640.5,-81.2 640.5,-103.2 734.5,-103.2 734.5,-81.2 640.5,-81.2"/>
<text text-anchor="start" x="643.5" y="-88.9" font-family="Helvetica,sans-Serif" font-size="11.00" fill="#000000">text[2147483647]</text>
<polygon fill="#ffffff" stroke="transparent" points="421.5,-59.2 421.5,-81.2 640.5,-81.2 640.5,-59.2 421.5,-59.2"/>
<polygon fill="none" stroke="#000000" points="421.5,-59.2 421.5,-81.2 640.5,-81.2 640.5,-59.2 421.5,-59.2"/>
<text text-anchor="start" x="441.5" y="-66.3" font-family="Helvetica,sans-Serif" font-size="11.00" fill="#000000">legacy_id</text>
<polygon fill="none" stroke="#000000" points="640.5,-59.2 640.5,-81.2 734.5,-81.2 734.5,-59.2 640.5,-59.2"/>
<text text-anchor="start" x="643.5" y="-66.9" font-family="Helvetica,sans-Serif" font-size="11.00" fill="#000000">varchar[32]</text>
<polygon fill="#ffffff" stroke="transparent" points="421.5,-40.2 421.5,-59.2 535.5,-59.2 535.5,-40.2 421.5,-40.2"/>
<polygon fill="none" stroke="#000000" points="421.5,-40.2 421.5,-59.2 535.5,-59.2 535.5,-40.2 421.5,-40.2"/>
<text text-anchor="start" x="424.5" y="-46.3" font-family="Helvetica,sans-Serif" font-size="11.00" fill="#000000">&lt; 2</text>
<polygon fill="#ffffff" stroke="transparent" points="535.5,-40.2 535.5,-59.2 640.5,-59.2 640.5,-40.2 535.5,-40.2"/>
<polygon fill="none" stroke="#000000" points="535.5,-40.2 535.5,-59.2 640.5,-59.2 640.5,-40.2 535.5,-40.2"/>
<text text-anchor="start" x="631.3862" y="-46.3" font-family="Helvetica,sans-Serif" font-size="11.00" fill="#000000"> &#160;</text>
<polygon fill="#ffffff" stroke="transparent" points="640.5,-40.2 640.5,-59.2 734.5,-59.2 734.5,-40.2 640.5,-40.2"/>
<polygon fill="none" stroke="#000000" points="640.5,-40.2 640.5,-59.2 734.5,-59.2 734.5,-40.2 640.5,-40.2"/>
<text text-anchor="start" x="715.9053" y="-46.3" font-family="Helvetica,sans-Serif" font-size="11.00" fill="#000000">0 &gt;</text>
<polygon fill="none" stroke="#000000" stroke-width="2" points="420,-39.2 420,-303.2 735,-303.2 735,-39.2 420,-39.2"/>
</a>
</g>
</g>
<!-- court_appearance_movement&#45;&gt;court_appearance -->
<g id="edge2" class="edge">
<title>court_appearance_movement:w&#45;&gt;court_appearance:e</title>
<path fill="none" stroke="#000000" d="M407.4874,-228.3921C384.2233,-246.39 411.2247,-316.2 370.5,-316.2"/>
<polygon fill="#000000" stroke="#000000" points="413.8356,-226.493 422.5318,-227.649 417.6678,-225.3465 421.5,-224.2 421.5,-224.2 421.5,-224.2 417.6678,-225.3465 420.4682,-220.751 413.8356,-226.493 413.8356,-226.493"/>
<ellipse fill="none" stroke="#000000" cx="410.7699" cy="-227.4102" rx="3.2" ry="3.2"/>
</g>
<!-- court_appearance_movement&#45;&gt;person_summary -->
<g id="edge3" class="edge">
<title>court_appearance_movement:w&#45;&gt;person_summary:e</title>
<path fill="none" stroke="#000000" d="M407.1444,-197.9997C390.2424,-184.4412 406.3779,-141.7616 378,-125.2 310.8252,-85.9963 269.6804,-85.1612 203,-125.2 169.7607,-145.1589 200.7713,-202.2 162,-202.2"/>
<polygon fill="#000000" stroke="#000000" points="413.8219,-199.9534 420.489,-205.6551 417.661,-201.0767 421.5,-202.2 421.5,-202.2 421.5,-202.2 417.661,-201.0767 422.511,-198.7449 413.8219,-199.9534 413.8219,-199.9534"/>
<ellipse fill="none" stroke="#000000" cx="410.7507" cy="-199.0548" rx="3.2" ry="3.2"/>
</g>
</g>
</svg>
