<?xml version="1.0" encoding="UTF-8" standalone="no"?>
<!DOCTYPE svg PUBLIC "-//W3C//DTD SVG 1.1//EN"
 "http://www.w3.org/Graphics/SVG/1.1/DTD/svg11.dtd">
<!-- Generated by graphviz version 2.40.1 (20161225.0304)
 -->
<!-- Title: twoDegreesRelationshipsDiagram Pages: 1 -->
<svg width="565pt" height="465pt"
 viewBox="0.00 0.00 565.00 464.70" xmlns="http://www.w3.org/2000/svg" xmlns:xlink="http://www.w3.org/1999/xlink">
<g id="graph0" class="graph" transform="scale(1 1) rotate(0) translate(4 460.7)">
<title>twoDegreesRelationshipsDiagram</title>
<polygon fill="#ffffff" stroke="transparent" points="-4,4 -4,-460.7 561,-460.7 561,4 -4,4"/>
<text text-anchor="middle" x="72.4936" y="-7.3" font-family="Helvetica,sans-Serif" font-size="11.00" fill="#000000">Generated by SchemaSpy</text>
<!-- court_appearance_audit -->
<g id="node1" class="node">
<title>court_appearance_audit</title>
<g id="a_node1"><a xlink:href="../../tables/court_appearance_audit.html" xlink:title="court_appearance_audit" target="_top">
<polygon fill="#ffffff" stroke="transparent" points="270,-391.7 270,-452.7 470,-452.7 470,-391.7 270,-391.7"/>
<polygon fill="#f5f5f5" stroke="transparent" points="270,-429.2 270,-452.2 470,-452.2 470,-429.2 270,-429.2"/>
<polygon fill="none" stroke="#000000" points="270,-429.2 270,-452.2 470,-452.2 470,-429.2 270,-429.2"/>
<text text-anchor="start" x="275" y="-437.8" font-family="Helvetica,sans-Serif" font-weight="bold" font-size="11.00" fill="#000000">court_appearance_audit</text>
<text text-anchor="start" x="435.5219" y="-437.3" font-family="Helvetica,sans-Serif" font-size="11.00" fill="#000000">[table]</text>
<polygon fill="none" stroke="#000000" points="270,-410.2 270,-429.2 470,-429.2 470,-410.2 270,-410.2"/>
<text text-anchor="start" x="273" y="-416.3" font-family="Helvetica,sans-Serif" font-size="11.00" fill="#000000">...</text>
<polygon fill="#ffffff" stroke="transparent" points="270,-391.2 270,-410.2 368,-410.2 368,-391.2 270,-391.2"/>
<polygon fill="none" stroke="#000000" points="270,-391.2 270,-410.2 368,-410.2 368,-391.2 270,-391.2"/>
<text text-anchor="start" x="273" y="-397.3" font-family="Helvetica,sans-Serif" font-size="11.00" fill="#000000">&lt; 1</text>
<polygon fill="#ffffff" stroke="transparent" points="368,-391.2 368,-410.2 419,-410.2 419,-391.2 368,-391.2"/>
<polygon fill="none" stroke="#000000" points="368,-391.2 368,-410.2 419,-410.2 419,-391.2 368,-391.2"/>
<text text-anchor="start" x="409.8862" y="-397.3" font-family="Helvetica,sans-Serif" font-size="11.00" fill="#000000"> &#160;</text>
<polygon fill="#ffffff" stroke="transparent" points="419,-391.2 419,-410.2 470,-410.2 470,-391.2 419,-391.2"/>
<polygon fill="none" stroke="#000000" points="419,-391.2 419,-410.2 470,-410.2 470,-391.2 419,-391.2"/>
<text text-anchor="start" x="460.8862" y="-397.3" font-family="Helvetica,sans-Serif" font-size="11.00" fill="#000000"> &#160;</text>
</a>
</g>
</g>
<!-- audit_revision -->
<g id="node2" class="node">
<title>audit_revision</title>
<g id="a_node2"><a xlink:href="../../tables/audit_revision.html" xlink:title="audit_revision" target="_top">
<polygon fill="#ffffff" stroke="transparent" points="8,-327.7 8,-410.7 142,-410.7 142,-327.7 8,-327.7"/>
<polygon fill="#f5f5f5" stroke="transparent" points="8,-387.2 8,-410.2 142,-410.2 142,-387.2 8,-387.2"/>
<polygon fill="none" stroke="#000000" points="8,-387.2 8,-410.2 142,-410.2 142,-387.2 8,-387.2"/>
<text text-anchor="start" x="13" y="-395.8" font-family="Helvetica,sans-Serif" font-weight="bold" font-size="11.00" fill="#000000">audit_revision</text>
<text text-anchor="start" x="107.5219" y="-395.3" font-family="Helvetica,sans-Serif" font-size="11.00" fill="#000000">[table]</text>
<polygon fill="none" stroke="#000000" points="8,-365.2 8,-387.2 142,-387.2 142,-365.2 8,-365.2"/>
<image xlink:href="../../images/primaryKeys.png" width="11px" height="12px" preserveAspectRatio="xMinYMin meet" x="13" y="-382.2"/>
<text text-anchor="start" x="28" y="-372.3" font-family="Helvetica,sans-Serif" font-size="11.00" fill="#000000">id</text>
<polygon fill="none" stroke="#000000" points="8,-346.2 8,-365.2 142,-365.2 142,-346.2 8,-346.2"/>
<text text-anchor="start" x="11" y="-352.3" font-family="Helvetica,sans-Serif" font-size="11.00" fill="#000000">...</text>
<polygon fill="#ffffff" stroke="transparent" points="8,-327.2 8,-346.2 64,-346.2 64,-327.2 8,-327.2"/>
<polygon fill="none" stroke="#000000" points="8,-327.2 8,-346.2 64,-346.2 64,-327.2 8,-327.2"/>
<text text-anchor="start" x="11" y="-333.3" font-family="Helvetica,sans-Serif" font-size="11.00" fill="#000000"> &#160;</text>
<polygon fill="#ffffff" stroke="transparent" points="64,-327.2 64,-346.2 98,-346.2 98,-327.2 64,-327.2"/>
<polygon fill="none" stroke="#000000" points="64,-327.2 64,-346.2 98,-346.2 98,-327.2 64,-327.2"/>
<text text-anchor="start" x="88.8862" y="-333.3" font-family="Helvetica,sans-Serif" font-size="11.00" fill="#000000"> &#160;</text>
<polygon fill="#ffffff" stroke="transparent" points="98,-327.2 98,-346.2 142,-346.2 142,-327.2 98,-327.2"/>
<polygon fill="none" stroke="#000000" points="98,-327.2 98,-346.2 142,-346.2 142,-327.2 98,-327.2"/>
<text text-anchor="start" x="123.4053" y="-333.3" font-family="Helvetica,sans-Serif" font-size="11.00" fill="#000000">2 &gt;</text>
</a>
</g>
</g>
<!-- court_appearance_audit&#45;&gt;audit_revision -->
<g id="edge1" class="edge">
<title>court_appearance_audit:w&#45;&gt;audit_revision:e</title>
<path fill="none" stroke="#000000" d="M255.6148,-418.3019C208.232,-412.1269 196.8558,-376.2 142,-376.2"/>
<polygon fill="#000000" stroke="#000000" points="262.0155,-418.7015 269.7757,-422.793 266.0078,-418.9507 270,-419.2 270,-419.2 270,-419.2 266.0078,-418.9507 270.2243,-415.607 262.0155,-418.7015 262.0155,-418.7015"/>
<ellipse fill="none" stroke="#000000" cx="258.8218" cy="-418.502" rx="3.2" ry="3.2"/>
</g>
<!-- court_appearance_movement_audit -->
<g id="node3" class="node">
<title>court_appearance_movement_audit</title>
<g id="a_node3"><a xlink:href="../../tables/court_appearance_movement_audit.html" xlink:title="court_appearance_movement_audit" target="_top">
<polygon fill="#ffffff" stroke="transparent" points="191,-38.2 191,-370.2 549,-370.2 549,-38.2 191,-38.2"/>
<polygon fill="#f5f5f5" stroke="transparent" points="193,-345.2 193,-368.2 547,-368.2 547,-345.2 193,-345.2"/>
<polygon fill="none" stroke="#000000" points="193,-345.2 193,-368.2 547,-368.2 547,-345.2 193,-345.2"/>
<text text-anchor="start" x="198" y="-353.8" font-family="Helvetica,sans-Serif" font-weight="bold" font-size="11.00" fill="#000000">court_appearance_movement_audit</text>
<text text-anchor="start" x="512.0437" y="-353.3" font-family="Helvetica,sans-Serif" font-size="11.00" fill="#000000">[table]</text>
<polygon fill="none" stroke="#000000" points="193,-323.2 193,-345.2 453,-345.2 453,-323.2 193,-323.2"/>
<image xlink:href="../../images/primaryKeys.png" width="11px" height="12px" preserveAspectRatio="xMinYMin meet" x="198" y="-340.2"/>
<text text-anchor="start" x="213" y="-330.3" font-family="Helvetica,sans-Serif" font-size="11.00" fill="#000000">rev_id</text>
<polygon fill="none" stroke="#000000" points="453,-323.2 453,-345.2 547,-345.2 547,-323.2 453,-323.2"/>
<text text-anchor="start" x="456" y="-330.9" font-family="Helvetica,sans-Serif" font-size="11.00" fill="#000000">int8[19]</text>
<polygon fill="none" stroke="#000000" points="193,-301.2 193,-323.2 453,-323.2 453,-301.2 193,-301.2"/>
<text text-anchor="start" x="213" y="-308.3" font-family="Helvetica,sans-Serif" font-size="11.00" fill="#000000">rev_type</text>
<polygon fill="none" stroke="#000000" points="453,-301.2 453,-323.2 547,-323.2 547,-301.2 453,-301.2"/>
<text text-anchor="start" x="456" y="-308.9" font-family="Helvetica,sans-Serif" font-size="11.00" fill="#000000">int2[5]</text>
<polygon fill="none" stroke="#000000" points="193,-279.2 193,-301.2 453,-301.2 453,-279.2 193,-279.2"/>
<image xlink:href="../../images/primaryKeys.png" width="11px" height="12px" preserveAspectRatio="xMinYMin meet" x="198" y="-296.2"/>
<text text-anchor="start" x="213" y="-286.3" font-family="Helvetica,sans-Serif" font-size="11.00" fill="#000000">id</text>
<polygon fill="none" stroke="#000000" points="453,-279.2 453,-301.2 547,-301.2 547,-279.2 453,-279.2"/>
<text text-anchor="start" x="455.9758" y="-286.9" font-family="Helvetica,sans-Serif" font-size="11.00" fill="#000000">uuid[2147483647]</text>
<polygon fill="none" stroke="#000000" points="193,-257.2 193,-279.2 453,-279.2 453,-257.2 193,-257.2"/>
<text text-anchor="start" x="213" y="-264.3" font-family="Helvetica,sans-Serif" font-size="11.00" fill="#000000">version</text>
<polygon fill="none" stroke="#000000" points="453,-257.2 453,-279.2 547,-279.2 547,-257.2 453,-257.2"/>
<text text-anchor="start" x="456" y="-264.9" font-family="Helvetica,sans-Serif" font-size="11.00" fill="#000000">int4[10]</text>
<polygon fill="#ffffff" stroke="transparent" points="193,-235.2 193,-257.2 453,-257.2 453,-235.2 193,-235.2"/>
<polygon fill="none" stroke="#000000" points="193,-235.2 193,-257.2 453,-257.2 453,-235.2 193,-235.2"/>
<text text-anchor="start" x="213" y="-242.3" font-family="Helvetica,sans-Serif" font-size="11.00" fill="#000000">court_appearance_id</text>
<polygon fill="none" stroke="#000000" points="453,-235.2 453,-257.2 547,-257.2 547,-235.2 453,-235.2"/>
<text text-anchor="start" x="455.9758" y="-242.9" font-family="Helvetica,sans-Serif" font-size="11.00" fill="#000000">uuid[2147483647]</text>
<polygon fill="none" stroke="#000000" points="193,-213.2 193,-235.2 453,-235.2 453,-213.2 193,-213.2"/>
<image xlink:href="../../images/foreignKeys.png" width="11px" height="12px" preserveAspectRatio="xMinYMin meet" x="198" y="-230.2"/>
<text text-anchor="start" x="213" y="-220.3" font-family="Helvetica,sans-Serif" font-size="11.00" fill="#000000">person_identifier</text>
<polygon fill="none" stroke="#000000" points="453,-213.2 453,-235.2 547,-235.2 547,-213.2 453,-213.2"/>
<text text-anchor="start" x="456" y="-220.9" font-family="Helvetica,sans-Serif" font-size="11.00" fill="#000000">varchar[10]</text>
<polygon fill="none" stroke="#000000" points="193,-191.2 193,-213.2 453,-213.2 453,-191.2 193,-191.2"/>
<text text-anchor="start" x="213" y="-198.3" font-family="Helvetica,sans-Serif" font-size="11.00" fill="#000000">prison_code</text>
<polygon fill="none" stroke="#000000" points="453,-191.2 453,-213.2 547,-213.2 547,-191.2 453,-191.2"/>
<text text-anchor="start" x="456" y="-198.9" font-family="Helvetica,sans-Serif" font-size="11.00" fill="#000000">varchar[6]</text>
<polygon fill="none" stroke="#000000" points="193,-169.2 193,-191.2 453,-191.2 453,-169.2 193,-169.2"/>
<text text-anchor="start" x="213" y="-176.3" font-family="Helvetica,sans-Serif" font-size="11.00" fill="#000000">court_code</text>
<polygon fill="none" stroke="#000000" points="453,-169.2 453,-191.2 547,-191.2 547,-169.2 453,-169.2"/>
<text text-anchor="start" x="456" y="-176.9" font-family="Helvetica,sans-Serif" font-size="11.00" fill="#000000">varchar[6]</text>
<polygon fill="none" stroke="#000000" points="193,-147.2 193,-169.2 453,-169.2 453,-147.2 193,-147.2"/>
<text text-anchor="start" x="213" y="-154.3" font-family="Helvetica,sans-Serif" font-size="11.00" fill="#000000">reason_id</text>
<polygon fill="none" stroke="#000000" points="453,-147.2 453,-169.2 547,-169.2 547,-147.2 453,-147.2"/>
<text text-anchor="start" x="455.9758" y="-154.9" font-family="Helvetica,sans-Serif" font-size="11.00" fill="#000000">uuid[2147483647]</text>
<polygon fill="none" stroke="#000000" points="193,-125.2 193,-147.2 453,-147.2 453,-125.2 193,-125.2"/>
<text text-anchor="start" x="213" y="-132.3" font-family="Helvetica,sans-Serif" font-size="11.00" fill="#000000">direction</text>
<polygon fill="none" stroke="#000000" points="453,-125.2 453,-147.2 547,-147.2 547,-125.2 453,-125.2"/>
<text text-anchor="start" x="456" y="-132.9" font-family="Helvetica,sans-Serif" font-size="11.00" fill="#000000">varchar[3]</text>
<polygon fill="none" stroke="#000000" points="193,-103.2 193,-125.2 453,-125.2 453,-103.2 193,-103.2"/>
<text text-anchor="start" x="213" y="-110.3" font-family="Helvetica,sans-Serif" font-size="11.00" fill="#000000">occurred_at</text>
<polygon fill="none" stroke="#000000" points="453,-103.2 453,-125.2 547,-125.2 547,-103.2 453,-103.2"/>
<text text-anchor="start" x="456" y="-110.9" font-family="Helvetica,sans-Serif" font-size="11.00" fill="#000000">timestamp[29,6]</text>
<polygon fill="none" stroke="#000000" points="193,-81.2 193,-103.2 453,-103.2 453,-81.2 193,-81.2"/>
<text text-anchor="start" x="213" y="-88.3" font-family="Helvetica,sans-Serif" font-size="11.00" fill="#000000">comments</text>
<polygon fill="none" stroke="#000000" points="453,-81.2 453,-103.2 547,-103.2 547,-81.2 453,-81.2"/>
<text text-anchor="start" x="456" y="-88.9" font-family="Helvetica,sans-Serif" font-size="11.00" fill="#000000">text[2147483647]</text>
<polygon fill="none" stroke="#000000" points="193,-59.2 193,-81.2 453,-81.2 453,-59.2 193,-59.2"/>
<text text-anchor="start" x="213" y="-66.3" font-family="Helvetica,sans-Serif" font-size="11.00" fill="#000000">legacy_id</text>
<polygon fill="none" stroke="#000000" points="453,-59.2 453,-81.2 547,-81.2 547,-59.2 453,-59.2"/>
<text text-anchor="start" x="456" y="-66.9" font-family="Helvetica,sans-Serif" font-size="11.00" fill="#000000">varchar[32]</text>
<polygon fill="#ffffff" stroke="transparent" points="193,-40.2 193,-59.2 327,-59.2 327,-40.2 193,-40.2"/>
<polygon fill="none" stroke="#000000" points="193,-40.2 193,-59.2 327,-59.2 327,-40.2 193,-40.2"/>
<text text-anchor="start" x="196" y="-46.3" font-family="Helvetica,sans-Serif" font-size="11.00" fill="#000000">&lt; 1</text>
<polygon fill="#ffffff" stroke="transparent" points="327,-40.2 327,-59.2 453,-59.2 453,-40.2 327,-40.2"/>
<polygon fill="none" stroke="#000000" points="327,-40.2 327,-59.2 453,-59.2 453,-40.2 327,-40.2"/>
<text text-anchor="start" x="443.8862" y="-46.3" font-family="Helvetica,sans-Serif" font-size="11.00" fill="#000000"> &#160;</text>
<polygon fill="#ffffff" stroke="transparent" points="453,-40.2 453,-59.2 547,-59.2 547,-40.2 453,-40.2"/>
<polygon fill="none" stroke="#000000" points="453,-40.2 453,-59.2 547,-59.2 547,-40.2 453,-40.2"/>
<text text-anchor="start" x="528.4053" y="-46.3" font-family="Helvetica,sans-Serif" font-size="11.00" fill="#000000">0 &gt;</text>
<polygon fill="none" stroke="#000000" stroke-width="2" points="192,-39.2 192,-369.2 548,-369.2 548,-39.2 192,-39.2"/>
</a>
</g>
</g>
<!-- court_appearance_movement_audit&#45;&gt;audit_revision -->
<g id="edge2" class="edge">
<title>court_appearance_movement_audit:w&#45;&gt;audit_revision:e</title>
<path fill="none" stroke="#000000" d="M179.0759,-338.6947C165.2452,-349.5296 165.3991,-376.2 142,-376.2"/>
<polygon fill="#000000" stroke="#000000" points="185.3868,-336.6576 194.1059,-337.6259 189.1934,-335.4288 193,-334.2 193,-334.2 193,-334.2 189.1934,-335.4288 191.8941,-330.7741 185.3868,-336.6576 185.3868,-336.6576"/>
<ellipse fill="none" stroke="#000000" cx="182.3416" cy="-337.6406" rx="3.2" ry="3.2"/>
</g>
</g>
</svg>
