<?xml version="1.0" encoding="UTF-8" standalone="no"?>
<!DOCTYPE svg PUBLIC "-//W3C//DTD SVG 1.1//EN"
 "http://www.w3.org/Graphics/SVG/1.1/DTD/svg11.dtd">
<!-- Generated by graphviz version 2.40.1 (20161225.0304)
 -->
<!-- Title: twoDegreesRelationshipsDiagram Pages: 1 -->
<svg width="806pt" height="370pt"
 viewBox="0.00 0.00 806.00 369.70" xmlns="http://www.w3.org/2000/svg" xmlns:xlink="http://www.w3.org/1999/xlink">
<g id="graph0" class="graph" transform="scale(1 1) rotate(0) translate(4 365.7)">
<title>twoDegreesRelationshipsDiagram</title>
<polygon fill="#ffffff" stroke="transparent" points="-4,4 -4,-365.7 802,-365.7 802,4 -4,4"/>
<text text-anchor="middle" x="72.4936" y="-7.3" font-family="Helvetica,sans-Serif" font-size="11.00" fill="#000000">Generated by SchemaSpy</text>
<!-- court_appearance -->
<g id="node1" class="node">
<title>court_appearance</title>
<g id="a_node1"><a xlink:href="../../tables/court_appearance.html" xlink:title="court_appearance" target="_top">
<polygon fill="#ffffff" stroke="transparent" points="345,-95.7 345,-310.7 504,-310.7 504,-95.7 345,-95.7"/>
<polygon fill="#f5f5f5" stroke="transparent" points="345.5,-287.2 345.5,-310.2 504.5,-310.2 504.5,-287.2 345.5,-287.2"/>
<polygon fill="none" stroke="#000000" points="345.5,-287.2 345.5,-310.2 504.5,-310.2 504.5,-287.2 345.5,-287.2"/>
<text text-anchor="start" x="350.5" y="-295.8" font-family="Helvetica,sans-Serif" font-weight="bold" font-size="11.00" fill="#000000">court_appearance</text>
<text text-anchor="start" x="470.0219" y="-295.3" font-family="Helvetica,sans-Serif" font-size="11.00" fill="#000000">[table]</text>
<polygon fill="none" stroke="#000000" points="345.5,-265.2 345.5,-287.2 504.5,-287.2 504.5,-265.2 345.5,-265.2"/>
<image xlink:href="../../images/primaryKeys.png" width="11px" height="12px" preserveAspectRatio="xMinYMin meet" x="350.5" y="-282.2"/>
<text text-anchor="start" x="374.5" y="-272.3" font-family="Helvetica,sans-Serif" font-size="11.00" fill="#000000">id</text>
<polygon fill="#ffffff" stroke="transparent" points="345.5,-243.2 345.5,-265.2 504.5,-265.2 504.5,-243.2 345.5,-243.2"/>
<polygon fill="none" stroke="#000000" points="345.5,-243.2 345.5,-265.2 504.5,-265.2 504.5,-243.2 345.5,-243.2"/>
<image xlink:href="../../images/foreignKeys.png" width="11px" height="12px" preserveAspectRatio="xMinYMin meet" x="350.5" y="-260.2"/>
<text text-anchor="start" x="374.5" y="-250.3" font-family="Helvetica,sans-Serif" font-size="11.00" fill="#000000">person_identifier</text>
<polygon fill="#ffffff" stroke="transparent" points="345.5,-221.2 345.5,-243.2 504.5,-243.2 504.5,-221.2 345.5,-221.2"/>
<polygon fill="none" stroke="#000000" points="345.5,-221.2 345.5,-243.2 504.5,-243.2 504.5,-221.2 345.5,-221.2"/>
<text text-anchor="start" x="374.5" y="-228.3" font-family="Helvetica,sans-Serif" font-size="11.00" fill="#000000">prison_code</text>
<polygon fill="#ffffff" stroke="transparent" points="345.5,-199.2 345.5,-221.2 504.5,-221.2 504.5,-199.2 345.5,-199.2"/>
<polygon fill="none" stroke="#000000" points="345.5,-199.2 345.5,-221.2 504.5,-221.2 504.5,-199.2 345.5,-199.2"/>
<image xlink:href="../../images/foreignKeys.png" width="11px" height="12px" preserveAspectRatio="xMinYMin meet" x="350.5" y="-216.2"/>
<text text-anchor="start" x="374.5" y="-206.3" font-family="Helvetica,sans-Serif" font-size="11.00" fill="#000000">reason_id</text>
<polygon fill="#ffffff" stroke="transparent" points="345.5,-177.2 345.5,-199.2 504.5,-199.2 504.5,-177.2 345.5,-177.2"/>
<polygon fill="none" stroke="#000000" points="345.5,-177.2 345.5,-199.2 504.5,-199.2 504.5,-177.2 345.5,-177.2"/>
<image xlink:href="../../images/foreignKeys.png" width="11px" height="12px" preserveAspectRatio="xMinYMin meet" x="350.5" y="-194.2"/>
<text text-anchor="start" x="374.5" y="-184.3" font-family="Helvetica,sans-Serif" font-size="11.00" fill="#000000">status_id</text>
<polygon fill="#ffffff" stroke="transparent" points="345.5,-155.2 345.5,-177.2 504.5,-177.2 504.5,-155.2 345.5,-155.2"/>
<polygon fill="none" stroke="#000000" points="345.5,-155.2 345.5,-177.2 504.5,-177.2 504.5,-155.2 345.5,-155.2"/>
<text text-anchor="start" x="374.5" y="-162.3" font-family="Helvetica,sans-Serif" font-size="11.00" fill="#000000">start</text>
<polygon fill="#ffffff" stroke="transparent" points="345.5,-133.2 345.5,-155.2 504.5,-155.2 504.5,-133.2 345.5,-133.2"/>
<polygon fill="none" stroke="#000000" points="345.5,-133.2 345.5,-155.2 504.5,-155.2 504.5,-133.2 345.5,-133.2"/>
<image xlink:href="../../images/foreignKeys.png" width="11px" height="12px" preserveAspectRatio="xMinYMin meet" x="350.5" y="-150.2"/>
<text text-anchor="start" x="374.5" y="-140.3" font-family="Helvetica,sans-Serif" font-size="11.00" fill="#000000">legacy_id</text>
<polygon fill="none" stroke="#000000" points="345.5,-114.2 345.5,-133.2 504.5,-133.2 504.5,-114.2 345.5,-114.2"/>
<text text-anchor="start" x="348.5" y="-120.3" font-family="Helvetica,sans-Serif" font-size="11.00" fill="#000000">...</text>
<polygon fill="#ffffff" stroke="transparent" points="345.5,-95.2 345.5,-114.2 418.5,-114.2 418.5,-95.2 345.5,-95.2"/>
<polygon fill="none" stroke="#000000" points="345.5,-95.2 345.5,-114.2 418.5,-114.2 418.5,-95.2 345.5,-95.2"/>
<text text-anchor="start" x="348.5" y="-101.3" font-family="Helvetica,sans-Serif" font-size="11.00" fill="#000000">&lt; 3</text>
<polygon fill="#ffffff" stroke="transparent" points="418.5,-95.2 418.5,-114.2 456.5,-114.2 456.5,-95.2 418.5,-95.2"/>
<polygon fill="none" stroke="#000000" points="418.5,-95.2 418.5,-114.2 456.5,-114.2 456.5,-95.2 418.5,-95.2"/>
<text text-anchor="start" x="447.3862" y="-101.3" font-family="Helvetica,sans-Serif" font-size="11.00" fill="#000000"> &#160;</text>
<polygon fill="#ffffff" stroke="transparent" points="456.5,-95.2 456.5,-114.2 504.5,-114.2 504.5,-95.2 456.5,-95.2"/>
<polygon fill="none" stroke="#000000" points="456.5,-95.2 456.5,-114.2 504.5,-114.2 504.5,-95.2 456.5,-95.2"/>
<text text-anchor="start" x="485.9053" y="-101.3" font-family="Helvetica,sans-Serif" font-size="11.00" fill="#000000">1 &gt;</text>
</a>
</g>
</g>
<!-- person_summary -->
<g id="node2" class="node">
<title>person_summary</title>
<g id="a_node2"><a xlink:href="../../tables/person_summary.html" xlink:title="person_summary" target="_top">
<polygon fill="#ffffff" stroke="transparent" points="75,-296.7 75,-357.7 229,-357.7 229,-296.7 75,-296.7"/>
<polygon fill="#f5f5f5" stroke="transparent" points="75,-334.2 75,-357.2 229,-357.2 229,-334.2 75,-334.2"/>
<polygon fill="none" stroke="#000000" points="75,-334.2 75,-357.2 229,-357.2 229,-334.2 75,-334.2"/>
<text text-anchor="start" x="80" y="-342.8" font-family="Helvetica,sans-Serif" font-weight="bold" font-size="11.00" fill="#000000">person_summary</text>
<text text-anchor="start" x="194.5219" y="-342.3" font-family="Helvetica,sans-Serif" font-size="11.00" fill="#000000">[table]</text>
<polygon fill="none" stroke="#000000" points="75,-315.2 75,-334.2 229,-334.2 229,-315.2 75,-315.2"/>
<text text-anchor="start" x="78" y="-321.3" font-family="Helvetica,sans-Serif" font-size="11.00" fill="#000000">...</text>
<polygon fill="#ffffff" stroke="transparent" points="75,-296.2 75,-315.2 141,-315.2 141,-296.2 75,-296.2"/>
<polygon fill="none" stroke="#000000" points="75,-296.2 75,-315.2 141,-315.2 141,-296.2 75,-296.2"/>
<text text-anchor="start" x="78" y="-302.3" font-family="Helvetica,sans-Serif" font-size="11.00" fill="#000000"> &#160;</text>
<polygon fill="#ffffff" stroke="transparent" points="141,-296.2 141,-315.2 180,-315.2 180,-296.2 141,-296.2"/>
<polygon fill="none" stroke="#000000" points="141,-296.2 141,-315.2 180,-315.2 180,-296.2 141,-296.2"/>
<text text-anchor="start" x="170.8862" y="-302.3" font-family="Helvetica,sans-Serif" font-size="11.00" fill="#000000"> &#160;</text>
<polygon fill="#ffffff" stroke="transparent" points="180,-296.2 180,-315.2 229,-315.2 229,-296.2 180,-296.2"/>
<polygon fill="none" stroke="#000000" points="180,-296.2 180,-315.2 229,-315.2 229,-296.2 180,-296.2"/>
<text text-anchor="start" x="210.4053" y="-302.3" font-family="Helvetica,sans-Serif" font-size="11.00" fill="#000000">2 &gt;</text>
</a>
</g>
</g>
<!-- court_appearance&#45;&gt;person_summary -->
<g id="edge1" class="edge">
<title>court_appearance:w&#45;&gt;person_summary:e</title>
<path fill="none" stroke="#000000" d="M330.9846,-255.7271C285.3523,-265.964 284.0965,-324.2 229,-324.2"/>
<polygon fill="#000000" stroke="#000000" points="337.5439,-255.0371 345.8767,-257.7802 341.522,-254.6186 345.5,-254.2 345.5,-254.2 345.5,-254.2 341.522,-254.6186 345.1233,-250.6198 337.5439,-255.0371 337.5439,-255.0371"/>
<ellipse fill="none" stroke="#000000" cx="334.3615" cy="-255.3719" rx="3.2" ry="3.2"/>
</g>
<!-- court_appearance_reason -->
<g id="node3" class="node">
<title>court_appearance_reason</title>
<g id="a_node3"><a xlink:href="../../tables/court_appearance_reason.html" xlink:title="court_appearance_reason" target="_top">
<polygon fill="#ffffff" stroke="transparent" points="46.5,-193.7 46.5,-254.7 257.5,-254.7 257.5,-193.7 46.5,-193.7"/>
<polygon fill="#f5f5f5" stroke="transparent" points="47,-231.2 47,-254.2 258,-254.2 258,-231.2 47,-231.2"/>
<polygon fill="none" stroke="#000000" points="47,-231.2 47,-254.2 258,-254.2 258,-231.2 47,-231.2"/>
<text text-anchor="start" x="52" y="-239.8" font-family="Helvetica,sans-Serif" font-weight="bold" font-size="11.00" fill="#000000">court_appearance_reason</text>
<text text-anchor="start" x="223.5219" y="-239.3" font-family="Helvetica,sans-Serif" font-size="11.00" fill="#000000">[table]</text>
<polygon fill="none" stroke="#000000" points="47,-212.2 47,-231.2 258,-231.2 258,-212.2 47,-212.2"/>
<text text-anchor="start" x="50" y="-218.3" font-family="Helvetica,sans-Serif" font-size="11.00" fill="#000000">...</text>
<polygon fill="#ffffff" stroke="transparent" points="47,-193.2 47,-212.2 142,-212.2 142,-193.2 47,-193.2"/>
<polygon fill="none" stroke="#000000" points="47,-193.2 47,-212.2 142,-212.2 142,-193.2 47,-193.2"/>
<text text-anchor="start" x="50" y="-199.3" font-family="Helvetica,sans-Serif" font-size="11.00" fill="#000000"> &#160;</text>
<polygon fill="#ffffff" stroke="transparent" points="142,-193.2 142,-212.2 195,-212.2 195,-193.2 142,-193.2"/>
<polygon fill="none" stroke="#000000" points="142,-193.2 142,-212.2 195,-212.2 195,-193.2 142,-193.2"/>
<text text-anchor="start" x="185.8862" y="-199.3" font-family="Helvetica,sans-Serif" font-size="11.00" fill="#000000"> &#160;</text>
<polygon fill="#ffffff" stroke="transparent" points="195,-193.2 195,-212.2 258,-212.2 258,-193.2 195,-193.2"/>
<polygon fill="none" stroke="#000000" points="195,-193.2 195,-212.2 258,-212.2 258,-193.2 195,-193.2"/>
<text text-anchor="start" x="239.4053" y="-199.3" font-family="Helvetica,sans-Serif" font-size="11.00" fill="#000000">1 &gt;</text>
</a>
</g>
</g>
<!-- court_appearance&#45;&gt;court_appearance_reason -->
<g id="edge2" class="edge">
<title>court_appearance:w&#45;&gt;court_appearance_reason:e</title>
<path fill="none" stroke="#000000" d="M330.9572,-210.7606C303.2516,-213.0022 291.8363,-221.2 258,-221.2"/>
<polygon fill="#000000" stroke="#000000" points="337.5059,-210.5082 345.6387,-213.7973 341.503,-210.3541 345.5,-210.2 345.5,-210.2 345.5,-210.2 341.503,-210.3541 345.3613,-206.6027 337.5059,-210.5082 337.5059,-210.5082"/>
<ellipse fill="none" stroke="#000000" cx="334.3083" cy="-210.6315" rx="3.2" ry="3.2"/>
</g>
<!-- court_appearance_status -->
<g id="node4" class="node">
<title>court_appearance_status</title>
<g id="a_node4"><a xlink:href="../../tables/court_appearance_status.html" xlink:title="court_appearance_status" target="_top">
<polygon fill="#ffffff" stroke="transparent" points="8,-38.2 8,-172.2 296,-172.2 296,-38.2 8,-38.2"/>
<polygon fill="#f5f5f5" stroke="transparent" points="10,-147.2 10,-170.2 294,-170.2 294,-147.2 10,-147.2"/>
<polygon fill="none" stroke="#000000" points="10,-147.2 10,-170.2 294,-170.2 294,-147.2 10,-147.2"/>
<text text-anchor="start" x="15" y="-155.8" font-family="Helvetica,sans-Serif" font-weight="bold" font-size="11.00" fill="#000000">court_appearance_status</text>
<text text-anchor="start" x="259.0437" y="-155.3" font-family="Helvetica,sans-Serif" font-size="11.00" fill="#000000">[table]</text>
<polygon fill="none" stroke="#000000" points="10,-125.2 10,-147.2 200,-147.2 200,-125.2 10,-125.2"/>
<image xlink:href="../../images/primaryKeys.png" width="11px" height="12px" preserveAspectRatio="xMinYMin meet" x="15" y="-142.2"/>
<text text-anchor="start" x="30" y="-132.3" font-family="Helvetica,sans-Serif" font-size="11.00" fill="#000000">id</text>
<polygon fill="none" stroke="#000000" points="200,-125.2 200,-147.2 294,-147.2 294,-125.2 200,-125.2"/>
<text text-anchor="start" x="202.9758" y="-132.9" font-family="Helvetica,sans-Serif" font-size="11.00" fill="#000000">uuid[2147483647]</text>
<polygon fill="#ffffff" stroke="transparent" points="10,-103.2 10,-125.2 200,-125.2 200,-103.2 10,-103.2"/>
<polygon fill="none" stroke="#000000" points="10,-103.2 10,-125.2 200,-125.2 200,-103.2 10,-103.2"/>
<text text-anchor="start" x="30" y="-110.3" font-family="Helvetica,sans-Serif" font-size="11.00" fill="#000000">code</text>
<polygon fill="none" stroke="#000000" points="200,-103.2 200,-125.2 294,-125.2 294,-103.2 200,-103.2"/>
<text text-anchor="start" x="203" y="-110.9" font-family="Helvetica,sans-Serif" font-size="11.00" fill="#000000">varchar[16]</text>
<polygon fill="none" stroke="#000000" points="10,-81.2 10,-103.2 200,-103.2 200,-81.2 10,-81.2"/>
<text text-anchor="start" x="30" y="-88.3" font-family="Helvetica,sans-Serif" font-size="11.00" fill="#000000">description</text>
<polygon fill="none" stroke="#000000" points="200,-81.2 200,-103.2 294,-103.2 294,-81.2 200,-81.2"/>
<text text-anchor="start" x="203" y="-88.9" font-family="Helvetica,sans-Serif" font-size="11.00" fill="#000000">varchar[255]</text>
<polygon fill="#ffffff" stroke="transparent" points="10,-59.2 10,-81.2 200,-81.2 200,-59.2 10,-59.2"/>
<polygon fill="none" stroke="#000000" points="10,-59.2 10,-81.2 200,-81.2 200,-59.2 10,-59.2"/>
<text text-anchor="start" x="30" y="-66.3" font-family="Helvetica,sans-Serif" font-size="11.00" fill="#000000">sequence_number</text>
<polygon fill="none" stroke="#000000" points="200,-59.2 200,-81.2 294,-81.2 294,-59.2 200,-59.2"/>
<text text-anchor="start" x="203" y="-66.9" font-family="Helvetica,sans-Serif" font-size="11.00" fill="#000000">int4[10]</text>
<polygon fill="#ffffff" stroke="transparent" points="10,-40.2 10,-59.2 109,-59.2 109,-40.2 10,-40.2"/>
<polygon fill="none" stroke="#000000" points="10,-40.2 10,-59.2 109,-59.2 109,-40.2 10,-40.2"/>
<text text-anchor="start" x="13" y="-46.3" font-family="Helvetica,sans-Serif" font-size="11.00" fill="#000000">&lt; 0</text>
<polygon fill="#ffffff" stroke="transparent" points="109,-40.2 109,-59.2 200,-59.2 200,-40.2 109,-40.2"/>
<polygon fill="none" stroke="#000000" points="109,-40.2 109,-59.2 200,-59.2 200,-40.2 109,-40.2"/>
<text text-anchor="start" x="190.8862" y="-46.3" font-family="Helvetica,sans-Serif" font-size="11.00" fill="#000000"> &#160;</text>
<polygon fill="#ffffff" stroke="transparent" points="200,-40.2 200,-59.2 294,-59.2 294,-40.2 200,-40.2"/>
<polygon fill="none" stroke="#000000" points="200,-40.2 200,-59.2 294,-59.2 294,-40.2 200,-40.2"/>
<text text-anchor="start" x="275.4053" y="-46.3" font-family="Helvetica,sans-Serif" font-size="11.00" fill="#000000">1 &gt;</text>
<polygon fill="none" stroke="#000000" stroke-width="2" points="9,-39.2 9,-171.2 295,-171.2 295,-39.2 9,-39.2"/>
</a>
</g>
</g>
<!-- court_appearance&#45;&gt;court_appearance_status -->
<g id="edge3" class="edge">
<title>court_appearance:w&#45;&gt;court_appearance_status:e</title>
<path fill="none" stroke="#000000" d="M331.4561,-183.4012C316.4356,-170.5281 320.4284,-136.2 294,-136.2"/>
<polygon fill="#000000" stroke="#000000" points="337.9297,-185.6132 344.3359,-191.6066 341.7149,-186.9066 345.5,-188.2 345.5,-188.2 345.5,-188.2 341.7149,-186.9066 346.6641,-184.7934 337.9297,-185.6132 337.9297,-185.6132"/>
<ellipse fill="none" stroke="#000000" cx="334.9016" cy="-184.5785" rx="3.2" ry="3.2"/>
</g>
<!-- court_appearance_movement -->
<g id="node5" class="node">
<title>court_appearance_movement</title>
<g id="a_node5"><a xlink:href="../../tables/court_appearance_movement.html" xlink:title="court_appearance_movement" target="_top">
<polygon fill="#ffffff" stroke="transparent" points="553,-277.7 553,-338.7 790,-338.7 790,-277.7 553,-277.7"/>
<polygon fill="#f5f5f5" stroke="transparent" points="553.5,-315.2 553.5,-338.2 790.5,-338.2 790.5,-315.2 553.5,-315.2"/>
<polygon fill="none" stroke="#000000" points="553.5,-315.2 553.5,-338.2 790.5,-338.2 790.5,-315.2 553.5,-315.2"/>
<text text-anchor="start" x="558.5" y="-323.8" font-family="Helvetica,sans-Serif" font-weight="bold" font-size="11.00" fill="#000000">court_appearance_movement</text>
<text text-anchor="start" x="756.0219" y="-323.3" font-family="Helvetica,sans-Serif" font-size="11.00" fill="#000000">[table]</text>
<polygon fill="none" stroke="#000000" points="553.5,-296.2 553.5,-315.2 790.5,-315.2 790.5,-296.2 553.5,-296.2"/>
<text text-anchor="start" x="556.5" y="-302.3" font-family="Helvetica,sans-Serif" font-size="11.00" fill="#000000">...</text>
<polygon fill="#ffffff" stroke="transparent" points="553.5,-277.2 553.5,-296.2 670.5,-296.2 670.5,-277.2 553.5,-277.2"/>
<polygon fill="none" stroke="#000000" points="553.5,-277.2 553.5,-296.2 670.5,-296.2 670.5,-277.2 553.5,-277.2"/>
<text text-anchor="start" x="556.5" y="-283.3" font-family="Helvetica,sans-Serif" font-size="11.00" fill="#000000">&lt; 2</text>
<polygon fill="#ffffff" stroke="transparent" points="670.5,-277.2 670.5,-296.2 730.5,-296.2 730.5,-277.2 670.5,-277.2"/>
<polygon fill="none" stroke="#000000" points="670.5,-277.2 670.5,-296.2 730.5,-296.2 730.5,-277.2 670.5,-277.2"/>
<text text-anchor="start" x="721.3862" y="-283.3" font-family="Helvetica,sans-Serif" font-size="11.00" fill="#000000"> &#160;</text>
<polygon fill="#ffffff" stroke="transparent" points="730.5,-277.2 730.5,-296.2 790.5,-296.2 790.5,-277.2 730.5,-277.2"/>
<polygon fill="none" stroke="#000000" points="730.5,-277.2 730.5,-296.2 790.5,-296.2 790.5,-277.2 730.5,-277.2"/>
<text text-anchor="start" x="781.3862" y="-283.3" font-family="Helvetica,sans-Serif" font-size="11.00" fill="#000000"> &#160;</text>
</a>
</g>
</g>
<!-- court_appearance_movement&#45;&gt;court_appearance -->
<g id="edge4" class="edge">
<title>court_appearance_movement:w&#45;&gt;court_appearance:e</title>
<path fill="none" stroke="#000000" d="M539.4495,-301.1677C527.471,-293.1993 523.8749,-276.2 504.5,-276.2"/>
<polygon fill="#000000" stroke="#000000" points="545.8104,-302.9931 552.5069,-308.6603 549.6552,-304.0966 553.5,-305.2 553.5,-305.2 553.5,-305.2 549.6552,-304.0966 554.4931,-301.7397 545.8104,-302.9931 545.8104,-302.9931"/>
<ellipse fill="none" stroke="#000000" cx="542.7346" cy="-302.1104" rx="3.2" ry="3.2"/>
</g>
<!-- court_appearance_movement&#45;&gt;person_summary -->
<g id="edge5" class="edge">
<title>court_appearance_movement:w&#45;&gt;person_summary:e</title>
<path fill="none" stroke="#000000" d="M539.3138,-308.0306C530.7328,-311.8887 525.4993,-318.6137 512,-321.2 388.4619,-344.868 354.7848,-324.2 229,-324.2"/>
<polygon fill="#000000" stroke="#000000" points="545.6547,-306.7655 554.2045,-308.7304 549.5773,-305.9827 553.5,-305.2 553.5,-305.2 553.5,-305.2 549.5773,-305.9827 552.7955,-301.6696 545.6547,-306.7655 545.6547,-306.7655"/>
<ellipse fill="none" stroke="#000000" cx="542.5165" cy="-307.3916" rx="3.2" ry="3.2"/>
</g>
</g>
</svg>
