<?xml version="1.0" encoding="UTF-8" standalone="no"?>
<!DOCTYPE svg PUBLIC "-//W3C//DTD SVG 1.1//EN"
 "http://www.w3.org/Graphics/SVG/1.1/DTD/svg11.dtd">
<!-- Generated by graphviz version 2.40.1 (20161225.0304)
 -->
<!-- Title: oneDegreeRelationshipsDiagram Pages: 1 -->
<svg width="565pt" height="360pt"
 viewBox="0.00 0.00 565.00 360.20" xmlns="http://www.w3.org/2000/svg" xmlns:xlink="http://www.w3.org/1999/xlink">
<g id="graph0" class="graph" transform="scale(1 1) rotate(0) translate(4 356.2)">
<title>oneDegreeRelationshipsDiagram</title>
<polygon fill="#ffffff" stroke="transparent" points="-4,4 -4,-356.2 561,-356.2 561,4 -4,4"/>
<text text-anchor="middle" x="72.4936" y="-7.3" font-family="Helvetica,sans-Serif" font-size="11.00" fill="#000000">Generated by SchemaSpy</text>
<!-- court_appearance_movement_audit -->
<g id="node1" class="node">
<title>court_appearance_movement_audit</title>
<g id="a_node1"><a xlink:href="../../tables/court_appearance_movement_audit.html" xlink:title="court_appearance_movement_audit" target="_top">
<polygon fill="#ffffff" stroke="transparent" points="191,-38.2 191,-348.2 549,-348.2 549,-38.2 191,-38.2"/>
<polygon fill="#f5f5f5" stroke="transparent" points="193,-323.2 193,-346.2 547,-346.2 547,-323.2 193,-323.2"/>
<polygon fill="none" stroke="#000000" points="193,-323.2 193,-346.2 547,-346.2 547,-323.2 193,-323.2"/>
<text text-anchor="start" x="198" y="-331.8" font-family="Helvetica,sans-Serif" font-weight="bold" font-size="11.00" fill="#000000">court_appearance_movement_audit</text>
<text text-anchor="start" x="512.0437" y="-331.3" font-family="Helvetica,sans-Serif" font-size="11.00" fill="#000000">[table]</text>
<polygon fill="none" stroke="#000000" points="193,-301.2 193,-323.2 453,-323.2 453,-301.2 193,-301.2"/>
<image xlink:href="../../images/primaryKeys.png" width="11px" height="12px" preserveAspectRatio="xMinYMin meet" x="198" y="-318.2"/>
<text text-anchor="start" x="213" y="-308.3" font-family="Helvetica,sans-Serif" font-size="11.00" fill="#000000">rev_id</text>
<polygon fill="none" stroke="#000000" points="453,-301.2 453,-323.2 547,-323.2 547,-301.2 453,-301.2"/>
<text text-anchor="start" x="456" y="-308.9" font-family="Helvetica,sans-Serif" font-size="11.00" fill="#000000">int8[19]</text>
<polygon fill="none" stroke="#000000" points="193,-279.2 193,-301.2 453,-301.2 453,-279.2 193,-279.2"/>
<text text-anchor="start" x="213" y="-286.3" font-family="Helvetica,sans-Serif" font-size="11.00" fill="#000000">rev_type</text>
<polygon fill="none" stroke="#000000" points="453,-279.2 453,-301.2 547,-301.2 547,-279.2 453,-279.2"/>
<text text-anchor="start" x="456" y="-286.9" font-family="Helvetica,sans-Serif" font-size="11.00" fill="#000000">int2[5]</text>
<polygon fill="none" stroke="#000000" points="193,-257.2 193,-279.2 453,-279.2 453,-257.2 193,-257.2"/>
<image xlink:href="../../images/primaryKeys.png" width="11px" height="12px" preserveAspectRatio="xMinYMin meet" x="198" y="-274.2"/>
<text text-anchor="start" x="213" y="-264.3" font-family="Helvetica,sans-Serif" font-size="11.00" fill="#000000">id</text>
<polygon fill="none" stroke="#000000" points="453,-257.2 453,-279.2 547,-279.2 547,-257.2 453,-257.2"/>
<text text-anchor="start" x="455.9758" y="-264.9" font-family="Helvetica,sans-Serif" font-size="11.00" fill="#000000">uuid[2147483647]</text>
<polygon fill="none" stroke="#000000" points="193,-235.2 193,-257.2 453,-257.2 453,-235.2 193,-235.2"/>
<text text-anchor="start" x="213" y="-242.3" font-family="Helvetica,sans-Serif" font-size="11.00" fill="#000000">version</text>
<polygon fill="none" stroke="#000000" points="453,-235.2 453,-257.2 547,-257.2 547,-235.2 453,-235.2"/>
<text text-anchor="start" x="456" y="-242.9" font-family="Helvetica,sans-Serif" font-size="11.00" fill="#000000">int4[10]</text>
<polygon fill="none" stroke="#000000" points="193,-213.2 193,-235.2 453,-235.2 453,-213.2 193,-213.2"/>
<text text-anchor="start" x="213" y="-220.3" font-family="Helvetica,sans-Serif" font-size="11.00" fill="#000000">court_appearance_id</text>
<polygon fill="none" stroke="#000000" points="453,-213.2 453,-235.2 547,-235.2 547,-213.2 453,-213.2"/>
<text text-anchor="start" x="455.9758" y="-220.9" font-family="Helvetica,sans-Serif" font-size="11.00" fill="#000000">uuid[2147483647]</text>
<polygon fill="none" stroke="#000000" points="193,-191.2 193,-213.2 453,-213.2 453,-191.2 193,-191.2"/>
<image xlink:href="../../images/foreignKeys.png" width="11px" height="12px" preserveAspectRatio="xMinYMin meet" x="198" y="-208.2"/>
<text text-anchor="start" x="213" y="-198.3" font-family="Helvetica,sans-Serif" font-size="11.00" fill="#000000">person_identifier</text>
<polygon fill="none" stroke="#000000" points="453,-191.2 453,-213.2 547,-213.2 547,-191.2 453,-191.2"/>
<text text-anchor="start" x="456" y="-198.9" font-family="Helvetica,sans-Serif" font-size="11.00" fill="#000000">varchar[10]</text>
<polygon fill="none" stroke="#000000" points="193,-169.2 193,-191.2 453,-191.2 453,-169.2 193,-169.2"/>
<text text-anchor="start" x="213" y="-176.3" font-family="Helvetica,sans-Serif" font-size="11.00" fill="#000000">prison_code</text>
<polygon fill="none" stroke="#000000" points="453,-169.2 453,-191.2 547,-191.2 547,-169.2 453,-169.2"/>
<text text-anchor="start" x="456" y="-176.9" font-family="Helvetica,sans-Serif" font-size="11.00" fill="#000000">varchar[6]</text>
<polygon fill="none" stroke="#000000" points="193,-147.2 193,-169.2 453,-169.2 453,-147.2 193,-147.2"/>
<text text-anchor="start" x="213" y="-154.3" font-family="Helvetica,sans-Serif" font-size="11.00" fill="#000000">court_code</text>
<polygon fill="none" stroke="#000000" points="453,-147.2 453,-169.2 547,-169.2 547,-147.2 453,-147.2"/>
<text text-anchor="start" x="456" y="-154.9" font-family="Helvetica,sans-Serif" font-size="11.00" fill="#000000">varchar[6]</text>
<polygon fill="none" stroke="#000000" points="193,-125.2 193,-147.2 453,-147.2 453,-125.2 193,-125.2"/>
<text text-anchor="start" x="213" y="-132.3" font-family="Helvetica,sans-Serif" font-size="11.00" fill="#000000">direction</text>
<polygon fill="none" stroke="#000000" points="453,-125.2 453,-147.2 547,-147.2 547,-125.2 453,-125.2"/>
<text text-anchor="start" x="456" y="-132.9" font-family="Helvetica,sans-Serif" font-size="11.00" fill="#000000">varchar[3]</text>
<polygon fill="none" stroke="#000000" points="193,-103.2 193,-125.2 453,-125.2 453,-103.2 193,-103.2"/>
<text text-anchor="start" x="213" y="-110.3" font-family="Helvetica,sans-Serif" font-size="11.00" fill="#000000">occurred_at</text>
<polygon fill="none" stroke="#000000" points="453,-103.2 453,-125.2 547,-125.2 547,-103.2 453,-103.2"/>
<text text-anchor="start" x="456" y="-110.9" font-family="Helvetica,sans-Serif" font-size="11.00" fill="#000000">timestamp[29,6]</text>
<polygon fill="none" stroke="#000000" points="193,-81.2 193,-103.2 453,-103.2 453,-81.2 193,-81.2"/>
<text text-anchor="start" x="213" y="-88.3" font-family="Helvetica,sans-Serif" font-size="11.00" fill="#000000">comments</text>
<polygon fill="none" stroke="#000000" points="453,-81.2 453,-103.2 547,-103.2 547,-81.2 453,-81.2"/>
<text text-anchor="start" x="456" y="-88.9" font-family="Helvetica,sans-Serif" font-size="11.00" fill="#000000">text[2147483647]</text>
<polygon fill="none" stroke="#000000" points="193,-59.2 193,-81.2 453,-81.2 453,-59.2 193,-59.2"/>
<text text-anchor="start" x="213" y="-66.3" font-family="Helvetica,sans-Serif" font-size="11.00" fill="#000000">legacy_id</text>
<polygon fill="none" stroke="#000000" points="453,-59.2 453,-81.2 547,-81.2 547,-59.2 453,-59.2"/>
<text text-anchor="start" x="456" y="-66.9" font-family="Helvetica,sans-Serif" font-size="11.00" fill="#000000">varchar[32]</text>
<polygon fill="#ffffff" stroke="transparent" points="193,-40.2 193,-59.2 327,-59.2 327,-40.2 193,-40.2"/>
<polygon fill="none" stroke="#000000" points="193,-40.2 193,-59.2 327,-59.2 327,-40.2 193,-40.2"/>
<text text-anchor="start" x="196" y="-46.3" font-family="Helvetica,sans-Serif" font-size="11.00" fill="#000000">&lt; 1</text>
<polygon fill="#ffffff" stroke="transparent" points="327,-40.2 327,-59.2 453,-59.2 453,-40.2 327,-40.2"/>
<polygon fill="none" stroke="#000000" points="327,-40.2 327,-59.2 453,-59.2 453,-40.2 327,-40.2"/>
<text text-anchor="start" x="443.8862" y="-46.3" font-family="Helvetica,sans-Serif" font-size="11.00" fill="#000000"> &#160;</text>
<polygon fill="#ffffff" stroke="transparent" points="453,-40.2 453,-59.2 547,-59.2 547,-40.2 453,-40.2"/>
<polygon fill="none" stroke="#000000" points="453,-40.2 453,-59.2 547,-59.2 547,-40.2 453,-40.2"/>
<text text-anchor="start" x="528.4053" y="-46.3" font-family="Helvetica,sans-Serif" font-size="11.00" fill="#000000">0 &gt;</text>
<polygon fill="none" stroke="#000000" stroke-width="2" points="192,-39.2 192,-347.2 548,-347.2 548,-39.2 192,-39.2"/>
</a>
</g>
</g>
<!-- audit_revision -->
<g id="node2" class="node">
<title>audit_revision</title>
<g id="a_node2"><a xlink:href="../../tables/audit_revision.html" xlink:title="audit_revision" target="_top">
<polygon fill="#ffffff" stroke="transparent" points="8,-263.7 8,-346.7 142,-346.7 142,-263.7 8,-263.7"/>
<polygon fill="#f5f5f5" stroke="transparent" points="8,-323.2 8,-346.2 142,-346.2 142,-323.2 8,-323.2"/>
<polygon fill="none" stroke="#000000" points="8,-323.2 8,-346.2 142,-346.2 142,-323.2 8,-323.2"/>
<text text-anchor="start" x="13" y="-331.8" font-family="Helvetica,sans-Serif" font-weight="bold" font-size="11.00" fill="#000000">audit_revision</text>
<text text-anchor="start" x="107.5219" y="-331.3" font-family="Helvetica,sans-Serif" font-size="11.00" fill="#000000">[table]</text>
<polygon fill="none" stroke="#000000" points="8,-301.2 8,-323.2 142,-323.2 142,-301.2 8,-301.2"/>
<image xlink:href="../../images/primaryKeys.png" width="11px" height="12px" preserveAspectRatio="xMinYMin meet" x="13" y="-318.2"/>
<text text-anchor="start" x="28" y="-308.3" font-family="Helvetica,sans-Serif" font-size="11.00" fill="#000000">id</text>
<polygon fill="none" stroke="#000000" points="8,-282.2 8,-301.2 142,-301.2 142,-282.2 8,-282.2"/>
<text text-anchor="start" x="11" y="-288.3" font-family="Helvetica,sans-Serif" font-size="11.00" fill="#000000">...</text>
<polygon fill="#ffffff" stroke="transparent" points="8,-263.2 8,-282.2 64,-282.2 64,-263.2 8,-263.2"/>
<polygon fill="none" stroke="#000000" points="8,-263.2 8,-282.2 64,-282.2 64,-263.2 8,-263.2"/>
<text text-anchor="start" x="11" y="-269.3" font-family="Helvetica,sans-Serif" font-size="11.00" fill="#000000"> &#160;</text>
<polygon fill="#ffffff" stroke="transparent" points="64,-263.2 64,-282.2 98,-282.2 98,-263.2 64,-263.2"/>
<polygon fill="none" stroke="#000000" points="64,-263.2 64,-282.2 98,-282.2 98,-263.2 64,-263.2"/>
<text text-anchor="start" x="88.8862" y="-269.3" font-family="Helvetica,sans-Serif" font-size="11.00" fill="#000000"> &#160;</text>
<polygon fill="#ffffff" stroke="transparent" points="98,-263.2 98,-282.2 142,-282.2 142,-263.2 98,-263.2"/>
<polygon fill="none" stroke="#000000" points="98,-263.2 98,-282.2 142,-282.2 142,-263.2 98,-263.2"/>
<text text-anchor="start" x="123.4053" y="-269.3" font-family="Helvetica,sans-Serif" font-size="11.00" fill="#000000">2 &gt;</text>
</a>
</g>
</g>
<!-- court_appearance_movement_audit&#45;&gt;audit_revision -->
<g id="edge1" class="edge">
<title>court_appearance_movement_audit:w&#45;&gt;audit_revision:e</title>
<path fill="none" stroke="#000000" d="M178.276,-312.2C166.2815,-312.2 158.8229,-312.2 142,-312.2"/>
<polygon fill="#000000" stroke="#000000" points="185,-312.2001 193,-315.8 189,-312.2 193,-312.2 193,-312.2 193,-312.2 189,-312.2 193,-308.6 185,-312.2001 185,-312.2001"/>
<ellipse fill="none" stroke="#000000" cx="181.8" cy="-312.2001" rx="3.2" ry="3.2"/>
</g>
</g>
</svg>
