<?xml version="1.0" encoding="UTF-8" standalone="no"?>
<!DOCTYPE svg PUBLIC "-//W3C//DTD SVG 1.1//EN"
 "http://www.w3.org/Graphics/SVG/1.1/DTD/svg11.dtd">
<!-- Generated by graphviz version 2.40.1 (20161225.0304)
 -->
<!-- Title: oneDegreeRelationshipsDiagram Pages: 1 -->
<svg width="816pt" height="459pt"
 viewBox="0.00 0.00 816.00 459.47" xmlns="http://www.w3.org/2000/svg" xmlns:xlink="http://www.w3.org/1999/xlink">
<g id="graph0" class="graph" transform="scale(1 1) rotate(0) translate(4 455.474)">
<title>oneDegreeRelationshipsDiagram</title>
<polygon fill="#ffffff" stroke="transparent" points="-4,4 -4,-455.474 812,-455.474 812,4 -4,4"/>
<text text-anchor="middle" x="72.4936" y="-7.3" font-family="Helvetica,sans-Serif" font-size="11.00" fill="#000000">Generated by SchemaSpy</text>
<!-- court_appearance -->
<g id="node1" class="node">
<title>court_appearance</title>
<g id="a_node1"><a xlink:href="../../tables/court_appearance.html" xlink:title="court_appearance" target="_top">
<polygon fill="#ffffff" stroke="transparent" points="268,-100.974 268,-410.974 514,-410.974 514,-100.974 268,-100.974"/>
<polygon fill="#f5f5f5" stroke="transparent" points="270,-385.974 270,-408.974 512,-408.974 512,-385.974 270,-385.974"/>
<polygon fill="none" stroke="#000000" points="270,-385.974 270,-408.974 512,-408.974 512,-385.974 270,-385.974"/>
<text text-anchor="start" x="275" y="-394.574" font-family="Helvetica,sans-Serif" font-weight="bold" font-size="11.00" fill="#000000">court_appearance</text>
<text text-anchor="start" x="477.0437" y="-394.074" font-family="Helvetica,sans-Serif" font-size="11.00" fill="#000000">[table]</text>
<polygon fill="none" stroke="#000000" points="270,-363.974 270,-385.974 418,-385.974 418,-363.974 270,-363.974"/>
<image xlink:href="../../images/primaryKeys.png" width="11px" height="12px" preserveAspectRatio="xMinYMin meet" x="275" y="-380.974"/>
<text text-anchor="start" x="290" y="-371.074" font-family="Helvetica,sans-Serif" font-size="11.00" fill="#000000">id</text>
<polygon fill="none" stroke="#000000" points="418,-363.974 418,-385.974 512,-385.974 512,-363.974 418,-363.974"/>
<text text-anchor="start" x="420.9758" y="-371.674" font-family="Helvetica,sans-Serif" font-size="11.00" fill="#000000">uuid[2147483647]</text>
<polygon fill="none" stroke="#000000" points="270,-341.974 270,-363.974 418,-363.974 418,-341.974 270,-341.974"/>
<text text-anchor="start" x="290" y="-349.074" font-family="Helvetica,sans-Serif" font-size="11.00" fill="#000000">version</text>
<polygon fill="none" stroke="#000000" points="418,-341.974 418,-363.974 512,-363.974 512,-341.974 418,-341.974"/>
<text text-anchor="start" x="421" y="-349.674" font-family="Helvetica,sans-Serif" font-size="11.00" fill="#000000">int4[10]</text>
<polygon fill="#ffffff" stroke="transparent" points="270,-319.974 270,-341.974 418,-341.974 418,-319.974 270,-319.974"/>
<polygon fill="none" stroke="#000000" points="270,-319.974 270,-341.974 418,-341.974 418,-319.974 270,-319.974"/>
<image xlink:href="../../images/foreignKeys.png" width="11px" height="12px" preserveAspectRatio="xMinYMin meet" x="275" y="-336.974"/>
<text text-anchor="start" x="290" y="-327.074" font-family="Helvetica,sans-Serif" font-size="11.00" fill="#000000">person_identifier</text>
<polygon fill="none" stroke="#000000" points="418,-319.974 418,-341.974 512,-341.974 512,-319.974 418,-319.974"/>
<text text-anchor="start" x="421" y="-327.674" font-family="Helvetica,sans-Serif" font-size="11.00" fill="#000000">varchar[10]</text>
<polygon fill="none" stroke="#000000" points="270,-297.974 270,-319.974 418,-319.974 418,-297.974 270,-297.974"/>
<text text-anchor="start" x="290" y="-305.074" font-family="Helvetica,sans-Serif" font-size="11.00" fill="#000000">court_code</text>
<polygon fill="none" stroke="#000000" points="418,-297.974 418,-319.974 512,-319.974 512,-297.974 418,-297.974"/>
<text text-anchor="start" x="421" y="-305.674" font-family="Helvetica,sans-Serif" font-size="11.00" fill="#000000">varchar[6]</text>
<polygon fill="none" stroke="#000000" points="270,-275.974 270,-297.974 418,-297.974 418,-275.974 270,-275.974"/>
<image xlink:href="../../images/foreignKeys.png" width="11px" height="12px" preserveAspectRatio="xMinYMin meet" x="275" y="-292.974"/>
<text text-anchor="start" x="290" y="-283.074" font-family="Helvetica,sans-Serif" font-size="11.00" fill="#000000">reason_id</text>
<polygon fill="none" stroke="#000000" points="418,-275.974 418,-297.974 512,-297.974 512,-275.974 418,-275.974"/>
<text text-anchor="start" x="420.9758" y="-283.674" font-family="Helvetica,sans-Serif" font-size="11.00" fill="#000000">uuid[2147483647]</text>
<polygon fill="none" stroke="#000000" points="270,-253.974 270,-275.974 418,-275.974 418,-253.974 270,-253.974"/>
<text text-anchor="start" x="290" y="-261.074" font-family="Helvetica,sans-Serif" font-size="11.00" fill="#000000">external</text>
<polygon fill="none" stroke="#000000" points="418,-253.974 418,-275.974 512,-275.974 512,-253.974 418,-253.974"/>
<text text-anchor="start" x="421" y="-261.674" font-family="Helvetica,sans-Serif" font-size="11.00" fill="#000000">bool[1]</text>
<polygon fill="#ffffff" stroke="transparent" points="270,-231.974 270,-253.974 418,-253.974 418,-231.974 270,-231.974"/>
<polygon fill="none" stroke="#000000" points="270,-231.974 270,-253.974 418,-253.974 418,-231.974 270,-231.974"/>
<image xlink:href="../../images/foreignKeys.png" width="11px" height="12px" preserveAspectRatio="xMinYMin meet" x="275" y="-248.974"/>
<text text-anchor="start" x="290" y="-239.074" font-family="Helvetica,sans-Serif" font-size="11.00" fill="#000000">status_id</text>
<polygon fill="none" stroke="#000000" points="418,-231.974 418,-253.974 512,-253.974 512,-231.974 418,-231.974"/>
<text text-anchor="start" x="420.9758" y="-239.674" font-family="Helvetica,sans-Serif" font-size="11.00" fill="#000000">uuid[2147483647]</text>
<polygon fill="#ffffff" stroke="transparent" points="270,-209.974 270,-231.974 418,-231.974 418,-209.974 270,-209.974"/>
<polygon fill="none" stroke="#000000" points="270,-209.974 270,-231.974 418,-231.974 418,-209.974 270,-209.974"/>
<text text-anchor="start" x="290" y="-217.074" font-family="Helvetica,sans-Serif" font-size="11.00" fill="#000000">start</text>
<polygon fill="none" stroke="#000000" points="418,-209.974 418,-231.974 512,-231.974 512,-209.974 418,-209.974"/>
<text text-anchor="start" x="421" y="-217.674" font-family="Helvetica,sans-Serif" font-size="11.00" fill="#000000">timestamp[29,6]</text>
<polygon fill="#ffffff" stroke="transparent" points="270,-187.974 270,-209.974 418,-209.974 418,-187.974 270,-187.974"/>
<polygon fill="none" stroke="#000000" points="270,-187.974 270,-209.974 418,-209.974 418,-187.974 270,-187.974"/>
<text text-anchor="start" x="290" y="-195.074" font-family="Helvetica,sans-Serif" font-size="11.00" fill="#000000">end</text>
<polygon fill="none" stroke="#000000" points="418,-187.974 418,-209.974 512,-209.974 512,-187.974 418,-187.974"/>
<text text-anchor="start" x="421" y="-195.674" font-family="Helvetica,sans-Serif" font-size="11.00" fill="#000000">timestamp[29,6]</text>
<polygon fill="none" stroke="#000000" points="270,-165.974 270,-187.974 418,-187.974 418,-165.974 270,-165.974"/>
<text text-anchor="start" x="290" y="-173.074" font-family="Helvetica,sans-Serif" font-size="11.00" fill="#000000">comments</text>
<polygon fill="none" stroke="#000000" points="418,-165.974 418,-187.974 512,-187.974 512,-165.974 418,-165.974"/>
<text text-anchor="start" x="421" y="-173.674" font-family="Helvetica,sans-Serif" font-size="11.00" fill="#000000">text[2147483647]</text>
<polygon fill="#ffffff" stroke="transparent" points="270,-143.974 270,-165.974 418,-165.974 418,-143.974 270,-143.974"/>
<polygon fill="none" stroke="#000000" points="270,-143.974 270,-165.974 418,-165.974 418,-143.974 270,-143.974"/>
<image xlink:href="../../images/foreignKeys.png" width="11px" height="12px" preserveAspectRatio="xMinYMin meet" x="275" y="-160.974"/>
<text text-anchor="start" x="290" y="-151.074" font-family="Helvetica,sans-Serif" font-size="11.00" fill="#000000">legacy_id</text>
<polygon fill="none" stroke="#000000" points="418,-143.974 418,-165.974 512,-165.974 512,-143.974 418,-143.974"/>
<text text-anchor="start" x="421" y="-151.674" font-family="Helvetica,sans-Serif" font-size="11.00" fill="#000000">int8[19]</text>
<polygon fill="#ffffff" stroke="transparent" points="270,-121.974 270,-143.974 418,-143.974 418,-121.974 270,-121.974"/>
<polygon fill="none" stroke="#000000" points="270,-121.974 270,-143.974 418,-143.974 418,-121.974 270,-121.974"/>
<text text-anchor="start" x="290" y="-129.074" font-family="Helvetica,sans-Serif" font-size="11.00" fill="#000000">external_reference</text>
<polygon fill="none" stroke="#000000" points="418,-121.974 418,-143.974 512,-143.974 512,-121.974 418,-121.974"/>
<text text-anchor="start" x="421" y="-129.674" font-family="Helvetica,sans-Serif" font-size="11.00" fill="#000000">text[2147483647]</text>
<polygon fill="#ffffff" stroke="transparent" points="270,-102.974 270,-121.974 348,-121.974 348,-102.974 270,-102.974"/>
<polygon fill="none" stroke="#000000" points="270,-102.974 270,-121.974 348,-121.974 348,-102.974 270,-102.974"/>
<text text-anchor="start" x="273" y="-109.074" font-family="Helvetica,sans-Serif" font-size="11.00" fill="#000000">&lt; 3</text>
<polygon fill="#ffffff" stroke="transparent" points="348,-102.974 348,-121.974 418,-121.974 418,-102.974 348,-102.974"/>
<polygon fill="none" stroke="#000000" points="348,-102.974 348,-121.974 418,-121.974 418,-102.974 348,-102.974"/>
<text text-anchor="start" x="408.8862" y="-109.074" font-family="Helvetica,sans-Serif" font-size="11.00" fill="#000000"> &#160;</text>
<polygon fill="#ffffff" stroke="transparent" points="418,-102.974 418,-121.974 512,-121.974 512,-102.974 418,-102.974"/>
<polygon fill="none" stroke="#000000" points="418,-102.974 418,-121.974 512,-121.974 512,-102.974 418,-102.974"/>
<text text-anchor="start" x="493.4053" y="-109.074" font-family="Helvetica,sans-Serif" font-size="11.00" fill="#000000">1 &gt;</text>
<polygon fill="none" stroke="#000000" stroke-width="2" points="269,-101.974 269,-409.974 513,-409.974 513,-101.974 269,-101.974"/>
</a>
</g>
</g>
<!-- person_summary -->
<g id="node2" class="node">
<title>person_summary</title>
<g id="a_node2"><a xlink:href="../../tables/person_summary.html" xlink:title="person_summary" target="_top">
<polygon fill="#ffffff" stroke="transparent" points="36.5,-364.474 36.5,-447.474 190.5,-447.474 190.5,-364.474 36.5,-364.474"/>
<polygon fill="#f5f5f5" stroke="transparent" points="36.5,-423.974 36.5,-446.974 190.5,-446.974 190.5,-423.974 36.5,-423.974"/>
<polygon fill="none" stroke="#000000" points="36.5,-423.974 36.5,-446.974 190.5,-446.974 190.5,-423.974 36.5,-423.974"/>
<text text-anchor="start" x="41.5" y="-432.574" font-family="Helvetica,sans-Serif" font-weight="bold" font-size="11.00" fill="#000000">person_summary</text>
<text text-anchor="start" x="156.0219" y="-432.074" font-family="Helvetica,sans-Serif" font-size="11.00" fill="#000000">[table]</text>
<polygon fill="none" stroke="#000000" points="36.5,-401.974 36.5,-423.974 190.5,-423.974 190.5,-401.974 36.5,-401.974"/>
<image xlink:href="../../images/primaryKeys.png" width="11px" height="12px" preserveAspectRatio="xMinYMin meet" x="41.5" y="-418.974"/>
<text text-anchor="start" x="65.5" y="-409.074" font-family="Helvetica,sans-Serif" font-size="11.00" fill="#000000">person_identifier</text>
<polygon fill="none" stroke="#000000" points="36.5,-382.974 36.5,-401.974 190.5,-401.974 190.5,-382.974 36.5,-382.974"/>
<text text-anchor="start" x="39.5" y="-389.074" font-family="Helvetica,sans-Serif" font-size="11.00" fill="#000000">...</text>
<polygon fill="#ffffff" stroke="transparent" points="36.5,-363.974 36.5,-382.974 102.5,-382.974 102.5,-363.974 36.5,-363.974"/>
<polygon fill="none" stroke="#000000" points="36.5,-363.974 36.5,-382.974 102.5,-382.974 102.5,-363.974 36.5,-363.974"/>
<text text-anchor="start" x="39.5" y="-370.074" font-family="Helvetica,sans-Serif" font-size="11.00" fill="#000000"> &#160;</text>
<polygon fill="#ffffff" stroke="transparent" points="102.5,-363.974 102.5,-382.974 141.5,-382.974 141.5,-363.974 102.5,-363.974"/>
<polygon fill="none" stroke="#000000" points="102.5,-363.974 102.5,-382.974 141.5,-382.974 141.5,-363.974 102.5,-363.974"/>
<text text-anchor="start" x="132.3862" y="-370.074" font-family="Helvetica,sans-Serif" font-size="11.00" fill="#000000"> &#160;</text>
<polygon fill="#ffffff" stroke="transparent" points="141.5,-363.974 141.5,-382.974 190.5,-382.974 190.5,-363.974 141.5,-363.974"/>
<polygon fill="none" stroke="#000000" points="141.5,-363.974 141.5,-382.974 190.5,-382.974 190.5,-363.974 141.5,-363.974"/>
<text text-anchor="start" x="171.9053" y="-370.074" font-family="Helvetica,sans-Serif" font-size="11.00" fill="#000000">2 &gt;</text>
</a>
</g>
</g>
<!-- court_appearance&#45;&gt;person_summary -->
<g id="edge1" class="edge">
<title>court_appearance:w&#45;&gt;person_summary:e</title>
<path fill="none" stroke="#000000" d="M255.7658,-333.7023C223.1858,-347.9306 235.7087,-412.974 190.5,-412.974"/>
<polygon fill="#000000" stroke="#000000" points="262.143,-332.48 270.6777,-334.5097 266.0715,-331.727 270,-330.974 270,-330.974 270,-330.974 266.0715,-331.727 269.3223,-327.4384 262.143,-332.48 262.143,-332.48"/>
<ellipse fill="none" stroke="#000000" cx="259.0002" cy="-333.0824" rx="3.2" ry="3.2"/>
</g>
<!-- court_appearance_reason -->
<g id="node3" class="node">
<title>court_appearance_reason</title>
<g id="a_node3"><a xlink:href="../../tables/court_appearance_reason.html" xlink:title="court_appearance_reason" target="_top">
<polygon fill="#ffffff" stroke="transparent" points="8,-194.474 8,-321.474 219,-321.474 219,-194.474 8,-194.474"/>
<polygon fill="#f5f5f5" stroke="transparent" points="8.5,-297.974 8.5,-320.974 219.5,-320.974 219.5,-297.974 8.5,-297.974"/>
<polygon fill="none" stroke="#000000" points="8.5,-297.974 8.5,-320.974 219.5,-320.974 219.5,-297.974 8.5,-297.974"/>
<text text-anchor="start" x="13.5" y="-306.574" font-family="Helvetica,sans-Serif" font-weight="bold" font-size="11.00" fill="#000000">court_appearance_reason</text>
<text text-anchor="start" x="185.0219" y="-306.074" font-family="Helvetica,sans-Serif" font-size="11.00" fill="#000000">[table]</text>
<polygon fill="none" stroke="#000000" points="8.5,-275.974 8.5,-297.974 219.5,-297.974 219.5,-275.974 8.5,-275.974"/>
<image xlink:href="../../images/primaryKeys.png" width="11px" height="12px" preserveAspectRatio="xMinYMin meet" x="13.5" y="-292.974"/>
<text text-anchor="start" x="37.5" y="-283.074" font-family="Helvetica,sans-Serif" font-size="11.00" fill="#000000">id</text>
<polygon fill="#ffffff" stroke="transparent" points="8.5,-253.974 8.5,-275.974 219.5,-275.974 219.5,-253.974 8.5,-253.974"/>
<polygon fill="none" stroke="#000000" points="8.5,-253.974 8.5,-275.974 219.5,-275.974 219.5,-253.974 8.5,-253.974"/>
<text text-anchor="start" x="37.5" y="-261.074" font-family="Helvetica,sans-Serif" font-size="11.00" fill="#000000">code</text>
<polygon fill="#ffffff" stroke="transparent" points="8.5,-231.974 8.5,-253.974 219.5,-253.974 219.5,-231.974 8.5,-231.974"/>
<polygon fill="none" stroke="#000000" points="8.5,-231.974 8.5,-253.974 219.5,-253.974 219.5,-231.974 8.5,-231.974"/>
<text text-anchor="start" x="37.5" y="-239.074" font-family="Helvetica,sans-Serif" font-size="11.00" fill="#000000">sequence_number</text>
<polygon fill="none" stroke="#000000" points="8.5,-212.974 8.5,-231.974 219.5,-231.974 219.5,-212.974 8.5,-212.974"/>
<text text-anchor="start" x="11.5" y="-219.074" font-family="Helvetica,sans-Serif" font-size="11.00" fill="#000000">...</text>
<polygon fill="#ffffff" stroke="transparent" points="8.5,-193.974 8.5,-212.974 103.5,-212.974 103.5,-193.974 8.5,-193.974"/>
<polygon fill="none" stroke="#000000" points="8.5,-193.974 8.5,-212.974 103.5,-212.974 103.5,-193.974 8.5,-193.974"/>
<text text-anchor="start" x="11.5" y="-200.074" font-family="Helvetica,sans-Serif" font-size="11.00" fill="#000000"> &#160;</text>
<polygon fill="#ffffff" stroke="transparent" points="103.5,-193.974 103.5,-212.974 156.5,-212.974 156.5,-193.974 103.5,-193.974"/>
<polygon fill="none" stroke="#000000" points="103.5,-193.974 103.5,-212.974 156.5,-212.974 156.5,-193.974 103.5,-193.974"/>
<text text-anchor="start" x="147.3862" y="-200.074" font-family="Helvetica,sans-Serif" font-size="11.00" fill="#000000"> &#160;</text>
<polygon fill="#ffffff" stroke="transparent" points="156.5,-193.974 156.5,-212.974 219.5,-212.974 219.5,-193.974 156.5,-193.974"/>
<polygon fill="none" stroke="#000000" points="156.5,-193.974 156.5,-212.974 219.5,-212.974 219.5,-193.974 156.5,-193.974"/>
<text text-anchor="start" x="200.9053" y="-200.074" font-family="Helvetica,sans-Serif" font-size="11.00" fill="#000000">2 &gt;</text>
</a>
</g>
</g>
<!-- court_appearance&#45;&gt;court_appearance_reason -->
<g id="edge2" class="edge">
<title>court_appearance:w&#45;&gt;court_appearance_reason:e</title>
<path fill="none" stroke="#000000" d="M255.4203,-286.974C243.5435,-286.974 236.158,-286.974 219.5,-286.974"/>
<polygon fill="#000000" stroke="#000000" points="262,-286.9741 270,-290.574 266,-286.974 270,-286.974 270,-286.974 270,-286.974 266,-286.974 270,-283.374 262,-286.9741 262,-286.9741"/>
<ellipse fill="none" stroke="#000000" cx="258.8" cy="-286.9741" rx="3.2" ry="3.2"/>
</g>
<!-- court_appearance_status -->
<g id="node4" class="node">
<title>court_appearance_status</title>
<g id="a_node4"><a xlink:href="../../tables/court_appearance_status.html" xlink:title="court_appearance_status" target="_top">
<polygon fill="#ffffff" stroke="transparent" points="9.5,-46.474 9.5,-173.474 217.5,-173.474 217.5,-46.474 9.5,-46.474"/>
<polygon fill="#f5f5f5" stroke="transparent" points="9.5,-149.974 9.5,-172.974 217.5,-172.974 217.5,-149.974 9.5,-149.974"/>
<polygon fill="none" stroke="#000000" points="9.5,-149.974 9.5,-172.974 217.5,-172.974 217.5,-149.974 9.5,-149.974"/>
<text text-anchor="start" x="14.5" y="-158.574" font-family="Helvetica,sans-Serif" font-weight="bold" font-size="11.00" fill="#000000">court_appearance_status</text>
<text text-anchor="start" x="183.0219" y="-158.074" font-family="Helvetica,sans-Serif" font-size="11.00" fill="#000000">[table]</text>
<polygon fill="none" stroke="#000000" points="9.5,-127.974 9.5,-149.974 217.5,-149.974 217.5,-127.974 9.5,-127.974"/>
<image xlink:href="../../images/primaryKeys.png" width="11px" height="12px" preserveAspectRatio="xMinYMin meet" x="14.5" y="-144.974"/>
<text text-anchor="start" x="38.5" y="-135.074" font-family="Helvetica,sans-Serif" font-size="11.00" fill="#000000">id</text>
<polygon fill="#ffffff" stroke="transparent" points="9.5,-105.974 9.5,-127.974 217.5,-127.974 217.5,-105.974 9.5,-105.974"/>
<polygon fill="none" stroke="#000000" points="9.5,-105.974 9.5,-127.974 217.5,-127.974 217.5,-105.974 9.5,-105.974"/>
<text text-anchor="start" x="38.5" y="-113.074" font-family="Helvetica,sans-Serif" font-size="11.00" fill="#000000">code</text>
<polygon fill="#ffffff" stroke="transparent" points="9.5,-83.974 9.5,-105.974 217.5,-105.974 217.5,-83.974 9.5,-83.974"/>
<polygon fill="none" stroke="#000000" points="9.5,-83.974 9.5,-105.974 217.5,-105.974 217.5,-83.974 9.5,-83.974"/>
<text text-anchor="start" x="38.5" y="-91.074" font-family="Helvetica,sans-Serif" font-size="11.00" fill="#000000">sequence_number</text>
<polygon fill="none" stroke="#000000" points="9.5,-64.974 9.5,-83.974 217.5,-83.974 217.5,-64.974 9.5,-64.974"/>
<text text-anchor="start" x="12.5" y="-71.074" font-family="Helvetica,sans-Serif" font-size="11.00" fill="#000000">...</text>
<polygon fill="#ffffff" stroke="transparent" points="9.5,-45.974 9.5,-64.974 102.5,-64.974 102.5,-45.974 9.5,-45.974"/>
<polygon fill="none" stroke="#000000" points="9.5,-45.974 9.5,-64.974 102.5,-64.974 102.5,-45.974 9.5,-45.974"/>
<text text-anchor="start" x="12.5" y="-52.074" font-family="Helvetica,sans-Serif" font-size="11.00" fill="#000000"> &#160;</text>
<polygon fill="#ffffff" stroke="transparent" points="102.5,-45.974 102.5,-64.974 155.5,-64.974 155.5,-45.974 102.5,-45.974"/>
<polygon fill="none" stroke="#000000" points="102.5,-45.974 102.5,-64.974 155.5,-64.974 155.5,-45.974 102.5,-45.974"/>
<text text-anchor="start" x="146.3862" y="-52.074" font-family="Helvetica,sans-Serif" font-size="11.00" fill="#000000"> &#160;</text>
<polygon fill="#ffffff" stroke="transparent" points="155.5,-45.974 155.5,-64.974 217.5,-64.974 217.5,-45.974 155.5,-45.974"/>
<polygon fill="none" stroke="#000000" points="155.5,-45.974 155.5,-64.974 217.5,-64.974 217.5,-45.974 155.5,-45.974"/>
<text text-anchor="start" x="198.9053" y="-52.074" font-family="Helvetica,sans-Serif" font-size="11.00" fill="#000000">1 &gt;</text>
</a>
</g>
</g>
<!-- court_appearance&#45;&gt;court_appearance_status -->
<g id="edge3" class="edge">
<title>court_appearance:w&#45;&gt;court_appearance_status:e</title>
<path fill="none" stroke="#000000" d="M256.0635,-239.2726C228.4699,-220.7461 263.4123,-138.974 217.5,-138.974"/>
<polygon fill="#000000" stroke="#000000" points="262.2681,-240.9204 269.0759,-246.4534 266.134,-241.9472 270,-242.974 270,-242.974 270,-242.974 266.134,-241.9472 270.9241,-239.4946 262.2681,-240.9204 262.2681,-240.9204"/>
<ellipse fill="none" stroke="#000000" cx="259.1753" cy="-240.099" rx="3.2" ry="3.2"/>
</g>
<!-- court_appearance_movement -->
<g id="node5" class="node">
<title>court_appearance_movement</title>
<g id="a_node5"><a xlink:href="../../tables/court_appearance_movement.html" xlink:title="court_appearance_movement" target="_top">
<polygon fill="#ffffff" stroke="transparent" points="563,-260.474 563,-431.474 800,-431.474 800,-260.474 563,-260.474"/>
<polygon fill="#f5f5f5" stroke="transparent" points="563.5,-407.974 563.5,-430.974 800.5,-430.974 800.5,-407.974 563.5,-407.974"/>
<polygon fill="none" stroke="#000000" points="563.5,-407.974 563.5,-430.974 800.5,-430.974 800.5,-407.974 563.5,-407.974"/>
<text text-anchor="start" x="568.5" y="-416.574" font-family="Helvetica,sans-Serif" font-weight="bold" font-size="11.00" fill="#000000">court_appearance_movement</text>
<text text-anchor="start" x="766.0219" y="-416.074" font-family="Helvetica,sans-Serif" font-size="11.00" fill="#000000">[table]</text>
<polygon fill="none" stroke="#000000" points="563.5,-385.974 563.5,-407.974 800.5,-407.974 800.5,-385.974 563.5,-385.974"/>
<image xlink:href="../../images/primaryKeys.png" width="11px" height="12px" preserveAspectRatio="xMinYMin meet" x="568.5" y="-402.974"/>
<text text-anchor="start" x="592.5" y="-393.074" font-family="Helvetica,sans-Serif" font-size="11.00" fill="#000000">id</text>
<polygon fill="#ffffff" stroke="transparent" points="563.5,-363.974 563.5,-385.974 800.5,-385.974 800.5,-363.974 563.5,-363.974"/>
<polygon fill="none" stroke="#000000" points="563.5,-363.974 563.5,-385.974 800.5,-385.974 800.5,-363.974 563.5,-363.974"/>
<image xlink:href="../../images/foreignKeys.png" width="11px" height="12px" preserveAspectRatio="xMinYMin meet" x="568.5" y="-380.974"/>
<text text-anchor="start" x="592.5" y="-371.074" font-family="Helvetica,sans-Serif" font-size="11.00" fill="#000000">court_appearance_id</text>
<polygon fill="#ffffff" stroke="transparent" points="563.5,-341.974 563.5,-363.974 800.5,-363.974 800.5,-341.974 563.5,-341.974"/>
<polygon fill="none" stroke="#000000" points="563.5,-341.974 563.5,-363.974 800.5,-363.974 800.5,-341.974 563.5,-341.974"/>
<image xlink:href="../../images/foreignKeys.png" width="11px" height="12px" preserveAspectRatio="xMinYMin meet" x="568.5" y="-358.974"/>
<text text-anchor="start" x="592.5" y="-349.074" font-family="Helvetica,sans-Serif" font-size="11.00" fill="#000000">person_identifier</text>
<polygon fill="none" stroke="#000000" points="563.5,-319.974 563.5,-341.974 800.5,-341.974 800.5,-319.974 563.5,-319.974"/>
<image xlink:href="../../images/foreignKeys.png" width="11px" height="12px" preserveAspectRatio="xMinYMin meet" x="568.5" y="-336.974"/>
<text text-anchor="start" x="592.5" y="-327.074" font-family="Helvetica,sans-Serif" font-size="11.00" fill="#000000">reason_id</text>
<polygon fill="#ffffff" stroke="transparent" points="563.5,-297.974 563.5,-319.974 800.5,-319.974 800.5,-297.974 563.5,-297.974"/>
<polygon fill="none" stroke="#000000" points="563.5,-297.974 563.5,-319.974 800.5,-319.974 800.5,-297.974 563.5,-297.974"/>
<text text-anchor="start" x="592.5" y="-305.074" font-family="Helvetica,sans-Serif" font-size="11.00" fill="#000000">legacy_id</text>
<polygon fill="none" stroke="#000000" points="563.5,-278.974 563.5,-297.974 800.5,-297.974 800.5,-278.974 563.5,-278.974"/>
<text text-anchor="start" x="566.5" y="-285.074" font-family="Helvetica,sans-Serif" font-size="11.00" fill="#000000">...</text>
<polygon fill="#ffffff" stroke="transparent" points="563.5,-259.974 563.5,-278.974 680.5,-278.974 680.5,-259.974 563.5,-259.974"/>
<polygon fill="none" stroke="#000000" points="563.5,-259.974 563.5,-278.974 680.5,-278.974 680.5,-259.974 563.5,-259.974"/>
<text text-anchor="start" x="566.5" y="-266.074" font-family="Helvetica,sans-Serif" font-size="11.00" fill="#000000">&lt; 3</text>
<polygon fill="#ffffff" stroke="transparent" points="680.5,-259.974 680.5,-278.974 740.5,-278.974 740.5,-259.974 680.5,-259.974"/>
<polygon fill="none" stroke="#000000" points="680.5,-259.974 680.5,-278.974 740.5,-278.974 740.5,-259.974 680.5,-259.974"/>
<text text-anchor="start" x="731.3862" y="-266.074" font-family="Helvetica,sans-Serif" font-size="11.00" fill="#000000"> &#160;</text>
<polygon fill="#ffffff" stroke="transparent" points="740.5,-259.974 740.5,-278.974 800.5,-278.974 800.5,-259.974 740.5,-259.974"/>
<polygon fill="none" stroke="#000000" points="740.5,-259.974 740.5,-278.974 800.5,-278.974 800.5,-259.974 740.5,-259.974"/>
<text text-anchor="start" x="791.3862" y="-266.074" font-family="Helvetica,sans-Serif" font-size="11.00" fill="#000000"> &#160;</text>
</a>
</g>
</g>
<!-- court_appearance_movement&#45;&gt;court_appearance -->
<g id="edge4" class="edge">
<title>court_appearance_movement:w&#45;&gt;court_appearance:e</title>
<path fill="none" stroke="#000000" d="M549.0156,-374.974C536.6771,-374.974 529.1667,-374.974 512,-374.974"/>
<polygon fill="#000000" stroke="#000000" points="555.5,-374.9741 563.5,-378.574 559.5,-374.974 563.5,-374.974 563.5,-374.974 563.5,-374.974 559.5,-374.974 563.5,-371.374 555.5,-374.9741 555.5,-374.9741"/>
<ellipse fill="none" stroke="#000000" cx="552.3" cy="-374.9741" rx="3.2" ry="3.2"/>
</g>
<!-- court_appearance_movement&#45;&gt;person_summary -->
<g id="edge5" class="edge">
<title>court_appearance_movement:w&#45;&gt;person_summary:e</title>
<path fill="none" stroke="#000000" d="M549.4558,-357.4573C535.0281,-370.3501 547.5531,-407.5241 522,-421.974 420.6395,-479.2921 376.2031,-429.4667 260,-421.974 228.9177,-419.9699 221.6468,-412.974 190.5,-412.974"/>
<polygon fill="#000000" stroke="#000000" points="555.8789,-355.4069 564.5948,-356.4035 559.6894,-354.1905 563.5,-352.974 563.5,-352.974 563.5,-352.974 559.6894,-354.1905 562.4052,-349.5445 555.8789,-355.4069 555.8789,-355.4069"/>
<ellipse fill="none" stroke="#000000" cx="552.8304" cy="-356.38" rx="3.2" ry="3.2"/>
</g>
<!-- court_appearance_movement&#45;&gt;court_appearance_reason -->
<g id="edge6" class="edge">
<title>court_appearance_movement:w&#45;&gt;court_appearance_reason:e</title>
<path fill="none" stroke="#000000" d="M548.8813,-329.687C469.476,-313.8701 600.8985,-156.4475 522,-89.974 432.9485,-14.9464 350.249,-16.3913 260,-89.974 190.7218,-146.4586 308.8867,-286.974 219.5,-286.974"/>
<polygon fill="#000000" stroke="#000000" points="555.5308,-330.2724 563.1842,-334.5601 559.5154,-330.6232 563.5,-330.974 563.5,-330.974 563.5,-330.974 559.5154,-330.6232 563.8158,-327.3879 555.5308,-330.2724 555.5308,-330.2724"/>
<ellipse fill="none" stroke="#000000" cx="552.3432" cy="-329.9917" rx="3.2" ry="3.2"/>
</g>
</g>
</svg>
