<?xml version="1.0" encoding="UTF-8" standalone="no"?>
<!DOCTYPE svg PUBLIC "-//W3C//DTD SVG 1.1//EN"
 "http://www.w3.org/Graphics/SVG/1.1/DTD/svg11.dtd">
<!-- Generated by graphviz version 2.40.1 (20161225.0304)
 -->
<!-- Title: oneDegreeRelationshipsDiagramImplied Pages: 1 -->
<svg width="816pt" height="560pt"
 viewBox="0.00 0.00 816.00 560.28" xmlns="http://www.w3.org/2000/svg" xmlns:xlink="http://www.w3.org/1999/xlink">
<g id="graph0" class="graph" transform="scale(1 1) rotate(0) translate(4 556.2832)">
<title>oneDegreeRelationshipsDiagramImplied</title>
<polygon fill="#ffffff" stroke="transparent" points="-4,4 -4,-556.2832 812,-556.2832 812,4 -4,4"/>
<text text-anchor="middle" x="72.4936" y="-7.3" font-family="Helvetica,sans-Serif" font-size="11.00" fill="#000000">Generated by SchemaSpy</text>
<!-- court_appearance -->
<g id="node1" class="node">
<title>court_appearance</title>
<g id="a_node1"><a xlink:href="../../tables/court_appearance.html" xlink:title="court_appearance" target="_top">
<polygon fill="#ffffff" stroke="transparent" points="268,-179.7 268,-511.7 514,-511.7 514,-179.7 268,-179.7"/>
<polygon fill="#f5f5f5" stroke="transparent" points="270,-486.7 270,-509.7 512,-509.7 512,-486.7 270,-486.7"/>
<polygon fill="none" stroke="#000000" points="270,-486.7 270,-509.7 512,-509.7 512,-486.7 270,-486.7"/>
<text text-anchor="start" x="275" y="-495.3" font-family="Helvetica,sans-Serif" font-weight="bold" font-size="11.00" fill="#000000">court_appearance</text>
<text text-anchor="start" x="477.0437" y="-494.8" font-family="Helvetica,sans-Serif" font-size="11.00" fill="#000000">[table]</text>
<polygon fill="none" stroke="#000000" points="270,-464.7 270,-486.7 418,-486.7 418,-464.7 270,-464.7"/>
<image xlink:href="../../images/primaryKeys.png" width="11px" height="12px" preserveAspectRatio="xMinYMin meet" x="275" y="-481.7"/>
<text text-anchor="start" x="290" y="-471.8" font-family="Helvetica,sans-Serif" font-size="11.00" fill="#000000">id</text>
<polygon fill="none" stroke="#000000" points="418,-464.7 418,-486.7 512,-486.7 512,-464.7 418,-464.7"/>
<text text-anchor="start" x="420.9758" y="-472.4" font-family="Helvetica,sans-Serif" font-size="11.00" fill="#000000">uuid[2147483647]</text>
<polygon fill="none" stroke="#000000" points="270,-442.7 270,-464.7 418,-464.7 418,-442.7 270,-442.7"/>
<text text-anchor="start" x="290" y="-449.8" font-family="Helvetica,sans-Serif" font-size="11.00" fill="#000000">version</text>
<polygon fill="none" stroke="#000000" points="418,-442.7 418,-464.7 512,-464.7 512,-442.7 418,-442.7"/>
<text text-anchor="start" x="421" y="-450.4" font-family="Helvetica,sans-Serif" font-size="11.00" fill="#000000">int4[10]</text>
<polygon fill="#ffffff" stroke="transparent" points="270,-420.7 270,-442.7 418,-442.7 418,-420.7 270,-420.7"/>
<polygon fill="none" stroke="#000000" points="270,-420.7 270,-442.7 418,-442.7 418,-420.7 270,-420.7"/>
<image xlink:href="../../images/foreignKeys.png" width="11px" height="12px" preserveAspectRatio="xMinYMin meet" x="275" y="-437.7"/>
<text text-anchor="start" x="290" y="-427.8" font-family="Helvetica,sans-Serif" font-size="11.00" fill="#000000">person_identifier</text>
<polygon fill="none" stroke="#000000" points="418,-420.7 418,-442.7 512,-442.7 512,-420.7 418,-420.7"/>
<text text-anchor="start" x="421" y="-428.4" font-family="Helvetica,sans-Serif" font-size="11.00" fill="#000000">varchar[10]</text>
<polygon fill="#ffffff" stroke="transparent" points="270,-398.7 270,-420.7 418,-420.7 418,-398.7 270,-398.7"/>
<polygon fill="none" stroke="#000000" points="270,-398.7 270,-420.7 418,-420.7 418,-398.7 270,-398.7"/>
<text text-anchor="start" x="290" y="-405.8" font-family="Helvetica,sans-Serif" font-size="11.00" fill="#000000">prison_code</text>
<polygon fill="none" stroke="#000000" points="418,-398.7 418,-420.7 512,-420.7 512,-398.7 418,-398.7"/>
<text text-anchor="start" x="421" y="-406.4" font-family="Helvetica,sans-Serif" font-size="11.00" fill="#000000">varchar[6]</text>
<polygon fill="none" stroke="#000000" points="270,-376.7 270,-398.7 418,-398.7 418,-376.7 270,-376.7"/>
<text text-anchor="start" x="290" y="-383.8" font-family="Helvetica,sans-Serif" font-size="11.00" fill="#000000">court_code</text>
<polygon fill="none" stroke="#000000" points="418,-376.7 418,-398.7 512,-398.7 512,-376.7 418,-376.7"/>
<text text-anchor="start" x="421" y="-384.4" font-family="Helvetica,sans-Serif" font-size="11.00" fill="#000000">varchar[6]</text>
<polygon fill="#ffffff" stroke="transparent" points="270,-354.7 270,-376.7 418,-376.7 418,-354.7 270,-354.7"/>
<polygon fill="none" stroke="#000000" points="270,-354.7 270,-376.7 418,-376.7 418,-354.7 270,-354.7"/>
<image xlink:href="../../images/foreignKeys.png" width="11px" height="12px" preserveAspectRatio="xMinYMin meet" x="275" y="-371.7"/>
<text text-anchor="start" x="290" y="-361.8" font-family="Helvetica,sans-Serif" font-size="11.00" fill="#000000">reason_id</text>
<polygon fill="none" stroke="#000000" points="418,-354.7 418,-376.7 512,-376.7 512,-354.7 418,-354.7"/>
<text text-anchor="start" x="420.9758" y="-362.4" font-family="Helvetica,sans-Serif" font-size="11.00" fill="#000000">uuid[2147483647]</text>
<polygon fill="none" stroke="#000000" points="270,-332.7 270,-354.7 418,-354.7 418,-332.7 270,-332.7"/>
<text text-anchor="start" x="290" y="-339.8" font-family="Helvetica,sans-Serif" font-size="11.00" fill="#000000">external</text>
<polygon fill="none" stroke="#000000" points="418,-332.7 418,-354.7 512,-354.7 512,-332.7 418,-332.7"/>
<text text-anchor="start" x="421" y="-340.4" font-family="Helvetica,sans-Serif" font-size="11.00" fill="#000000">bool[1]</text>
<polygon fill="#ffffff" stroke="transparent" points="270,-310.7 270,-332.7 418,-332.7 418,-310.7 270,-310.7"/>
<polygon fill="none" stroke="#000000" points="270,-310.7 270,-332.7 418,-332.7 418,-310.7 270,-310.7"/>
<image xlink:href="../../images/foreignKeys.png" width="11px" height="12px" preserveAspectRatio="xMinYMin meet" x="275" y="-327.7"/>
<text text-anchor="start" x="290" y="-317.8" font-family="Helvetica,sans-Serif" font-size="11.00" fill="#000000">status_id</text>
<polygon fill="none" stroke="#000000" points="418,-310.7 418,-332.7 512,-332.7 512,-310.7 418,-310.7"/>
<text text-anchor="start" x="420.9758" y="-318.4" font-family="Helvetica,sans-Serif" font-size="11.00" fill="#000000">uuid[2147483647]</text>
<polygon fill="#ffffff" stroke="transparent" points="270,-288.7 270,-310.7 418,-310.7 418,-288.7 270,-288.7"/>
<polygon fill="none" stroke="#000000" points="270,-288.7 270,-310.7 418,-310.7 418,-288.7 270,-288.7"/>
<text text-anchor="start" x="290" y="-295.8" font-family="Helvetica,sans-Serif" font-size="11.00" fill="#000000">start</text>
<polygon fill="none" stroke="#000000" points="418,-288.7 418,-310.7 512,-310.7 512,-288.7 418,-288.7"/>
<text text-anchor="start" x="421" y="-296.4" font-family="Helvetica,sans-Serif" font-size="11.00" fill="#000000">timestamp[29,6]</text>
<polygon fill="none" stroke="#000000" points="270,-266.7 270,-288.7 418,-288.7 418,-266.7 270,-266.7"/>
<text text-anchor="start" x="290" y="-273.8" font-family="Helvetica,sans-Serif" font-size="11.00" fill="#000000">end</text>
<polygon fill="none" stroke="#000000" points="418,-266.7 418,-288.7 512,-288.7 512,-266.7 418,-266.7"/>
<text text-anchor="start" x="421" y="-274.4" font-family="Helvetica,sans-Serif" font-size="11.00" fill="#000000">timestamp[29,6]</text>
<polygon fill="none" stroke="#000000" points="270,-244.7 270,-266.7 418,-266.7 418,-244.7 270,-244.7"/>
<text text-anchor="start" x="290" y="-251.8" font-family="Helvetica,sans-Serif" font-size="11.00" fill="#000000">comments</text>
<polygon fill="none" stroke="#000000" points="418,-244.7 418,-266.7 512,-266.7 512,-244.7 418,-244.7"/>
<text text-anchor="start" x="421" y="-252.4" font-family="Helvetica,sans-Serif" font-size="11.00" fill="#000000">text[2147483647]</text>
<polygon fill="#ffffff" stroke="transparent" points="270,-222.7 270,-244.7 418,-244.7 418,-222.7 270,-222.7"/>
<polygon fill="none" stroke="#000000" points="270,-222.7 270,-244.7 418,-244.7 418,-222.7 270,-222.7"/>
<image xlink:href="../../images/foreignKeys.png" width="11px" height="12px" preserveAspectRatio="xMinYMin meet" x="275" y="-239.7"/>
<text text-anchor="start" x="290" y="-229.8" font-family="Helvetica,sans-Serif" font-size="11.00" fill="#000000">legacy_id</text>
<polygon fill="none" stroke="#000000" points="418,-222.7 418,-244.7 512,-244.7 512,-222.7 418,-222.7"/>
<text text-anchor="start" x="421" y="-230.4" font-family="Helvetica,sans-Serif" font-size="11.00" fill="#000000">int8[19]</text>
<polygon fill="#ffffff" stroke="transparent" points="270,-200.7 270,-222.7 418,-222.7 418,-200.7 270,-200.7"/>
<polygon fill="none" stroke="#000000" points="270,-200.7 270,-222.7 418,-222.7 418,-200.7 270,-200.7"/>
<text text-anchor="start" x="290" y="-207.8" font-family="Helvetica,sans-Serif" font-size="11.00" fill="#000000">external_reference</text>
<polygon fill="none" stroke="#000000" points="418,-200.7 418,-222.7 512,-222.7 512,-200.7 418,-200.7"/>
<text text-anchor="start" x="421" y="-208.4" font-family="Helvetica,sans-Serif" font-size="11.00" fill="#000000">text[2147483647]</text>
<polygon fill="#ffffff" stroke="transparent" points="270,-181.7 270,-200.7 348,-200.7 348,-181.7 270,-181.7"/>
<polygon fill="none" stroke="#000000" points="270,-181.7 270,-200.7 348,-200.7 348,-181.7 270,-181.7"/>
<text text-anchor="start" x="273" y="-187.8" font-family="Helvetica,sans-Serif" font-size="11.00" fill="#000000">&lt; 4</text>
<polygon fill="#ffffff" stroke="transparent" points="348,-181.7 348,-200.7 418,-200.7 418,-181.7 348,-181.7"/>
<polygon fill="none" stroke="#000000" points="348,-181.7 348,-200.7 418,-200.7 418,-181.7 348,-181.7"/>
<text text-anchor="start" x="408.8862" y="-187.8" font-family="Helvetica,sans-Serif" font-size="11.00" fill="#000000"> &#160;</text>
<polygon fill="#ffffff" stroke="transparent" points="418,-181.7 418,-200.7 512,-200.7 512,-181.7 418,-181.7"/>
<polygon fill="none" stroke="#000000" points="418,-181.7 418,-200.7 512,-200.7 512,-181.7 418,-181.7"/>
<text text-anchor="start" x="493.4053" y="-187.8" font-family="Helvetica,sans-Serif" font-size="11.00" fill="#000000">1 &gt;</text>
<polygon fill="none" stroke="#000000" stroke-width="2" points="269,-180.7 269,-510.7 513,-510.7 513,-180.7 269,-180.7"/>
</a>
</g>
</g>
<!-- audit_revision -->
<g id="node2" class="node">
<title>audit_revision</title>
<g id="a_node2"><a xlink:href="../../tables/audit_revision.html" xlink:title="audit_revision" target="_top">
<polygon fill="#ffffff" stroke="transparent" points="46.5,-38.2 46.5,-121.2 180.5,-121.2 180.5,-38.2 46.5,-38.2"/>
<polygon fill="#f5f5f5" stroke="transparent" points="46.5,-97.7 46.5,-120.7 180.5,-120.7 180.5,-97.7 46.5,-97.7"/>
<polygon fill="none" stroke="#000000" points="46.5,-97.7 46.5,-120.7 180.5,-120.7 180.5,-97.7 46.5,-97.7"/>
<text text-anchor="start" x="51.5" y="-106.3" font-family="Helvetica,sans-Serif" font-weight="bold" font-size="11.00" fill="#000000">audit_revision</text>
<text text-anchor="start" x="146.0219" y="-105.8" font-family="Helvetica,sans-Serif" font-size="11.00" fill="#000000">[table]</text>
<polygon fill="none" stroke="#000000" points="46.5,-75.7 46.5,-97.7 180.5,-97.7 180.5,-75.7 46.5,-75.7"/>
<image xlink:href="../../images/primaryKeys.png" width="11px" height="12px" preserveAspectRatio="xMinYMin meet" x="51.5" y="-92.7"/>
<text text-anchor="start" x="66.5" y="-82.8" font-family="Helvetica,sans-Serif" font-size="11.00" fill="#000000">id</text>
<polygon fill="none" stroke="#000000" points="46.5,-56.7 46.5,-75.7 180.5,-75.7 180.5,-56.7 46.5,-56.7"/>
<text text-anchor="start" x="49.5" y="-62.8" font-family="Helvetica,sans-Serif" font-size="11.00" fill="#000000">...</text>
<polygon fill="#ffffff" stroke="transparent" points="46.5,-37.7 46.5,-56.7 102.5,-56.7 102.5,-37.7 46.5,-37.7"/>
<polygon fill="none" stroke="#000000" points="46.5,-37.7 46.5,-56.7 102.5,-56.7 102.5,-37.7 46.5,-37.7"/>
<text text-anchor="start" x="49.5" y="-43.8" font-family="Helvetica,sans-Serif" font-size="11.00" fill="#000000"> &#160;</text>
<polygon fill="#ffffff" stroke="transparent" points="102.5,-37.7 102.5,-56.7 136.5,-56.7 136.5,-37.7 102.5,-37.7"/>
<polygon fill="none" stroke="#000000" points="102.5,-37.7 102.5,-56.7 136.5,-56.7 136.5,-37.7 102.5,-37.7"/>
<text text-anchor="start" x="127.3862" y="-43.8" font-family="Helvetica,sans-Serif" font-size="11.00" fill="#000000"> &#160;</text>
<polygon fill="#ffffff" stroke="transparent" points="136.5,-37.7 136.5,-56.7 180.5,-56.7 180.5,-37.7 136.5,-37.7"/>
<polygon fill="none" stroke="#000000" points="136.5,-37.7 136.5,-56.7 180.5,-56.7 180.5,-37.7 136.5,-37.7"/>
<text text-anchor="start" x="161.9053" y="-43.8" font-family="Helvetica,sans-Serif" font-size="11.00" fill="#000000">4 &gt;</text>
</a>
</g>
</g>
<!-- court_appearance&#45;&gt;audit_revision -->
<g id="edge1" class="edge">
<title>court_appearance:w&#45;&gt;audit_revision:e</title>
<path fill="none" stroke="#000000" stroke-dasharray="5,2" d="M259.4922,-232.5058C225.9639,-223.7656 252.514,-168.9637 227,-131.7 210.7522,-107.9698 209.2595,-86.7 180.5,-86.7"/>
<polygon fill="#000000" stroke="#000000" points="269.6569,-229.6352 268.7534,-237.5841 267.1636,-237.4034 268.0671,-229.4545 269.6569,-229.6352"/>
<polyline fill="none" stroke="#000000" points="270,-233.7 266.0256,-233.2483 "/>
<ellipse fill="none" stroke="#000000" cx="262.8461" cy="-232.8869" rx="3.2" ry="3.2"/>
</g>
<!-- person_summary -->
<g id="node3" class="node">
<title>person_summary</title>
<g id="a_node3"><a xlink:href="../../tables/person_summary.html" xlink:title="person_summary" target="_top">
<polygon fill="#ffffff" stroke="transparent" points="36.5,-454.2 36.5,-537.2 190.5,-537.2 190.5,-454.2 36.5,-454.2"/>
<polygon fill="#f5f5f5" stroke="transparent" points="36.5,-513.7 36.5,-536.7 190.5,-536.7 190.5,-513.7 36.5,-513.7"/>
<polygon fill="none" stroke="#000000" points="36.5,-513.7 36.5,-536.7 190.5,-536.7 190.5,-513.7 36.5,-513.7"/>
<text text-anchor="start" x="41.5" y="-522.3" font-family="Helvetica,sans-Serif" font-weight="bold" font-size="11.00" fill="#000000">person_summary</text>
<text text-anchor="start" x="156.0219" y="-521.8" font-family="Helvetica,sans-Serif" font-size="11.00" fill="#000000">[table]</text>
<polygon fill="none" stroke="#000000" points="36.5,-491.7 36.5,-513.7 190.5,-513.7 190.5,-491.7 36.5,-491.7"/>
<image xlink:href="../../images/primaryKeys.png" width="11px" height="12px" preserveAspectRatio="xMinYMin meet" x="41.5" y="-508.7"/>
<text text-anchor="start" x="65.5" y="-498.8" font-family="Helvetica,sans-Serif" font-size="11.00" fill="#000000">person_identifier</text>
<polygon fill="none" stroke="#000000" points="36.5,-472.7 36.5,-491.7 190.5,-491.7 190.5,-472.7 36.5,-472.7"/>
<text text-anchor="start" x="39.5" y="-478.8" font-family="Helvetica,sans-Serif" font-size="11.00" fill="#000000">...</text>
<polygon fill="#ffffff" stroke="transparent" points="36.5,-453.7 36.5,-472.7 102.5,-472.7 102.5,-453.7 36.5,-453.7"/>
<polygon fill="none" stroke="#000000" points="36.5,-453.7 36.5,-472.7 102.5,-472.7 102.5,-453.7 36.5,-453.7"/>
<text text-anchor="start" x="39.5" y="-459.8" font-family="Helvetica,sans-Serif" font-size="11.00" fill="#000000"> &#160;</text>
<polygon fill="#ffffff" stroke="transparent" points="102.5,-453.7 102.5,-472.7 141.5,-472.7 141.5,-453.7 102.5,-453.7"/>
<polygon fill="none" stroke="#000000" points="102.5,-453.7 102.5,-472.7 141.5,-472.7 141.5,-453.7 102.5,-453.7"/>
<text text-anchor="start" x="132.3862" y="-459.8" font-family="Helvetica,sans-Serif" font-size="11.00" fill="#000000"> &#160;</text>
<polygon fill="#ffffff" stroke="transparent" points="141.5,-453.7 141.5,-472.7 190.5,-472.7 190.5,-453.7 141.5,-453.7"/>
<polygon fill="none" stroke="#000000" points="141.5,-453.7 141.5,-472.7 190.5,-472.7 190.5,-453.7 141.5,-453.7"/>
<text text-anchor="start" x="171.9053" y="-459.8" font-family="Helvetica,sans-Serif" font-size="11.00" fill="#000000">2 &gt;</text>
</a>
</g>
</g>
<!-- court_appearance&#45;&gt;person_summary -->
<g id="edge2" class="edge">
<title>court_appearance:w&#45;&gt;person_summary:e</title>
<path fill="none" stroke="#000000" d="M255.7237,-434.3966C225.3404,-447.3656 232.3214,-502.7 190.5,-502.7"/>
<polygon fill="#000000" stroke="#000000" points="262.139,-433.1849 270.6682,-435.2374 266.0695,-432.4424 270,-431.7 270,-431.7 270,-431.7 266.0695,-432.4424 269.3318,-428.1626 262.139,-433.1849 262.139,-433.1849"/>
<ellipse fill="none" stroke="#000000" cx="258.9946" cy="-433.7788" rx="3.2" ry="3.2"/>
</g>
<!-- court_appearance_reason -->
<g id="node4" class="node">
<title>court_appearance_reason</title>
<g id="a_node4"><a xlink:href="../../tables/court_appearance_reason.html" xlink:title="court_appearance_reason" target="_top">
<polygon fill="#ffffff" stroke="transparent" points="8,-290.2 8,-417.2 219,-417.2 219,-290.2 8,-290.2"/>
<polygon fill="#f5f5f5" stroke="transparent" points="8.5,-393.7 8.5,-416.7 219.5,-416.7 219.5,-393.7 8.5,-393.7"/>
<polygon fill="none" stroke="#000000" points="8.5,-393.7 8.5,-416.7 219.5,-416.7 219.5,-393.7 8.5,-393.7"/>
<text text-anchor="start" x="13.5" y="-402.3" font-family="Helvetica,sans-Serif" font-weight="bold" font-size="11.00" fill="#000000">court_appearance_reason</text>
<text text-anchor="start" x="185.0219" y="-401.8" font-family="Helvetica,sans-Serif" font-size="11.00" fill="#000000">[table]</text>
<polygon fill="none" stroke="#000000" points="8.5,-371.7 8.5,-393.7 219.5,-393.7 219.5,-371.7 8.5,-371.7"/>
<image xlink:href="../../images/primaryKeys.png" width="11px" height="12px" preserveAspectRatio="xMinYMin meet" x="13.5" y="-388.7"/>
<text text-anchor="start" x="37.5" y="-378.8" font-family="Helvetica,sans-Serif" font-size="11.00" fill="#000000">id</text>
<polygon fill="#ffffff" stroke="transparent" points="8.5,-349.7 8.5,-371.7 219.5,-371.7 219.5,-349.7 8.5,-349.7"/>
<polygon fill="none" stroke="#000000" points="8.5,-349.7 8.5,-371.7 219.5,-371.7 219.5,-349.7 8.5,-349.7"/>
<text text-anchor="start" x="37.5" y="-356.8" font-family="Helvetica,sans-Serif" font-size="11.00" fill="#000000">code</text>
<polygon fill="#ffffff" stroke="transparent" points="8.5,-327.7 8.5,-349.7 219.5,-349.7 219.5,-327.7 8.5,-327.7"/>
<polygon fill="none" stroke="#000000" points="8.5,-327.7 8.5,-349.7 219.5,-349.7 219.5,-327.7 8.5,-327.7"/>
<text text-anchor="start" x="37.5" y="-334.8" font-family="Helvetica,sans-Serif" font-size="11.00" fill="#000000">sequence_number</text>
<polygon fill="none" stroke="#000000" points="8.5,-308.7 8.5,-327.7 219.5,-327.7 219.5,-308.7 8.5,-308.7"/>
<text text-anchor="start" x="11.5" y="-314.8" font-family="Helvetica,sans-Serif" font-size="11.00" fill="#000000">...</text>
<polygon fill="#ffffff" stroke="transparent" points="8.5,-289.7 8.5,-308.7 103.5,-308.7 103.5,-289.7 8.5,-289.7"/>
<polygon fill="none" stroke="#000000" points="8.5,-289.7 8.5,-308.7 103.5,-308.7 103.5,-289.7 8.5,-289.7"/>
<text text-anchor="start" x="11.5" y="-295.8" font-family="Helvetica,sans-Serif" font-size="11.00" fill="#000000"> &#160;</text>
<polygon fill="#ffffff" stroke="transparent" points="103.5,-289.7 103.5,-308.7 156.5,-308.7 156.5,-289.7 103.5,-289.7"/>
<polygon fill="none" stroke="#000000" points="103.5,-289.7 103.5,-308.7 156.5,-308.7 156.5,-289.7 103.5,-289.7"/>
<text text-anchor="start" x="147.3862" y="-295.8" font-family="Helvetica,sans-Serif" font-size="11.00" fill="#000000"> &#160;</text>
<polygon fill="#ffffff" stroke="transparent" points="156.5,-289.7 156.5,-308.7 219.5,-308.7 219.5,-289.7 156.5,-289.7"/>
<polygon fill="none" stroke="#000000" points="156.5,-289.7 156.5,-308.7 219.5,-308.7 219.5,-289.7 156.5,-289.7"/>
<text text-anchor="start" x="200.9053" y="-295.8" font-family="Helvetica,sans-Serif" font-size="11.00" fill="#000000">2 &gt;</text>
</a>
</g>
</g>
<!-- court_appearance&#45;&gt;court_appearance_reason -->
<g id="edge3" class="edge">
<title>court_appearance:w&#45;&gt;court_appearance_reason:e</title>
<path fill="none" stroke="#000000" d="M255.4488,-368.3563C243.4659,-373.1375 237.2615,-382.7 219.5,-382.7"/>
<polygon fill="#000000" stroke="#000000" points="262.13,-367.1367 270.6465,-369.2415 266.065,-366.4183 270,-365.7 270,-365.7 270,-365.7 266.065,-366.4183 269.3535,-362.1585 262.13,-367.1367 262.13,-367.1367"/>
<ellipse fill="none" stroke="#000000" cx="258.9821" cy="-367.7113" rx="3.2" ry="3.2"/>
</g>
<!-- court_appearance_status -->
<g id="node5" class="node">
<title>court_appearance_status</title>
<g id="a_node5"><a xlink:href="../../tables/court_appearance_status.html" xlink:title="court_appearance_status" target="_top">
<polygon fill="#ffffff" stroke="transparent" points="9.5,-142.2 9.5,-269.2 217.5,-269.2 217.5,-142.2 9.5,-142.2"/>
<polygon fill="#f5f5f5" stroke="transparent" points="9.5,-245.7 9.5,-268.7 217.5,-268.7 217.5,-245.7 9.5,-245.7"/>
<polygon fill="none" stroke="#000000" points="9.5,-245.7 9.5,-268.7 217.5,-268.7 217.5,-245.7 9.5,-245.7"/>
<text text-anchor="start" x="14.5" y="-254.3" font-family="Helvetica,sans-Serif" font-weight="bold" font-size="11.00" fill="#000000">court_appearance_status</text>
<text text-anchor="start" x="183.0219" y="-253.8" font-family="Helvetica,sans-Serif" font-size="11.00" fill="#000000">[table]</text>
<polygon fill="none" stroke="#000000" points="9.5,-223.7 9.5,-245.7 217.5,-245.7 217.5,-223.7 9.5,-223.7"/>
<image xlink:href="../../images/primaryKeys.png" width="11px" height="12px" preserveAspectRatio="xMinYMin meet" x="14.5" y="-240.7"/>
<text text-anchor="start" x="38.5" y="-230.8" font-family="Helvetica,sans-Serif" font-size="11.00" fill="#000000">id</text>
<polygon fill="#ffffff" stroke="transparent" points="9.5,-201.7 9.5,-223.7 217.5,-223.7 217.5,-201.7 9.5,-201.7"/>
<polygon fill="none" stroke="#000000" points="9.5,-201.7 9.5,-223.7 217.5,-223.7 217.5,-201.7 9.5,-201.7"/>
<text text-anchor="start" x="38.5" y="-208.8" font-family="Helvetica,sans-Serif" font-size="11.00" fill="#000000">code</text>
<polygon fill="#ffffff" stroke="transparent" points="9.5,-179.7 9.5,-201.7 217.5,-201.7 217.5,-179.7 9.5,-179.7"/>
<polygon fill="none" stroke="#000000" points="9.5,-179.7 9.5,-201.7 217.5,-201.7 217.5,-179.7 9.5,-179.7"/>
<text text-anchor="start" x="38.5" y="-186.8" font-family="Helvetica,sans-Serif" font-size="11.00" fill="#000000">sequence_number</text>
<polygon fill="none" stroke="#000000" points="9.5,-160.7 9.5,-179.7 217.5,-179.7 217.5,-160.7 9.5,-160.7"/>
<text text-anchor="start" x="12.5" y="-166.8" font-family="Helvetica,sans-Serif" font-size="11.00" fill="#000000">...</text>
<polygon fill="#ffffff" stroke="transparent" points="9.5,-141.7 9.5,-160.7 102.5,-160.7 102.5,-141.7 9.5,-141.7"/>
<polygon fill="none" stroke="#000000" points="9.5,-141.7 9.5,-160.7 102.5,-160.7 102.5,-141.7 9.5,-141.7"/>
<text text-anchor="start" x="12.5" y="-147.8" font-family="Helvetica,sans-Serif" font-size="11.00" fill="#000000"> &#160;</text>
<polygon fill="#ffffff" stroke="transparent" points="102.5,-141.7 102.5,-160.7 155.5,-160.7 155.5,-141.7 102.5,-141.7"/>
<polygon fill="none" stroke="#000000" points="102.5,-141.7 102.5,-160.7 155.5,-160.7 155.5,-141.7 102.5,-141.7"/>
<text text-anchor="start" x="146.3862" y="-147.8" font-family="Helvetica,sans-Serif" font-size="11.00" fill="#000000"> &#160;</text>
<polygon fill="#ffffff" stroke="transparent" points="155.5,-141.7 155.5,-160.7 217.5,-160.7 217.5,-141.7 155.5,-141.7"/>
<polygon fill="none" stroke="#000000" points="155.5,-141.7 155.5,-160.7 217.5,-160.7 217.5,-141.7 155.5,-141.7"/>
<text text-anchor="start" x="198.9053" y="-147.8" font-family="Helvetica,sans-Serif" font-size="11.00" fill="#000000">1 &gt;</text>
</a>
</g>
</g>
<!-- court_appearance&#45;&gt;court_appearance_status -->
<g id="edge4" class="edge">
<title>court_appearance:w&#45;&gt;court_appearance_status:e</title>
<path fill="none" stroke="#000000" d="M256.0085,-317.5038C233.4215,-300.1252 256.6634,-234.7 217.5,-234.7"/>
<polygon fill="#000000" stroke="#000000" points="262.3372,-319.4018 268.9658,-325.1483 266.1686,-320.5509 270,-321.7 270,-321.7 270,-321.7 266.1686,-320.5509 271.0342,-318.2517 262.3372,-319.4018 262.3372,-319.4018"/>
<ellipse fill="none" stroke="#000000" cx="259.2721" cy="-318.4825" rx="3.2" ry="3.2"/>
</g>
<!-- court_appearance_movement -->
<g id="node6" class="node">
<title>court_appearance_movement</title>
<g id="a_node6"><a xlink:href="../../tables/court_appearance_movement.html" xlink:title="court_appearance_movement" target="_top">
<polygon fill="#ffffff" stroke="transparent" points="563,-361.2 563,-532.2 800,-532.2 800,-361.2 563,-361.2"/>
<polygon fill="#f5f5f5" stroke="transparent" points="563.5,-508.7 563.5,-531.7 800.5,-531.7 800.5,-508.7 563.5,-508.7"/>
<polygon fill="none" stroke="#000000" points="563.5,-508.7 563.5,-531.7 800.5,-531.7 800.5,-508.7 563.5,-508.7"/>
<text text-anchor="start" x="568.5" y="-517.3" font-family="Helvetica,sans-Serif" font-weight="bold" font-size="11.00" fill="#000000">court_appearance_movement</text>
<text text-anchor="start" x="766.0219" y="-516.8" font-family="Helvetica,sans-Serif" font-size="11.00" fill="#000000">[table]</text>
<polygon fill="none" stroke="#000000" points="563.5,-486.7 563.5,-508.7 800.5,-508.7 800.5,-486.7 563.5,-486.7"/>
<image xlink:href="../../images/primaryKeys.png" width="11px" height="12px" preserveAspectRatio="xMinYMin meet" x="568.5" y="-503.7"/>
<text text-anchor="start" x="592.5" y="-493.8" font-family="Helvetica,sans-Serif" font-size="11.00" fill="#000000">id</text>
<polygon fill="#ffffff" stroke="transparent" points="563.5,-464.7 563.5,-486.7 800.5,-486.7 800.5,-464.7 563.5,-464.7"/>
<polygon fill="none" stroke="#000000" points="563.5,-464.7 563.5,-486.7 800.5,-486.7 800.5,-464.7 563.5,-464.7"/>
<image xlink:href="../../images/foreignKeys.png" width="11px" height="12px" preserveAspectRatio="xMinYMin meet" x="568.5" y="-481.7"/>
<text text-anchor="start" x="592.5" y="-471.8" font-family="Helvetica,sans-Serif" font-size="11.00" fill="#000000">court_appearance_id</text>
<polygon fill="#ffffff" stroke="transparent" points="563.5,-442.7 563.5,-464.7 800.5,-464.7 800.5,-442.7 563.5,-442.7"/>
<polygon fill="none" stroke="#000000" points="563.5,-442.7 563.5,-464.7 800.5,-464.7 800.5,-442.7 563.5,-442.7"/>
<image xlink:href="../../images/foreignKeys.png" width="11px" height="12px" preserveAspectRatio="xMinYMin meet" x="568.5" y="-459.7"/>
<text text-anchor="start" x="592.5" y="-449.8" font-family="Helvetica,sans-Serif" font-size="11.00" fill="#000000">person_identifier</text>
<polygon fill="none" stroke="#000000" points="563.5,-420.7 563.5,-442.7 800.5,-442.7 800.5,-420.7 563.5,-420.7"/>
<image xlink:href="../../images/foreignKeys.png" width="11px" height="12px" preserveAspectRatio="xMinYMin meet" x="568.5" y="-437.7"/>
<text text-anchor="start" x="592.5" y="-427.8" font-family="Helvetica,sans-Serif" font-size="11.00" fill="#000000">reason_id</text>
<polygon fill="#ffffff" stroke="transparent" points="563.5,-398.7 563.5,-420.7 800.5,-420.7 800.5,-398.7 563.5,-398.7"/>
<polygon fill="none" stroke="#000000" points="563.5,-398.7 563.5,-420.7 800.5,-420.7 800.5,-398.7 563.5,-398.7"/>
<text text-anchor="start" x="592.5" y="-405.8" font-family="Helvetica,sans-Serif" font-size="11.00" fill="#000000">legacy_id</text>
<polygon fill="none" stroke="#000000" points="563.5,-379.7 563.5,-398.7 800.5,-398.7 800.5,-379.7 563.5,-379.7"/>
<text text-anchor="start" x="566.5" y="-385.8" font-family="Helvetica,sans-Serif" font-size="11.00" fill="#000000">...</text>
<polygon fill="#ffffff" stroke="transparent" points="563.5,-360.7 563.5,-379.7 680.5,-379.7 680.5,-360.7 563.5,-360.7"/>
<polygon fill="none" stroke="#000000" points="563.5,-360.7 563.5,-379.7 680.5,-379.7 680.5,-360.7 563.5,-360.7"/>
<text text-anchor="start" x="566.5" y="-366.8" font-family="Helvetica,sans-Serif" font-size="11.00" fill="#000000">&lt; 3</text>
<polygon fill="#ffffff" stroke="transparent" points="680.5,-360.7 680.5,-379.7 740.5,-379.7 740.5,-360.7 680.5,-360.7"/>
<polygon fill="none" stroke="#000000" points="680.5,-360.7 680.5,-379.7 740.5,-379.7 740.5,-360.7 680.5,-360.7"/>
<text text-anchor="start" x="731.3862" y="-366.8" font-family="Helvetica,sans-Serif" font-size="11.00" fill="#000000"> &#160;</text>
<polygon fill="#ffffff" stroke="transparent" points="740.5,-360.7 740.5,-379.7 800.5,-379.7 800.5,-360.7 740.5,-360.7"/>
<polygon fill="none" stroke="#000000" points="740.5,-360.7 740.5,-379.7 800.5,-379.7 800.5,-360.7 740.5,-360.7"/>
<text text-anchor="start" x="791.3862" y="-366.8" font-family="Helvetica,sans-Serif" font-size="11.00" fill="#000000"> &#160;</text>
</a>
</g>
</g>
<!-- court_appearance_movement&#45;&gt;court_appearance -->
<g id="edge5" class="edge">
<title>court_appearance_movement:w&#45;&gt;court_appearance:e</title>
<path fill="none" stroke="#000000" d="M549.0156,-475.7C536.6771,-475.7 529.1667,-475.7 512,-475.7"/>
<polygon fill="#000000" stroke="#000000" points="555.5,-475.7001 563.5,-479.3 559.5,-475.7 563.5,-475.7 563.5,-475.7 563.5,-475.7 559.5,-475.7 563.5,-472.1 555.5,-475.7001 555.5,-475.7001"/>
<ellipse fill="none" stroke="#000000" cx="552.3" cy="-475.7001" rx="3.2" ry="3.2"/>
</g>
<!-- court_appearance_movement&#45;&gt;person_summary -->
<g id="edge6" class="edge">
<title>court_appearance_movement:w&#45;&gt;person_summary:e</title>
<path fill="none" stroke="#000000" d="M549.4558,-458.1832C535.0281,-471.0761 547.5531,-508.2501 522,-522.7 420.6395,-580.0181 375.3035,-538.9605 260,-522.7 228.1725,-518.2116 222.6424,-502.7 190.5,-502.7"/>
<polygon fill="#000000" stroke="#000000" points="555.8789,-456.1329 564.5948,-457.1295 559.6894,-454.9164 563.5,-453.7 563.5,-453.7 563.5,-453.7 559.6894,-454.9164 562.4052,-450.2705 555.8789,-456.1329 555.8789,-456.1329"/>
<ellipse fill="none" stroke="#000000" cx="552.8304" cy="-457.106" rx="3.2" ry="3.2"/>
</g>
<!-- court_appearance_movement&#45;&gt;court_appearance_reason -->
<g id="edge7" class="edge">
<title>court_appearance_movement:w&#45;&gt;court_appearance_reason:e</title>
<path fill="none" stroke="#000000" d="M549.882,-426.1174C515.133,-391.2307 562.7634,-203.5355 522,-168.7 433.4767,-93.0499 349.668,-94.4102 260,-168.7 185.4597,-230.4565 316.2994,-382.7 219.5,-382.7"/>
<polygon fill="#000000" stroke="#000000" points="556.0978,-428.6655 562.1345,-435.031 559.7989,-430.1827 563.5,-431.7 563.5,-431.7 563.5,-431.7 559.7989,-430.1827 564.8655,-428.369 556.0978,-428.6655 556.0978,-428.6655"/>
<ellipse fill="none" stroke="#000000" cx="553.137" cy="-427.4517" rx="3.2" ry="3.2"/>
</g>
</g>
</svg>
