<?xml version="1.0" encoding="UTF-8" standalone="no"?>
<!DOCTYPE svg PUBLIC "-//W3C//DTD SVG 1.1//EN"
 "http://www.w3.org/Graphics/SVG/1.1/DTD/svg11.dtd">
<!-- Generated by graphviz version 2.40.1 (20161225.0304)
 -->
<!-- Title: twoDegreesRelationshipsDiagramImplied Pages: 1 -->
<svg width="848pt" height="607pt"
 viewBox="0.00 0.00 848.00 607.49" xmlns="http://www.w3.org/2000/svg" xmlns:xlink="http://www.w3.org/1999/xlink">
<g id="graph0" class="graph" transform="scale(1 1) rotate(0) translate(4 603.4892)">
<title>twoDegreesRelationshipsDiagramImplied</title>
<polygon fill="#ffffff" stroke="transparent" points="-4,4 -4,-603.4892 844,-603.4892 844,4 -4,4"/>
<text text-anchor="middle" x="72.4936" y="-7.3" font-family="Helvetica,sans-Serif" font-size="11.00" fill="#000000">Generated by SchemaSpy</text>
<!-- court_appearance -->
<g id="node1" class="node">
<title>court_appearance</title>
<g id="a_node1"><a xlink:href="../../tables/court_appearance.html" xlink:title="court_appearance" target="_top">
<polygon fill="#ffffff" stroke="transparent" points="287.5,-93.9892 287.5,-403.9892 526.5,-403.9892 526.5,-93.9892 287.5,-93.9892"/>
<polygon fill="#f5f5f5" stroke="transparent" points="290,-378.9892 290,-401.9892 525,-401.9892 525,-378.9892 290,-378.9892"/>
<polygon fill="none" stroke="#000000" points="290,-378.9892 290,-401.9892 525,-401.9892 525,-378.9892 290,-378.9892"/>
<text text-anchor="start" x="295" y="-387.5892" font-family="Helvetica,sans-Serif" font-weight="bold" font-size="11.00" fill="#000000">court_appearance</text>
<text text-anchor="start" x="490.0437" y="-387.0892" font-family="Helvetica,sans-Serif" font-size="11.00" fill="#000000">[table]</text>
<polygon fill="none" stroke="#000000" points="290,-356.9892 290,-378.9892 431,-378.9892 431,-356.9892 290,-356.9892"/>
<image xlink:href="../../images/primaryKeys.png" width="11px" height="12px" preserveAspectRatio="xMinYMin meet" x="295" y="-373.989"/>
<text text-anchor="start" x="310" y="-364.0892" font-family="Helvetica,sans-Serif" font-size="11.00" fill="#000000">id</text>
<polygon fill="none" stroke="#000000" points="431,-356.9892 431,-378.9892 525,-378.9892 525,-356.9892 431,-356.9892"/>
<text text-anchor="start" x="433.9758" y="-364.6892" font-family="Helvetica,sans-Serif" font-size="11.00" fill="#000000">uuid[2147483647]</text>
<polygon fill="none" stroke="#000000" points="290,-334.9892 290,-356.9892 431,-356.9892 431,-334.9892 290,-334.9892"/>
<text text-anchor="start" x="310" y="-342.0892" font-family="Helvetica,sans-Serif" font-size="11.00" fill="#000000">version</text>
<polygon fill="none" stroke="#000000" points="431,-334.9892 431,-356.9892 525,-356.9892 525,-334.9892 431,-334.9892"/>
<text text-anchor="start" x="434" y="-342.6892" font-family="Helvetica,sans-Serif" font-size="11.00" fill="#000000">int4[10]</text>
<polygon fill="#ffffff" stroke="transparent" points="290,-312.9892 290,-334.9892 431,-334.9892 431,-312.9892 290,-312.9892"/>
<polygon fill="none" stroke="#000000" points="290,-312.9892 290,-334.9892 431,-334.9892 431,-312.9892 290,-312.9892"/>
<image xlink:href="../../images/foreignKeys.png" width="11px" height="12px" preserveAspectRatio="xMinYMin meet" x="295" y="-329.989"/>
<text text-anchor="start" x="310" y="-320.0892" font-family="Helvetica,sans-Serif" font-size="11.00" fill="#000000">person_identifier</text>
<polygon fill="none" stroke="#000000" points="431,-312.9892 431,-334.9892 525,-334.9892 525,-312.9892 431,-312.9892"/>
<text text-anchor="start" x="434" y="-320.6892" font-family="Helvetica,sans-Serif" font-size="11.00" fill="#000000">varchar[10]</text>
<polygon fill="#ffffff" stroke="transparent" points="290,-290.9892 290,-312.9892 431,-312.9892 431,-290.9892 290,-290.9892"/>
<polygon fill="none" stroke="#000000" points="290,-290.9892 290,-312.9892 431,-312.9892 431,-290.9892 290,-290.9892"/>
<text text-anchor="start" x="310" y="-298.0892" font-family="Helvetica,sans-Serif" font-size="11.00" fill="#000000">prison_code</text>
<polygon fill="none" stroke="#000000" points="431,-290.9892 431,-312.9892 525,-312.9892 525,-290.9892 431,-290.9892"/>
<text text-anchor="start" x="434" y="-298.6892" font-family="Helvetica,sans-Serif" font-size="11.00" fill="#000000">varchar[6]</text>
<polygon fill="none" stroke="#000000" points="290,-268.9892 290,-290.9892 431,-290.9892 431,-268.9892 290,-268.9892"/>
<text text-anchor="start" x="310" y="-276.0892" font-family="Helvetica,sans-Serif" font-size="11.00" fill="#000000">court_code</text>
<polygon fill="none" stroke="#000000" points="431,-268.9892 431,-290.9892 525,-290.9892 525,-268.9892 431,-268.9892"/>
<text text-anchor="start" x="434" y="-276.6892" font-family="Helvetica,sans-Serif" font-size="11.00" fill="#000000">varchar[6]</text>
<polygon fill="#ffffff" stroke="transparent" points="290,-246.9892 290,-268.9892 431,-268.9892 431,-246.9892 290,-246.9892"/>
<polygon fill="none" stroke="#000000" points="290,-246.9892 290,-268.9892 431,-268.9892 431,-246.9892 290,-246.9892"/>
<image xlink:href="../../images/foreignKeys.png" width="11px" height="12px" preserveAspectRatio="xMinYMin meet" x="295" y="-263.989"/>
<text text-anchor="start" x="310" y="-254.0892" font-family="Helvetica,sans-Serif" font-size="11.00" fill="#000000">reason_id</text>
<polygon fill="none" stroke="#000000" points="431,-246.9892 431,-268.9892 525,-268.9892 525,-246.9892 431,-246.9892"/>
<text text-anchor="start" x="433.9758" y="-254.6892" font-family="Helvetica,sans-Serif" font-size="11.00" fill="#000000">uuid[2147483647]</text>
<polygon fill="none" stroke="#000000" points="290,-224.9892 290,-246.9892 431,-246.9892 431,-224.9892 290,-224.9892"/>
<text text-anchor="start" x="310" y="-232.0892" font-family="Helvetica,sans-Serif" font-size="11.00" fill="#000000">external</text>
<polygon fill="none" stroke="#000000" points="431,-224.9892 431,-246.9892 525,-246.9892 525,-224.9892 431,-224.9892"/>
<text text-anchor="start" x="434" y="-232.6892" font-family="Helvetica,sans-Serif" font-size="11.00" fill="#000000">bool[1]</text>
<polygon fill="#ffffff" stroke="transparent" points="290,-202.9892 290,-224.9892 431,-224.9892 431,-202.9892 290,-202.9892"/>
<polygon fill="none" stroke="#000000" points="290,-202.9892 290,-224.9892 431,-224.9892 431,-202.9892 290,-202.9892"/>
<image xlink:href="../../images/foreignKeys.png" width="11px" height="12px" preserveAspectRatio="xMinYMin meet" x="295" y="-219.989"/>
<text text-anchor="start" x="310" y="-210.0892" font-family="Helvetica,sans-Serif" font-size="11.00" fill="#000000">status_id</text>
<polygon fill="none" stroke="#000000" points="431,-202.9892 431,-224.9892 525,-224.9892 525,-202.9892 431,-202.9892"/>
<text text-anchor="start" x="433.9758" y="-210.6892" font-family="Helvetica,sans-Serif" font-size="11.00" fill="#000000">uuid[2147483647]</text>
<polygon fill="#ffffff" stroke="transparent" points="290,-180.9892 290,-202.9892 431,-202.9892 431,-180.9892 290,-180.9892"/>
<polygon fill="none" stroke="#000000" points="290,-180.9892 290,-202.9892 431,-202.9892 431,-180.9892 290,-180.9892"/>
<text text-anchor="start" x="310" y="-188.0892" font-family="Helvetica,sans-Serif" font-size="11.00" fill="#000000">start</text>
<polygon fill="none" stroke="#000000" points="431,-180.9892 431,-202.9892 525,-202.9892 525,-180.9892 431,-180.9892"/>
<text text-anchor="start" x="434" y="-188.6892" font-family="Helvetica,sans-Serif" font-size="11.00" fill="#000000">timestamp[29,6]</text>
<polygon fill="none" stroke="#000000" points="290,-158.9892 290,-180.9892 431,-180.9892 431,-158.9892 290,-158.9892"/>
<text text-anchor="start" x="310" y="-166.0892" font-family="Helvetica,sans-Serif" font-size="11.00" fill="#000000">end</text>
<polygon fill="none" stroke="#000000" points="431,-158.9892 431,-180.9892 525,-180.9892 525,-158.9892 431,-158.9892"/>
<text text-anchor="start" x="434" y="-166.6892" font-family="Helvetica,sans-Serif" font-size="11.00" fill="#000000">timestamp[29,6]</text>
<polygon fill="none" stroke="#000000" points="290,-136.9892 290,-158.9892 431,-158.9892 431,-136.9892 290,-136.9892"/>
<text text-anchor="start" x="310" y="-144.0892" font-family="Helvetica,sans-Serif" font-size="11.00" fill="#000000">comments</text>
<polygon fill="none" stroke="#000000" points="431,-136.9892 431,-158.9892 525,-158.9892 525,-136.9892 431,-136.9892"/>
<text text-anchor="start" x="434" y="-144.6892" font-family="Helvetica,sans-Serif" font-size="11.00" fill="#000000">text[2147483647]</text>
<polygon fill="#ffffff" stroke="transparent" points="290,-114.9892 290,-136.9892 431,-136.9892 431,-114.9892 290,-114.9892"/>
<polygon fill="none" stroke="#000000" points="290,-114.9892 290,-136.9892 431,-136.9892 431,-114.9892 290,-114.9892"/>
<image xlink:href="../../images/foreignKeys.png" width="11px" height="12px" preserveAspectRatio="xMinYMin meet" x="295" y="-131.989"/>
<text text-anchor="start" x="310" y="-122.0892" font-family="Helvetica,sans-Serif" font-size="11.00" fill="#000000">legacy_id</text>
<polygon fill="none" stroke="#000000" points="431,-114.9892 431,-136.9892 525,-136.9892 525,-114.9892 431,-114.9892"/>
<text text-anchor="start" x="434" y="-122.6892" font-family="Helvetica,sans-Serif" font-size="11.00" fill="#000000">int8[19]</text>
<polygon fill="#ffffff" stroke="transparent" points="290,-95.9892 290,-114.9892 365,-114.9892 365,-95.9892 290,-95.9892"/>
<polygon fill="none" stroke="#000000" points="290,-95.9892 290,-114.9892 365,-114.9892 365,-95.9892 290,-95.9892"/>
<text text-anchor="start" x="293" y="-102.0892" font-family="Helvetica,sans-Serif" font-size="11.00" fill="#000000">&lt; 4</text>
<polygon fill="#ffffff" stroke="transparent" points="365,-95.9892 365,-114.9892 431,-114.9892 431,-95.9892 365,-95.9892"/>
<polygon fill="none" stroke="#000000" points="365,-95.9892 365,-114.9892 431,-114.9892 431,-95.9892 365,-95.9892"/>
<text text-anchor="start" x="421.8862" y="-102.0892" font-family="Helvetica,sans-Serif" font-size="11.00" fill="#000000"> &#160;</text>
<polygon fill="#ffffff" stroke="transparent" points="431,-95.9892 431,-114.9892 525,-114.9892 525,-95.9892 431,-95.9892"/>
<polygon fill="none" stroke="#000000" points="431,-95.9892 431,-114.9892 525,-114.9892 525,-95.9892 431,-95.9892"/>
<text text-anchor="start" x="506.4053" y="-102.0892" font-family="Helvetica,sans-Serif" font-size="11.00" fill="#000000">1 &gt;</text>
<polygon fill="none" stroke="#000000" stroke-width="2" points="288.5,-94.9892 288.5,-402.9892 525.5,-402.9892 525.5,-94.9892 288.5,-94.9892"/>
</a>
</g>
</g>
<!-- audit_revision -->
<g id="node2" class="node">
<title>audit_revision</title>
<g id="a_node2"><a xlink:href="../../tables/audit_revision.html" xlink:title="audit_revision" target="_top">
<polygon fill="#ffffff" stroke="transparent" points="46.5,-504.4892 46.5,-587.4892 180.5,-587.4892 180.5,-504.4892 46.5,-504.4892"/>
<polygon fill="#f5f5f5" stroke="transparent" points="46.5,-563.9892 46.5,-586.9892 180.5,-586.9892 180.5,-563.9892 46.5,-563.9892"/>
<polygon fill="none" stroke="#000000" points="46.5,-563.9892 46.5,-586.9892 180.5,-586.9892 180.5,-563.9892 46.5,-563.9892"/>
<text text-anchor="start" x="51.5" y="-572.5892" font-family="Helvetica,sans-Serif" font-weight="bold" font-size="11.00" fill="#000000">audit_revision</text>
<text text-anchor="start" x="146.0219" y="-572.0892" font-family="Helvetica,sans-Serif" font-size="11.00" fill="#000000">[table]</text>
<polygon fill="none" stroke="#000000" points="46.5,-541.9892 46.5,-563.9892 180.5,-563.9892 180.5,-541.9892 46.5,-541.9892"/>
<image xlink:href="../../images/primaryKeys.png" width="11px" height="12px" preserveAspectRatio="xMinYMin meet" x="51.5" y="-558.989"/>
<text text-anchor="start" x="66.5" y="-549.0892" font-family="Helvetica,sans-Serif" font-size="11.00" fill="#000000">id</text>
<polygon fill="none" stroke="#000000" points="46.5,-522.9892 46.5,-541.9892 180.5,-541.9892 180.5,-522.9892 46.5,-522.9892"/>
<text text-anchor="start" x="49.5" y="-529.0892" font-family="Helvetica,sans-Serif" font-size="11.00" fill="#000000">...</text>
<polygon fill="#ffffff" stroke="transparent" points="46.5,-503.9892 46.5,-522.9892 102.5,-522.9892 102.5,-503.9892 46.5,-503.9892"/>
<polygon fill="none" stroke="#000000" points="46.5,-503.9892 46.5,-522.9892 102.5,-522.9892 102.5,-503.9892 46.5,-503.9892"/>
<text text-anchor="start" x="49.5" y="-510.0892" font-family="Helvetica,sans-Serif" font-size="11.00" fill="#000000"> &#160;</text>
<polygon fill="#ffffff" stroke="transparent" points="102.5,-503.9892 102.5,-522.9892 136.5,-522.9892 136.5,-503.9892 102.5,-503.9892"/>
<polygon fill="none" stroke="#000000" points="102.5,-503.9892 102.5,-522.9892 136.5,-522.9892 136.5,-503.9892 102.5,-503.9892"/>
<text text-anchor="start" x="127.3862" y="-510.0892" font-family="Helvetica,sans-Serif" font-size="11.00" fill="#000000"> &#160;</text>
<polygon fill="#ffffff" stroke="transparent" points="136.5,-503.9892 136.5,-522.9892 180.5,-522.9892 180.5,-503.9892 136.5,-503.9892"/>
<polygon fill="none" stroke="#000000" points="136.5,-503.9892 136.5,-522.9892 180.5,-522.9892 180.5,-503.9892 136.5,-503.9892"/>
<text text-anchor="start" x="161.9053" y="-510.0892" font-family="Helvetica,sans-Serif" font-size="11.00" fill="#000000">4 &gt;</text>
</a>
</g>
</g>
<!-- court_appearance&#45;&gt;audit_revision -->
<g id="edge1" class="edge">
<title>court_appearance:w&#45;&gt;audit_revision:e</title>
<path fill="none" stroke="#000000" stroke-dasharray="5,2" d="M279.6509,-127.7652C214.7576,-151.5054 253.8438,-406.3885 227,-476.9892 212.9268,-514.0026 220.0986,-552.9892 180.5,-552.9892"/>
<polygon fill="#000000" stroke="#000000" points="288.5349,-122.1821 289.8881,-130.0669 288.3112,-130.3375 286.958,-122.4528 288.5349,-122.1821"/>
<polyline fill="none" stroke="#000000" points="290,-125.9892 286.0576,-126.6658 "/>
<ellipse fill="none" stroke="#000000" cx="282.9037" cy="-127.207" rx="3.2" ry="3.2"/>
</g>
<!-- person_summary -->
<g id="node3" class="node">
<title>person_summary</title>
<g id="a_node3"><a xlink:href="../../tables/person_summary.html" xlink:title="person_summary" target="_top">
<polygon fill="#ffffff" stroke="transparent" points="36.5,-405.4892 36.5,-466.4892 190.5,-466.4892 190.5,-405.4892 36.5,-405.4892"/>
<polygon fill="#f5f5f5" stroke="transparent" points="36.5,-442.9892 36.5,-465.9892 190.5,-465.9892 190.5,-442.9892 36.5,-442.9892"/>
<polygon fill="none" stroke="#000000" points="36.5,-442.9892 36.5,-465.9892 190.5,-465.9892 190.5,-442.9892 36.5,-442.9892"/>
<text text-anchor="start" x="41.5" y="-451.5892" font-family="Helvetica,sans-Serif" font-weight="bold" font-size="11.00" fill="#000000">person_summary</text>
<text text-anchor="start" x="156.0219" y="-451.0892" font-family="Helvetica,sans-Serif" font-size="11.00" fill="#000000">[table]</text>
<polygon fill="none" stroke="#000000" points="36.5,-423.9892 36.5,-442.9892 190.5,-442.9892 190.5,-423.9892 36.5,-423.9892"/>
<text text-anchor="start" x="39.5" y="-430.0892" font-family="Helvetica,sans-Serif" font-size="11.00" fill="#000000">...</text>
<polygon fill="#ffffff" stroke="transparent" points="36.5,-404.9892 36.5,-423.9892 102.5,-423.9892 102.5,-404.9892 36.5,-404.9892"/>
<polygon fill="none" stroke="#000000" points="36.5,-404.9892 36.5,-423.9892 102.5,-423.9892 102.5,-404.9892 36.5,-404.9892"/>
<text text-anchor="start" x="39.5" y="-411.0892" font-family="Helvetica,sans-Serif" font-size="11.00" fill="#000000"> &#160;</text>
<polygon fill="#ffffff" stroke="transparent" points="102.5,-404.9892 102.5,-423.9892 141.5,-423.9892 141.5,-404.9892 102.5,-404.9892"/>
<polygon fill="none" stroke="#000000" points="102.5,-404.9892 102.5,-423.9892 141.5,-423.9892 141.5,-404.9892 102.5,-404.9892"/>
<text text-anchor="start" x="132.3862" y="-411.0892" font-family="Helvetica,sans-Serif" font-size="11.00" fill="#000000"> &#160;</text>
<polygon fill="#ffffff" stroke="transparent" points="141.5,-404.9892 141.5,-423.9892 190.5,-423.9892 190.5,-404.9892 141.5,-404.9892"/>
<polygon fill="none" stroke="#000000" points="141.5,-404.9892 141.5,-423.9892 190.5,-423.9892 190.5,-404.9892 141.5,-404.9892"/>
<text text-anchor="start" x="171.9053" y="-411.0892" font-family="Helvetica,sans-Serif" font-size="11.00" fill="#000000">4 &gt;</text>
</a>
</g>
</g>
<!-- court_appearance&#45;&gt;person_summary -->
<g id="edge2" class="edge">
<title>court_appearance:w&#45;&gt;person_summary:e</title>
<path fill="none" stroke="#000000" d="M275.3225,-324.8991C222.3253,-331.394 173.7516,-371.3271 143.9365,-401.4716"/>
<polygon fill="#000000" stroke="#000000" points="282.0153,-324.4842 290.2228,-327.5823 286.0077,-324.2367 290,-323.9892 290,-323.9892 290,-323.9892 286.0077,-324.2367 289.7772,-320.3961 282.0153,-324.4842 282.0153,-324.4842"/>
<ellipse fill="none" stroke="#000000" cx="278.8215" cy="-324.6822" rx="3.2" ry="3.2"/>
</g>
<!-- court_appearance_reason -->
<g id="node4" class="node">
<title>court_appearance_reason</title>
<g id="a_node4"><a xlink:href="../../tables/court_appearance_reason.html" xlink:title="court_appearance_reason" target="_top">
<polygon fill="#ffffff" stroke="transparent" points="8,-39.4892 8,-100.4892 219,-100.4892 219,-39.4892 8,-39.4892"/>
<polygon fill="#f5f5f5" stroke="transparent" points="8.5,-76.9892 8.5,-99.9892 219.5,-99.9892 219.5,-76.9892 8.5,-76.9892"/>
<polygon fill="none" stroke="#000000" points="8.5,-76.9892 8.5,-99.9892 219.5,-99.9892 219.5,-76.9892 8.5,-76.9892"/>
<text text-anchor="start" x="13.5" y="-85.5892" font-family="Helvetica,sans-Serif" font-weight="bold" font-size="11.00" fill="#000000">court_appearance_reason</text>
<text text-anchor="start" x="185.0219" y="-85.0892" font-family="Helvetica,sans-Serif" font-size="11.00" fill="#000000">[table]</text>
<polygon fill="none" stroke="#000000" points="8.5,-57.9892 8.5,-76.9892 219.5,-76.9892 219.5,-57.9892 8.5,-57.9892"/>
<text text-anchor="start" x="11.5" y="-64.0892" font-family="Helvetica,sans-Serif" font-size="11.00" fill="#000000">...</text>
<polygon fill="#ffffff" stroke="transparent" points="8.5,-38.9892 8.5,-57.9892 103.5,-57.9892 103.5,-38.9892 8.5,-38.9892"/>
<polygon fill="none" stroke="#000000" points="8.5,-38.9892 8.5,-57.9892 103.5,-57.9892 103.5,-38.9892 8.5,-38.9892"/>
<text text-anchor="start" x="11.5" y="-45.0892" font-family="Helvetica,sans-Serif" font-size="11.00" fill="#000000"> &#160;</text>
<polygon fill="#ffffff" stroke="transparent" points="103.5,-38.9892 103.5,-57.9892 156.5,-57.9892 156.5,-38.9892 103.5,-38.9892"/>
<polygon fill="none" stroke="#000000" points="103.5,-38.9892 103.5,-57.9892 156.5,-57.9892 156.5,-38.9892 103.5,-38.9892"/>
<text text-anchor="start" x="147.3862" y="-45.0892" font-family="Helvetica,sans-Serif" font-size="11.00" fill="#000000"> &#160;</text>
<polygon fill="#ffffff" stroke="transparent" points="156.5,-38.9892 156.5,-57.9892 219.5,-57.9892 219.5,-38.9892 156.5,-38.9892"/>
<polygon fill="none" stroke="#000000" points="156.5,-38.9892 156.5,-57.9892 219.5,-57.9892 219.5,-38.9892 156.5,-38.9892"/>
<text text-anchor="start" x="200.9053" y="-45.0892" font-family="Helvetica,sans-Serif" font-size="11.00" fill="#000000">2 &gt;</text>
</a>
</g>
</g>
<!-- court_appearance&#45;&gt;court_appearance_reason -->
<g id="edge3" class="edge">
<title>court_appearance:w&#45;&gt;court_appearance_reason:e</title>
<path fill="none" stroke="#000000" d="M275.6211,-256.2611C227.5803,-242.9436 274.6644,-155.9552 227,-110.9892 224.6378,-108.7608 222.1456,-106.6519 219.5478,-104.6562"/>
<polygon fill="#000000" stroke="#000000" points="282.0572,-257.0345 289.5704,-261.5635 286.0286,-257.5119 290,-257.9892 290,-257.9892 290,-257.9892 286.0286,-257.5119 290.4296,-254.4149 282.0572,-257.0345 282.0572,-257.0345"/>
<ellipse fill="none" stroke="#000000" cx="278.88" cy="-256.6527" rx="3.2" ry="3.2"/>
</g>
<!-- court_appearance_status -->
<g id="node5" class="node">
<title>court_appearance_status</title>
<g id="a_node5"><a xlink:href="../../tables/court_appearance_status.html" xlink:title="court_appearance_status" target="_top">
<polygon fill="#ffffff" stroke="transparent" points="9.5,-121.4892 9.5,-248.4892 217.5,-248.4892 217.5,-121.4892 9.5,-121.4892"/>
<polygon fill="#f5f5f5" stroke="transparent" points="9.5,-224.9892 9.5,-247.9892 217.5,-247.9892 217.5,-224.9892 9.5,-224.9892"/>
<polygon fill="none" stroke="#000000" points="9.5,-224.9892 9.5,-247.9892 217.5,-247.9892 217.5,-224.9892 9.5,-224.9892"/>
<text text-anchor="start" x="14.5" y="-233.5892" font-family="Helvetica,sans-Serif" font-weight="bold" font-size="11.00" fill="#000000">court_appearance_status</text>
<text text-anchor="start" x="183.0219" y="-233.0892" font-family="Helvetica,sans-Serif" font-size="11.00" fill="#000000">[table]</text>
<polygon fill="none" stroke="#000000" points="9.5,-202.9892 9.5,-224.9892 217.5,-224.9892 217.5,-202.9892 9.5,-202.9892"/>
<image xlink:href="../../images/primaryKeys.png" width="11px" height="12px" preserveAspectRatio="xMinYMin meet" x="14.5" y="-219.989"/>
<text text-anchor="start" x="38.5" y="-210.0892" font-family="Helvetica,sans-Serif" font-size="11.00" fill="#000000">id</text>
<polygon fill="#ffffff" stroke="transparent" points="9.5,-180.9892 9.5,-202.9892 217.5,-202.9892 217.5,-180.9892 9.5,-180.9892"/>
<polygon fill="none" stroke="#000000" points="9.5,-180.9892 9.5,-202.9892 217.5,-202.9892 217.5,-180.9892 9.5,-180.9892"/>
<text text-anchor="start" x="38.5" y="-188.0892" font-family="Helvetica,sans-Serif" font-size="11.00" fill="#000000">code</text>
<polygon fill="#ffffff" stroke="transparent" points="9.5,-158.9892 9.5,-180.9892 217.5,-180.9892 217.5,-158.9892 9.5,-158.9892"/>
<polygon fill="none" stroke="#000000" points="9.5,-158.9892 9.5,-180.9892 217.5,-180.9892 217.5,-158.9892 9.5,-158.9892"/>
<text text-anchor="start" x="38.5" y="-166.0892" font-family="Helvetica,sans-Serif" font-size="11.00" fill="#000000">sequence_number</text>
<polygon fill="none" stroke="#000000" points="9.5,-139.9892 9.5,-158.9892 217.5,-158.9892 217.5,-139.9892 9.5,-139.9892"/>
<text text-anchor="start" x="12.5" y="-146.0892" font-family="Helvetica,sans-Serif" font-size="11.00" fill="#000000">...</text>
<polygon fill="#ffffff" stroke="transparent" points="9.5,-120.9892 9.5,-139.9892 102.5,-139.9892 102.5,-120.9892 9.5,-120.9892"/>
<polygon fill="none" stroke="#000000" points="9.5,-120.9892 9.5,-139.9892 102.5,-139.9892 102.5,-120.9892 9.5,-120.9892"/>
<text text-anchor="start" x="12.5" y="-127.0892" font-family="Helvetica,sans-Serif" font-size="11.00" fill="#000000"> &#160;</text>
<polygon fill="#ffffff" stroke="transparent" points="102.5,-120.9892 102.5,-139.9892 155.5,-139.9892 155.5,-120.9892 102.5,-120.9892"/>
<polygon fill="none" stroke="#000000" points="102.5,-120.9892 102.5,-139.9892 155.5,-139.9892 155.5,-120.9892 102.5,-120.9892"/>
<text text-anchor="start" x="146.3862" y="-127.0892" font-family="Helvetica,sans-Serif" font-size="11.00" fill="#000000"> &#160;</text>
<polygon fill="#ffffff" stroke="transparent" points="155.5,-120.9892 155.5,-139.9892 217.5,-139.9892 217.5,-120.9892 155.5,-120.9892"/>
<polygon fill="none" stroke="#000000" points="155.5,-120.9892 155.5,-139.9892 217.5,-139.9892 217.5,-120.9892 155.5,-120.9892"/>
<text text-anchor="start" x="198.9053" y="-127.0892" font-family="Helvetica,sans-Serif" font-size="11.00" fill="#000000">1 &gt;</text>
</a>
</g>
</g>
<!-- court_appearance&#45;&gt;court_appearance_status -->
<g id="edge4" class="edge">
<title>court_appearance:w&#45;&gt;court_appearance_status:e</title>
<path fill="none" stroke="#000000" d="M275.5794,-213.9892C254.3898,-213.9892 244.3099,-213.9892 217.5,-213.9892"/>
<polygon fill="#000000" stroke="#000000" points="282,-213.9892 290,-217.5892 286,-213.9892 290,-213.9892 290,-213.9892 290,-213.9892 286,-213.9892 290,-210.3892 282,-213.9892 282,-213.9892"/>
<ellipse fill="none" stroke="#000000" cx="278.8" cy="-213.9893" rx="3.2" ry="3.2"/>
</g>
<!-- court_appearance_audit -->
<g id="node6" class="node">
<title>court_appearance_audit</title>
<g id="a_node6"><a xlink:href="../../tables/court_appearance_audit.html" xlink:title="court_appearance_audit" target="_top">
<polygon fill="#ffffff" stroke="transparent" points="307,-534.4892 307,-595.4892 507,-595.4892 507,-534.4892 307,-534.4892"/>
<polygon fill="#f5f5f5" stroke="transparent" points="307,-571.9892 307,-594.9892 507,-594.9892 507,-571.9892 307,-571.9892"/>
<polygon fill="none" stroke="#000000" points="307,-571.9892 307,-594.9892 507,-594.9892 507,-571.9892 307,-571.9892"/>
<text text-anchor="start" x="312" y="-580.5892" font-family="Helvetica,sans-Serif" font-weight="bold" font-size="11.00" fill="#000000">court_appearance_audit</text>
<text text-anchor="start" x="472.5219" y="-580.0892" font-family="Helvetica,sans-Serif" font-size="11.00" fill="#000000">[table]</text>
<polygon fill="none" stroke="#000000" points="307,-552.9892 307,-571.9892 507,-571.9892 507,-552.9892 307,-552.9892"/>
<text text-anchor="start" x="310" y="-559.0892" font-family="Helvetica,sans-Serif" font-size="11.00" fill="#000000">...</text>
<polygon fill="#ffffff" stroke="transparent" points="307,-533.9892 307,-552.9892 405,-552.9892 405,-533.9892 307,-533.9892"/>
<polygon fill="none" stroke="#000000" points="307,-533.9892 307,-552.9892 405,-552.9892 405,-533.9892 307,-533.9892"/>
<text text-anchor="start" x="310" y="-540.0892" font-family="Helvetica,sans-Serif" font-size="11.00" fill="#000000">&lt; 3</text>
<polygon fill="#ffffff" stroke="transparent" points="405,-533.9892 405,-552.9892 456,-552.9892 456,-533.9892 405,-533.9892"/>
<polygon fill="none" stroke="#000000" points="405,-533.9892 405,-552.9892 456,-552.9892 456,-533.9892 405,-533.9892"/>
<text text-anchor="start" x="446.8862" y="-540.0892" font-family="Helvetica,sans-Serif" font-size="11.00" fill="#000000"> &#160;</text>
<polygon fill="#ffffff" stroke="transparent" points="456,-533.9892 456,-552.9892 507,-552.9892 507,-533.9892 456,-533.9892"/>
<polygon fill="none" stroke="#000000" points="456,-533.9892 456,-552.9892 507,-552.9892 507,-533.9892 456,-533.9892"/>
<text text-anchor="start" x="497.8862" y="-540.0892" font-family="Helvetica,sans-Serif" font-size="11.00" fill="#000000"> &#160;</text>
</a>
</g>
</g>
<!-- court_appearance_audit&#45;&gt;audit_revision -->
<g id="edge5" class="edge">
<title>court_appearance_audit:w&#45;&gt;audit_revision:e</title>
<path fill="none" stroke="#000000" stroke-dasharray="5,2" d="M292.4886,-560.2749C247.7484,-554.4632 231.6903,-547.54 180.5,-552.9892"/>
<polygon fill="#000000" stroke="#000000" points="299.0552,-561.0506 306.5776,-565.5643 303.0276,-561.5199 307,-561.9892 307,-561.9892 307,-561.9892 303.0276,-561.5199 307.4224,-558.414 299.0552,-561.0506 299.0552,-561.0506"/>
<ellipse fill="none" stroke="#000000" cx="295.8773" cy="-560.6752" rx="3.2" ry="3.2"/>
</g>
<!-- court_appearance_audit&#45;&gt;audit_revision -->
<g id="edge7" class="edge">
<title>court_appearance_audit:w&#45;&gt;audit_revision:e</title>
<path fill="none" stroke="#000000" d="M292.4886,-563.5264C247.7484,-567.3537 231.6903,-559.3466 180.5,-552.9892"/>
<polygon fill="#000000" stroke="#000000" points="299.0445,-562.832 307.3792,-565.5692 303.0223,-562.4106 307,-561.9892 307,-561.9892 307,-561.9892 303.0223,-562.4106 306.6208,-558.4092 299.0445,-562.832 299.0445,-562.832"/>
<ellipse fill="none" stroke="#000000" cx="295.8623" cy="-563.1691" rx="3.2" ry="3.2"/>
</g>
<!-- court_appearance_audit&#45;&gt;person_summary -->
<g id="edge6" class="edge">
<title>court_appearance_audit:w&#45;&gt;person_summary:e</title>
<path fill="none" stroke="#000000" stroke-dasharray="5,2" d="M292.5717,-560.372C260.9211,-552.478 260.8811,-517.4239 227,-493.9892 214.8974,-485.6181 201.4238,-477.6824 188.108,-470.5206"/>
<polygon fill="#000000" stroke="#000000" points="299.0498,-561.0981 306.599,-565.5668 303.0249,-561.5436 307,-561.9892 307,-561.9892 307,-561.9892 303.0249,-561.5436 307.401,-558.4116 299.0498,-561.0981 299.0498,-561.0981"/>
<ellipse fill="none" stroke="#000000" cx="295.8697" cy="-560.7416" rx="3.2" ry="3.2"/>
</g>
<!-- court_appearance_movement -->
<g id="node7" class="node">
<title>court_appearance_movement</title>
<g id="a_node7"><a xlink:href="../../tables/court_appearance_movement.html" xlink:title="court_appearance_movement" target="_top">
<polygon fill="#ffffff" stroke="transparent" points="595,-337.4892 595,-398.4892 832,-398.4892 832,-337.4892 595,-337.4892"/>
<polygon fill="#f5f5f5" stroke="transparent" points="595.5,-374.9892 595.5,-397.9892 832.5,-397.9892 832.5,-374.9892 595.5,-374.9892"/>
<polygon fill="none" stroke="#000000" points="595.5,-374.9892 595.5,-397.9892 832.5,-397.9892 832.5,-374.9892 595.5,-374.9892"/>
<text text-anchor="start" x="600.5" y="-383.5892" font-family="Helvetica,sans-Serif" font-weight="bold" font-size="11.00" fill="#000000">court_appearance_movement</text>
<text text-anchor="start" x="798.0219" y="-383.0892" font-family="Helvetica,sans-Serif" font-size="11.00" fill="#000000">[table]</text>
<polygon fill="none" stroke="#000000" points="595.5,-355.9892 595.5,-374.9892 832.5,-374.9892 832.5,-355.9892 595.5,-355.9892"/>
<text text-anchor="start" x="598.5" y="-362.0892" font-family="Helvetica,sans-Serif" font-size="11.00" fill="#000000">...</text>
<polygon fill="#ffffff" stroke="transparent" points="595.5,-336.9892 595.5,-355.9892 712.5,-355.9892 712.5,-336.9892 595.5,-336.9892"/>
<polygon fill="none" stroke="#000000" points="595.5,-336.9892 595.5,-355.9892 712.5,-355.9892 712.5,-336.9892 595.5,-336.9892"/>
<text text-anchor="start" x="598.5" y="-343.0892" font-family="Helvetica,sans-Serif" font-size="11.00" fill="#000000">&lt; 3</text>
<polygon fill="#ffffff" stroke="transparent" points="712.5,-336.9892 712.5,-355.9892 772.5,-355.9892 772.5,-336.9892 712.5,-336.9892"/>
<polygon fill="none" stroke="#000000" points="712.5,-336.9892 712.5,-355.9892 772.5,-355.9892 772.5,-336.9892 712.5,-336.9892"/>
<text text-anchor="start" x="763.3862" y="-343.0892" font-family="Helvetica,sans-Serif" font-size="11.00" fill="#000000"> &#160;</text>
<polygon fill="#ffffff" stroke="transparent" points="772.5,-336.9892 772.5,-355.9892 832.5,-355.9892 832.5,-336.9892 772.5,-336.9892"/>
<polygon fill="none" stroke="#000000" points="772.5,-336.9892 772.5,-355.9892 832.5,-355.9892 832.5,-336.9892 772.5,-336.9892"/>
<text text-anchor="start" x="823.3862" y="-343.0892" font-family="Helvetica,sans-Serif" font-size="11.00" fill="#000000"> &#160;</text>
</a>
</g>
</g>
<!-- court_appearance_movement&#45;&gt;court_appearance -->
<g id="edge8" class="edge">
<title>court_appearance_movement:w&#45;&gt;court_appearance:e</title>
<path fill="none" stroke="#000000" d="M572.18,-367.9892C556.2649,-367.9892 540.2839,-367.9892 525,-367.9892"/>
<polygon fill="#000000" stroke="#000000" points="578.7554,-367.9892 586.7554,-371.5892 582.7554,-367.9892 586.7554,-367.9892 586.7554,-367.9892 586.7554,-367.9892 582.7554,-367.9892 586.7554,-364.3892 578.7554,-367.9892 578.7554,-367.9892"/>
<ellipse fill="none" stroke="#000000" cx="575.5554" cy="-367.9893" rx="3.2" ry="3.2"/>
</g>
<!-- court_appearance_movement&#45;&gt;person_summary -->
<g id="edge9" class="edge">
<title>court_appearance_movement:w&#45;&gt;person_summary:e</title>
<path fill="none" stroke="#000000" d="M591.8935,-406.1711C579.1891,-409.2239 566.3922,-411.9214 554,-413.9892 431.6467,-434.4057 287.7478,-437.7925 198.5686,-437.527"/>
<polygon fill="#000000" stroke="#000000" points="598.412,-404.5354 607.0476,-406.0799 602.2917,-403.5618 606.1714,-402.5882 606.1714,-402.5882 606.1714,-402.5882 602.2917,-403.5618 605.2951,-399.0965 598.412,-404.5354 598.412,-404.5354"/>
<ellipse fill="none" stroke="#000000" cx="595.3082" cy="-405.3143" rx="3.2" ry="3.2"/>
</g>
<!-- court_appearance_movement&#45;&gt;court_appearance_reason -->
<g id="edge10" class="edge">
<title>court_appearance_movement:w&#45;&gt;court_appearance_reason:e</title>
<path fill="none" stroke="#000000" d="M702.0037,-318.8279C683.4933,-252.0951 640.0954,-135.1888 554,-82.9892 455.8649,-23.4899 321.4982,-29.2531 227.0508,-44.2268"/>
<polygon fill="#000000" stroke="#000000" points="703.7301,-325.3264 702.3049,-333.9826 704.7571,-329.1923 705.7842,-333.0582 705.7842,-333.0582 705.7842,-333.0582 704.7571,-329.1923 709.2635,-332.1339 703.7301,-325.3264 703.7301,-325.3264"/>
<ellipse fill="none" stroke="#000000" cx="702.9085" cy="-322.2337" rx="3.2" ry="3.2"/>
</g>
<!-- court_appearance_movement_audit -->
<g id="node8" class="node">
<title>court_appearance_movement_audit</title>
<g id="a_node8"><a xlink:href="../../tables/court_appearance_movement_audit.html" xlink:title="court_appearance_movement_audit" target="_top">
<polygon fill="#ffffff" stroke="transparent" points="268,-452.4892 268,-513.4892 546,-513.4892 546,-452.4892 268,-452.4892"/>
<polygon fill="#f5f5f5" stroke="transparent" points="268,-489.9892 268,-512.9892 546,-512.9892 546,-489.9892 268,-489.9892"/>
<polygon fill="none" stroke="#000000" points="268,-489.9892 268,-512.9892 546,-512.9892 546,-489.9892 268,-489.9892"/>
<text text-anchor="start" x="273" y="-498.5892" font-family="Helvetica,sans-Serif" font-weight="bold" font-size="11.00" fill="#000000">court_appearance_movement_audit</text>
<text text-anchor="start" x="511.5219" y="-498.0892" font-family="Helvetica,sans-Serif" font-size="11.00" fill="#000000">[table]</text>
<polygon fill="none" stroke="#000000" points="268,-470.9892 268,-489.9892 546,-489.9892 546,-470.9892 268,-470.9892"/>
<text text-anchor="start" x="271" y="-477.0892" font-family="Helvetica,sans-Serif" font-size="11.00" fill="#000000">...</text>
<polygon fill="#ffffff" stroke="transparent" points="268,-451.9892 268,-470.9892 405,-470.9892 405,-451.9892 268,-451.9892"/>
<polygon fill="none" stroke="#000000" points="268,-451.9892 268,-470.9892 405,-470.9892 405,-451.9892 268,-451.9892"/>
<text text-anchor="start" x="271" y="-458.0892" font-family="Helvetica,sans-Serif" font-size="11.00" fill="#000000">&lt; 2</text>
<polygon fill="#ffffff" stroke="transparent" points="405,-451.9892 405,-470.9892 475,-470.9892 475,-451.9892 405,-451.9892"/>
<polygon fill="none" stroke="#000000" points="405,-451.9892 405,-470.9892 475,-470.9892 475,-451.9892 405,-451.9892"/>
<text text-anchor="start" x="465.8862" y="-458.0892" font-family="Helvetica,sans-Serif" font-size="11.00" fill="#000000"> &#160;</text>
<polygon fill="#ffffff" stroke="transparent" points="475,-451.9892 475,-470.9892 546,-470.9892 546,-451.9892 475,-451.9892"/>
<polygon fill="none" stroke="#000000" points="475,-451.9892 475,-470.9892 546,-470.9892 546,-451.9892 475,-451.9892"/>
<text text-anchor="start" x="536.8862" y="-458.0892" font-family="Helvetica,sans-Serif" font-size="11.00" fill="#000000"> &#160;</text>
</a>
</g>
</g>
<!-- court_appearance_movement_audit&#45;&gt;audit_revision -->
<g id="edge12" class="edge">
<title>court_appearance_movement_audit:w&#45;&gt;audit_revision:e</title>
<path fill="none" stroke="#000000" d="M253.5258,-482.418C219.6003,-495.0846 225.6063,-552.9892 180.5,-552.9892"/>
<polygon fill="#000000" stroke="#000000" points="260.1103,-481.3132 268.5958,-483.5395 264.0552,-480.6512 268,-479.9892 268,-479.9892 268,-479.9892 264.0552,-480.6512 267.4042,-476.4388 260.1103,-481.3132 260.1103,-481.3132"/>
<ellipse fill="none" stroke="#000000" cx="256.9544" cy="-481.8428" rx="3.2" ry="3.2"/>
</g>
<!-- court_appearance_movement_audit&#45;&gt;person_summary -->
<g id="edge11" class="edge">
<title>court_appearance_movement_audit:w&#45;&gt;person_summary:e</title>
<path fill="none" stroke="#000000" stroke-dasharray="5,2" d="M253.3969,-479.4137C235.0612,-478.0125 216.3868,-474.1803 198.9046,-469.338"/>
<polygon fill="#000000" stroke="#000000" points="260.0062,-479.6741 267.8582,-483.5864 264.0031,-479.8317 268,-479.9892 268,-479.9892 268,-479.9892 264.0031,-479.8317 268.1418,-476.392 260.0062,-479.6741 260.0062,-479.6741"/>
<ellipse fill="none" stroke="#000000" cx="256.8087" cy="-479.5481" rx="3.2" ry="3.2"/>
</g>
</g>
</svg>
