<?xml version="1.0" encoding="UTF-8" standalone="no"?>
<!DOCTYPE svg PUBLIC "-//W3C//DTD SVG 1.1//EN"
 "http://www.w3.org/Graphics/SVG/1.1/DTD/svg11.dtd">
<!-- Generated by graphviz version 2.40.1 (20161225.0304)
 -->
<!-- Title: oneDegreeRelationshipsDiagram Pages: 1 -->
<svg width="520pt" height="287pt"
 viewBox="0.00 0.00 520.00 287.20" xmlns="http://www.w3.org/2000/svg" xmlns:xlink="http://www.w3.org/1999/xlink">
<g id="graph0" class="graph" transform="scale(1 1) rotate(0) translate(4 283.2)">
<title>oneDegreeRelationshipsDiagram</title>
<polygon fill="#ffffff" stroke="transparent" points="-4,4 -4,-283.2 516,-283.2 516,4 -4,4"/>
<text text-anchor="middle" x="72.4936" y="-7.3" font-family="Helvetica,sans-Serif" font-size="11.00" fill="#000000">Generated by SchemaSpy</text>
<!-- court_appearance -->
<g id="node1" class="node">
<title>court_appearance</title>
<g id="a_node1"><a xlink:href="../../tables/court_appearance.html" xlink:title="court_appearance" target="_top">
<polygon fill="#ffffff" stroke="transparent" points="345,-38.2 345,-275.2 504,-275.2 504,-38.2 345,-38.2"/>
<polygon fill="#f5f5f5" stroke="transparent" points="345.5,-251.7 345.5,-274.7 504.5,-274.7 504.5,-251.7 345.5,-251.7"/>
<polygon fill="none" stroke="#000000" points="345.5,-251.7 345.5,-274.7 504.5,-274.7 504.5,-251.7 345.5,-251.7"/>
<text text-anchor="start" x="350.5" y="-260.3" font-family="Helvetica,sans-Serif" font-weight="bold" font-size="11.00" fill="#000000">court_appearance</text>
<text text-anchor="start" x="470.0219" y="-259.8" font-family="Helvetica,sans-Serif" font-size="11.00" fill="#000000">[table]</text>
<polygon fill="none" stroke="#000000" points="345.5,-229.7 345.5,-251.7 504.5,-251.7 504.5,-229.7 345.5,-229.7"/>
<image xlink:href="../../images/primaryKeys.png" width="11px" height="12px" preserveAspectRatio="xMinYMin meet" x="350.5" y="-246.7"/>
<text text-anchor="start" x="371.5" y="-236.8" font-family="Helvetica,sans-Serif" font-size="11.00" fill="#000000">id</text>
<polygon fill="#ffffff" stroke="transparent" points="345.5,-207.7 345.5,-229.7 504.5,-229.7 504.5,-207.7 345.5,-207.7"/>
<polygon fill="none" stroke="#000000" points="345.5,-207.7 345.5,-229.7 504.5,-229.7 504.5,-207.7 345.5,-207.7"/>
<image xlink:href="../../images/foreignKeys.png" width="11px" height="12px" preserveAspectRatio="xMinYMin meet" x="350.5" y="-224.7"/>
<text text-anchor="start" x="371.5" y="-214.8" font-family="Helvetica,sans-Serif" font-size="11.00" fill="#000000">person_identifier</text>
<polygon fill="#ffffff" stroke="transparent" points="345.5,-185.7 345.5,-207.7 504.5,-207.7 504.5,-185.7 345.5,-185.7"/>
<polygon fill="none" stroke="#000000" points="345.5,-185.7 345.5,-207.7 504.5,-207.7 504.5,-185.7 345.5,-185.7"/>
<text text-anchor="start" x="371.5" y="-192.8" font-family="Helvetica,sans-Serif" font-size="11.00" fill="#000000">prison_code</text>
<polygon fill="#ffffff" stroke="transparent" points="345.5,-163.7 345.5,-185.7 504.5,-185.7 504.5,-163.7 345.5,-163.7"/>
<polygon fill="none" stroke="#000000" points="345.5,-163.7 345.5,-185.7 504.5,-185.7 504.5,-163.7 345.5,-163.7"/>
<image xlink:href="../../images/foreignKeys.png" width="11px" height="12px" preserveAspectRatio="xMinYMin meet" x="350.5" y="-180.7"/>
<text text-anchor="start" x="371.5" y="-170.8" font-family="Helvetica,sans-Serif" font-size="11.00" fill="#000000">reason_id</text>
<polygon fill="#ffffff" stroke="transparent" points="345.5,-141.7 345.5,-163.7 504.5,-163.7 504.5,-141.7 345.5,-141.7"/>
<polygon fill="none" stroke="#000000" points="345.5,-141.7 345.5,-163.7 504.5,-163.7 504.5,-141.7 345.5,-141.7"/>
<image xlink:href="../../images/foreignKeys.png" width="11px" height="12px" preserveAspectRatio="xMinYMin meet" x="350.5" y="-158.7"/>
<text text-anchor="start" x="371.5" y="-148.8" font-family="Helvetica,sans-Serif" font-size="11.00" fill="#000000">status_id</text>
<polygon fill="#ffffff" stroke="transparent" points="345.5,-119.7 345.5,-141.7 504.5,-141.7 504.5,-119.7 345.5,-119.7"/>
<polygon fill="none" stroke="#000000" points="345.5,-119.7 345.5,-141.7 504.5,-141.7 504.5,-119.7 345.5,-119.7"/>
<text text-anchor="start" x="371.5" y="-126.8" font-family="Helvetica,sans-Serif" font-size="11.00" fill="#000000">start</text>
<polygon fill="#ffffff" stroke="transparent" points="345.5,-97.7 345.5,-119.7 504.5,-119.7 504.5,-97.7 345.5,-97.7"/>
<polygon fill="none" stroke="#000000" points="345.5,-97.7 345.5,-119.7 504.5,-119.7 504.5,-97.7 345.5,-97.7"/>
<image xlink:href="../../images/foreignKeys.png" width="11px" height="12px" preserveAspectRatio="xMinYMin meet" x="350.5" y="-114.7"/>
<text text-anchor="start" x="371.5" y="-104.8" font-family="Helvetica,sans-Serif" font-size="11.00" fill="#000000">legacy_id</text>
<polygon fill="#ffffff" stroke="transparent" points="345.5,-75.7 345.5,-97.7 504.5,-97.7 504.5,-75.7 345.5,-75.7"/>
<polygon fill="none" stroke="#000000" points="345.5,-75.7 345.5,-97.7 504.5,-97.7 504.5,-75.7 345.5,-75.7"/>
<text text-anchor="start" x="371.5" y="-82.8" font-family="Helvetica,sans-Serif" font-size="11.00" fill="#000000">external_reference</text>
<polygon fill="none" stroke="#000000" points="345.5,-56.7 345.5,-75.7 504.5,-75.7 504.5,-56.7 345.5,-56.7"/>
<text text-anchor="start" x="348.5" y="-62.8" font-family="Helvetica,sans-Serif" font-size="11.00" fill="#000000">...</text>
<polygon fill="#ffffff" stroke="transparent" points="345.5,-37.7 345.5,-56.7 418.5,-56.7 418.5,-37.7 345.5,-37.7"/>
<polygon fill="none" stroke="#000000" points="345.5,-37.7 345.5,-56.7 418.5,-56.7 418.5,-37.7 345.5,-37.7"/>
<text text-anchor="start" x="348.5" y="-43.8" font-family="Helvetica,sans-Serif" font-size="11.00" fill="#000000">&lt; 3</text>
<polygon fill="#ffffff" stroke="transparent" points="418.5,-37.7 418.5,-56.7 456.5,-56.7 456.5,-37.7 418.5,-37.7"/>
<polygon fill="none" stroke="#000000" points="418.5,-37.7 418.5,-56.7 456.5,-56.7 456.5,-37.7 418.5,-37.7"/>
<text text-anchor="start" x="447.3862" y="-43.8" font-family="Helvetica,sans-Serif" font-size="11.00" fill="#000000"> &#160;</text>
<polygon fill="#ffffff" stroke="transparent" points="456.5,-37.7 456.5,-56.7 504.5,-56.7 504.5,-37.7 456.5,-37.7"/>
<polygon fill="none" stroke="#000000" points="456.5,-37.7 456.5,-56.7 504.5,-56.7 504.5,-37.7 456.5,-37.7"/>
<text text-anchor="start" x="485.9053" y="-43.8" font-family="Helvetica,sans-Serif" font-size="11.00" fill="#000000">1 &gt;</text>
</a>
</g>
</g>
<!-- court_appearance_status -->
<g id="node2" class="node">
<title>court_appearance_status</title>
<g id="a_node2"><a xlink:href="../../tables/court_appearance_status.html" xlink:title="court_appearance_status" target="_top">
<polygon fill="#ffffff" stroke="transparent" points="8,-54.7 8,-188.7 296,-188.7 296,-54.7 8,-54.7"/>
<polygon fill="#f5f5f5" stroke="transparent" points="10,-163.7 10,-186.7 294,-186.7 294,-163.7 10,-163.7"/>
<polygon fill="none" stroke="#000000" points="10,-163.7 10,-186.7 294,-186.7 294,-163.7 10,-163.7"/>
<text text-anchor="start" x="15" y="-172.3" font-family="Helvetica,sans-Serif" font-weight="bold" font-size="11.00" fill="#000000">court_appearance_status</text>
<text text-anchor="start" x="259.0437" y="-171.8" font-family="Helvetica,sans-Serif" font-size="11.00" fill="#000000">[table]</text>
<polygon fill="none" stroke="#000000" points="10,-141.7 10,-163.7 200,-163.7 200,-141.7 10,-141.7"/>
<image xlink:href="../../images/primaryKeys.png" width="11px" height="12px" preserveAspectRatio="xMinYMin meet" x="15" y="-158.7"/>
<text text-anchor="start" x="30" y="-148.8" font-family="Helvetica,sans-Serif" font-size="11.00" fill="#000000">id</text>
<polygon fill="none" stroke="#000000" points="200,-141.7 200,-163.7 294,-163.7 294,-141.7 200,-141.7"/>
<text text-anchor="start" x="202.9758" y="-149.4" font-family="Helvetica,sans-Serif" font-size="11.00" fill="#000000">uuid[2147483647]</text>
<polygon fill="#ffffff" stroke="transparent" points="10,-119.7 10,-141.7 200,-141.7 200,-119.7 10,-119.7"/>
<polygon fill="none" stroke="#000000" points="10,-119.7 10,-141.7 200,-141.7 200,-119.7 10,-119.7"/>
<text text-anchor="start" x="30" y="-126.8" font-family="Helvetica,sans-Serif" font-size="11.00" fill="#000000">code</text>
<polygon fill="none" stroke="#000000" points="200,-119.7 200,-141.7 294,-141.7 294,-119.7 200,-119.7"/>
<text text-anchor="start" x="203" y="-127.4" font-family="Helvetica,sans-Serif" font-size="11.00" fill="#000000">varchar[16]</text>
<polygon fill="none" stroke="#000000" points="10,-97.7 10,-119.7 200,-119.7 200,-97.7 10,-97.7"/>
<text text-anchor="start" x="30" y="-104.8" font-family="Helvetica,sans-Serif" font-size="11.00" fill="#000000">description</text>
<polygon fill="none" stroke="#000000" points="200,-97.7 200,-119.7 294,-119.7 294,-97.7 200,-97.7"/>
<text text-anchor="start" x="203" y="-105.4" font-family="Helvetica,sans-Serif" font-size="11.00" fill="#000000">varchar[255]</text>
<polygon fill="#ffffff" stroke="transparent" points="10,-75.7 10,-97.7 200,-97.7 200,-75.7 10,-75.7"/>
<polygon fill="none" stroke="#000000" points="10,-75.7 10,-97.7 200,-97.7 200,-75.7 10,-75.7"/>
<text text-anchor="start" x="30" y="-82.8" font-family="Helvetica,sans-Serif" font-size="11.00" fill="#000000">sequence_number</text>
<polygon fill="none" stroke="#000000" points="200,-75.7 200,-97.7 294,-97.7 294,-75.7 200,-75.7"/>
<text text-anchor="start" x="203" y="-83.4" font-family="Helvetica,sans-Serif" font-size="11.00" fill="#000000">int4[10]</text>
<polygon fill="#ffffff" stroke="transparent" points="10,-56.7 10,-75.7 109,-75.7 109,-56.7 10,-56.7"/>
<polygon fill="none" stroke="#000000" points="10,-56.7 10,-75.7 109,-75.7 109,-56.7 10,-56.7"/>
<text text-anchor="start" x="13" y="-62.8" font-family="Helvetica,sans-Serif" font-size="11.00" fill="#000000">&lt; 0</text>
<polygon fill="#ffffff" stroke="transparent" points="109,-56.7 109,-75.7 200,-75.7 200,-56.7 109,-56.7"/>
<polygon fill="none" stroke="#000000" points="109,-56.7 109,-75.7 200,-75.7 200,-56.7 109,-56.7"/>
<text text-anchor="start" x="190.8862" y="-62.8" font-family="Helvetica,sans-Serif" font-size="11.00" fill="#000000"> &#160;</text>
<polygon fill="#ffffff" stroke="transparent" points="200,-56.7 200,-75.7 294,-75.7 294,-56.7 200,-56.7"/>
<polygon fill="none" stroke="#000000" points="200,-56.7 200,-75.7 294,-75.7 294,-56.7 200,-56.7"/>
<text text-anchor="start" x="275.4053" y="-62.8" font-family="Helvetica,sans-Serif" font-size="11.00" fill="#000000">1 &gt;</text>
<polygon fill="none" stroke="#000000" stroke-width="2" points="9,-55.7 9,-187.7 295,-187.7 295,-55.7 9,-55.7"/>
</a>
</g>
</g>
<!-- court_appearance&#45;&gt;court_appearance_status -->
<g id="edge1" class="edge">
<title>court_appearance:w&#45;&gt;court_appearance_status:e</title>
<path fill="none" stroke="#000000" d="M331.0156,-152.7C318.6771,-152.7 311.1667,-152.7 294,-152.7"/>
<polygon fill="#000000" stroke="#000000" points="337.5,-152.7001 345.5,-156.3 341.5,-152.7 345.5,-152.7 345.5,-152.7 345.5,-152.7 341.5,-152.7 345.5,-149.1 337.5,-152.7001 337.5,-152.7001"/>
<ellipse fill="none" stroke="#000000" cx="334.3" cy="-152.7001" rx="3.2" ry="3.2"/>
</g>
</g>
</svg>
