<?xml version="1.0" encoding="UTF-8" standalone="no"?>
<!DOCTYPE svg PUBLIC "-//W3C//DTD SVG 1.1//EN"
 "http://www.w3.org/Graphics/SVG/1.1/DTD/svg11.dtd">
<!-- Generated by graphviz version 2.40.1 (20161225.0304)
 -->
<!-- Title: oneDegreeRelationshipsDiagram Pages: 1 -->
<svg width="809pt" height="472pt"
 viewBox="0.00 0.00 809.00 472.49" xmlns="http://www.w3.org/2000/svg" xmlns:xlink="http://www.w3.org/1999/xlink">
<g id="graph0" class="graph" transform="scale(1 1) rotate(0) translate(4 468.4928)">
<title>oneDegreeRelationshipsDiagram</title>
<polygon fill="#ffffff" stroke="transparent" points="-4,4 -4,-468.4928 805,-468.4928 805,4 -4,4"/>
<text text-anchor="middle" x="72.4936" y="-7.3" font-family="Helvetica,sans-Serif" font-size="11.00" fill="#000000">Generated by SchemaSpy</text>
<!-- court_appearance -->
<g id="node1" class="node">
<title>court_appearance</title>
<g id="a_node1"><a xlink:href="../../tables/court_appearance.html" xlink:title="court_appearance" target="_top">
<polygon fill="#ffffff" stroke="transparent" points="268,-114.7 268,-424.7 507,-424.7 507,-114.7 268,-114.7"/>
<polygon fill="#f5f5f5" stroke="transparent" points="270.5,-399.7 270.5,-422.7 505.5,-422.7 505.5,-399.7 270.5,-399.7"/>
<polygon fill="none" stroke="#000000" points="270.5,-399.7 270.5,-422.7 505.5,-422.7 505.5,-399.7 270.5,-399.7"/>
<text text-anchor="start" x="275.5" y="-408.3" font-family="Helvetica,sans-Serif" font-weight="bold" font-size="11.00" fill="#000000">court_appearance</text>
<text text-anchor="start" x="470.5437" y="-407.8" font-family="Helvetica,sans-Serif" font-size="11.00" fill="#000000">[table]</text>
<polygon fill="none" stroke="#000000" points="270.5,-377.7 270.5,-399.7 411.5,-399.7 411.5,-377.7 270.5,-377.7"/>
<image xlink:href="../../images/primaryKeys.png" width="11px" height="12px" preserveAspectRatio="xMinYMin meet" x="275.5" y="-394.7"/>
<text text-anchor="start" x="290.5" y="-384.8" font-family="Helvetica,sans-Serif" font-size="11.00" fill="#000000">id</text>
<polygon fill="none" stroke="#000000" points="411.5,-377.7 411.5,-399.7 505.5,-399.7 505.5,-377.7 411.5,-377.7"/>
<text text-anchor="start" x="414.4758" y="-385.4" font-family="Helvetica,sans-Serif" font-size="11.00" fill="#000000">uuid[2147483647]</text>
<polygon fill="none" stroke="#000000" points="270.5,-355.7 270.5,-377.7 411.5,-377.7 411.5,-355.7 270.5,-355.7"/>
<text text-anchor="start" x="290.5" y="-362.8" font-family="Helvetica,sans-Serif" font-size="11.00" fill="#000000">version</text>
<polygon fill="none" stroke="#000000" points="411.5,-355.7 411.5,-377.7 505.5,-377.7 505.5,-355.7 411.5,-355.7"/>
<text text-anchor="start" x="414.5" y="-363.4" font-family="Helvetica,sans-Serif" font-size="11.00" fill="#000000">int4[10]</text>
<polygon fill="#ffffff" stroke="transparent" points="270.5,-333.7 270.5,-355.7 411.5,-355.7 411.5,-333.7 270.5,-333.7"/>
<polygon fill="none" stroke="#000000" points="270.5,-333.7 270.5,-355.7 411.5,-355.7 411.5,-333.7 270.5,-333.7"/>
<image xlink:href="../../images/foreignKeys.png" width="11px" height="12px" preserveAspectRatio="xMinYMin meet" x="275.5" y="-350.7"/>
<text text-anchor="start" x="290.5" y="-340.8" font-family="Helvetica,sans-Serif" font-size="11.00" fill="#000000">person_identifier</text>
<polygon fill="none" stroke="#000000" points="411.5,-333.7 411.5,-355.7 505.5,-355.7 505.5,-333.7 411.5,-333.7"/>
<text text-anchor="start" x="414.5" y="-341.4" font-family="Helvetica,sans-Serif" font-size="11.00" fill="#000000">varchar[10]</text>
<polygon fill="#ffffff" stroke="transparent" points="270.5,-311.7 270.5,-333.7 411.5,-333.7 411.5,-311.7 270.5,-311.7"/>
<polygon fill="none" stroke="#000000" points="270.5,-311.7 270.5,-333.7 411.5,-333.7 411.5,-311.7 270.5,-311.7"/>
<text text-anchor="start" x="290.5" y="-318.8" font-family="Helvetica,sans-Serif" font-size="11.00" fill="#000000">prison_code</text>
<polygon fill="none" stroke="#000000" points="411.5,-311.7 411.5,-333.7 505.5,-333.7 505.5,-311.7 411.5,-311.7"/>
<text text-anchor="start" x="414.5" y="-319.4" font-family="Helvetica,sans-Serif" font-size="11.00" fill="#000000">varchar[6]</text>
<polygon fill="none" stroke="#000000" points="270.5,-289.7 270.5,-311.7 411.5,-311.7 411.5,-289.7 270.5,-289.7"/>
<text text-anchor="start" x="290.5" y="-296.8" font-family="Helvetica,sans-Serif" font-size="11.00" fill="#000000">court_code</text>
<polygon fill="none" stroke="#000000" points="411.5,-289.7 411.5,-311.7 505.5,-311.7 505.5,-289.7 411.5,-289.7"/>
<text text-anchor="start" x="414.5" y="-297.4" font-family="Helvetica,sans-Serif" font-size="11.00" fill="#000000">varchar[6]</text>
<polygon fill="#ffffff" stroke="transparent" points="270.5,-267.7 270.5,-289.7 411.5,-289.7 411.5,-267.7 270.5,-267.7"/>
<polygon fill="none" stroke="#000000" points="270.5,-267.7 270.5,-289.7 411.5,-289.7 411.5,-267.7 270.5,-267.7"/>
<image xlink:href="../../images/foreignKeys.png" width="11px" height="12px" preserveAspectRatio="xMinYMin meet" x="275.5" y="-284.7"/>
<text text-anchor="start" x="290.5" y="-274.8" font-family="Helvetica,sans-Serif" font-size="11.00" fill="#000000">reason_id</text>
<polygon fill="none" stroke="#000000" points="411.5,-267.7 411.5,-289.7 505.5,-289.7 505.5,-267.7 411.5,-267.7"/>
<text text-anchor="start" x="414.4758" y="-275.4" font-family="Helvetica,sans-Serif" font-size="11.00" fill="#000000">uuid[2147483647]</text>
<polygon fill="none" stroke="#000000" points="270.5,-245.7 270.5,-267.7 411.5,-267.7 411.5,-245.7 270.5,-245.7"/>
<text text-anchor="start" x="290.5" y="-252.8" font-family="Helvetica,sans-Serif" font-size="11.00" fill="#000000">external</text>
<polygon fill="none" stroke="#000000" points="411.5,-245.7 411.5,-267.7 505.5,-267.7 505.5,-245.7 411.5,-245.7"/>
<text text-anchor="start" x="414.5" y="-253.4" font-family="Helvetica,sans-Serif" font-size="11.00" fill="#000000">bool[1]</text>
<polygon fill="#ffffff" stroke="transparent" points="270.5,-223.7 270.5,-245.7 411.5,-245.7 411.5,-223.7 270.5,-223.7"/>
<polygon fill="none" stroke="#000000" points="270.5,-223.7 270.5,-245.7 411.5,-245.7 411.5,-223.7 270.5,-223.7"/>
<image xlink:href="../../images/foreignKeys.png" width="11px" height="12px" preserveAspectRatio="xMinYMin meet" x="275.5" y="-240.7"/>
<text text-anchor="start" x="290.5" y="-230.8" font-family="Helvetica,sans-Serif" font-size="11.00" fill="#000000">status_id</text>
<polygon fill="none" stroke="#000000" points="411.5,-223.7 411.5,-245.7 505.5,-245.7 505.5,-223.7 411.5,-223.7"/>
<text text-anchor="start" x="414.4758" y="-231.4" font-family="Helvetica,sans-Serif" font-size="11.00" fill="#000000">uuid[2147483647]</text>
<polygon fill="#ffffff" stroke="transparent" points="270.5,-201.7 270.5,-223.7 411.5,-223.7 411.5,-201.7 270.5,-201.7"/>
<polygon fill="none" stroke="#000000" points="270.5,-201.7 270.5,-223.7 411.5,-223.7 411.5,-201.7 270.5,-201.7"/>
<text text-anchor="start" x="290.5" y="-208.8" font-family="Helvetica,sans-Serif" font-size="11.00" fill="#000000">start</text>
<polygon fill="none" stroke="#000000" points="411.5,-201.7 411.5,-223.7 505.5,-223.7 505.5,-201.7 411.5,-201.7"/>
<text text-anchor="start" x="414.5" y="-209.4" font-family="Helvetica,sans-Serif" font-size="11.00" fill="#000000">timestamp[29,6]</text>
<polygon fill="none" stroke="#000000" points="270.5,-179.7 270.5,-201.7 411.5,-201.7 411.5,-179.7 270.5,-179.7"/>
<text text-anchor="start" x="290.5" y="-186.8" font-family="Helvetica,sans-Serif" font-size="11.00" fill="#000000">end</text>
<polygon fill="none" stroke="#000000" points="411.5,-179.7 411.5,-201.7 505.5,-201.7 505.5,-179.7 411.5,-179.7"/>
<text text-anchor="start" x="414.5" y="-187.4" font-family="Helvetica,sans-Serif" font-size="11.00" fill="#000000">timestamp[29,6]</text>
<polygon fill="none" stroke="#000000" points="270.5,-157.7 270.5,-179.7 411.5,-179.7 411.5,-157.7 270.5,-157.7"/>
<text text-anchor="start" x="290.5" y="-164.8" font-family="Helvetica,sans-Serif" font-size="11.00" fill="#000000">comments</text>
<polygon fill="none" stroke="#000000" points="411.5,-157.7 411.5,-179.7 505.5,-179.7 505.5,-157.7 411.5,-157.7"/>
<text text-anchor="start" x="414.5" y="-165.4" font-family="Helvetica,sans-Serif" font-size="11.00" fill="#000000">text[2147483647]</text>
<polygon fill="#ffffff" stroke="transparent" points="270.5,-135.7 270.5,-157.7 411.5,-157.7 411.5,-135.7 270.5,-135.7"/>
<polygon fill="none" stroke="#000000" points="270.5,-135.7 270.5,-157.7 411.5,-157.7 411.5,-135.7 270.5,-135.7"/>
<image xlink:href="../../images/foreignKeys.png" width="11px" height="12px" preserveAspectRatio="xMinYMin meet" x="275.5" y="-152.7"/>
<text text-anchor="start" x="290.5" y="-142.8" font-family="Helvetica,sans-Serif" font-size="11.00" fill="#000000">legacy_id</text>
<polygon fill="none" stroke="#000000" points="411.5,-135.7 411.5,-157.7 505.5,-157.7 505.5,-135.7 411.5,-135.7"/>
<text text-anchor="start" x="414.5" y="-143.4" font-family="Helvetica,sans-Serif" font-size="11.00" fill="#000000">int8[19]</text>
<polygon fill="#ffffff" stroke="transparent" points="270.5,-116.7 270.5,-135.7 345.5,-135.7 345.5,-116.7 270.5,-116.7"/>
<polygon fill="none" stroke="#000000" points="270.5,-116.7 270.5,-135.7 345.5,-135.7 345.5,-116.7 270.5,-116.7"/>
<text text-anchor="start" x="273.5" y="-122.8" font-family="Helvetica,sans-Serif" font-size="11.00" fill="#000000">&lt; 3</text>
<polygon fill="#ffffff" stroke="transparent" points="345.5,-116.7 345.5,-135.7 411.5,-135.7 411.5,-116.7 345.5,-116.7"/>
<polygon fill="none" stroke="#000000" points="345.5,-116.7 345.5,-135.7 411.5,-135.7 411.5,-116.7 345.5,-116.7"/>
<text text-anchor="start" x="402.3862" y="-122.8" font-family="Helvetica,sans-Serif" font-size="11.00" fill="#000000"> &#160;</text>
<polygon fill="#ffffff" stroke="transparent" points="411.5,-116.7 411.5,-135.7 505.5,-135.7 505.5,-116.7 411.5,-116.7"/>
<polygon fill="none" stroke="#000000" points="411.5,-116.7 411.5,-135.7 505.5,-135.7 505.5,-116.7 411.5,-116.7"/>
<text text-anchor="start" x="486.9053" y="-122.8" font-family="Helvetica,sans-Serif" font-size="11.00" fill="#000000">1 &gt;</text>
<polygon fill="none" stroke="#000000" stroke-width="2" points="269,-115.7 269,-423.7 506,-423.7 506,-115.7 269,-115.7"/>
</a>
</g>
</g>
<!-- person_summary -->
<g id="node2" class="node">
<title>person_summary</title>
<g id="a_node2"><a xlink:href="../../tables/person_summary.html" xlink:title="person_summary" target="_top">
<polygon fill="#ffffff" stroke="transparent" points="36.5,-367.2 36.5,-450.2 190.5,-450.2 190.5,-367.2 36.5,-367.2"/>
<polygon fill="#f5f5f5" stroke="transparent" points="36.5,-426.7 36.5,-449.7 190.5,-449.7 190.5,-426.7 36.5,-426.7"/>
<polygon fill="none" stroke="#000000" points="36.5,-426.7 36.5,-449.7 190.5,-449.7 190.5,-426.7 36.5,-426.7"/>
<text text-anchor="start" x="41.5" y="-435.3" font-family="Helvetica,sans-Serif" font-weight="bold" font-size="11.00" fill="#000000">person_summary</text>
<text text-anchor="start" x="156.0219" y="-434.8" font-family="Helvetica,sans-Serif" font-size="11.00" fill="#000000">[table]</text>
<polygon fill="none" stroke="#000000" points="36.5,-404.7 36.5,-426.7 190.5,-426.7 190.5,-404.7 36.5,-404.7"/>
<image xlink:href="../../images/primaryKeys.png" width="11px" height="12px" preserveAspectRatio="xMinYMin meet" x="41.5" y="-421.7"/>
<text text-anchor="start" x="65.5" y="-411.8" font-family="Helvetica,sans-Serif" font-size="11.00" fill="#000000">person_identifier</text>
<polygon fill="none" stroke="#000000" points="36.5,-385.7 36.5,-404.7 190.5,-404.7 190.5,-385.7 36.5,-385.7"/>
<text text-anchor="start" x="39.5" y="-391.8" font-family="Helvetica,sans-Serif" font-size="11.00" fill="#000000">...</text>
<polygon fill="#ffffff" stroke="transparent" points="36.5,-366.7 36.5,-385.7 102.5,-385.7 102.5,-366.7 36.5,-366.7"/>
<polygon fill="none" stroke="#000000" points="36.5,-366.7 36.5,-385.7 102.5,-385.7 102.5,-366.7 36.5,-366.7"/>
<text text-anchor="start" x="39.5" y="-372.8" font-family="Helvetica,sans-Serif" font-size="11.00" fill="#000000"> &#160;</text>
<polygon fill="#ffffff" stroke="transparent" points="102.5,-366.7 102.5,-385.7 141.5,-385.7 141.5,-366.7 102.5,-366.7"/>
<polygon fill="none" stroke="#000000" points="102.5,-366.7 102.5,-385.7 141.5,-385.7 141.5,-366.7 102.5,-366.7"/>
<text text-anchor="start" x="132.3862" y="-372.8" font-family="Helvetica,sans-Serif" font-size="11.00" fill="#000000"> &#160;</text>
<polygon fill="#ffffff" stroke="transparent" points="141.5,-366.7 141.5,-385.7 190.5,-385.7 190.5,-366.7 141.5,-366.7"/>
<polygon fill="none" stroke="#000000" points="141.5,-366.7 141.5,-385.7 190.5,-385.7 190.5,-366.7 141.5,-366.7"/>
<text text-anchor="start" x="171.9053" y="-372.8" font-family="Helvetica,sans-Serif" font-size="11.00" fill="#000000">2 &gt;</text>
</a>
</g>
</g>
<!-- court_appearance&#45;&gt;person_summary -->
<g id="edge1" class="edge">
<title>court_appearance:w&#45;&gt;person_summary:e</title>
<path fill="none" stroke="#000000" d="M256.1653,-347.3966C225.635,-360.3656 232.468,-415.7 190.5,-415.7"/>
<polygon fill="#000000" stroke="#000000" points="262.6379,-346.179 271.1656,-348.2379 266.5689,-345.4395 270.5,-344.7 270.5,-344.7 270.5,-344.7 266.5689,-345.4395 269.8344,-341.1621 262.6379,-346.179 262.6379,-346.179"/>
<ellipse fill="none" stroke="#000000" cx="259.4931" cy="-346.7706" rx="3.2" ry="3.2"/>
</g>
<!-- court_appearance_reason -->
<g id="node3" class="node">
<title>court_appearance_reason</title>
<g id="a_node3"><a xlink:href="../../tables/court_appearance_reason.html" xlink:title="court_appearance_reason" target="_top">
<polygon fill="#ffffff" stroke="transparent" points="8,-186.2 8,-313.2 219,-313.2 219,-186.2 8,-186.2"/>
<polygon fill="#f5f5f5" stroke="transparent" points="8.5,-289.7 8.5,-312.7 219.5,-312.7 219.5,-289.7 8.5,-289.7"/>
<polygon fill="none" stroke="#000000" points="8.5,-289.7 8.5,-312.7 219.5,-312.7 219.5,-289.7 8.5,-289.7"/>
<text text-anchor="start" x="13.5" y="-298.3" font-family="Helvetica,sans-Serif" font-weight="bold" font-size="11.00" fill="#000000">court_appearance_reason</text>
<text text-anchor="start" x="185.0219" y="-297.8" font-family="Helvetica,sans-Serif" font-size="11.00" fill="#000000">[table]</text>
<polygon fill="none" stroke="#000000" points="8.5,-267.7 8.5,-289.7 219.5,-289.7 219.5,-267.7 8.5,-267.7"/>
<image xlink:href="../../images/primaryKeys.png" width="11px" height="12px" preserveAspectRatio="xMinYMin meet" x="13.5" y="-284.7"/>
<text text-anchor="start" x="37.5" y="-274.8" font-family="Helvetica,sans-Serif" font-size="11.00" fill="#000000">id</text>
<polygon fill="#ffffff" stroke="transparent" points="8.5,-245.7 8.5,-267.7 219.5,-267.7 219.5,-245.7 8.5,-245.7"/>
<polygon fill="none" stroke="#000000" points="8.5,-245.7 8.5,-267.7 219.5,-267.7 219.5,-245.7 8.5,-245.7"/>
<text text-anchor="start" x="37.5" y="-252.8" font-family="Helvetica,sans-Serif" font-size="11.00" fill="#000000">code</text>
<polygon fill="#ffffff" stroke="transparent" points="8.5,-223.7 8.5,-245.7 219.5,-245.7 219.5,-223.7 8.5,-223.7"/>
<polygon fill="none" stroke="#000000" points="8.5,-223.7 8.5,-245.7 219.5,-245.7 219.5,-223.7 8.5,-223.7"/>
<text text-anchor="start" x="37.5" y="-230.8" font-family="Helvetica,sans-Serif" font-size="11.00" fill="#000000">sequence_number</text>
<polygon fill="none" stroke="#000000" points="8.5,-204.7 8.5,-223.7 219.5,-223.7 219.5,-204.7 8.5,-204.7"/>
<text text-anchor="start" x="11.5" y="-210.8" font-family="Helvetica,sans-Serif" font-size="11.00" fill="#000000">...</text>
<polygon fill="#ffffff" stroke="transparent" points="8.5,-185.7 8.5,-204.7 103.5,-204.7 103.5,-185.7 8.5,-185.7"/>
<polygon fill="none" stroke="#000000" points="8.5,-185.7 8.5,-204.7 103.5,-204.7 103.5,-185.7 8.5,-185.7"/>
<text text-anchor="start" x="11.5" y="-191.8" font-family="Helvetica,sans-Serif" font-size="11.00" fill="#000000"> &#160;</text>
<polygon fill="#ffffff" stroke="transparent" points="103.5,-185.7 103.5,-204.7 156.5,-204.7 156.5,-185.7 103.5,-185.7"/>
<polygon fill="none" stroke="#000000" points="103.5,-185.7 103.5,-204.7 156.5,-204.7 156.5,-185.7 103.5,-185.7"/>
<text text-anchor="start" x="147.3862" y="-191.8" font-family="Helvetica,sans-Serif" font-size="11.00" fill="#000000"> &#160;</text>
<polygon fill="#ffffff" stroke="transparent" points="156.5,-185.7 156.5,-204.7 219.5,-204.7 219.5,-185.7 156.5,-185.7"/>
<polygon fill="none" stroke="#000000" points="156.5,-185.7 156.5,-204.7 219.5,-204.7 219.5,-185.7 156.5,-185.7"/>
<text text-anchor="start" x="200.9053" y="-191.8" font-family="Helvetica,sans-Serif" font-size="11.00" fill="#000000">2 &gt;</text>
</a>
</g>
</g>
<!-- court_appearance&#45;&gt;court_appearance_reason -->
<g id="edge2" class="edge">
<title>court_appearance:w&#45;&gt;court_appearance_reason:e</title>
<path fill="none" stroke="#000000" d="M255.776,-278.7C243.7815,-278.7 236.3229,-278.7 219.5,-278.7"/>
<polygon fill="#000000" stroke="#000000" points="262.5,-278.7001 270.5,-282.3 266.5,-278.7 270.5,-278.7 270.5,-278.7 270.5,-278.7 266.5,-278.7 270.5,-275.1 262.5,-278.7001 262.5,-278.7001"/>
<ellipse fill="none" stroke="#000000" cx="259.3" cy="-278.7001" rx="3.2" ry="3.2"/>
</g>
<!-- court_appearance_status -->
<g id="node4" class="node">
<title>court_appearance_status</title>
<g id="a_node4"><a xlink:href="../../tables/court_appearance_status.html" xlink:title="court_appearance_status" target="_top">
<polygon fill="#ffffff" stroke="transparent" points="9.5,-38.2 9.5,-165.2 217.5,-165.2 217.5,-38.2 9.5,-38.2"/>
<polygon fill="#f5f5f5" stroke="transparent" points="9.5,-141.7 9.5,-164.7 217.5,-164.7 217.5,-141.7 9.5,-141.7"/>
<polygon fill="none" stroke="#000000" points="9.5,-141.7 9.5,-164.7 217.5,-164.7 217.5,-141.7 9.5,-141.7"/>
<text text-anchor="start" x="14.5" y="-150.3" font-family="Helvetica,sans-Serif" font-weight="bold" font-size="11.00" fill="#000000">court_appearance_status</text>
<text text-anchor="start" x="183.0219" y="-149.8" font-family="Helvetica,sans-Serif" font-size="11.00" fill="#000000">[table]</text>
<polygon fill="none" stroke="#000000" points="9.5,-119.7 9.5,-141.7 217.5,-141.7 217.5,-119.7 9.5,-119.7"/>
<image xlink:href="../../images/primaryKeys.png" width="11px" height="12px" preserveAspectRatio="xMinYMin meet" x="14.5" y="-136.7"/>
<text text-anchor="start" x="38.5" y="-126.8" font-family="Helvetica,sans-Serif" font-size="11.00" fill="#000000">id</text>
<polygon fill="#ffffff" stroke="transparent" points="9.5,-97.7 9.5,-119.7 217.5,-119.7 217.5,-97.7 9.5,-97.7"/>
<polygon fill="none" stroke="#000000" points="9.5,-97.7 9.5,-119.7 217.5,-119.7 217.5,-97.7 9.5,-97.7"/>
<text text-anchor="start" x="38.5" y="-104.8" font-family="Helvetica,sans-Serif" font-size="11.00" fill="#000000">code</text>
<polygon fill="#ffffff" stroke="transparent" points="9.5,-75.7 9.5,-97.7 217.5,-97.7 217.5,-75.7 9.5,-75.7"/>
<polygon fill="none" stroke="#000000" points="9.5,-75.7 9.5,-97.7 217.5,-97.7 217.5,-75.7 9.5,-75.7"/>
<text text-anchor="start" x="38.5" y="-82.8" font-family="Helvetica,sans-Serif" font-size="11.00" fill="#000000">sequence_number</text>
<polygon fill="none" stroke="#000000" points="9.5,-56.7 9.5,-75.7 217.5,-75.7 217.5,-56.7 9.5,-56.7"/>
<text text-anchor="start" x="12.5" y="-62.8" font-family="Helvetica,sans-Serif" font-size="11.00" fill="#000000">...</text>
<polygon fill="#ffffff" stroke="transparent" points="9.5,-37.7 9.5,-56.7 102.5,-56.7 102.5,-37.7 9.5,-37.7"/>
<polygon fill="none" stroke="#000000" points="9.5,-37.7 9.5,-56.7 102.5,-56.7 102.5,-37.7 9.5,-37.7"/>
<text text-anchor="start" x="12.5" y="-43.8" font-family="Helvetica,sans-Serif" font-size="11.00" fill="#000000"> &#160;</text>
<polygon fill="#ffffff" stroke="transparent" points="102.5,-37.7 102.5,-56.7 155.5,-56.7 155.5,-37.7 102.5,-37.7"/>
<polygon fill="none" stroke="#000000" points="102.5,-37.7 102.5,-56.7 155.5,-56.7 155.5,-37.7 102.5,-37.7"/>
<text text-anchor="start" x="146.3862" y="-43.8" font-family="Helvetica,sans-Serif" font-size="11.00" fill="#000000"> &#160;</text>
<polygon fill="#ffffff" stroke="transparent" points="155.5,-37.7 155.5,-56.7 217.5,-56.7 217.5,-37.7 155.5,-37.7"/>
<polygon fill="none" stroke="#000000" points="155.5,-37.7 155.5,-56.7 217.5,-56.7 217.5,-37.7 155.5,-37.7"/>
<text text-anchor="start" x="198.9053" y="-43.8" font-family="Helvetica,sans-Serif" font-size="11.00" fill="#000000">1 &gt;</text>
</a>
</g>
</g>
<!-- court_appearance&#45;&gt;court_appearance_status -->
<g id="edge3" class="edge">
<title>court_appearance:w&#45;&gt;court_appearance_status:e</title>
<path fill="none" stroke="#000000" d="M256.5223,-230.9986C228.8042,-212.4721 263.5015,-130.7 217.5,-130.7"/>
<polygon fill="#000000" stroke="#000000" points="262.7666,-232.6521 269.5784,-238.1801 266.6333,-233.676 270.5,-234.7 270.5,-234.7 270.5,-234.7 266.6333,-233.676 271.4216,-231.2199 262.7666,-232.6521 262.7666,-232.6521"/>
<ellipse fill="none" stroke="#000000" cx="259.6732" cy="-231.8329" rx="3.2" ry="3.2"/>
</g>
<!-- court_appearance_movement -->
<g id="node5" class="node">
<title>court_appearance_movement</title>
<g id="a_node5"><a xlink:href="../../tables/court_appearance_movement.html" xlink:title="court_appearance_movement" target="_top">
<polygon fill="#ffffff" stroke="transparent" points="556,-274.2 556,-445.2 793,-445.2 793,-274.2 556,-274.2"/>
<polygon fill="#f5f5f5" stroke="transparent" points="556.5,-421.7 556.5,-444.7 793.5,-444.7 793.5,-421.7 556.5,-421.7"/>
<polygon fill="none" stroke="#000000" points="556.5,-421.7 556.5,-444.7 793.5,-444.7 793.5,-421.7 556.5,-421.7"/>
<text text-anchor="start" x="561.5" y="-430.3" font-family="Helvetica,sans-Serif" font-weight="bold" font-size="11.00" fill="#000000">court_appearance_movement</text>
<text text-anchor="start" x="759.0219" y="-429.8" font-family="Helvetica,sans-Serif" font-size="11.00" fill="#000000">[table]</text>
<polygon fill="none" stroke="#000000" points="556.5,-399.7 556.5,-421.7 793.5,-421.7 793.5,-399.7 556.5,-399.7"/>
<image xlink:href="../../images/primaryKeys.png" width="11px" height="12px" preserveAspectRatio="xMinYMin meet" x="561.5" y="-416.7"/>
<text text-anchor="start" x="585.5" y="-406.8" font-family="Helvetica,sans-Serif" font-size="11.00" fill="#000000">id</text>
<polygon fill="none" stroke="#000000" points="556.5,-377.7 556.5,-399.7 793.5,-399.7 793.5,-377.7 556.5,-377.7"/>
<image xlink:href="../../images/foreignKeys.png" width="11px" height="12px" preserveAspectRatio="xMinYMin meet" x="561.5" y="-394.7"/>
<text text-anchor="start" x="585.5" y="-384.8" font-family="Helvetica,sans-Serif" font-size="11.00" fill="#000000">court_appearance_id</text>
<polygon fill="#ffffff" stroke="transparent" points="556.5,-355.7 556.5,-377.7 793.5,-377.7 793.5,-355.7 556.5,-355.7"/>
<polygon fill="none" stroke="#000000" points="556.5,-355.7 556.5,-377.7 793.5,-377.7 793.5,-355.7 556.5,-355.7"/>
<image xlink:href="../../images/foreignKeys.png" width="11px" height="12px" preserveAspectRatio="xMinYMin meet" x="561.5" y="-372.7"/>
<text text-anchor="start" x="585.5" y="-362.8" font-family="Helvetica,sans-Serif" font-size="11.00" fill="#000000">person_identifier</text>
<polygon fill="none" stroke="#000000" points="556.5,-333.7 556.5,-355.7 793.5,-355.7 793.5,-333.7 556.5,-333.7"/>
<image xlink:href="../../images/foreignKeys.png" width="11px" height="12px" preserveAspectRatio="xMinYMin meet" x="561.5" y="-350.7"/>
<text text-anchor="start" x="585.5" y="-340.8" font-family="Helvetica,sans-Serif" font-size="11.00" fill="#000000">reason_id</text>
<polygon fill="#ffffff" stroke="transparent" points="556.5,-311.7 556.5,-333.7 793.5,-333.7 793.5,-311.7 556.5,-311.7"/>
<polygon fill="none" stroke="#000000" points="556.5,-311.7 556.5,-333.7 793.5,-333.7 793.5,-311.7 556.5,-311.7"/>
<text text-anchor="start" x="585.5" y="-318.8" font-family="Helvetica,sans-Serif" font-size="11.00" fill="#000000">legacy_id</text>
<polygon fill="none" stroke="#000000" points="556.5,-292.7 556.5,-311.7 793.5,-311.7 793.5,-292.7 556.5,-292.7"/>
<text text-anchor="start" x="559.5" y="-298.8" font-family="Helvetica,sans-Serif" font-size="11.00" fill="#000000">...</text>
<polygon fill="#ffffff" stroke="transparent" points="556.5,-273.7 556.5,-292.7 673.5,-292.7 673.5,-273.7 556.5,-273.7"/>
<polygon fill="none" stroke="#000000" points="556.5,-273.7 556.5,-292.7 673.5,-292.7 673.5,-273.7 556.5,-273.7"/>
<text text-anchor="start" x="559.5" y="-279.8" font-family="Helvetica,sans-Serif" font-size="11.00" fill="#000000">&lt; 3</text>
<polygon fill="#ffffff" stroke="transparent" points="673.5,-273.7 673.5,-292.7 733.5,-292.7 733.5,-273.7 673.5,-273.7"/>
<polygon fill="none" stroke="#000000" points="673.5,-273.7 673.5,-292.7 733.5,-292.7 733.5,-273.7 673.5,-273.7"/>
<text text-anchor="start" x="724.3862" y="-279.8" font-family="Helvetica,sans-Serif" font-size="11.00" fill="#000000"> &#160;</text>
<polygon fill="#ffffff" stroke="transparent" points="733.5,-273.7 733.5,-292.7 793.5,-292.7 793.5,-273.7 733.5,-273.7"/>
<polygon fill="none" stroke="#000000" points="733.5,-273.7 733.5,-292.7 793.5,-292.7 793.5,-273.7 733.5,-273.7"/>
<text text-anchor="start" x="784.3862" y="-279.8" font-family="Helvetica,sans-Serif" font-size="11.00" fill="#000000"> &#160;</text>
</a>
</g>
</g>
<!-- court_appearance_movement&#45;&gt;court_appearance -->
<g id="edge4" class="edge">
<title>court_appearance_movement:w&#45;&gt;court_appearance:e</title>
<path fill="none" stroke="#000000" d="M541.776,-388.7C529.7815,-388.7 522.3229,-388.7 505.5,-388.7"/>
<polygon fill="#000000" stroke="#000000" points="548.5,-388.7001 556.5,-392.3 552.5,-388.7 556.5,-388.7 556.5,-388.7 556.5,-388.7 552.5,-388.7 556.5,-385.1 548.5,-388.7001 548.5,-388.7001"/>
<ellipse fill="none" stroke="#000000" cx="545.3" cy="-388.7001" rx="3.2" ry="3.2"/>
</g>
<!-- court_appearance_movement&#45;&gt;person_summary -->
<g id="edge5" class="edge">
<title>court_appearance_movement:w&#45;&gt;person_summary:e</title>
<path fill="none" stroke="#000000" d="M542.4558,-371.1832C528.0281,-384.0761 540.5531,-421.2501 515,-435.7 416.3476,-491.4867 372.2229,-451.5261 260,-435.7 228.1725,-431.2116 222.6424,-415.7 190.5,-415.7"/>
<polygon fill="#000000" stroke="#000000" points="548.8789,-369.1329 557.5948,-370.1295 552.6894,-367.9164 556.5,-366.7 556.5,-366.7 556.5,-366.7 552.6894,-367.9164 555.4052,-363.2705 548.8789,-369.1329 548.8789,-369.1329"/>
<ellipse fill="none" stroke="#000000" cx="545.8304" cy="-370.106" rx="3.2" ry="3.2"/>
</g>
<!-- court_appearance_movement&#45;&gt;court_appearance_reason -->
<g id="edge6" class="edge">
<title>court_appearance_movement:w&#45;&gt;court_appearance_reason:e</title>
<path fill="none" stroke="#000000" d="M541.8813,-343.4129C462.476,-327.5961 593.8985,-170.1735 515,-103.7 428.3277,-30.677 348.7144,-33.1719 260,-103.7 197.5085,-153.3809 299.3335,-278.7 219.5,-278.7"/>
<polygon fill="#000000" stroke="#000000" points="548.5308,-343.9983 556.1842,-348.2861 552.5154,-344.3492 556.5,-344.7 556.5,-344.7 556.5,-344.7 552.5154,-344.3492 556.8158,-341.1139 548.5308,-343.9983 548.5308,-343.9983"/>
<ellipse fill="none" stroke="#000000" cx="545.3432" cy="-343.7177" rx="3.2" ry="3.2"/>
</g>
</g>
</svg>
