<?xml version="1.0" encoding="UTF-8" standalone="no"?>
<!DOCTYPE svg PUBLIC "-//W3C//DTD SVG 1.1//EN"
 "http://www.w3.org/Graphics/SVG/1.1/DTD/svg11.dtd">
<!-- Generated by graphviz version 2.40.1 (20161225.0304)
 -->
<!-- Title: oneDegreeRelationshipsDiagram Pages: 1 -->
<svg width="487pt" height="404pt"
 viewBox="0.00 0.00 487.00 404.20" xmlns="http://www.w3.org/2000/svg" xmlns:xlink="http://www.w3.org/1999/xlink">
<g id="graph0" class="graph" transform="scale(1 1) rotate(0) translate(4 400.2)">
<title>oneDegreeRelationshipsDiagram</title>
<polygon fill="#ffffff" stroke="transparent" points="-4,4 -4,-400.2 483,-400.2 483,4 -4,4"/>
<text text-anchor="middle" x="72.4936" y="-7.3" font-family="Helvetica,sans-Serif" font-size="11.00" fill="#000000">Generated by SchemaSpy</text>
<!-- court_appearance_audit -->
<g id="node1" class="node">
<title>court_appearance_audit</title>
<g id="a_node1"><a xlink:href="../../tables/court_appearance_audit.html" xlink:title="court_appearance_audit" target="_top">
<polygon fill="#ffffff" stroke="transparent" points="191,-38.2 191,-392.2 471,-392.2 471,-38.2 191,-38.2"/>
<polygon fill="#f5f5f5" stroke="transparent" points="193,-367.2 193,-390.2 469,-390.2 469,-367.2 193,-367.2"/>
<polygon fill="none" stroke="#000000" points="193,-367.2 193,-390.2 469,-390.2 469,-367.2 193,-367.2"/>
<text text-anchor="start" x="198" y="-375.8" font-family="Helvetica,sans-Serif" font-weight="bold" font-size="11.00" fill="#000000">court_appearance_audit</text>
<text text-anchor="start" x="434.0437" y="-375.3" font-family="Helvetica,sans-Serif" font-size="11.00" fill="#000000">[table]</text>
<polygon fill="none" stroke="#000000" points="193,-345.2 193,-367.2 375,-367.2 375,-345.2 193,-345.2"/>
<image xlink:href="../../images/primaryKeys.png" width="11px" height="12px" preserveAspectRatio="xMinYMin meet" x="198" y="-362.2"/>
<text text-anchor="start" x="213" y="-352.3" font-family="Helvetica,sans-Serif" font-size="11.00" fill="#000000">rev_id</text>
<polygon fill="none" stroke="#000000" points="375,-345.2 375,-367.2 469,-367.2 469,-345.2 375,-345.2"/>
<text text-anchor="start" x="378" y="-352.9" font-family="Helvetica,sans-Serif" font-size="11.00" fill="#000000">int8[19]</text>
<polygon fill="none" stroke="#000000" points="193,-323.2 193,-345.2 375,-345.2 375,-323.2 193,-323.2"/>
<text text-anchor="start" x="213" y="-330.3" font-family="Helvetica,sans-Serif" font-size="11.00" fill="#000000">rev_type</text>
<polygon fill="none" stroke="#000000" points="375,-323.2 375,-345.2 469,-345.2 469,-323.2 375,-323.2"/>
<text text-anchor="start" x="378" y="-330.9" font-family="Helvetica,sans-Serif" font-size="11.00" fill="#000000">int2[5]</text>
<polygon fill="none" stroke="#000000" points="193,-301.2 193,-323.2 375,-323.2 375,-301.2 193,-301.2"/>
<image xlink:href="../../images/primaryKeys.png" width="11px" height="12px" preserveAspectRatio="xMinYMin meet" x="198" y="-318.2"/>
<text text-anchor="start" x="213" y="-308.3" font-family="Helvetica,sans-Serif" font-size="11.00" fill="#000000">id</text>
<polygon fill="none" stroke="#000000" points="375,-301.2 375,-323.2 469,-323.2 469,-301.2 375,-301.2"/>
<text text-anchor="start" x="377.9758" y="-308.9" font-family="Helvetica,sans-Serif" font-size="11.00" fill="#000000">uuid[2147483647]</text>
<polygon fill="none" stroke="#000000" points="193,-279.2 193,-301.2 375,-301.2 375,-279.2 193,-279.2"/>
<text text-anchor="start" x="213" y="-286.3" font-family="Helvetica,sans-Serif" font-size="11.00" fill="#000000">version</text>
<polygon fill="none" stroke="#000000" points="375,-279.2 375,-301.2 469,-301.2 469,-279.2 375,-279.2"/>
<text text-anchor="start" x="378" y="-286.9" font-family="Helvetica,sans-Serif" font-size="11.00" fill="#000000">int4[10]</text>
<polygon fill="none" stroke="#000000" points="193,-257.2 193,-279.2 375,-279.2 375,-257.2 193,-257.2"/>
<image xlink:href="../../images/foreignKeys.png" width="11px" height="12px" preserveAspectRatio="xMinYMin meet" x="198" y="-274.2"/>
<text text-anchor="start" x="213" y="-264.3" font-family="Helvetica,sans-Serif" font-size="11.00" fill="#000000">person_identifier</text>
<polygon fill="none" stroke="#000000" points="375,-257.2 375,-279.2 469,-279.2 469,-257.2 375,-257.2"/>
<text text-anchor="start" x="378" y="-264.9" font-family="Helvetica,sans-Serif" font-size="11.00" fill="#000000">varchar[10]</text>
<polygon fill="none" stroke="#000000" points="193,-235.2 193,-257.2 375,-257.2 375,-235.2 193,-235.2"/>
<text text-anchor="start" x="213" y="-242.3" font-family="Helvetica,sans-Serif" font-size="11.00" fill="#000000">prison_code</text>
<polygon fill="none" stroke="#000000" points="375,-235.2 375,-257.2 469,-257.2 469,-235.2 375,-235.2"/>
<text text-anchor="start" x="378" y="-242.9" font-family="Helvetica,sans-Serif" font-size="11.00" fill="#000000">varchar[6]</text>
<polygon fill="none" stroke="#000000" points="193,-213.2 193,-235.2 375,-235.2 375,-213.2 193,-213.2"/>
<text text-anchor="start" x="213" y="-220.3" font-family="Helvetica,sans-Serif" font-size="11.00" fill="#000000">court_code</text>
<polygon fill="none" stroke="#000000" points="375,-213.2 375,-235.2 469,-235.2 469,-213.2 375,-213.2"/>
<text text-anchor="start" x="378" y="-220.9" font-family="Helvetica,sans-Serif" font-size="11.00" fill="#000000">varchar[6]</text>
<polygon fill="none" stroke="#000000" points="193,-191.2 193,-213.2 375,-213.2 375,-191.2 193,-191.2"/>
<text text-anchor="start" x="213" y="-198.3" font-family="Helvetica,sans-Serif" font-size="11.00" fill="#000000">reason_id</text>
<polygon fill="none" stroke="#000000" points="375,-191.2 375,-213.2 469,-213.2 469,-191.2 375,-191.2"/>
<text text-anchor="start" x="377.9758" y="-198.9" font-family="Helvetica,sans-Serif" font-size="11.00" fill="#000000">uuid[2147483647]</text>
<polygon fill="none" stroke="#000000" points="193,-169.2 193,-191.2 375,-191.2 375,-169.2 193,-169.2"/>
<text text-anchor="start" x="213" y="-176.3" font-family="Helvetica,sans-Serif" font-size="11.00" fill="#000000">external</text>
<polygon fill="none" stroke="#000000" points="375,-169.2 375,-191.2 469,-191.2 469,-169.2 375,-169.2"/>
<text text-anchor="start" x="378" y="-176.9" font-family="Helvetica,sans-Serif" font-size="11.00" fill="#000000">bool[1]</text>
<polygon fill="none" stroke="#000000" points="193,-147.2 193,-169.2 375,-169.2 375,-147.2 193,-147.2"/>
<text text-anchor="start" x="213" y="-154.3" font-family="Helvetica,sans-Serif" font-size="11.00" fill="#000000">status_id</text>
<polygon fill="none" stroke="#000000" points="375,-147.2 375,-169.2 469,-169.2 469,-147.2 375,-147.2"/>
<text text-anchor="start" x="377.9758" y="-154.9" font-family="Helvetica,sans-Serif" font-size="11.00" fill="#000000">uuid[2147483647]</text>
<polygon fill="none" stroke="#000000" points="193,-125.2 193,-147.2 375,-147.2 375,-125.2 193,-125.2"/>
<text text-anchor="start" x="213" y="-132.3" font-family="Helvetica,sans-Serif" font-size="11.00" fill="#000000">start</text>
<polygon fill="none" stroke="#000000" points="375,-125.2 375,-147.2 469,-147.2 469,-125.2 375,-125.2"/>
<text text-anchor="start" x="378" y="-132.9" font-family="Helvetica,sans-Serif" font-size="11.00" fill="#000000">timestamp[29,6]</text>
<polygon fill="none" stroke="#000000" points="193,-103.2 193,-125.2 375,-125.2 375,-103.2 193,-103.2"/>
<text text-anchor="start" x="213" y="-110.3" font-family="Helvetica,sans-Serif" font-size="11.00" fill="#000000">end</text>
<polygon fill="none" stroke="#000000" points="375,-103.2 375,-125.2 469,-125.2 469,-103.2 375,-103.2"/>
<text text-anchor="start" x="378" y="-110.9" font-family="Helvetica,sans-Serif" font-size="11.00" fill="#000000">timestamp[29,6]</text>
<polygon fill="none" stroke="#000000" points="193,-81.2 193,-103.2 375,-103.2 375,-81.2 193,-81.2"/>
<text text-anchor="start" x="213" y="-88.3" font-family="Helvetica,sans-Serif" font-size="11.00" fill="#000000">comments</text>
<polygon fill="none" stroke="#000000" points="375,-81.2 375,-103.2 469,-103.2 469,-81.2 375,-81.2"/>
<text text-anchor="start" x="378" y="-88.9" font-family="Helvetica,sans-Serif" font-size="11.00" fill="#000000">text[2147483647]</text>
<polygon fill="none" stroke="#000000" points="193,-59.2 193,-81.2 375,-81.2 375,-59.2 193,-59.2"/>
<image xlink:href="../../images/foreignKeys.png" width="11px" height="12px" preserveAspectRatio="xMinYMin meet" x="198" y="-76.2"/>
<text text-anchor="start" x="213" y="-66.3" font-family="Helvetica,sans-Serif" font-size="11.00" fill="#000000">legacy_id</text>
<polygon fill="none" stroke="#000000" points="375,-59.2 375,-81.2 469,-81.2 469,-59.2 375,-59.2"/>
<text text-anchor="start" x="378" y="-66.9" font-family="Helvetica,sans-Serif" font-size="11.00" fill="#000000">int8[19]</text>
<polygon fill="#ffffff" stroke="transparent" points="193,-40.2 193,-59.2 288,-59.2 288,-40.2 193,-40.2"/>
<polygon fill="none" stroke="#000000" points="193,-40.2 193,-59.2 288,-59.2 288,-40.2 193,-40.2"/>
<text text-anchor="start" x="196" y="-46.3" font-family="Helvetica,sans-Serif" font-size="11.00" fill="#000000">&lt; 1</text>
<polygon fill="#ffffff" stroke="transparent" points="288,-40.2 288,-59.2 375,-59.2 375,-40.2 288,-40.2"/>
<polygon fill="none" stroke="#000000" points="288,-40.2 288,-59.2 375,-59.2 375,-40.2 288,-40.2"/>
<text text-anchor="start" x="365.8862" y="-46.3" font-family="Helvetica,sans-Serif" font-size="11.00" fill="#000000"> &#160;</text>
<polygon fill="#ffffff" stroke="transparent" points="375,-40.2 375,-59.2 469,-59.2 469,-40.2 375,-40.2"/>
<polygon fill="none" stroke="#000000" points="375,-40.2 375,-59.2 469,-59.2 469,-40.2 375,-40.2"/>
<text text-anchor="start" x="450.4053" y="-46.3" font-family="Helvetica,sans-Serif" font-size="11.00" fill="#000000">0 &gt;</text>
<polygon fill="none" stroke="#000000" stroke-width="2" points="192,-39.2 192,-391.2 470,-391.2 470,-39.2 192,-39.2"/>
</a>
</g>
</g>
<!-- audit_revision -->
<g id="node2" class="node">
<title>audit_revision</title>
<g id="a_node2"><a xlink:href="../../tables/audit_revision.html" xlink:title="audit_revision" target="_top">
<polygon fill="#ffffff" stroke="transparent" points="8,-307.7 8,-390.7 142,-390.7 142,-307.7 8,-307.7"/>
<polygon fill="#f5f5f5" stroke="transparent" points="8,-367.2 8,-390.2 142,-390.2 142,-367.2 8,-367.2"/>
<polygon fill="none" stroke="#000000" points="8,-367.2 8,-390.2 142,-390.2 142,-367.2 8,-367.2"/>
<text text-anchor="start" x="13" y="-375.8" font-family="Helvetica,sans-Serif" font-weight="bold" font-size="11.00" fill="#000000">audit_revision</text>
<text text-anchor="start" x="107.5219" y="-375.3" font-family="Helvetica,sans-Serif" font-size="11.00" fill="#000000">[table]</text>
<polygon fill="none" stroke="#000000" points="8,-345.2 8,-367.2 142,-367.2 142,-345.2 8,-345.2"/>
<image xlink:href="../../images/primaryKeys.png" width="11px" height="12px" preserveAspectRatio="xMinYMin meet" x="13" y="-362.2"/>
<text text-anchor="start" x="28" y="-352.3" font-family="Helvetica,sans-Serif" font-size="11.00" fill="#000000">id</text>
<polygon fill="none" stroke="#000000" points="8,-326.2 8,-345.2 142,-345.2 142,-326.2 8,-326.2"/>
<text text-anchor="start" x="11" y="-332.3" font-family="Helvetica,sans-Serif" font-size="11.00" fill="#000000">...</text>
<polygon fill="#ffffff" stroke="transparent" points="8,-307.2 8,-326.2 64,-326.2 64,-307.2 8,-307.2"/>
<polygon fill="none" stroke="#000000" points="8,-307.2 8,-326.2 64,-326.2 64,-307.2 8,-307.2"/>
<text text-anchor="start" x="11" y="-313.3" font-family="Helvetica,sans-Serif" font-size="11.00" fill="#000000"> &#160;</text>
<polygon fill="#ffffff" stroke="transparent" points="64,-307.2 64,-326.2 98,-326.2 98,-307.2 64,-307.2"/>
<polygon fill="none" stroke="#000000" points="64,-307.2 64,-326.2 98,-326.2 98,-307.2 64,-307.2"/>
<text text-anchor="start" x="88.8862" y="-313.3" font-family="Helvetica,sans-Serif" font-size="11.00" fill="#000000"> &#160;</text>
<polygon fill="#ffffff" stroke="transparent" points="98,-307.2 98,-326.2 142,-326.2 142,-307.2 98,-307.2"/>
<polygon fill="none" stroke="#000000" points="98,-307.2 98,-326.2 142,-326.2 142,-307.2 98,-307.2"/>
<text text-anchor="start" x="123.4053" y="-313.3" font-family="Helvetica,sans-Serif" font-size="11.00" fill="#000000">2 &gt;</text>
</a>
</g>
</g>
<!-- court_appearance_audit&#45;&gt;audit_revision -->
<g id="edge1" class="edge">
<title>court_appearance_audit:w&#45;&gt;audit_revision:e</title>
<path fill="none" stroke="#000000" d="M178.276,-356.2C166.2815,-356.2 158.8229,-356.2 142,-356.2"/>
<polygon fill="#000000" stroke="#000000" points="185,-356.2001 193,-359.8 189,-356.2 193,-356.2 193,-356.2 193,-356.2 189,-356.2 193,-352.6 185,-356.2001 185,-356.2001"/>
<ellipse fill="none" stroke="#000000" cx="181.8" cy="-356.2001" rx="3.2" ry="3.2"/>
</g>
</g>
</svg>
