<?xml version="1.0" encoding="UTF-8" standalone="no"?>
<!DOCTYPE svg PUBLIC "-//W3C//DTD SVG 1.1//EN"
 "http://www.w3.org/Graphics/SVG/1.1/DTD/svg11.dtd">
<!-- Generated by graphviz version 2.40.1 (20161225.0304)
 -->
<!-- Title: twoDegreesRelationshipsDiagramImplied Pages: 1 -->
<svg width="517pt" height="519pt"
 viewBox="0.00 0.00 517.00 518.70" xmlns="http://www.w3.org/2000/svg" xmlns:xlink="http://www.w3.org/1999/xlink">
<g id="graph0" class="graph" transform="scale(1 1) rotate(0) translate(4 514.7)">
<title>twoDegreesRelationshipsDiagramImplied</title>
<polygon fill="#ffffff" stroke="transparent" points="-4,4 -4,-514.7 513,-514.7 513,4 -4,4"/>
<text text-anchor="middle" x="72.4936" y="-7.3" font-family="Helvetica,sans-Serif" font-size="11.00" fill="#000000">Generated by SchemaSpy</text>
<!-- court_appearance -->
<g id="node1" class="node">
<title>court_appearance</title>
<g id="a_node1"><a xlink:href="../../tables/court_appearance.html" xlink:title="court_appearance" target="_top">
<polygon fill="#ffffff" stroke="transparent" points="266.5,-445.7 266.5,-506.7 425.5,-506.7 425.5,-445.7 266.5,-445.7"/>
<polygon fill="#f5f5f5" stroke="transparent" points="267,-483.2 267,-506.2 426,-506.2 426,-483.2 267,-483.2"/>
<polygon fill="none" stroke="#000000" points="267,-483.2 267,-506.2 426,-506.2 426,-483.2 267,-483.2"/>
<text text-anchor="start" x="272" y="-491.8" font-family="Helvetica,sans-Serif" font-weight="bold" font-size="11.00" fill="#000000">court_appearance</text>
<text text-anchor="start" x="391.5219" y="-491.3" font-family="Helvetica,sans-Serif" font-size="11.00" fill="#000000">[table]</text>
<polygon fill="none" stroke="#000000" points="267,-464.2 267,-483.2 426,-483.2 426,-464.2 267,-464.2"/>
<text text-anchor="start" x="270" y="-470.3" font-family="Helvetica,sans-Serif" font-size="11.00" fill="#000000">...</text>
<polygon fill="#ffffff" stroke="transparent" points="267,-445.2 267,-464.2 340,-464.2 340,-445.2 267,-445.2"/>
<polygon fill="none" stroke="#000000" points="267,-445.2 267,-464.2 340,-464.2 340,-445.2 267,-445.2"/>
<text text-anchor="start" x="270" y="-451.3" font-family="Helvetica,sans-Serif" font-size="11.00" fill="#000000">&lt; 4</text>
<polygon fill="#ffffff" stroke="transparent" points="340,-445.2 340,-464.2 378,-464.2 378,-445.2 340,-445.2"/>
<polygon fill="none" stroke="#000000" points="340,-445.2 340,-464.2 378,-464.2 378,-445.2 340,-445.2"/>
<text text-anchor="start" x="368.8862" y="-451.3" font-family="Helvetica,sans-Serif" font-size="11.00" fill="#000000"> &#160;</text>
<polygon fill="#ffffff" stroke="transparent" points="378,-445.2 378,-464.2 426,-464.2 426,-445.2 378,-445.2"/>
<polygon fill="none" stroke="#000000" points="378,-445.2 378,-464.2 426,-464.2 426,-445.2 378,-445.2"/>
<text text-anchor="start" x="407.4053" y="-451.3" font-family="Helvetica,sans-Serif" font-size="11.00" fill="#000000">1 &gt;</text>
</a>
</g>
</g>
<!-- audit_revision -->
<g id="node2" class="node">
<title>audit_revision</title>
<g id="a_node2"><a xlink:href="../../tables/audit_revision.html" xlink:title="audit_revision" target="_top">
<polygon fill="#ffffff" stroke="transparent" points="8,-342.7 8,-425.7 142,-425.7 142,-342.7 8,-342.7"/>
<polygon fill="#f5f5f5" stroke="transparent" points="8,-402.2 8,-425.2 142,-425.2 142,-402.2 8,-402.2"/>
<polygon fill="none" stroke="#000000" points="8,-402.2 8,-425.2 142,-425.2 142,-402.2 8,-402.2"/>
<text text-anchor="start" x="13" y="-410.8" font-family="Helvetica,sans-Serif" font-weight="bold" font-size="11.00" fill="#000000">audit_revision</text>
<text text-anchor="start" x="107.5219" y="-410.3" font-family="Helvetica,sans-Serif" font-size="11.00" fill="#000000">[table]</text>
<polygon fill="none" stroke="#000000" points="8,-380.2 8,-402.2 142,-402.2 142,-380.2 8,-380.2"/>
<image xlink:href="../../images/primaryKeys.png" width="11px" height="12px" preserveAspectRatio="xMinYMin meet" x="13" y="-397.2"/>
<text text-anchor="start" x="28" y="-387.3" font-family="Helvetica,sans-Serif" font-size="11.00" fill="#000000">id</text>
<polygon fill="none" stroke="#000000" points="8,-361.2 8,-380.2 142,-380.2 142,-361.2 8,-361.2"/>
<text text-anchor="start" x="11" y="-367.3" font-family="Helvetica,sans-Serif" font-size="11.00" fill="#000000">...</text>
<polygon fill="#ffffff" stroke="transparent" points="8,-342.2 8,-361.2 64,-361.2 64,-342.2 8,-342.2"/>
<polygon fill="none" stroke="#000000" points="8,-342.2 8,-361.2 64,-361.2 64,-342.2 8,-342.2"/>
<text text-anchor="start" x="11" y="-348.3" font-family="Helvetica,sans-Serif" font-size="11.00" fill="#000000"> &#160;</text>
<polygon fill="#ffffff" stroke="transparent" points="64,-342.2 64,-361.2 98,-361.2 98,-342.2 64,-342.2"/>
<polygon fill="none" stroke="#000000" points="64,-342.2 64,-361.2 98,-361.2 98,-342.2 64,-342.2"/>
<text text-anchor="start" x="88.8862" y="-348.3" font-family="Helvetica,sans-Serif" font-size="11.00" fill="#000000"> &#160;</text>
<polygon fill="#ffffff" stroke="transparent" points="98,-342.2 98,-361.2 142,-361.2 142,-342.2 98,-342.2"/>
<polygon fill="none" stroke="#000000" points="98,-342.2 98,-361.2 142,-361.2 142,-342.2 98,-342.2"/>
<text text-anchor="start" x="123.4053" y="-348.3" font-family="Helvetica,sans-Serif" font-size="11.00" fill="#000000">5 &gt;</text>
</a>
</g>
</g>
<!-- court_appearance&#45;&gt;audit_revision -->
<g id="edge1" class="edge">
<title>court_appearance:w&#45;&gt;audit_revision:e</title>
<path fill="none" stroke="#000000" stroke-dasharray="5,2" d="M256.254,-472.8318C223.9909,-470.4701 213.1632,-456.8595 183,-435.2 161.2883,-419.6093 168.7296,-391.2 142,-391.2"/>
<polygon fill="#000000" stroke="#000000" points="266.3375,-469.1749 266.0634,-477.1702 264.4644,-477.1154 264.7384,-469.1201 266.3375,-469.1749"/>
<polyline fill="none" stroke="#000000" points="267,-473.2 263.0023,-473.063 "/>
<ellipse fill="none" stroke="#000000" cx="259.8042" cy="-472.9534" rx="3.2" ry="3.2"/>
</g>
<!-- court_appearance_audit -->
<g id="node3" class="node">
<title>court_appearance_audit</title>
<g id="a_node3"><a xlink:href="../../tables/court_appearance_audit.html" xlink:title="court_appearance_audit" target="_top">
<polygon fill="#ffffff" stroke="transparent" points="246,-363.7 246,-424.7 446,-424.7 446,-363.7 246,-363.7"/>
<polygon fill="#f5f5f5" stroke="transparent" points="246,-401.2 246,-424.2 446,-424.2 446,-401.2 246,-401.2"/>
<polygon fill="none" stroke="#000000" points="246,-401.2 246,-424.2 446,-424.2 446,-401.2 246,-401.2"/>
<text text-anchor="start" x="251" y="-409.8" font-family="Helvetica,sans-Serif" font-weight="bold" font-size="11.00" fill="#000000">court_appearance_audit</text>
<text text-anchor="start" x="411.5219" y="-409.3" font-family="Helvetica,sans-Serif" font-size="11.00" fill="#000000">[table]</text>
<polygon fill="none" stroke="#000000" points="246,-382.2 246,-401.2 446,-401.2 446,-382.2 246,-382.2"/>
<text text-anchor="start" x="249" y="-388.3" font-family="Helvetica,sans-Serif" font-size="11.00" fill="#000000">...</text>
<polygon fill="#ffffff" stroke="transparent" points="246,-363.2 246,-382.2 344,-382.2 344,-363.2 246,-363.2"/>
<polygon fill="none" stroke="#000000" points="246,-363.2 246,-382.2 344,-382.2 344,-363.2 246,-363.2"/>
<text text-anchor="start" x="249" y="-369.3" font-family="Helvetica,sans-Serif" font-size="11.00" fill="#000000">&lt; 3</text>
<polygon fill="#ffffff" stroke="transparent" points="344,-363.2 344,-382.2 395,-382.2 395,-363.2 344,-363.2"/>
<polygon fill="none" stroke="#000000" points="344,-363.2 344,-382.2 395,-382.2 395,-363.2 344,-363.2"/>
<text text-anchor="start" x="385.8862" y="-369.3" font-family="Helvetica,sans-Serif" font-size="11.00" fill="#000000"> &#160;</text>
<polygon fill="#ffffff" stroke="transparent" points="395,-363.2 395,-382.2 446,-382.2 446,-363.2 395,-363.2"/>
<polygon fill="none" stroke="#000000" points="395,-363.2 395,-382.2 446,-382.2 446,-363.2 395,-363.2"/>
<text text-anchor="start" x="436.8862" y="-369.3" font-family="Helvetica,sans-Serif" font-size="11.00" fill="#000000"> &#160;</text>
</a>
</g>
</g>
<!-- court_appearance_audit&#45;&gt;audit_revision -->
<g id="edge2" class="edge">
<title>court_appearance_audit:w&#45;&gt;audit_revision:e</title>
<path fill="none" stroke="#000000" stroke-dasharray="5,2" d="M231.5255,-389.3919C196.7149,-385.277 182.9861,-385.8797 142,-391.2"/>
<polygon fill="#000000" stroke="#000000" points="238.0617,-390.2083 245.5538,-394.7722 242.0308,-390.7042 246,-391.2 246,-391.2 246,-391.2 242.0308,-390.7042 246.4462,-387.6278 238.0617,-390.2083 238.0617,-390.2083"/>
<ellipse fill="none" stroke="#000000" cx="234.8864" cy="-389.8117" rx="3.2" ry="3.2"/>
</g>
<!-- court_appearance_audit&#45;&gt;audit_revision -->
<g id="edge3" class="edge">
<title>court_appearance_audit:w&#45;&gt;audit_revision:e</title>
<path fill="none" stroke="#000000" d="M231.5255,-393.3094C196.7149,-398.1102 182.9861,-397.407 142,-391.2"/>
<polygon fill="#000000" stroke="#000000" points="238.0836,-392.3537 246.5192,-394.7624 242.0418,-391.7769 246,-391.2 246,-391.2 246,-391.2 242.0418,-391.7769 245.4808,-387.6376 238.0836,-392.3537 238.0836,-392.3537"/>
<ellipse fill="none" stroke="#000000" cx="234.9171" cy="-392.8152" rx="3.2" ry="3.2"/>
</g>
<!-- court_appearance_movement_audit -->
<g id="node4" class="node">
<title>court_appearance_movement_audit</title>
<g id="a_node4"><a xlink:href="../../tables/court_appearance_movement_audit.html" xlink:title="court_appearance_movement_audit" target="_top">
<polygon fill="#ffffff" stroke="transparent" points="207,-281.7 207,-342.7 485,-342.7 485,-281.7 207,-281.7"/>
<polygon fill="#f5f5f5" stroke="transparent" points="207,-319.2 207,-342.2 485,-342.2 485,-319.2 207,-319.2"/>
<polygon fill="none" stroke="#000000" points="207,-319.2 207,-342.2 485,-342.2 485,-319.2 207,-319.2"/>
<text text-anchor="start" x="212" y="-327.8" font-family="Helvetica,sans-Serif" font-weight="bold" font-size="11.00" fill="#000000">court_appearance_movement_audit</text>
<text text-anchor="start" x="450.5219" y="-327.3" font-family="Helvetica,sans-Serif" font-size="11.00" fill="#000000">[table]</text>
<polygon fill="none" stroke="#000000" points="207,-300.2 207,-319.2 485,-319.2 485,-300.2 207,-300.2"/>
<text text-anchor="start" x="210" y="-306.3" font-family="Helvetica,sans-Serif" font-size="11.00" fill="#000000">...</text>
<polygon fill="#ffffff" stroke="transparent" points="207,-281.2 207,-300.2 344,-300.2 344,-281.2 207,-281.2"/>
<polygon fill="none" stroke="#000000" points="207,-281.2 207,-300.2 344,-300.2 344,-281.2 207,-281.2"/>
<text text-anchor="start" x="210" y="-287.3" font-family="Helvetica,sans-Serif" font-size="11.00" fill="#000000">&lt; 1</text>
<polygon fill="#ffffff" stroke="transparent" points="344,-281.2 344,-300.2 414,-300.2 414,-281.2 344,-281.2"/>
<polygon fill="none" stroke="#000000" points="344,-281.2 344,-300.2 414,-300.2 414,-281.2 344,-281.2"/>
<text text-anchor="start" x="404.8862" y="-287.3" font-family="Helvetica,sans-Serif" font-size="11.00" fill="#000000"> &#160;</text>
<polygon fill="#ffffff" stroke="transparent" points="414,-281.2 414,-300.2 485,-300.2 485,-281.2 414,-281.2"/>
<polygon fill="none" stroke="#000000" points="414,-281.2 414,-300.2 485,-300.2 485,-281.2 414,-281.2"/>
<text text-anchor="start" x="475.8862" y="-287.3" font-family="Helvetica,sans-Serif" font-size="11.00" fill="#000000"> &#160;</text>
</a>
</g>
</g>
<!-- court_appearance_movement_audit&#45;&gt;audit_revision -->
<g id="edge4" class="edge">
<title>court_appearance_movement_audit:w&#45;&gt;audit_revision:e</title>
<path fill="none" stroke="#000000" d="M192.7623,-312.7234C166.3329,-328.4188 182.6923,-391.2 142,-391.2"/>
<polygon fill="#000000" stroke="#000000" points="199.2343,-311.1218 207.8648,-312.6946 203.1171,-310.1609 207,-309.2 207,-309.2 207,-309.2 203.1171,-310.1609 206.1352,-305.7054 199.2343,-311.1218 199.2343,-311.1218"/>
<ellipse fill="none" stroke="#000000" cx="196.128" cy="-311.8906" rx="3.2" ry="3.2"/>
</g>
<!-- hmpps_domain_event_audit -->
<g id="node5" class="node">
<title>hmpps_domain_event_audit</title>
<g id="a_node5"><a xlink:href="../../tables/hmpps_domain_event_audit.html" xlink:title="hmpps_domain_event_audit" target="_top">
<polygon fill="#ffffff" stroke="transparent" points="191,-38.2 191,-260.2 501,-260.2 501,-38.2 191,-38.2"/>
<polygon fill="#f5f5f5" stroke="transparent" points="193,-235.2 193,-258.2 499,-258.2 499,-235.2 193,-235.2"/>
<polygon fill="none" stroke="#000000" points="193,-235.2 193,-258.2 499,-258.2 499,-235.2 193,-235.2"/>
<text text-anchor="start" x="198" y="-243.8" font-family="Helvetica,sans-Serif" font-weight="bold" font-size="11.00" fill="#000000">hmpps_domain_event_audit</text>
<text text-anchor="start" x="464.0437" y="-243.3" font-family="Helvetica,sans-Serif" font-size="11.00" fill="#000000">[table]</text>
<polygon fill="none" stroke="#000000" points="193,-213.2 193,-235.2 400,-235.2 400,-213.2 193,-213.2"/>
<image xlink:href="../../images/primaryKeys.png" width="11px" height="12px" preserveAspectRatio="xMinYMin meet" x="198" y="-230.2"/>
<text text-anchor="start" x="213" y="-220.3" font-family="Helvetica,sans-Serif" font-size="11.00" fill="#000000">rev_id</text>
<polygon fill="none" stroke="#000000" points="400,-213.2 400,-235.2 499,-235.2 499,-213.2 400,-213.2"/>
<text text-anchor="start" x="403" y="-220.9" font-family="Helvetica,sans-Serif" font-size="11.00" fill="#000000">int8[19]</text>
<polygon fill="none" stroke="#000000" points="193,-191.2 193,-213.2 400,-213.2 400,-191.2 193,-191.2"/>
<text text-anchor="start" x="213" y="-198.3" font-family="Helvetica,sans-Serif" font-size="11.00" fill="#000000">rev_type</text>
<polygon fill="none" stroke="#000000" points="400,-191.2 400,-213.2 499,-213.2 499,-191.2 400,-191.2"/>
<text text-anchor="start" x="403" y="-198.9" font-family="Helvetica,sans-Serif" font-size="11.00" fill="#000000">int2[5]</text>
<polygon fill="none" stroke="#000000" points="193,-169.2 193,-191.2 400,-191.2 400,-169.2 193,-169.2"/>
<image xlink:href="../../images/primaryKeys.png" width="11px" height="12px" preserveAspectRatio="xMinYMin meet" x="198" y="-186.2"/>
<text text-anchor="start" x="213" y="-176.3" font-family="Helvetica,sans-Serif" font-size="11.00" fill="#000000">id</text>
<polygon fill="none" stroke="#000000" points="400,-169.2 400,-191.2 499,-191.2 499,-169.2 400,-169.2"/>
<text text-anchor="start" x="403" y="-176.9" font-family="Helvetica,sans-Serif" font-size="11.00" fill="#000000">uuid[2147483647]</text>
<polygon fill="none" stroke="#000000" points="193,-147.2 193,-169.2 400,-169.2 400,-147.2 193,-147.2"/>
<text text-anchor="start" x="213" y="-154.3" font-family="Helvetica,sans-Serif" font-size="11.00" fill="#000000">version</text>
<polygon fill="none" stroke="#000000" points="400,-147.2 400,-169.2 499,-169.2 499,-147.2 400,-147.2"/>
<text text-anchor="start" x="403" y="-154.9" font-family="Helvetica,sans-Serif" font-size="11.00" fill="#000000">int4[10]</text>
<polygon fill="#ffffff" stroke="transparent" points="193,-125.2 193,-147.2 400,-147.2 400,-125.2 193,-125.2"/>
<polygon fill="none" stroke="#000000" points="193,-125.2 193,-147.2 400,-147.2 400,-125.2 193,-125.2"/>
<text text-anchor="start" x="213" y="-132.3" font-family="Helvetica,sans-Serif" font-size="11.00" fill="#000000">entity_id</text>
<polygon fill="none" stroke="#000000" points="400,-125.2 400,-147.2 499,-147.2 499,-125.2 400,-125.2"/>
<text text-anchor="start" x="403" y="-132.9" font-family="Helvetica,sans-Serif" font-size="11.00" fill="#000000">uuid[2147483647]</text>
<polygon fill="#ffffff" stroke="transparent" points="193,-103.2 193,-125.2 400,-125.2 400,-103.2 193,-103.2"/>
<polygon fill="none" stroke="#000000" points="193,-103.2 193,-125.2 400,-125.2 400,-103.2 193,-103.2"/>
<text text-anchor="start" x="213" y="-110.3" font-family="Helvetica,sans-Serif" font-size="11.00" fill="#000000">event_type</text>
<polygon fill="none" stroke="#000000" points="400,-103.2 400,-125.2 499,-125.2 499,-103.2 400,-103.2"/>
<text text-anchor="start" x="403" y="-110.9" font-family="Helvetica,sans-Serif" font-size="11.00" fill="#000000">text[2147483647]</text>
<polygon fill="none" stroke="#000000" points="193,-81.2 193,-103.2 400,-103.2 400,-81.2 193,-81.2"/>
<text text-anchor="start" x="213" y="-88.3" font-family="Helvetica,sans-Serif" font-size="11.00" fill="#000000">event</text>
<polygon fill="none" stroke="#000000" points="400,-81.2 400,-103.2 499,-103.2 499,-81.2 400,-81.2"/>
<text text-anchor="start" x="402.7258" y="-88.9" font-family="Helvetica,sans-Serif" font-size="11.00" fill="#000000">jsonb[2147483647]</text>
<polygon fill="none" stroke="#000000" points="193,-59.2 193,-81.2 400,-81.2 400,-59.2 193,-59.2"/>
<text text-anchor="start" x="213" y="-66.3" font-family="Helvetica,sans-Serif" font-size="11.00" fill="#000000">published</text>
<polygon fill="none" stroke="#000000" points="400,-59.2 400,-81.2 499,-81.2 499,-59.2 400,-59.2"/>
<text text-anchor="start" x="403" y="-66.9" font-family="Helvetica,sans-Serif" font-size="11.00" fill="#000000">bool[1]</text>
<polygon fill="#ffffff" stroke="transparent" points="193,-40.2 193,-59.2 301,-59.2 301,-40.2 193,-40.2"/>
<polygon fill="none" stroke="#000000" points="193,-40.2 193,-59.2 301,-59.2 301,-40.2 193,-40.2"/>
<text text-anchor="start" x="196" y="-46.3" font-family="Helvetica,sans-Serif" font-size="11.00" fill="#000000">&lt; 1</text>
<polygon fill="#ffffff" stroke="transparent" points="301,-40.2 301,-59.2 400,-59.2 400,-40.2 301,-40.2"/>
<polygon fill="none" stroke="#000000" points="301,-40.2 301,-59.2 400,-59.2 400,-40.2 301,-40.2"/>
<text text-anchor="start" x="390.8862" y="-46.3" font-family="Helvetica,sans-Serif" font-size="11.00" fill="#000000"> &#160;</text>
<polygon fill="#ffffff" stroke="transparent" points="400,-40.2 400,-59.2 499,-59.2 499,-40.2 400,-40.2"/>
<polygon fill="none" stroke="#000000" points="400,-40.2 400,-59.2 499,-59.2 499,-40.2 400,-40.2"/>
<text text-anchor="start" x="480.4053" y="-46.3" font-family="Helvetica,sans-Serif" font-size="11.00" fill="#000000">0 &gt;</text>
<polygon fill="none" stroke="#000000" stroke-width="2" points="192,-39.2 192,-259.2 500,-259.2 500,-39.2 192,-39.2"/>
</a>
</g>
</g>
<!-- hmpps_domain_event_audit&#45;&gt;audit_revision -->
<g id="edge5" class="edge">
<title>hmpps_domain_event_audit:w&#45;&gt;audit_revision:e</title>
<path fill="none" stroke="#000000" d="M178.5764,-226.8232C129.8613,-248.0692 213.8463,-391.2 142,-391.2"/>
<polygon fill="#000000" stroke="#000000" points="185.1291,-225.6315 193.6442,-227.7419 189.0646,-224.9158 193,-224.2 193,-224.2 193,-224.2 189.0646,-224.9158 192.3558,-220.6581 185.1291,-225.6315 185.1291,-225.6315"/>
<ellipse fill="none" stroke="#000000" cx="181.9808" cy="-226.2041" rx="3.2" ry="3.2"/>
</g>
</g>
</svg>
