<?xml version="1.0" encoding="UTF-8" standalone="no"?>
<!DOCTYPE svg PUBLIC "-//W3C//DTD SVG 1.1//EN"
 "http://www.w3.org/Graphics/SVG/1.1/DTD/svg11.dtd">
<!-- Generated by graphviz version 2.40.1 (20161225.0304)
 -->
<!-- Title: twoDegreesRelationshipsDiagram Pages: 1 -->
<svg width="729pt" height="393pt"
 viewBox="0.00 0.00 729.00 392.70" xmlns="http://www.w3.org/2000/svg" xmlns:xlink="http://www.w3.org/1999/xlink">
<g id="graph0" class="graph" transform="scale(1 1) rotate(0) translate(4 388.7)">
<title>twoDegreesRelationshipsDiagram</title>
<polygon fill="#ffffff" stroke="transparent" points="-4,4 -4,-388.7 725,-388.7 725,4 -4,4"/>
<text text-anchor="middle" x="72.4936" y="-7.3" font-family="Helvetica,sans-Serif" font-size="11.00" fill="#000000">Generated by SchemaSpy</text>
<!-- court_appearance -->
<g id="node1" class="node">
<title>court_appearance</title>
<g id="a_node1"><a xlink:href="../../tables/court_appearance.html" xlink:title="court_appearance" target="_top">
<polygon fill="#ffffff" stroke="transparent" points="268,-117.2 268,-178.2 427,-178.2 427,-117.2 268,-117.2"/>
<polygon fill="#f5f5f5" stroke="transparent" points="268.5,-154.7 268.5,-177.7 427.5,-177.7 427.5,-154.7 268.5,-154.7"/>
<polygon fill="none" stroke="#000000" points="268.5,-154.7 268.5,-177.7 427.5,-177.7 427.5,-154.7 268.5,-154.7"/>
<text text-anchor="start" x="273.5" y="-163.3" font-family="Helvetica,sans-Serif" font-weight="bold" font-size="11.00" fill="#000000">court_appearance</text>
<text text-anchor="start" x="393.0219" y="-162.8" font-family="Helvetica,sans-Serif" font-size="11.00" fill="#000000">[table]</text>
<polygon fill="none" stroke="#000000" points="268.5,-135.7 268.5,-154.7 427.5,-154.7 427.5,-135.7 268.5,-135.7"/>
<text text-anchor="start" x="271.5" y="-141.8" font-family="Helvetica,sans-Serif" font-size="11.00" fill="#000000">...</text>
<polygon fill="#ffffff" stroke="transparent" points="268.5,-116.7 268.5,-135.7 341.5,-135.7 341.5,-116.7 268.5,-116.7"/>
<polygon fill="none" stroke="#000000" points="268.5,-116.7 268.5,-135.7 341.5,-135.7 341.5,-116.7 268.5,-116.7"/>
<text text-anchor="start" x="271.5" y="-122.8" font-family="Helvetica,sans-Serif" font-size="11.00" fill="#000000">&lt; 3</text>
<polygon fill="#ffffff" stroke="transparent" points="341.5,-116.7 341.5,-135.7 379.5,-135.7 379.5,-116.7 341.5,-116.7"/>
<polygon fill="none" stroke="#000000" points="341.5,-116.7 341.5,-135.7 379.5,-135.7 379.5,-116.7 341.5,-116.7"/>
<text text-anchor="start" x="370.3862" y="-122.8" font-family="Helvetica,sans-Serif" font-size="11.00" fill="#000000"> &#160;</text>
<polygon fill="#ffffff" stroke="transparent" points="379.5,-116.7 379.5,-135.7 427.5,-135.7 427.5,-116.7 379.5,-116.7"/>
<polygon fill="none" stroke="#000000" points="379.5,-116.7 379.5,-135.7 427.5,-135.7 427.5,-116.7 379.5,-116.7"/>
<text text-anchor="start" x="408.9053" y="-122.8" font-family="Helvetica,sans-Serif" font-size="11.00" fill="#000000">1 &gt;</text>
</a>
</g>
</g>
<!-- person_summary -->
<g id="node2" class="node">
<title>person_summary</title>
<g id="a_node2"><a xlink:href="../../tables/person_summary.html" xlink:title="person_summary" target="_top">
<polygon fill="#ffffff" stroke="transparent" points="13,-202.7 13,-380.7 214,-380.7 214,-202.7 13,-202.7"/>
<polygon fill="#f5f5f5" stroke="transparent" points="15.5,-355.7 15.5,-378.7 212.5,-378.7 212.5,-355.7 15.5,-355.7"/>
<polygon fill="none" stroke="#000000" points="15.5,-355.7 15.5,-378.7 212.5,-378.7 212.5,-355.7 15.5,-355.7"/>
<text text-anchor="start" x="20.5" y="-364.3" font-family="Helvetica,sans-Serif" font-weight="bold" font-size="11.00" fill="#000000">person_summary</text>
<text text-anchor="start" x="177.5437" y="-363.8" font-family="Helvetica,sans-Serif" font-size="11.00" fill="#000000">[table]</text>
<polygon fill="none" stroke="#000000" points="15.5,-333.7 15.5,-355.7 151.5,-355.7 151.5,-333.7 15.5,-333.7"/>
<image xlink:href="../../images/primaryKeys.png" width="11px" height="12px" preserveAspectRatio="xMinYMin meet" x="20.5" y="-350.7"/>
<text text-anchor="start" x="35.5" y="-340.8" font-family="Helvetica,sans-Serif" font-size="11.00" fill="#000000">person_identifier</text>
<polygon fill="none" stroke="#000000" points="151.5,-333.7 151.5,-355.7 212.5,-355.7 212.5,-333.7 151.5,-333.7"/>
<text text-anchor="start" x="154.494" y="-341.4" font-family="Helvetica,sans-Serif" font-size="11.00" fill="#000000">varchar[10]</text>
<polygon fill="none" stroke="#000000" points="15.5,-311.7 15.5,-333.7 151.5,-333.7 151.5,-311.7 15.5,-311.7"/>
<text text-anchor="start" x="35.5" y="-318.8" font-family="Helvetica,sans-Serif" font-size="11.00" fill="#000000">version</text>
<polygon fill="none" stroke="#000000" points="151.5,-311.7 151.5,-333.7 212.5,-333.7 212.5,-311.7 151.5,-311.7"/>
<text text-anchor="start" x="154.5" y="-319.4" font-family="Helvetica,sans-Serif" font-size="11.00" fill="#000000">int4[10]</text>
<polygon fill="none" stroke="#000000" points="15.5,-289.7 15.5,-311.7 151.5,-311.7 151.5,-289.7 15.5,-289.7"/>
<text text-anchor="start" x="35.5" y="-296.8" font-family="Helvetica,sans-Serif" font-size="11.00" fill="#000000">first_name</text>
<polygon fill="none" stroke="#000000" points="151.5,-289.7 151.5,-311.7 212.5,-311.7 212.5,-289.7 151.5,-289.7"/>
<text text-anchor="start" x="154.494" y="-297.4" font-family="Helvetica,sans-Serif" font-size="11.00" fill="#000000">varchar[64]</text>
<polygon fill="none" stroke="#000000" points="15.5,-267.7 15.5,-289.7 151.5,-289.7 151.5,-267.7 15.5,-267.7"/>
<text text-anchor="start" x="35.5" y="-274.8" font-family="Helvetica,sans-Serif" font-size="11.00" fill="#000000">last_name</text>
<polygon fill="none" stroke="#000000" points="151.5,-267.7 151.5,-289.7 212.5,-289.7 212.5,-267.7 151.5,-267.7"/>
<text text-anchor="start" x="154.494" y="-275.4" font-family="Helvetica,sans-Serif" font-size="11.00" fill="#000000">varchar[64]</text>
<polygon fill="none" stroke="#000000" points="15.5,-245.7 15.5,-267.7 151.5,-267.7 151.5,-245.7 15.5,-245.7"/>
<text text-anchor="start" x="35.5" y="-252.8" font-family="Helvetica,sans-Serif" font-size="11.00" fill="#000000">prison_code</text>
<polygon fill="none" stroke="#000000" points="151.5,-245.7 151.5,-267.7 212.5,-267.7 212.5,-245.7 151.5,-245.7"/>
<text text-anchor="start" x="154.5" y="-253.4" font-family="Helvetica,sans-Serif" font-size="11.00" fill="#000000">varchar[6]</text>
<polygon fill="none" stroke="#000000" points="15.5,-223.7 15.5,-245.7 151.5,-245.7 151.5,-223.7 15.5,-223.7"/>
<text text-anchor="start" x="35.5" y="-230.8" font-family="Helvetica,sans-Serif" font-size="11.00" fill="#000000">cell_location</text>
<polygon fill="none" stroke="#000000" points="151.5,-223.7 151.5,-245.7 212.5,-245.7 212.5,-223.7 151.5,-223.7"/>
<text text-anchor="start" x="154.494" y="-231.4" font-family="Helvetica,sans-Serif" font-size="11.00" fill="#000000">varchar[64]</text>
<polygon fill="#ffffff" stroke="transparent" points="15.5,-204.7 15.5,-223.7 87.5,-223.7 87.5,-204.7 15.5,-204.7"/>
<polygon fill="none" stroke="#000000" points="15.5,-204.7 15.5,-223.7 87.5,-223.7 87.5,-204.7 15.5,-204.7"/>
<text text-anchor="start" x="18.5" y="-210.8" font-family="Helvetica,sans-Serif" font-size="11.00" fill="#000000">&lt; 0</text>
<polygon fill="#ffffff" stroke="transparent" points="87.5,-204.7 87.5,-223.7 151.5,-223.7 151.5,-204.7 87.5,-204.7"/>
<polygon fill="none" stroke="#000000" points="87.5,-204.7 87.5,-223.7 151.5,-223.7 151.5,-204.7 87.5,-204.7"/>
<text text-anchor="start" x="142.3862" y="-210.8" font-family="Helvetica,sans-Serif" font-size="11.00" fill="#000000"> &#160;</text>
<polygon fill="#ffffff" stroke="transparent" points="151.5,-204.7 151.5,-223.7 212.5,-223.7 212.5,-204.7 151.5,-204.7"/>
<polygon fill="none" stroke="#000000" points="151.5,-204.7 151.5,-223.7 212.5,-223.7 212.5,-204.7 151.5,-204.7"/>
<text text-anchor="start" x="193.9053" y="-210.8" font-family="Helvetica,sans-Serif" font-size="11.00" fill="#000000">2 &gt;</text>
<polygon fill="none" stroke="#000000" stroke-width="2" points="14,-203.7 14,-379.7 213,-379.7 213,-203.7 14,-203.7"/>
</a>
</g>
</g>
<!-- court_appearance&#45;&gt;person_summary -->
<g id="edge1" class="edge">
<title>court_appearance:w&#45;&gt;person_summary:e</title>
<path fill="none" stroke="#000000" d="M310.8852,-193.6744C294.7077,-214.6254 275.8135,-239.9958 260,-263.7 236.8396,-298.4171 254.2334,-344.7 212.5,-344.7"/>
<polygon fill="#000000" stroke="#000000" points="314.8907,-188.5266 322.6448,-184.4236 317.3472,-185.3697 319.8036,-182.2128 319.8036,-182.2128 319.8036,-182.2128 317.3472,-185.3697 316.9624,-180.002 314.8907,-188.5266 314.8907,-188.5266"/>
<ellipse fill="none" stroke="#000000" cx="312.9256" cy="-191.0521" rx="3.2" ry="3.2"/>
</g>
<!-- court_appearance_reason -->
<g id="node3" class="node">
<title>court_appearance_reason</title>
<g id="a_node3"><a xlink:href="../../tables/court_appearance_reason.html" xlink:title="court_appearance_reason" target="_top">
<polygon fill="#ffffff" stroke="transparent" points="8,-38.2 8,-99.2 219,-99.2 219,-38.2 8,-38.2"/>
<polygon fill="#f5f5f5" stroke="transparent" points="8.5,-75.7 8.5,-98.7 219.5,-98.7 219.5,-75.7 8.5,-75.7"/>
<polygon fill="none" stroke="#000000" points="8.5,-75.7 8.5,-98.7 219.5,-98.7 219.5,-75.7 8.5,-75.7"/>
<text text-anchor="start" x="13.5" y="-84.3" font-family="Helvetica,sans-Serif" font-weight="bold" font-size="11.00" fill="#000000">court_appearance_reason</text>
<text text-anchor="start" x="185.0219" y="-83.8" font-family="Helvetica,sans-Serif" font-size="11.00" fill="#000000">[table]</text>
<polygon fill="none" stroke="#000000" points="8.5,-56.7 8.5,-75.7 219.5,-75.7 219.5,-56.7 8.5,-56.7"/>
<text text-anchor="start" x="11.5" y="-62.8" font-family="Helvetica,sans-Serif" font-size="11.00" fill="#000000">...</text>
<polygon fill="#ffffff" stroke="transparent" points="8.5,-37.7 8.5,-56.7 103.5,-56.7 103.5,-37.7 8.5,-37.7"/>
<polygon fill="none" stroke="#000000" points="8.5,-37.7 8.5,-56.7 103.5,-56.7 103.5,-37.7 8.5,-37.7"/>
<text text-anchor="start" x="11.5" y="-43.8" font-family="Helvetica,sans-Serif" font-size="11.00" fill="#000000"> &#160;</text>
<polygon fill="#ffffff" stroke="transparent" points="103.5,-37.7 103.5,-56.7 156.5,-56.7 156.5,-37.7 103.5,-37.7"/>
<polygon fill="none" stroke="#000000" points="103.5,-37.7 103.5,-56.7 156.5,-56.7 156.5,-37.7 103.5,-37.7"/>
<text text-anchor="start" x="147.3862" y="-43.8" font-family="Helvetica,sans-Serif" font-size="11.00" fill="#000000"> &#160;</text>
<polygon fill="#ffffff" stroke="transparent" points="156.5,-37.7 156.5,-56.7 219.5,-56.7 219.5,-37.7 156.5,-37.7"/>
<polygon fill="none" stroke="#000000" points="156.5,-37.7 156.5,-56.7 219.5,-56.7 219.5,-37.7 156.5,-37.7"/>
<text text-anchor="start" x="200.9053" y="-43.8" font-family="Helvetica,sans-Serif" font-size="11.00" fill="#000000">2 &gt;</text>
</a>
</g>
</g>
<!-- court_appearance&#45;&gt;court_appearance_reason -->
<g id="edge2" class="edge">
<title>court_appearance:w&#45;&gt;court_appearance_reason:e</title>
<path fill="none" stroke="#000000" d="M282.8096,-105.2195C252.0876,-85.2247 221.5605,-65.7 219.5,-65.7"/>
<polygon fill="#000000" stroke="#000000" points="288.2873,-108.792 293.0215,-116.1777 291.6378,-110.9771 294.9882,-113.1623 294.9882,-113.1623 294.9882,-113.1623 291.6378,-110.9771 296.9548,-110.1469 288.2873,-108.792 288.2873,-108.792"/>
<ellipse fill="none" stroke="#000000" cx="285.607" cy="-107.0439" rx="3.2" ry="3.2"/>
</g>
<!-- court_appearance_status -->
<g id="node4" class="node">
<title>court_appearance_status</title>
<g id="a_node4"><a xlink:href="../../tables/court_appearance_status.html" xlink:title="court_appearance_status" target="_top">
<polygon fill="#ffffff" stroke="transparent" points="9.5,-120.2 9.5,-181.2 217.5,-181.2 217.5,-120.2 9.5,-120.2"/>
<polygon fill="#f5f5f5" stroke="transparent" points="9.5,-157.7 9.5,-180.7 217.5,-180.7 217.5,-157.7 9.5,-157.7"/>
<polygon fill="none" stroke="#000000" points="9.5,-157.7 9.5,-180.7 217.5,-180.7 217.5,-157.7 9.5,-157.7"/>
<text text-anchor="start" x="14.5" y="-166.3" font-family="Helvetica,sans-Serif" font-weight="bold" font-size="11.00" fill="#000000">court_appearance_status</text>
<text text-anchor="start" x="183.0219" y="-165.8" font-family="Helvetica,sans-Serif" font-size="11.00" fill="#000000">[table]</text>
<polygon fill="none" stroke="#000000" points="9.5,-138.7 9.5,-157.7 217.5,-157.7 217.5,-138.7 9.5,-138.7"/>
<text text-anchor="start" x="12.5" y="-144.8" font-family="Helvetica,sans-Serif" font-size="11.00" fill="#000000">...</text>
<polygon fill="#ffffff" stroke="transparent" points="9.5,-119.7 9.5,-138.7 102.5,-138.7 102.5,-119.7 9.5,-119.7"/>
<polygon fill="none" stroke="#000000" points="9.5,-119.7 9.5,-138.7 102.5,-138.7 102.5,-119.7 9.5,-119.7"/>
<text text-anchor="start" x="12.5" y="-125.8" font-family="Helvetica,sans-Serif" font-size="11.00" fill="#000000"> &#160;</text>
<polygon fill="#ffffff" stroke="transparent" points="102.5,-119.7 102.5,-138.7 155.5,-138.7 155.5,-119.7 102.5,-119.7"/>
<polygon fill="none" stroke="#000000" points="102.5,-119.7 102.5,-138.7 155.5,-138.7 155.5,-119.7 102.5,-119.7"/>
<text text-anchor="start" x="146.3862" y="-125.8" font-family="Helvetica,sans-Serif" font-size="11.00" fill="#000000"> &#160;</text>
<polygon fill="#ffffff" stroke="transparent" points="155.5,-119.7 155.5,-138.7 217.5,-138.7 217.5,-119.7 155.5,-119.7"/>
<polygon fill="none" stroke="#000000" points="155.5,-119.7 155.5,-138.7 217.5,-138.7 217.5,-119.7 155.5,-119.7"/>
<text text-anchor="start" x="198.9053" y="-125.8" font-family="Helvetica,sans-Serif" font-size="11.00" fill="#000000">1 &gt;</text>
</a>
</g>
</g>
<!-- court_appearance&#45;&gt;court_appearance_status -->
<g id="edge3" class="edge">
<title>court_appearance:w&#45;&gt;court_appearance_status:e</title>
<path fill="none" stroke="#000000" d="M245.1013,-147.7C235.769,-147.7 226.4608,-147.7 217.5,-147.7"/>
<polygon fill="#000000" stroke="#000000" points="251.7398,-147.7001 259.7398,-151.3 255.7398,-147.7 259.7398,-147.7 259.7398,-147.7 259.7398,-147.7 255.7398,-147.7 259.7398,-144.1 251.7398,-147.7001 251.7398,-147.7001"/>
<ellipse fill="none" stroke="#000000" cx="248.5398" cy="-147.7001" rx="3.2" ry="3.2"/>
</g>
<!-- court_appearance_movement -->
<g id="node5" class="node">
<title>court_appearance_movement</title>
<g id="a_node5"><a xlink:href="../../tables/court_appearance_movement.html" xlink:title="court_appearance_movement" target="_top">
<polygon fill="#ffffff" stroke="transparent" points="476,-117.2 476,-178.2 713,-178.2 713,-117.2 476,-117.2"/>
<polygon fill="#f5f5f5" stroke="transparent" points="476.5,-154.7 476.5,-177.7 713.5,-177.7 713.5,-154.7 476.5,-154.7"/>
<polygon fill="none" stroke="#000000" points="476.5,-154.7 476.5,-177.7 713.5,-177.7 713.5,-154.7 476.5,-154.7"/>
<text text-anchor="start" x="481.5" y="-163.3" font-family="Helvetica,sans-Serif" font-weight="bold" font-size="11.00" fill="#000000">court_appearance_movement</text>
<text text-anchor="start" x="679.0219" y="-162.8" font-family="Helvetica,sans-Serif" font-size="11.00" fill="#000000">[table]</text>
<polygon fill="none" stroke="#000000" points="476.5,-135.7 476.5,-154.7 713.5,-154.7 713.5,-135.7 476.5,-135.7"/>
<text text-anchor="start" x="479.5" y="-141.8" font-family="Helvetica,sans-Serif" font-size="11.00" fill="#000000">...</text>
<polygon fill="#ffffff" stroke="transparent" points="476.5,-116.7 476.5,-135.7 593.5,-135.7 593.5,-116.7 476.5,-116.7"/>
<polygon fill="none" stroke="#000000" points="476.5,-116.7 476.5,-135.7 593.5,-135.7 593.5,-116.7 476.5,-116.7"/>
<text text-anchor="start" x="479.5" y="-122.8" font-family="Helvetica,sans-Serif" font-size="11.00" fill="#000000">&lt; 3</text>
<polygon fill="#ffffff" stroke="transparent" points="593.5,-116.7 593.5,-135.7 653.5,-135.7 653.5,-116.7 593.5,-116.7"/>
<polygon fill="none" stroke="#000000" points="593.5,-116.7 593.5,-135.7 653.5,-135.7 653.5,-116.7 593.5,-116.7"/>
<text text-anchor="start" x="644.3862" y="-122.8" font-family="Helvetica,sans-Serif" font-size="11.00" fill="#000000"> &#160;</text>
<polygon fill="#ffffff" stroke="transparent" points="653.5,-116.7 653.5,-135.7 713.5,-135.7 713.5,-116.7 653.5,-116.7"/>
<polygon fill="none" stroke="#000000" points="653.5,-116.7 653.5,-135.7 713.5,-135.7 713.5,-116.7 653.5,-116.7"/>
<text text-anchor="start" x="704.3862" y="-122.8" font-family="Helvetica,sans-Serif" font-size="11.00" fill="#000000"> &#160;</text>
</a>
</g>
</g>
<!-- court_appearance_movement&#45;&gt;court_appearance -->
<g id="edge4" class="edge">
<title>court_appearance_movement:w&#45;&gt;court_appearance:e</title>
<path fill="none" stroke="#000000" d="M453.3351,-147.7C447.1935,-147.7 441.1114,-147.7 435.1513,-147.7"/>
<polygon fill="#000000" stroke="#000000" points="459.744,-147.7001 467.744,-151.3 463.744,-147.7 467.744,-147.7 467.744,-147.7 467.744,-147.7 463.744,-147.7 467.744,-144.1 459.744,-147.7001 459.744,-147.7001"/>
<ellipse fill="none" stroke="#000000" cx="456.544" cy="-147.7001" rx="3.2" ry="3.2"/>
</g>
<!-- court_appearance_movement&#45;&gt;person_summary -->
<g id="edge5" class="edge">
<title>court_appearance_movement:w&#45;&gt;person_summary:e</title>
<path fill="none" stroke="#000000" d="M546.1132,-191.9279C477.3476,-250.0116 344.9357,-344.7 212.5,-344.7"/>
<polygon fill="#000000" stroke="#000000" points="551.3267,-187.4516 559.7415,-184.9716 554.3615,-184.8459 557.3964,-182.2402 557.3964,-182.2402 557.3964,-182.2402 554.3615,-184.8459 555.0512,-179.5088 551.3267,-187.4516 551.3267,-187.4516"/>
<ellipse fill="none" stroke="#000000" cx="548.8988" cy="-189.5362" rx="3.2" ry="3.2"/>
</g>
<!-- court_appearance_movement&#45;&gt;court_appearance_reason -->
<g id="edge6" class="edge">
<title>court_appearance_movement:w&#45;&gt;court_appearance_reason:e</title>
<path fill="none" stroke="#000000" d="M479.2529,-109.0688C405.7904,-87.8104 308.0896,-65.7 219.5,-65.7"/>
<polygon fill="#000000" stroke="#000000" points="485.4719,-110.9012 492.1282,-116.6155 489.3088,-112.0317 493.1457,-113.1623 493.1457,-113.1623 493.1457,-113.1623 489.3088,-112.0317 494.1632,-109.7091 485.4719,-110.9012 485.4719,-110.9012"/>
<ellipse fill="none" stroke="#000000" cx="482.4024" cy="-109.9967" rx="3.2" ry="3.2"/>
</g>
</g>
</svg>
