<?xml version="1.0" encoding="UTF-8" standalone="no"?>
<!DOCTYPE svg PUBLIC "-//W3C//DTD SVG 1.1//EN"
 "http://www.w3.org/Graphics/SVG/1.1/DTD/svg11.dtd">
<!-- Generated by graphviz version 2.40.1 (20161225.0304)
 -->
<!-- Title: oneDegreeRelationshipsDiagram Pages: 1 -->
<svg width="719pt" height="341pt"
 viewBox="0.00 0.00 719.00 340.70" xmlns="http://www.w3.org/2000/svg" xmlns:xlink="http://www.w3.org/1999/xlink">
<g id="graph0" class="graph" transform="scale(1 1) rotate(0) translate(4 336.7)">
<title>oneDegreeRelationshipsDiagram</title>
<polygon fill="#ffffff" stroke="transparent" points="-4,4 -4,-336.7 715,-336.7 715,4 -4,4"/>
<text text-anchor="middle" x="72.4936" y="-7.3" font-family="Helvetica,sans-Serif" font-size="11.00" fill="#000000">Generated by SchemaSpy</text>
<!-- court_appearance -->
<g id="node1" class="node">
<title>court_appearance</title>
<g id="a_node1"><a xlink:href="../../tables/court_appearance.html" xlink:title="court_appearance" target="_top">
<polygon fill="#ffffff" stroke="transparent" points="258,-113.7 258,-328.7 417,-328.7 417,-113.7 258,-113.7"/>
<polygon fill="#f5f5f5" stroke="transparent" points="258.5,-305.2 258.5,-328.2 417.5,-328.2 417.5,-305.2 258.5,-305.2"/>
<polygon fill="none" stroke="#000000" points="258.5,-305.2 258.5,-328.2 417.5,-328.2 417.5,-305.2 258.5,-305.2"/>
<text text-anchor="start" x="263.5" y="-313.8" font-family="Helvetica,sans-Serif" font-weight="bold" font-size="11.00" fill="#000000">court_appearance</text>
<text text-anchor="start" x="383.0219" y="-313.3" font-family="Helvetica,sans-Serif" font-size="11.00" fill="#000000">[table]</text>
<polygon fill="none" stroke="#000000" points="258.5,-283.2 258.5,-305.2 417.5,-305.2 417.5,-283.2 258.5,-283.2"/>
<image xlink:href="../../images/primaryKeys.png" width="11px" height="12px" preserveAspectRatio="xMinYMin meet" x="263.5" y="-300.2"/>
<text text-anchor="start" x="287.5" y="-290.3" font-family="Helvetica,sans-Serif" font-size="11.00" fill="#000000">id</text>
<polygon fill="#ffffff" stroke="transparent" points="258.5,-261.2 258.5,-283.2 417.5,-283.2 417.5,-261.2 258.5,-261.2"/>
<polygon fill="none" stroke="#000000" points="258.5,-261.2 258.5,-283.2 417.5,-283.2 417.5,-261.2 258.5,-261.2"/>
<image xlink:href="../../images/foreignKeys.png" width="11px" height="12px" preserveAspectRatio="xMinYMin meet" x="263.5" y="-278.2"/>
<text text-anchor="start" x="287.5" y="-268.3" font-family="Helvetica,sans-Serif" font-size="11.00" fill="#000000">person_identifier</text>
<polygon fill="#ffffff" stroke="transparent" points="258.5,-239.2 258.5,-261.2 417.5,-261.2 417.5,-239.2 258.5,-239.2"/>
<polygon fill="none" stroke="#000000" points="258.5,-239.2 258.5,-261.2 417.5,-261.2 417.5,-239.2 258.5,-239.2"/>
<text text-anchor="start" x="287.5" y="-246.3" font-family="Helvetica,sans-Serif" font-size="11.00" fill="#000000">prison_code</text>
<polygon fill="#ffffff" stroke="transparent" points="258.5,-217.2 258.5,-239.2 417.5,-239.2 417.5,-217.2 258.5,-217.2"/>
<polygon fill="none" stroke="#000000" points="258.5,-217.2 258.5,-239.2 417.5,-239.2 417.5,-217.2 258.5,-217.2"/>
<image xlink:href="../../images/foreignKeys.png" width="11px" height="12px" preserveAspectRatio="xMinYMin meet" x="263.5" y="-234.2"/>
<text text-anchor="start" x="287.5" y="-224.3" font-family="Helvetica,sans-Serif" font-size="11.00" fill="#000000">reason_id</text>
<polygon fill="#ffffff" stroke="transparent" points="258.5,-195.2 258.5,-217.2 417.5,-217.2 417.5,-195.2 258.5,-195.2"/>
<polygon fill="none" stroke="#000000" points="258.5,-195.2 258.5,-217.2 417.5,-217.2 417.5,-195.2 258.5,-195.2"/>
<image xlink:href="../../images/foreignKeys.png" width="11px" height="12px" preserveAspectRatio="xMinYMin meet" x="263.5" y="-212.2"/>
<text text-anchor="start" x="287.5" y="-202.3" font-family="Helvetica,sans-Serif" font-size="11.00" fill="#000000">status_id</text>
<polygon fill="#ffffff" stroke="transparent" points="258.5,-173.2 258.5,-195.2 417.5,-195.2 417.5,-173.2 258.5,-173.2"/>
<polygon fill="none" stroke="#000000" points="258.5,-173.2 258.5,-195.2 417.5,-195.2 417.5,-173.2 258.5,-173.2"/>
<text text-anchor="start" x="287.5" y="-180.3" font-family="Helvetica,sans-Serif" font-size="11.00" fill="#000000">start</text>
<polygon fill="#ffffff" stroke="transparent" points="258.5,-151.2 258.5,-173.2 417.5,-173.2 417.5,-151.2 258.5,-151.2"/>
<polygon fill="none" stroke="#000000" points="258.5,-151.2 258.5,-173.2 417.5,-173.2 417.5,-151.2 258.5,-151.2"/>
<image xlink:href="../../images/foreignKeys.png" width="11px" height="12px" preserveAspectRatio="xMinYMin meet" x="263.5" y="-168.2"/>
<text text-anchor="start" x="287.5" y="-158.3" font-family="Helvetica,sans-Serif" font-size="11.00" fill="#000000">legacy_id</text>
<polygon fill="none" stroke="#000000" points="258.5,-132.2 258.5,-151.2 417.5,-151.2 417.5,-132.2 258.5,-132.2"/>
<text text-anchor="start" x="261.5" y="-138.3" font-family="Helvetica,sans-Serif" font-size="11.00" fill="#000000">...</text>
<polygon fill="#ffffff" stroke="transparent" points="258.5,-113.2 258.5,-132.2 331.5,-132.2 331.5,-113.2 258.5,-113.2"/>
<polygon fill="none" stroke="#000000" points="258.5,-113.2 258.5,-132.2 331.5,-132.2 331.5,-113.2 258.5,-113.2"/>
<text text-anchor="start" x="261.5" y="-119.3" font-family="Helvetica,sans-Serif" font-size="11.00" fill="#000000">&lt; 3</text>
<polygon fill="#ffffff" stroke="transparent" points="331.5,-113.2 331.5,-132.2 369.5,-132.2 369.5,-113.2 331.5,-113.2"/>
<polygon fill="none" stroke="#000000" points="331.5,-113.2 331.5,-132.2 369.5,-132.2 369.5,-113.2 331.5,-113.2"/>
<text text-anchor="start" x="360.3862" y="-119.3" font-family="Helvetica,sans-Serif" font-size="11.00" fill="#000000"> &#160;</text>
<polygon fill="#ffffff" stroke="transparent" points="369.5,-113.2 369.5,-132.2 417.5,-132.2 417.5,-113.2 369.5,-113.2"/>
<polygon fill="none" stroke="#000000" points="369.5,-113.2 369.5,-132.2 417.5,-132.2 417.5,-113.2 369.5,-113.2"/>
<text text-anchor="start" x="398.9053" y="-119.3" font-family="Helvetica,sans-Serif" font-size="11.00" fill="#000000">1 &gt;</text>
</a>
</g>
</g>
<!-- person_summary -->
<g id="node2" class="node">
<title>person_summary</title>
<g id="a_node2"><a xlink:href="../../tables/person_summary.html" xlink:title="person_summary" target="_top">
<polygon fill="#ffffff" stroke="transparent" points="8,-38.2 8,-216.2 209,-216.2 209,-38.2 8,-38.2"/>
<polygon fill="#f5f5f5" stroke="transparent" points="10.5,-191.2 10.5,-214.2 207.5,-214.2 207.5,-191.2 10.5,-191.2"/>
<polygon fill="none" stroke="#000000" points="10.5,-191.2 10.5,-214.2 207.5,-214.2 207.5,-191.2 10.5,-191.2"/>
<text text-anchor="start" x="15.5" y="-199.8" font-family="Helvetica,sans-Serif" font-weight="bold" font-size="11.00" fill="#000000">person_summary</text>
<text text-anchor="start" x="172.5437" y="-199.3" font-family="Helvetica,sans-Serif" font-size="11.00" fill="#000000">[table]</text>
<polygon fill="none" stroke="#000000" points="10.5,-169.2 10.5,-191.2 146.5,-191.2 146.5,-169.2 10.5,-169.2"/>
<image xlink:href="../../images/primaryKeys.png" width="11px" height="12px" preserveAspectRatio="xMinYMin meet" x="15.5" y="-186.2"/>
<text text-anchor="start" x="30.5" y="-176.3" font-family="Helvetica,sans-Serif" font-size="11.00" fill="#000000">person_identifier</text>
<polygon fill="none" stroke="#000000" points="146.5,-169.2 146.5,-191.2 207.5,-191.2 207.5,-169.2 146.5,-169.2"/>
<text text-anchor="start" x="149.494" y="-176.9" font-family="Helvetica,sans-Serif" font-size="11.00" fill="#000000">varchar[10]</text>
<polygon fill="none" stroke="#000000" points="10.5,-147.2 10.5,-169.2 146.5,-169.2 146.5,-147.2 10.5,-147.2"/>
<text text-anchor="start" x="30.5" y="-154.3" font-family="Helvetica,sans-Serif" font-size="11.00" fill="#000000">version</text>
<polygon fill="none" stroke="#000000" points="146.5,-147.2 146.5,-169.2 207.5,-169.2 207.5,-147.2 146.5,-147.2"/>
<text text-anchor="start" x="149.5" y="-154.9" font-family="Helvetica,sans-Serif" font-size="11.00" fill="#000000">int4[10]</text>
<polygon fill="none" stroke="#000000" points="10.5,-125.2 10.5,-147.2 146.5,-147.2 146.5,-125.2 10.5,-125.2"/>
<text text-anchor="start" x="30.5" y="-132.3" font-family="Helvetica,sans-Serif" font-size="11.00" fill="#000000">first_name</text>
<polygon fill="none" stroke="#000000" points="146.5,-125.2 146.5,-147.2 207.5,-147.2 207.5,-125.2 146.5,-125.2"/>
<text text-anchor="start" x="149.494" y="-132.9" font-family="Helvetica,sans-Serif" font-size="11.00" fill="#000000">varchar[64]</text>
<polygon fill="none" stroke="#000000" points="10.5,-103.2 10.5,-125.2 146.5,-125.2 146.5,-103.2 10.5,-103.2"/>
<text text-anchor="start" x="30.5" y="-110.3" font-family="Helvetica,sans-Serif" font-size="11.00" fill="#000000">last_name</text>
<polygon fill="none" stroke="#000000" points="146.5,-103.2 146.5,-125.2 207.5,-125.2 207.5,-103.2 146.5,-103.2"/>
<text text-anchor="start" x="149.494" y="-110.9" font-family="Helvetica,sans-Serif" font-size="11.00" fill="#000000">varchar[64]</text>
<polygon fill="none" stroke="#000000" points="10.5,-81.2 10.5,-103.2 146.5,-103.2 146.5,-81.2 10.5,-81.2"/>
<text text-anchor="start" x="30.5" y="-88.3" font-family="Helvetica,sans-Serif" font-size="11.00" fill="#000000">prison_code</text>
<polygon fill="none" stroke="#000000" points="146.5,-81.2 146.5,-103.2 207.5,-103.2 207.5,-81.2 146.5,-81.2"/>
<text text-anchor="start" x="149.5" y="-88.9" font-family="Helvetica,sans-Serif" font-size="11.00" fill="#000000">varchar[6]</text>
<polygon fill="none" stroke="#000000" points="10.5,-59.2 10.5,-81.2 146.5,-81.2 146.5,-59.2 10.5,-59.2"/>
<text text-anchor="start" x="30.5" y="-66.3" font-family="Helvetica,sans-Serif" font-size="11.00" fill="#000000">cell_location</text>
<polygon fill="none" stroke="#000000" points="146.5,-59.2 146.5,-81.2 207.5,-81.2 207.5,-59.2 146.5,-59.2"/>
<text text-anchor="start" x="149.494" y="-66.9" font-family="Helvetica,sans-Serif" font-size="11.00" fill="#000000">varchar[64]</text>
<polygon fill="#ffffff" stroke="transparent" points="10.5,-40.2 10.5,-59.2 82.5,-59.2 82.5,-40.2 10.5,-40.2"/>
<polygon fill="none" stroke="#000000" points="10.5,-40.2 10.5,-59.2 82.5,-59.2 82.5,-40.2 10.5,-40.2"/>
<text text-anchor="start" x="13.5" y="-46.3" font-family="Helvetica,sans-Serif" font-size="11.00" fill="#000000">&lt; 0</text>
<polygon fill="#ffffff" stroke="transparent" points="82.5,-40.2 82.5,-59.2 146.5,-59.2 146.5,-40.2 82.5,-40.2"/>
<polygon fill="none" stroke="#000000" points="82.5,-40.2 82.5,-59.2 146.5,-59.2 146.5,-40.2 82.5,-40.2"/>
<text text-anchor="start" x="137.3862" y="-46.3" font-family="Helvetica,sans-Serif" font-size="11.00" fill="#000000"> &#160;</text>
<polygon fill="#ffffff" stroke="transparent" points="146.5,-40.2 146.5,-59.2 207.5,-59.2 207.5,-40.2 146.5,-40.2"/>
<polygon fill="none" stroke="#000000" points="146.5,-40.2 146.5,-59.2 207.5,-59.2 207.5,-40.2 146.5,-40.2"/>
<text text-anchor="start" x="188.9053" y="-46.3" font-family="Helvetica,sans-Serif" font-size="11.00" fill="#000000">2 &gt;</text>
<polygon fill="none" stroke="#000000" stroke-width="2" points="9,-39.2 9,-215.2 208,-215.2 208,-39.2 9,-39.2"/>
</a>
</g>
</g>
<!-- court_appearance&#45;&gt;person_summary -->
<g id="edge1" class="edge">
<title>court_appearance:w&#45;&gt;person_summary:e</title>
<path fill="none" stroke="#000000" d="M244.4874,-268.0079C221.2233,-250.01 248.2247,-180.2 207.5,-180.2"/>
<polygon fill="#000000" stroke="#000000" points="250.8356,-269.907 257.4682,-275.649 254.6678,-271.0535 258.5,-272.2 258.5,-272.2 258.5,-272.2 254.6678,-271.0535 259.5318,-268.751 250.8356,-269.907 250.8356,-269.907"/>
<ellipse fill="none" stroke="#000000" cx="247.7699" cy="-268.9898" rx="3.2" ry="3.2"/>
</g>
<!-- court_appearance_movement -->
<g id="node3" class="node">
<title>court_appearance_movement</title>
<g id="a_node3"><a xlink:href="../../tables/court_appearance_movement.html" xlink:title="court_appearance_movement" target="_top">
<polygon fill="#ffffff" stroke="transparent" points="466,-87.7 466,-258.7 703,-258.7 703,-87.7 466,-87.7"/>
<polygon fill="#f5f5f5" stroke="transparent" points="466.5,-235.2 466.5,-258.2 703.5,-258.2 703.5,-235.2 466.5,-235.2"/>
<polygon fill="none" stroke="#000000" points="466.5,-235.2 466.5,-258.2 703.5,-258.2 703.5,-235.2 466.5,-235.2"/>
<text text-anchor="start" x="471.5" y="-243.8" font-family="Helvetica,sans-Serif" font-weight="bold" font-size="11.00" fill="#000000">court_appearance_movement</text>
<text text-anchor="start" x="669.0219" y="-243.3" font-family="Helvetica,sans-Serif" font-size="11.00" fill="#000000">[table]</text>
<polygon fill="none" stroke="#000000" points="466.5,-213.2 466.5,-235.2 703.5,-235.2 703.5,-213.2 466.5,-213.2"/>
<image xlink:href="../../images/primaryKeys.png" width="11px" height="12px" preserveAspectRatio="xMinYMin meet" x="471.5" y="-230.2"/>
<text text-anchor="start" x="495.5" y="-220.3" font-family="Helvetica,sans-Serif" font-size="11.00" fill="#000000">id</text>
<polygon fill="none" stroke="#000000" points="466.5,-191.2 466.5,-213.2 703.5,-213.2 703.5,-191.2 466.5,-191.2"/>
<image xlink:href="../../images/foreignKeys.png" width="11px" height="12px" preserveAspectRatio="xMinYMin meet" x="471.5" y="-208.2"/>
<text text-anchor="start" x="495.5" y="-198.3" font-family="Helvetica,sans-Serif" font-size="11.00" fill="#000000">court_appearance_id</text>
<polygon fill="#ffffff" stroke="transparent" points="466.5,-169.2 466.5,-191.2 703.5,-191.2 703.5,-169.2 466.5,-169.2"/>
<polygon fill="none" stroke="#000000" points="466.5,-169.2 466.5,-191.2 703.5,-191.2 703.5,-169.2 466.5,-169.2"/>
<image xlink:href="../../images/foreignKeys.png" width="11px" height="12px" preserveAspectRatio="xMinYMin meet" x="471.5" y="-186.2"/>
<text text-anchor="start" x="495.5" y="-176.3" font-family="Helvetica,sans-Serif" font-size="11.00" fill="#000000">person_identifier</text>
<polygon fill="none" stroke="#000000" points="466.5,-147.2 466.5,-169.2 703.5,-169.2 703.5,-147.2 466.5,-147.2"/>
<image xlink:href="../../images/foreignKeys.png" width="11px" height="12px" preserveAspectRatio="xMinYMin meet" x="471.5" y="-164.2"/>
<text text-anchor="start" x="495.5" y="-154.3" font-family="Helvetica,sans-Serif" font-size="11.00" fill="#000000">reason_id</text>
<polygon fill="#ffffff" stroke="transparent" points="466.5,-125.2 466.5,-147.2 703.5,-147.2 703.5,-125.2 466.5,-125.2"/>
<polygon fill="none" stroke="#000000" points="466.5,-125.2 466.5,-147.2 703.5,-147.2 703.5,-125.2 466.5,-125.2"/>
<text text-anchor="start" x="495.5" y="-132.3" font-family="Helvetica,sans-Serif" font-size="11.00" fill="#000000">legacy_id</text>
<polygon fill="none" stroke="#000000" points="466.5,-106.2 466.5,-125.2 703.5,-125.2 703.5,-106.2 466.5,-106.2"/>
<text text-anchor="start" x="469.5" y="-112.3" font-family="Helvetica,sans-Serif" font-size="11.00" fill="#000000">...</text>
<polygon fill="#ffffff" stroke="transparent" points="466.5,-87.2 466.5,-106.2 583.5,-106.2 583.5,-87.2 466.5,-87.2"/>
<polygon fill="none" stroke="#000000" points="466.5,-87.2 466.5,-106.2 583.5,-106.2 583.5,-87.2 466.5,-87.2"/>
<text text-anchor="start" x="469.5" y="-93.3" font-family="Helvetica,sans-Serif" font-size="11.00" fill="#000000">&lt; 3</text>
<polygon fill="#ffffff" stroke="transparent" points="583.5,-87.2 583.5,-106.2 643.5,-106.2 643.5,-87.2 583.5,-87.2"/>
<polygon fill="none" stroke="#000000" points="583.5,-87.2 583.5,-106.2 643.5,-106.2 643.5,-87.2 583.5,-87.2"/>
<text text-anchor="start" x="634.3862" y="-93.3" font-family="Helvetica,sans-Serif" font-size="11.00" fill="#000000"> &#160;</text>
<polygon fill="#ffffff" stroke="transparent" points="643.5,-87.2 643.5,-106.2 703.5,-106.2 703.5,-87.2 643.5,-87.2"/>
<polygon fill="none" stroke="#000000" points="643.5,-87.2 643.5,-106.2 703.5,-106.2 703.5,-87.2 643.5,-87.2"/>
<text text-anchor="start" x="694.3862" y="-93.3" font-family="Helvetica,sans-Serif" font-size="11.00" fill="#000000"> &#160;</text>
</a>
</g>
</g>
<!-- court_appearance_movement&#45;&gt;court_appearance -->
<g id="edge2" class="edge">
<title>court_appearance_movement:w&#45;&gt;court_appearance:e</title>
<path fill="none" stroke="#000000" d="M452.6846,-206.3921C429.9325,-224.39 457.855,-294.2 417.5,-294.2"/>
<polygon fill="#000000" stroke="#000000" points="458.8447,-204.523 467.5453,-205.6449 462.6723,-203.3615 466.5,-202.2 466.5,-202.2 466.5,-202.2 462.6723,-203.3615 465.4547,-198.7551 458.8447,-204.523 458.8447,-204.523"/>
<ellipse fill="none" stroke="#000000" cx="455.7825" cy="-205.4521" rx="3.2" ry="3.2"/>
</g>
<!-- court_appearance_movement&#45;&gt;person_summary -->
<g id="edge3" class="edge">
<title>court_appearance_movement:w&#45;&gt;person_summary:e</title>
<path fill="none" stroke="#000000" d="M452.3977,-176.0076C435.9893,-162.4732 452.9033,-119.8592 425,-103.2 358.2188,-63.3295 316.9799,-63.6642 250,-103.2 216.3377,-123.0696 246.589,-180.2 207.5,-180.2"/>
<polygon fill="#000000" stroke="#000000" points="458.8317,-177.9203 465.4741,-183.6507 462.6658,-179.0601 466.5,-180.2 466.5,-180.2 466.5,-180.2 462.6658,-179.0601 467.5259,-176.7493 458.8317,-177.9203 458.8317,-177.9203"/>
<ellipse fill="none" stroke="#000000" cx="455.7644" cy="-177.0084" rx="3.2" ry="3.2"/>
</g>
</g>
</svg>
