<?xml version="1.0" encoding="UTF-8" standalone="no"?>
<!DOCTYPE svg PUBLIC "-//W3C//DTD SVG 1.1//EN"
 "http://www.w3.org/Graphics/SVG/1.1/DTD/svg11.dtd">
<!-- Generated by graphviz version 2.40.1 (20161225.0304)
 -->
<!-- Title: oneDegreeRelationshipsDiagramImplied Pages: 1 -->
<svg width="838pt" height="633pt"
 viewBox="0.00 0.00 838.00 633.20" xmlns="http://www.w3.org/2000/svg" xmlns:xlink="http://www.w3.org/1999/xlink">
<g id="graph0" class="graph" transform="scale(1 1) rotate(0) translate(4 629.2)">
<title>oneDegreeRelationshipsDiagramImplied</title>
<polygon fill="#ffffff" stroke="transparent" points="-4,4 -4,-629.2 834,-629.2 834,4 -4,4"/>
<text text-anchor="middle" x="72.4936" y="-7.3" font-family="Helvetica,sans-Serif" font-size="11.00" fill="#000000">Generated by SchemaSpy</text>
<!-- court_appearance -->
<g id="node1" class="node">
<title>court_appearance</title>
<g id="a_node1"><a xlink:href="../../tables/court_appearance.html" xlink:title="court_appearance" target="_top">
<polygon fill="#ffffff" stroke="transparent" points="317.5,-214.2 317.5,-451.2 476.5,-451.2 476.5,-214.2 317.5,-214.2"/>
<polygon fill="#f5f5f5" stroke="transparent" points="318,-427.7 318,-450.7 477,-450.7 477,-427.7 318,-427.7"/>
<polygon fill="none" stroke="#000000" points="318,-427.7 318,-450.7 477,-450.7 477,-427.7 318,-427.7"/>
<text text-anchor="start" x="323" y="-436.3" font-family="Helvetica,sans-Serif" font-weight="bold" font-size="11.00" fill="#000000">court_appearance</text>
<text text-anchor="start" x="442.5219" y="-435.8" font-family="Helvetica,sans-Serif" font-size="11.00" fill="#000000">[table]</text>
<polygon fill="none" stroke="#000000" points="318,-405.7 318,-427.7 477,-427.7 477,-405.7 318,-405.7"/>
<image xlink:href="../../images/primaryKeys.png" width="11px" height="12px" preserveAspectRatio="xMinYMin meet" x="323" y="-422.7"/>
<text text-anchor="start" x="344" y="-412.8" font-family="Helvetica,sans-Serif" font-size="11.00" fill="#000000">id</text>
<polygon fill="#ffffff" stroke="transparent" points="318,-383.7 318,-405.7 477,-405.7 477,-383.7 318,-383.7"/>
<polygon fill="none" stroke="#000000" points="318,-383.7 318,-405.7 477,-405.7 477,-383.7 318,-383.7"/>
<image xlink:href="../../images/foreignKeys.png" width="11px" height="12px" preserveAspectRatio="xMinYMin meet" x="323" y="-400.7"/>
<text text-anchor="start" x="344" y="-390.8" font-family="Helvetica,sans-Serif" font-size="11.00" fill="#000000">person_identifier</text>
<polygon fill="#ffffff" stroke="transparent" points="318,-361.7 318,-383.7 477,-383.7 477,-361.7 318,-361.7"/>
<polygon fill="none" stroke="#000000" points="318,-361.7 318,-383.7 477,-383.7 477,-361.7 318,-361.7"/>
<text text-anchor="start" x="344" y="-368.8" font-family="Helvetica,sans-Serif" font-size="11.00" fill="#000000">prison_code</text>
<polygon fill="#ffffff" stroke="transparent" points="318,-339.7 318,-361.7 477,-361.7 477,-339.7 318,-339.7"/>
<polygon fill="none" stroke="#000000" points="318,-339.7 318,-361.7 477,-361.7 477,-339.7 318,-339.7"/>
<image xlink:href="../../images/foreignKeys.png" width="11px" height="12px" preserveAspectRatio="xMinYMin meet" x="323" y="-356.7"/>
<text text-anchor="start" x="344" y="-346.8" font-family="Helvetica,sans-Serif" font-size="11.00" fill="#000000">reason_id</text>
<polygon fill="#ffffff" stroke="transparent" points="318,-317.7 318,-339.7 477,-339.7 477,-317.7 318,-317.7"/>
<polygon fill="none" stroke="#000000" points="318,-317.7 318,-339.7 477,-339.7 477,-317.7 318,-317.7"/>
<image xlink:href="../../images/foreignKeys.png" width="11px" height="12px" preserveAspectRatio="xMinYMin meet" x="323" y="-334.7"/>
<text text-anchor="start" x="344" y="-324.8" font-family="Helvetica,sans-Serif" font-size="11.00" fill="#000000">status_id</text>
<polygon fill="#ffffff" stroke="transparent" points="318,-295.7 318,-317.7 477,-317.7 477,-295.7 318,-295.7"/>
<polygon fill="none" stroke="#000000" points="318,-295.7 318,-317.7 477,-317.7 477,-295.7 318,-295.7"/>
<text text-anchor="start" x="344" y="-302.8" font-family="Helvetica,sans-Serif" font-size="11.00" fill="#000000">start</text>
<polygon fill="#ffffff" stroke="transparent" points="318,-273.7 318,-295.7 477,-295.7 477,-273.7 318,-273.7"/>
<polygon fill="none" stroke="#000000" points="318,-273.7 318,-295.7 477,-295.7 477,-273.7 318,-273.7"/>
<image xlink:href="../../images/foreignKeys.png" width="11px" height="12px" preserveAspectRatio="xMinYMin meet" x="323" y="-290.7"/>
<text text-anchor="start" x="344" y="-280.8" font-family="Helvetica,sans-Serif" font-size="11.00" fill="#000000">legacy_id</text>
<polygon fill="#ffffff" stroke="transparent" points="318,-251.7 318,-273.7 477,-273.7 477,-251.7 318,-251.7"/>
<polygon fill="none" stroke="#000000" points="318,-251.7 318,-273.7 477,-273.7 477,-251.7 318,-251.7"/>
<text text-anchor="start" x="344" y="-258.8" font-family="Helvetica,sans-Serif" font-size="11.00" fill="#000000">external_reference</text>
<polygon fill="none" stroke="#000000" points="318,-232.7 318,-251.7 477,-251.7 477,-232.7 318,-232.7"/>
<text text-anchor="start" x="321" y="-238.8" font-family="Helvetica,sans-Serif" font-size="11.00" fill="#000000">...</text>
<polygon fill="#ffffff" stroke="transparent" points="318,-213.7 318,-232.7 391,-232.7 391,-213.7 318,-213.7"/>
<polygon fill="none" stroke="#000000" points="318,-213.7 318,-232.7 391,-232.7 391,-213.7 318,-213.7"/>
<text text-anchor="start" x="321" y="-219.8" font-family="Helvetica,sans-Serif" font-size="11.00" fill="#000000">&lt; 3</text>
<polygon fill="#ffffff" stroke="transparent" points="391,-213.7 391,-232.7 429,-232.7 429,-213.7 391,-213.7"/>
<polygon fill="none" stroke="#000000" points="391,-213.7 391,-232.7 429,-232.7 429,-213.7 391,-213.7"/>
<text text-anchor="start" x="419.8862" y="-219.8" font-family="Helvetica,sans-Serif" font-size="11.00" fill="#000000"> &#160;</text>
<polygon fill="#ffffff" stroke="transparent" points="429,-213.7 429,-232.7 477,-232.7 477,-213.7 429,-213.7"/>
<polygon fill="none" stroke="#000000" points="429,-213.7 429,-232.7 477,-232.7 477,-213.7 429,-213.7"/>
<text text-anchor="start" x="458.4053" y="-219.8" font-family="Helvetica,sans-Serif" font-size="11.00" fill="#000000">1 &gt;</text>
</a>
</g>
</g>
<!-- person_summary -->
<g id="node2" class="node">
<title>person_summary</title>
<g id="a_node2"><a xlink:href="../../tables/person_summary.html" xlink:title="person_summary" target="_top">
<polygon fill="#ffffff" stroke="transparent" points="8,-149.7 8,-327.7 209,-327.7 209,-149.7 8,-149.7"/>
<polygon fill="#f5f5f5" stroke="transparent" points="10.5,-302.7 10.5,-325.7 207.5,-325.7 207.5,-302.7 10.5,-302.7"/>
<polygon fill="none" stroke="#000000" points="10.5,-302.7 10.5,-325.7 207.5,-325.7 207.5,-302.7 10.5,-302.7"/>
<text text-anchor="start" x="15.5" y="-311.3" font-family="Helvetica,sans-Serif" font-weight="bold" font-size="11.00" fill="#000000">person_summary</text>
<text text-anchor="start" x="172.5437" y="-310.8" font-family="Helvetica,sans-Serif" font-size="11.00" fill="#000000">[table]</text>
<polygon fill="none" stroke="#000000" points="10.5,-280.7 10.5,-302.7 146.5,-302.7 146.5,-280.7 10.5,-280.7"/>
<image xlink:href="../../images/primaryKeys.png" width="11px" height="12px" preserveAspectRatio="xMinYMin meet" x="15.5" y="-297.7"/>
<text text-anchor="start" x="30.5" y="-287.8" font-family="Helvetica,sans-Serif" font-size="11.00" fill="#000000">person_identifier</text>
<polygon fill="none" stroke="#000000" points="146.5,-280.7 146.5,-302.7 207.5,-302.7 207.5,-280.7 146.5,-280.7"/>
<text text-anchor="start" x="149.494" y="-288.4" font-family="Helvetica,sans-Serif" font-size="11.00" fill="#000000">varchar[10]</text>
<polygon fill="none" stroke="#000000" points="10.5,-258.7 10.5,-280.7 146.5,-280.7 146.5,-258.7 10.5,-258.7"/>
<text text-anchor="start" x="30.5" y="-265.8" font-family="Helvetica,sans-Serif" font-size="11.00" fill="#000000">version</text>
<polygon fill="none" stroke="#000000" points="146.5,-258.7 146.5,-280.7 207.5,-280.7 207.5,-258.7 146.5,-258.7"/>
<text text-anchor="start" x="149.5" y="-266.4" font-family="Helvetica,sans-Serif" font-size="11.00" fill="#000000">int4[10]</text>
<polygon fill="none" stroke="#000000" points="10.5,-236.7 10.5,-258.7 146.5,-258.7 146.5,-236.7 10.5,-236.7"/>
<text text-anchor="start" x="30.5" y="-243.8" font-family="Helvetica,sans-Serif" font-size="11.00" fill="#000000">first_name</text>
<polygon fill="none" stroke="#000000" points="146.5,-236.7 146.5,-258.7 207.5,-258.7 207.5,-236.7 146.5,-236.7"/>
<text text-anchor="start" x="149.494" y="-244.4" font-family="Helvetica,sans-Serif" font-size="11.00" fill="#000000">varchar[64]</text>
<polygon fill="none" stroke="#000000" points="10.5,-214.7 10.5,-236.7 146.5,-236.7 146.5,-214.7 10.5,-214.7"/>
<text text-anchor="start" x="30.5" y="-221.8" font-family="Helvetica,sans-Serif" font-size="11.00" fill="#000000">last_name</text>
<polygon fill="none" stroke="#000000" points="146.5,-214.7 146.5,-236.7 207.5,-236.7 207.5,-214.7 146.5,-214.7"/>
<text text-anchor="start" x="149.494" y="-222.4" font-family="Helvetica,sans-Serif" font-size="11.00" fill="#000000">varchar[64]</text>
<polygon fill="none" stroke="#000000" points="10.5,-192.7 10.5,-214.7 146.5,-214.7 146.5,-192.7 10.5,-192.7"/>
<text text-anchor="start" x="30.5" y="-199.8" font-family="Helvetica,sans-Serif" font-size="11.00" fill="#000000">prison_code</text>
<polygon fill="none" stroke="#000000" points="146.5,-192.7 146.5,-214.7 207.5,-214.7 207.5,-192.7 146.5,-192.7"/>
<text text-anchor="start" x="149.5" y="-200.4" font-family="Helvetica,sans-Serif" font-size="11.00" fill="#000000">varchar[6]</text>
<polygon fill="none" stroke="#000000" points="10.5,-170.7 10.5,-192.7 146.5,-192.7 146.5,-170.7 10.5,-170.7"/>
<text text-anchor="start" x="30.5" y="-177.8" font-family="Helvetica,sans-Serif" font-size="11.00" fill="#000000">cell_location</text>
<polygon fill="none" stroke="#000000" points="146.5,-170.7 146.5,-192.7 207.5,-192.7 207.5,-170.7 146.5,-170.7"/>
<text text-anchor="start" x="149.494" y="-178.4" font-family="Helvetica,sans-Serif" font-size="11.00" fill="#000000">varchar[64]</text>
<polygon fill="#ffffff" stroke="transparent" points="10.5,-151.7 10.5,-170.7 82.5,-170.7 82.5,-151.7 10.5,-151.7"/>
<polygon fill="none" stroke="#000000" points="10.5,-151.7 10.5,-170.7 82.5,-170.7 82.5,-151.7 10.5,-151.7"/>
<text text-anchor="start" x="13.5" y="-157.8" font-family="Helvetica,sans-Serif" font-size="11.00" fill="#000000">&lt; 0</text>
<polygon fill="#ffffff" stroke="transparent" points="82.5,-151.7 82.5,-170.7 146.5,-170.7 146.5,-151.7 82.5,-151.7"/>
<polygon fill="none" stroke="#000000" points="82.5,-151.7 82.5,-170.7 146.5,-170.7 146.5,-151.7 82.5,-151.7"/>
<text text-anchor="start" x="137.3862" y="-157.8" font-family="Helvetica,sans-Serif" font-size="11.00" fill="#000000"> &#160;</text>
<polygon fill="#ffffff" stroke="transparent" points="146.5,-151.7 146.5,-170.7 207.5,-170.7 207.5,-151.7 146.5,-151.7"/>
<polygon fill="none" stroke="#000000" points="146.5,-151.7 146.5,-170.7 207.5,-170.7 207.5,-151.7 146.5,-151.7"/>
<text text-anchor="start" x="188.9053" y="-157.8" font-family="Helvetica,sans-Serif" font-size="11.00" fill="#000000">4 &gt;</text>
<polygon fill="none" stroke="#000000" stroke-width="2" points="9,-150.7 9,-326.7 208,-326.7 208,-150.7 9,-150.7"/>
</a>
</g>
</g>
<!-- court_appearance&#45;&gt;person_summary -->
<g id="edge1" class="edge">
<title>court_appearance:w&#45;&gt;person_summary:e</title>
<path fill="none" stroke="#000000" d="M303.5267,-392.8243C254.0869,-378.8644 269.2617,-291.7 207.5,-291.7"/>
<polygon fill="#000000" stroke="#000000" points="310.0663,-393.6718 317.5373,-398.2701 314.0332,-394.1859 318,-394.7 318,-394.7 318,-394.7 314.0332,-394.1859 318.4627,-391.1299 310.0663,-393.6718 310.0663,-393.6718"/>
<ellipse fill="none" stroke="#000000" cx="306.8929" cy="-393.2605" rx="3.2" ry="3.2"/>
</g>
<!-- court_appearance_audit -->
<g id="node3" class="node">
<title>court_appearance_audit</title>
<g id="a_node3"><a xlink:href="../../tables/court_appearance_audit.html" xlink:title="court_appearance_audit" target="_top">
<polygon fill="#ffffff" stroke="transparent" points="297,-472.2 297,-621.2 497,-621.2 497,-472.2 297,-472.2"/>
<polygon fill="#f5f5f5" stroke="transparent" points="297,-597.7 297,-620.7 497,-620.7 497,-597.7 297,-597.7"/>
<polygon fill="none" stroke="#000000" points="297,-597.7 297,-620.7 497,-620.7 497,-597.7 297,-597.7"/>
<text text-anchor="start" x="302" y="-606.3" font-family="Helvetica,sans-Serif" font-weight="bold" font-size="11.00" fill="#000000">court_appearance_audit</text>
<text text-anchor="start" x="462.5219" y="-605.8" font-family="Helvetica,sans-Serif" font-size="11.00" fill="#000000">[table]</text>
<polygon fill="none" stroke="#000000" points="297,-575.7 297,-597.7 497,-597.7 497,-575.7 297,-575.7"/>
<image xlink:href="../../images/primaryKeys.png" width="11px" height="12px" preserveAspectRatio="xMinYMin meet" x="302" y="-592.7"/>
<text text-anchor="start" x="326" y="-582.8" font-family="Helvetica,sans-Serif" font-size="11.00" fill="#000000">rev_id</text>
<polygon fill="none" stroke="#000000" points="297,-553.7 297,-575.7 497,-575.7 497,-553.7 297,-553.7"/>
<image xlink:href="../../images/primaryKeys.png" width="11px" height="12px" preserveAspectRatio="xMinYMin meet" x="302" y="-570.7"/>
<text text-anchor="start" x="326" y="-560.8" font-family="Helvetica,sans-Serif" font-size="11.00" fill="#000000">id</text>
<polygon fill="none" stroke="#000000" points="297,-531.7 297,-553.7 497,-553.7 497,-531.7 297,-531.7"/>
<image xlink:href="../../images/foreignKeys.png" width="11px" height="12px" preserveAspectRatio="xMinYMin meet" x="302" y="-548.7"/>
<text text-anchor="start" x="326" y="-538.8" font-family="Helvetica,sans-Serif" font-size="11.00" fill="#000000">person_identifier</text>
<polygon fill="none" stroke="#000000" points="297,-509.7 297,-531.7 497,-531.7 497,-509.7 297,-509.7"/>
<image xlink:href="../../images/foreignKeys.png" width="11px" height="12px" preserveAspectRatio="xMinYMin meet" x="302" y="-526.7"/>
<text text-anchor="start" x="326" y="-516.8" font-family="Helvetica,sans-Serif" font-size="11.00" fill="#000000">legacy_id</text>
<polygon fill="none" stroke="#000000" points="297,-490.7 297,-509.7 497,-509.7 497,-490.7 297,-490.7"/>
<text text-anchor="start" x="300" y="-496.8" font-family="Helvetica,sans-Serif" font-size="11.00" fill="#000000">...</text>
<polygon fill="#ffffff" stroke="transparent" points="297,-471.7 297,-490.7 395,-490.7 395,-471.7 297,-471.7"/>
<polygon fill="none" stroke="#000000" points="297,-471.7 297,-490.7 395,-490.7 395,-471.7 297,-471.7"/>
<text text-anchor="start" x="300" y="-477.8" font-family="Helvetica,sans-Serif" font-size="11.00" fill="#000000">&lt; 3</text>
<polygon fill="#ffffff" stroke="transparent" points="395,-471.7 395,-490.7 446,-490.7 446,-471.7 395,-471.7"/>
<polygon fill="none" stroke="#000000" points="395,-471.7 395,-490.7 446,-490.7 446,-471.7 395,-471.7"/>
<text text-anchor="start" x="436.8862" y="-477.8" font-family="Helvetica,sans-Serif" font-size="11.00" fill="#000000"> &#160;</text>
<polygon fill="#ffffff" stroke="transparent" points="446,-471.7 446,-490.7 497,-490.7 497,-471.7 446,-471.7"/>
<polygon fill="none" stroke="#000000" points="446,-471.7 446,-490.7 497,-490.7 497,-471.7 446,-471.7"/>
<text text-anchor="start" x="487.8862" y="-477.8" font-family="Helvetica,sans-Serif" font-size="11.00" fill="#000000"> &#160;</text>
</a>
</g>
</g>
<!-- court_appearance_audit&#45;&gt;person_summary -->
<g id="edge2" class="edge">
<title>court_appearance_audit:w&#45;&gt;person_summary:e</title>
<path fill="none" stroke="#000000" stroke-dasharray="5,2" d="M282.6396,-540.4389C257.7016,-531.1699 263.5067,-494.9958 250,-461.7 220.7242,-389.5311 285.3809,-291.7 207.5,-291.7"/>
<polygon fill="#000000" stroke="#000000" points="289.0974,-541.4557 296.4401,-546.2562 293.0487,-542.0778 297,-542.7 297,-542.7 297,-542.7 293.0487,-542.0778 297.5599,-539.1438 289.0974,-541.4557 289.0974,-541.4557"/>
<ellipse fill="none" stroke="#000000" cx="285.9363" cy="-540.9579" rx="3.2" ry="3.2"/>
</g>
<!-- court_appearance_movement -->
<g id="node4" class="node">
<title>court_appearance_movement</title>
<g id="a_node4"><a xlink:href="../../tables/court_appearance_movement.html" xlink:title="court_appearance_movement" target="_top">
<polygon fill="#ffffff" stroke="transparent" points="585,-199.2 585,-370.2 822,-370.2 822,-199.2 585,-199.2"/>
<polygon fill="#f5f5f5" stroke="transparent" points="585.5,-346.7 585.5,-369.7 822.5,-369.7 822.5,-346.7 585.5,-346.7"/>
<polygon fill="none" stroke="#000000" points="585.5,-346.7 585.5,-369.7 822.5,-369.7 822.5,-346.7 585.5,-346.7"/>
<text text-anchor="start" x="590.5" y="-355.3" font-family="Helvetica,sans-Serif" font-weight="bold" font-size="11.00" fill="#000000">court_appearance_movement</text>
<text text-anchor="start" x="788.0219" y="-354.8" font-family="Helvetica,sans-Serif" font-size="11.00" fill="#000000">[table]</text>
<polygon fill="none" stroke="#000000" points="585.5,-324.7 585.5,-346.7 822.5,-346.7 822.5,-324.7 585.5,-324.7"/>
<image xlink:href="../../images/primaryKeys.png" width="11px" height="12px" preserveAspectRatio="xMinYMin meet" x="590.5" y="-341.7"/>
<text text-anchor="start" x="614.5" y="-331.8" font-family="Helvetica,sans-Serif" font-size="11.00" fill="#000000">id</text>
<polygon fill="none" stroke="#000000" points="585.5,-302.7 585.5,-324.7 822.5,-324.7 822.5,-302.7 585.5,-302.7"/>
<image xlink:href="../../images/foreignKeys.png" width="11px" height="12px" preserveAspectRatio="xMinYMin meet" x="590.5" y="-319.7"/>
<text text-anchor="start" x="614.5" y="-309.8" font-family="Helvetica,sans-Serif" font-size="11.00" fill="#000000">court_appearance_id</text>
<polygon fill="#ffffff" stroke="transparent" points="585.5,-280.7 585.5,-302.7 822.5,-302.7 822.5,-280.7 585.5,-280.7"/>
<polygon fill="none" stroke="#000000" points="585.5,-280.7 585.5,-302.7 822.5,-302.7 822.5,-280.7 585.5,-280.7"/>
<image xlink:href="../../images/foreignKeys.png" width="11px" height="12px" preserveAspectRatio="xMinYMin meet" x="590.5" y="-297.7"/>
<text text-anchor="start" x="614.5" y="-287.8" font-family="Helvetica,sans-Serif" font-size="11.00" fill="#000000">person_identifier</text>
<polygon fill="none" stroke="#000000" points="585.5,-258.7 585.5,-280.7 822.5,-280.7 822.5,-258.7 585.5,-258.7"/>
<image xlink:href="../../images/foreignKeys.png" width="11px" height="12px" preserveAspectRatio="xMinYMin meet" x="590.5" y="-275.7"/>
<text text-anchor="start" x="614.5" y="-265.8" font-family="Helvetica,sans-Serif" font-size="11.00" fill="#000000">reason_id</text>
<polygon fill="#ffffff" stroke="transparent" points="585.5,-236.7 585.5,-258.7 822.5,-258.7 822.5,-236.7 585.5,-236.7"/>
<polygon fill="none" stroke="#000000" points="585.5,-236.7 585.5,-258.7 822.5,-258.7 822.5,-236.7 585.5,-236.7"/>
<text text-anchor="start" x="614.5" y="-243.8" font-family="Helvetica,sans-Serif" font-size="11.00" fill="#000000">legacy_id</text>
<polygon fill="none" stroke="#000000" points="585.5,-217.7 585.5,-236.7 822.5,-236.7 822.5,-217.7 585.5,-217.7"/>
<text text-anchor="start" x="588.5" y="-223.8" font-family="Helvetica,sans-Serif" font-size="11.00" fill="#000000">...</text>
<polygon fill="#ffffff" stroke="transparent" points="585.5,-198.7 585.5,-217.7 702.5,-217.7 702.5,-198.7 585.5,-198.7"/>
<polygon fill="none" stroke="#000000" points="585.5,-198.7 585.5,-217.7 702.5,-217.7 702.5,-198.7 585.5,-198.7"/>
<text text-anchor="start" x="588.5" y="-204.8" font-family="Helvetica,sans-Serif" font-size="11.00" fill="#000000">&lt; 3</text>
<polygon fill="#ffffff" stroke="transparent" points="702.5,-198.7 702.5,-217.7 762.5,-217.7 762.5,-198.7 702.5,-198.7"/>
<polygon fill="none" stroke="#000000" points="702.5,-198.7 702.5,-217.7 762.5,-217.7 762.5,-198.7 702.5,-198.7"/>
<text text-anchor="start" x="753.3862" y="-204.8" font-family="Helvetica,sans-Serif" font-size="11.00" fill="#000000"> &#160;</text>
<polygon fill="#ffffff" stroke="transparent" points="762.5,-198.7 762.5,-217.7 822.5,-217.7 822.5,-198.7 762.5,-198.7"/>
<polygon fill="none" stroke="#000000" points="762.5,-198.7 762.5,-217.7 822.5,-217.7 822.5,-198.7 762.5,-198.7"/>
<text text-anchor="start" x="813.3862" y="-204.8" font-family="Helvetica,sans-Serif" font-size="11.00" fill="#000000"> &#160;</text>
</a>
</g>
</g>
<!-- court_appearance_movement&#45;&gt;court_appearance -->
<g id="edge3" class="edge">
<title>court_appearance_movement:w&#45;&gt;court_appearance:e</title>
<path fill="none" stroke="#000000" d="M571.1833,-315.5757C522.3469,-329.5356 538.1661,-416.7 477,-416.7"/>
<polygon fill="#000000" stroke="#000000" points="577.5678,-314.7393 585.9677,-317.2695 581.5339,-314.2196 585.5,-313.7 585.5,-313.7 585.5,-313.7 581.5339,-314.2196 585.0323,-310.1305 577.5678,-314.7393 577.5678,-314.7393"/>
<ellipse fill="none" stroke="#000000" cx="574.3949" cy="-315.155" rx="3.2" ry="3.2"/>
</g>
<!-- court_appearance_movement&#45;&gt;person_summary -->
<g id="edge4" class="edge">
<title>court_appearance_movement:w&#45;&gt;person_summary:e</title>
<path fill="none" stroke="#000000" d="M571.3864,-287.9579C551.756,-273.8266 575.2419,-223.5083 544,-203.7 488.8225,-168.7158 305.3388,-168.9715 250,-203.7 213.2109,-226.7874 250.9335,-291.7 207.5,-291.7"/>
<polygon fill="#000000" stroke="#000000" points="577.7672,-289.6497 584.5774,-295.1798 581.6336,-290.6749 585.5,-291.7 585.5,-291.7 585.5,-291.7 581.6336,-290.6749 586.4226,-288.2202 577.7672,-289.6497 577.7672,-289.6497"/>
<ellipse fill="none" stroke="#000000" cx="574.6741" cy="-288.8296" rx="3.2" ry="3.2"/>
</g>
<!-- court_appearance_movement_audit -->
<g id="node5" class="node">
<title>court_appearance_movement_audit</title>
<g id="a_node5"><a xlink:href="../../tables/court_appearance_movement_audit.html" xlink:title="court_appearance_movement_audit" target="_top">
<polygon fill="#ffffff" stroke="transparent" points="258,-38.2 258,-165.2 536,-165.2 536,-38.2 258,-38.2"/>
<polygon fill="#f5f5f5" stroke="transparent" points="258,-141.7 258,-164.7 536,-164.7 536,-141.7 258,-141.7"/>
<polygon fill="none" stroke="#000000" points="258,-141.7 258,-164.7 536,-164.7 536,-141.7 258,-141.7"/>
<text text-anchor="start" x="263" y="-150.3" font-family="Helvetica,sans-Serif" font-weight="bold" font-size="11.00" fill="#000000">court_appearance_movement_audit</text>
<text text-anchor="start" x="501.5219" y="-149.8" font-family="Helvetica,sans-Serif" font-size="11.00" fill="#000000">[table]</text>
<polygon fill="none" stroke="#000000" points="258,-119.7 258,-141.7 536,-141.7 536,-119.7 258,-119.7"/>
<image xlink:href="../../images/primaryKeys.png" width="11px" height="12px" preserveAspectRatio="xMinYMin meet" x="263" y="-136.7"/>
<text text-anchor="start" x="287" y="-126.8" font-family="Helvetica,sans-Serif" font-size="11.00" fill="#000000">rev_id</text>
<polygon fill="none" stroke="#000000" points="258,-97.7 258,-119.7 536,-119.7 536,-97.7 258,-97.7"/>
<image xlink:href="../../images/primaryKeys.png" width="11px" height="12px" preserveAspectRatio="xMinYMin meet" x="263" y="-114.7"/>
<text text-anchor="start" x="287" y="-104.8" font-family="Helvetica,sans-Serif" font-size="11.00" fill="#000000">id</text>
<polygon fill="none" stroke="#000000" points="258,-75.7 258,-97.7 536,-97.7 536,-75.7 258,-75.7"/>
<image xlink:href="../../images/foreignKeys.png" width="11px" height="12px" preserveAspectRatio="xMinYMin meet" x="263" y="-92.7"/>
<text text-anchor="start" x="287" y="-82.8" font-family="Helvetica,sans-Serif" font-size="11.00" fill="#000000">person_identifier</text>
<polygon fill="none" stroke="#000000" points="258,-56.7 258,-75.7 536,-75.7 536,-56.7 258,-56.7"/>
<text text-anchor="start" x="261" y="-62.8" font-family="Helvetica,sans-Serif" font-size="11.00" fill="#000000">...</text>
<polygon fill="#ffffff" stroke="transparent" points="258,-37.7 258,-56.7 395,-56.7 395,-37.7 258,-37.7"/>
<polygon fill="none" stroke="#000000" points="258,-37.7 258,-56.7 395,-56.7 395,-37.7 258,-37.7"/>
<text text-anchor="start" x="261" y="-43.8" font-family="Helvetica,sans-Serif" font-size="11.00" fill="#000000">&lt; 2</text>
<polygon fill="#ffffff" stroke="transparent" points="395,-37.7 395,-56.7 465,-56.7 465,-37.7 395,-37.7"/>
<polygon fill="none" stroke="#000000" points="395,-37.7 395,-56.7 465,-56.7 465,-37.7 395,-37.7"/>
<text text-anchor="start" x="455.8862" y="-43.8" font-family="Helvetica,sans-Serif" font-size="11.00" fill="#000000"> &#160;</text>
<polygon fill="#ffffff" stroke="transparent" points="465,-37.7 465,-56.7 536,-56.7 536,-37.7 465,-37.7"/>
<polygon fill="none" stroke="#000000" points="465,-37.7 465,-56.7 536,-56.7 536,-37.7 465,-37.7"/>
<text text-anchor="start" x="526.8862" y="-43.8" font-family="Helvetica,sans-Serif" font-size="11.00" fill="#000000"> &#160;</text>
</a>
</g>
</g>
<!-- court_appearance_movement_audit&#45;&gt;person_summary -->
<g id="edge5" class="edge">
<title>court_appearance_movement_audit:w&#45;&gt;person_summary:e</title>
<path fill="none" stroke="#000000" stroke-dasharray="5,2" d="M243.3938,-88.8635C179.9287,-110.7727 295.6535,-291.7 207.5,-291.7"/>
<polygon fill="#000000" stroke="#000000" points="250.0863,-87.8723 258.5275,-90.2611 254.0432,-87.2861 258,-86.7 258,-86.7 258,-86.7 254.0432,-87.2861 257.4725,-83.1389 250.0863,-87.8723 250.0863,-87.8723"/>
<ellipse fill="none" stroke="#000000" cx="246.9209" cy="-88.3412" rx="3.2" ry="3.2"/>
</g>
</g>
</svg>
