<?xml version="1.0" encoding="UTF-8" standalone="no"?>
<!DOCTYPE svg PUBLIC "-//W3C//DTD SVG 1.1//EN"
 "http://www.w3.org/Graphics/SVG/1.1/DTD/svg11.dtd">
<!-- Generated by graphviz version 2.40.1 (20161225.0304)
 -->
<!-- Title: oneDegreeRelationshipsDiagramImplied Pages: 1 -->
<svg width="838pt" height="677pt"
 viewBox="0.00 0.00 838.00 677.20" xmlns="http://www.w3.org/2000/svg" xmlns:xlink="http://www.w3.org/1999/xlink">
<g id="graph0" class="graph" transform="scale(1 1) rotate(0) translate(4 673.2)">
<title>oneDegreeRelationshipsDiagramImplied</title>
<polygon fill="#ffffff" stroke="transparent" points="-4,4 -4,-673.2 834,-673.2 834,4 -4,4"/>
<text text-anchor="middle" x="72.4936" y="-7.3" font-family="Helvetica,sans-Serif" font-size="11.00" fill="#000000">Generated by SchemaSpy</text>
<!-- court_appearance -->
<g id="node1" class="node">
<title>court_appearance</title>
<g id="a_node1"><a xlink:href="../../tables/court_appearance.html" xlink:title="court_appearance" target="_top">
<polygon fill="#ffffff" stroke="transparent" points="317.5,-236.2 317.5,-473.2 476.5,-473.2 476.5,-236.2 317.5,-236.2"/>
<polygon fill="#f5f5f5" stroke="transparent" points="318,-449.7 318,-472.7 477,-472.7 477,-449.7 318,-449.7"/>
<polygon fill="none" stroke="#000000" points="318,-449.7 318,-472.7 477,-472.7 477,-449.7 318,-449.7"/>
<text text-anchor="start" x="323" y="-458.3" font-family="Helvetica,sans-Serif" font-weight="bold" font-size="11.00" fill="#000000">court_appearance</text>
<text text-anchor="start" x="442.5219" y="-457.8" font-family="Helvetica,sans-Serif" font-size="11.00" fill="#000000">[table]</text>
<polygon fill="none" stroke="#000000" points="318,-427.7 318,-449.7 477,-449.7 477,-427.7 318,-427.7"/>
<image xlink:href="../../images/primaryKeys.png" width="11px" height="12px" preserveAspectRatio="xMinYMin meet" x="323" y="-444.7"/>
<text text-anchor="start" x="344" y="-434.8" font-family="Helvetica,sans-Serif" font-size="11.00" fill="#000000">id</text>
<polygon fill="#ffffff" stroke="transparent" points="318,-405.7 318,-427.7 477,-427.7 477,-405.7 318,-405.7"/>
<polygon fill="none" stroke="#000000" points="318,-405.7 318,-427.7 477,-427.7 477,-405.7 318,-405.7"/>
<image xlink:href="../../images/foreignKeys.png" width="11px" height="12px" preserveAspectRatio="xMinYMin meet" x="323" y="-422.7"/>
<text text-anchor="start" x="344" y="-412.8" font-family="Helvetica,sans-Serif" font-size="11.00" fill="#000000">person_identifier</text>
<polygon fill="#ffffff" stroke="transparent" points="318,-383.7 318,-405.7 477,-405.7 477,-383.7 318,-383.7"/>
<polygon fill="none" stroke="#000000" points="318,-383.7 318,-405.7 477,-405.7 477,-383.7 318,-383.7"/>
<text text-anchor="start" x="344" y="-390.8" font-family="Helvetica,sans-Serif" font-size="11.00" fill="#000000">prison_code</text>
<polygon fill="#ffffff" stroke="transparent" points="318,-361.7 318,-383.7 477,-383.7 477,-361.7 318,-361.7"/>
<polygon fill="none" stroke="#000000" points="318,-361.7 318,-383.7 477,-383.7 477,-361.7 318,-361.7"/>
<image xlink:href="../../images/foreignKeys.png" width="11px" height="12px" preserveAspectRatio="xMinYMin meet" x="323" y="-378.7"/>
<text text-anchor="start" x="344" y="-368.8" font-family="Helvetica,sans-Serif" font-size="11.00" fill="#000000">reason_id</text>
<polygon fill="#ffffff" stroke="transparent" points="318,-339.7 318,-361.7 477,-361.7 477,-339.7 318,-339.7"/>
<polygon fill="none" stroke="#000000" points="318,-339.7 318,-361.7 477,-361.7 477,-339.7 318,-339.7"/>
<image xlink:href="../../images/foreignKeys.png" width="11px" height="12px" preserveAspectRatio="xMinYMin meet" x="323" y="-356.7"/>
<text text-anchor="start" x="344" y="-346.8" font-family="Helvetica,sans-Serif" font-size="11.00" fill="#000000">status_id</text>
<polygon fill="#ffffff" stroke="transparent" points="318,-317.7 318,-339.7 477,-339.7 477,-317.7 318,-317.7"/>
<polygon fill="none" stroke="#000000" points="318,-317.7 318,-339.7 477,-339.7 477,-317.7 318,-317.7"/>
<text text-anchor="start" x="344" y="-324.8" font-family="Helvetica,sans-Serif" font-size="11.00" fill="#000000">start</text>
<polygon fill="#ffffff" stroke="transparent" points="318,-295.7 318,-317.7 477,-317.7 477,-295.7 318,-295.7"/>
<polygon fill="none" stroke="#000000" points="318,-295.7 318,-317.7 477,-317.7 477,-295.7 318,-295.7"/>
<image xlink:href="../../images/foreignKeys.png" width="11px" height="12px" preserveAspectRatio="xMinYMin meet" x="323" y="-312.7"/>
<text text-anchor="start" x="344" y="-302.8" font-family="Helvetica,sans-Serif" font-size="11.00" fill="#000000">legacy_id</text>
<polygon fill="#ffffff" stroke="transparent" points="318,-273.7 318,-295.7 477,-295.7 477,-273.7 318,-273.7"/>
<polygon fill="none" stroke="#000000" points="318,-273.7 318,-295.7 477,-295.7 477,-273.7 318,-273.7"/>
<text text-anchor="start" x="344" y="-280.8" font-family="Helvetica,sans-Serif" font-size="11.00" fill="#000000">external_reference</text>
<polygon fill="none" stroke="#000000" points="318,-254.7 318,-273.7 477,-273.7 477,-254.7 318,-254.7"/>
<text text-anchor="start" x="321" y="-260.8" font-family="Helvetica,sans-Serif" font-size="11.00" fill="#000000">...</text>
<polygon fill="#ffffff" stroke="transparent" points="318,-235.7 318,-254.7 391,-254.7 391,-235.7 318,-235.7"/>
<polygon fill="none" stroke="#000000" points="318,-235.7 318,-254.7 391,-254.7 391,-235.7 318,-235.7"/>
<text text-anchor="start" x="321" y="-241.8" font-family="Helvetica,sans-Serif" font-size="11.00" fill="#000000">&lt; 3</text>
<polygon fill="#ffffff" stroke="transparent" points="391,-235.7 391,-254.7 429,-254.7 429,-235.7 391,-235.7"/>
<polygon fill="none" stroke="#000000" points="391,-235.7 391,-254.7 429,-254.7 429,-235.7 391,-235.7"/>
<text text-anchor="start" x="419.8862" y="-241.8" font-family="Helvetica,sans-Serif" font-size="11.00" fill="#000000"> &#160;</text>
<polygon fill="#ffffff" stroke="transparent" points="429,-235.7 429,-254.7 477,-254.7 477,-235.7 429,-235.7"/>
<polygon fill="none" stroke="#000000" points="429,-235.7 429,-254.7 477,-254.7 477,-235.7 429,-235.7"/>
<text text-anchor="start" x="458.4053" y="-241.8" font-family="Helvetica,sans-Serif" font-size="11.00" fill="#000000">1 &gt;</text>
</a>
</g>
</g>
<!-- person_summary -->
<g id="node2" class="node">
<title>person_summary</title>
<g id="a_node2"><a xlink:href="../../tables/person_summary.html" xlink:title="person_summary" target="_top">
<polygon fill="#ffffff" stroke="transparent" points="8,-171.7 8,-349.7 209,-349.7 209,-171.7 8,-171.7"/>
<polygon fill="#f5f5f5" stroke="transparent" points="10.5,-324.7 10.5,-347.7 207.5,-347.7 207.5,-324.7 10.5,-324.7"/>
<polygon fill="none" stroke="#000000" points="10.5,-324.7 10.5,-347.7 207.5,-347.7 207.5,-324.7 10.5,-324.7"/>
<text text-anchor="start" x="15.5" y="-333.3" font-family="Helvetica,sans-Serif" font-weight="bold" font-size="11.00" fill="#000000">person_summary</text>
<text text-anchor="start" x="172.5437" y="-332.8" font-family="Helvetica,sans-Serif" font-size="11.00" fill="#000000">[table]</text>
<polygon fill="none" stroke="#000000" points="10.5,-302.7 10.5,-324.7 146.5,-324.7 146.5,-302.7 10.5,-302.7"/>
<image xlink:href="../../images/primaryKeys.png" width="11px" height="12px" preserveAspectRatio="xMinYMin meet" x="15.5" y="-319.7"/>
<text text-anchor="start" x="30.5" y="-309.8" font-family="Helvetica,sans-Serif" font-size="11.00" fill="#000000">person_identifier</text>
<polygon fill="none" stroke="#000000" points="146.5,-302.7 146.5,-324.7 207.5,-324.7 207.5,-302.7 146.5,-302.7"/>
<text text-anchor="start" x="149.494" y="-310.4" font-family="Helvetica,sans-Serif" font-size="11.00" fill="#000000">varchar[10]</text>
<polygon fill="none" stroke="#000000" points="10.5,-280.7 10.5,-302.7 146.5,-302.7 146.5,-280.7 10.5,-280.7"/>
<text text-anchor="start" x="30.5" y="-287.8" font-family="Helvetica,sans-Serif" font-size="11.00" fill="#000000">version</text>
<polygon fill="none" stroke="#000000" points="146.5,-280.7 146.5,-302.7 207.5,-302.7 207.5,-280.7 146.5,-280.7"/>
<text text-anchor="start" x="149.5" y="-288.4" font-family="Helvetica,sans-Serif" font-size="11.00" fill="#000000">int4[10]</text>
<polygon fill="none" stroke="#000000" points="10.5,-258.7 10.5,-280.7 146.5,-280.7 146.5,-258.7 10.5,-258.7"/>
<text text-anchor="start" x="30.5" y="-265.8" font-family="Helvetica,sans-Serif" font-size="11.00" fill="#000000">first_name</text>
<polygon fill="none" stroke="#000000" points="146.5,-258.7 146.5,-280.7 207.5,-280.7 207.5,-258.7 146.5,-258.7"/>
<text text-anchor="start" x="149.494" y="-266.4" font-family="Helvetica,sans-Serif" font-size="11.00" fill="#000000">varchar[64]</text>
<polygon fill="none" stroke="#000000" points="10.5,-236.7 10.5,-258.7 146.5,-258.7 146.5,-236.7 10.5,-236.7"/>
<text text-anchor="start" x="30.5" y="-243.8" font-family="Helvetica,sans-Serif" font-size="11.00" fill="#000000">last_name</text>
<polygon fill="none" stroke="#000000" points="146.5,-236.7 146.5,-258.7 207.5,-258.7 207.5,-236.7 146.5,-236.7"/>
<text text-anchor="start" x="149.494" y="-244.4" font-family="Helvetica,sans-Serif" font-size="11.00" fill="#000000">varchar[64]</text>
<polygon fill="none" stroke="#000000" points="10.5,-214.7 10.5,-236.7 146.5,-236.7 146.5,-214.7 10.5,-214.7"/>
<text text-anchor="start" x="30.5" y="-221.8" font-family="Helvetica,sans-Serif" font-size="11.00" fill="#000000">prison_code</text>
<polygon fill="none" stroke="#000000" points="146.5,-214.7 146.5,-236.7 207.5,-236.7 207.5,-214.7 146.5,-214.7"/>
<text text-anchor="start" x="149.5" y="-222.4" font-family="Helvetica,sans-Serif" font-size="11.00" fill="#000000">varchar[6]</text>
<polygon fill="none" stroke="#000000" points="10.5,-192.7 10.5,-214.7 146.5,-214.7 146.5,-192.7 10.5,-192.7"/>
<text text-anchor="start" x="30.5" y="-199.8" font-family="Helvetica,sans-Serif" font-size="11.00" fill="#000000">cell_location</text>
<polygon fill="none" stroke="#000000" points="146.5,-192.7 146.5,-214.7 207.5,-214.7 207.5,-192.7 146.5,-192.7"/>
<text text-anchor="start" x="149.494" y="-200.4" font-family="Helvetica,sans-Serif" font-size="11.00" fill="#000000">varchar[64]</text>
<polygon fill="#ffffff" stroke="transparent" points="10.5,-173.7 10.5,-192.7 82.5,-192.7 82.5,-173.7 10.5,-173.7"/>
<polygon fill="none" stroke="#000000" points="10.5,-173.7 10.5,-192.7 82.5,-192.7 82.5,-173.7 10.5,-173.7"/>
<text text-anchor="start" x="13.5" y="-179.8" font-family="Helvetica,sans-Serif" font-size="11.00" fill="#000000">&lt; 0</text>
<polygon fill="#ffffff" stroke="transparent" points="82.5,-173.7 82.5,-192.7 146.5,-192.7 146.5,-173.7 82.5,-173.7"/>
<polygon fill="none" stroke="#000000" points="82.5,-173.7 82.5,-192.7 146.5,-192.7 146.5,-173.7 82.5,-173.7"/>
<text text-anchor="start" x="137.3862" y="-179.8" font-family="Helvetica,sans-Serif" font-size="11.00" fill="#000000"> &#160;</text>
<polygon fill="#ffffff" stroke="transparent" points="146.5,-173.7 146.5,-192.7 207.5,-192.7 207.5,-173.7 146.5,-173.7"/>
<polygon fill="none" stroke="#000000" points="146.5,-173.7 146.5,-192.7 207.5,-192.7 207.5,-173.7 146.5,-173.7"/>
<text text-anchor="start" x="188.9053" y="-179.8" font-family="Helvetica,sans-Serif" font-size="11.00" fill="#000000">4 &gt;</text>
<polygon fill="none" stroke="#000000" stroke-width="2" points="9,-172.7 9,-348.7 208,-348.7 208,-172.7 9,-172.7"/>
</a>
</g>
</g>
<!-- court_appearance&#45;&gt;person_summary -->
<g id="edge1" class="edge">
<title>court_appearance:w&#45;&gt;person_summary:e</title>
<path fill="none" stroke="#000000" d="M303.5267,-414.8243C254.0869,-400.8644 269.2617,-313.7 207.5,-313.7"/>
<polygon fill="#000000" stroke="#000000" points="310.0663,-415.6718 317.5373,-420.2701 314.0332,-416.1859 318,-416.7 318,-416.7 318,-416.7 314.0332,-416.1859 318.4627,-413.1299 310.0663,-415.6718 310.0663,-415.6718"/>
<ellipse fill="none" stroke="#000000" cx="306.8929" cy="-415.2605" rx="3.2" ry="3.2"/>
</g>
<!-- court_appearance_audit -->
<g id="node3" class="node">
<title>court_appearance_audit</title>
<g id="a_node3"><a xlink:href="../../tables/court_appearance_audit.html" xlink:title="court_appearance_audit" target="_top">
<polygon fill="#ffffff" stroke="transparent" points="297,-494.2 297,-665.2 497,-665.2 497,-494.2 297,-494.2"/>
<polygon fill="#f5f5f5" stroke="transparent" points="297,-641.7 297,-664.7 497,-664.7 497,-641.7 297,-641.7"/>
<polygon fill="none" stroke="#000000" points="297,-641.7 297,-664.7 497,-664.7 497,-641.7 297,-641.7"/>
<text text-anchor="start" x="302" y="-650.3" font-family="Helvetica,sans-Serif" font-weight="bold" font-size="11.00" fill="#000000">court_appearance_audit</text>
<text text-anchor="start" x="462.5219" y="-649.8" font-family="Helvetica,sans-Serif" font-size="11.00" fill="#000000">[table]</text>
<polygon fill="none" stroke="#000000" points="297,-619.7 297,-641.7 497,-641.7 497,-619.7 297,-619.7"/>
<image xlink:href="../../images/primaryKeys.png" width="11px" height="12px" preserveAspectRatio="xMinYMin meet" x="302" y="-636.7"/>
<text text-anchor="start" x="326" y="-626.8" font-family="Helvetica,sans-Serif" font-size="11.00" fill="#000000">rev_id</text>
<polygon fill="none" stroke="#000000" points="297,-597.7 297,-619.7 497,-619.7 497,-597.7 297,-597.7"/>
<image xlink:href="../../images/primaryKeys.png" width="11px" height="12px" preserveAspectRatio="xMinYMin meet" x="302" y="-614.7"/>
<text text-anchor="start" x="326" y="-604.8" font-family="Helvetica,sans-Serif" font-size="11.00" fill="#000000">id</text>
<polygon fill="none" stroke="#000000" points="297,-575.7 297,-597.7 497,-597.7 497,-575.7 297,-575.7"/>
<image xlink:href="../../images/foreignKeys.png" width="11px" height="12px" preserveAspectRatio="xMinYMin meet" x="302" y="-592.7"/>
<text text-anchor="start" x="326" y="-582.8" font-family="Helvetica,sans-Serif" font-size="11.00" fill="#000000">person_identifier</text>
<polygon fill="none" stroke="#000000" points="297,-553.7 297,-575.7 497,-575.7 497,-553.7 297,-553.7"/>
<image xlink:href="../../images/foreignKeys.png" width="11px" height="12px" preserveAspectRatio="xMinYMin meet" x="302" y="-570.7"/>
<text text-anchor="start" x="326" y="-560.8" font-family="Helvetica,sans-Serif" font-size="11.00" fill="#000000">legacy_id</text>
<polygon fill="#ffffff" stroke="transparent" points="297,-531.7 297,-553.7 497,-553.7 497,-531.7 297,-531.7"/>
<polygon fill="none" stroke="#000000" points="297,-531.7 297,-553.7 497,-553.7 497,-531.7 297,-531.7"/>
<text text-anchor="start" x="326" y="-538.8" font-family="Helvetica,sans-Serif" font-size="11.00" fill="#000000">external_reference</text>
<polygon fill="none" stroke="#000000" points="297,-512.7 297,-531.7 497,-531.7 497,-512.7 297,-512.7"/>
<text text-anchor="start" x="300" y="-518.8" font-family="Helvetica,sans-Serif" font-size="11.00" fill="#000000">...</text>
<polygon fill="#ffffff" stroke="transparent" points="297,-493.7 297,-512.7 395,-512.7 395,-493.7 297,-493.7"/>
<polygon fill="none" stroke="#000000" points="297,-493.7 297,-512.7 395,-512.7 395,-493.7 297,-493.7"/>
<text text-anchor="start" x="300" y="-499.8" font-family="Helvetica,sans-Serif" font-size="11.00" fill="#000000">&lt; 3</text>
<polygon fill="#ffffff" stroke="transparent" points="395,-493.7 395,-512.7 446,-512.7 446,-493.7 395,-493.7"/>
<polygon fill="none" stroke="#000000" points="395,-493.7 395,-512.7 446,-512.7 446,-493.7 395,-493.7"/>
<text text-anchor="start" x="436.8862" y="-499.8" font-family="Helvetica,sans-Serif" font-size="11.00" fill="#000000"> &#160;</text>
<polygon fill="#ffffff" stroke="transparent" points="446,-493.7 446,-512.7 497,-512.7 497,-493.7 446,-493.7"/>
<polygon fill="none" stroke="#000000" points="446,-493.7 446,-512.7 497,-512.7 497,-493.7 446,-493.7"/>
<text text-anchor="start" x="487.8862" y="-499.8" font-family="Helvetica,sans-Serif" font-size="11.00" fill="#000000"> &#160;</text>
</a>
</g>
</g>
<!-- court_appearance_audit&#45;&gt;person_summary -->
<g id="edge2" class="edge">
<title>court_appearance_audit:w&#45;&gt;person_summary:e</title>
<path fill="none" stroke="#000000" stroke-dasharray="5,2" d="M282.4489,-584.6555C250.7289,-574.2276 264.7338,-525.8155 250,-483.7 224.2824,-410.1879 285.3809,-313.7 207.5,-313.7"/>
<polygon fill="#000000" stroke="#000000" points="289.0778,-585.5869 296.4991,-590.265 293.0389,-586.1434 297,-586.7 297,-586.7 297,-586.7 293.0389,-586.1434 297.5009,-583.135 289.0778,-585.5869 289.0778,-585.5869"/>
<ellipse fill="none" stroke="#000000" cx="285.9089" cy="-585.1416" rx="3.2" ry="3.2"/>
</g>
<!-- court_appearance_movement -->
<g id="node4" class="node">
<title>court_appearance_movement</title>
<g id="a_node4"><a xlink:href="../../tables/court_appearance_movement.html" xlink:title="court_appearance_movement" target="_top">
<polygon fill="#ffffff" stroke="transparent" points="585,-221.2 585,-392.2 822,-392.2 822,-221.2 585,-221.2"/>
<polygon fill="#f5f5f5" stroke="transparent" points="585.5,-368.7 585.5,-391.7 822.5,-391.7 822.5,-368.7 585.5,-368.7"/>
<polygon fill="none" stroke="#000000" points="585.5,-368.7 585.5,-391.7 822.5,-391.7 822.5,-368.7 585.5,-368.7"/>
<text text-anchor="start" x="590.5" y="-377.3" font-family="Helvetica,sans-Serif" font-weight="bold" font-size="11.00" fill="#000000">court_appearance_movement</text>
<text text-anchor="start" x="788.0219" y="-376.8" font-family="Helvetica,sans-Serif" font-size="11.00" fill="#000000">[table]</text>
<polygon fill="none" stroke="#000000" points="585.5,-346.7 585.5,-368.7 822.5,-368.7 822.5,-346.7 585.5,-346.7"/>
<image xlink:href="../../images/primaryKeys.png" width="11px" height="12px" preserveAspectRatio="xMinYMin meet" x="590.5" y="-363.7"/>
<text text-anchor="start" x="614.5" y="-353.8" font-family="Helvetica,sans-Serif" font-size="11.00" fill="#000000">id</text>
<polygon fill="#ffffff" stroke="transparent" points="585.5,-324.7 585.5,-346.7 822.5,-346.7 822.5,-324.7 585.5,-324.7"/>
<polygon fill="none" stroke="#000000" points="585.5,-324.7 585.5,-346.7 822.5,-346.7 822.5,-324.7 585.5,-324.7"/>
<image xlink:href="../../images/foreignKeys.png" width="11px" height="12px" preserveAspectRatio="xMinYMin meet" x="590.5" y="-341.7"/>
<text text-anchor="start" x="614.5" y="-331.8" font-family="Helvetica,sans-Serif" font-size="11.00" fill="#000000">court_appearance_id</text>
<polygon fill="#ffffff" stroke="transparent" points="585.5,-302.7 585.5,-324.7 822.5,-324.7 822.5,-302.7 585.5,-302.7"/>
<polygon fill="none" stroke="#000000" points="585.5,-302.7 585.5,-324.7 822.5,-324.7 822.5,-302.7 585.5,-302.7"/>
<image xlink:href="../../images/foreignKeys.png" width="11px" height="12px" preserveAspectRatio="xMinYMin meet" x="590.5" y="-319.7"/>
<text text-anchor="start" x="614.5" y="-309.8" font-family="Helvetica,sans-Serif" font-size="11.00" fill="#000000">person_identifier</text>
<polygon fill="none" stroke="#000000" points="585.5,-280.7 585.5,-302.7 822.5,-302.7 822.5,-280.7 585.5,-280.7"/>
<image xlink:href="../../images/foreignKeys.png" width="11px" height="12px" preserveAspectRatio="xMinYMin meet" x="590.5" y="-297.7"/>
<text text-anchor="start" x="614.5" y="-287.8" font-family="Helvetica,sans-Serif" font-size="11.00" fill="#000000">reason_id</text>
<polygon fill="#ffffff" stroke="transparent" points="585.5,-258.7 585.5,-280.7 822.5,-280.7 822.5,-258.7 585.5,-258.7"/>
<polygon fill="none" stroke="#000000" points="585.5,-258.7 585.5,-280.7 822.5,-280.7 822.5,-258.7 585.5,-258.7"/>
<text text-anchor="start" x="614.5" y="-265.8" font-family="Helvetica,sans-Serif" font-size="11.00" fill="#000000">legacy_id</text>
<polygon fill="none" stroke="#000000" points="585.5,-239.7 585.5,-258.7 822.5,-258.7 822.5,-239.7 585.5,-239.7"/>
<text text-anchor="start" x="588.5" y="-245.8" font-family="Helvetica,sans-Serif" font-size="11.00" fill="#000000">...</text>
<polygon fill="#ffffff" stroke="transparent" points="585.5,-220.7 585.5,-239.7 702.5,-239.7 702.5,-220.7 585.5,-220.7"/>
<polygon fill="none" stroke="#000000" points="585.5,-220.7 585.5,-239.7 702.5,-239.7 702.5,-220.7 585.5,-220.7"/>
<text text-anchor="start" x="588.5" y="-226.8" font-family="Helvetica,sans-Serif" font-size="11.00" fill="#000000">&lt; 3</text>
<polygon fill="#ffffff" stroke="transparent" points="702.5,-220.7 702.5,-239.7 762.5,-239.7 762.5,-220.7 702.5,-220.7"/>
<polygon fill="none" stroke="#000000" points="702.5,-220.7 702.5,-239.7 762.5,-239.7 762.5,-220.7 702.5,-220.7"/>
<text text-anchor="start" x="753.3862" y="-226.8" font-family="Helvetica,sans-Serif" font-size="11.00" fill="#000000"> &#160;</text>
<polygon fill="#ffffff" stroke="transparent" points="762.5,-220.7 762.5,-239.7 822.5,-239.7 822.5,-220.7 762.5,-220.7"/>
<polygon fill="none" stroke="#000000" points="762.5,-220.7 762.5,-239.7 822.5,-239.7 822.5,-220.7 762.5,-220.7"/>
<text text-anchor="start" x="813.3862" y="-226.8" font-family="Helvetica,sans-Serif" font-size="11.00" fill="#000000"> &#160;</text>
</a>
</g>
</g>
<!-- court_appearance_movement&#45;&gt;court_appearance -->
<g id="edge3" class="edge">
<title>court_appearance_movement:w&#45;&gt;court_appearance:e</title>
<path fill="none" stroke="#000000" d="M571.1833,-337.5757C522.3469,-351.5356 538.1661,-438.7 477,-438.7"/>
<polygon fill="#000000" stroke="#000000" points="577.5678,-336.7393 585.9677,-339.2695 581.5339,-336.2196 585.5,-335.7 585.5,-335.7 585.5,-335.7 581.5339,-336.2196 585.0323,-332.1305 577.5678,-336.7393 577.5678,-336.7393"/>
<ellipse fill="none" stroke="#000000" cx="574.3949" cy="-337.155" rx="3.2" ry="3.2"/>
</g>
<!-- court_appearance_movement&#45;&gt;person_summary -->
<g id="edge4" class="edge">
<title>court_appearance_movement:w&#45;&gt;person_summary:e</title>
<path fill="none" stroke="#000000" d="M571.3864,-309.9579C551.756,-295.8266 575.2419,-245.5083 544,-225.7 488.8225,-190.7158 305.3388,-190.9715 250,-225.7 213.2109,-248.7874 250.9335,-313.7 207.5,-313.7"/>
<polygon fill="#000000" stroke="#000000" points="577.7672,-311.6497 584.5774,-317.1798 581.6336,-312.6749 585.5,-313.7 585.5,-313.7 585.5,-313.7 581.6336,-312.6749 586.4226,-310.2202 577.7672,-311.6497 577.7672,-311.6497"/>
<ellipse fill="none" stroke="#000000" cx="574.6741" cy="-310.8296" rx="3.2" ry="3.2"/>
</g>
<!-- court_appearance_movement_audit -->
<g id="node5" class="node">
<title>court_appearance_movement_audit</title>
<g id="a_node5"><a xlink:href="../../tables/court_appearance_movement_audit.html" xlink:title="court_appearance_movement_audit" target="_top">
<polygon fill="#ffffff" stroke="transparent" points="258,-38.2 258,-187.2 536,-187.2 536,-38.2 258,-38.2"/>
<polygon fill="#f5f5f5" stroke="transparent" points="258,-163.7 258,-186.7 536,-186.7 536,-163.7 258,-163.7"/>
<polygon fill="none" stroke="#000000" points="258,-163.7 258,-186.7 536,-186.7 536,-163.7 258,-163.7"/>
<text text-anchor="start" x="263" y="-172.3" font-family="Helvetica,sans-Serif" font-weight="bold" font-size="11.00" fill="#000000">court_appearance_movement_audit</text>
<text text-anchor="start" x="501.5219" y="-171.8" font-family="Helvetica,sans-Serif" font-size="11.00" fill="#000000">[table]</text>
<polygon fill="none" stroke="#000000" points="258,-141.7 258,-163.7 536,-163.7 536,-141.7 258,-141.7"/>
<image xlink:href="../../images/primaryKeys.png" width="11px" height="12px" preserveAspectRatio="xMinYMin meet" x="263" y="-158.7"/>
<text text-anchor="start" x="287" y="-148.8" font-family="Helvetica,sans-Serif" font-size="11.00" fill="#000000">rev_id</text>
<polygon fill="none" stroke="#000000" points="258,-119.7 258,-141.7 536,-141.7 536,-119.7 258,-119.7"/>
<image xlink:href="../../images/primaryKeys.png" width="11px" height="12px" preserveAspectRatio="xMinYMin meet" x="263" y="-136.7"/>
<text text-anchor="start" x="287" y="-126.8" font-family="Helvetica,sans-Serif" font-size="11.00" fill="#000000">id</text>
<polygon fill="#ffffff" stroke="transparent" points="258,-97.7 258,-119.7 536,-119.7 536,-97.7 258,-97.7"/>
<polygon fill="none" stroke="#000000" points="258,-97.7 258,-119.7 536,-119.7 536,-97.7 258,-97.7"/>
<text text-anchor="start" x="287" y="-104.8" font-family="Helvetica,sans-Serif" font-size="11.00" fill="#000000">court_appearance_id</text>
<polygon fill="none" stroke="#000000" points="258,-75.7 258,-97.7 536,-97.7 536,-75.7 258,-75.7"/>
<image xlink:href="../../images/foreignKeys.png" width="11px" height="12px" preserveAspectRatio="xMinYMin meet" x="263" y="-92.7"/>
<text text-anchor="start" x="287" y="-82.8" font-family="Helvetica,sans-Serif" font-size="11.00" fill="#000000">person_identifier</text>
<polygon fill="none" stroke="#000000" points="258,-56.7 258,-75.7 536,-75.7 536,-56.7 258,-56.7"/>
<text text-anchor="start" x="261" y="-62.8" font-family="Helvetica,sans-Serif" font-size="11.00" fill="#000000">...</text>
<polygon fill="#ffffff" stroke="transparent" points="258,-37.7 258,-56.7 395,-56.7 395,-37.7 258,-37.7"/>
<polygon fill="none" stroke="#000000" points="258,-37.7 258,-56.7 395,-56.7 395,-37.7 258,-37.7"/>
<text text-anchor="start" x="261" y="-43.8" font-family="Helvetica,sans-Serif" font-size="11.00" fill="#000000">&lt; 2</text>
<polygon fill="#ffffff" stroke="transparent" points="395,-37.7 395,-56.7 465,-56.7 465,-37.7 395,-37.7"/>
<polygon fill="none" stroke="#000000" points="395,-37.7 395,-56.7 465,-56.7 465,-37.7 395,-37.7"/>
<text text-anchor="start" x="455.8862" y="-43.8" font-family="Helvetica,sans-Serif" font-size="11.00" fill="#000000"> &#160;</text>
<polygon fill="#ffffff" stroke="transparent" points="465,-37.7 465,-56.7 536,-56.7 536,-37.7 465,-37.7"/>
<polygon fill="none" stroke="#000000" points="465,-37.7 465,-56.7 536,-56.7 536,-37.7 465,-37.7"/>
<text text-anchor="start" x="526.8862" y="-43.8" font-family="Helvetica,sans-Serif" font-size="11.00" fill="#000000"> &#160;</text>
</a>
</g>
</g>
<!-- court_appearance_movement_audit&#45;&gt;person_summary -->
<g id="edge5" class="edge">
<title>court_appearance_movement_audit:w&#45;&gt;person_summary:e</title>
<path fill="none" stroke="#000000" stroke-dasharray="5,2" d="M243.2872,-88.6624C170.9539,-110.8492 305.2031,-313.7 207.5,-313.7"/>
<polygon fill="#000000" stroke="#000000" points="250.0702,-87.7577 258.476,-90.2684 254.0351,-87.2289 258,-86.7 258,-86.7 258,-86.7 254.0351,-87.2289 257.524,-83.1316 250.0702,-87.7577 250.0702,-87.7577"/>
<ellipse fill="none" stroke="#000000" cx="246.8983" cy="-88.1808" rx="3.2" ry="3.2"/>
</g>
</g>
</svg>
