<?xml version="1.0" encoding="UTF-8" standalone="no"?>
<!DOCTYPE svg PUBLIC "-//W3C//DTD SVG 1.1//EN"
 "http://www.w3.org/Graphics/SVG/1.1/DTD/svg11.dtd">
<!-- Generated by graphviz version 2.40.1 (20161225.0304)
 -->
<!-- Title: twoDegreesRelationshipsDiagramImplied Pages: 1 -->
<svg width="848pt" height="589pt"
 viewBox="0.00 0.00 848.00 589.20" xmlns="http://www.w3.org/2000/svg" xmlns:xlink="http://www.w3.org/1999/xlink">
<g id="graph0" class="graph" transform="scale(1 1) rotate(0) translate(4 585.2)">
<title>twoDegreesRelationshipsDiagramImplied</title>
<polygon fill="#ffffff" stroke="transparent" points="-4,4 -4,-585.2 844,-585.2 844,4 -4,4"/>
<text text-anchor="middle" x="72.4936" y="-7.3" font-family="Helvetica,sans-Serif" font-size="11.00" fill="#000000">Generated by SchemaSpy</text>
<!-- court_appearance -->
<g id="node1" class="node">
<title>court_appearance</title>
<g id="a_node1"><a xlink:href="../../tables/court_appearance.html" xlink:title="court_appearance" target="_top">
<polygon fill="#ffffff" stroke="transparent" points="327.5,-170.2 327.5,-231.2 486.5,-231.2 486.5,-170.2 327.5,-170.2"/>
<polygon fill="#f5f5f5" stroke="transparent" points="328,-207.7 328,-230.7 487,-230.7 487,-207.7 328,-207.7"/>
<polygon fill="none" stroke="#000000" points="328,-207.7 328,-230.7 487,-230.7 487,-207.7 328,-207.7"/>
<text text-anchor="start" x="333" y="-216.3" font-family="Helvetica,sans-Serif" font-weight="bold" font-size="11.00" fill="#000000">court_appearance</text>
<text text-anchor="start" x="452.5219" y="-215.8" font-family="Helvetica,sans-Serif" font-size="11.00" fill="#000000">[table]</text>
<polygon fill="none" stroke="#000000" points="328,-188.7 328,-207.7 487,-207.7 487,-188.7 328,-188.7"/>
<text text-anchor="start" x="331" y="-194.8" font-family="Helvetica,sans-Serif" font-size="11.00" fill="#000000">...</text>
<polygon fill="#ffffff" stroke="transparent" points="328,-169.7 328,-188.7 401,-188.7 401,-169.7 328,-169.7"/>
<polygon fill="none" stroke="#000000" points="328,-169.7 328,-188.7 401,-188.7 401,-169.7 328,-169.7"/>
<text text-anchor="start" x="331" y="-175.8" font-family="Helvetica,sans-Serif" font-size="11.00" fill="#000000">&lt; 4</text>
<polygon fill="#ffffff" stroke="transparent" points="401,-169.7 401,-188.7 439,-188.7 439,-169.7 401,-169.7"/>
<polygon fill="none" stroke="#000000" points="401,-169.7 401,-188.7 439,-188.7 439,-169.7 401,-169.7"/>
<text text-anchor="start" x="429.8862" y="-175.8" font-family="Helvetica,sans-Serif" font-size="11.00" fill="#000000"> &#160;</text>
<polygon fill="#ffffff" stroke="transparent" points="439,-169.7 439,-188.7 487,-188.7 487,-169.7 439,-169.7"/>
<polygon fill="none" stroke="#000000" points="439,-169.7 439,-188.7 487,-188.7 487,-169.7 439,-169.7"/>
<text text-anchor="start" x="468.4053" y="-175.8" font-family="Helvetica,sans-Serif" font-size="11.00" fill="#000000">1 &gt;</text>
</a>
</g>
</g>
<!-- audit_revision -->
<g id="node2" class="node">
<title>audit_revision</title>
<g id="a_node2"><a xlink:href="../../tables/audit_revision.html" xlink:title="audit_revision" target="_top">
<polygon fill="#ffffff" stroke="transparent" points="46.5,-433.2 46.5,-494.2 180.5,-494.2 180.5,-433.2 46.5,-433.2"/>
<polygon fill="#f5f5f5" stroke="transparent" points="46.5,-470.7 46.5,-493.7 180.5,-493.7 180.5,-470.7 46.5,-470.7"/>
<polygon fill="none" stroke="#000000" points="46.5,-470.7 46.5,-493.7 180.5,-493.7 180.5,-470.7 46.5,-470.7"/>
<text text-anchor="start" x="51.5" y="-479.3" font-family="Helvetica,sans-Serif" font-weight="bold" font-size="11.00" fill="#000000">audit_revision</text>
<text text-anchor="start" x="146.0219" y="-478.8" font-family="Helvetica,sans-Serif" font-size="11.00" fill="#000000">[table]</text>
<polygon fill="none" stroke="#000000" points="46.5,-451.7 46.5,-470.7 180.5,-470.7 180.5,-451.7 46.5,-451.7"/>
<text text-anchor="start" x="49.5" y="-457.8" font-family="Helvetica,sans-Serif" font-size="11.00" fill="#000000">...</text>
<polygon fill="#ffffff" stroke="transparent" points="46.5,-432.7 46.5,-451.7 102.5,-451.7 102.5,-432.7 46.5,-432.7"/>
<polygon fill="none" stroke="#000000" points="46.5,-432.7 46.5,-451.7 102.5,-451.7 102.5,-432.7 46.5,-432.7"/>
<text text-anchor="start" x="49.5" y="-438.8" font-family="Helvetica,sans-Serif" font-size="11.00" fill="#000000"> &#160;</text>
<polygon fill="#ffffff" stroke="transparent" points="102.5,-432.7 102.5,-451.7 136.5,-451.7 136.5,-432.7 102.5,-432.7"/>
<polygon fill="none" stroke="#000000" points="102.5,-432.7 102.5,-451.7 136.5,-451.7 136.5,-432.7 102.5,-432.7"/>
<text text-anchor="start" x="127.3862" y="-438.8" font-family="Helvetica,sans-Serif" font-size="11.00" fill="#000000"> &#160;</text>
<polygon fill="#ffffff" stroke="transparent" points="136.5,-432.7 136.5,-451.7 180.5,-451.7 180.5,-432.7 136.5,-432.7"/>
<polygon fill="none" stroke="#000000" points="136.5,-432.7 136.5,-451.7 180.5,-451.7 180.5,-432.7 136.5,-432.7"/>
<text text-anchor="start" x="161.9053" y="-438.8" font-family="Helvetica,sans-Serif" font-size="11.00" fill="#000000">4 &gt;</text>
</a>
</g>
</g>
<!-- court_appearance&#45;&gt;audit_revision -->
<g id="edge1" class="edge">
<title>court_appearance:w&#45;&gt;audit_revision:e</title>
<path fill="none" stroke="#000000" stroke-dasharray="5,2" d="M309.7532,-231.6719C291.1404,-241.3547 273.331,-253.8102 260,-269.7 200.902,-340.1414 272.4487,-460.7 180.5,-460.7"/>
<polygon fill="#000000" stroke="#000000" points="316.7526,-223.7639 320.2885,-230.9401 318.8533,-231.6472 315.3174,-224.4711 316.7526,-223.7639"/>
<polyline fill="none" stroke="#000000" points="319.2382,-226.9984 315.6501,-228.7663 "/>
<ellipse fill="none" stroke="#000000" cx="312.7796" cy="-230.1807" rx="3.2" ry="3.2"/>
</g>
<!-- person_summary -->
<g id="node3" class="node">
<title>person_summary</title>
<g id="a_node3"><a xlink:href="../../tables/person_summary.html" xlink:title="person_summary" target="_top">
<polygon fill="#ffffff" stroke="transparent" points="13,-202.7 13,-380.7 214,-380.7 214,-202.7 13,-202.7"/>
<polygon fill="#f5f5f5" stroke="transparent" points="15.5,-355.7 15.5,-378.7 212.5,-378.7 212.5,-355.7 15.5,-355.7"/>
<polygon fill="none" stroke="#000000" points="15.5,-355.7 15.5,-378.7 212.5,-378.7 212.5,-355.7 15.5,-355.7"/>
<text text-anchor="start" x="20.5" y="-364.3" font-family="Helvetica,sans-Serif" font-weight="bold" font-size="11.00" fill="#000000">person_summary</text>
<text text-anchor="start" x="177.5437" y="-363.8" font-family="Helvetica,sans-Serif" font-size="11.00" fill="#000000">[table]</text>
<polygon fill="none" stroke="#000000" points="15.5,-333.7 15.5,-355.7 151.5,-355.7 151.5,-333.7 15.5,-333.7"/>
<image xlink:href="../../images/primaryKeys.png" width="11px" height="12px" preserveAspectRatio="xMinYMin meet" x="20.5" y="-350.7"/>
<text text-anchor="start" x="35.5" y="-340.8" font-family="Helvetica,sans-Serif" font-size="11.00" fill="#000000">person_identifier</text>
<polygon fill="none" stroke="#000000" points="151.5,-333.7 151.5,-355.7 212.5,-355.7 212.5,-333.7 151.5,-333.7"/>
<text text-anchor="start" x="154.494" y="-341.4" font-family="Helvetica,sans-Serif" font-size="11.00" fill="#000000">varchar[10]</text>
<polygon fill="none" stroke="#000000" points="15.5,-311.7 15.5,-333.7 151.5,-333.7 151.5,-311.7 15.5,-311.7"/>
<text text-anchor="start" x="35.5" y="-318.8" font-family="Helvetica,sans-Serif" font-size="11.00" fill="#000000">version</text>
<polygon fill="none" stroke="#000000" points="151.5,-311.7 151.5,-333.7 212.5,-333.7 212.5,-311.7 151.5,-311.7"/>
<text text-anchor="start" x="154.5" y="-319.4" font-family="Helvetica,sans-Serif" font-size="11.00" fill="#000000">int4[10]</text>
<polygon fill="none" stroke="#000000" points="15.5,-289.7 15.5,-311.7 151.5,-311.7 151.5,-289.7 15.5,-289.7"/>
<text text-anchor="start" x="35.5" y="-296.8" font-family="Helvetica,sans-Serif" font-size="11.00" fill="#000000">first_name</text>
<polygon fill="none" stroke="#000000" points="151.5,-289.7 151.5,-311.7 212.5,-311.7 212.5,-289.7 151.5,-289.7"/>
<text text-anchor="start" x="154.494" y="-297.4" font-family="Helvetica,sans-Serif" font-size="11.00" fill="#000000">varchar[64]</text>
<polygon fill="none" stroke="#000000" points="15.5,-267.7 15.5,-289.7 151.5,-289.7 151.5,-267.7 15.5,-267.7"/>
<text text-anchor="start" x="35.5" y="-274.8" font-family="Helvetica,sans-Serif" font-size="11.00" fill="#000000">last_name</text>
<polygon fill="none" stroke="#000000" points="151.5,-267.7 151.5,-289.7 212.5,-289.7 212.5,-267.7 151.5,-267.7"/>
<text text-anchor="start" x="154.494" y="-275.4" font-family="Helvetica,sans-Serif" font-size="11.00" fill="#000000">varchar[64]</text>
<polygon fill="none" stroke="#000000" points="15.5,-245.7 15.5,-267.7 151.5,-267.7 151.5,-245.7 15.5,-245.7"/>
<text text-anchor="start" x="35.5" y="-252.8" font-family="Helvetica,sans-Serif" font-size="11.00" fill="#000000">prison_code</text>
<polygon fill="none" stroke="#000000" points="151.5,-245.7 151.5,-267.7 212.5,-267.7 212.5,-245.7 151.5,-245.7"/>
<text text-anchor="start" x="154.5" y="-253.4" font-family="Helvetica,sans-Serif" font-size="11.00" fill="#000000">varchar[6]</text>
<polygon fill="none" stroke="#000000" points="15.5,-223.7 15.5,-245.7 151.5,-245.7 151.5,-223.7 15.5,-223.7"/>
<text text-anchor="start" x="35.5" y="-230.8" font-family="Helvetica,sans-Serif" font-size="11.00" fill="#000000">cell_location</text>
<polygon fill="none" stroke="#000000" points="151.5,-223.7 151.5,-245.7 212.5,-245.7 212.5,-223.7 151.5,-223.7"/>
<text text-anchor="start" x="154.494" y="-231.4" font-family="Helvetica,sans-Serif" font-size="11.00" fill="#000000">varchar[64]</text>
<polygon fill="#ffffff" stroke="transparent" points="15.5,-204.7 15.5,-223.7 87.5,-223.7 87.5,-204.7 15.5,-204.7"/>
<polygon fill="none" stroke="#000000" points="15.5,-204.7 15.5,-223.7 87.5,-223.7 87.5,-204.7 15.5,-204.7"/>
<text text-anchor="start" x="18.5" y="-210.8" font-family="Helvetica,sans-Serif" font-size="11.00" fill="#000000">&lt; 0</text>
<polygon fill="#ffffff" stroke="transparent" points="87.5,-204.7 87.5,-223.7 151.5,-223.7 151.5,-204.7 87.5,-204.7"/>
<polygon fill="none" stroke="#000000" points="87.5,-204.7 87.5,-223.7 151.5,-223.7 151.5,-204.7 87.5,-204.7"/>
<text text-anchor="start" x="142.3862" y="-210.8" font-family="Helvetica,sans-Serif" font-size="11.00" fill="#000000"> &#160;</text>
<polygon fill="#ffffff" stroke="transparent" points="151.5,-204.7 151.5,-223.7 212.5,-223.7 212.5,-204.7 151.5,-204.7"/>
<polygon fill="none" stroke="#000000" points="151.5,-204.7 151.5,-223.7 212.5,-223.7 212.5,-204.7 151.5,-204.7"/>
<text text-anchor="start" x="193.9053" y="-210.8" font-family="Helvetica,sans-Serif" font-size="11.00" fill="#000000">4 &gt;</text>
<polygon fill="none" stroke="#000000" stroke-width="2" points="14,-203.7 14,-379.7 213,-379.7 213,-203.7 14,-203.7"/>
</a>
</g>
</g>
<!-- court_appearance&#45;&gt;person_summary -->
<g id="edge2" class="edge">
<title>court_appearance:w&#45;&gt;person_summary:e</title>
<path fill="none" stroke="#000000" d="M305.4652,-219.6257C289.0277,-225.9606 273.1219,-234.4156 260,-245.7 222.9981,-277.5204 261.3024,-344.7 212.5,-344.7"/>
<polygon fill="#000000" stroke="#000000" points="311.7939,-217.4202 320.5331,-218.187 315.5711,-216.1038 319.3483,-214.7875 319.3483,-214.7875 319.3483,-214.7875 315.5711,-216.1038 318.1636,-211.388 311.7939,-217.4202 311.7939,-217.4202"/>
<ellipse fill="none" stroke="#000000" cx="308.7722" cy="-218.4733" rx="3.2" ry="3.2"/>
</g>
<!-- court_appearance_reason -->
<g id="node4" class="node">
<title>court_appearance_reason</title>
<g id="a_node4"><a xlink:href="../../tables/court_appearance_reason.html" xlink:title="court_appearance_reason" target="_top">
<polygon fill="#ffffff" stroke="transparent" points="8,-120.2 8,-181.2 219,-181.2 219,-120.2 8,-120.2"/>
<polygon fill="#f5f5f5" stroke="transparent" points="8.5,-157.7 8.5,-180.7 219.5,-180.7 219.5,-157.7 8.5,-157.7"/>
<polygon fill="none" stroke="#000000" points="8.5,-157.7 8.5,-180.7 219.5,-180.7 219.5,-157.7 8.5,-157.7"/>
<text text-anchor="start" x="13.5" y="-166.3" font-family="Helvetica,sans-Serif" font-weight="bold" font-size="11.00" fill="#000000">court_appearance_reason</text>
<text text-anchor="start" x="185.0219" y="-165.8" font-family="Helvetica,sans-Serif" font-size="11.00" fill="#000000">[table]</text>
<polygon fill="none" stroke="#000000" points="8.5,-138.7 8.5,-157.7 219.5,-157.7 219.5,-138.7 8.5,-138.7"/>
<text text-anchor="start" x="11.5" y="-144.8" font-family="Helvetica,sans-Serif" font-size="11.00" fill="#000000">...</text>
<polygon fill="#ffffff" stroke="transparent" points="8.5,-119.7 8.5,-138.7 103.5,-138.7 103.5,-119.7 8.5,-119.7"/>
<polygon fill="none" stroke="#000000" points="8.5,-119.7 8.5,-138.7 103.5,-138.7 103.5,-119.7 8.5,-119.7"/>
<text text-anchor="start" x="11.5" y="-125.8" font-family="Helvetica,sans-Serif" font-size="11.00" fill="#000000"> &#160;</text>
<polygon fill="#ffffff" stroke="transparent" points="103.5,-119.7 103.5,-138.7 156.5,-138.7 156.5,-119.7 103.5,-119.7"/>
<polygon fill="none" stroke="#000000" points="103.5,-119.7 103.5,-138.7 156.5,-138.7 156.5,-119.7 103.5,-119.7"/>
<text text-anchor="start" x="147.3862" y="-125.8" font-family="Helvetica,sans-Serif" font-size="11.00" fill="#000000"> &#160;</text>
<polygon fill="#ffffff" stroke="transparent" points="156.5,-119.7 156.5,-138.7 219.5,-138.7 219.5,-119.7 156.5,-119.7"/>
<polygon fill="none" stroke="#000000" points="156.5,-119.7 156.5,-138.7 219.5,-138.7 219.5,-119.7 156.5,-119.7"/>
<text text-anchor="start" x="200.9053" y="-125.8" font-family="Helvetica,sans-Serif" font-size="11.00" fill="#000000">1 &gt;</text>
</a>
</g>
</g>
<!-- court_appearance&#45;&gt;court_appearance_reason -->
<g id="edge3" class="edge">
<title>court_appearance:w&#45;&gt;court_appearance_reason:e</title>
<path fill="none" stroke="#000000" d="M308.0585,-161.8557C279.8904,-153.7973 248.8725,-147.7 219.5,-147.7"/>
<polygon fill="#000000" stroke="#000000" points="314.4115,-163.7747 321.0288,-169.5343 318.2407,-164.9314 322.0698,-166.0881 322.0698,-166.0881 322.0698,-166.0881 318.2407,-164.9314 323.1108,-162.6419 314.4115,-163.7747 314.4115,-163.7747"/>
<ellipse fill="none" stroke="#000000" cx="311.3483" cy="-162.8494" rx="3.2" ry="3.2"/>
</g>
<!-- court_appearance_status -->
<g id="node5" class="node">
<title>court_appearance_status</title>
<g id="a_node5"><a xlink:href="../../tables/court_appearance_status.html" xlink:title="court_appearance_status" target="_top">
<polygon fill="#ffffff" stroke="transparent" points="9.5,-38.2 9.5,-99.2 217.5,-99.2 217.5,-38.2 9.5,-38.2"/>
<polygon fill="#f5f5f5" stroke="transparent" points="9.5,-75.7 9.5,-98.7 217.5,-98.7 217.5,-75.7 9.5,-75.7"/>
<polygon fill="none" stroke="#000000" points="9.5,-75.7 9.5,-98.7 217.5,-98.7 217.5,-75.7 9.5,-75.7"/>
<text text-anchor="start" x="14.5" y="-84.3" font-family="Helvetica,sans-Serif" font-weight="bold" font-size="11.00" fill="#000000">court_appearance_status</text>
<text text-anchor="start" x="183.0219" y="-83.8" font-family="Helvetica,sans-Serif" font-size="11.00" fill="#000000">[table]</text>
<polygon fill="none" stroke="#000000" points="9.5,-56.7 9.5,-75.7 217.5,-75.7 217.5,-56.7 9.5,-56.7"/>
<text text-anchor="start" x="12.5" y="-62.8" font-family="Helvetica,sans-Serif" font-size="11.00" fill="#000000">...</text>
<polygon fill="#ffffff" stroke="transparent" points="9.5,-37.7 9.5,-56.7 102.5,-56.7 102.5,-37.7 9.5,-37.7"/>
<polygon fill="none" stroke="#000000" points="9.5,-37.7 9.5,-56.7 102.5,-56.7 102.5,-37.7 9.5,-37.7"/>
<text text-anchor="start" x="12.5" y="-43.8" font-family="Helvetica,sans-Serif" font-size="11.00" fill="#000000"> &#160;</text>
<polygon fill="#ffffff" stroke="transparent" points="102.5,-37.7 102.5,-56.7 155.5,-56.7 155.5,-37.7 102.5,-37.7"/>
<polygon fill="none" stroke="#000000" points="102.5,-37.7 102.5,-56.7 155.5,-56.7 155.5,-37.7 102.5,-37.7"/>
<text text-anchor="start" x="146.3862" y="-43.8" font-family="Helvetica,sans-Serif" font-size="11.00" fill="#000000"> &#160;</text>
<polygon fill="#ffffff" stroke="transparent" points="155.5,-37.7 155.5,-56.7 217.5,-56.7 217.5,-37.7 155.5,-37.7"/>
<polygon fill="none" stroke="#000000" points="155.5,-37.7 155.5,-56.7 217.5,-56.7 217.5,-37.7 155.5,-37.7"/>
<text text-anchor="start" x="198.9053" y="-43.8" font-family="Helvetica,sans-Serif" font-size="11.00" fill="#000000">1 &gt;</text>
</a>
</g>
</g>
<!-- court_appearance&#45;&gt;court_appearance_status -->
<g id="edge4" class="edge">
<title>court_appearance:w&#45;&gt;court_appearance_status:e</title>
<path fill="none" stroke="#000000" d="M371.6703,-154.9731C337.0775,-115.8118 280.5029,-65.7 217.5,-65.7"/>
<polygon fill="#000000" stroke="#000000" points="375.8446,-159.8542 378.3082,-168.2739 378.4444,-162.8942 381.0441,-165.9341 381.0441,-165.9341 381.0441,-165.9341 378.4444,-162.8942 383.7801,-163.5944 375.8446,-159.8542 375.8446,-159.8542"/>
<ellipse fill="none" stroke="#000000" cx="373.7648" cy="-157.4223" rx="3.2" ry="3.2"/>
</g>
<!-- court_appearance_audit -->
<g id="node6" class="node">
<title>court_appearance_audit</title>
<g id="a_node6"><a xlink:href="../../tables/court_appearance_audit.html" xlink:title="court_appearance_audit" target="_top">
<polygon fill="#ffffff" stroke="transparent" points="307,-428.2 307,-577.2 507,-577.2 507,-428.2 307,-428.2"/>
<polygon fill="#f5f5f5" stroke="transparent" points="307,-553.7 307,-576.7 507,-576.7 507,-553.7 307,-553.7"/>
<polygon fill="none" stroke="#000000" points="307,-553.7 307,-576.7 507,-576.7 507,-553.7 307,-553.7"/>
<text text-anchor="start" x="312" y="-562.3" font-family="Helvetica,sans-Serif" font-weight="bold" font-size="11.00" fill="#000000">court_appearance_audit</text>
<text text-anchor="start" x="472.5219" y="-561.8" font-family="Helvetica,sans-Serif" font-size="11.00" fill="#000000">[table]</text>
<polygon fill="none" stroke="#000000" points="307,-531.7 307,-553.7 507,-553.7 507,-531.7 307,-531.7"/>
<image xlink:href="../../images/primaryKeys.png" width="11px" height="12px" preserveAspectRatio="xMinYMin meet" x="312" y="-548.7"/>
<text text-anchor="start" x="336" y="-538.8" font-family="Helvetica,sans-Serif" font-size="11.00" fill="#000000">rev_id</text>
<polygon fill="none" stroke="#000000" points="307,-509.7 307,-531.7 507,-531.7 507,-509.7 307,-509.7"/>
<image xlink:href="../../images/primaryKeys.png" width="11px" height="12px" preserveAspectRatio="xMinYMin meet" x="312" y="-526.7"/>
<text text-anchor="start" x="336" y="-516.8" font-family="Helvetica,sans-Serif" font-size="11.00" fill="#000000">id</text>
<polygon fill="none" stroke="#000000" points="307,-487.7 307,-509.7 507,-509.7 507,-487.7 307,-487.7"/>
<image xlink:href="../../images/foreignKeys.png" width="11px" height="12px" preserveAspectRatio="xMinYMin meet" x="312" y="-504.7"/>
<text text-anchor="start" x="336" y="-494.8" font-family="Helvetica,sans-Serif" font-size="11.00" fill="#000000">person_identifier</text>
<polygon fill="none" stroke="#000000" points="307,-465.7 307,-487.7 507,-487.7 507,-465.7 307,-465.7"/>
<image xlink:href="../../images/foreignKeys.png" width="11px" height="12px" preserveAspectRatio="xMinYMin meet" x="312" y="-482.7"/>
<text text-anchor="start" x="336" y="-472.8" font-family="Helvetica,sans-Serif" font-size="11.00" fill="#000000">legacy_id</text>
<polygon fill="none" stroke="#000000" points="307,-446.7 307,-465.7 507,-465.7 507,-446.7 307,-446.7"/>
<text text-anchor="start" x="310" y="-452.8" font-family="Helvetica,sans-Serif" font-size="11.00" fill="#000000">...</text>
<polygon fill="#ffffff" stroke="transparent" points="307,-427.7 307,-446.7 405,-446.7 405,-427.7 307,-427.7"/>
<polygon fill="none" stroke="#000000" points="307,-427.7 307,-446.7 405,-446.7 405,-427.7 307,-427.7"/>
<text text-anchor="start" x="310" y="-433.8" font-family="Helvetica,sans-Serif" font-size="11.00" fill="#000000">&lt; 3</text>
<polygon fill="#ffffff" stroke="transparent" points="405,-427.7 405,-446.7 456,-446.7 456,-427.7 405,-427.7"/>
<polygon fill="none" stroke="#000000" points="405,-427.7 405,-446.7 456,-446.7 456,-427.7 405,-427.7"/>
<text text-anchor="start" x="446.8862" y="-433.8" font-family="Helvetica,sans-Serif" font-size="11.00" fill="#000000"> &#160;</text>
<polygon fill="#ffffff" stroke="transparent" points="456,-427.7 456,-446.7 507,-446.7 507,-427.7 456,-427.7"/>
<polygon fill="none" stroke="#000000" points="456,-427.7 456,-446.7 507,-446.7 507,-427.7 456,-427.7"/>
<text text-anchor="start" x="497.8862" y="-433.8" font-family="Helvetica,sans-Serif" font-size="11.00" fill="#000000"> &#160;</text>
</a>
</g>
</g>
<!-- court_appearance_audit&#45;&gt;audit_revision -->
<g id="edge5" class="edge">
<title>court_appearance_audit:w&#45;&gt;audit_revision:e</title>
<path fill="none" stroke="#000000" stroke-dasharray="5,2" d="M292.4262,-476.3203C247.5472,-473.8973 231.968,-460.7 180.5,-460.7"/>
<polygon fill="#000000" stroke="#000000" points="299.0027,-476.4916 306.9062,-480.2988 303.0014,-476.5958 307,-476.7 307,-476.7 307,-476.7 303.0014,-476.5958 307.0938,-473.1012 299.0027,-476.4916 299.0027,-476.4916"/>
<ellipse fill="none" stroke="#000000" cx="295.8038" cy="-476.4082" rx="3.2" ry="3.2"/>
</g>
<!-- court_appearance_audit&#45;&gt;audit_revision -->
<g id="edge7" class="edge">
<title>court_appearance_audit:w&#45;&gt;audit_revision:e</title>
<path fill="none" stroke="#000000" d="M292.5898,-541.2767C240.7164,-530.388 242.2666,-460.7 180.5,-460.7"/>
<polygon fill="#000000" stroke="#000000" points="299.0387,-541.9136 306.6461,-546.2826 303.0194,-542.3068 307,-542.7 307,-542.7 307,-542.7 303.0194,-542.3068 307.3539,-539.1174 299.0387,-541.9136 299.0387,-541.9136"/>
<ellipse fill="none" stroke="#000000" cx="295.8542" cy="-541.5991" rx="3.2" ry="3.2"/>
</g>
<!-- court_appearance_audit&#45;&gt;person_summary -->
<g id="edge6" class="edge">
<title>court_appearance_audit:w&#45;&gt;person_summary:e</title>
<path fill="none" stroke="#000000" stroke-dasharray="5,2" d="M292.4905,-496.6395C235.0504,-478.365 287.3139,-344.7 212.5,-344.7"/>
<polygon fill="#000000" stroke="#000000" points="299.0795,-497.5751 306.4938,-502.2642 303.0397,-498.1376 307,-498.7 307,-498.7 307,-498.7 303.0397,-498.1376 307.5062,-495.1358 299.0795,-497.5751 299.0795,-497.5751"/>
<ellipse fill="none" stroke="#000000" cx="295.9113" cy="-497.1252" rx="3.2" ry="3.2"/>
</g>
<!-- court_appearance_movement -->
<g id="node7" class="node">
<title>court_appearance_movement</title>
<g id="a_node7"><a xlink:href="../../tables/court_appearance_movement.html" xlink:title="court_appearance_movement" target="_top">
<polygon fill="#ffffff" stroke="transparent" points="595,-197.2 595,-258.2 832,-258.2 832,-197.2 595,-197.2"/>
<polygon fill="#f5f5f5" stroke="transparent" points="595.5,-234.7 595.5,-257.7 832.5,-257.7 832.5,-234.7 595.5,-234.7"/>
<polygon fill="none" stroke="#000000" points="595.5,-234.7 595.5,-257.7 832.5,-257.7 832.5,-234.7 595.5,-234.7"/>
<text text-anchor="start" x="600.5" y="-243.3" font-family="Helvetica,sans-Serif" font-weight="bold" font-size="11.00" fill="#000000">court_appearance_movement</text>
<text text-anchor="start" x="798.0219" y="-242.8" font-family="Helvetica,sans-Serif" font-size="11.00" fill="#000000">[table]</text>
<polygon fill="none" stroke="#000000" points="595.5,-215.7 595.5,-234.7 832.5,-234.7 832.5,-215.7 595.5,-215.7"/>
<text text-anchor="start" x="598.5" y="-221.8" font-family="Helvetica,sans-Serif" font-size="11.00" fill="#000000">...</text>
<polygon fill="#ffffff" stroke="transparent" points="595.5,-196.7 595.5,-215.7 712.5,-215.7 712.5,-196.7 595.5,-196.7"/>
<polygon fill="none" stroke="#000000" points="595.5,-196.7 595.5,-215.7 712.5,-215.7 712.5,-196.7 595.5,-196.7"/>
<text text-anchor="start" x="598.5" y="-202.8" font-family="Helvetica,sans-Serif" font-size="11.00" fill="#000000">&lt; 2</text>
<polygon fill="#ffffff" stroke="transparent" points="712.5,-196.7 712.5,-215.7 772.5,-215.7 772.5,-196.7 712.5,-196.7"/>
<polygon fill="none" stroke="#000000" points="712.5,-196.7 712.5,-215.7 772.5,-215.7 772.5,-196.7 712.5,-196.7"/>
<text text-anchor="start" x="763.3862" y="-202.8" font-family="Helvetica,sans-Serif" font-size="11.00" fill="#000000"> &#160;</text>
<polygon fill="#ffffff" stroke="transparent" points="772.5,-196.7 772.5,-215.7 832.5,-215.7 832.5,-196.7 772.5,-196.7"/>
<polygon fill="none" stroke="#000000" points="772.5,-196.7 772.5,-215.7 832.5,-215.7 832.5,-196.7 772.5,-196.7"/>
<text text-anchor="start" x="823.3862" y="-202.8" font-family="Helvetica,sans-Serif" font-size="11.00" fill="#000000"> &#160;</text>
</a>
</g>
</g>
<!-- court_appearance_movement&#45;&gt;court_appearance -->
<g id="edge8" class="edge">
<title>court_appearance_movement:w&#45;&gt;court_appearance:e</title>
<path fill="none" stroke="#000000" d="M572.0208,-215.2369C545.6152,-212.9108 518.7408,-210.5434 494.5582,-208.4131"/>
<polygon fill="#000000" stroke="#000000" points="578.6531,-215.8211 586.3063,-220.1093 582.6377,-216.1721 586.6223,-216.5232 586.6223,-216.5232 586.6223,-216.5232 582.6377,-216.1721 586.9382,-212.9371 578.6531,-215.8211 578.6531,-215.8211"/>
<ellipse fill="none" stroke="#000000" cx="575.4655" cy="-215.5403" rx="3.2" ry="3.2"/>
</g>
<!-- court_appearance_movement&#45;&gt;person_summary -->
<g id="edge9" class="edge">
<title>court_appearance_movement:w&#45;&gt;person_summary:e</title>
<path fill="none" stroke="#000000" d="M572.2184,-240.4183C439.7505,-252.3975 261.6923,-268.6641 260,-269.7 226.348,-290.2993 251.9562,-344.7 212.5,-344.7"/>
<polygon fill="#000000" stroke="#000000" points="578.9446,-239.8104 587.2362,-242.6755 582.9284,-239.4503 586.9121,-239.0902 586.9121,-239.0902 586.9121,-239.0902 582.9284,-239.4503 586.588,-235.5048 578.9446,-239.8104 578.9446,-239.8104"/>
<ellipse fill="none" stroke="#000000" cx="575.7576" cy="-240.0984" rx="3.2" ry="3.2"/>
</g>
<!-- court_appearance_movement_audit -->
<g id="node8" class="node">
<title>court_appearance_movement_audit</title>
<g id="a_node8"><a xlink:href="../../tables/court_appearance_movement_audit.html" xlink:title="court_appearance_movement_audit" target="_top">
<polygon fill="#ffffff" stroke="transparent" points="268,-280.2 268,-407.2 546,-407.2 546,-280.2 268,-280.2"/>
<polygon fill="#f5f5f5" stroke="transparent" points="268,-383.7 268,-406.7 546,-406.7 546,-383.7 268,-383.7"/>
<polygon fill="none" stroke="#000000" points="268,-383.7 268,-406.7 546,-406.7 546,-383.7 268,-383.7"/>
<text text-anchor="start" x="273" y="-392.3" font-family="Helvetica,sans-Serif" font-weight="bold" font-size="11.00" fill="#000000">court_appearance_movement_audit</text>
<text text-anchor="start" x="511.5219" y="-391.8" font-family="Helvetica,sans-Serif" font-size="11.00" fill="#000000">[table]</text>
<polygon fill="none" stroke="#000000" points="268,-361.7 268,-383.7 546,-383.7 546,-361.7 268,-361.7"/>
<image xlink:href="../../images/primaryKeys.png" width="11px" height="12px" preserveAspectRatio="xMinYMin meet" x="273" y="-378.7"/>
<text text-anchor="start" x="297" y="-368.8" font-family="Helvetica,sans-Serif" font-size="11.00" fill="#000000">rev_id</text>
<polygon fill="none" stroke="#000000" points="268,-339.7 268,-361.7 546,-361.7 546,-339.7 268,-339.7"/>
<image xlink:href="../../images/primaryKeys.png" width="11px" height="12px" preserveAspectRatio="xMinYMin meet" x="273" y="-356.7"/>
<text text-anchor="start" x="297" y="-346.8" font-family="Helvetica,sans-Serif" font-size="11.00" fill="#000000">id</text>
<polygon fill="none" stroke="#000000" points="268,-317.7 268,-339.7 546,-339.7 546,-317.7 268,-317.7"/>
<image xlink:href="../../images/foreignKeys.png" width="11px" height="12px" preserveAspectRatio="xMinYMin meet" x="273" y="-334.7"/>
<text text-anchor="start" x="297" y="-324.8" font-family="Helvetica,sans-Serif" font-size="11.00" fill="#000000">person_identifier</text>
<polygon fill="none" stroke="#000000" points="268,-298.7 268,-317.7 546,-317.7 546,-298.7 268,-298.7"/>
<text text-anchor="start" x="271" y="-304.8" font-family="Helvetica,sans-Serif" font-size="11.00" fill="#000000">...</text>
<polygon fill="#ffffff" stroke="transparent" points="268,-279.7 268,-298.7 405,-298.7 405,-279.7 268,-279.7"/>
<polygon fill="none" stroke="#000000" points="268,-279.7 268,-298.7 405,-298.7 405,-279.7 268,-279.7"/>
<text text-anchor="start" x="271" y="-285.8" font-family="Helvetica,sans-Serif" font-size="11.00" fill="#000000">&lt; 2</text>
<polygon fill="#ffffff" stroke="transparent" points="405,-279.7 405,-298.7 475,-298.7 475,-279.7 405,-279.7"/>
<polygon fill="none" stroke="#000000" points="405,-279.7 405,-298.7 475,-298.7 475,-279.7 405,-279.7"/>
<text text-anchor="start" x="465.8862" y="-285.8" font-family="Helvetica,sans-Serif" font-size="11.00" fill="#000000"> &#160;</text>
<polygon fill="#ffffff" stroke="transparent" points="475,-279.7 475,-298.7 546,-298.7 546,-279.7 475,-279.7"/>
<polygon fill="none" stroke="#000000" points="475,-279.7 475,-298.7 546,-298.7 546,-279.7 475,-279.7"/>
<text text-anchor="start" x="536.8862" y="-285.8" font-family="Helvetica,sans-Serif" font-size="11.00" fill="#000000"> &#160;</text>
</a>
</g>
</g>
<!-- court_appearance_movement_audit&#45;&gt;audit_revision -->
<g id="edge11" class="edge">
<title>court_appearance_movement_audit:w&#45;&gt;audit_revision:e</title>
<path fill="none" stroke="#000000" d="M253.4443,-375.2388C216.6744,-389.6673 230.0529,-460.7 180.5,-460.7"/>
<polygon fill="#000000" stroke="#000000" points="260.119,-374.0746 268.6186,-376.2465 264.0595,-373.3873 268,-372.7 268,-372.7 268,-372.7 264.0595,-373.3873 267.3814,-369.1535 260.119,-374.0746 260.119,-374.0746"/>
<ellipse fill="none" stroke="#000000" cx="256.9666" cy="-374.6245" rx="3.2" ry="3.2"/>
</g>
<!-- court_appearance_movement_audit&#45;&gt;person_summary -->
<g id="edge10" class="edge">
<title>court_appearance_movement_audit:w&#45;&gt;person_summary:e</title>
<path fill="none" stroke="#000000" stroke-dasharray="5,2" d="M253.3641,-330.7917C239.3406,-335.1287 232.3551,-344.7 212.5,-344.7"/>
<polygon fill="#000000" stroke="#000000" points="260.0805,-329.8319 268.5093,-332.2638 264.0402,-329.2659 268,-328.7 268,-328.7 268,-328.7 264.0402,-329.2659 267.4907,-325.1362 260.0805,-329.8319 260.0805,-329.8319"/>
<ellipse fill="none" stroke="#000000" cx="256.9127" cy="-330.2846" rx="3.2" ry="3.2"/>
</g>
</g>
</svg>
