<?xml version="1.0" encoding="UTF-8" standalone="no"?>
<!DOCTYPE svg PUBLIC "-//W3C//DTD SVG 1.1//EN"
 "http://www.w3.org/Graphics/SVG/1.1/DTD/svg11.dtd">
<!-- Generated by graphviz version 2.40.1 (20161225.0304)
 -->
<!-- Title: twoDegreesRelationshipsDiagramImplied Pages: 1 -->
<svg width="848pt" height="580pt"
 viewBox="0.00 0.00 848.00 580.20" xmlns="http://www.w3.org/2000/svg" xmlns:xlink="http://www.w3.org/1999/xlink">
<g id="graph0" class="graph" transform="scale(1 1) rotate(0) translate(4 576.2)">
<title>twoDegreesRelationshipsDiagramImplied</title>
<polygon fill="#ffffff" stroke="transparent" points="-4,4 -4,-576.2 844,-576.2 844,4 -4,4"/>
<text text-anchor="middle" x="72.4936" y="-7.3" font-family="Helvetica,sans-Serif" font-size="11.00" fill="#000000">Generated by SchemaSpy</text>
<!-- court_appearance -->
<g id="node1" class="node">
<title>court_appearance</title>
<g id="a_node1"><a xlink:href="../../tables/court_appearance.html" xlink:title="court_appearance" target="_top">
<polygon fill="#ffffff" stroke="transparent" points="327.5,-117.2 327.5,-178.2 486.5,-178.2 486.5,-117.2 327.5,-117.2"/>
<polygon fill="#f5f5f5" stroke="transparent" points="328,-154.7 328,-177.7 487,-177.7 487,-154.7 328,-154.7"/>
<polygon fill="none" stroke="#000000" points="328,-154.7 328,-177.7 487,-177.7 487,-154.7 328,-154.7"/>
<text text-anchor="start" x="333" y="-163.3" font-family="Helvetica,sans-Serif" font-weight="bold" font-size="11.00" fill="#000000">court_appearance</text>
<text text-anchor="start" x="452.5219" y="-162.8" font-family="Helvetica,sans-Serif" font-size="11.00" fill="#000000">[table]</text>
<polygon fill="none" stroke="#000000" points="328,-135.7 328,-154.7 487,-154.7 487,-135.7 328,-135.7"/>
<text text-anchor="start" x="331" y="-141.8" font-family="Helvetica,sans-Serif" font-size="11.00" fill="#000000">...</text>
<polygon fill="#ffffff" stroke="transparent" points="328,-116.7 328,-135.7 401,-135.7 401,-116.7 328,-116.7"/>
<polygon fill="none" stroke="#000000" points="328,-116.7 328,-135.7 401,-135.7 401,-116.7 328,-116.7"/>
<text text-anchor="start" x="331" y="-122.8" font-family="Helvetica,sans-Serif" font-size="11.00" fill="#000000">&lt; 4</text>
<polygon fill="#ffffff" stroke="transparent" points="401,-116.7 401,-135.7 439,-135.7 439,-116.7 401,-116.7"/>
<polygon fill="none" stroke="#000000" points="401,-116.7 401,-135.7 439,-135.7 439,-116.7 401,-116.7"/>
<text text-anchor="start" x="429.8862" y="-122.8" font-family="Helvetica,sans-Serif" font-size="11.00" fill="#000000"> &#160;</text>
<polygon fill="#ffffff" stroke="transparent" points="439,-116.7 439,-135.7 487,-135.7 487,-116.7 439,-116.7"/>
<polygon fill="none" stroke="#000000" points="439,-116.7 439,-135.7 487,-135.7 487,-116.7 439,-116.7"/>
<text text-anchor="start" x="468.4053" y="-122.8" font-family="Helvetica,sans-Serif" font-size="11.00" fill="#000000">1 &gt;</text>
</a>
</g>
</g>
<!-- audit_revision -->
<g id="node2" class="node">
<title>audit_revision</title>
<g id="a_node2"><a xlink:href="../../tables/audit_revision.html" xlink:title="audit_revision" target="_top">
<polygon fill="#ffffff" stroke="transparent" points="46.5,-421.2 46.5,-482.2 180.5,-482.2 180.5,-421.2 46.5,-421.2"/>
<polygon fill="#f5f5f5" stroke="transparent" points="46.5,-458.7 46.5,-481.7 180.5,-481.7 180.5,-458.7 46.5,-458.7"/>
<polygon fill="none" stroke="#000000" points="46.5,-458.7 46.5,-481.7 180.5,-481.7 180.5,-458.7 46.5,-458.7"/>
<text text-anchor="start" x="51.5" y="-467.3" font-family="Helvetica,sans-Serif" font-weight="bold" font-size="11.00" fill="#000000">audit_revision</text>
<text text-anchor="start" x="146.0219" y="-466.8" font-family="Helvetica,sans-Serif" font-size="11.00" fill="#000000">[table]</text>
<polygon fill="none" stroke="#000000" points="46.5,-439.7 46.5,-458.7 180.5,-458.7 180.5,-439.7 46.5,-439.7"/>
<text text-anchor="start" x="49.5" y="-445.8" font-family="Helvetica,sans-Serif" font-size="11.00" fill="#000000">...</text>
<polygon fill="#ffffff" stroke="transparent" points="46.5,-420.7 46.5,-439.7 102.5,-439.7 102.5,-420.7 46.5,-420.7"/>
<polygon fill="none" stroke="#000000" points="46.5,-420.7 46.5,-439.7 102.5,-439.7 102.5,-420.7 46.5,-420.7"/>
<text text-anchor="start" x="49.5" y="-426.8" font-family="Helvetica,sans-Serif" font-size="11.00" fill="#000000"> &#160;</text>
<polygon fill="#ffffff" stroke="transparent" points="102.5,-420.7 102.5,-439.7 136.5,-439.7 136.5,-420.7 102.5,-420.7"/>
<polygon fill="none" stroke="#000000" points="102.5,-420.7 102.5,-439.7 136.5,-439.7 136.5,-420.7 102.5,-420.7"/>
<text text-anchor="start" x="127.3862" y="-426.8" font-family="Helvetica,sans-Serif" font-size="11.00" fill="#000000"> &#160;</text>
<polygon fill="#ffffff" stroke="transparent" points="136.5,-420.7 136.5,-439.7 180.5,-439.7 180.5,-420.7 136.5,-420.7"/>
<polygon fill="none" stroke="#000000" points="136.5,-420.7 136.5,-439.7 180.5,-439.7 180.5,-420.7 136.5,-420.7"/>
<text text-anchor="start" x="161.9053" y="-426.8" font-family="Helvetica,sans-Serif" font-size="11.00" fill="#000000">4 &gt;</text>
</a>
</g>
</g>
<!-- court_appearance&#45;&gt;audit_revision -->
<g id="edge1" class="edge">
<title>court_appearance:w&#45;&gt;audit_revision:e</title>
<path fill="none" stroke="#000000" stroke-dasharray="5,2" d="M310.0273,-177.2599C291.0228,-187.0751 272.9836,-199.9417 260,-216.7 193.2445,-302.8629 289.497,-448.7 180.5,-448.7"/>
<polygon fill="#000000" stroke="#000000" points="316.9445,-169.4379 320.45,-176.629 319.0118,-177.3301 315.5063,-170.139 316.9445,-169.4379"/>
<polyline fill="none" stroke="#000000" points="319.4164,-172.6829 315.8208,-174.4356 "/>
<ellipse fill="none" stroke="#000000" cx="312.9444" cy="-175.8379" rx="3.2" ry="3.2"/>
</g>
<!-- person_summary -->
<g id="node3" class="node">
<title>person_summary</title>
<g id="a_node3"><a xlink:href="../../tables/person_summary.html" xlink:title="person_summary" target="_top">
<polygon fill="#ffffff" stroke="transparent" points="13,-202.7 13,-380.7 214,-380.7 214,-202.7 13,-202.7"/>
<polygon fill="#f5f5f5" stroke="transparent" points="15.5,-355.7 15.5,-378.7 212.5,-378.7 212.5,-355.7 15.5,-355.7"/>
<polygon fill="none" stroke="#000000" points="15.5,-355.7 15.5,-378.7 212.5,-378.7 212.5,-355.7 15.5,-355.7"/>
<text text-anchor="start" x="20.5" y="-364.3" font-family="Helvetica,sans-Serif" font-weight="bold" font-size="11.00" fill="#000000">person_summary</text>
<text text-anchor="start" x="177.5437" y="-363.8" font-family="Helvetica,sans-Serif" font-size="11.00" fill="#000000">[table]</text>
<polygon fill="none" stroke="#000000" points="15.5,-333.7 15.5,-355.7 151.5,-355.7 151.5,-333.7 15.5,-333.7"/>
<image xlink:href="../../images/primaryKeys.png" width="11px" height="12px" preserveAspectRatio="xMinYMin meet" x="20.5" y="-350.7"/>
<text text-anchor="start" x="35.5" y="-340.8" font-family="Helvetica,sans-Serif" font-size="11.00" fill="#000000">person_identifier</text>
<polygon fill="none" stroke="#000000" points="151.5,-333.7 151.5,-355.7 212.5,-355.7 212.5,-333.7 151.5,-333.7"/>
<text text-anchor="start" x="154.494" y="-341.4" font-family="Helvetica,sans-Serif" font-size="11.00" fill="#000000">varchar[10]</text>
<polygon fill="none" stroke="#000000" points="15.5,-311.7 15.5,-333.7 151.5,-333.7 151.5,-311.7 15.5,-311.7"/>
<text text-anchor="start" x="35.5" y="-318.8" font-family="Helvetica,sans-Serif" font-size="11.00" fill="#000000">version</text>
<polygon fill="none" stroke="#000000" points="151.5,-311.7 151.5,-333.7 212.5,-333.7 212.5,-311.7 151.5,-311.7"/>
<text text-anchor="start" x="154.5" y="-319.4" font-family="Helvetica,sans-Serif" font-size="11.00" fill="#000000">int4[10]</text>
<polygon fill="none" stroke="#000000" points="15.5,-289.7 15.5,-311.7 151.5,-311.7 151.5,-289.7 15.5,-289.7"/>
<text text-anchor="start" x="35.5" y="-296.8" font-family="Helvetica,sans-Serif" font-size="11.00" fill="#000000">first_name</text>
<polygon fill="none" stroke="#000000" points="151.5,-289.7 151.5,-311.7 212.5,-311.7 212.5,-289.7 151.5,-289.7"/>
<text text-anchor="start" x="154.494" y="-297.4" font-family="Helvetica,sans-Serif" font-size="11.00" fill="#000000">varchar[64]</text>
<polygon fill="none" stroke="#000000" points="15.5,-267.7 15.5,-289.7 151.5,-289.7 151.5,-267.7 15.5,-267.7"/>
<text text-anchor="start" x="35.5" y="-274.8" font-family="Helvetica,sans-Serif" font-size="11.00" fill="#000000">last_name</text>
<polygon fill="none" stroke="#000000" points="151.5,-267.7 151.5,-289.7 212.5,-289.7 212.5,-267.7 151.5,-267.7"/>
<text text-anchor="start" x="154.494" y="-275.4" font-family="Helvetica,sans-Serif" font-size="11.00" fill="#000000">varchar[64]</text>
<polygon fill="none" stroke="#000000" points="15.5,-245.7 15.5,-267.7 151.5,-267.7 151.5,-245.7 15.5,-245.7"/>
<text text-anchor="start" x="35.5" y="-252.8" font-family="Helvetica,sans-Serif" font-size="11.00" fill="#000000">prison_code</text>
<polygon fill="none" stroke="#000000" points="151.5,-245.7 151.5,-267.7 212.5,-267.7 212.5,-245.7 151.5,-245.7"/>
<text text-anchor="start" x="154.5" y="-253.4" font-family="Helvetica,sans-Serif" font-size="11.00" fill="#000000">varchar[6]</text>
<polygon fill="none" stroke="#000000" points="15.5,-223.7 15.5,-245.7 151.5,-245.7 151.5,-223.7 15.5,-223.7"/>
<text text-anchor="start" x="35.5" y="-230.8" font-family="Helvetica,sans-Serif" font-size="11.00" fill="#000000">cell_location</text>
<polygon fill="none" stroke="#000000" points="151.5,-223.7 151.5,-245.7 212.5,-245.7 212.5,-223.7 151.5,-223.7"/>
<text text-anchor="start" x="154.494" y="-231.4" font-family="Helvetica,sans-Serif" font-size="11.00" fill="#000000">varchar[64]</text>
<polygon fill="#ffffff" stroke="transparent" points="15.5,-204.7 15.5,-223.7 87.5,-223.7 87.5,-204.7 15.5,-204.7"/>
<polygon fill="none" stroke="#000000" points="15.5,-204.7 15.5,-223.7 87.5,-223.7 87.5,-204.7 15.5,-204.7"/>
<text text-anchor="start" x="18.5" y="-210.8" font-family="Helvetica,sans-Serif" font-size="11.00" fill="#000000">&lt; 0</text>
<polygon fill="#ffffff" stroke="transparent" points="87.5,-204.7 87.5,-223.7 151.5,-223.7 151.5,-204.7 87.5,-204.7"/>
<polygon fill="none" stroke="#000000" points="87.5,-204.7 87.5,-223.7 151.5,-223.7 151.5,-204.7 87.5,-204.7"/>
<text text-anchor="start" x="142.3862" y="-210.8" font-family="Helvetica,sans-Serif" font-size="11.00" fill="#000000"> &#160;</text>
<polygon fill="#ffffff" stroke="transparent" points="151.5,-204.7 151.5,-223.7 212.5,-223.7 212.5,-204.7 151.5,-204.7"/>
<polygon fill="none" stroke="#000000" points="151.5,-204.7 151.5,-223.7 212.5,-223.7 212.5,-204.7 151.5,-204.7"/>
<text text-anchor="start" x="193.9053" y="-210.8" font-family="Helvetica,sans-Serif" font-size="11.00" fill="#000000">4 &gt;</text>
<polygon fill="none" stroke="#000000" stroke-width="2" points="14,-203.7 14,-379.7 213,-379.7 213,-203.7 14,-203.7"/>
</a>
</g>
</g>
<!-- court_appearance&#45;&gt;person_summary -->
<g id="edge2" class="edge">
<title>court_appearance:w&#45;&gt;person_summary:e</title>
<path fill="none" stroke="#000000" d="M305.726,-164.4298C288.8277,-170.9824 272.6947,-180.079 260,-192.7 209.8074,-242.6013 283.2773,-344.7 212.5,-344.7"/>
<polygon fill="#000000" stroke="#000000" points="311.8309,-162.3174 320.5683,-163.1035 315.611,-161.0094 319.3911,-159.7014 319.3911,-159.7014 319.3911,-159.7014 315.611,-161.0094 318.2139,-156.2993 311.8309,-162.3174 311.8309,-162.3174"/>
<ellipse fill="none" stroke="#000000" cx="308.8068" cy="-163.3638" rx="3.2" ry="3.2"/>
</g>
<!-- court_appearance_reason -->
<g id="node4" class="node">
<title>court_appearance_reason</title>
<g id="a_node4"><a xlink:href="../../tables/court_appearance_reason.html" xlink:title="court_appearance_reason" target="_top">
<polygon fill="#ffffff" stroke="transparent" points="8,-38.2 8,-99.2 219,-99.2 219,-38.2 8,-38.2"/>
<polygon fill="#f5f5f5" stroke="transparent" points="8.5,-75.7 8.5,-98.7 219.5,-98.7 219.5,-75.7 8.5,-75.7"/>
<polygon fill="none" stroke="#000000" points="8.5,-75.7 8.5,-98.7 219.5,-98.7 219.5,-75.7 8.5,-75.7"/>
<text text-anchor="start" x="13.5" y="-84.3" font-family="Helvetica,sans-Serif" font-weight="bold" font-size="11.00" fill="#000000">court_appearance_reason</text>
<text text-anchor="start" x="185.0219" y="-83.8" font-family="Helvetica,sans-Serif" font-size="11.00" fill="#000000">[table]</text>
<polygon fill="none" stroke="#000000" points="8.5,-56.7 8.5,-75.7 219.5,-75.7 219.5,-56.7 8.5,-56.7"/>
<text text-anchor="start" x="11.5" y="-62.8" font-family="Helvetica,sans-Serif" font-size="11.00" fill="#000000">...</text>
<polygon fill="#ffffff" stroke="transparent" points="8.5,-37.7 8.5,-56.7 103.5,-56.7 103.5,-37.7 8.5,-37.7"/>
<polygon fill="none" stroke="#000000" points="8.5,-37.7 8.5,-56.7 103.5,-56.7 103.5,-37.7 8.5,-37.7"/>
<text text-anchor="start" x="11.5" y="-43.8" font-family="Helvetica,sans-Serif" font-size="11.00" fill="#000000"> &#160;</text>
<polygon fill="#ffffff" stroke="transparent" points="103.5,-37.7 103.5,-56.7 156.5,-56.7 156.5,-37.7 103.5,-37.7"/>
<polygon fill="none" stroke="#000000" points="103.5,-37.7 103.5,-56.7 156.5,-56.7 156.5,-37.7 103.5,-37.7"/>
<text text-anchor="start" x="147.3862" y="-43.8" font-family="Helvetica,sans-Serif" font-size="11.00" fill="#000000"> &#160;</text>
<polygon fill="#ffffff" stroke="transparent" points="156.5,-37.7 156.5,-56.7 219.5,-56.7 219.5,-37.7 156.5,-37.7"/>
<polygon fill="none" stroke="#000000" points="156.5,-37.7 156.5,-56.7 219.5,-56.7 219.5,-37.7 156.5,-37.7"/>
<text text-anchor="start" x="200.9053" y="-43.8" font-family="Helvetica,sans-Serif" font-size="11.00" fill="#000000">2 &gt;</text>
</a>
</g>
</g>
<!-- court_appearance&#45;&gt;court_appearance_reason -->
<g id="edge3" class="edge">
<title>court_appearance:w&#45;&gt;court_appearance_reason:e</title>
<path fill="none" stroke="#000000" d="M305.7834,-110.2244C290.2711,-103.7768 274.5788,-96.8394 260,-89.7 241.2091,-80.4979 240.4231,-65.7 219.5,-65.7"/>
<polygon fill="#000000" stroke="#000000" points="311.9299,-112.7335 317.976,-119.09 315.6332,-114.2452 319.3366,-115.757 319.3366,-115.757 319.3366,-115.757 315.6332,-114.2452 320.6972,-112.424 311.9299,-112.7335 311.9299,-112.7335"/>
<ellipse fill="none" stroke="#000000" cx="308.9673" cy="-111.524" rx="3.2" ry="3.2"/>
</g>
<!-- court_appearance_status -->
<g id="node5" class="node">
<title>court_appearance_status</title>
<g id="a_node5"><a xlink:href="../../tables/court_appearance_status.html" xlink:title="court_appearance_status" target="_top">
<polygon fill="#ffffff" stroke="transparent" points="9.5,-120.2 9.5,-181.2 217.5,-181.2 217.5,-120.2 9.5,-120.2"/>
<polygon fill="#f5f5f5" stroke="transparent" points="9.5,-157.7 9.5,-180.7 217.5,-180.7 217.5,-157.7 9.5,-157.7"/>
<polygon fill="none" stroke="#000000" points="9.5,-157.7 9.5,-180.7 217.5,-180.7 217.5,-157.7 9.5,-157.7"/>
<text text-anchor="start" x="14.5" y="-166.3" font-family="Helvetica,sans-Serif" font-weight="bold" font-size="11.00" fill="#000000">court_appearance_status</text>
<text text-anchor="start" x="183.0219" y="-165.8" font-family="Helvetica,sans-Serif" font-size="11.00" fill="#000000">[table]</text>
<polygon fill="none" stroke="#000000" points="9.5,-138.7 9.5,-157.7 217.5,-157.7 217.5,-138.7 9.5,-138.7"/>
<text text-anchor="start" x="12.5" y="-144.8" font-family="Helvetica,sans-Serif" font-size="11.00" fill="#000000">...</text>
<polygon fill="#ffffff" stroke="transparent" points="9.5,-119.7 9.5,-138.7 102.5,-138.7 102.5,-119.7 9.5,-119.7"/>
<polygon fill="none" stroke="#000000" points="9.5,-119.7 9.5,-138.7 102.5,-138.7 102.5,-119.7 9.5,-119.7"/>
<text text-anchor="start" x="12.5" y="-125.8" font-family="Helvetica,sans-Serif" font-size="11.00" fill="#000000"> &#160;</text>
<polygon fill="#ffffff" stroke="transparent" points="102.5,-119.7 102.5,-138.7 155.5,-138.7 155.5,-119.7 102.5,-119.7"/>
<polygon fill="none" stroke="#000000" points="102.5,-119.7 102.5,-138.7 155.5,-138.7 155.5,-119.7 102.5,-119.7"/>
<text text-anchor="start" x="146.3862" y="-125.8" font-family="Helvetica,sans-Serif" font-size="11.00" fill="#000000"> &#160;</text>
<polygon fill="#ffffff" stroke="transparent" points="155.5,-119.7 155.5,-138.7 217.5,-138.7 217.5,-119.7 155.5,-119.7"/>
<polygon fill="none" stroke="#000000" points="155.5,-119.7 155.5,-138.7 217.5,-138.7 217.5,-119.7 155.5,-119.7"/>
<text text-anchor="start" x="198.9053" y="-125.8" font-family="Helvetica,sans-Serif" font-size="11.00" fill="#000000">1 &gt;</text>
</a>
</g>
</g>
<!-- court_appearance&#45;&gt;court_appearance_status -->
<g id="edge4" class="edge">
<title>court_appearance:w&#45;&gt;court_appearance_status:e</title>
<path fill="none" stroke="#000000" d="M304.727,-147.7C276.4686,-147.7 245.796,-147.7 217.5,-147.7"/>
<polygon fill="#000000" stroke="#000000" points="311.2589,-147.7001 319.2589,-151.3 315.2589,-147.7 319.2589,-147.7 319.2589,-147.7 319.2589,-147.7 315.2589,-147.7 319.2589,-144.1 311.2589,-147.7001 311.2589,-147.7001"/>
<ellipse fill="none" stroke="#000000" cx="308.0589" cy="-147.7001" rx="3.2" ry="3.2"/>
</g>
<!-- court_appearance_audit -->
<g id="node6" class="node">
<title>court_appearance_audit</title>
<g id="a_node6"><a xlink:href="../../tables/court_appearance_audit.html" xlink:title="court_appearance_audit" target="_top">
<polygon fill="#ffffff" stroke="transparent" points="307,-397.2 307,-568.2 507,-568.2 507,-397.2 307,-397.2"/>
<polygon fill="#f5f5f5" stroke="transparent" points="307,-544.7 307,-567.7 507,-567.7 507,-544.7 307,-544.7"/>
<polygon fill="none" stroke="#000000" points="307,-544.7 307,-567.7 507,-567.7 507,-544.7 307,-544.7"/>
<text text-anchor="start" x="312" y="-553.3" font-family="Helvetica,sans-Serif" font-weight="bold" font-size="11.00" fill="#000000">court_appearance_audit</text>
<text text-anchor="start" x="472.5219" y="-552.8" font-family="Helvetica,sans-Serif" font-size="11.00" fill="#000000">[table]</text>
<polygon fill="none" stroke="#000000" points="307,-522.7 307,-544.7 507,-544.7 507,-522.7 307,-522.7"/>
<image xlink:href="../../images/primaryKeys.png" width="11px" height="12px" preserveAspectRatio="xMinYMin meet" x="312" y="-539.7"/>
<text text-anchor="start" x="336" y="-529.8" font-family="Helvetica,sans-Serif" font-size="11.00" fill="#000000">rev_id</text>
<polygon fill="none" stroke="#000000" points="307,-500.7 307,-522.7 507,-522.7 507,-500.7 307,-500.7"/>
<image xlink:href="../../images/primaryKeys.png" width="11px" height="12px" preserveAspectRatio="xMinYMin meet" x="312" y="-517.7"/>
<text text-anchor="start" x="336" y="-507.8" font-family="Helvetica,sans-Serif" font-size="11.00" fill="#000000">id</text>
<polygon fill="none" stroke="#000000" points="307,-478.7 307,-500.7 507,-500.7 507,-478.7 307,-478.7"/>
<image xlink:href="../../images/foreignKeys.png" width="11px" height="12px" preserveAspectRatio="xMinYMin meet" x="312" y="-495.7"/>
<text text-anchor="start" x="336" y="-485.8" font-family="Helvetica,sans-Serif" font-size="11.00" fill="#000000">person_identifier</text>
<polygon fill="none" stroke="#000000" points="307,-456.7 307,-478.7 507,-478.7 507,-456.7 307,-456.7"/>
<image xlink:href="../../images/foreignKeys.png" width="11px" height="12px" preserveAspectRatio="xMinYMin meet" x="312" y="-473.7"/>
<text text-anchor="start" x="336" y="-463.8" font-family="Helvetica,sans-Serif" font-size="11.00" fill="#000000">legacy_id</text>
<polygon fill="#ffffff" stroke="transparent" points="307,-434.7 307,-456.7 507,-456.7 507,-434.7 307,-434.7"/>
<polygon fill="none" stroke="#000000" points="307,-434.7 307,-456.7 507,-456.7 507,-434.7 307,-434.7"/>
<text text-anchor="start" x="336" y="-441.8" font-family="Helvetica,sans-Serif" font-size="11.00" fill="#000000">external_reference</text>
<polygon fill="none" stroke="#000000" points="307,-415.7 307,-434.7 507,-434.7 507,-415.7 307,-415.7"/>
<text text-anchor="start" x="310" y="-421.8" font-family="Helvetica,sans-Serif" font-size="11.00" fill="#000000">...</text>
<polygon fill="#ffffff" stroke="transparent" points="307,-396.7 307,-415.7 405,-415.7 405,-396.7 307,-396.7"/>
<polygon fill="none" stroke="#000000" points="307,-396.7 307,-415.7 405,-415.7 405,-396.7 307,-396.7"/>
<text text-anchor="start" x="310" y="-402.8" font-family="Helvetica,sans-Serif" font-size="11.00" fill="#000000">&lt; 3</text>
<polygon fill="#ffffff" stroke="transparent" points="405,-396.7 405,-415.7 456,-415.7 456,-396.7 405,-396.7"/>
<polygon fill="none" stroke="#000000" points="405,-396.7 405,-415.7 456,-415.7 456,-396.7 405,-396.7"/>
<text text-anchor="start" x="446.8862" y="-402.8" font-family="Helvetica,sans-Serif" font-size="11.00" fill="#000000"> &#160;</text>
<polygon fill="#ffffff" stroke="transparent" points="456,-396.7 456,-415.7 507,-415.7 507,-396.7 456,-396.7"/>
<polygon fill="none" stroke="#000000" points="456,-396.7 456,-415.7 507,-415.7 507,-396.7 456,-396.7"/>
<text text-anchor="start" x="497.8862" y="-402.8" font-family="Helvetica,sans-Serif" font-size="11.00" fill="#000000"> &#160;</text>
</a>
</g>
</g>
<!-- court_appearance_audit&#45;&gt;audit_revision -->
<g id="edge5" class="edge">
<title>court_appearance_audit:w&#45;&gt;audit_revision:e</title>
<path fill="none" stroke="#000000" stroke-dasharray="5,2" d="M292.3889,-467.2491C247.4269,-464.3718 232.1339,-448.7 180.5,-448.7"/>
<polygon fill="#000000" stroke="#000000" points="299.0038,-467.4532 306.8889,-471.2983 303.0019,-467.5766 307,-467.7 307,-467.7 307,-467.7 303.0019,-467.5766 307.1111,-464.1017 299.0038,-467.4532 299.0038,-467.4532"/>
<ellipse fill="none" stroke="#000000" cx="295.8053" cy="-467.3544" rx="3.2" ry="3.2"/>
</g>
<!-- court_appearance_audit&#45;&gt;audit_revision -->
<g id="edge7" class="edge">
<title>court_appearance_audit:w&#45;&gt;audit_revision:e</title>
<path fill="none" stroke="#000000" d="M292.4559,-532.2247C240.198,-520.9375 242.9437,-448.7 180.5,-448.7"/>
<polygon fill="#000000" stroke="#000000" points="299.0408,-532.8926 306.6367,-537.2816 303.0204,-533.2963 307,-533.7 307,-533.7 307,-533.7 303.0204,-533.2963 307.3633,-530.1184 299.0408,-532.8926 299.0408,-532.8926"/>
<ellipse fill="none" stroke="#000000" cx="295.8572" cy="-532.5696" rx="3.2" ry="3.2"/>
</g>
<!-- court_appearance_audit&#45;&gt;person_summary -->
<g id="edge6" class="edge">
<title>court_appearance_audit:w&#45;&gt;person_summary:e</title>
<path fill="none" stroke="#000000" stroke-dasharray="5,2" d="M292.7005,-487.6502C237.7491,-470.0262 284.014,-344.7 212.5,-344.7"/>
<polygon fill="#000000" stroke="#000000" points="299.0809,-488.5648 306.4892,-493.2636 303.0405,-489.1324 307,-489.7 307,-489.7 307,-489.7 303.0405,-489.1324 307.5108,-486.1364 299.0809,-488.5648 299.0809,-488.5648"/>
<ellipse fill="none" stroke="#000000" cx="295.9133" cy="-488.1107" rx="3.2" ry="3.2"/>
</g>
<!-- court_appearance_movement -->
<g id="node7" class="node">
<title>court_appearance_movement</title>
<g id="a_node7"><a xlink:href="../../tables/court_appearance_movement.html" xlink:title="court_appearance_movement" target="_top">
<polygon fill="#ffffff" stroke="transparent" points="595,-117.2 595,-178.2 832,-178.2 832,-117.2 595,-117.2"/>
<polygon fill="#f5f5f5" stroke="transparent" points="595.5,-154.7 595.5,-177.7 832.5,-177.7 832.5,-154.7 595.5,-154.7"/>
<polygon fill="none" stroke="#000000" points="595.5,-154.7 595.5,-177.7 832.5,-177.7 832.5,-154.7 595.5,-154.7"/>
<text text-anchor="start" x="600.5" y="-163.3" font-family="Helvetica,sans-Serif" font-weight="bold" font-size="11.00" fill="#000000">court_appearance_movement</text>
<text text-anchor="start" x="798.0219" y="-162.8" font-family="Helvetica,sans-Serif" font-size="11.00" fill="#000000">[table]</text>
<polygon fill="none" stroke="#000000" points="595.5,-135.7 595.5,-154.7 832.5,-154.7 832.5,-135.7 595.5,-135.7"/>
<text text-anchor="start" x="598.5" y="-141.8" font-family="Helvetica,sans-Serif" font-size="11.00" fill="#000000">...</text>
<polygon fill="#ffffff" stroke="transparent" points="595.5,-116.7 595.5,-135.7 712.5,-135.7 712.5,-116.7 595.5,-116.7"/>
<polygon fill="none" stroke="#000000" points="595.5,-116.7 595.5,-135.7 712.5,-135.7 712.5,-116.7 595.5,-116.7"/>
<text text-anchor="start" x="598.5" y="-122.8" font-family="Helvetica,sans-Serif" font-size="11.00" fill="#000000">&lt; 3</text>
<polygon fill="#ffffff" stroke="transparent" points="712.5,-116.7 712.5,-135.7 772.5,-135.7 772.5,-116.7 712.5,-116.7"/>
<polygon fill="none" stroke="#000000" points="712.5,-116.7 712.5,-135.7 772.5,-135.7 772.5,-116.7 712.5,-116.7"/>
<text text-anchor="start" x="763.3862" y="-122.8" font-family="Helvetica,sans-Serif" font-size="11.00" fill="#000000"> &#160;</text>
<polygon fill="#ffffff" stroke="transparent" points="772.5,-116.7 772.5,-135.7 832.5,-135.7 832.5,-116.7 772.5,-116.7"/>
<polygon fill="none" stroke="#000000" points="772.5,-116.7 772.5,-135.7 832.5,-135.7 832.5,-116.7 772.5,-116.7"/>
<text text-anchor="start" x="823.3862" y="-122.8" font-family="Helvetica,sans-Serif" font-size="11.00" fill="#000000"> &#160;</text>
</a>
</g>
</g>
<!-- court_appearance_movement&#45;&gt;court_appearance -->
<g id="edge8" class="edge">
<title>court_appearance_movement:w&#45;&gt;court_appearance:e</title>
<path fill="none" stroke="#000000" d="M572.0208,-147.7C545.6152,-147.7 518.7408,-147.7 494.5582,-147.7"/>
<polygon fill="#000000" stroke="#000000" points="578.6223,-147.7001 586.6223,-151.3 582.6223,-147.7 586.6223,-147.7 586.6223,-147.7 586.6223,-147.7 582.6223,-147.7 586.6222,-144.1 578.6223,-147.7001 578.6223,-147.7001"/>
<ellipse fill="none" stroke="#000000" cx="575.4223" cy="-147.7001" rx="3.2" ry="3.2"/>
</g>
<!-- court_appearance_movement&#45;&gt;person_summary -->
<g id="edge9" class="edge">
<title>court_appearance_movement:w&#45;&gt;person_summary:e</title>
<path fill="none" stroke="#000000" d="M572.5771,-185.183C566.3166,-186.4504 560.1035,-187.6317 554,-188.7 489.3538,-200.0153 312.0388,-176.7109 260,-216.7 211.8856,-253.6734 273.1797,-344.7 212.5,-344.7"/>
<polygon fill="#000000" stroke="#000000" points="578.9543,-183.8361 587.5256,-185.7052 582.868,-183.0095 586.7816,-182.1829 586.7816,-182.1829 586.7816,-182.1829 582.868,-183.0095 586.0377,-178.6606 578.9543,-183.8361 578.9543,-183.8361"/>
<ellipse fill="none" stroke="#000000" cx="575.8234" cy="-184.4974" rx="3.2" ry="3.2"/>
</g>
<!-- court_appearance_movement&#45;&gt;court_appearance_reason -->
<g id="edge10" class="edge">
<title>court_appearance_movement:w&#45;&gt;court_appearance_reason:e</title>
<path fill="none" stroke="#000000" d="M572.5395,-110.424C566.2892,-109.1003 560.0885,-107.8506 554,-106.7 406.8259,-78.886 369.2793,-65.7 219.5,-65.7"/>
<polygon fill="#000000" stroke="#000000" points="578.9098,-111.8193 585.9542,-117.0477 582.8171,-112.6752 586.7245,-113.5311 586.7245,-113.5311 586.7245,-113.5311 582.8171,-112.6752 587.4948,-110.0145 578.9098,-111.8193 578.9098,-111.8193"/>
<ellipse fill="none" stroke="#000000" cx="575.7839" cy="-111.1346" rx="3.2" ry="3.2"/>
</g>
<!-- court_appearance_movement_audit -->
<g id="node8" class="node">
<title>court_appearance_movement_audit</title>
<g id="a_node8"><a xlink:href="../../tables/court_appearance_movement_audit.html" xlink:title="court_appearance_movement_audit" target="_top">
<polygon fill="#ffffff" stroke="transparent" points="268,-227.2 268,-376.2 546,-376.2 546,-227.2 268,-227.2"/>
<polygon fill="#f5f5f5" stroke="transparent" points="268,-352.7 268,-375.7 546,-375.7 546,-352.7 268,-352.7"/>
<polygon fill="none" stroke="#000000" points="268,-352.7 268,-375.7 546,-375.7 546,-352.7 268,-352.7"/>
<text text-anchor="start" x="273" y="-361.3" font-family="Helvetica,sans-Serif" font-weight="bold" font-size="11.00" fill="#000000">court_appearance_movement_audit</text>
<text text-anchor="start" x="511.5219" y="-360.8" font-family="Helvetica,sans-Serif" font-size="11.00" fill="#000000">[table]</text>
<polygon fill="none" stroke="#000000" points="268,-330.7 268,-352.7 546,-352.7 546,-330.7 268,-330.7"/>
<image xlink:href="../../images/primaryKeys.png" width="11px" height="12px" preserveAspectRatio="xMinYMin meet" x="273" y="-347.7"/>
<text text-anchor="start" x="297" y="-337.8" font-family="Helvetica,sans-Serif" font-size="11.00" fill="#000000">rev_id</text>
<polygon fill="none" stroke="#000000" points="268,-308.7 268,-330.7 546,-330.7 546,-308.7 268,-308.7"/>
<image xlink:href="../../images/primaryKeys.png" width="11px" height="12px" preserveAspectRatio="xMinYMin meet" x="273" y="-325.7"/>
<text text-anchor="start" x="297" y="-315.8" font-family="Helvetica,sans-Serif" font-size="11.00" fill="#000000">id</text>
<polygon fill="#ffffff" stroke="transparent" points="268,-286.7 268,-308.7 546,-308.7 546,-286.7 268,-286.7"/>
<polygon fill="none" stroke="#000000" points="268,-286.7 268,-308.7 546,-308.7 546,-286.7 268,-286.7"/>
<text text-anchor="start" x="297" y="-293.8" font-family="Helvetica,sans-Serif" font-size="11.00" fill="#000000">court_appearance_id</text>
<polygon fill="none" stroke="#000000" points="268,-264.7 268,-286.7 546,-286.7 546,-264.7 268,-264.7"/>
<image xlink:href="../../images/foreignKeys.png" width="11px" height="12px" preserveAspectRatio="xMinYMin meet" x="273" y="-281.7"/>
<text text-anchor="start" x="297" y="-271.8" font-family="Helvetica,sans-Serif" font-size="11.00" fill="#000000">person_identifier</text>
<polygon fill="none" stroke="#000000" points="268,-245.7 268,-264.7 546,-264.7 546,-245.7 268,-245.7"/>
<text text-anchor="start" x="271" y="-251.8" font-family="Helvetica,sans-Serif" font-size="11.00" fill="#000000">...</text>
<polygon fill="#ffffff" stroke="transparent" points="268,-226.7 268,-245.7 405,-245.7 405,-226.7 268,-226.7"/>
<polygon fill="none" stroke="#000000" points="268,-226.7 268,-245.7 405,-245.7 405,-226.7 268,-226.7"/>
<text text-anchor="start" x="271" y="-232.8" font-family="Helvetica,sans-Serif" font-size="11.00" fill="#000000">&lt; 2</text>
<polygon fill="#ffffff" stroke="transparent" points="405,-226.7 405,-245.7 475,-245.7 475,-226.7 405,-226.7"/>
<polygon fill="none" stroke="#000000" points="405,-226.7 405,-245.7 475,-245.7 475,-226.7 405,-226.7"/>
<text text-anchor="start" x="465.8862" y="-232.8" font-family="Helvetica,sans-Serif" font-size="11.00" fill="#000000"> &#160;</text>
<polygon fill="#ffffff" stroke="transparent" points="475,-226.7 475,-245.7 546,-245.7 546,-226.7 475,-226.7"/>
<polygon fill="none" stroke="#000000" points="475,-226.7 475,-245.7 546,-245.7 546,-226.7 475,-226.7"/>
<text text-anchor="start" x="536.8862" y="-232.8" font-family="Helvetica,sans-Serif" font-size="11.00" fill="#000000"> &#160;</text>
</a>
</g>
</g>
<!-- court_appearance_movement_audit&#45;&gt;audit_revision -->
<g id="edge12" class="edge">
<title>court_appearance_movement_audit:w&#45;&gt;audit_revision:e</title>
<path fill="none" stroke="#000000" d="M258.1871,-352.3508C235.8789,-379.4151 183.5896,-448.7 180.5,-448.7"/>
<polygon fill="#000000" stroke="#000000" points="262.5793,-347.5836 270.6476,-344.1393 265.2896,-344.6418 268,-341.7 268,-341.7 268,-341.7 265.2896,-344.6418 265.3524,-339.2607 262.5793,-347.5836 262.5793,-347.5836"/>
<ellipse fill="none" stroke="#000000" cx="260.411" cy="-349.937" rx="3.2" ry="3.2"/>
</g>
<!-- court_appearance_movement_audit&#45;&gt;person_summary -->
<g id="edge11" class="edge">
<title>court_appearance_movement_audit:w&#45;&gt;person_summary:e</title>
<path fill="none" stroke="#000000" stroke-dasharray="5,2" d="M253.927,-280.0163C234.2643,-295.122 245.8603,-344.7 212.5,-344.7"/>
<polygon fill="#000000" stroke="#000000" points="260.3516,-278.0458 269.0556,-279.1418 264.1758,-276.8729 268,-275.7 268,-275.7 268,-275.7 264.1758,-276.8729 266.9444,-272.2582 260.3516,-278.0458 260.3516,-278.0458"/>
<ellipse fill="none" stroke="#000000" cx="257.2923" cy="-278.9842" rx="3.2" ry="3.2"/>
</g>
</g>
</svg>
