<?xml version="1.0" encoding="UTF-8" standalone="no"?>
<!DOCTYPE svg PUBLIC "-//W3C//DTD SVG 1.1//EN"
 "http://www.w3.org/Graphics/SVG/1.1/DTD/svg11.dtd">
<!-- Generated by graphviz version 2.40.1 (20161225.0304)
 -->
<!-- Title: oneDegreeRelationshipsDiagramImplied Pages: 1 -->
<svg width="838pt" height="611pt"
 viewBox="0.00 0.00 838.00 611.20" xmlns="http://www.w3.org/2000/svg" xmlns:xlink="http://www.w3.org/1999/xlink">
<g id="graph0" class="graph" transform="scale(1 1) rotate(0) translate(4 607.2)">
<title>oneDegreeRelationshipsDiagramImplied</title>
<polygon fill="#ffffff" stroke="transparent" points="-4,4 -4,-607.2 834,-607.2 834,4 -4,4"/>
<text text-anchor="middle" x="72.4936" y="-7.3" font-family="Helvetica,sans-Serif" font-size="11.00" fill="#000000">Generated by SchemaSpy</text>
<!-- court_appearance -->
<g id="node1" class="node">
<title>court_appearance</title>
<g id="a_node1"><a xlink:href="../../tables/court_appearance.html" xlink:title="court_appearance" target="_top">
<polygon fill="#ffffff" stroke="transparent" points="317.5,-214.2 317.5,-429.2 476.5,-429.2 476.5,-214.2 317.5,-214.2"/>
<polygon fill="#f5f5f5" stroke="transparent" points="318,-405.7 318,-428.7 477,-428.7 477,-405.7 318,-405.7"/>
<polygon fill="none" stroke="#000000" points="318,-405.7 318,-428.7 477,-428.7 477,-405.7 318,-405.7"/>
<text text-anchor="start" x="323" y="-414.3" font-family="Helvetica,sans-Serif" font-weight="bold" font-size="11.00" fill="#000000">court_appearance</text>
<text text-anchor="start" x="442.5219" y="-413.8" font-family="Helvetica,sans-Serif" font-size="11.00" fill="#000000">[table]</text>
<polygon fill="none" stroke="#000000" points="318,-383.7 318,-405.7 477,-405.7 477,-383.7 318,-383.7"/>
<image xlink:href="../../images/primaryKeys.png" width="11px" height="12px" preserveAspectRatio="xMinYMin meet" x="323" y="-400.7"/>
<text text-anchor="start" x="347" y="-390.8" font-family="Helvetica,sans-Serif" font-size="11.00" fill="#000000">id</text>
<polygon fill="#ffffff" stroke="transparent" points="318,-361.7 318,-383.7 477,-383.7 477,-361.7 318,-361.7"/>
<polygon fill="none" stroke="#000000" points="318,-361.7 318,-383.7 477,-383.7 477,-361.7 318,-361.7"/>
<image xlink:href="../../images/foreignKeys.png" width="11px" height="12px" preserveAspectRatio="xMinYMin meet" x="323" y="-378.7"/>
<text text-anchor="start" x="347" y="-368.8" font-family="Helvetica,sans-Serif" font-size="11.00" fill="#000000">person_identifier</text>
<polygon fill="#ffffff" stroke="transparent" points="318,-339.7 318,-361.7 477,-361.7 477,-339.7 318,-339.7"/>
<polygon fill="none" stroke="#000000" points="318,-339.7 318,-361.7 477,-361.7 477,-339.7 318,-339.7"/>
<text text-anchor="start" x="347" y="-346.8" font-family="Helvetica,sans-Serif" font-size="11.00" fill="#000000">prison_code</text>
<polygon fill="#ffffff" stroke="transparent" points="318,-317.7 318,-339.7 477,-339.7 477,-317.7 318,-317.7"/>
<polygon fill="none" stroke="#000000" points="318,-317.7 318,-339.7 477,-339.7 477,-317.7 318,-317.7"/>
<image xlink:href="../../images/foreignKeys.png" width="11px" height="12px" preserveAspectRatio="xMinYMin meet" x="323" y="-334.7"/>
<text text-anchor="start" x="347" y="-324.8" font-family="Helvetica,sans-Serif" font-size="11.00" fill="#000000">reason_id</text>
<polygon fill="#ffffff" stroke="transparent" points="318,-295.7 318,-317.7 477,-317.7 477,-295.7 318,-295.7"/>
<polygon fill="none" stroke="#000000" points="318,-295.7 318,-317.7 477,-317.7 477,-295.7 318,-295.7"/>
<image xlink:href="../../images/foreignKeys.png" width="11px" height="12px" preserveAspectRatio="xMinYMin meet" x="323" y="-312.7"/>
<text text-anchor="start" x="347" y="-302.8" font-family="Helvetica,sans-Serif" font-size="11.00" fill="#000000">status_id</text>
<polygon fill="#ffffff" stroke="transparent" points="318,-273.7 318,-295.7 477,-295.7 477,-273.7 318,-273.7"/>
<polygon fill="none" stroke="#000000" points="318,-273.7 318,-295.7 477,-295.7 477,-273.7 318,-273.7"/>
<text text-anchor="start" x="347" y="-280.8" font-family="Helvetica,sans-Serif" font-size="11.00" fill="#000000">start</text>
<polygon fill="#ffffff" stroke="transparent" points="318,-251.7 318,-273.7 477,-273.7 477,-251.7 318,-251.7"/>
<polygon fill="none" stroke="#000000" points="318,-251.7 318,-273.7 477,-273.7 477,-251.7 318,-251.7"/>
<image xlink:href="../../images/foreignKeys.png" width="11px" height="12px" preserveAspectRatio="xMinYMin meet" x="323" y="-268.7"/>
<text text-anchor="start" x="347" y="-258.8" font-family="Helvetica,sans-Serif" font-size="11.00" fill="#000000">legacy_id</text>
<polygon fill="none" stroke="#000000" points="318,-232.7 318,-251.7 477,-251.7 477,-232.7 318,-232.7"/>
<text text-anchor="start" x="321" y="-238.8" font-family="Helvetica,sans-Serif" font-size="11.00" fill="#000000">...</text>
<polygon fill="#ffffff" stroke="transparent" points="318,-213.7 318,-232.7 391,-232.7 391,-213.7 318,-213.7"/>
<polygon fill="none" stroke="#000000" points="318,-213.7 318,-232.7 391,-232.7 391,-213.7 318,-213.7"/>
<text text-anchor="start" x="321" y="-219.8" font-family="Helvetica,sans-Serif" font-size="11.00" fill="#000000">&lt; 3</text>
<polygon fill="#ffffff" stroke="transparent" points="391,-213.7 391,-232.7 429,-232.7 429,-213.7 391,-213.7"/>
<polygon fill="none" stroke="#000000" points="391,-213.7 391,-232.7 429,-232.7 429,-213.7 391,-213.7"/>
<text text-anchor="start" x="419.8862" y="-219.8" font-family="Helvetica,sans-Serif" font-size="11.00" fill="#000000"> &#160;</text>
<polygon fill="#ffffff" stroke="transparent" points="429,-213.7 429,-232.7 477,-232.7 477,-213.7 429,-213.7"/>
<polygon fill="none" stroke="#000000" points="429,-213.7 429,-232.7 477,-232.7 477,-213.7 429,-213.7"/>
<text text-anchor="start" x="458.4053" y="-219.8" font-family="Helvetica,sans-Serif" font-size="11.00" fill="#000000">1 &gt;</text>
</a>
</g>
</g>
<!-- person_summary -->
<g id="node2" class="node">
<title>person_summary</title>
<g id="a_node2"><a xlink:href="../../tables/person_summary.html" xlink:title="person_summary" target="_top">
<polygon fill="#ffffff" stroke="transparent" points="8,-138.7 8,-316.7 209,-316.7 209,-138.7 8,-138.7"/>
<polygon fill="#f5f5f5" stroke="transparent" points="10.5,-291.7 10.5,-314.7 207.5,-314.7 207.5,-291.7 10.5,-291.7"/>
<polygon fill="none" stroke="#000000" points="10.5,-291.7 10.5,-314.7 207.5,-314.7 207.5,-291.7 10.5,-291.7"/>
<text text-anchor="start" x="15.5" y="-300.3" font-family="Helvetica,sans-Serif" font-weight="bold" font-size="11.00" fill="#000000">person_summary</text>
<text text-anchor="start" x="172.5437" y="-299.8" font-family="Helvetica,sans-Serif" font-size="11.00" fill="#000000">[table]</text>
<polygon fill="none" stroke="#000000" points="10.5,-269.7 10.5,-291.7 146.5,-291.7 146.5,-269.7 10.5,-269.7"/>
<image xlink:href="../../images/primaryKeys.png" width="11px" height="12px" preserveAspectRatio="xMinYMin meet" x="15.5" y="-286.7"/>
<text text-anchor="start" x="30.5" y="-276.8" font-family="Helvetica,sans-Serif" font-size="11.00" fill="#000000">person_identifier</text>
<polygon fill="none" stroke="#000000" points="146.5,-269.7 146.5,-291.7 207.5,-291.7 207.5,-269.7 146.5,-269.7"/>
<text text-anchor="start" x="149.494" y="-277.4" font-family="Helvetica,sans-Serif" font-size="11.00" fill="#000000">varchar[10]</text>
<polygon fill="none" stroke="#000000" points="10.5,-247.7 10.5,-269.7 146.5,-269.7 146.5,-247.7 10.5,-247.7"/>
<text text-anchor="start" x="30.5" y="-254.8" font-family="Helvetica,sans-Serif" font-size="11.00" fill="#000000">version</text>
<polygon fill="none" stroke="#000000" points="146.5,-247.7 146.5,-269.7 207.5,-269.7 207.5,-247.7 146.5,-247.7"/>
<text text-anchor="start" x="149.5" y="-255.4" font-family="Helvetica,sans-Serif" font-size="11.00" fill="#000000">int4[10]</text>
<polygon fill="none" stroke="#000000" points="10.5,-225.7 10.5,-247.7 146.5,-247.7 146.5,-225.7 10.5,-225.7"/>
<text text-anchor="start" x="30.5" y="-232.8" font-family="Helvetica,sans-Serif" font-size="11.00" fill="#000000">first_name</text>
<polygon fill="none" stroke="#000000" points="146.5,-225.7 146.5,-247.7 207.5,-247.7 207.5,-225.7 146.5,-225.7"/>
<text text-anchor="start" x="149.494" y="-233.4" font-family="Helvetica,sans-Serif" font-size="11.00" fill="#000000">varchar[64]</text>
<polygon fill="none" stroke="#000000" points="10.5,-203.7 10.5,-225.7 146.5,-225.7 146.5,-203.7 10.5,-203.7"/>
<text text-anchor="start" x="30.5" y="-210.8" font-family="Helvetica,sans-Serif" font-size="11.00" fill="#000000">last_name</text>
<polygon fill="none" stroke="#000000" points="146.5,-203.7 146.5,-225.7 207.5,-225.7 207.5,-203.7 146.5,-203.7"/>
<text text-anchor="start" x="149.494" y="-211.4" font-family="Helvetica,sans-Serif" font-size="11.00" fill="#000000">varchar[64]</text>
<polygon fill="none" stroke="#000000" points="10.5,-181.7 10.5,-203.7 146.5,-203.7 146.5,-181.7 10.5,-181.7"/>
<text text-anchor="start" x="30.5" y="-188.8" font-family="Helvetica,sans-Serif" font-size="11.00" fill="#000000">prison_code</text>
<polygon fill="none" stroke="#000000" points="146.5,-181.7 146.5,-203.7 207.5,-203.7 207.5,-181.7 146.5,-181.7"/>
<text text-anchor="start" x="149.5" y="-189.4" font-family="Helvetica,sans-Serif" font-size="11.00" fill="#000000">varchar[6]</text>
<polygon fill="none" stroke="#000000" points="10.5,-159.7 10.5,-181.7 146.5,-181.7 146.5,-159.7 10.5,-159.7"/>
<text text-anchor="start" x="30.5" y="-166.8" font-family="Helvetica,sans-Serif" font-size="11.00" fill="#000000">cell_location</text>
<polygon fill="none" stroke="#000000" points="146.5,-159.7 146.5,-181.7 207.5,-181.7 207.5,-159.7 146.5,-159.7"/>
<text text-anchor="start" x="149.494" y="-167.4" font-family="Helvetica,sans-Serif" font-size="11.00" fill="#000000">varchar[64]</text>
<polygon fill="#ffffff" stroke="transparent" points="10.5,-140.7 10.5,-159.7 82.5,-159.7 82.5,-140.7 10.5,-140.7"/>
<polygon fill="none" stroke="#000000" points="10.5,-140.7 10.5,-159.7 82.5,-159.7 82.5,-140.7 10.5,-140.7"/>
<text text-anchor="start" x="13.5" y="-146.8" font-family="Helvetica,sans-Serif" font-size="11.00" fill="#000000">&lt; 0</text>
<polygon fill="#ffffff" stroke="transparent" points="82.5,-140.7 82.5,-159.7 146.5,-159.7 146.5,-140.7 82.5,-140.7"/>
<polygon fill="none" stroke="#000000" points="82.5,-140.7 82.5,-159.7 146.5,-159.7 146.5,-140.7 82.5,-140.7"/>
<text text-anchor="start" x="137.3862" y="-146.8" font-family="Helvetica,sans-Serif" font-size="11.00" fill="#000000"> &#160;</text>
<polygon fill="#ffffff" stroke="transparent" points="146.5,-140.7 146.5,-159.7 207.5,-159.7 207.5,-140.7 146.5,-140.7"/>
<polygon fill="none" stroke="#000000" points="146.5,-140.7 146.5,-159.7 207.5,-159.7 207.5,-140.7 146.5,-140.7"/>
<text text-anchor="start" x="188.9053" y="-146.8" font-family="Helvetica,sans-Serif" font-size="11.00" fill="#000000">4 &gt;</text>
<polygon fill="none" stroke="#000000" stroke-width="2" points="9,-139.7 9,-315.7 208,-315.7 208,-139.7 9,-139.7"/>
</a>
</g>
</g>
<!-- court_appearance&#45;&gt;person_summary -->
<g id="edge1" class="edge">
<title>court_appearance:w&#45;&gt;person_summary:e</title>
<path fill="none" stroke="#000000" d="M303.5213,-370.8623C256.4299,-357.8958 266.0376,-280.7 207.5,-280.7"/>
<polygon fill="#000000" stroke="#000000" points="310.0637,-371.6926 317.5467,-376.2713 314.0318,-372.1963 318,-372.7 318,-372.7 318,-372.7 314.0318,-372.1963 318.4533,-369.1287 310.0637,-371.6926 310.0637,-371.6926"/>
<ellipse fill="none" stroke="#000000" cx="306.8891" cy="-371.2897" rx="3.2" ry="3.2"/>
</g>
<!-- court_appearance_audit -->
<g id="node3" class="node">
<title>court_appearance_audit</title>
<g id="a_node3"><a xlink:href="../../tables/court_appearance_audit.html" xlink:title="court_appearance_audit" target="_top">
<polygon fill="#ffffff" stroke="transparent" points="297,-450.2 297,-599.2 497,-599.2 497,-450.2 297,-450.2"/>
<polygon fill="#f5f5f5" stroke="transparent" points="297,-575.7 297,-598.7 497,-598.7 497,-575.7 297,-575.7"/>
<polygon fill="none" stroke="#000000" points="297,-575.7 297,-598.7 497,-598.7 497,-575.7 297,-575.7"/>
<text text-anchor="start" x="302" y="-584.3" font-family="Helvetica,sans-Serif" font-weight="bold" font-size="11.00" fill="#000000">court_appearance_audit</text>
<text text-anchor="start" x="462.5219" y="-583.8" font-family="Helvetica,sans-Serif" font-size="11.00" fill="#000000">[table]</text>
<polygon fill="none" stroke="#000000" points="297,-553.7 297,-575.7 497,-575.7 497,-553.7 297,-553.7"/>
<image xlink:href="../../images/primaryKeys.png" width="11px" height="12px" preserveAspectRatio="xMinYMin meet" x="302" y="-570.7"/>
<text text-anchor="start" x="326" y="-560.8" font-family="Helvetica,sans-Serif" font-size="11.00" fill="#000000">rev_id</text>
<polygon fill="none" stroke="#000000" points="297,-531.7 297,-553.7 497,-553.7 497,-531.7 297,-531.7"/>
<image xlink:href="../../images/primaryKeys.png" width="11px" height="12px" preserveAspectRatio="xMinYMin meet" x="302" y="-548.7"/>
<text text-anchor="start" x="326" y="-538.8" font-family="Helvetica,sans-Serif" font-size="11.00" fill="#000000">id</text>
<polygon fill="none" stroke="#000000" points="297,-509.7 297,-531.7 497,-531.7 497,-509.7 297,-509.7"/>
<image xlink:href="../../images/foreignKeys.png" width="11px" height="12px" preserveAspectRatio="xMinYMin meet" x="302" y="-526.7"/>
<text text-anchor="start" x="326" y="-516.8" font-family="Helvetica,sans-Serif" font-size="11.00" fill="#000000">person_identifier</text>
<polygon fill="none" stroke="#000000" points="297,-487.7 297,-509.7 497,-509.7 497,-487.7 297,-487.7"/>
<image xlink:href="../../images/foreignKeys.png" width="11px" height="12px" preserveAspectRatio="xMinYMin meet" x="302" y="-504.7"/>
<text text-anchor="start" x="326" y="-494.8" font-family="Helvetica,sans-Serif" font-size="11.00" fill="#000000">legacy_id</text>
<polygon fill="none" stroke="#000000" points="297,-468.7 297,-487.7 497,-487.7 497,-468.7 297,-468.7"/>
<text text-anchor="start" x="300" y="-474.8" font-family="Helvetica,sans-Serif" font-size="11.00" fill="#000000">...</text>
<polygon fill="#ffffff" stroke="transparent" points="297,-449.7 297,-468.7 395,-468.7 395,-449.7 297,-449.7"/>
<polygon fill="none" stroke="#000000" points="297,-449.7 297,-468.7 395,-468.7 395,-449.7 297,-449.7"/>
<text text-anchor="start" x="300" y="-455.8" font-family="Helvetica,sans-Serif" font-size="11.00" fill="#000000">&lt; 3</text>
<polygon fill="#ffffff" stroke="transparent" points="395,-449.7 395,-468.7 446,-468.7 446,-449.7 395,-449.7"/>
<polygon fill="none" stroke="#000000" points="395,-449.7 395,-468.7 446,-468.7 446,-449.7 395,-449.7"/>
<text text-anchor="start" x="436.8862" y="-455.8" font-family="Helvetica,sans-Serif" font-size="11.00" fill="#000000"> &#160;</text>
<polygon fill="#ffffff" stroke="transparent" points="446,-449.7 446,-468.7 497,-468.7 497,-449.7 446,-449.7"/>
<polygon fill="none" stroke="#000000" points="446,-449.7 446,-468.7 497,-468.7 497,-449.7 446,-449.7"/>
<text text-anchor="start" x="487.8862" y="-455.8" font-family="Helvetica,sans-Serif" font-size="11.00" fill="#000000"> &#160;</text>
</a>
</g>
</g>
<!-- court_appearance_audit&#45;&gt;person_summary -->
<g id="edge2" class="edge">
<title>court_appearance_audit:w&#45;&gt;person_summary:e</title>
<path fill="none" stroke="#000000" stroke-dasharray="5,2" d="M282.6547,-518.4327C257.7753,-509.1397 263.7761,-472.8852 250,-439.7 221.9549,-372.1423 280.6476,-280.7 207.5,-280.7"/>
<polygon fill="#000000" stroke="#000000" points="289.0981,-519.4511 296.438,-524.2559 293.049,-520.0755 297,-520.7 297,-520.7 297,-520.7 293.049,-520.0755 297.562,-517.1441 289.0981,-519.4511 289.0981,-519.4511"/>
<ellipse fill="none" stroke="#000000" cx="285.9373" cy="-518.9515" rx="3.2" ry="3.2"/>
</g>
<!-- court_appearance_movement -->
<g id="node4" class="node">
<title>court_appearance_movement</title>
<g id="a_node4"><a xlink:href="../../tables/court_appearance_movement.html" xlink:title="court_appearance_movement" target="_top">
<polygon fill="#ffffff" stroke="transparent" points="585,-210.2 585,-359.2 822,-359.2 822,-210.2 585,-210.2"/>
<polygon fill="#f5f5f5" stroke="transparent" points="585.5,-335.7 585.5,-358.7 822.5,-358.7 822.5,-335.7 585.5,-335.7"/>
<polygon fill="none" stroke="#000000" points="585.5,-335.7 585.5,-358.7 822.5,-358.7 822.5,-335.7 585.5,-335.7"/>
<text text-anchor="start" x="590.5" y="-344.3" font-family="Helvetica,sans-Serif" font-weight="bold" font-size="11.00" fill="#000000">court_appearance_movement</text>
<text text-anchor="start" x="788.0219" y="-343.8" font-family="Helvetica,sans-Serif" font-size="11.00" fill="#000000">[table]</text>
<polygon fill="none" stroke="#000000" points="585.5,-313.7 585.5,-335.7 822.5,-335.7 822.5,-313.7 585.5,-313.7"/>
<image xlink:href="../../images/primaryKeys.png" width="11px" height="12px" preserveAspectRatio="xMinYMin meet" x="590.5" y="-330.7"/>
<text text-anchor="start" x="614.5" y="-320.8" font-family="Helvetica,sans-Serif" font-size="11.00" fill="#000000">id</text>
<polygon fill="none" stroke="#000000" points="585.5,-291.7 585.5,-313.7 822.5,-313.7 822.5,-291.7 585.5,-291.7"/>
<image xlink:href="../../images/foreignKeys.png" width="11px" height="12px" preserveAspectRatio="xMinYMin meet" x="590.5" y="-308.7"/>
<text text-anchor="start" x="614.5" y="-298.8" font-family="Helvetica,sans-Serif" font-size="11.00" fill="#000000">court_appearance_id</text>
<polygon fill="#ffffff" stroke="transparent" points="585.5,-269.7 585.5,-291.7 822.5,-291.7 822.5,-269.7 585.5,-269.7"/>
<polygon fill="none" stroke="#000000" points="585.5,-269.7 585.5,-291.7 822.5,-291.7 822.5,-269.7 585.5,-269.7"/>
<image xlink:href="../../images/foreignKeys.png" width="11px" height="12px" preserveAspectRatio="xMinYMin meet" x="590.5" y="-286.7"/>
<text text-anchor="start" x="614.5" y="-276.8" font-family="Helvetica,sans-Serif" font-size="11.00" fill="#000000">person_identifier</text>
<polygon fill="#ffffff" stroke="transparent" points="585.5,-247.7 585.5,-269.7 822.5,-269.7 822.5,-247.7 585.5,-247.7"/>
<polygon fill="none" stroke="#000000" points="585.5,-247.7 585.5,-269.7 822.5,-269.7 822.5,-247.7 585.5,-247.7"/>
<text text-anchor="start" x="614.5" y="-254.8" font-family="Helvetica,sans-Serif" font-size="11.00" fill="#000000">legacy_id</text>
<polygon fill="none" stroke="#000000" points="585.5,-228.7 585.5,-247.7 822.5,-247.7 822.5,-228.7 585.5,-228.7"/>
<text text-anchor="start" x="588.5" y="-234.8" font-family="Helvetica,sans-Serif" font-size="11.00" fill="#000000">...</text>
<polygon fill="#ffffff" stroke="transparent" points="585.5,-209.7 585.5,-228.7 702.5,-228.7 702.5,-209.7 585.5,-209.7"/>
<polygon fill="none" stroke="#000000" points="585.5,-209.7 585.5,-228.7 702.5,-228.7 702.5,-209.7 585.5,-209.7"/>
<text text-anchor="start" x="588.5" y="-215.8" font-family="Helvetica,sans-Serif" font-size="11.00" fill="#000000">&lt; 2</text>
<polygon fill="#ffffff" stroke="transparent" points="702.5,-209.7 702.5,-228.7 762.5,-228.7 762.5,-209.7 702.5,-209.7"/>
<polygon fill="none" stroke="#000000" points="702.5,-209.7 702.5,-228.7 762.5,-228.7 762.5,-209.7 702.5,-209.7"/>
<text text-anchor="start" x="753.3862" y="-215.8" font-family="Helvetica,sans-Serif" font-size="11.00" fill="#000000"> &#160;</text>
<polygon fill="#ffffff" stroke="transparent" points="762.5,-209.7 762.5,-228.7 822.5,-228.7 822.5,-209.7 762.5,-209.7"/>
<polygon fill="none" stroke="#000000" points="762.5,-209.7 762.5,-228.7 822.5,-228.7 822.5,-209.7 762.5,-209.7"/>
<text text-anchor="start" x="813.3862" y="-215.8" font-family="Helvetica,sans-Serif" font-size="11.00" fill="#000000"> &#160;</text>
</a>
</g>
</g>
<!-- court_appearance_movement&#45;&gt;court_appearance -->
<g id="edge3" class="edge">
<title>court_appearance_movement:w&#45;&gt;court_appearance:e</title>
<path fill="none" stroke="#000000" d="M571.1919,-304.5377C524.7181,-317.5042 534.9142,-394.7 477,-394.7"/>
<polygon fill="#000000" stroke="#000000" points="577.5652,-303.7192 585.9586,-306.2707 581.5326,-303.2096 585.5,-302.7 585.5,-302.7 585.5,-302.7 581.5326,-303.2096 585.0414,-299.1293 577.5652,-303.7192 577.5652,-303.7192"/>
<ellipse fill="none" stroke="#000000" cx="574.3913" cy="-304.1269" rx="3.2" ry="3.2"/>
</g>
<!-- court_appearance_movement&#45;&gt;person_summary -->
<g id="edge4" class="edge">
<title>court_appearance_movement:w&#45;&gt;person_summary:e</title>
<path fill="none" stroke="#000000" d="M571.3977,-276.5076C554.9893,-262.9732 571.9033,-220.3592 544,-203.7 487.9038,-170.2088 306.2631,-170.49 250,-203.7 216.3377,-223.5696 246.589,-280.7 207.5,-280.7"/>
<polygon fill="#000000" stroke="#000000" points="577.8317,-278.4203 584.4741,-284.1507 581.6658,-279.5601 585.5,-280.7 585.5,-280.7 585.5,-280.7 581.6658,-279.5601 586.5259,-277.2493 577.8317,-278.4203 577.8317,-278.4203"/>
<ellipse fill="none" stroke="#000000" cx="574.7644" cy="-277.5084" rx="3.2" ry="3.2"/>
</g>
<!-- court_appearance_movement_audit -->
<g id="node5" class="node">
<title>court_appearance_movement_audit</title>
<g id="a_node5"><a xlink:href="../../tables/court_appearance_movement_audit.html" xlink:title="court_appearance_movement_audit" target="_top">
<polygon fill="#ffffff" stroke="transparent" points="258,-38.2 258,-165.2 536,-165.2 536,-38.2 258,-38.2"/>
<polygon fill="#f5f5f5" stroke="transparent" points="258,-141.7 258,-164.7 536,-164.7 536,-141.7 258,-141.7"/>
<polygon fill="none" stroke="#000000" points="258,-141.7 258,-164.7 536,-164.7 536,-141.7 258,-141.7"/>
<text text-anchor="start" x="263" y="-150.3" font-family="Helvetica,sans-Serif" font-weight="bold" font-size="11.00" fill="#000000">court_appearance_movement_audit</text>
<text text-anchor="start" x="501.5219" y="-149.8" font-family="Helvetica,sans-Serif" font-size="11.00" fill="#000000">[table]</text>
<polygon fill="none" stroke="#000000" points="258,-119.7 258,-141.7 536,-141.7 536,-119.7 258,-119.7"/>
<image xlink:href="../../images/primaryKeys.png" width="11px" height="12px" preserveAspectRatio="xMinYMin meet" x="263" y="-136.7"/>
<text text-anchor="start" x="287" y="-126.8" font-family="Helvetica,sans-Serif" font-size="11.00" fill="#000000">rev_id</text>
<polygon fill="none" stroke="#000000" points="258,-97.7 258,-119.7 536,-119.7 536,-97.7 258,-97.7"/>
<image xlink:href="../../images/primaryKeys.png" width="11px" height="12px" preserveAspectRatio="xMinYMin meet" x="263" y="-114.7"/>
<text text-anchor="start" x="287" y="-104.8" font-family="Helvetica,sans-Serif" font-size="11.00" fill="#000000">id</text>
<polygon fill="none" stroke="#000000" points="258,-75.7 258,-97.7 536,-97.7 536,-75.7 258,-75.7"/>
<image xlink:href="../../images/foreignKeys.png" width="11px" height="12px" preserveAspectRatio="xMinYMin meet" x="263" y="-92.7"/>
<text text-anchor="start" x="287" y="-82.8" font-family="Helvetica,sans-Serif" font-size="11.00" fill="#000000">person_identifier</text>
<polygon fill="none" stroke="#000000" points="258,-56.7 258,-75.7 536,-75.7 536,-56.7 258,-56.7"/>
<text text-anchor="start" x="261" y="-62.8" font-family="Helvetica,sans-Serif" font-size="11.00" fill="#000000">...</text>
<polygon fill="#ffffff" stroke="transparent" points="258,-37.7 258,-56.7 395,-56.7 395,-37.7 258,-37.7"/>
<polygon fill="none" stroke="#000000" points="258,-37.7 258,-56.7 395,-56.7 395,-37.7 258,-37.7"/>
<text text-anchor="start" x="261" y="-43.8" font-family="Helvetica,sans-Serif" font-size="11.00" fill="#000000">&lt; 2</text>
<polygon fill="#ffffff" stroke="transparent" points="395,-37.7 395,-56.7 465,-56.7 465,-37.7 395,-37.7"/>
<polygon fill="none" stroke="#000000" points="395,-37.7 395,-56.7 465,-56.7 465,-37.7 395,-37.7"/>
<text text-anchor="start" x="455.8862" y="-43.8" font-family="Helvetica,sans-Serif" font-size="11.00" fill="#000000"> &#160;</text>
<polygon fill="#ffffff" stroke="transparent" points="465,-37.7 465,-56.7 536,-56.7 536,-37.7 465,-37.7"/>
<polygon fill="none" stroke="#000000" points="465,-37.7 465,-56.7 536,-56.7 536,-37.7 465,-37.7"/>
<text text-anchor="start" x="526.8862" y="-43.8" font-family="Helvetica,sans-Serif" font-size="11.00" fill="#000000"> &#160;</text>
</a>
</g>
</g>
<!-- court_appearance_movement_audit&#45;&gt;person_summary -->
<g id="edge5" class="edge">
<title>court_appearance_movement_audit:w&#45;&gt;person_summary:e</title>
<path fill="none" stroke="#000000" stroke-dasharray="5,2" d="M243.7292,-88.8787C184.019,-110.1922 291.0271,-280.7 207.5,-280.7"/>
<polygon fill="#000000" stroke="#000000" points="250.0916,-87.9074 258.5433,-90.2588 254.0458,-87.3037 258,-86.7 258,-86.7 258,-86.7 254.0458,-87.3037 257.4567,-83.1412 250.0916,-87.9074 250.0916,-87.9074"/>
<ellipse fill="none" stroke="#000000" cx="246.9283" cy="-88.3904" rx="3.2" ry="3.2"/>
</g>
</g>
</svg>
