<?xml version="1.0" encoding="UTF-8" standalone="no"?>
<!DOCTYPE svg PUBLIC "-//W3C//DTD SVG 1.1//EN"
 "http://www.w3.org/Graphics/SVG/1.1/DTD/svg11.dtd">
<!-- Generated by graphviz version 2.40.1 (20161225.0304)
 -->
<!-- Title: oneDegreeRelationshipsDiagram Pages: 1 -->
<svg width="719pt" height="352pt"
 viewBox="0.00 0.00 719.00 351.70" xmlns="http://www.w3.org/2000/svg" xmlns:xlink="http://www.w3.org/1999/xlink">
<g id="graph0" class="graph" transform="scale(1 1) rotate(0) translate(4 347.7)">
<title>oneDegreeRelationshipsDiagram</title>
<polygon fill="#ffffff" stroke="transparent" points="-4,4 -4,-347.7 715,-347.7 715,4 -4,4"/>
<text text-anchor="middle" x="72.4936" y="-7.3" font-family="Helvetica,sans-Serif" font-size="11.00" fill="#000000">Generated by SchemaSpy</text>
<!-- court_appearance -->
<g id="node1" class="node">
<title>court_appearance</title>
<g id="a_node1"><a xlink:href="../../tables/court_appearance.html" xlink:title="court_appearance" target="_top">
<polygon fill="#ffffff" stroke="transparent" points="258,-102.7 258,-339.7 417,-339.7 417,-102.7 258,-102.7"/>
<polygon fill="#f5f5f5" stroke="transparent" points="258.5,-316.2 258.5,-339.2 417.5,-339.2 417.5,-316.2 258.5,-316.2"/>
<polygon fill="none" stroke="#000000" points="258.5,-316.2 258.5,-339.2 417.5,-339.2 417.5,-316.2 258.5,-316.2"/>
<text text-anchor="start" x="263.5" y="-324.8" font-family="Helvetica,sans-Serif" font-weight="bold" font-size="11.00" fill="#000000">court_appearance</text>
<text text-anchor="start" x="383.0219" y="-324.3" font-family="Helvetica,sans-Serif" font-size="11.00" fill="#000000">[table]</text>
<polygon fill="none" stroke="#000000" points="258.5,-294.2 258.5,-316.2 417.5,-316.2 417.5,-294.2 258.5,-294.2"/>
<image xlink:href="../../images/primaryKeys.png" width="11px" height="12px" preserveAspectRatio="xMinYMin meet" x="263.5" y="-311.2"/>
<text text-anchor="start" x="284.5" y="-301.3" font-family="Helvetica,sans-Serif" font-size="11.00" fill="#000000">id</text>
<polygon fill="#ffffff" stroke="transparent" points="258.5,-272.2 258.5,-294.2 417.5,-294.2 417.5,-272.2 258.5,-272.2"/>
<polygon fill="none" stroke="#000000" points="258.5,-272.2 258.5,-294.2 417.5,-294.2 417.5,-272.2 258.5,-272.2"/>
<image xlink:href="../../images/foreignKeys.png" width="11px" height="12px" preserveAspectRatio="xMinYMin meet" x="263.5" y="-289.2"/>
<text text-anchor="start" x="284.5" y="-279.3" font-family="Helvetica,sans-Serif" font-size="11.00" fill="#000000">person_identifier</text>
<polygon fill="#ffffff" stroke="transparent" points="258.5,-250.2 258.5,-272.2 417.5,-272.2 417.5,-250.2 258.5,-250.2"/>
<polygon fill="none" stroke="#000000" points="258.5,-250.2 258.5,-272.2 417.5,-272.2 417.5,-250.2 258.5,-250.2"/>
<text text-anchor="start" x="284.5" y="-257.3" font-family="Helvetica,sans-Serif" font-size="11.00" fill="#000000">prison_code</text>
<polygon fill="#ffffff" stroke="transparent" points="258.5,-228.2 258.5,-250.2 417.5,-250.2 417.5,-228.2 258.5,-228.2"/>
<polygon fill="none" stroke="#000000" points="258.5,-228.2 258.5,-250.2 417.5,-250.2 417.5,-228.2 258.5,-228.2"/>
<image xlink:href="../../images/foreignKeys.png" width="11px" height="12px" preserveAspectRatio="xMinYMin meet" x="263.5" y="-245.2"/>
<text text-anchor="start" x="284.5" y="-235.3" font-family="Helvetica,sans-Serif" font-size="11.00" fill="#000000">reason_id</text>
<polygon fill="#ffffff" stroke="transparent" points="258.5,-206.2 258.5,-228.2 417.5,-228.2 417.5,-206.2 258.5,-206.2"/>
<polygon fill="none" stroke="#000000" points="258.5,-206.2 258.5,-228.2 417.5,-228.2 417.5,-206.2 258.5,-206.2"/>
<image xlink:href="../../images/foreignKeys.png" width="11px" height="12px" preserveAspectRatio="xMinYMin meet" x="263.5" y="-223.2"/>
<text text-anchor="start" x="284.5" y="-213.3" font-family="Helvetica,sans-Serif" font-size="11.00" fill="#000000">status_id</text>
<polygon fill="#ffffff" stroke="transparent" points="258.5,-184.2 258.5,-206.2 417.5,-206.2 417.5,-184.2 258.5,-184.2"/>
<polygon fill="none" stroke="#000000" points="258.5,-184.2 258.5,-206.2 417.5,-206.2 417.5,-184.2 258.5,-184.2"/>
<text text-anchor="start" x="284.5" y="-191.3" font-family="Helvetica,sans-Serif" font-size="11.00" fill="#000000">start</text>
<polygon fill="#ffffff" stroke="transparent" points="258.5,-162.2 258.5,-184.2 417.5,-184.2 417.5,-162.2 258.5,-162.2"/>
<polygon fill="none" stroke="#000000" points="258.5,-162.2 258.5,-184.2 417.5,-184.2 417.5,-162.2 258.5,-162.2"/>
<image xlink:href="../../images/foreignKeys.png" width="11px" height="12px" preserveAspectRatio="xMinYMin meet" x="263.5" y="-179.2"/>
<text text-anchor="start" x="284.5" y="-169.3" font-family="Helvetica,sans-Serif" font-size="11.00" fill="#000000">legacy_id</text>
<polygon fill="#ffffff" stroke="transparent" points="258.5,-140.2 258.5,-162.2 417.5,-162.2 417.5,-140.2 258.5,-140.2"/>
<polygon fill="none" stroke="#000000" points="258.5,-140.2 258.5,-162.2 417.5,-162.2 417.5,-140.2 258.5,-140.2"/>
<text text-anchor="start" x="284.5" y="-147.3" font-family="Helvetica,sans-Serif" font-size="11.00" fill="#000000">external_reference</text>
<polygon fill="none" stroke="#000000" points="258.5,-121.2 258.5,-140.2 417.5,-140.2 417.5,-121.2 258.5,-121.2"/>
<text text-anchor="start" x="261.5" y="-127.3" font-family="Helvetica,sans-Serif" font-size="11.00" fill="#000000">...</text>
<polygon fill="#ffffff" stroke="transparent" points="258.5,-102.2 258.5,-121.2 331.5,-121.2 331.5,-102.2 258.5,-102.2"/>
<polygon fill="none" stroke="#000000" points="258.5,-102.2 258.5,-121.2 331.5,-121.2 331.5,-102.2 258.5,-102.2"/>
<text text-anchor="start" x="261.5" y="-108.3" font-family="Helvetica,sans-Serif" font-size="11.00" fill="#000000">&lt; 3</text>
<polygon fill="#ffffff" stroke="transparent" points="331.5,-102.2 331.5,-121.2 369.5,-121.2 369.5,-102.2 331.5,-102.2"/>
<polygon fill="none" stroke="#000000" points="331.5,-102.2 331.5,-121.2 369.5,-121.2 369.5,-102.2 331.5,-102.2"/>
<text text-anchor="start" x="360.3862" y="-108.3" font-family="Helvetica,sans-Serif" font-size="11.00" fill="#000000"> &#160;</text>
<polygon fill="#ffffff" stroke="transparent" points="369.5,-102.2 369.5,-121.2 417.5,-121.2 417.5,-102.2 369.5,-102.2"/>
<polygon fill="none" stroke="#000000" points="369.5,-102.2 369.5,-121.2 417.5,-121.2 417.5,-102.2 369.5,-102.2"/>
<text text-anchor="start" x="398.9053" y="-108.3" font-family="Helvetica,sans-Serif" font-size="11.00" fill="#000000">1 &gt;</text>
</a>
</g>
</g>
<!-- person_summary -->
<g id="node2" class="node">
<title>person_summary</title>
<g id="a_node2"><a xlink:href="../../tables/person_summary.html" xlink:title="person_summary" target="_top">
<polygon fill="#ffffff" stroke="transparent" points="8,-38.2 8,-216.2 209,-216.2 209,-38.2 8,-38.2"/>
<polygon fill="#f5f5f5" stroke="transparent" points="10.5,-191.2 10.5,-214.2 207.5,-214.2 207.5,-191.2 10.5,-191.2"/>
<polygon fill="none" stroke="#000000" points="10.5,-191.2 10.5,-214.2 207.5,-214.2 207.5,-191.2 10.5,-191.2"/>
<text text-anchor="start" x="15.5" y="-199.8" font-family="Helvetica,sans-Serif" font-weight="bold" font-size="11.00" fill="#000000">person_summary</text>
<text text-anchor="start" x="172.5437" y="-199.3" font-family="Helvetica,sans-Serif" font-size="11.00" fill="#000000">[table]</text>
<polygon fill="none" stroke="#000000" points="10.5,-169.2 10.5,-191.2 146.5,-191.2 146.5,-169.2 10.5,-169.2"/>
<image xlink:href="../../images/primaryKeys.png" width="11px" height="12px" preserveAspectRatio="xMinYMin meet" x="15.5" y="-186.2"/>
<text text-anchor="start" x="30.5" y="-176.3" font-family="Helvetica,sans-Serif" font-size="11.00" fill="#000000">person_identifier</text>
<polygon fill="none" stroke="#000000" points="146.5,-169.2 146.5,-191.2 207.5,-191.2 207.5,-169.2 146.5,-169.2"/>
<text text-anchor="start" x="149.494" y="-176.9" font-family="Helvetica,sans-Serif" font-size="11.00" fill="#000000">varchar[10]</text>
<polygon fill="none" stroke="#000000" points="10.5,-147.2 10.5,-169.2 146.5,-169.2 146.5,-147.2 10.5,-147.2"/>
<text text-anchor="start" x="30.5" y="-154.3" font-family="Helvetica,sans-Serif" font-size="11.00" fill="#000000">version</text>
<polygon fill="none" stroke="#000000" points="146.5,-147.2 146.5,-169.2 207.5,-169.2 207.5,-147.2 146.5,-147.2"/>
<text text-anchor="start" x="149.5" y="-154.9" font-family="Helvetica,sans-Serif" font-size="11.00" fill="#000000">int4[10]</text>
<polygon fill="none" stroke="#000000" points="10.5,-125.2 10.5,-147.2 146.5,-147.2 146.5,-125.2 10.5,-125.2"/>
<text text-anchor="start" x="30.5" y="-132.3" font-family="Helvetica,sans-Serif" font-size="11.00" fill="#000000">first_name</text>
<polygon fill="none" stroke="#000000" points="146.5,-125.2 146.5,-147.2 207.5,-147.2 207.5,-125.2 146.5,-125.2"/>
<text text-anchor="start" x="149.494" y="-132.9" font-family="Helvetica,sans-Serif" font-size="11.00" fill="#000000">varchar[64]</text>
<polygon fill="none" stroke="#000000" points="10.5,-103.2 10.5,-125.2 146.5,-125.2 146.5,-103.2 10.5,-103.2"/>
<text text-anchor="start" x="30.5" y="-110.3" font-family="Helvetica,sans-Serif" font-size="11.00" fill="#000000">last_name</text>
<polygon fill="none" stroke="#000000" points="146.5,-103.2 146.5,-125.2 207.5,-125.2 207.5,-103.2 146.5,-103.2"/>
<text text-anchor="start" x="149.494" y="-110.9" font-family="Helvetica,sans-Serif" font-size="11.00" fill="#000000">varchar[64]</text>
<polygon fill="none" stroke="#000000" points="10.5,-81.2 10.5,-103.2 146.5,-103.2 146.5,-81.2 10.5,-81.2"/>
<text text-anchor="start" x="30.5" y="-88.3" font-family="Helvetica,sans-Serif" font-size="11.00" fill="#000000">prison_code</text>
<polygon fill="none" stroke="#000000" points="146.5,-81.2 146.5,-103.2 207.5,-103.2 207.5,-81.2 146.5,-81.2"/>
<text text-anchor="start" x="149.5" y="-88.9" font-family="Helvetica,sans-Serif" font-size="11.00" fill="#000000">varchar[6]</text>
<polygon fill="none" stroke="#000000" points="10.5,-59.2 10.5,-81.2 146.5,-81.2 146.5,-59.2 10.5,-59.2"/>
<text text-anchor="start" x="30.5" y="-66.3" font-family="Helvetica,sans-Serif" font-size="11.00" fill="#000000">cell_location</text>
<polygon fill="none" stroke="#000000" points="146.5,-59.2 146.5,-81.2 207.5,-81.2 207.5,-59.2 146.5,-59.2"/>
<text text-anchor="start" x="149.494" y="-66.9" font-family="Helvetica,sans-Serif" font-size="11.00" fill="#000000">varchar[64]</text>
<polygon fill="#ffffff" stroke="transparent" points="10.5,-40.2 10.5,-59.2 82.5,-59.2 82.5,-40.2 10.5,-40.2"/>
<polygon fill="none" stroke="#000000" points="10.5,-40.2 10.5,-59.2 82.5,-59.2 82.5,-40.2 10.5,-40.2"/>
<text text-anchor="start" x="13.5" y="-46.3" font-family="Helvetica,sans-Serif" font-size="11.00" fill="#000000">&lt; 0</text>
<polygon fill="#ffffff" stroke="transparent" points="82.5,-40.2 82.5,-59.2 146.5,-59.2 146.5,-40.2 82.5,-40.2"/>
<polygon fill="none" stroke="#000000" points="82.5,-40.2 82.5,-59.2 146.5,-59.2 146.5,-40.2 82.5,-40.2"/>
<text text-anchor="start" x="137.3862" y="-46.3" font-family="Helvetica,sans-Serif" font-size="11.00" fill="#000000"> &#160;</text>
<polygon fill="#ffffff" stroke="transparent" points="146.5,-40.2 146.5,-59.2 207.5,-59.2 207.5,-40.2 146.5,-40.2"/>
<polygon fill="none" stroke="#000000" points="146.5,-40.2 146.5,-59.2 207.5,-59.2 207.5,-40.2 146.5,-40.2"/>
<text text-anchor="start" x="188.9053" y="-46.3" font-family="Helvetica,sans-Serif" font-size="11.00" fill="#000000">2 &gt;</text>
<polygon fill="none" stroke="#000000" stroke-width="2" points="9,-39.2 9,-215.2 208,-215.2 208,-39.2 9,-39.2"/>
</a>
</g>
</g>
<!-- court_appearance&#45;&gt;person_summary -->
<g id="edge1" class="edge">
<title>court_appearance:w&#45;&gt;person_summary:e</title>
<path fill="none" stroke="#000000" d="M244.4248,-279.2881C218.0054,-260.4739 252.5959,-180.2 207.5,-180.2"/>
<polygon fill="#000000" stroke="#000000" points="250.7922,-281.0577 257.536,-286.6685 254.6461,-282.1289 258.5,-283.2 258.5,-283.2 258.5,-283.2 254.6461,-282.1289 259.464,-279.7315 250.7922,-281.0577 250.7922,-281.0577"/>
<ellipse fill="none" stroke="#000000" cx="247.709" cy="-280.2008" rx="3.2" ry="3.2"/>
</g>
<!-- court_appearance_movement -->
<g id="node3" class="node">
<title>court_appearance_movement</title>
<g id="a_node3"><a xlink:href="../../tables/court_appearance_movement.html" xlink:title="court_appearance_movement" target="_top">
<polygon fill="#ffffff" stroke="transparent" points="466,-87.7 466,-258.7 703,-258.7 703,-87.7 466,-87.7"/>
<polygon fill="#f5f5f5" stroke="transparent" points="466.5,-235.2 466.5,-258.2 703.5,-258.2 703.5,-235.2 466.5,-235.2"/>
<polygon fill="none" stroke="#000000" points="466.5,-235.2 466.5,-258.2 703.5,-258.2 703.5,-235.2 466.5,-235.2"/>
<text text-anchor="start" x="471.5" y="-243.8" font-family="Helvetica,sans-Serif" font-weight="bold" font-size="11.00" fill="#000000">court_appearance_movement</text>
<text text-anchor="start" x="669.0219" y="-243.3" font-family="Helvetica,sans-Serif" font-size="11.00" fill="#000000">[table]</text>
<polygon fill="none" stroke="#000000" points="466.5,-213.2 466.5,-235.2 703.5,-235.2 703.5,-213.2 466.5,-213.2"/>
<image xlink:href="../../images/primaryKeys.png" width="11px" height="12px" preserveAspectRatio="xMinYMin meet" x="471.5" y="-230.2"/>
<text text-anchor="start" x="495.5" y="-220.3" font-family="Helvetica,sans-Serif" font-size="11.00" fill="#000000">id</text>
<polygon fill="#ffffff" stroke="transparent" points="466.5,-191.2 466.5,-213.2 703.5,-213.2 703.5,-191.2 466.5,-191.2"/>
<polygon fill="none" stroke="#000000" points="466.5,-191.2 466.5,-213.2 703.5,-213.2 703.5,-191.2 466.5,-191.2"/>
<image xlink:href="../../images/foreignKeys.png" width="11px" height="12px" preserveAspectRatio="xMinYMin meet" x="471.5" y="-208.2"/>
<text text-anchor="start" x="495.5" y="-198.3" font-family="Helvetica,sans-Serif" font-size="11.00" fill="#000000">court_appearance_id</text>
<polygon fill="#ffffff" stroke="transparent" points="466.5,-169.2 466.5,-191.2 703.5,-191.2 703.5,-169.2 466.5,-169.2"/>
<polygon fill="none" stroke="#000000" points="466.5,-169.2 466.5,-191.2 703.5,-191.2 703.5,-169.2 466.5,-169.2"/>
<image xlink:href="../../images/foreignKeys.png" width="11px" height="12px" preserveAspectRatio="xMinYMin meet" x="471.5" y="-186.2"/>
<text text-anchor="start" x="495.5" y="-176.3" font-family="Helvetica,sans-Serif" font-size="11.00" fill="#000000">person_identifier</text>
<polygon fill="none" stroke="#000000" points="466.5,-147.2 466.5,-169.2 703.5,-169.2 703.5,-147.2 466.5,-147.2"/>
<image xlink:href="../../images/foreignKeys.png" width="11px" height="12px" preserveAspectRatio="xMinYMin meet" x="471.5" y="-164.2"/>
<text text-anchor="start" x="495.5" y="-154.3" font-family="Helvetica,sans-Serif" font-size="11.00" fill="#000000">reason_id</text>
<polygon fill="#ffffff" stroke="transparent" points="466.5,-125.2 466.5,-147.2 703.5,-147.2 703.5,-125.2 466.5,-125.2"/>
<polygon fill="none" stroke="#000000" points="466.5,-125.2 466.5,-147.2 703.5,-147.2 703.5,-125.2 466.5,-125.2"/>
<text text-anchor="start" x="495.5" y="-132.3" font-family="Helvetica,sans-Serif" font-size="11.00" fill="#000000">legacy_id</text>
<polygon fill="none" stroke="#000000" points="466.5,-106.2 466.5,-125.2 703.5,-125.2 703.5,-106.2 466.5,-106.2"/>
<text text-anchor="start" x="469.5" y="-112.3" font-family="Helvetica,sans-Serif" font-size="11.00" fill="#000000">...</text>
<polygon fill="#ffffff" stroke="transparent" points="466.5,-87.2 466.5,-106.2 583.5,-106.2 583.5,-87.2 466.5,-87.2"/>
<polygon fill="none" stroke="#000000" points="466.5,-87.2 466.5,-106.2 583.5,-106.2 583.5,-87.2 466.5,-87.2"/>
<text text-anchor="start" x="469.5" y="-93.3" font-family="Helvetica,sans-Serif" font-size="11.00" fill="#000000">&lt; 3</text>
<polygon fill="#ffffff" stroke="transparent" points="583.5,-87.2 583.5,-106.2 643.5,-106.2 643.5,-87.2 583.5,-87.2"/>
<polygon fill="none" stroke="#000000" points="583.5,-87.2 583.5,-106.2 643.5,-106.2 643.5,-87.2 583.5,-87.2"/>
<text text-anchor="start" x="634.3862" y="-93.3" font-family="Helvetica,sans-Serif" font-size="11.00" fill="#000000"> &#160;</text>
<polygon fill="#ffffff" stroke="transparent" points="643.5,-87.2 643.5,-106.2 703.5,-106.2 703.5,-87.2 643.5,-87.2"/>
<polygon fill="none" stroke="#000000" points="643.5,-87.2 643.5,-106.2 703.5,-106.2 703.5,-87.2 643.5,-87.2"/>
<text text-anchor="start" x="694.3862" y="-93.3" font-family="Helvetica,sans-Serif" font-size="11.00" fill="#000000"> &#160;</text>
</a>
</g>
</g>
<!-- court_appearance_movement&#45;&gt;court_appearance -->
<g id="edge2" class="edge">
<title>court_appearance_movement:w&#45;&gt;court_appearance:e</title>
<path fill="none" stroke="#000000" d="M452.593,-206.1119C426.6689,-224.9261 462.2533,-305.2 417.5,-305.2"/>
<polygon fill="#000000" stroke="#000000" points="458.7989,-204.3663 467.4748,-205.6655 462.6494,-203.2832 466.5,-202.2 466.5,-202.2 466.5,-202.2 462.6494,-203.2832 465.5252,-198.7345 458.7989,-204.3663 458.7989,-204.3663"/>
<ellipse fill="none" stroke="#000000" cx="455.7184" cy="-205.2328" rx="3.2" ry="3.2"/>
</g>
<!-- court_appearance_movement&#45;&gt;person_summary -->
<g id="edge3" class="edge">
<title>court_appearance_movement:w&#45;&gt;person_summary:e</title>
<path fill="none" stroke="#000000" d="M452.3864,-176.4579C432.756,-162.3266 456.2419,-112.0083 425,-92.2 359.3125,-50.5522 315.8795,-50.8566 250,-92.2 213.2109,-115.2874 250.9335,-180.2 207.5,-180.2"/>
<polygon fill="#000000" stroke="#000000" points="458.7672,-178.1497 465.5774,-183.6798 462.6336,-179.1749 466.5,-180.2 466.5,-180.2 466.5,-180.2 462.6336,-179.1749 467.4226,-176.7202 458.7672,-178.1497 458.7672,-178.1497"/>
<ellipse fill="none" stroke="#000000" cx="455.6741" cy="-177.3296" rx="3.2" ry="3.2"/>
</g>
</g>
</svg>
