<?xml version="1.0" encoding="UTF-8" standalone="no"?>
<!DOCTYPE svg PUBLIC "-//W3C//DTD SVG 1.1//EN"
 "http://www.w3.org/Graphics/SVG/1.1/DTD/svg11.dtd">
<!-- Generated by graphviz version 2.40.1 (20161225.0304)
 -->
<!-- Title: twoDegreesRelationshipsDiagramImplied Pages: 1 -->
<svg width="848pt" height="542pt"
 viewBox="0.00 0.00 848.00 542.20" xmlns="http://www.w3.org/2000/svg" xmlns:xlink="http://www.w3.org/1999/xlink">
<g id="graph0" class="graph" transform="scale(1 1) rotate(0) translate(4 538.2)">
<title>twoDegreesRelationshipsDiagramImplied</title>
<polygon fill="#ffffff" stroke="transparent" points="-4,4 -4,-538.2 844,-538.2 844,4 -4,4"/>
<text text-anchor="middle" x="72.4936" y="-7.3" font-family="Helvetica,sans-Serif" font-size="11.00" fill="#000000">Generated by SchemaSpy</text>
<!-- court_appearance -->
<g id="node1" class="node">
<title>court_appearance</title>
<g id="a_node1"><a xlink:href="../../tables/court_appearance.html" xlink:title="court_appearance" target="_top">
<polygon fill="#ffffff" stroke="transparent" points="327.5,-118.2 327.5,-179.2 486.5,-179.2 486.5,-118.2 327.5,-118.2"/>
<polygon fill="#f5f5f5" stroke="transparent" points="328,-155.7 328,-178.7 487,-178.7 487,-155.7 328,-155.7"/>
<polygon fill="none" stroke="#000000" points="328,-155.7 328,-178.7 487,-178.7 487,-155.7 328,-155.7"/>
<text text-anchor="start" x="333" y="-164.3" font-family="Helvetica,sans-Serif" font-weight="bold" font-size="11.00" fill="#000000">court_appearance</text>
<text text-anchor="start" x="452.5219" y="-163.8" font-family="Helvetica,sans-Serif" font-size="11.00" fill="#000000">[table]</text>
<polygon fill="none" stroke="#000000" points="328,-136.7 328,-155.7 487,-155.7 487,-136.7 328,-136.7"/>
<text text-anchor="start" x="331" y="-142.8" font-family="Helvetica,sans-Serif" font-size="11.00" fill="#000000">...</text>
<polygon fill="#ffffff" stroke="transparent" points="328,-117.7 328,-136.7 401,-136.7 401,-117.7 328,-117.7"/>
<polygon fill="none" stroke="#000000" points="328,-117.7 328,-136.7 401,-136.7 401,-117.7 328,-117.7"/>
<text text-anchor="start" x="331" y="-123.8" font-family="Helvetica,sans-Serif" font-size="11.00" fill="#000000">&lt; 4</text>
<polygon fill="#ffffff" stroke="transparent" points="401,-117.7 401,-136.7 439,-136.7 439,-117.7 401,-117.7"/>
<polygon fill="none" stroke="#000000" points="401,-117.7 401,-136.7 439,-136.7 439,-117.7 401,-117.7"/>
<text text-anchor="start" x="429.8862" y="-123.8" font-family="Helvetica,sans-Serif" font-size="11.00" fill="#000000"> &#160;</text>
<polygon fill="#ffffff" stroke="transparent" points="439,-117.7 439,-136.7 487,-136.7 487,-117.7 439,-117.7"/>
<polygon fill="none" stroke="#000000" points="439,-117.7 439,-136.7 487,-136.7 487,-117.7 439,-117.7"/>
<text text-anchor="start" x="468.4053" y="-123.8" font-family="Helvetica,sans-Serif" font-size="11.00" fill="#000000">1 &gt;</text>
</a>
</g>
</g>
<!-- audit_revision -->
<g id="node2" class="node">
<title>audit_revision</title>
<g id="a_node2"><a xlink:href="../../tables/audit_revision.html" xlink:title="audit_revision" target="_top">
<polygon fill="#ffffff" stroke="transparent" points="46.5,-402.2 46.5,-463.2 180.5,-463.2 180.5,-402.2 46.5,-402.2"/>
<polygon fill="#f5f5f5" stroke="transparent" points="46.5,-439.7 46.5,-462.7 180.5,-462.7 180.5,-439.7 46.5,-439.7"/>
<polygon fill="none" stroke="#000000" points="46.5,-439.7 46.5,-462.7 180.5,-462.7 180.5,-439.7 46.5,-439.7"/>
<text text-anchor="start" x="51.5" y="-448.3" font-family="Helvetica,sans-Serif" font-weight="bold" font-size="11.00" fill="#000000">audit_revision</text>
<text text-anchor="start" x="146.0219" y="-447.8" font-family="Helvetica,sans-Serif" font-size="11.00" fill="#000000">[table]</text>
<polygon fill="none" stroke="#000000" points="46.5,-420.7 46.5,-439.7 180.5,-439.7 180.5,-420.7 46.5,-420.7"/>
<text text-anchor="start" x="49.5" y="-426.8" font-family="Helvetica,sans-Serif" font-size="11.00" fill="#000000">...</text>
<polygon fill="#ffffff" stroke="transparent" points="46.5,-401.7 46.5,-420.7 102.5,-420.7 102.5,-401.7 46.5,-401.7"/>
<polygon fill="none" stroke="#000000" points="46.5,-401.7 46.5,-420.7 102.5,-420.7 102.5,-401.7 46.5,-401.7"/>
<text text-anchor="start" x="49.5" y="-407.8" font-family="Helvetica,sans-Serif" font-size="11.00" fill="#000000"> &#160;</text>
<polygon fill="#ffffff" stroke="transparent" points="102.5,-401.7 102.5,-420.7 136.5,-420.7 136.5,-401.7 102.5,-401.7"/>
<polygon fill="none" stroke="#000000" points="102.5,-401.7 102.5,-420.7 136.5,-420.7 136.5,-401.7 102.5,-401.7"/>
<text text-anchor="start" x="127.3862" y="-407.8" font-family="Helvetica,sans-Serif" font-size="11.00" fill="#000000"> &#160;</text>
<polygon fill="#ffffff" stroke="transparent" points="136.5,-401.7 136.5,-420.7 180.5,-420.7 180.5,-401.7 136.5,-401.7"/>
<polygon fill="none" stroke="#000000" points="136.5,-401.7 136.5,-420.7 180.5,-420.7 180.5,-401.7 136.5,-401.7"/>
<text text-anchor="start" x="161.9053" y="-407.8" font-family="Helvetica,sans-Serif" font-size="11.00" fill="#000000">4 &gt;</text>
</a>
</g>
</g>
<!-- court_appearance&#45;&gt;audit_revision -->
<g id="edge1" class="edge">
<title>court_appearance:w&#45;&gt;audit_revision:e</title>
<path fill="none" stroke="#000000" stroke-dasharray="5,2" d="M310.0203,-181.6756C291.0162,-192.1307 272.979,-205.5785 260,-222.7 200.4649,-301.2367 279.0517,-429.7 180.5,-429.7"/>
<polygon fill="#000000" stroke="#000000" points="316.8508,-173.6035 320.5492,-180.6972 319.1305,-181.4369 315.432,-174.3431 316.8508,-173.6035"/>
<polyline fill="none" stroke="#000000" points="319.4094,-176.7805 315.8625,-178.6297 "/>
<ellipse fill="none" stroke="#000000" cx="313.025" cy="-180.1091" rx="3.2" ry="3.2"/>
</g>
<!-- person_summary -->
<g id="node3" class="node">
<title>person_summary</title>
<g id="a_node3"><a xlink:href="../../tables/person_summary.html" xlink:title="person_summary" target="_top">
<polygon fill="#ffffff" stroke="transparent" points="13,-202.7 13,-380.7 214,-380.7 214,-202.7 13,-202.7"/>
<polygon fill="#f5f5f5" stroke="transparent" points="15.5,-355.7 15.5,-378.7 212.5,-378.7 212.5,-355.7 15.5,-355.7"/>
<polygon fill="none" stroke="#000000" points="15.5,-355.7 15.5,-378.7 212.5,-378.7 212.5,-355.7 15.5,-355.7"/>
<text text-anchor="start" x="20.5" y="-364.3" font-family="Helvetica,sans-Serif" font-weight="bold" font-size="11.00" fill="#000000">person_summary</text>
<text text-anchor="start" x="177.5437" y="-363.8" font-family="Helvetica,sans-Serif" font-size="11.00" fill="#000000">[table]</text>
<polygon fill="none" stroke="#000000" points="15.5,-333.7 15.5,-355.7 151.5,-355.7 151.5,-333.7 15.5,-333.7"/>
<image xlink:href="../../images/primaryKeys.png" width="11px" height="12px" preserveAspectRatio="xMinYMin meet" x="20.5" y="-350.7"/>
<text text-anchor="start" x="35.5" y="-340.8" font-family="Helvetica,sans-Serif" font-size="11.00" fill="#000000">person_identifier</text>
<polygon fill="none" stroke="#000000" points="151.5,-333.7 151.5,-355.7 212.5,-355.7 212.5,-333.7 151.5,-333.7"/>
<text text-anchor="start" x="154.494" y="-341.4" font-family="Helvetica,sans-Serif" font-size="11.00" fill="#000000">varchar[10]</text>
<polygon fill="none" stroke="#000000" points="15.5,-311.7 15.5,-333.7 151.5,-333.7 151.5,-311.7 15.5,-311.7"/>
<text text-anchor="start" x="35.5" y="-318.8" font-family="Helvetica,sans-Serif" font-size="11.00" fill="#000000">version</text>
<polygon fill="none" stroke="#000000" points="151.5,-311.7 151.5,-333.7 212.5,-333.7 212.5,-311.7 151.5,-311.7"/>
<text text-anchor="start" x="154.5" y="-319.4" font-family="Helvetica,sans-Serif" font-size="11.00" fill="#000000">int4[10]</text>
<polygon fill="none" stroke="#000000" points="15.5,-289.7 15.5,-311.7 151.5,-311.7 151.5,-289.7 15.5,-289.7"/>
<text text-anchor="start" x="35.5" y="-296.8" font-family="Helvetica,sans-Serif" font-size="11.00" fill="#000000">first_name</text>
<polygon fill="none" stroke="#000000" points="151.5,-289.7 151.5,-311.7 212.5,-311.7 212.5,-289.7 151.5,-289.7"/>
<text text-anchor="start" x="154.494" y="-297.4" font-family="Helvetica,sans-Serif" font-size="11.00" fill="#000000">varchar[64]</text>
<polygon fill="none" stroke="#000000" points="15.5,-267.7 15.5,-289.7 151.5,-289.7 151.5,-267.7 15.5,-267.7"/>
<text text-anchor="start" x="35.5" y="-274.8" font-family="Helvetica,sans-Serif" font-size="11.00" fill="#000000">last_name</text>
<polygon fill="none" stroke="#000000" points="151.5,-267.7 151.5,-289.7 212.5,-289.7 212.5,-267.7 151.5,-267.7"/>
<text text-anchor="start" x="154.494" y="-275.4" font-family="Helvetica,sans-Serif" font-size="11.00" fill="#000000">varchar[64]</text>
<polygon fill="none" stroke="#000000" points="15.5,-245.7 15.5,-267.7 151.5,-267.7 151.5,-245.7 15.5,-245.7"/>
<text text-anchor="start" x="35.5" y="-252.8" font-family="Helvetica,sans-Serif" font-size="11.00" fill="#000000">prison_code</text>
<polygon fill="none" stroke="#000000" points="151.5,-245.7 151.5,-267.7 212.5,-267.7 212.5,-245.7 151.5,-245.7"/>
<text text-anchor="start" x="154.5" y="-253.4" font-family="Helvetica,sans-Serif" font-size="11.00" fill="#000000">varchar[6]</text>
<polygon fill="none" stroke="#000000" points="15.5,-223.7 15.5,-245.7 151.5,-245.7 151.5,-223.7 15.5,-223.7"/>
<text text-anchor="start" x="35.5" y="-230.8" font-family="Helvetica,sans-Serif" font-size="11.00" fill="#000000">cell_location</text>
<polygon fill="none" stroke="#000000" points="151.5,-223.7 151.5,-245.7 212.5,-245.7 212.5,-223.7 151.5,-223.7"/>
<text text-anchor="start" x="154.494" y="-231.4" font-family="Helvetica,sans-Serif" font-size="11.00" fill="#000000">varchar[64]</text>
<polygon fill="#ffffff" stroke="transparent" points="15.5,-204.7 15.5,-223.7 87.5,-223.7 87.5,-204.7 15.5,-204.7"/>
<polygon fill="none" stroke="#000000" points="15.5,-204.7 15.5,-223.7 87.5,-223.7 87.5,-204.7 15.5,-204.7"/>
<text text-anchor="start" x="18.5" y="-210.8" font-family="Helvetica,sans-Serif" font-size="11.00" fill="#000000">&lt; 0</text>
<polygon fill="#ffffff" stroke="transparent" points="87.5,-204.7 87.5,-223.7 151.5,-223.7 151.5,-204.7 87.5,-204.7"/>
<polygon fill="none" stroke="#000000" points="87.5,-204.7 87.5,-223.7 151.5,-223.7 151.5,-204.7 87.5,-204.7"/>
<text text-anchor="start" x="142.3862" y="-210.8" font-family="Helvetica,sans-Serif" font-size="11.00" fill="#000000"> &#160;</text>
<polygon fill="#ffffff" stroke="transparent" points="151.5,-204.7 151.5,-223.7 212.5,-223.7 212.5,-204.7 151.5,-204.7"/>
<polygon fill="none" stroke="#000000" points="151.5,-204.7 151.5,-223.7 212.5,-223.7 212.5,-204.7 151.5,-204.7"/>
<text text-anchor="start" x="193.9053" y="-210.8" font-family="Helvetica,sans-Serif" font-size="11.00" fill="#000000">4 &gt;</text>
<polygon fill="none" stroke="#000000" stroke-width="2" points="14,-203.7 14,-379.7 213,-379.7 213,-203.7 14,-203.7"/>
</a>
</g>
</g>
<!-- court_appearance&#45;&gt;person_summary -->
<g id="edge2" class="edge">
<title>court_appearance:w&#45;&gt;person_summary:e</title>
<path fill="none" stroke="#000000" d="M305.7374,-166.9404C288.838,-173.7101 272.7017,-182.9875 260,-195.7 210.8728,-244.8689 282.0058,-344.7 212.5,-344.7"/>
<polygon fill="#000000" stroke="#000000" points="311.874,-164.7359 320.6201,-165.4192 315.6385,-163.3836 319.403,-162.0312 319.403,-162.0312 319.403,-162.0312 315.6385,-163.3836 318.1858,-158.6432 311.874,-164.7359 311.874,-164.7359"/>
<ellipse fill="none" stroke="#000000" cx="308.8625" cy="-165.8178" rx="3.2" ry="3.2"/>
</g>
<!-- court_appearance_reason -->
<g id="node4" class="node">
<title>court_appearance_reason</title>
<g id="a_node4"><a xlink:href="../../tables/court_appearance_reason.html" xlink:title="court_appearance_reason" target="_top">
<polygon fill="#ffffff" stroke="transparent" points="8,-38.2 8,-99.2 219,-99.2 219,-38.2 8,-38.2"/>
<polygon fill="#f5f5f5" stroke="transparent" points="8.5,-75.7 8.5,-98.7 219.5,-98.7 219.5,-75.7 8.5,-75.7"/>
<polygon fill="none" stroke="#000000" points="8.5,-75.7 8.5,-98.7 219.5,-98.7 219.5,-75.7 8.5,-75.7"/>
<text text-anchor="start" x="13.5" y="-84.3" font-family="Helvetica,sans-Serif" font-weight="bold" font-size="11.00" fill="#000000">court_appearance_reason</text>
<text text-anchor="start" x="185.0219" y="-83.8" font-family="Helvetica,sans-Serif" font-size="11.00" fill="#000000">[table]</text>
<polygon fill="none" stroke="#000000" points="8.5,-56.7 8.5,-75.7 219.5,-75.7 219.5,-56.7 8.5,-56.7"/>
<text text-anchor="start" x="11.5" y="-62.8" font-family="Helvetica,sans-Serif" font-size="11.00" fill="#000000">...</text>
<polygon fill="#ffffff" stroke="transparent" points="8.5,-37.7 8.5,-56.7 103.5,-56.7 103.5,-37.7 8.5,-37.7"/>
<polygon fill="none" stroke="#000000" points="8.5,-37.7 8.5,-56.7 103.5,-56.7 103.5,-37.7 8.5,-37.7"/>
<text text-anchor="start" x="11.5" y="-43.8" font-family="Helvetica,sans-Serif" font-size="11.00" fill="#000000"> &#160;</text>
<polygon fill="#ffffff" stroke="transparent" points="103.5,-37.7 103.5,-56.7 156.5,-56.7 156.5,-37.7 103.5,-37.7"/>
<polygon fill="none" stroke="#000000" points="103.5,-37.7 103.5,-56.7 156.5,-56.7 156.5,-37.7 103.5,-37.7"/>
<text text-anchor="start" x="147.3862" y="-43.8" font-family="Helvetica,sans-Serif" font-size="11.00" fill="#000000"> &#160;</text>
<polygon fill="#ffffff" stroke="transparent" points="156.5,-37.7 156.5,-56.7 219.5,-56.7 219.5,-37.7 156.5,-37.7"/>
<polygon fill="none" stroke="#000000" points="156.5,-37.7 156.5,-56.7 219.5,-56.7 219.5,-37.7 156.5,-37.7"/>
<text text-anchor="start" x="200.9053" y="-43.8" font-family="Helvetica,sans-Serif" font-size="11.00" fill="#000000">2 &gt;</text>
</a>
</g>
</g>
<!-- court_appearance&#45;&gt;court_appearance_reason -->
<g id="edge3" class="edge">
<title>court_appearance:w&#45;&gt;court_appearance_reason:e</title>
<path fill="none" stroke="#000000" d="M305.6679,-111.4575C290.1709,-104.979 274.5137,-97.9708 260,-90.7 241.0873,-81.2254 240.6532,-65.7 219.5,-65.7"/>
<polygon fill="#000000" stroke="#000000" points="311.8098,-113.9743 317.8473,-120.3389 315.5111,-115.491 319.2124,-117.0077 319.2124,-117.0077 319.2124,-117.0077 315.5111,-115.491 320.5774,-113.6766 311.8098,-113.9743 311.8098,-113.9743"/>
<ellipse fill="none" stroke="#000000" cx="308.8487" cy="-112.7609" rx="3.2" ry="3.2"/>
</g>
<!-- court_appearance_status -->
<g id="node5" class="node">
<title>court_appearance_status</title>
<g id="a_node5"><a xlink:href="../../tables/court_appearance_status.html" xlink:title="court_appearance_status" target="_top">
<polygon fill="#ffffff" stroke="transparent" points="9.5,-120.2 9.5,-181.2 217.5,-181.2 217.5,-120.2 9.5,-120.2"/>
<polygon fill="#f5f5f5" stroke="transparent" points="9.5,-157.7 9.5,-180.7 217.5,-180.7 217.5,-157.7 9.5,-157.7"/>
<polygon fill="none" stroke="#000000" points="9.5,-157.7 9.5,-180.7 217.5,-180.7 217.5,-157.7 9.5,-157.7"/>
<text text-anchor="start" x="14.5" y="-166.3" font-family="Helvetica,sans-Serif" font-weight="bold" font-size="11.00" fill="#000000">court_appearance_status</text>
<text text-anchor="start" x="183.0219" y="-165.8" font-family="Helvetica,sans-Serif" font-size="11.00" fill="#000000">[table]</text>
<polygon fill="none" stroke="#000000" points="9.5,-138.7 9.5,-157.7 217.5,-157.7 217.5,-138.7 9.5,-138.7"/>
<text text-anchor="start" x="12.5" y="-144.8" font-family="Helvetica,sans-Serif" font-size="11.00" fill="#000000">...</text>
<polygon fill="#ffffff" stroke="transparent" points="9.5,-119.7 9.5,-138.7 102.5,-138.7 102.5,-119.7 9.5,-119.7"/>
<polygon fill="none" stroke="#000000" points="9.5,-119.7 9.5,-138.7 102.5,-138.7 102.5,-119.7 9.5,-119.7"/>
<text text-anchor="start" x="12.5" y="-125.8" font-family="Helvetica,sans-Serif" font-size="11.00" fill="#000000"> &#160;</text>
<polygon fill="#ffffff" stroke="transparent" points="102.5,-119.7 102.5,-138.7 155.5,-138.7 155.5,-119.7 102.5,-119.7"/>
<polygon fill="none" stroke="#000000" points="102.5,-119.7 102.5,-138.7 155.5,-138.7 155.5,-119.7 102.5,-119.7"/>
<text text-anchor="start" x="146.3862" y="-125.8" font-family="Helvetica,sans-Serif" font-size="11.00" fill="#000000"> &#160;</text>
<polygon fill="#ffffff" stroke="transparent" points="155.5,-119.7 155.5,-138.7 217.5,-138.7 217.5,-119.7 155.5,-119.7"/>
<polygon fill="none" stroke="#000000" points="155.5,-119.7 155.5,-138.7 217.5,-138.7 217.5,-119.7 155.5,-119.7"/>
<text text-anchor="start" x="198.9053" y="-125.8" font-family="Helvetica,sans-Serif" font-size="11.00" fill="#000000">1 &gt;</text>
</a>
</g>
</g>
<!-- court_appearance&#45;&gt;court_appearance_status -->
<g id="edge4" class="edge">
<title>court_appearance:w&#45;&gt;court_appearance_status:e</title>
<path fill="none" stroke="#000000" d="M304.7275,-147.9628C276.4691,-147.8129 245.7964,-147.7 217.5,-147.7"/>
<polygon fill="#000000" stroke="#000000" points="311.2595,-147.9993 319.2392,-151.6441 315.2594,-148.0217 319.2594,-148.0441 319.2594,-148.0441 319.2594,-148.0441 315.2594,-148.0217 319.2796,-144.4442 311.2595,-147.9993 311.2595,-147.9993"/>
<ellipse fill="none" stroke="#000000" cx="308.0596" cy="-147.9814" rx="3.2" ry="3.2"/>
</g>
<!-- court_appearance_audit -->
<g id="node6" class="node">
<title>court_appearance_audit</title>
<g id="a_node6"><a xlink:href="../../tables/court_appearance_audit.html" xlink:title="court_appearance_audit" target="_top">
<polygon fill="#ffffff" stroke="transparent" points="307,-381.2 307,-530.2 507,-530.2 507,-381.2 307,-381.2"/>
<polygon fill="#f5f5f5" stroke="transparent" points="307,-506.7 307,-529.7 507,-529.7 507,-506.7 307,-506.7"/>
<polygon fill="none" stroke="#000000" points="307,-506.7 307,-529.7 507,-529.7 507,-506.7 307,-506.7"/>
<text text-anchor="start" x="312" y="-515.3" font-family="Helvetica,sans-Serif" font-weight="bold" font-size="11.00" fill="#000000">court_appearance_audit</text>
<text text-anchor="start" x="472.5219" y="-514.8" font-family="Helvetica,sans-Serif" font-size="11.00" fill="#000000">[table]</text>
<polygon fill="none" stroke="#000000" points="307,-484.7 307,-506.7 507,-506.7 507,-484.7 307,-484.7"/>
<image xlink:href="../../images/primaryKeys.png" width="11px" height="12px" preserveAspectRatio="xMinYMin meet" x="312" y="-501.7"/>
<text text-anchor="start" x="336" y="-491.8" font-family="Helvetica,sans-Serif" font-size="11.00" fill="#000000">rev_id</text>
<polygon fill="none" stroke="#000000" points="307,-462.7 307,-484.7 507,-484.7 507,-462.7 307,-462.7"/>
<image xlink:href="../../images/primaryKeys.png" width="11px" height="12px" preserveAspectRatio="xMinYMin meet" x="312" y="-479.7"/>
<text text-anchor="start" x="336" y="-469.8" font-family="Helvetica,sans-Serif" font-size="11.00" fill="#000000">id</text>
<polygon fill="none" stroke="#000000" points="307,-440.7 307,-462.7 507,-462.7 507,-440.7 307,-440.7"/>
<image xlink:href="../../images/foreignKeys.png" width="11px" height="12px" preserveAspectRatio="xMinYMin meet" x="312" y="-457.7"/>
<text text-anchor="start" x="336" y="-447.8" font-family="Helvetica,sans-Serif" font-size="11.00" fill="#000000">person_identifier</text>
<polygon fill="none" stroke="#000000" points="307,-418.7 307,-440.7 507,-440.7 507,-418.7 307,-418.7"/>
<image xlink:href="../../images/foreignKeys.png" width="11px" height="12px" preserveAspectRatio="xMinYMin meet" x="312" y="-435.7"/>
<text text-anchor="start" x="336" y="-425.8" font-family="Helvetica,sans-Serif" font-size="11.00" fill="#000000">legacy_id</text>
<polygon fill="none" stroke="#000000" points="307,-399.7 307,-418.7 507,-418.7 507,-399.7 307,-399.7"/>
<text text-anchor="start" x="310" y="-405.8" font-family="Helvetica,sans-Serif" font-size="11.00" fill="#000000">...</text>
<polygon fill="#ffffff" stroke="transparent" points="307,-380.7 307,-399.7 405,-399.7 405,-380.7 307,-380.7"/>
<polygon fill="none" stroke="#000000" points="307,-380.7 307,-399.7 405,-399.7 405,-380.7 307,-380.7"/>
<text text-anchor="start" x="310" y="-386.8" font-family="Helvetica,sans-Serif" font-size="11.00" fill="#000000">&lt; 3</text>
<polygon fill="#ffffff" stroke="transparent" points="405,-380.7 405,-399.7 456,-399.7 456,-380.7 405,-380.7"/>
<polygon fill="none" stroke="#000000" points="405,-380.7 405,-399.7 456,-399.7 456,-380.7 405,-380.7"/>
<text text-anchor="start" x="446.8862" y="-386.8" font-family="Helvetica,sans-Serif" font-size="11.00" fill="#000000"> &#160;</text>
<polygon fill="#ffffff" stroke="transparent" points="456,-380.7 456,-399.7 507,-399.7 507,-380.7 456,-380.7"/>
<polygon fill="none" stroke="#000000" points="456,-380.7 456,-399.7 507,-399.7 507,-380.7 456,-380.7"/>
<text text-anchor="start" x="497.8862" y="-386.8" font-family="Helvetica,sans-Serif" font-size="11.00" fill="#000000"> &#160;</text>
</a>
</g>
</g>
<!-- court_appearance_audit&#45;&gt;audit_revision -->
<g id="edge5" class="edge">
<title>court_appearance_audit:w&#45;&gt;audit_revision:e</title>
<path fill="none" stroke="#000000" stroke-dasharray="5,2" d="M292.5177,-429.7C247.8419,-429.7 231.5612,-429.7 180.5,-429.7"/>
<polygon fill="#000000" stroke="#000000" points="299,-429.7001 307,-433.3 303,-429.7 307,-429.7 307,-429.7 307,-429.7 303,-429.7 307,-426.1 299,-429.7001 299,-429.7001"/>
<ellipse fill="none" stroke="#000000" cx="295.8" cy="-429.7001" rx="3.2" ry="3.2"/>
</g>
<!-- court_appearance_audit&#45;&gt;audit_revision -->
<g id="edge7" class="edge">
<title>court_appearance_audit:w&#45;&gt;audit_revision:e</title>
<path fill="none" stroke="#000000" d="M292.6106,-494.4405C243.2106,-485.316 238.7124,-429.7 180.5,-429.7"/>
<polygon fill="#000000" stroke="#000000" points="299.0305,-495.0024 306.6861,-499.2863 303.0152,-495.3512 307,-495.7 307,-495.7 307,-495.7 303.0152,-495.3512 307.3139,-492.1137 299.0305,-495.0024 299.0305,-495.0024"/>
<ellipse fill="none" stroke="#000000" cx="295.8427" cy="-494.7233" rx="3.2" ry="3.2"/>
</g>
<!-- court_appearance_audit&#45;&gt;person_summary -->
<g id="edge6" class="edge">
<title>court_appearance_audit:w&#45;&gt;person_summary:e</title>
<path fill="none" stroke="#000000" stroke-dasharray="5,2" d="M292.6443,-449.4652C248.4129,-434.0996 270.4946,-344.7 212.5,-344.7"/>
<polygon fill="#000000" stroke="#000000" points="299.0952,-450.4694 306.4462,-455.2572 303.0476,-451.0847 307,-451.7 307,-451.7 307,-451.7 303.0476,-451.0847 307.5538,-448.1428 299.0952,-450.4694 299.0952,-450.4694"/>
<ellipse fill="none" stroke="#000000" cx="295.9333" cy="-449.9771" rx="3.2" ry="3.2"/>
</g>
<!-- court_appearance_movement -->
<g id="node7" class="node">
<title>court_appearance_movement</title>
<g id="a_node7"><a xlink:href="../../tables/court_appearance_movement.html" xlink:title="court_appearance_movement" target="_top">
<polygon fill="#ffffff" stroke="transparent" points="595,-118.2 595,-179.2 832,-179.2 832,-118.2 595,-118.2"/>
<polygon fill="#f5f5f5" stroke="transparent" points="595.5,-155.7 595.5,-178.7 832.5,-178.7 832.5,-155.7 595.5,-155.7"/>
<polygon fill="none" stroke="#000000" points="595.5,-155.7 595.5,-178.7 832.5,-178.7 832.5,-155.7 595.5,-155.7"/>
<text text-anchor="start" x="600.5" y="-164.3" font-family="Helvetica,sans-Serif" font-weight="bold" font-size="11.00" fill="#000000">court_appearance_movement</text>
<text text-anchor="start" x="798.0219" y="-163.8" font-family="Helvetica,sans-Serif" font-size="11.00" fill="#000000">[table]</text>
<polygon fill="none" stroke="#000000" points="595.5,-136.7 595.5,-155.7 832.5,-155.7 832.5,-136.7 595.5,-136.7"/>
<text text-anchor="start" x="598.5" y="-142.8" font-family="Helvetica,sans-Serif" font-size="11.00" fill="#000000">...</text>
<polygon fill="#ffffff" stroke="transparent" points="595.5,-117.7 595.5,-136.7 712.5,-136.7 712.5,-117.7 595.5,-117.7"/>
<polygon fill="none" stroke="#000000" points="595.5,-117.7 595.5,-136.7 712.5,-136.7 712.5,-117.7 595.5,-117.7"/>
<text text-anchor="start" x="598.5" y="-123.8" font-family="Helvetica,sans-Serif" font-size="11.00" fill="#000000">&lt; 3</text>
<polygon fill="#ffffff" stroke="transparent" points="712.5,-117.7 712.5,-136.7 772.5,-136.7 772.5,-117.7 712.5,-117.7"/>
<polygon fill="none" stroke="#000000" points="712.5,-117.7 712.5,-136.7 772.5,-136.7 772.5,-117.7 712.5,-117.7"/>
<text text-anchor="start" x="763.3862" y="-123.8" font-family="Helvetica,sans-Serif" font-size="11.00" fill="#000000"> &#160;</text>
<polygon fill="#ffffff" stroke="transparent" points="772.5,-117.7 772.5,-136.7 832.5,-136.7 832.5,-117.7 772.5,-117.7"/>
<polygon fill="none" stroke="#000000" points="772.5,-117.7 772.5,-136.7 832.5,-136.7 832.5,-117.7 772.5,-117.7"/>
<text text-anchor="start" x="823.3862" y="-123.8" font-family="Helvetica,sans-Serif" font-size="11.00" fill="#000000"> &#160;</text>
</a>
</g>
</g>
<!-- court_appearance_movement&#45;&gt;court_appearance -->
<g id="edge8" class="edge">
<title>court_appearance_movement:w&#45;&gt;court_appearance:e</title>
<path fill="none" stroke="#000000" d="M572.0208,-148.7C545.6152,-148.7 518.7408,-148.7 494.5582,-148.7"/>
<polygon fill="#000000" stroke="#000000" points="578.6223,-148.7001 586.6223,-152.3 582.6223,-148.7 586.6223,-148.7 586.6223,-148.7 586.6223,-148.7 582.6223,-148.7 586.6222,-145.1 578.6223,-148.7001 578.6223,-148.7001"/>
<ellipse fill="none" stroke="#000000" cx="575.4223" cy="-148.7001" rx="3.2" ry="3.2"/>
</g>
<!-- court_appearance_movement&#45;&gt;person_summary -->
<g id="edge9" class="edge">
<title>court_appearance_movement:w&#45;&gt;person_summary:e</title>
<path fill="none" stroke="#000000" d="M572.554,-186.054C566.2998,-187.3565 560.0943,-188.5804 554,-189.7 489.3386,-201.5794 312.1121,-182.6181 260,-222.7 213.8777,-258.1748 270.687,-344.7 212.5,-344.7"/>
<polygon fill="#000000" stroke="#000000" points="578.927,-184.6769 587.5069,-186.506 582.8368,-183.8321 586.7465,-182.9872 586.7465,-182.9872 586.7465,-182.9872 582.8368,-183.8321 585.9862,-179.4684 578.927,-184.6769 578.927,-184.6769"/>
<ellipse fill="none" stroke="#000000" cx="575.7992" cy="-185.3528" rx="3.2" ry="3.2"/>
</g>
<!-- court_appearance_movement&#45;&gt;court_appearance_reason -->
<g id="edge10" class="edge">
<title>court_appearance_movement:w&#45;&gt;court_appearance_reason:e</title>
<path fill="none" stroke="#000000" d="M572.5352,-111.4465C566.2861,-110.1167 560.0868,-108.8596 554,-107.7 406.8133,-79.6591 369.334,-65.7 219.5,-65.7"/>
<polygon fill="#000000" stroke="#000000" points="578.9047,-112.8471 585.9448,-118.0813 582.8113,-113.7062 586.718,-114.5653 586.718,-114.5653 586.718,-114.5653 582.8113,-113.7062 587.4912,-111.0493 578.9047,-112.8471 578.9047,-112.8471"/>
<ellipse fill="none" stroke="#000000" cx="575.7793" cy="-112.1598" rx="3.2" ry="3.2"/>
</g>
<!-- court_appearance_movement_audit -->
<g id="node8" class="node">
<title>court_appearance_movement_audit</title>
<g id="a_node8"><a xlink:href="../../tables/court_appearance_movement_audit.html" xlink:title="court_appearance_movement_audit" target="_top">
<polygon fill="#ffffff" stroke="transparent" points="268,-233.2 268,-360.2 546,-360.2 546,-233.2 268,-233.2"/>
<polygon fill="#f5f5f5" stroke="transparent" points="268,-336.7 268,-359.7 546,-359.7 546,-336.7 268,-336.7"/>
<polygon fill="none" stroke="#000000" points="268,-336.7 268,-359.7 546,-359.7 546,-336.7 268,-336.7"/>
<text text-anchor="start" x="273" y="-345.3" font-family="Helvetica,sans-Serif" font-weight="bold" font-size="11.00" fill="#000000">court_appearance_movement_audit</text>
<text text-anchor="start" x="511.5219" y="-344.8" font-family="Helvetica,sans-Serif" font-size="11.00" fill="#000000">[table]</text>
<polygon fill="none" stroke="#000000" points="268,-314.7 268,-336.7 546,-336.7 546,-314.7 268,-314.7"/>
<image xlink:href="../../images/primaryKeys.png" width="11px" height="12px" preserveAspectRatio="xMinYMin meet" x="273" y="-331.7"/>
<text text-anchor="start" x="297" y="-321.8" font-family="Helvetica,sans-Serif" font-size="11.00" fill="#000000">rev_id</text>
<polygon fill="none" stroke="#000000" points="268,-292.7 268,-314.7 546,-314.7 546,-292.7 268,-292.7"/>
<image xlink:href="../../images/primaryKeys.png" width="11px" height="12px" preserveAspectRatio="xMinYMin meet" x="273" y="-309.7"/>
<text text-anchor="start" x="297" y="-299.8" font-family="Helvetica,sans-Serif" font-size="11.00" fill="#000000">id</text>
<polygon fill="none" stroke="#000000" points="268,-270.7 268,-292.7 546,-292.7 546,-270.7 268,-270.7"/>
<image xlink:href="../../images/foreignKeys.png" width="11px" height="12px" preserveAspectRatio="xMinYMin meet" x="273" y="-287.7"/>
<text text-anchor="start" x="297" y="-277.8" font-family="Helvetica,sans-Serif" font-size="11.00" fill="#000000">person_identifier</text>
<polygon fill="none" stroke="#000000" points="268,-251.7 268,-270.7 546,-270.7 546,-251.7 268,-251.7"/>
<text text-anchor="start" x="271" y="-257.8" font-family="Helvetica,sans-Serif" font-size="11.00" fill="#000000">...</text>
<polygon fill="#ffffff" stroke="transparent" points="268,-232.7 268,-251.7 405,-251.7 405,-232.7 268,-232.7"/>
<polygon fill="none" stroke="#000000" points="268,-232.7 268,-251.7 405,-251.7 405,-232.7 268,-232.7"/>
<text text-anchor="start" x="271" y="-238.8" font-family="Helvetica,sans-Serif" font-size="11.00" fill="#000000">&lt; 2</text>
<polygon fill="#ffffff" stroke="transparent" points="405,-232.7 405,-251.7 475,-251.7 475,-232.7 405,-232.7"/>
<polygon fill="none" stroke="#000000" points="405,-232.7 405,-251.7 475,-251.7 475,-232.7 405,-232.7"/>
<text text-anchor="start" x="465.8862" y="-238.8" font-family="Helvetica,sans-Serif" font-size="11.00" fill="#000000"> &#160;</text>
<polygon fill="#ffffff" stroke="transparent" points="475,-232.7 475,-251.7 546,-251.7 546,-232.7 475,-232.7"/>
<polygon fill="none" stroke="#000000" points="475,-232.7 475,-251.7 546,-251.7 546,-232.7 475,-232.7"/>
<text text-anchor="start" x="536.8862" y="-238.8" font-family="Helvetica,sans-Serif" font-size="11.00" fill="#000000"> &#160;</text>
</a>
</g>
</g>
<!-- court_appearance_movement_audit&#45;&gt;audit_revision -->
<g id="edge12" class="edge">
<title>court_appearance_movement_audit:w&#45;&gt;audit_revision:e</title>
<path fill="none" stroke="#000000" d="M253.7888,-329.2656C238.0705,-339.6394 245.6949,-370.4175 227,-391.7 209.3859,-411.7521 207.1898,-429.7 180.5,-429.7"/>
<polygon fill="#000000" stroke="#000000" points="260.2405,-327.6469 268.8761,-329.1918 264.1203,-326.6735 268,-325.7 268,-325.7 268,-325.7 264.1203,-326.6735 267.1239,-322.2082 260.2405,-327.6469 260.2405,-327.6469"/>
<ellipse fill="none" stroke="#000000" cx="257.1367" cy="-328.4257" rx="3.2" ry="3.2"/>
</g>
<!-- court_appearance_movement_audit&#45;&gt;person_summary -->
<g id="edge11" class="edge">
<title>court_appearance_movement_audit:w&#45;&gt;person_summary:e</title>
<path fill="none" stroke="#000000" stroke-dasharray="5,2" d="M253.9509,-286.0302C235.3646,-300.2637 243.8392,-344.7 212.5,-344.7"/>
<polygon fill="#000000" stroke="#000000" points="260.3549,-284.0564 269.0604,-285.1403 264.1775,-282.8782 268,-281.7 268,-281.7 268,-281.7 264.1775,-282.8782 266.9396,-278.2597 260.3549,-284.0564 260.3549,-284.0564"/>
<ellipse fill="none" stroke="#000000" cx="257.2969" cy="-284.999" rx="3.2" ry="3.2"/>
</g>
</g>
</svg>
