<?xml version="1.0" encoding="UTF-8" standalone="no"?>
<!DOCTYPE svg PUBLIC "-//W3C//DTD SVG 1.1//EN"
 "http://www.w3.org/Graphics/SVG/1.1/DTD/svg11.dtd">
<!-- Generated by graphviz version 2.40.1 (20161225.0304)
 -->
<!-- Title: compactImpliedRelationshipsDiagram Pages: 1 -->
<svg width="848pt" height="740pt"
 viewBox="0.00 0.00 848.00 740.20" xmlns="http://www.w3.org/2000/svg" xmlns:xlink="http://www.w3.org/1999/xlink">
<g id="graph0" class="graph" transform="scale(1 1) rotate(0) translate(4 736.2)">
<title>compactImpliedRelationshipsDiagram</title>
<polygon fill="#ffffff" stroke="transparent" points="-4,4 -4,-736.2 844,-736.2 844,4 -4,4"/>
<text text-anchor="middle" x="72.4936" y="-7.3" font-family="Helvetica,sans-Serif" font-size="11.00" fill="#000000">Generated by SchemaSpy</text>
<!-- court_appearance_audit -->
<g id="node1" class="node">
<title>court_appearance_audit</title>
<g id="a_node1"><a xlink:href="../../tables/court_appearance_audit.html" xlink:title="court_appearance_audit" target="_top">
<polygon fill="#ffffff" stroke="transparent" points="307,-579.2 307,-728.2 507,-728.2 507,-579.2 307,-579.2"/>
<polygon fill="#f5f5f5" stroke="transparent" points="307,-704.7 307,-727.7 507,-727.7 507,-704.7 307,-704.7"/>
<polygon fill="none" stroke="#000000" points="307,-704.7 307,-727.7 507,-727.7 507,-704.7 307,-704.7"/>
<text text-anchor="start" x="312" y="-713.3" font-family="Helvetica,sans-Serif" font-weight="bold" font-size="11.00" fill="#000000">court_appearance_audit</text>
<text text-anchor="start" x="472.5219" y="-712.8" font-family="Helvetica,sans-Serif" font-size="11.00" fill="#000000">[table]</text>
<polygon fill="none" stroke="#000000" points="307,-682.7 307,-704.7 507,-704.7 507,-682.7 307,-682.7"/>
<image xlink:href="../../images/primaryKeys.png" width="11px" height="12px" preserveAspectRatio="xMinYMin meet" x="312" y="-699.7"/>
<text text-anchor="start" x="336" y="-689.8" font-family="Helvetica,sans-Serif" font-size="11.00" fill="#000000">rev_id</text>
<polygon fill="none" stroke="#000000" points="307,-660.7 307,-682.7 507,-682.7 507,-660.7 307,-660.7"/>
<image xlink:href="../../images/primaryKeys.png" width="11px" height="12px" preserveAspectRatio="xMinYMin meet" x="312" y="-677.7"/>
<text text-anchor="start" x="336" y="-667.8" font-family="Helvetica,sans-Serif" font-size="11.00" fill="#000000">id</text>
<polygon fill="none" stroke="#000000" points="307,-638.7 307,-660.7 507,-660.7 507,-638.7 307,-638.7"/>
<image xlink:href="../../images/foreignKeys.png" width="11px" height="12px" preserveAspectRatio="xMinYMin meet" x="312" y="-655.7"/>
<text text-anchor="start" x="336" y="-645.8" font-family="Helvetica,sans-Serif" font-size="11.00" fill="#000000">person_identifier</text>
<polygon fill="none" stroke="#000000" points="307,-616.7 307,-638.7 507,-638.7 507,-616.7 307,-616.7"/>
<image xlink:href="../../images/foreignKeys.png" width="11px" height="12px" preserveAspectRatio="xMinYMin meet" x="312" y="-633.7"/>
<text text-anchor="start" x="336" y="-623.8" font-family="Helvetica,sans-Serif" font-size="11.00" fill="#000000">legacy_id</text>
<polygon fill="none" stroke="#000000" points="307,-597.7 307,-616.7 507,-616.7 507,-597.7 307,-597.7"/>
<text text-anchor="start" x="310" y="-603.8" font-family="Helvetica,sans-Serif" font-size="11.00" fill="#000000">...</text>
<polygon fill="#ffffff" stroke="transparent" points="307,-578.7 307,-597.7 405,-597.7 405,-578.7 307,-578.7"/>
<polygon fill="none" stroke="#000000" points="307,-578.7 307,-597.7 405,-597.7 405,-578.7 307,-578.7"/>
<text text-anchor="start" x="310" y="-584.8" font-family="Helvetica,sans-Serif" font-size="11.00" fill="#000000">&lt; 1</text>
<polygon fill="#ffffff" stroke="transparent" points="405,-578.7 405,-597.7 456,-597.7 456,-578.7 405,-578.7"/>
<polygon fill="none" stroke="#000000" points="405,-578.7 405,-597.7 456,-597.7 456,-578.7 405,-578.7"/>
<text text-anchor="start" x="446.8862" y="-584.8" font-family="Helvetica,sans-Serif" font-size="11.00" fill="#000000"> &#160;</text>
<polygon fill="#ffffff" stroke="transparent" points="456,-578.7 456,-597.7 507,-597.7 507,-578.7 456,-578.7"/>
<polygon fill="none" stroke="#000000" points="456,-578.7 456,-597.7 507,-597.7 507,-578.7 456,-578.7"/>
<text text-anchor="start" x="497.8862" y="-584.8" font-family="Helvetica,sans-Serif" font-size="11.00" fill="#000000"> &#160;</text>
</a>
</g>
</g>
<!-- audit_revision -->
<g id="node7" class="node">
<title>audit_revision</title>
<g id="a_node7"><a xlink:href="../../tables/audit_revision.html" xlink:title="audit_revision" target="_top">
<polygon fill="#ffffff" stroke="transparent" points="46.5,-512.2 46.5,-595.2 180.5,-595.2 180.5,-512.2 46.5,-512.2"/>
<polygon fill="#f5f5f5" stroke="transparent" points="46.5,-571.7 46.5,-594.7 180.5,-594.7 180.5,-571.7 46.5,-571.7"/>
<polygon fill="none" stroke="#000000" points="46.5,-571.7 46.5,-594.7 180.5,-594.7 180.5,-571.7 46.5,-571.7"/>
<text text-anchor="start" x="51.5" y="-580.3" font-family="Helvetica,sans-Serif" font-weight="bold" font-size="11.00" fill="#000000">audit_revision</text>
<text text-anchor="start" x="146.0219" y="-579.8" font-family="Helvetica,sans-Serif" font-size="11.00" fill="#000000">[table]</text>
<polygon fill="none" stroke="#000000" points="46.5,-549.7 46.5,-571.7 180.5,-571.7 180.5,-549.7 46.5,-549.7"/>
<image xlink:href="../../images/primaryKeys.png" width="11px" height="12px" preserveAspectRatio="xMinYMin meet" x="51.5" y="-566.7"/>
<text text-anchor="start" x="66.5" y="-556.8" font-family="Helvetica,sans-Serif" font-size="11.00" fill="#000000">id</text>
<polygon fill="none" stroke="#000000" points="46.5,-530.7 46.5,-549.7 180.5,-549.7 180.5,-530.7 46.5,-530.7"/>
<text text-anchor="start" x="49.5" y="-536.8" font-family="Helvetica,sans-Serif" font-size="11.00" fill="#000000">...</text>
<polygon fill="#ffffff" stroke="transparent" points="46.5,-511.7 46.5,-530.7 102.5,-530.7 102.5,-511.7 46.5,-511.7"/>
<polygon fill="none" stroke="#000000" points="46.5,-511.7 46.5,-530.7 102.5,-530.7 102.5,-511.7 46.5,-511.7"/>
<text text-anchor="start" x="49.5" y="-517.8" font-family="Helvetica,sans-Serif" font-size="11.00" fill="#000000"> &#160;</text>
<polygon fill="#ffffff" stroke="transparent" points="102.5,-511.7 102.5,-530.7 136.5,-530.7 136.5,-511.7 102.5,-511.7"/>
<polygon fill="none" stroke="#000000" points="102.5,-511.7 102.5,-530.7 136.5,-530.7 136.5,-511.7 102.5,-511.7"/>
<text text-anchor="start" x="127.3862" y="-517.8" font-family="Helvetica,sans-Serif" font-size="11.00" fill="#000000"> &#160;</text>
<polygon fill="#ffffff" stroke="transparent" points="136.5,-511.7 136.5,-530.7 180.5,-530.7 180.5,-511.7 136.5,-511.7"/>
<polygon fill="none" stroke="#000000" points="136.5,-511.7 136.5,-530.7 180.5,-530.7 180.5,-511.7 136.5,-511.7"/>
<text text-anchor="start" x="161.9053" y="-517.8" font-family="Helvetica,sans-Serif" font-size="11.00" fill="#000000">2 &gt;</text>
</a>
</g>
</g>
<!-- court_appearance_audit&#45;&gt;audit_revision -->
<g id="edge5" class="edge">
<title>court_appearance_audit:w&#45;&gt;audit_revision:e</title>
<path fill="none" stroke="#000000" stroke-dasharray="5,2" d="M292.5715,-626.4214C243.0675,-617.1587 238.9023,-560.7 180.5,-560.7"/>
<polygon fill="#000000" stroke="#000000" points="299.0312,-626.9938 306.6822,-631.2859 303.0156,-627.3469 307,-627.7 307,-627.7 307,-627.7 303.0156,-627.3469 307.3178,-624.1141 299.0312,-626.9938 299.0312,-626.9938"/>
<ellipse fill="none" stroke="#000000" cx="295.8437" cy="-626.7113" rx="3.2" ry="3.2"/>
</g>
<!-- court_appearance_audit&#45;&gt;audit_revision -->
<g id="edge7" class="edge">
<title>court_appearance_audit:w&#45;&gt;audit_revision:e</title>
<path fill="none" stroke="#000000" d="M292.6362,-692.1137C229.6556,-677.108 256.8206,-560.7 180.5,-560.7"/>
<polygon fill="#000000" stroke="#000000" points="299.0483,-692.8218 306.6048,-697.2782 303.0242,-693.2609 307,-693.7 307,-693.7 307,-693.7 303.0242,-693.2609 307.3952,-690.1218 299.0483,-692.8218 299.0483,-692.8218"/>
<ellipse fill="none" stroke="#000000" cx="295.8677" cy="-692.4705" rx="3.2" ry="3.2"/>
</g>
<!-- person_summary -->
<g id="node8" class="node">
<title>person_summary</title>
<g id="a_node8"><a xlink:href="../../tables/person_summary.html" xlink:title="person_summary" target="_top">
<polygon fill="#ffffff" stroke="transparent" points="36.5,-394.2 36.5,-477.2 190.5,-477.2 190.5,-394.2 36.5,-394.2"/>
<polygon fill="#f5f5f5" stroke="transparent" points="36.5,-453.7 36.5,-476.7 190.5,-476.7 190.5,-453.7 36.5,-453.7"/>
<polygon fill="none" stroke="#000000" points="36.5,-453.7 36.5,-476.7 190.5,-476.7 190.5,-453.7 36.5,-453.7"/>
<text text-anchor="start" x="41.5" y="-462.3" font-family="Helvetica,sans-Serif" font-weight="bold" font-size="11.00" fill="#000000">person_summary</text>
<text text-anchor="start" x="156.0219" y="-461.8" font-family="Helvetica,sans-Serif" font-size="11.00" fill="#000000">[table]</text>
<polygon fill="none" stroke="#000000" points="36.5,-431.7 36.5,-453.7 190.5,-453.7 190.5,-431.7 36.5,-431.7"/>
<image xlink:href="../../images/primaryKeys.png" width="11px" height="12px" preserveAspectRatio="xMinYMin meet" x="41.5" y="-448.7"/>
<text text-anchor="start" x="65.5" y="-438.8" font-family="Helvetica,sans-Serif" font-size="11.00" fill="#000000">person_identifier</text>
<polygon fill="none" stroke="#000000" points="36.5,-412.7 36.5,-431.7 190.5,-431.7 190.5,-412.7 36.5,-412.7"/>
<text text-anchor="start" x="39.5" y="-418.8" font-family="Helvetica,sans-Serif" font-size="11.00" fill="#000000">...</text>
<polygon fill="#ffffff" stroke="transparent" points="36.5,-393.7 36.5,-412.7 102.5,-412.7 102.5,-393.7 36.5,-393.7"/>
<polygon fill="none" stroke="#000000" points="36.5,-393.7 36.5,-412.7 102.5,-412.7 102.5,-393.7 36.5,-393.7"/>
<text text-anchor="start" x="39.5" y="-399.8" font-family="Helvetica,sans-Serif" font-size="11.00" fill="#000000"> &#160;</text>
<polygon fill="#ffffff" stroke="transparent" points="102.5,-393.7 102.5,-412.7 141.5,-412.7 141.5,-393.7 102.5,-393.7"/>
<polygon fill="none" stroke="#000000" points="102.5,-393.7 102.5,-412.7 141.5,-412.7 141.5,-393.7 102.5,-393.7"/>
<text text-anchor="start" x="132.3862" y="-399.8" font-family="Helvetica,sans-Serif" font-size="11.00" fill="#000000"> &#160;</text>
<polygon fill="#ffffff" stroke="transparent" points="141.5,-393.7 141.5,-412.7 190.5,-412.7 190.5,-393.7 141.5,-393.7"/>
<polygon fill="none" stroke="#000000" points="141.5,-393.7 141.5,-412.7 190.5,-412.7 190.5,-393.7 141.5,-393.7"/>
<text text-anchor="start" x="171.9053" y="-399.8" font-family="Helvetica,sans-Serif" font-size="11.00" fill="#000000">2 &gt;</text>
</a>
</g>
</g>
<!-- court_appearance_audit&#45;&gt;person_summary -->
<g id="edge6" class="edge">
<title>court_appearance_audit:w&#45;&gt;person_summary:e</title>
<path fill="none" stroke="#000000" stroke-dasharray="5,2" d="M292.6668,-648.2108C210.3607,-629.5943 290.8117,-442.7 190.5,-442.7"/>
<polygon fill="#000000" stroke="#000000" points="299.0428,-648.8732 306.6279,-653.2807 303.0214,-649.2866 307,-649.7 307,-649.7 307,-649.7 303.0214,-649.2866 307.3721,-646.1193 299.0428,-648.8732 299.0428,-648.8732"/>
<ellipse fill="none" stroke="#000000" cx="295.86" cy="-648.5425" rx="3.2" ry="3.2"/>
</g>
<!-- court_appearance -->
<g id="node2" class="node">
<title>court_appearance</title>
<g id="a_node2"><a xlink:href="../../tables/court_appearance.html" xlink:title="court_appearance" target="_top">
<polygon fill="#ffffff" stroke="transparent" points="327.5,-173.2 327.5,-410.2 486.5,-410.2 486.5,-173.2 327.5,-173.2"/>
<polygon fill="#f5f5f5" stroke="transparent" points="328,-386.7 328,-409.7 487,-409.7 487,-386.7 328,-386.7"/>
<polygon fill="none" stroke="#000000" points="328,-386.7 328,-409.7 487,-409.7 487,-386.7 328,-386.7"/>
<text text-anchor="start" x="333" y="-395.3" font-family="Helvetica,sans-Serif" font-weight="bold" font-size="11.00" fill="#000000">court_appearance</text>
<text text-anchor="start" x="452.5219" y="-394.8" font-family="Helvetica,sans-Serif" font-size="11.00" fill="#000000">[table]</text>
<polygon fill="none" stroke="#000000" points="328,-364.7 328,-386.7 487,-386.7 487,-364.7 328,-364.7"/>
<image xlink:href="../../images/primaryKeys.png" width="11px" height="12px" preserveAspectRatio="xMinYMin meet" x="333" y="-381.7"/>
<text text-anchor="start" x="354" y="-371.8" font-family="Helvetica,sans-Serif" font-size="11.00" fill="#000000">id</text>
<polygon fill="#ffffff" stroke="transparent" points="328,-342.7 328,-364.7 487,-364.7 487,-342.7 328,-342.7"/>
<polygon fill="none" stroke="#000000" points="328,-342.7 328,-364.7 487,-364.7 487,-342.7 328,-342.7"/>
<image xlink:href="../../images/foreignKeys.png" width="11px" height="12px" preserveAspectRatio="xMinYMin meet" x="333" y="-359.7"/>
<text text-anchor="start" x="354" y="-349.8" font-family="Helvetica,sans-Serif" font-size="11.00" fill="#000000">person_identifier</text>
<polygon fill="#ffffff" stroke="transparent" points="328,-320.7 328,-342.7 487,-342.7 487,-320.7 328,-320.7"/>
<polygon fill="none" stroke="#000000" points="328,-320.7 328,-342.7 487,-342.7 487,-320.7 328,-320.7"/>
<text text-anchor="start" x="354" y="-327.8" font-family="Helvetica,sans-Serif" font-size="11.00" fill="#000000">prison_code</text>
<polygon fill="#ffffff" stroke="transparent" points="328,-298.7 328,-320.7 487,-320.7 487,-298.7 328,-298.7"/>
<polygon fill="none" stroke="#000000" points="328,-298.7 328,-320.7 487,-320.7 487,-298.7 328,-298.7"/>
<image xlink:href="../../images/foreignKeys.png" width="11px" height="12px" preserveAspectRatio="xMinYMin meet" x="333" y="-315.7"/>
<text text-anchor="start" x="354" y="-305.8" font-family="Helvetica,sans-Serif" font-size="11.00" fill="#000000">reason_id</text>
<polygon fill="#ffffff" stroke="transparent" points="328,-276.7 328,-298.7 487,-298.7 487,-276.7 328,-276.7"/>
<polygon fill="none" stroke="#000000" points="328,-276.7 328,-298.7 487,-298.7 487,-276.7 328,-276.7"/>
<image xlink:href="../../images/foreignKeys.png" width="11px" height="12px" preserveAspectRatio="xMinYMin meet" x="333" y="-293.7"/>
<text text-anchor="start" x="354" y="-283.8" font-family="Helvetica,sans-Serif" font-size="11.00" fill="#000000">status_id</text>
<polygon fill="#ffffff" stroke="transparent" points="328,-254.7 328,-276.7 487,-276.7 487,-254.7 328,-254.7"/>
<polygon fill="none" stroke="#000000" points="328,-254.7 328,-276.7 487,-276.7 487,-254.7 328,-254.7"/>
<text text-anchor="start" x="354" y="-261.8" font-family="Helvetica,sans-Serif" font-size="11.00" fill="#000000">start</text>
<polygon fill="#ffffff" stroke="transparent" points="328,-232.7 328,-254.7 487,-254.7 487,-232.7 328,-232.7"/>
<polygon fill="none" stroke="#000000" points="328,-232.7 328,-254.7 487,-254.7 487,-232.7 328,-232.7"/>
<image xlink:href="../../images/foreignKeys.png" width="11px" height="12px" preserveAspectRatio="xMinYMin meet" x="333" y="-249.7"/>
<text text-anchor="start" x="354" y="-239.8" font-family="Helvetica,sans-Serif" font-size="11.00" fill="#000000">legacy_id</text>
<polygon fill="#ffffff" stroke="transparent" points="328,-210.7 328,-232.7 487,-232.7 487,-210.7 328,-210.7"/>
<polygon fill="none" stroke="#000000" points="328,-210.7 328,-232.7 487,-232.7 487,-210.7 328,-210.7"/>
<text text-anchor="start" x="354" y="-217.8" font-family="Helvetica,sans-Serif" font-size="11.00" fill="#000000">external_reference</text>
<polygon fill="none" stroke="#000000" points="328,-191.7 328,-210.7 487,-210.7 487,-191.7 328,-191.7"/>
<text text-anchor="start" x="331" y="-197.8" font-family="Helvetica,sans-Serif" font-size="11.00" fill="#000000">...</text>
<polygon fill="#ffffff" stroke="transparent" points="328,-172.7 328,-191.7 401,-191.7 401,-172.7 328,-172.7"/>
<polygon fill="none" stroke="#000000" points="328,-172.7 328,-191.7 401,-191.7 401,-172.7 328,-172.7"/>
<text text-anchor="start" x="331" y="-178.8" font-family="Helvetica,sans-Serif" font-size="11.00" fill="#000000">&lt; 3</text>
<polygon fill="#ffffff" stroke="transparent" points="401,-172.7 401,-191.7 439,-191.7 439,-172.7 401,-172.7"/>
<polygon fill="none" stroke="#000000" points="401,-172.7 401,-191.7 439,-191.7 439,-172.7 401,-172.7"/>
<text text-anchor="start" x="429.8862" y="-178.8" font-family="Helvetica,sans-Serif" font-size="11.00" fill="#000000"> &#160;</text>
<polygon fill="#ffffff" stroke="transparent" points="439,-172.7 439,-191.7 487,-191.7 487,-172.7 439,-172.7"/>
<polygon fill="none" stroke="#000000" points="439,-172.7 439,-191.7 487,-191.7 487,-172.7 439,-172.7"/>
<text text-anchor="start" x="468.4053" y="-178.8" font-family="Helvetica,sans-Serif" font-size="11.00" fill="#000000">1 &gt;</text>
</a>
</g>
</g>
<!-- court_appearance_reason -->
<g id="node3" class="node">
<title>court_appearance_reason</title>
<g id="a_node3"><a xlink:href="../../tables/court_appearance_reason.html" xlink:title="court_appearance_reason" target="_top">
<polygon fill="#ffffff" stroke="transparent" points="8,-38.2 8,-165.2 219,-165.2 219,-38.2 8,-38.2"/>
<polygon fill="#f5f5f5" stroke="transparent" points="8.5,-141.7 8.5,-164.7 219.5,-164.7 219.5,-141.7 8.5,-141.7"/>
<polygon fill="none" stroke="#000000" points="8.5,-141.7 8.5,-164.7 219.5,-164.7 219.5,-141.7 8.5,-141.7"/>
<text text-anchor="start" x="13.5" y="-150.3" font-family="Helvetica,sans-Serif" font-weight="bold" font-size="11.00" fill="#000000">court_appearance_reason</text>
<text text-anchor="start" x="185.0219" y="-149.8" font-family="Helvetica,sans-Serif" font-size="11.00" fill="#000000">[table]</text>
<polygon fill="none" stroke="#000000" points="8.5,-119.7 8.5,-141.7 219.5,-141.7 219.5,-119.7 8.5,-119.7"/>
<image xlink:href="../../images/primaryKeys.png" width="11px" height="12px" preserveAspectRatio="xMinYMin meet" x="13.5" y="-136.7"/>
<text text-anchor="start" x="37.5" y="-126.8" font-family="Helvetica,sans-Serif" font-size="11.00" fill="#000000">id</text>
<polygon fill="#ffffff" stroke="transparent" points="8.5,-97.7 8.5,-119.7 219.5,-119.7 219.5,-97.7 8.5,-97.7"/>
<polygon fill="none" stroke="#000000" points="8.5,-97.7 8.5,-119.7 219.5,-119.7 219.5,-97.7 8.5,-97.7"/>
<text text-anchor="start" x="37.5" y="-104.8" font-family="Helvetica,sans-Serif" font-size="11.00" fill="#000000">code</text>
<polygon fill="#ffffff" stroke="transparent" points="8.5,-75.7 8.5,-97.7 219.5,-97.7 219.5,-75.7 8.5,-75.7"/>
<polygon fill="none" stroke="#000000" points="8.5,-75.7 8.5,-97.7 219.5,-97.7 219.5,-75.7 8.5,-75.7"/>
<text text-anchor="start" x="37.5" y="-82.8" font-family="Helvetica,sans-Serif" font-size="11.00" fill="#000000">sequence_number</text>
<polygon fill="none" stroke="#000000" points="8.5,-56.7 8.5,-75.7 219.5,-75.7 219.5,-56.7 8.5,-56.7"/>
<text text-anchor="start" x="11.5" y="-62.8" font-family="Helvetica,sans-Serif" font-size="11.00" fill="#000000">...</text>
<polygon fill="#ffffff" stroke="transparent" points="8.5,-37.7 8.5,-56.7 103.5,-56.7 103.5,-37.7 8.5,-37.7"/>
<polygon fill="none" stroke="#000000" points="8.5,-37.7 8.5,-56.7 103.5,-56.7 103.5,-37.7 8.5,-37.7"/>
<text text-anchor="start" x="11.5" y="-43.8" font-family="Helvetica,sans-Serif" font-size="11.00" fill="#000000"> &#160;</text>
<polygon fill="#ffffff" stroke="transparent" points="103.5,-37.7 103.5,-56.7 156.5,-56.7 156.5,-37.7 103.5,-37.7"/>
<polygon fill="none" stroke="#000000" points="103.5,-37.7 103.5,-56.7 156.5,-56.7 156.5,-37.7 103.5,-37.7"/>
<text text-anchor="start" x="147.3862" y="-43.8" font-family="Helvetica,sans-Serif" font-size="11.00" fill="#000000"> &#160;</text>
<polygon fill="#ffffff" stroke="transparent" points="156.5,-37.7 156.5,-56.7 219.5,-56.7 219.5,-37.7 156.5,-37.7"/>
<polygon fill="none" stroke="#000000" points="156.5,-37.7 156.5,-56.7 219.5,-56.7 219.5,-37.7 156.5,-37.7"/>
<text text-anchor="start" x="200.9053" y="-43.8" font-family="Helvetica,sans-Serif" font-size="11.00" fill="#000000">2 &gt;</text>
</a>
</g>
</g>
<!-- court_appearance&#45;&gt;court_appearance_reason -->
<g id="edge3" class="edge">
<title>court_appearance:w&#45;&gt;court_appearance_reason:e</title>
<path fill="none" stroke="#000000" d="M313.3355,-307.9284C243.4739,-289.338 307.0785,-130.7 219.5,-130.7"/>
<polygon fill="#000000" stroke="#000000" points="320.0577,-308.7404 327.5682,-313.274 324.0289,-309.2202 328,-309.7 328,-309.7 328,-309.7 324.0289,-309.2202 328.4318,-306.126 320.0577,-308.7404 320.0577,-308.7404"/>
<ellipse fill="none" stroke="#000000" cx="316.8808" cy="-308.3566" rx="3.2" ry="3.2"/>
</g>
<!-- court_appearance_status -->
<g id="node5" class="node">
<title>court_appearance_status</title>
<g id="a_node5"><a xlink:href="../../tables/court_appearance_status.html" xlink:title="court_appearance_status" target="_top">
<polygon fill="#ffffff" stroke="transparent" points="9.5,-195.2 9.5,-322.2 217.5,-322.2 217.5,-195.2 9.5,-195.2"/>
<polygon fill="#f5f5f5" stroke="transparent" points="9.5,-298.7 9.5,-321.7 217.5,-321.7 217.5,-298.7 9.5,-298.7"/>
<polygon fill="none" stroke="#000000" points="9.5,-298.7 9.5,-321.7 217.5,-321.7 217.5,-298.7 9.5,-298.7"/>
<text text-anchor="start" x="14.5" y="-307.3" font-family="Helvetica,sans-Serif" font-weight="bold" font-size="11.00" fill="#000000">court_appearance_status</text>
<text text-anchor="start" x="183.0219" y="-306.8" font-family="Helvetica,sans-Serif" font-size="11.00" fill="#000000">[table]</text>
<polygon fill="none" stroke="#000000" points="9.5,-276.7 9.5,-298.7 217.5,-298.7 217.5,-276.7 9.5,-276.7"/>
<image xlink:href="../../images/primaryKeys.png" width="11px" height="12px" preserveAspectRatio="xMinYMin meet" x="14.5" y="-293.7"/>
<text text-anchor="start" x="38.5" y="-283.8" font-family="Helvetica,sans-Serif" font-size="11.00" fill="#000000">id</text>
<polygon fill="#ffffff" stroke="transparent" points="9.5,-254.7 9.5,-276.7 217.5,-276.7 217.5,-254.7 9.5,-254.7"/>
<polygon fill="none" stroke="#000000" points="9.5,-254.7 9.5,-276.7 217.5,-276.7 217.5,-254.7 9.5,-254.7"/>
<text text-anchor="start" x="38.5" y="-261.8" font-family="Helvetica,sans-Serif" font-size="11.00" fill="#000000">code</text>
<polygon fill="#ffffff" stroke="transparent" points="9.5,-232.7 9.5,-254.7 217.5,-254.7 217.5,-232.7 9.5,-232.7"/>
<polygon fill="none" stroke="#000000" points="9.5,-232.7 9.5,-254.7 217.5,-254.7 217.5,-232.7 9.5,-232.7"/>
<text text-anchor="start" x="38.5" y="-239.8" font-family="Helvetica,sans-Serif" font-size="11.00" fill="#000000">sequence_number</text>
<polygon fill="none" stroke="#000000" points="9.5,-213.7 9.5,-232.7 217.5,-232.7 217.5,-213.7 9.5,-213.7"/>
<text text-anchor="start" x="12.5" y="-219.8" font-family="Helvetica,sans-Serif" font-size="11.00" fill="#000000">...</text>
<polygon fill="#ffffff" stroke="transparent" points="9.5,-194.7 9.5,-213.7 102.5,-213.7 102.5,-194.7 9.5,-194.7"/>
<polygon fill="none" stroke="#000000" points="9.5,-194.7 9.5,-213.7 102.5,-213.7 102.5,-194.7 9.5,-194.7"/>
<text text-anchor="start" x="12.5" y="-200.8" font-family="Helvetica,sans-Serif" font-size="11.00" fill="#000000"> &#160;</text>
<polygon fill="#ffffff" stroke="transparent" points="102.5,-194.7 102.5,-213.7 155.5,-213.7 155.5,-194.7 102.5,-194.7"/>
<polygon fill="none" stroke="#000000" points="102.5,-194.7 102.5,-213.7 155.5,-213.7 155.5,-194.7 102.5,-194.7"/>
<text text-anchor="start" x="146.3862" y="-200.8" font-family="Helvetica,sans-Serif" font-size="11.00" fill="#000000"> &#160;</text>
<polygon fill="#ffffff" stroke="transparent" points="155.5,-194.7 155.5,-213.7 217.5,-213.7 217.5,-194.7 155.5,-194.7"/>
<polygon fill="none" stroke="#000000" points="155.5,-194.7 155.5,-213.7 217.5,-213.7 217.5,-194.7 155.5,-194.7"/>
<text text-anchor="start" x="198.9053" y="-200.8" font-family="Helvetica,sans-Serif" font-size="11.00" fill="#000000">1 &gt;</text>
</a>
</g>
</g>
<!-- court_appearance&#45;&gt;court_appearance_status -->
<g id="edge4" class="edge">
<title>court_appearance:w&#45;&gt;court_appearance_status:e</title>
<path fill="none" stroke="#000000" d="M313.1109,-287.7C275.7625,-287.7 261.2396,-287.7 217.5,-287.7"/>
<polygon fill="#000000" stroke="#000000" points="320,-287.7001 328,-291.3 324,-287.7 328,-287.7 328,-287.7 328,-287.7 324,-287.7 328,-284.1 320,-287.7001 320,-287.7001"/>
<ellipse fill="none" stroke="#000000" cx="316.8" cy="-287.7001" rx="3.2" ry="3.2"/>
</g>
<!-- court_appearance&#45;&gt;audit_revision -->
<g id="edge1" class="edge">
<title>court_appearance:w&#45;&gt;audit_revision:e</title>
<path fill="none" stroke="#000000" stroke-dasharray="5,2" d="M317.5908,-244.2142C180.0853,-258.3852 332.2517,-560.7 180.5,-560.7"/>
<polygon fill="#000000" stroke="#000000" points="327.0036,-239.7444 327.3984,-247.7346 325.8003,-247.8136 325.4055,-239.8233 327.0036,-239.7444"/>
<polyline fill="none" stroke="#000000" points="328,-243.7 324.0049,-243.8974 "/>
<ellipse fill="none" stroke="#000000" cx="320.8088" cy="-244.0553" rx="3.2" ry="3.2"/>
</g>
<!-- court_appearance&#45;&gt;person_summary -->
<g id="edge2" class="edge">
<title>court_appearance:w&#45;&gt;person_summary:e</title>
<path fill="none" stroke="#000000" d="M313.4243,-355.0272C255.9514,-366.0985 258.035,-442.7 190.5,-442.7"/>
<polygon fill="#000000" stroke="#000000" points="320.033,-354.4255 328.3265,-357.2852 324.0165,-354.0627 328,-353.7 328,-353.7 328,-353.7 324.0165,-354.0627 327.6735,-350.1148 320.033,-354.4255 320.033,-354.4255"/>
<ellipse fill="none" stroke="#000000" cx="316.8461" cy="-354.7157" rx="3.2" ry="3.2"/>
</g>
<!-- court_appearance_movement -->
<g id="node4" class="node">
<title>court_appearance_movement</title>
<g id="a_node4"><a xlink:href="../../tables/court_appearance_movement.html" xlink:title="court_appearance_movement" target="_top">
<polygon fill="#ffffff" stroke="transparent" points="595,-56.2 595,-227.2 832,-227.2 832,-56.2 595,-56.2"/>
<polygon fill="#f5f5f5" stroke="transparent" points="595.5,-203.7 595.5,-226.7 832.5,-226.7 832.5,-203.7 595.5,-203.7"/>
<polygon fill="none" stroke="#000000" points="595.5,-203.7 595.5,-226.7 832.5,-226.7 832.5,-203.7 595.5,-203.7"/>
<text text-anchor="start" x="600.5" y="-212.3" font-family="Helvetica,sans-Serif" font-weight="bold" font-size="11.00" fill="#000000">court_appearance_movement</text>
<text text-anchor="start" x="798.0219" y="-211.8" font-family="Helvetica,sans-Serif" font-size="11.00" fill="#000000">[table]</text>
<polygon fill="none" stroke="#000000" points="595.5,-181.7 595.5,-203.7 832.5,-203.7 832.5,-181.7 595.5,-181.7"/>
<image xlink:href="../../images/primaryKeys.png" width="11px" height="12px" preserveAspectRatio="xMinYMin meet" x="600.5" y="-198.7"/>
<text text-anchor="start" x="624.5" y="-188.8" font-family="Helvetica,sans-Serif" font-size="11.00" fill="#000000">id</text>
<polygon fill="none" stroke="#000000" points="595.5,-159.7 595.5,-181.7 832.5,-181.7 832.5,-159.7 595.5,-159.7"/>
<image xlink:href="../../images/foreignKeys.png" width="11px" height="12px" preserveAspectRatio="xMinYMin meet" x="600.5" y="-176.7"/>
<text text-anchor="start" x="624.5" y="-166.8" font-family="Helvetica,sans-Serif" font-size="11.00" fill="#000000">court_appearance_id</text>
<polygon fill="#ffffff" stroke="transparent" points="595.5,-137.7 595.5,-159.7 832.5,-159.7 832.5,-137.7 595.5,-137.7"/>
<polygon fill="none" stroke="#000000" points="595.5,-137.7 595.5,-159.7 832.5,-159.7 832.5,-137.7 595.5,-137.7"/>
<image xlink:href="../../images/foreignKeys.png" width="11px" height="12px" preserveAspectRatio="xMinYMin meet" x="600.5" y="-154.7"/>
<text text-anchor="start" x="624.5" y="-144.8" font-family="Helvetica,sans-Serif" font-size="11.00" fill="#000000">person_identifier</text>
<polygon fill="none" stroke="#000000" points="595.5,-115.7 595.5,-137.7 832.5,-137.7 832.5,-115.7 595.5,-115.7"/>
<image xlink:href="../../images/foreignKeys.png" width="11px" height="12px" preserveAspectRatio="xMinYMin meet" x="600.5" y="-132.7"/>
<text text-anchor="start" x="624.5" y="-122.8" font-family="Helvetica,sans-Serif" font-size="11.00" fill="#000000">reason_id</text>
<polygon fill="#ffffff" stroke="transparent" points="595.5,-93.7 595.5,-115.7 832.5,-115.7 832.5,-93.7 595.5,-93.7"/>
<polygon fill="none" stroke="#000000" points="595.5,-93.7 595.5,-115.7 832.5,-115.7 832.5,-93.7 595.5,-93.7"/>
<text text-anchor="start" x="624.5" y="-100.8" font-family="Helvetica,sans-Serif" font-size="11.00" fill="#000000">legacy_id</text>
<polygon fill="none" stroke="#000000" points="595.5,-74.7 595.5,-93.7 832.5,-93.7 832.5,-74.7 595.5,-74.7"/>
<text text-anchor="start" x="598.5" y="-80.8" font-family="Helvetica,sans-Serif" font-size="11.00" fill="#000000">...</text>
<polygon fill="#ffffff" stroke="transparent" points="595.5,-55.7 595.5,-74.7 712.5,-74.7 712.5,-55.7 595.5,-55.7"/>
<polygon fill="none" stroke="#000000" points="595.5,-55.7 595.5,-74.7 712.5,-74.7 712.5,-55.7 595.5,-55.7"/>
<text text-anchor="start" x="598.5" y="-61.8" font-family="Helvetica,sans-Serif" font-size="11.00" fill="#000000">&lt; 3</text>
<polygon fill="#ffffff" stroke="transparent" points="712.5,-55.7 712.5,-74.7 772.5,-74.7 772.5,-55.7 712.5,-55.7"/>
<polygon fill="none" stroke="#000000" points="712.5,-55.7 712.5,-74.7 772.5,-74.7 772.5,-55.7 712.5,-55.7"/>
<text text-anchor="start" x="763.3862" y="-61.8" font-family="Helvetica,sans-Serif" font-size="11.00" fill="#000000"> &#160;</text>
<polygon fill="#ffffff" stroke="transparent" points="772.5,-55.7 772.5,-74.7 832.5,-74.7 832.5,-55.7 772.5,-55.7"/>
<polygon fill="none" stroke="#000000" points="772.5,-55.7 772.5,-74.7 832.5,-74.7 832.5,-55.7 772.5,-55.7"/>
<text text-anchor="start" x="823.3862" y="-61.8" font-family="Helvetica,sans-Serif" font-size="11.00" fill="#000000"> &#160;</text>
</a>
</g>
</g>
<!-- court_appearance_movement&#45;&gt;court_appearance -->
<g id="edge8" class="edge">
<title>court_appearance_movement:w&#45;&gt;court_appearance:e</title>
<path fill="none" stroke="#000000" d="M580.8075,-172.3501C502.1575,-191.751 584.6493,-375.7 487,-375.7"/>
<polygon fill="#000000" stroke="#000000" points="587.55,-171.5929 595.9018,-174.2775 591.525,-171.1465 595.5,-170.7 595.5,-170.7 595.5,-170.7 591.525,-171.1465 595.0982,-167.1225 587.55,-171.5929 587.55,-171.5929"/>
<ellipse fill="none" stroke="#000000" cx="584.37" cy="-171.9501" rx="3.2" ry="3.2"/>
</g>
<!-- court_appearance_movement&#45;&gt;court_appearance_reason -->
<g id="edge10" class="edge">
<title>court_appearance_movement:w&#45;&gt;court_appearance_reason:e</title>
<path fill="none" stroke="#000000" d="M580.6598,-126.7108C425.7362,-126.9385 381.5613,-130.7 219.5,-130.7"/>
<polygon fill="#000000" stroke="#000000" points="587.5,-126.7059 595.5026,-130.3 591.5,-126.7029 595.5,-126.7 595.5,-126.7 595.5,-126.7 591.5,-126.7029 595.4974,-123.1 587.5,-126.7059 587.5,-126.7059"/>
<ellipse fill="none" stroke="#000000" cx="584.3" cy="-126.7082" rx="3.2" ry="3.2"/>
</g>
<!-- court_appearance_movement&#45;&gt;person_summary -->
<g id="edge9" class="edge">
<title>court_appearance_movement:w&#45;&gt;person_summary:e</title>
<path fill="none" stroke="#000000" d="M581.0286,-148.4997C513.5844,-147.1804 285.8545,-140.46 260,-162.7 211.3972,-204.5079 254.6103,-442.7 190.5,-442.7"/>
<polygon fill="#000000" stroke="#000000" points="587.5008,-148.5892 595.4501,-152.2997 591.5004,-148.6446 595.5,-148.7 595.5,-148.7 595.5,-148.7 591.5004,-148.6446 595.5499,-145.1003 587.5008,-148.5892 587.5008,-148.5892"/>
<ellipse fill="none" stroke="#000000" cx="584.3011" cy="-148.5449" rx="3.2" ry="3.2"/>
</g>
<!-- court_appearance_movement_audit -->
<g id="node6" class="node">
<title>court_appearance_movement_audit</title>
<g id="a_node6"><a xlink:href="../../tables/court_appearance_movement_audit.html" xlink:title="court_appearance_movement_audit" target="_top">
<polygon fill="#ffffff" stroke="transparent" points="268,-431.2 268,-558.2 546,-558.2 546,-431.2 268,-431.2"/>
<polygon fill="#f5f5f5" stroke="transparent" points="268,-534.7 268,-557.7 546,-557.7 546,-534.7 268,-534.7"/>
<polygon fill="none" stroke="#000000" points="268,-534.7 268,-557.7 546,-557.7 546,-534.7 268,-534.7"/>
<text text-anchor="start" x="273" y="-543.3" font-family="Helvetica,sans-Serif" font-weight="bold" font-size="11.00" fill="#000000">court_appearance_movement_audit</text>
<text text-anchor="start" x="511.5219" y="-542.8" font-family="Helvetica,sans-Serif" font-size="11.00" fill="#000000">[table]</text>
<polygon fill="none" stroke="#000000" points="268,-512.7 268,-534.7 546,-534.7 546,-512.7 268,-512.7"/>
<image xlink:href="../../images/primaryKeys.png" width="11px" height="12px" preserveAspectRatio="xMinYMin meet" x="273" y="-529.7"/>
<text text-anchor="start" x="297" y="-519.8" font-family="Helvetica,sans-Serif" font-size="11.00" fill="#000000">rev_id</text>
<polygon fill="none" stroke="#000000" points="268,-490.7 268,-512.7 546,-512.7 546,-490.7 268,-490.7"/>
<image xlink:href="../../images/primaryKeys.png" width="11px" height="12px" preserveAspectRatio="xMinYMin meet" x="273" y="-507.7"/>
<text text-anchor="start" x="297" y="-497.8" font-family="Helvetica,sans-Serif" font-size="11.00" fill="#000000">id</text>
<polygon fill="none" stroke="#000000" points="268,-468.7 268,-490.7 546,-490.7 546,-468.7 268,-468.7"/>
<image xlink:href="../../images/foreignKeys.png" width="11px" height="12px" preserveAspectRatio="xMinYMin meet" x="273" y="-485.7"/>
<text text-anchor="start" x="297" y="-475.8" font-family="Helvetica,sans-Serif" font-size="11.00" fill="#000000">person_identifier</text>
<polygon fill="none" stroke="#000000" points="268,-449.7 268,-468.7 546,-468.7 546,-449.7 268,-449.7"/>
<text text-anchor="start" x="271" y="-455.8" font-family="Helvetica,sans-Serif" font-size="11.00" fill="#000000">...</text>
<polygon fill="#ffffff" stroke="transparent" points="268,-430.7 268,-449.7 405,-449.7 405,-430.7 268,-430.7"/>
<polygon fill="none" stroke="#000000" points="268,-430.7 268,-449.7 405,-449.7 405,-430.7 268,-430.7"/>
<text text-anchor="start" x="271" y="-436.8" font-family="Helvetica,sans-Serif" font-size="11.00" fill="#000000">&lt; 1</text>
<polygon fill="#ffffff" stroke="transparent" points="405,-430.7 405,-449.7 475,-449.7 475,-430.7 405,-430.7"/>
<polygon fill="none" stroke="#000000" points="405,-430.7 405,-449.7 475,-449.7 475,-430.7 405,-430.7"/>
<text text-anchor="start" x="465.8862" y="-436.8" font-family="Helvetica,sans-Serif" font-size="11.00" fill="#000000"> &#160;</text>
<polygon fill="#ffffff" stroke="transparent" points="475,-430.7 475,-449.7 546,-449.7 546,-430.7 475,-430.7"/>
<polygon fill="none" stroke="#000000" points="475,-430.7 475,-449.7 546,-449.7 546,-430.7 475,-430.7"/>
<text text-anchor="start" x="536.8862" y="-436.8" font-family="Helvetica,sans-Serif" font-size="11.00" fill="#000000"> &#160;</text>
</a>
</g>
</g>
<!-- court_appearance_movement_audit&#45;&gt;audit_revision -->
<g id="edge12" class="edge">
<title>court_appearance_movement_audit:w&#45;&gt;audit_revision:e</title>
<path fill="none" stroke="#000000" d="M253.4564,-525.386C224.3389,-532.6242 217.28,-560.7 180.5,-560.7"/>
<polygon fill="#000000" stroke="#000000" points="260.0532,-524.6213 268.4146,-527.2761 264.0266,-524.1606 268,-523.7 268,-523.7 268,-523.7 264.0266,-524.1606 267.5854,-520.1239 260.0532,-524.6213 260.0532,-524.6213"/>
<ellipse fill="none" stroke="#000000" cx="256.8745" cy="-524.9898" rx="3.2" ry="3.2"/>
</g>
<!-- court_appearance_movement_audit&#45;&gt;person_summary -->
<g id="edge11" class="edge">
<title>court_appearance_movement_audit:w&#45;&gt;person_summary:e</title>
<path fill="none" stroke="#000000" stroke-dasharray="5,2" d="M253.546,-477.6047C228.7223,-469.7776 223.152,-442.7 190.5,-442.7"/>
<polygon fill="#000000" stroke="#000000" points="260.0828,-478.5522 267.4835,-483.2628 264.0414,-479.1261 268,-479.7 268,-479.7 268,-479.7 264.0414,-479.1261 268.5165,-476.1372 260.0828,-478.5522 260.0828,-478.5522"/>
<ellipse fill="none" stroke="#000000" cx="256.9159" cy="-478.0931" rx="3.2" ry="3.2"/>
</g>
</g>
</svg>
