<?xml version="1.0" encoding="UTF-8" standalone="no"?>
<!DOCTYPE svg PUBLIC "-//W3C//DTD SVG 1.1//EN"
 "http://www.w3.org/Graphics/SVG/1.1/DTD/svg11.dtd">
<!-- Generated by graphviz version 2.40.1 (20161225.0304)
 -->
<!-- Title: compactImpliedRelationshipsDiagram Pages: 1 -->
<svg width="848pt" height="670pt"
 viewBox="0.00 0.00 848.00 670.20" xmlns="http://www.w3.org/2000/svg" xmlns:xlink="http://www.w3.org/1999/xlink">
<g id="graph0" class="graph" transform="scale(1 1) rotate(0) translate(4 666.2)">
<title>compactImpliedRelationshipsDiagram</title>
<polygon fill="#ffffff" stroke="transparent" points="-4,4 -4,-666.2 844,-666.2 844,4 -4,4"/>
<text text-anchor="middle" x="72.4936" y="-7.3" font-family="Helvetica,sans-Serif" font-size="11.00" fill="#000000">Generated by SchemaSpy</text>
<!-- court_appearance -->
<g id="node1" class="node">
<title>court_appearance</title>
<g id="a_node1"><a xlink:href="../../tables/court_appearance.html" xlink:title="court_appearance" target="_top">
<polygon fill="#ffffff" stroke="transparent" points="327.5,-384.2 327.5,-599.2 486.5,-599.2 486.5,-384.2 327.5,-384.2"/>
<polygon fill="#f5f5f5" stroke="transparent" points="328,-575.7 328,-598.7 487,-598.7 487,-575.7 328,-575.7"/>
<polygon fill="none" stroke="#000000" points="328,-575.7 328,-598.7 487,-598.7 487,-575.7 328,-575.7"/>
<text text-anchor="start" x="333" y="-584.3" font-family="Helvetica,sans-Serif" font-weight="bold" font-size="11.00" fill="#000000">court_appearance</text>
<text text-anchor="start" x="452.5219" y="-583.8" font-family="Helvetica,sans-Serif" font-size="11.00" fill="#000000">[table]</text>
<polygon fill="none" stroke="#000000" points="328,-553.7 328,-575.7 487,-575.7 487,-553.7 328,-553.7"/>
<image xlink:href="../../images/primaryKeys.png" width="11px" height="12px" preserveAspectRatio="xMinYMin meet" x="333" y="-570.7"/>
<text text-anchor="start" x="357" y="-560.8" font-family="Helvetica,sans-Serif" font-size="11.00" fill="#000000">id</text>
<polygon fill="#ffffff" stroke="transparent" points="328,-531.7 328,-553.7 487,-553.7 487,-531.7 328,-531.7"/>
<polygon fill="none" stroke="#000000" points="328,-531.7 328,-553.7 487,-553.7 487,-531.7 328,-531.7"/>
<image xlink:href="../../images/foreignKeys.png" width="11px" height="12px" preserveAspectRatio="xMinYMin meet" x="333" y="-548.7"/>
<text text-anchor="start" x="357" y="-538.8" font-family="Helvetica,sans-Serif" font-size="11.00" fill="#000000">person_identifier</text>
<polygon fill="#ffffff" stroke="transparent" points="328,-509.7 328,-531.7 487,-531.7 487,-509.7 328,-509.7"/>
<polygon fill="none" stroke="#000000" points="328,-509.7 328,-531.7 487,-531.7 487,-509.7 328,-509.7"/>
<text text-anchor="start" x="357" y="-516.8" font-family="Helvetica,sans-Serif" font-size="11.00" fill="#000000">prison_code</text>
<polygon fill="#ffffff" stroke="transparent" points="328,-487.7 328,-509.7 487,-509.7 487,-487.7 328,-487.7"/>
<polygon fill="none" stroke="#000000" points="328,-487.7 328,-509.7 487,-509.7 487,-487.7 328,-487.7"/>
<image xlink:href="../../images/foreignKeys.png" width="11px" height="12px" preserveAspectRatio="xMinYMin meet" x="333" y="-504.7"/>
<text text-anchor="start" x="357" y="-494.8" font-family="Helvetica,sans-Serif" font-size="11.00" fill="#000000">reason_id</text>
<polygon fill="#ffffff" stroke="transparent" points="328,-465.7 328,-487.7 487,-487.7 487,-465.7 328,-465.7"/>
<polygon fill="none" stroke="#000000" points="328,-465.7 328,-487.7 487,-487.7 487,-465.7 328,-465.7"/>
<image xlink:href="../../images/foreignKeys.png" width="11px" height="12px" preserveAspectRatio="xMinYMin meet" x="333" y="-482.7"/>
<text text-anchor="start" x="357" y="-472.8" font-family="Helvetica,sans-Serif" font-size="11.00" fill="#000000">status_id</text>
<polygon fill="#ffffff" stroke="transparent" points="328,-443.7 328,-465.7 487,-465.7 487,-443.7 328,-443.7"/>
<polygon fill="none" stroke="#000000" points="328,-443.7 328,-465.7 487,-465.7 487,-443.7 328,-443.7"/>
<text text-anchor="start" x="357" y="-450.8" font-family="Helvetica,sans-Serif" font-size="11.00" fill="#000000">start</text>
<polygon fill="#ffffff" stroke="transparent" points="328,-421.7 328,-443.7 487,-443.7 487,-421.7 328,-421.7"/>
<polygon fill="none" stroke="#000000" points="328,-421.7 328,-443.7 487,-443.7 487,-421.7 328,-421.7"/>
<image xlink:href="../../images/foreignKeys.png" width="11px" height="12px" preserveAspectRatio="xMinYMin meet" x="333" y="-438.7"/>
<text text-anchor="start" x="357" y="-428.8" font-family="Helvetica,sans-Serif" font-size="11.00" fill="#000000">legacy_id</text>
<polygon fill="none" stroke="#000000" points="328,-402.7 328,-421.7 487,-421.7 487,-402.7 328,-402.7"/>
<text text-anchor="start" x="331" y="-408.8" font-family="Helvetica,sans-Serif" font-size="11.00" fill="#000000">...</text>
<polygon fill="#ffffff" stroke="transparent" points="328,-383.7 328,-402.7 401,-402.7 401,-383.7 328,-383.7"/>
<polygon fill="none" stroke="#000000" points="328,-383.7 328,-402.7 401,-402.7 401,-383.7 328,-383.7"/>
<text text-anchor="start" x="331" y="-389.8" font-family="Helvetica,sans-Serif" font-size="11.00" fill="#000000">&lt; 3</text>
<polygon fill="#ffffff" stroke="transparent" points="401,-383.7 401,-402.7 439,-402.7 439,-383.7 401,-383.7"/>
<polygon fill="none" stroke="#000000" points="401,-383.7 401,-402.7 439,-402.7 439,-383.7 401,-383.7"/>
<text text-anchor="start" x="429.8862" y="-389.8" font-family="Helvetica,sans-Serif" font-size="11.00" fill="#000000"> &#160;</text>
<polygon fill="#ffffff" stroke="transparent" points="439,-383.7 439,-402.7 487,-402.7 487,-383.7 439,-383.7"/>
<polygon fill="none" stroke="#000000" points="439,-383.7 439,-402.7 487,-402.7 487,-383.7 439,-383.7"/>
<text text-anchor="start" x="468.4053" y="-389.8" font-family="Helvetica,sans-Serif" font-size="11.00" fill="#000000">1 &gt;</text>
</a>
</g>
</g>
<!-- court_appearance_reason -->
<g id="node3" class="node">
<title>court_appearance_reason</title>
<g id="a_node3"><a xlink:href="../../tables/court_appearance_reason.html" xlink:title="court_appearance_reason" target="_top">
<polygon fill="#ffffff" stroke="transparent" points="8,-531.2 8,-658.2 219,-658.2 219,-531.2 8,-531.2"/>
<polygon fill="#f5f5f5" stroke="transparent" points="8.5,-634.7 8.5,-657.7 219.5,-657.7 219.5,-634.7 8.5,-634.7"/>
<polygon fill="none" stroke="#000000" points="8.5,-634.7 8.5,-657.7 219.5,-657.7 219.5,-634.7 8.5,-634.7"/>
<text text-anchor="start" x="13.5" y="-643.3" font-family="Helvetica,sans-Serif" font-weight="bold" font-size="11.00" fill="#000000">court_appearance_reason</text>
<text text-anchor="start" x="185.0219" y="-642.8" font-family="Helvetica,sans-Serif" font-size="11.00" fill="#000000">[table]</text>
<polygon fill="none" stroke="#000000" points="8.5,-612.7 8.5,-634.7 219.5,-634.7 219.5,-612.7 8.5,-612.7"/>
<image xlink:href="../../images/primaryKeys.png" width="11px" height="12px" preserveAspectRatio="xMinYMin meet" x="13.5" y="-629.7"/>
<text text-anchor="start" x="37.5" y="-619.8" font-family="Helvetica,sans-Serif" font-size="11.00" fill="#000000">id</text>
<polygon fill="#ffffff" stroke="transparent" points="8.5,-590.7 8.5,-612.7 219.5,-612.7 219.5,-590.7 8.5,-590.7"/>
<polygon fill="none" stroke="#000000" points="8.5,-590.7 8.5,-612.7 219.5,-612.7 219.5,-590.7 8.5,-590.7"/>
<text text-anchor="start" x="37.5" y="-597.8" font-family="Helvetica,sans-Serif" font-size="11.00" fill="#000000">code</text>
<polygon fill="#ffffff" stroke="transparent" points="8.5,-568.7 8.5,-590.7 219.5,-590.7 219.5,-568.7 8.5,-568.7"/>
<polygon fill="none" stroke="#000000" points="8.5,-568.7 8.5,-590.7 219.5,-590.7 219.5,-568.7 8.5,-568.7"/>
<text text-anchor="start" x="37.5" y="-575.8" font-family="Helvetica,sans-Serif" font-size="11.00" fill="#000000">sequence_number</text>
<polygon fill="none" stroke="#000000" points="8.5,-549.7 8.5,-568.7 219.5,-568.7 219.5,-549.7 8.5,-549.7"/>
<text text-anchor="start" x="11.5" y="-555.8" font-family="Helvetica,sans-Serif" font-size="11.00" fill="#000000">...</text>
<polygon fill="#ffffff" stroke="transparent" points="8.5,-530.7 8.5,-549.7 103.5,-549.7 103.5,-530.7 8.5,-530.7"/>
<polygon fill="none" stroke="#000000" points="8.5,-530.7 8.5,-549.7 103.5,-549.7 103.5,-530.7 8.5,-530.7"/>
<text text-anchor="start" x="11.5" y="-536.8" font-family="Helvetica,sans-Serif" font-size="11.00" fill="#000000"> &#160;</text>
<polygon fill="#ffffff" stroke="transparent" points="103.5,-530.7 103.5,-549.7 156.5,-549.7 156.5,-530.7 103.5,-530.7"/>
<polygon fill="none" stroke="#000000" points="103.5,-530.7 103.5,-549.7 156.5,-549.7 156.5,-530.7 103.5,-530.7"/>
<text text-anchor="start" x="147.3862" y="-536.8" font-family="Helvetica,sans-Serif" font-size="11.00" fill="#000000"> &#160;</text>
<polygon fill="#ffffff" stroke="transparent" points="156.5,-530.7 156.5,-549.7 219.5,-549.7 219.5,-530.7 156.5,-530.7"/>
<polygon fill="none" stroke="#000000" points="156.5,-530.7 156.5,-549.7 219.5,-549.7 219.5,-530.7 156.5,-530.7"/>
<text text-anchor="start" x="200.9053" y="-536.8" font-family="Helvetica,sans-Serif" font-size="11.00" fill="#000000">2 &gt;</text>
</a>
</g>
</g>
<!-- court_appearance&#45;&gt;court_appearance_reason -->
<g id="edge3" class="edge">
<title>court_appearance:w&#45;&gt;court_appearance_reason:e</title>
<path fill="none" stroke="#000000" d="M313.3826,-500.6635C259.5512,-516.5661 287.6051,-623.7 219.5,-623.7"/>
<polygon fill="#000000" stroke="#000000" points="320.0712,-499.7651 328.4793,-502.268 324.0356,-499.2325 328,-498.7 328,-498.7 328,-498.7 324.0356,-499.2325 327.5207,-495.132 320.0712,-499.7651 320.0712,-499.7651"/>
<ellipse fill="none" stroke="#000000" cx="316.8997" cy="-500.1911" rx="3.2" ry="3.2"/>
</g>
<!-- court_appearance_status -->
<g id="node5" class="node">
<title>court_appearance_status</title>
<g id="a_node5"><a xlink:href="../../tables/court_appearance_status.html" xlink:title="court_appearance_status" target="_top">
<polygon fill="#ffffff" stroke="transparent" points="9.5,-383.2 9.5,-510.2 217.5,-510.2 217.5,-383.2 9.5,-383.2"/>
<polygon fill="#f5f5f5" stroke="transparent" points="9.5,-486.7 9.5,-509.7 217.5,-509.7 217.5,-486.7 9.5,-486.7"/>
<polygon fill="none" stroke="#000000" points="9.5,-486.7 9.5,-509.7 217.5,-509.7 217.5,-486.7 9.5,-486.7"/>
<text text-anchor="start" x="14.5" y="-495.3" font-family="Helvetica,sans-Serif" font-weight="bold" font-size="11.00" fill="#000000">court_appearance_status</text>
<text text-anchor="start" x="183.0219" y="-494.8" font-family="Helvetica,sans-Serif" font-size="11.00" fill="#000000">[table]</text>
<polygon fill="none" stroke="#000000" points="9.5,-464.7 9.5,-486.7 217.5,-486.7 217.5,-464.7 9.5,-464.7"/>
<image xlink:href="../../images/primaryKeys.png" width="11px" height="12px" preserveAspectRatio="xMinYMin meet" x="14.5" y="-481.7"/>
<text text-anchor="start" x="38.5" y="-471.8" font-family="Helvetica,sans-Serif" font-size="11.00" fill="#000000">id</text>
<polygon fill="#ffffff" stroke="transparent" points="9.5,-442.7 9.5,-464.7 217.5,-464.7 217.5,-442.7 9.5,-442.7"/>
<polygon fill="none" stroke="#000000" points="9.5,-442.7 9.5,-464.7 217.5,-464.7 217.5,-442.7 9.5,-442.7"/>
<text text-anchor="start" x="38.5" y="-449.8" font-family="Helvetica,sans-Serif" font-size="11.00" fill="#000000">code</text>
<polygon fill="#ffffff" stroke="transparent" points="9.5,-420.7 9.5,-442.7 217.5,-442.7 217.5,-420.7 9.5,-420.7"/>
<polygon fill="none" stroke="#000000" points="9.5,-420.7 9.5,-442.7 217.5,-442.7 217.5,-420.7 9.5,-420.7"/>
<text text-anchor="start" x="38.5" y="-427.8" font-family="Helvetica,sans-Serif" font-size="11.00" fill="#000000">sequence_number</text>
<polygon fill="none" stroke="#000000" points="9.5,-401.7 9.5,-420.7 217.5,-420.7 217.5,-401.7 9.5,-401.7"/>
<text text-anchor="start" x="12.5" y="-407.8" font-family="Helvetica,sans-Serif" font-size="11.00" fill="#000000">...</text>
<polygon fill="#ffffff" stroke="transparent" points="9.5,-382.7 9.5,-401.7 102.5,-401.7 102.5,-382.7 9.5,-382.7"/>
<polygon fill="none" stroke="#000000" points="9.5,-382.7 9.5,-401.7 102.5,-401.7 102.5,-382.7 9.5,-382.7"/>
<text text-anchor="start" x="12.5" y="-388.8" font-family="Helvetica,sans-Serif" font-size="11.00" fill="#000000"> &#160;</text>
<polygon fill="#ffffff" stroke="transparent" points="102.5,-382.7 102.5,-401.7 155.5,-401.7 155.5,-382.7 102.5,-382.7"/>
<polygon fill="none" stroke="#000000" points="102.5,-382.7 102.5,-401.7 155.5,-401.7 155.5,-382.7 102.5,-382.7"/>
<text text-anchor="start" x="146.3862" y="-388.8" font-family="Helvetica,sans-Serif" font-size="11.00" fill="#000000"> &#160;</text>
<polygon fill="#ffffff" stroke="transparent" points="155.5,-382.7 155.5,-401.7 217.5,-401.7 217.5,-382.7 155.5,-382.7"/>
<polygon fill="none" stroke="#000000" points="155.5,-382.7 155.5,-401.7 217.5,-401.7 217.5,-382.7 155.5,-382.7"/>
<text text-anchor="start" x="198.9053" y="-388.8" font-family="Helvetica,sans-Serif" font-size="11.00" fill="#000000">1 &gt;</text>
</a>
</g>
</g>
<!-- court_appearance&#45;&gt;court_appearance_status -->
<g id="edge4" class="edge">
<title>court_appearance:w&#45;&gt;court_appearance_status:e</title>
<path fill="none" stroke="#000000" d="M313.1105,-476.6667C275.7613,-476.4932 261.2414,-475.7 217.5,-475.7"/>
<polygon fill="#000000" stroke="#000000" points="320,-476.6821 327.9919,-480.3 324,-476.691 328,-476.7 328,-476.7 328,-476.7 324,-476.691 328.0081,-473.1 320,-476.6821 320,-476.6821"/>
<ellipse fill="none" stroke="#000000" cx="316.8" cy="-476.6749" rx="3.2" ry="3.2"/>
</g>
<!-- audit_revision -->
<g id="node7" class="node">
<title>audit_revision</title>
<g id="a_node7"><a xlink:href="../../tables/audit_revision.html" xlink:title="audit_revision" target="_top">
<polygon fill="#ffffff" stroke="transparent" points="46.5,-139.2 46.5,-222.2 180.5,-222.2 180.5,-139.2 46.5,-139.2"/>
<polygon fill="#f5f5f5" stroke="transparent" points="46.5,-198.7 46.5,-221.7 180.5,-221.7 180.5,-198.7 46.5,-198.7"/>
<polygon fill="none" stroke="#000000" points="46.5,-198.7 46.5,-221.7 180.5,-221.7 180.5,-198.7 46.5,-198.7"/>
<text text-anchor="start" x="51.5" y="-207.3" font-family="Helvetica,sans-Serif" font-weight="bold" font-size="11.00" fill="#000000">audit_revision</text>
<text text-anchor="start" x="146.0219" y="-206.8" font-family="Helvetica,sans-Serif" font-size="11.00" fill="#000000">[table]</text>
<polygon fill="none" stroke="#000000" points="46.5,-176.7 46.5,-198.7 180.5,-198.7 180.5,-176.7 46.5,-176.7"/>
<image xlink:href="../../images/primaryKeys.png" width="11px" height="12px" preserveAspectRatio="xMinYMin meet" x="51.5" y="-193.7"/>
<text text-anchor="start" x="66.5" y="-183.8" font-family="Helvetica,sans-Serif" font-size="11.00" fill="#000000">id</text>
<polygon fill="none" stroke="#000000" points="46.5,-157.7 46.5,-176.7 180.5,-176.7 180.5,-157.7 46.5,-157.7"/>
<text text-anchor="start" x="49.5" y="-163.8" font-family="Helvetica,sans-Serif" font-size="11.00" fill="#000000">...</text>
<polygon fill="#ffffff" stroke="transparent" points="46.5,-138.7 46.5,-157.7 102.5,-157.7 102.5,-138.7 46.5,-138.7"/>
<polygon fill="none" stroke="#000000" points="46.5,-138.7 46.5,-157.7 102.5,-157.7 102.5,-138.7 46.5,-138.7"/>
<text text-anchor="start" x="49.5" y="-144.8" font-family="Helvetica,sans-Serif" font-size="11.00" fill="#000000"> &#160;</text>
<polygon fill="#ffffff" stroke="transparent" points="102.5,-138.7 102.5,-157.7 136.5,-157.7 136.5,-138.7 102.5,-138.7"/>
<polygon fill="none" stroke="#000000" points="102.5,-138.7 102.5,-157.7 136.5,-157.7 136.5,-138.7 102.5,-138.7"/>
<text text-anchor="start" x="127.3862" y="-144.8" font-family="Helvetica,sans-Serif" font-size="11.00" fill="#000000"> &#160;</text>
<polygon fill="#ffffff" stroke="transparent" points="136.5,-138.7 136.5,-157.7 180.5,-157.7 180.5,-138.7 136.5,-138.7"/>
<polygon fill="none" stroke="#000000" points="136.5,-138.7 136.5,-157.7 180.5,-157.7 180.5,-138.7 136.5,-138.7"/>
<text text-anchor="start" x="161.9053" y="-144.8" font-family="Helvetica,sans-Serif" font-size="11.00" fill="#000000">2 &gt;</text>
</a>
</g>
</g>
<!-- court_appearance&#45;&gt;audit_revision -->
<g id="edge1" class="edge">
<title>court_appearance:w&#45;&gt;audit_revision:e</title>
<path fill="none" stroke="#000000" stroke-dasharray="5,2" d="M317.4194,-432.0815C206.9516,-418.5548 303.876,-187.7 180.5,-187.7"/>
<polygon fill="#000000" stroke="#000000" points="327.4348,-428.6601 326.9679,-436.6465 325.3706,-436.5531 325.8376,-428.5667 327.4348,-428.6601"/>
<polyline fill="none" stroke="#000000" points="328,-432.7 324.0068,-432.4665 "/>
<ellipse fill="none" stroke="#000000" cx="320.8123" cy="-432.2797" rx="3.2" ry="3.2"/>
</g>
<!-- person_summary -->
<g id="node8" class="node">
<title>person_summary</title>
<g id="a_node8"><a xlink:href="../../tables/person_summary.html" xlink:title="person_summary" target="_top">
<polygon fill="#ffffff" stroke="transparent" points="36.5,-243.2 36.5,-326.2 190.5,-326.2 190.5,-243.2 36.5,-243.2"/>
<polygon fill="#f5f5f5" stroke="transparent" points="36.5,-302.7 36.5,-325.7 190.5,-325.7 190.5,-302.7 36.5,-302.7"/>
<polygon fill="none" stroke="#000000" points="36.5,-302.7 36.5,-325.7 190.5,-325.7 190.5,-302.7 36.5,-302.7"/>
<text text-anchor="start" x="41.5" y="-311.3" font-family="Helvetica,sans-Serif" font-weight="bold" font-size="11.00" fill="#000000">person_summary</text>
<text text-anchor="start" x="156.0219" y="-310.8" font-family="Helvetica,sans-Serif" font-size="11.00" fill="#000000">[table]</text>
<polygon fill="none" stroke="#000000" points="36.5,-280.7 36.5,-302.7 190.5,-302.7 190.5,-280.7 36.5,-280.7"/>
<image xlink:href="../../images/primaryKeys.png" width="11px" height="12px" preserveAspectRatio="xMinYMin meet" x="41.5" y="-297.7"/>
<text text-anchor="start" x="65.5" y="-287.8" font-family="Helvetica,sans-Serif" font-size="11.00" fill="#000000">person_identifier</text>
<polygon fill="none" stroke="#000000" points="36.5,-261.7 36.5,-280.7 190.5,-280.7 190.5,-261.7 36.5,-261.7"/>
<text text-anchor="start" x="39.5" y="-267.8" font-family="Helvetica,sans-Serif" font-size="11.00" fill="#000000">...</text>
<polygon fill="#ffffff" stroke="transparent" points="36.5,-242.7 36.5,-261.7 102.5,-261.7 102.5,-242.7 36.5,-242.7"/>
<polygon fill="none" stroke="#000000" points="36.5,-242.7 36.5,-261.7 102.5,-261.7 102.5,-242.7 36.5,-242.7"/>
<text text-anchor="start" x="39.5" y="-248.8" font-family="Helvetica,sans-Serif" font-size="11.00" fill="#000000"> &#160;</text>
<polygon fill="#ffffff" stroke="transparent" points="102.5,-242.7 102.5,-261.7 141.5,-261.7 141.5,-242.7 102.5,-242.7"/>
<polygon fill="none" stroke="#000000" points="102.5,-242.7 102.5,-261.7 141.5,-261.7 141.5,-242.7 102.5,-242.7"/>
<text text-anchor="start" x="132.3862" y="-248.8" font-family="Helvetica,sans-Serif" font-size="11.00" fill="#000000"> &#160;</text>
<polygon fill="#ffffff" stroke="transparent" points="141.5,-242.7 141.5,-261.7 190.5,-261.7 190.5,-242.7 141.5,-242.7"/>
<polygon fill="none" stroke="#000000" points="141.5,-242.7 141.5,-261.7 190.5,-261.7 190.5,-242.7 141.5,-242.7"/>
<text text-anchor="start" x="171.9053" y="-248.8" font-family="Helvetica,sans-Serif" font-size="11.00" fill="#000000">2 &gt;</text>
</a>
</g>
</g>
<!-- court_appearance&#45;&gt;person_summary -->
<g id="edge2" class="edge">
<title>court_appearance:w&#45;&gt;person_summary:e</title>
<path fill="none" stroke="#000000" d="M313.547,-541.4679C209.9809,-522.5324 312.4804,-291.7 190.5,-291.7"/>
<polygon fill="#000000" stroke="#000000" points="320.0289,-542.0204 327.6942,-546.287 324.0145,-542.3602 328,-542.7 328,-542.7 328,-542.7 324.0145,-542.3602 328.3058,-539.113 320.0289,-542.0204 320.0289,-542.0204"/>
<ellipse fill="none" stroke="#000000" cx="316.8405" cy="-541.7486" rx="3.2" ry="3.2"/>
</g>
<!-- court_appearance_audit -->
<g id="node2" class="node">
<title>court_appearance_audit</title>
<g id="a_node2"><a xlink:href="../../tables/court_appearance_audit.html" xlink:title="court_appearance_audit" target="_top">
<polygon fill="#ffffff" stroke="transparent" points="307,-38.2 307,-187.2 507,-187.2 507,-38.2 307,-38.2"/>
<polygon fill="#f5f5f5" stroke="transparent" points="307,-163.7 307,-186.7 507,-186.7 507,-163.7 307,-163.7"/>
<polygon fill="none" stroke="#000000" points="307,-163.7 307,-186.7 507,-186.7 507,-163.7 307,-163.7"/>
<text text-anchor="start" x="312" y="-172.3" font-family="Helvetica,sans-Serif" font-weight="bold" font-size="11.00" fill="#000000">court_appearance_audit</text>
<text text-anchor="start" x="472.5219" y="-171.8" font-family="Helvetica,sans-Serif" font-size="11.00" fill="#000000">[table]</text>
<polygon fill="none" stroke="#000000" points="307,-141.7 307,-163.7 507,-163.7 507,-141.7 307,-141.7"/>
<image xlink:href="../../images/primaryKeys.png" width="11px" height="12px" preserveAspectRatio="xMinYMin meet" x="312" y="-158.7"/>
<text text-anchor="start" x="336" y="-148.8" font-family="Helvetica,sans-Serif" font-size="11.00" fill="#000000">rev_id</text>
<polygon fill="none" stroke="#000000" points="307,-119.7 307,-141.7 507,-141.7 507,-119.7 307,-119.7"/>
<image xlink:href="../../images/primaryKeys.png" width="11px" height="12px" preserveAspectRatio="xMinYMin meet" x="312" y="-136.7"/>
<text text-anchor="start" x="336" y="-126.8" font-family="Helvetica,sans-Serif" font-size="11.00" fill="#000000">id</text>
<polygon fill="none" stroke="#000000" points="307,-97.7 307,-119.7 507,-119.7 507,-97.7 307,-97.7"/>
<image xlink:href="../../images/foreignKeys.png" width="11px" height="12px" preserveAspectRatio="xMinYMin meet" x="312" y="-114.7"/>
<text text-anchor="start" x="336" y="-104.8" font-family="Helvetica,sans-Serif" font-size="11.00" fill="#000000">person_identifier</text>
<polygon fill="none" stroke="#000000" points="307,-75.7 307,-97.7 507,-97.7 507,-75.7 307,-75.7"/>
<image xlink:href="../../images/foreignKeys.png" width="11px" height="12px" preserveAspectRatio="xMinYMin meet" x="312" y="-92.7"/>
<text text-anchor="start" x="336" y="-82.8" font-family="Helvetica,sans-Serif" font-size="11.00" fill="#000000">legacy_id</text>
<polygon fill="none" stroke="#000000" points="307,-56.7 307,-75.7 507,-75.7 507,-56.7 307,-56.7"/>
<text text-anchor="start" x="310" y="-62.8" font-family="Helvetica,sans-Serif" font-size="11.00" fill="#000000">...</text>
<polygon fill="#ffffff" stroke="transparent" points="307,-37.7 307,-56.7 405,-56.7 405,-37.7 307,-37.7"/>
<polygon fill="none" stroke="#000000" points="307,-37.7 307,-56.7 405,-56.7 405,-37.7 307,-37.7"/>
<text text-anchor="start" x="310" y="-43.8" font-family="Helvetica,sans-Serif" font-size="11.00" fill="#000000">&lt; 1</text>
<polygon fill="#ffffff" stroke="transparent" points="405,-37.7 405,-56.7 456,-56.7 456,-37.7 405,-37.7"/>
<polygon fill="none" stroke="#000000" points="405,-37.7 405,-56.7 456,-56.7 456,-37.7 405,-37.7"/>
<text text-anchor="start" x="446.8862" y="-43.8" font-family="Helvetica,sans-Serif" font-size="11.00" fill="#000000"> &#160;</text>
<polygon fill="#ffffff" stroke="transparent" points="456,-37.7 456,-56.7 507,-56.7 507,-37.7 456,-37.7"/>
<polygon fill="none" stroke="#000000" points="456,-37.7 456,-56.7 507,-56.7 507,-37.7 456,-37.7"/>
<text text-anchor="start" x="497.8862" y="-43.8" font-family="Helvetica,sans-Serif" font-size="11.00" fill="#000000"> &#160;</text>
</a>
</g>
</g>
<!-- court_appearance_audit&#45;&gt;audit_revision -->
<g id="edge5" class="edge">
<title>court_appearance_audit:w&#45;&gt;audit_revision:e</title>
<path fill="none" stroke="#000000" stroke-dasharray="5,2" d="M292.3844,-88.2865C237.1449,-101.1358 247.1045,-187.7 180.5,-187.7"/>
<polygon fill="#000000" stroke="#000000" points="299.0467,-87.5633 307.3885,-90.279 303.0234,-87.1317 307,-86.7 307,-86.7 307,-86.7 303.0234,-87.1317 306.6115,-83.121 299.0467,-87.5633 299.0467,-87.5633"/>
<ellipse fill="none" stroke="#000000" cx="295.8654" cy="-87.9087" rx="3.2" ry="3.2"/>
</g>
<!-- court_appearance_audit&#45;&gt;audit_revision -->
<g id="edge7" class="edge">
<title>court_appearance_audit:w&#45;&gt;audit_revision:e</title>
<path fill="none" stroke="#000000" d="M292.3812,-153.4968C246.5075,-158.7065 233.5935,-187.7 180.5,-187.7"/>
<polygon fill="#000000" stroke="#000000" points="299.0119,-153.1354 307.1959,-156.2947 303.0059,-152.9177 307,-152.7 307,-152.7 307,-152.7 303.0059,-152.9177 306.8041,-149.1053 299.0119,-153.1354 299.0119,-153.1354"/>
<ellipse fill="none" stroke="#000000" cx="295.8166" cy="-153.3096" rx="3.2" ry="3.2"/>
</g>
<!-- court_appearance_audit&#45;&gt;person_summary -->
<g id="edge6" class="edge">
<title>court_appearance_audit:w&#45;&gt;person_summary:e</title>
<path fill="none" stroke="#000000" stroke-dasharray="5,2" d="M292.6752,-110.282C218.4162,-128.1683 281.6433,-291.7 190.5,-291.7"/>
<polygon fill="#000000" stroke="#000000" points="299.0483,-109.5782 307.3952,-112.2782 303.0242,-109.1391 307,-108.7 307,-108.7 307,-108.7 303.0242,-109.1391 306.6048,-105.1218 299.0483,-109.5782 299.0483,-109.5782"/>
<ellipse fill="none" stroke="#000000" cx="295.8677" cy="-109.9295" rx="3.2" ry="3.2"/>
</g>
<!-- court_appearance_movement -->
<g id="node4" class="node">
<title>court_appearance_movement</title>
<g id="a_node4"><a xlink:href="../../tables/court_appearance_movement.html" xlink:title="court_appearance_movement" target="_top">
<polygon fill="#ffffff" stroke="transparent" points="595,-450.2 595,-621.2 832,-621.2 832,-450.2 595,-450.2"/>
<polygon fill="#f5f5f5" stroke="transparent" points="595.5,-597.7 595.5,-620.7 832.5,-620.7 832.5,-597.7 595.5,-597.7"/>
<polygon fill="none" stroke="#000000" points="595.5,-597.7 595.5,-620.7 832.5,-620.7 832.5,-597.7 595.5,-597.7"/>
<text text-anchor="start" x="600.5" y="-606.3" font-family="Helvetica,sans-Serif" font-weight="bold" font-size="11.00" fill="#000000">court_appearance_movement</text>
<text text-anchor="start" x="798.0219" y="-605.8" font-family="Helvetica,sans-Serif" font-size="11.00" fill="#000000">[table]</text>
<polygon fill="none" stroke="#000000" points="595.5,-575.7 595.5,-597.7 832.5,-597.7 832.5,-575.7 595.5,-575.7"/>
<image xlink:href="../../images/primaryKeys.png" width="11px" height="12px" preserveAspectRatio="xMinYMin meet" x="600.5" y="-592.7"/>
<text text-anchor="start" x="624.5" y="-582.8" font-family="Helvetica,sans-Serif" font-size="11.00" fill="#000000">id</text>
<polygon fill="none" stroke="#000000" points="595.5,-553.7 595.5,-575.7 832.5,-575.7 832.5,-553.7 595.5,-553.7"/>
<image xlink:href="../../images/foreignKeys.png" width="11px" height="12px" preserveAspectRatio="xMinYMin meet" x="600.5" y="-570.7"/>
<text text-anchor="start" x="624.5" y="-560.8" font-family="Helvetica,sans-Serif" font-size="11.00" fill="#000000">court_appearance_id</text>
<polygon fill="#ffffff" stroke="transparent" points="595.5,-531.7 595.5,-553.7 832.5,-553.7 832.5,-531.7 595.5,-531.7"/>
<polygon fill="none" stroke="#000000" points="595.5,-531.7 595.5,-553.7 832.5,-553.7 832.5,-531.7 595.5,-531.7"/>
<image xlink:href="../../images/foreignKeys.png" width="11px" height="12px" preserveAspectRatio="xMinYMin meet" x="600.5" y="-548.7"/>
<text text-anchor="start" x="624.5" y="-538.8" font-family="Helvetica,sans-Serif" font-size="11.00" fill="#000000">person_identifier</text>
<polygon fill="none" stroke="#000000" points="595.5,-509.7 595.5,-531.7 832.5,-531.7 832.5,-509.7 595.5,-509.7"/>
<image xlink:href="../../images/foreignKeys.png" width="11px" height="12px" preserveAspectRatio="xMinYMin meet" x="600.5" y="-526.7"/>
<text text-anchor="start" x="624.5" y="-516.8" font-family="Helvetica,sans-Serif" font-size="11.00" fill="#000000">reason_id</text>
<polygon fill="#ffffff" stroke="transparent" points="595.5,-487.7 595.5,-509.7 832.5,-509.7 832.5,-487.7 595.5,-487.7"/>
<polygon fill="none" stroke="#000000" points="595.5,-487.7 595.5,-509.7 832.5,-509.7 832.5,-487.7 595.5,-487.7"/>
<text text-anchor="start" x="624.5" y="-494.8" font-family="Helvetica,sans-Serif" font-size="11.00" fill="#000000">legacy_id</text>
<polygon fill="none" stroke="#000000" points="595.5,-468.7 595.5,-487.7 832.5,-487.7 832.5,-468.7 595.5,-468.7"/>
<text text-anchor="start" x="598.5" y="-474.8" font-family="Helvetica,sans-Serif" font-size="11.00" fill="#000000">...</text>
<polygon fill="#ffffff" stroke="transparent" points="595.5,-449.7 595.5,-468.7 712.5,-468.7 712.5,-449.7 595.5,-449.7"/>
<polygon fill="none" stroke="#000000" points="595.5,-449.7 595.5,-468.7 712.5,-468.7 712.5,-449.7 595.5,-449.7"/>
<text text-anchor="start" x="598.5" y="-455.8" font-family="Helvetica,sans-Serif" font-size="11.00" fill="#000000">&lt; 3</text>
<polygon fill="#ffffff" stroke="transparent" points="712.5,-449.7 712.5,-468.7 772.5,-468.7 772.5,-449.7 712.5,-449.7"/>
<polygon fill="none" stroke="#000000" points="712.5,-449.7 712.5,-468.7 772.5,-468.7 772.5,-449.7 712.5,-449.7"/>
<text text-anchor="start" x="763.3862" y="-455.8" font-family="Helvetica,sans-Serif" font-size="11.00" fill="#000000"> &#160;</text>
<polygon fill="#ffffff" stroke="transparent" points="772.5,-449.7 772.5,-468.7 832.5,-468.7 832.5,-449.7 772.5,-449.7"/>
<polygon fill="none" stroke="#000000" points="772.5,-449.7 772.5,-468.7 832.5,-468.7 832.5,-449.7 772.5,-449.7"/>
<text text-anchor="start" x="823.3862" y="-455.8" font-family="Helvetica,sans-Serif" font-size="11.00" fill="#000000"> &#160;</text>
</a>
</g>
</g>
<!-- court_appearance_movement&#45;&gt;court_appearance -->
<g id="edge8" class="edge">
<title>court_appearance_movement:w&#45;&gt;court_appearance:e</title>
<path fill="none" stroke="#000000" d="M580.8804,-564.7C544.208,-564.7 529.9479,-564.7 487,-564.7"/>
<polygon fill="#000000" stroke="#000000" points="587.5,-564.7001 595.5,-568.3 591.5,-564.7 595.5,-564.7 595.5,-564.7 595.5,-564.7 591.5,-564.7 595.5,-561.1 587.5,-564.7001 587.5,-564.7001"/>
<ellipse fill="none" stroke="#000000" cx="584.3" cy="-564.7001" rx="3.2" ry="3.2"/>
</g>
<!-- court_appearance_movement&#45;&gt;court_appearance_reason -->
<g id="edge10" class="edge">
<title>court_appearance_movement:w&#45;&gt;court_appearance_reason:e</title>
<path fill="none" stroke="#000000" d="M581.5219,-524.2505C561.1925,-538.1185 585.2046,-588.8902 554,-609.7 430.206,-692.2562 368.2968,-623.7 219.5,-623.7"/>
<polygon fill="#000000" stroke="#000000" points="587.7462,-522.6695 596.3863,-524.1892 591.6231,-521.6848 595.5,-520.7 595.5,-520.7 595.5,-520.7 591.6231,-521.6848 594.6137,-517.2108 587.7462,-522.6695 587.7462,-522.6695"/>
<ellipse fill="none" stroke="#000000" cx="584.6447" cy="-523.4573" rx="3.2" ry="3.2"/>
</g>
<!-- court_appearance_movement&#45;&gt;person_summary -->
<g id="edge9" class="edge">
<title>court_appearance_movement:w&#45;&gt;person_summary:e</title>
<path fill="none" stroke="#000000" d="M580.9841,-540.8189C531.3234,-525.4929 608.1848,-420.5071 554,-373.7 504.3355,-330.7978 321.002,-369.9058 260,-345.7 223.641,-331.2726 229.6168,-291.7 190.5,-291.7"/>
<polygon fill="#000000" stroke="#000000" points="587.5663,-541.6718 595.0373,-546.2701 591.5332,-542.1859 595.5,-542.7 595.5,-542.7 595.5,-542.7 591.5332,-542.1859 595.9627,-539.1299 587.5663,-541.6718 587.5663,-541.6718"/>
<ellipse fill="none" stroke="#000000" cx="584.3929" cy="-541.2606" rx="3.2" ry="3.2"/>
</g>
<!-- court_appearance_movement_audit -->
<g id="node6" class="node">
<title>court_appearance_movement_audit</title>
<g id="a_node6"><a xlink:href="../../tables/court_appearance_movement_audit.html" xlink:title="court_appearance_movement_audit" target="_top">
<polygon fill="#ffffff" stroke="transparent" points="268,-208.2 268,-335.2 546,-335.2 546,-208.2 268,-208.2"/>
<polygon fill="#f5f5f5" stroke="transparent" points="268,-311.7 268,-334.7 546,-334.7 546,-311.7 268,-311.7"/>
<polygon fill="none" stroke="#000000" points="268,-311.7 268,-334.7 546,-334.7 546,-311.7 268,-311.7"/>
<text text-anchor="start" x="273" y="-320.3" font-family="Helvetica,sans-Serif" font-weight="bold" font-size="11.00" fill="#000000">court_appearance_movement_audit</text>
<text text-anchor="start" x="511.5219" y="-319.8" font-family="Helvetica,sans-Serif" font-size="11.00" fill="#000000">[table]</text>
<polygon fill="none" stroke="#000000" points="268,-289.7 268,-311.7 546,-311.7 546,-289.7 268,-289.7"/>
<image xlink:href="../../images/primaryKeys.png" width="11px" height="12px" preserveAspectRatio="xMinYMin meet" x="273" y="-306.7"/>
<text text-anchor="start" x="297" y="-296.8" font-family="Helvetica,sans-Serif" font-size="11.00" fill="#000000">rev_id</text>
<polygon fill="none" stroke="#000000" points="268,-267.7 268,-289.7 546,-289.7 546,-267.7 268,-267.7"/>
<image xlink:href="../../images/primaryKeys.png" width="11px" height="12px" preserveAspectRatio="xMinYMin meet" x="273" y="-284.7"/>
<text text-anchor="start" x="297" y="-274.8" font-family="Helvetica,sans-Serif" font-size="11.00" fill="#000000">id</text>
<polygon fill="none" stroke="#000000" points="268,-245.7 268,-267.7 546,-267.7 546,-245.7 268,-245.7"/>
<image xlink:href="../../images/foreignKeys.png" width="11px" height="12px" preserveAspectRatio="xMinYMin meet" x="273" y="-262.7"/>
<text text-anchor="start" x="297" y="-252.8" font-family="Helvetica,sans-Serif" font-size="11.00" fill="#000000">person_identifier</text>
<polygon fill="none" stroke="#000000" points="268,-226.7 268,-245.7 546,-245.7 546,-226.7 268,-226.7"/>
<text text-anchor="start" x="271" y="-232.8" font-family="Helvetica,sans-Serif" font-size="11.00" fill="#000000">...</text>
<polygon fill="#ffffff" stroke="transparent" points="268,-207.7 268,-226.7 405,-226.7 405,-207.7 268,-207.7"/>
<polygon fill="none" stroke="#000000" points="268,-207.7 268,-226.7 405,-226.7 405,-207.7 268,-207.7"/>
<text text-anchor="start" x="271" y="-213.8" font-family="Helvetica,sans-Serif" font-size="11.00" fill="#000000">&lt; 1</text>
<polygon fill="#ffffff" stroke="transparent" points="405,-207.7 405,-226.7 475,-226.7 475,-207.7 405,-207.7"/>
<polygon fill="none" stroke="#000000" points="405,-207.7 405,-226.7 475,-226.7 475,-207.7 405,-207.7"/>
<text text-anchor="start" x="465.8862" y="-213.8" font-family="Helvetica,sans-Serif" font-size="11.00" fill="#000000"> &#160;</text>
<polygon fill="#ffffff" stroke="transparent" points="475,-207.7 475,-226.7 546,-226.7 546,-207.7 475,-207.7"/>
<polygon fill="none" stroke="#000000" points="475,-207.7 475,-226.7 546,-226.7 546,-207.7 475,-207.7"/>
<text text-anchor="start" x="536.8862" y="-213.8" font-family="Helvetica,sans-Serif" font-size="11.00" fill="#000000"> &#160;</text>
</a>
</g>
</g>
<!-- court_appearance_movement_audit&#45;&gt;audit_revision -->
<g id="edge12" class="edge">
<title>court_appearance_movement_audit:w&#45;&gt;audit_revision:e</title>
<path fill="none" stroke="#000000" d="M253.9164,-297.3907C237.1711,-287.1945 245.1984,-255.5676 227,-232.7 209.0915,-210.1967 209.2595,-187.7 180.5,-187.7"/>
<polygon fill="#000000" stroke="#000000" points="260.2121,-298.87 267.1765,-304.2046 264.1061,-299.785 268,-300.7 268,-300.7 268,-300.7 264.1061,-299.785 268.8235,-297.1954 260.2121,-298.87 260.2121,-298.87"/>
<ellipse fill="none" stroke="#000000" cx="257.0969" cy="-298.138" rx="3.2" ry="3.2"/>
</g>
<!-- court_appearance_movement_audit&#45;&gt;person_summary -->
<g id="edge11" class="edge">
<title>court_appearance_movement_audit:w&#45;&gt;person_summary:e</title>
<path fill="none" stroke="#000000" stroke-dasharray="5,2" d="M253.6447,-258.682C228.9037,-266.0861 222.8317,-291.7 190.5,-291.7"/>
<polygon fill="#000000" stroke="#000000" points="260.0752,-257.7942 268.4924,-260.2662 264.0376,-257.2471 268,-256.7 268,-256.7 268,-256.7 264.0376,-257.2471 267.5076,-253.1338 260.0752,-257.7942 260.0752,-257.7942"/>
<ellipse fill="none" stroke="#000000" cx="256.9053" cy="-258.2319" rx="3.2" ry="3.2"/>
</g>
</g>
</svg>
