<?xml version="1.0" encoding="UTF-8" standalone="no"?>
<!DOCTYPE svg PUBLIC "-//W3C//DTD SVG 1.1//EN"
 "http://www.w3.org/Graphics/SVG/1.1/DTD/svg11.dtd">
<!-- Generated by graphviz version 2.40.1 (20161225.0304)
 -->
<!-- Title: compactRelationshipsDiagram Pages: 1 -->
<svg width="770pt" height="765pt"
 viewBox="0.00 0.00 770.00 765.20" xmlns="http://www.w3.org/2000/svg" xmlns:xlink="http://www.w3.org/1999/xlink">
<g id="graph0" class="graph" transform="scale(1 1) rotate(0) translate(4 761.2)">
<title>compactRelationshipsDiagram</title>
<polygon fill="#ffffff" stroke="transparent" points="-4,4 -4,-761.2 766,-761.2 766,4 -4,4"/>
<text text-anchor="middle" x="72.4936" y="-7.3" font-family="Helvetica,sans-Serif" font-size="11.00" fill="#000000">Generated by SchemaSpy</text>
<!-- court_appearance -->
<g id="node1" class="node">
<title>court_appearance</title>
<g id="a_node1"><a xlink:href="../../tables/court_appearance.html" xlink:title="court_appearance" target="_top">
<polygon fill="#ffffff" stroke="transparent" points="268,-158.2 268,-373.2 427,-373.2 427,-158.2 268,-158.2"/>
<polygon fill="#f5f5f5" stroke="transparent" points="268.5,-349.7 268.5,-372.7 427.5,-372.7 427.5,-349.7 268.5,-349.7"/>
<polygon fill="none" stroke="#000000" points="268.5,-349.7 268.5,-372.7 427.5,-372.7 427.5,-349.7 268.5,-349.7"/>
<text text-anchor="start" x="273.5" y="-358.3" font-family="Helvetica,sans-Serif" font-weight="bold" font-size="11.00" fill="#000000">court_appearance</text>
<text text-anchor="start" x="393.0219" y="-357.8" font-family="Helvetica,sans-Serif" font-size="11.00" fill="#000000">[table]</text>
<polygon fill="none" stroke="#000000" points="268.5,-327.7 268.5,-349.7 427.5,-349.7 427.5,-327.7 268.5,-327.7"/>
<image xlink:href="../../images/primaryKeys.png" width="11px" height="12px" preserveAspectRatio="xMinYMin meet" x="273.5" y="-344.7"/>
<text text-anchor="start" x="297.5" y="-334.8" font-family="Helvetica,sans-Serif" font-size="11.00" fill="#000000">id</text>
<polygon fill="#ffffff" stroke="transparent" points="268.5,-305.7 268.5,-327.7 427.5,-327.7 427.5,-305.7 268.5,-305.7"/>
<polygon fill="none" stroke="#000000" points="268.5,-305.7 268.5,-327.7 427.5,-327.7 427.5,-305.7 268.5,-305.7"/>
<image xlink:href="../../images/foreignKeys.png" width="11px" height="12px" preserveAspectRatio="xMinYMin meet" x="273.5" y="-322.7"/>
<text text-anchor="start" x="297.5" y="-312.8" font-family="Helvetica,sans-Serif" font-size="11.00" fill="#000000">person_identifier</text>
<polygon fill="#ffffff" stroke="transparent" points="268.5,-283.7 268.5,-305.7 427.5,-305.7 427.5,-283.7 268.5,-283.7"/>
<polygon fill="none" stroke="#000000" points="268.5,-283.7 268.5,-305.7 427.5,-305.7 427.5,-283.7 268.5,-283.7"/>
<text text-anchor="start" x="297.5" y="-290.8" font-family="Helvetica,sans-Serif" font-size="11.00" fill="#000000">prison_code</text>
<polygon fill="#ffffff" stroke="transparent" points="268.5,-261.7 268.5,-283.7 427.5,-283.7 427.5,-261.7 268.5,-261.7"/>
<polygon fill="none" stroke="#000000" points="268.5,-261.7 268.5,-283.7 427.5,-283.7 427.5,-261.7 268.5,-261.7"/>
<image xlink:href="../../images/foreignKeys.png" width="11px" height="12px" preserveAspectRatio="xMinYMin meet" x="273.5" y="-278.7"/>
<text text-anchor="start" x="297.5" y="-268.8" font-family="Helvetica,sans-Serif" font-size="11.00" fill="#000000">reason_id</text>
<polygon fill="#ffffff" stroke="transparent" points="268.5,-239.7 268.5,-261.7 427.5,-261.7 427.5,-239.7 268.5,-239.7"/>
<polygon fill="none" stroke="#000000" points="268.5,-239.7 268.5,-261.7 427.5,-261.7 427.5,-239.7 268.5,-239.7"/>
<image xlink:href="../../images/foreignKeys.png" width="11px" height="12px" preserveAspectRatio="xMinYMin meet" x="273.5" y="-256.7"/>
<text text-anchor="start" x="297.5" y="-246.8" font-family="Helvetica,sans-Serif" font-size="11.00" fill="#000000">status_id</text>
<polygon fill="#ffffff" stroke="transparent" points="268.5,-217.7 268.5,-239.7 427.5,-239.7 427.5,-217.7 268.5,-217.7"/>
<polygon fill="none" stroke="#000000" points="268.5,-217.7 268.5,-239.7 427.5,-239.7 427.5,-217.7 268.5,-217.7"/>
<text text-anchor="start" x="297.5" y="-224.8" font-family="Helvetica,sans-Serif" font-size="11.00" fill="#000000">start</text>
<polygon fill="#ffffff" stroke="transparent" points="268.5,-195.7 268.5,-217.7 427.5,-217.7 427.5,-195.7 268.5,-195.7"/>
<polygon fill="none" stroke="#000000" points="268.5,-195.7 268.5,-217.7 427.5,-217.7 427.5,-195.7 268.5,-195.7"/>
<image xlink:href="../../images/foreignKeys.png" width="11px" height="12px" preserveAspectRatio="xMinYMin meet" x="273.5" y="-212.7"/>
<text text-anchor="start" x="297.5" y="-202.8" font-family="Helvetica,sans-Serif" font-size="11.00" fill="#000000">legacy_id</text>
<polygon fill="none" stroke="#000000" points="268.5,-176.7 268.5,-195.7 427.5,-195.7 427.5,-176.7 268.5,-176.7"/>
<text text-anchor="start" x="271.5" y="-182.8" font-family="Helvetica,sans-Serif" font-size="11.00" fill="#000000">...</text>
<polygon fill="#ffffff" stroke="transparent" points="268.5,-157.7 268.5,-176.7 341.5,-176.7 341.5,-157.7 268.5,-157.7"/>
<polygon fill="none" stroke="#000000" points="268.5,-157.7 268.5,-176.7 341.5,-176.7 341.5,-157.7 268.5,-157.7"/>
<text text-anchor="start" x="271.5" y="-163.8" font-family="Helvetica,sans-Serif" font-size="11.00" fill="#000000">&lt; 3</text>
<polygon fill="#ffffff" stroke="transparent" points="341.5,-157.7 341.5,-176.7 379.5,-176.7 379.5,-157.7 341.5,-157.7"/>
<polygon fill="none" stroke="#000000" points="341.5,-157.7 341.5,-176.7 379.5,-176.7 379.5,-157.7 341.5,-157.7"/>
<text text-anchor="start" x="370.3862" y="-163.8" font-family="Helvetica,sans-Serif" font-size="11.00" fill="#000000"> &#160;</text>
<polygon fill="#ffffff" stroke="transparent" points="379.5,-157.7 379.5,-176.7 427.5,-176.7 427.5,-157.7 379.5,-157.7"/>
<polygon fill="none" stroke="#000000" points="379.5,-157.7 379.5,-176.7 427.5,-176.7 427.5,-157.7 379.5,-157.7"/>
<text text-anchor="start" x="408.9053" y="-163.8" font-family="Helvetica,sans-Serif" font-size="11.00" fill="#000000">1 &gt;</text>
</a>
</g>
</g>
<!-- court_appearance_reason -->
<g id="node3" class="node">
<title>court_appearance_reason</title>
<g id="a_node3"><a xlink:href="../../tables/court_appearance_reason.html" xlink:title="court_appearance_reason" target="_top">
<polygon fill="#ffffff" stroke="transparent" points="8,-186.2 8,-313.2 219,-313.2 219,-186.2 8,-186.2"/>
<polygon fill="#f5f5f5" stroke="transparent" points="8.5,-289.7 8.5,-312.7 219.5,-312.7 219.5,-289.7 8.5,-289.7"/>
<polygon fill="none" stroke="#000000" points="8.5,-289.7 8.5,-312.7 219.5,-312.7 219.5,-289.7 8.5,-289.7"/>
<text text-anchor="start" x="13.5" y="-298.3" font-family="Helvetica,sans-Serif" font-weight="bold" font-size="11.00" fill="#000000">court_appearance_reason</text>
<text text-anchor="start" x="185.0219" y="-297.8" font-family="Helvetica,sans-Serif" font-size="11.00" fill="#000000">[table]</text>
<polygon fill="none" stroke="#000000" points="8.5,-267.7 8.5,-289.7 219.5,-289.7 219.5,-267.7 8.5,-267.7"/>
<image xlink:href="../../images/primaryKeys.png" width="11px" height="12px" preserveAspectRatio="xMinYMin meet" x="13.5" y="-284.7"/>
<text text-anchor="start" x="37.5" y="-274.8" font-family="Helvetica,sans-Serif" font-size="11.00" fill="#000000">id</text>
<polygon fill="#ffffff" stroke="transparent" points="8.5,-245.7 8.5,-267.7 219.5,-267.7 219.5,-245.7 8.5,-245.7"/>
<polygon fill="none" stroke="#000000" points="8.5,-245.7 8.5,-267.7 219.5,-267.7 219.5,-245.7 8.5,-245.7"/>
<text text-anchor="start" x="37.5" y="-252.8" font-family="Helvetica,sans-Serif" font-size="11.00" fill="#000000">code</text>
<polygon fill="#ffffff" stroke="transparent" points="8.5,-223.7 8.5,-245.7 219.5,-245.7 219.5,-223.7 8.5,-223.7"/>
<polygon fill="none" stroke="#000000" points="8.5,-223.7 8.5,-245.7 219.5,-245.7 219.5,-223.7 8.5,-223.7"/>
<text text-anchor="start" x="37.5" y="-230.8" font-family="Helvetica,sans-Serif" font-size="11.00" fill="#000000">sequence_number</text>
<polygon fill="none" stroke="#000000" points="8.5,-204.7 8.5,-223.7 219.5,-223.7 219.5,-204.7 8.5,-204.7"/>
<text text-anchor="start" x="11.5" y="-210.8" font-family="Helvetica,sans-Serif" font-size="11.00" fill="#000000">...</text>
<polygon fill="#ffffff" stroke="transparent" points="8.5,-185.7 8.5,-204.7 103.5,-204.7 103.5,-185.7 8.5,-185.7"/>
<polygon fill="none" stroke="#000000" points="8.5,-185.7 8.5,-204.7 103.5,-204.7 103.5,-185.7 8.5,-185.7"/>
<text text-anchor="start" x="11.5" y="-191.8" font-family="Helvetica,sans-Serif" font-size="11.00" fill="#000000"> &#160;</text>
<polygon fill="#ffffff" stroke="transparent" points="103.5,-185.7 103.5,-204.7 156.5,-204.7 156.5,-185.7 103.5,-185.7"/>
<polygon fill="none" stroke="#000000" points="103.5,-185.7 103.5,-204.7 156.5,-204.7 156.5,-185.7 103.5,-185.7"/>
<text text-anchor="start" x="147.3862" y="-191.8" font-family="Helvetica,sans-Serif" font-size="11.00" fill="#000000"> &#160;</text>
<polygon fill="#ffffff" stroke="transparent" points="156.5,-185.7 156.5,-204.7 219.5,-204.7 219.5,-185.7 156.5,-185.7"/>
<polygon fill="none" stroke="#000000" points="156.5,-185.7 156.5,-204.7 219.5,-204.7 219.5,-185.7 156.5,-185.7"/>
<text text-anchor="start" x="200.9053" y="-191.8" font-family="Helvetica,sans-Serif" font-size="11.00" fill="#000000">1 &gt;</text>
</a>
</g>
</g>
<!-- court_appearance&#45;&gt;court_appearance_reason -->
<g id="edge2" class="edge">
<title>court_appearance:w&#45;&gt;court_appearance_reason:e</title>
<path fill="none" stroke="#000000" d="M253.9463,-273.7451C242.6532,-275.4642 235.6125,-278.7 219.5,-278.7"/>
<polygon fill="#000000" stroke="#000000" points="260.5205,-273.2731 268.7579,-276.2908 264.5103,-272.9865 268.5,-272.7 268.5,-272.7 268.5,-272.7 264.5103,-272.9865 268.2421,-269.1092 260.5205,-273.2731 260.5205,-273.2731"/>
<ellipse fill="none" stroke="#000000" cx="257.3288" cy="-273.5023" rx="3.2" ry="3.2"/>
</g>
<!-- court_appearance_status -->
<g id="node5" class="node">
<title>court_appearance_status</title>
<g id="a_node5"><a xlink:href="../../tables/court_appearance_status.html" xlink:title="court_appearance_status" target="_top">
<polygon fill="#ffffff" stroke="transparent" points="9.5,-38.2 9.5,-165.2 217.5,-165.2 217.5,-38.2 9.5,-38.2"/>
<polygon fill="#f5f5f5" stroke="transparent" points="9.5,-141.7 9.5,-164.7 217.5,-164.7 217.5,-141.7 9.5,-141.7"/>
<polygon fill="none" stroke="#000000" points="9.5,-141.7 9.5,-164.7 217.5,-164.7 217.5,-141.7 9.5,-141.7"/>
<text text-anchor="start" x="14.5" y="-150.3" font-family="Helvetica,sans-Serif" font-weight="bold" font-size="11.00" fill="#000000">court_appearance_status</text>
<text text-anchor="start" x="183.0219" y="-149.8" font-family="Helvetica,sans-Serif" font-size="11.00" fill="#000000">[table]</text>
<polygon fill="none" stroke="#000000" points="9.5,-119.7 9.5,-141.7 217.5,-141.7 217.5,-119.7 9.5,-119.7"/>
<image xlink:href="../../images/primaryKeys.png" width="11px" height="12px" preserveAspectRatio="xMinYMin meet" x="14.5" y="-136.7"/>
<text text-anchor="start" x="38.5" y="-126.8" font-family="Helvetica,sans-Serif" font-size="11.00" fill="#000000">id</text>
<polygon fill="#ffffff" stroke="transparent" points="9.5,-97.7 9.5,-119.7 217.5,-119.7 217.5,-97.7 9.5,-97.7"/>
<polygon fill="none" stroke="#000000" points="9.5,-97.7 9.5,-119.7 217.5,-119.7 217.5,-97.7 9.5,-97.7"/>
<text text-anchor="start" x="38.5" y="-104.8" font-family="Helvetica,sans-Serif" font-size="11.00" fill="#000000">code</text>
<polygon fill="#ffffff" stroke="transparent" points="9.5,-75.7 9.5,-97.7 217.5,-97.7 217.5,-75.7 9.5,-75.7"/>
<polygon fill="none" stroke="#000000" points="9.5,-75.7 9.5,-97.7 217.5,-97.7 217.5,-75.7 9.5,-75.7"/>
<text text-anchor="start" x="38.5" y="-82.8" font-family="Helvetica,sans-Serif" font-size="11.00" fill="#000000">sequence_number</text>
<polygon fill="none" stroke="#000000" points="9.5,-56.7 9.5,-75.7 217.5,-75.7 217.5,-56.7 9.5,-56.7"/>
<text text-anchor="start" x="12.5" y="-62.8" font-family="Helvetica,sans-Serif" font-size="11.00" fill="#000000">...</text>
<polygon fill="#ffffff" stroke="transparent" points="9.5,-37.7 9.5,-56.7 102.5,-56.7 102.5,-37.7 9.5,-37.7"/>
<polygon fill="none" stroke="#000000" points="9.5,-37.7 9.5,-56.7 102.5,-56.7 102.5,-37.7 9.5,-37.7"/>
<text text-anchor="start" x="12.5" y="-43.8" font-family="Helvetica,sans-Serif" font-size="11.00" fill="#000000"> &#160;</text>
<polygon fill="#ffffff" stroke="transparent" points="102.5,-37.7 102.5,-56.7 155.5,-56.7 155.5,-37.7 102.5,-37.7"/>
<polygon fill="none" stroke="#000000" points="102.5,-37.7 102.5,-56.7 155.5,-56.7 155.5,-37.7 102.5,-37.7"/>
<text text-anchor="start" x="146.3862" y="-43.8" font-family="Helvetica,sans-Serif" font-size="11.00" fill="#000000"> &#160;</text>
<polygon fill="#ffffff" stroke="transparent" points="155.5,-37.7 155.5,-56.7 217.5,-56.7 217.5,-37.7 155.5,-37.7"/>
<polygon fill="none" stroke="#000000" points="155.5,-37.7 155.5,-56.7 217.5,-56.7 217.5,-37.7 155.5,-37.7"/>
<text text-anchor="start" x="198.9053" y="-43.8" font-family="Helvetica,sans-Serif" font-size="11.00" fill="#000000">1 &gt;</text>
</a>
</g>
</g>
<!-- court_appearance&#45;&gt;court_appearance_status -->
<g id="edge3" class="edge">
<title>court_appearance:w&#45;&gt;court_appearance_status:e</title>
<path fill="none" stroke="#000000" d="M254.3875,-247.238C222.4655,-227.5628 269.5646,-130.7 217.5,-130.7"/>
<polygon fill="#000000" stroke="#000000" points="260.7304,-248.794 267.6423,-254.1963 264.6152,-249.747 268.5,-250.7 268.5,-250.7 268.5,-250.7 264.6152,-249.747 269.3577,-247.2037 260.7304,-248.794 260.7304,-248.794"/>
<ellipse fill="none" stroke="#000000" cx="257.6225" cy="-248.0316" rx="3.2" ry="3.2"/>
</g>
<!-- person_summary -->
<g id="node8" class="node">
<title>person_summary</title>
<g id="a_node8"><a xlink:href="../../tables/person_summary.html" xlink:title="person_summary" target="_top">
<polygon fill="#ffffff" stroke="transparent" points="36.5,-344.2 36.5,-427.2 190.5,-427.2 190.5,-344.2 36.5,-344.2"/>
<polygon fill="#f5f5f5" stroke="transparent" points="36.5,-403.7 36.5,-426.7 190.5,-426.7 190.5,-403.7 36.5,-403.7"/>
<polygon fill="none" stroke="#000000" points="36.5,-403.7 36.5,-426.7 190.5,-426.7 190.5,-403.7 36.5,-403.7"/>
<text text-anchor="start" x="41.5" y="-412.3" font-family="Helvetica,sans-Serif" font-weight="bold" font-size="11.00" fill="#000000">person_summary</text>
<text text-anchor="start" x="156.0219" y="-411.8" font-family="Helvetica,sans-Serif" font-size="11.00" fill="#000000">[table]</text>
<polygon fill="none" stroke="#000000" points="36.5,-381.7 36.5,-403.7 190.5,-403.7 190.5,-381.7 36.5,-381.7"/>
<image xlink:href="../../images/primaryKeys.png" width="11px" height="12px" preserveAspectRatio="xMinYMin meet" x="41.5" y="-398.7"/>
<text text-anchor="start" x="65.5" y="-388.8" font-family="Helvetica,sans-Serif" font-size="11.00" fill="#000000">person_identifier</text>
<polygon fill="none" stroke="#000000" points="36.5,-362.7 36.5,-381.7 190.5,-381.7 190.5,-362.7 36.5,-362.7"/>
<text text-anchor="start" x="39.5" y="-368.8" font-family="Helvetica,sans-Serif" font-size="11.00" fill="#000000">...</text>
<polygon fill="#ffffff" stroke="transparent" points="36.5,-343.7 36.5,-362.7 102.5,-362.7 102.5,-343.7 36.5,-343.7"/>
<polygon fill="none" stroke="#000000" points="36.5,-343.7 36.5,-362.7 102.5,-362.7 102.5,-343.7 36.5,-343.7"/>
<text text-anchor="start" x="39.5" y="-349.8" font-family="Helvetica,sans-Serif" font-size="11.00" fill="#000000"> &#160;</text>
<polygon fill="#ffffff" stroke="transparent" points="102.5,-343.7 102.5,-362.7 141.5,-362.7 141.5,-343.7 102.5,-343.7"/>
<polygon fill="none" stroke="#000000" points="102.5,-343.7 102.5,-362.7 141.5,-362.7 141.5,-343.7 102.5,-343.7"/>
<text text-anchor="start" x="132.3862" y="-349.8" font-family="Helvetica,sans-Serif" font-size="11.00" fill="#000000"> &#160;</text>
<polygon fill="#ffffff" stroke="transparent" points="141.5,-343.7 141.5,-362.7 190.5,-362.7 190.5,-343.7 141.5,-343.7"/>
<polygon fill="none" stroke="#000000" points="141.5,-343.7 141.5,-362.7 190.5,-362.7 190.5,-343.7 141.5,-343.7"/>
<text text-anchor="start" x="171.9053" y="-349.8" font-family="Helvetica,sans-Serif" font-size="11.00" fill="#000000">2 &gt;</text>
</a>
</g>
</g>
<!-- court_appearance&#45;&gt;person_summary -->
<g id="edge1" class="edge">
<title>court_appearance:w&#45;&gt;person_summary:e</title>
<path fill="none" stroke="#000000" d="M254.0363,-319.5865C223.5825,-333.4688 233.2295,-392.7 190.5,-392.7"/>
<polygon fill="#000000" stroke="#000000" points="260.6547,-318.2657 269.2046,-320.2304 264.5774,-317.4829 268.5,-316.7 268.5,-316.7 268.5,-316.7 264.5774,-317.4829 267.7954,-313.1696 260.6547,-318.2657 260.6547,-318.2657"/>
<ellipse fill="none" stroke="#000000" cx="257.5166" cy="-318.892" rx="3.2" ry="3.2"/>
</g>
<!-- court_appearance_audit -->
<g id="node2" class="node">
<title>court_appearance_audit</title>
<g id="a_node2"><a xlink:href="../../tables/court_appearance_audit.html" xlink:title="court_appearance_audit" target="_top">
<polygon fill="#ffffff" stroke="transparent" points="515,-604.2 515,-753.2 715,-753.2 715,-604.2 515,-604.2"/>
<polygon fill="#f5f5f5" stroke="transparent" points="515,-729.7 515,-752.7 715,-752.7 715,-729.7 515,-729.7"/>
<polygon fill="none" stroke="#000000" points="515,-729.7 515,-752.7 715,-752.7 715,-729.7 515,-729.7"/>
<text text-anchor="start" x="520" y="-738.3" font-family="Helvetica,sans-Serif" font-weight="bold" font-size="11.00" fill="#000000">court_appearance_audit</text>
<text text-anchor="start" x="680.5219" y="-737.8" font-family="Helvetica,sans-Serif" font-size="11.00" fill="#000000">[table]</text>
<polygon fill="none" stroke="#000000" points="515,-707.7 515,-729.7 715,-729.7 715,-707.7 515,-707.7"/>
<image xlink:href="../../images/primaryKeys.png" width="11px" height="12px" preserveAspectRatio="xMinYMin meet" x="520" y="-724.7"/>
<text text-anchor="start" x="544" y="-714.8" font-family="Helvetica,sans-Serif" font-size="11.00" fill="#000000">rev_id</text>
<polygon fill="none" stroke="#000000" points="515,-685.7 515,-707.7 715,-707.7 715,-685.7 515,-685.7"/>
<image xlink:href="../../images/primaryKeys.png" width="11px" height="12px" preserveAspectRatio="xMinYMin meet" x="520" y="-702.7"/>
<text text-anchor="start" x="544" y="-692.8" font-family="Helvetica,sans-Serif" font-size="11.00" fill="#000000">id</text>
<polygon fill="none" stroke="#000000" points="515,-663.7 515,-685.7 715,-685.7 715,-663.7 515,-663.7"/>
<image xlink:href="../../images/foreignKeys.png" width="11px" height="12px" preserveAspectRatio="xMinYMin meet" x="520" y="-680.7"/>
<text text-anchor="start" x="544" y="-670.8" font-family="Helvetica,sans-Serif" font-size="11.00" fill="#000000">person_identifier</text>
<polygon fill="none" stroke="#000000" points="515,-641.7 515,-663.7 715,-663.7 715,-641.7 515,-641.7"/>
<image xlink:href="../../images/foreignKeys.png" width="11px" height="12px" preserveAspectRatio="xMinYMin meet" x="520" y="-658.7"/>
<text text-anchor="start" x="544" y="-648.8" font-family="Helvetica,sans-Serif" font-size="11.00" fill="#000000">legacy_id</text>
<polygon fill="none" stroke="#000000" points="515,-622.7 515,-641.7 715,-641.7 715,-622.7 515,-622.7"/>
<text text-anchor="start" x="518" y="-628.8" font-family="Helvetica,sans-Serif" font-size="11.00" fill="#000000">...</text>
<polygon fill="#ffffff" stroke="transparent" points="515,-603.7 515,-622.7 613,-622.7 613,-603.7 515,-603.7"/>
<polygon fill="none" stroke="#000000" points="515,-603.7 515,-622.7 613,-622.7 613,-603.7 515,-603.7"/>
<text text-anchor="start" x="518" y="-609.8" font-family="Helvetica,sans-Serif" font-size="11.00" fill="#000000">&lt; 1</text>
<polygon fill="#ffffff" stroke="transparent" points="613,-603.7 613,-622.7 664,-622.7 664,-603.7 613,-603.7"/>
<polygon fill="none" stroke="#000000" points="613,-603.7 613,-622.7 664,-622.7 664,-603.7 613,-603.7"/>
<text text-anchor="start" x="654.8862" y="-609.8" font-family="Helvetica,sans-Serif" font-size="11.00" fill="#000000"> &#160;</text>
<polygon fill="#ffffff" stroke="transparent" points="664,-603.7 664,-622.7 715,-622.7 715,-603.7 664,-603.7"/>
<polygon fill="none" stroke="#000000" points="664,-603.7 664,-622.7 715,-622.7 715,-603.7 664,-603.7"/>
<text text-anchor="start" x="705.8862" y="-609.8" font-family="Helvetica,sans-Serif" font-size="11.00" fill="#000000"> &#160;</text>
</a>
</g>
</g>
<!-- audit_revision -->
<g id="node7" class="node">
<title>audit_revision</title>
<g id="a_node7"><a xlink:href="../../tables/audit_revision.html" xlink:title="audit_revision" target="_top">
<polygon fill="#ffffff" stroke="transparent" points="280.5,-585.2 280.5,-668.2 414.5,-668.2 414.5,-585.2 280.5,-585.2"/>
<polygon fill="#f5f5f5" stroke="transparent" points="280.5,-644.7 280.5,-667.7 414.5,-667.7 414.5,-644.7 280.5,-644.7"/>
<polygon fill="none" stroke="#000000" points="280.5,-644.7 280.5,-667.7 414.5,-667.7 414.5,-644.7 280.5,-644.7"/>
<text text-anchor="start" x="285.5" y="-653.3" font-family="Helvetica,sans-Serif" font-weight="bold" font-size="11.00" fill="#000000">audit_revision</text>
<text text-anchor="start" x="380.0219" y="-652.8" font-family="Helvetica,sans-Serif" font-size="11.00" fill="#000000">[table]</text>
<polygon fill="none" stroke="#000000" points="280.5,-622.7 280.5,-644.7 414.5,-644.7 414.5,-622.7 280.5,-622.7"/>
<image xlink:href="../../images/primaryKeys.png" width="11px" height="12px" preserveAspectRatio="xMinYMin meet" x="285.5" y="-639.7"/>
<text text-anchor="start" x="300.5" y="-629.8" font-family="Helvetica,sans-Serif" font-size="11.00" fill="#000000">id</text>
<polygon fill="none" stroke="#000000" points="280.5,-603.7 280.5,-622.7 414.5,-622.7 414.5,-603.7 280.5,-603.7"/>
<text text-anchor="start" x="283.5" y="-609.8" font-family="Helvetica,sans-Serif" font-size="11.00" fill="#000000">...</text>
<polygon fill="#ffffff" stroke="transparent" points="280.5,-584.7 280.5,-603.7 336.5,-603.7 336.5,-584.7 280.5,-584.7"/>
<polygon fill="none" stroke="#000000" points="280.5,-584.7 280.5,-603.7 336.5,-603.7 336.5,-584.7 280.5,-584.7"/>
<text text-anchor="start" x="283.5" y="-590.8" font-family="Helvetica,sans-Serif" font-size="11.00" fill="#000000"> &#160;</text>
<polygon fill="#ffffff" stroke="transparent" points="336.5,-584.7 336.5,-603.7 370.5,-603.7 370.5,-584.7 336.5,-584.7"/>
<polygon fill="none" stroke="#000000" points="336.5,-584.7 336.5,-603.7 370.5,-603.7 370.5,-584.7 336.5,-584.7"/>
<text text-anchor="start" x="361.3862" y="-590.8" font-family="Helvetica,sans-Serif" font-size="11.00" fill="#000000"> &#160;</text>
<polygon fill="#ffffff" stroke="transparent" points="370.5,-584.7 370.5,-603.7 414.5,-603.7 414.5,-584.7 370.5,-584.7"/>
<polygon fill="none" stroke="#000000" points="370.5,-584.7 370.5,-603.7 414.5,-603.7 414.5,-584.7 370.5,-584.7"/>
<text text-anchor="start" x="395.9053" y="-590.8" font-family="Helvetica,sans-Serif" font-size="11.00" fill="#000000">2 &gt;</text>
</a>
</g>
</g>
<!-- court_appearance_audit&#45;&gt;audit_revision -->
<g id="edge4" class="edge">
<title>court_appearance_audit:w&#45;&gt;audit_revision:e</title>
<path fill="none" stroke="#000000" d="M500.6696,-716.6827C458.8972,-703.8108 467.6301,-633.7 414.5,-633.7"/>
<polygon fill="#000000" stroke="#000000" points="507.0781,-717.5848 514.4982,-722.2649 511.0391,-718.1424 515,-718.7 515,-718.7 515,-718.7 511.0391,-718.1424 515.5018,-715.1351 507.0781,-717.5848 507.0781,-717.5848"/>
<ellipse fill="none" stroke="#000000" cx="503.9093" cy="-717.1387" rx="3.2" ry="3.2"/>
</g>
<!-- court_appearance_movement -->
<g id="node4" class="node">
<title>court_appearance_movement</title>
<g id="a_node4"><a xlink:href="../../tables/court_appearance_movement.html" xlink:title="court_appearance_movement" target="_top">
<polygon fill="#ffffff" stroke="transparent" points="496.5,-286.2 496.5,-435.2 733.5,-435.2 733.5,-286.2 496.5,-286.2"/>
<polygon fill="#f5f5f5" stroke="transparent" points="497,-411.7 497,-434.7 734,-434.7 734,-411.7 497,-411.7"/>
<polygon fill="none" stroke="#000000" points="497,-411.7 497,-434.7 734,-434.7 734,-411.7 497,-411.7"/>
<text text-anchor="start" x="502" y="-420.3" font-family="Helvetica,sans-Serif" font-weight="bold" font-size="11.00" fill="#000000">court_appearance_movement</text>
<text text-anchor="start" x="699.5219" y="-419.8" font-family="Helvetica,sans-Serif" font-size="11.00" fill="#000000">[table]</text>
<polygon fill="none" stroke="#000000" points="497,-389.7 497,-411.7 734,-411.7 734,-389.7 497,-389.7"/>
<image xlink:href="../../images/primaryKeys.png" width="11px" height="12px" preserveAspectRatio="xMinYMin meet" x="502" y="-406.7"/>
<text text-anchor="start" x="526" y="-396.8" font-family="Helvetica,sans-Serif" font-size="11.00" fill="#000000">id</text>
<polygon fill="none" stroke="#000000" points="497,-367.7 497,-389.7 734,-389.7 734,-367.7 497,-367.7"/>
<image xlink:href="../../images/foreignKeys.png" width="11px" height="12px" preserveAspectRatio="xMinYMin meet" x="502" y="-384.7"/>
<text text-anchor="start" x="526" y="-374.8" font-family="Helvetica,sans-Serif" font-size="11.00" fill="#000000">court_appearance_id</text>
<polygon fill="#ffffff" stroke="transparent" points="497,-345.7 497,-367.7 734,-367.7 734,-345.7 497,-345.7"/>
<polygon fill="none" stroke="#000000" points="497,-345.7 497,-367.7 734,-367.7 734,-345.7 497,-345.7"/>
<image xlink:href="../../images/foreignKeys.png" width="11px" height="12px" preserveAspectRatio="xMinYMin meet" x="502" y="-362.7"/>
<text text-anchor="start" x="526" y="-352.8" font-family="Helvetica,sans-Serif" font-size="11.00" fill="#000000">person_identifier</text>
<polygon fill="#ffffff" stroke="transparent" points="497,-323.7 497,-345.7 734,-345.7 734,-323.7 497,-323.7"/>
<polygon fill="none" stroke="#000000" points="497,-323.7 497,-345.7 734,-345.7 734,-323.7 497,-323.7"/>
<text text-anchor="start" x="526" y="-330.8" font-family="Helvetica,sans-Serif" font-size="11.00" fill="#000000">legacy_id</text>
<polygon fill="none" stroke="#000000" points="497,-304.7 497,-323.7 734,-323.7 734,-304.7 497,-304.7"/>
<text text-anchor="start" x="500" y="-310.8" font-family="Helvetica,sans-Serif" font-size="11.00" fill="#000000">...</text>
<polygon fill="#ffffff" stroke="transparent" points="497,-285.7 497,-304.7 614,-304.7 614,-285.7 497,-285.7"/>
<polygon fill="none" stroke="#000000" points="497,-285.7 497,-304.7 614,-304.7 614,-285.7 497,-285.7"/>
<text text-anchor="start" x="500" y="-291.8" font-family="Helvetica,sans-Serif" font-size="11.00" fill="#000000">&lt; 2</text>
<polygon fill="#ffffff" stroke="transparent" points="614,-285.7 614,-304.7 674,-304.7 674,-285.7 614,-285.7"/>
<polygon fill="none" stroke="#000000" points="614,-285.7 614,-304.7 674,-304.7 674,-285.7 614,-285.7"/>
<text text-anchor="start" x="664.8862" y="-291.8" font-family="Helvetica,sans-Serif" font-size="11.00" fill="#000000"> &#160;</text>
<polygon fill="#ffffff" stroke="transparent" points="674,-285.7 674,-304.7 734,-304.7 734,-285.7 674,-285.7"/>
<polygon fill="none" stroke="#000000" points="674,-285.7 674,-304.7 734,-304.7 734,-285.7 674,-285.7"/>
<text text-anchor="start" x="724.8862" y="-291.8" font-family="Helvetica,sans-Serif" font-size="11.00" fill="#000000"> &#160;</text>
</a>
</g>
</g>
<!-- court_appearance_movement&#45;&gt;court_appearance -->
<g id="edge5" class="edge">
<title>court_appearance_movement:w&#45;&gt;court_appearance:e</title>
<path fill="none" stroke="#000000" d="M482.7491,-376.0755C461.0029,-367.1766 457.5708,-338.7 427.5,-338.7"/>
<polygon fill="#000000" stroke="#000000" points="489.1323,-377.251 496.348,-382.2405 493.0662,-377.9755 497,-378.7 497,-378.7 497,-378.7 493.0662,-377.9755 497.652,-375.1595 489.1323,-377.251 489.1323,-377.251"/>
<ellipse fill="none" stroke="#000000" cx="485.9852" cy="-376.6714" rx="3.2" ry="3.2"/>
</g>
<!-- court_appearance_movement&#45;&gt;person_summary -->
<g id="edge6" class="edge">
<title>court_appearance_movement:w&#45;&gt;person_summary:e</title>
<path fill="none" stroke="#000000" d="M482.629,-358.6202C465.0178,-363.8438 458.811,-378.2814 435,-383.7 328.9705,-407.8287 299.2403,-392.7 190.5,-392.7"/>
<polygon fill="#000000" stroke="#000000" points="489.0705,-357.7596 497.4768,-360.2683 493.0352,-357.2298 497,-356.7 497,-356.7 497,-356.7 493.0352,-357.2298 496.5232,-353.1317 489.0705,-357.7596 489.0705,-357.7596"/>
<ellipse fill="none" stroke="#000000" cx="485.8987" cy="-358.1834" rx="3.2" ry="3.2"/>
</g>
<!-- court_appearance_movement_audit -->
<g id="node6" class="node">
<title>court_appearance_movement_audit</title>
<g id="a_node6"><a xlink:href="../../tables/court_appearance_movement_audit.html" xlink:title="court_appearance_movement_audit" target="_top">
<polygon fill="#ffffff" stroke="transparent" points="476,-456.2 476,-583.2 754,-583.2 754,-456.2 476,-456.2"/>
<polygon fill="#f5f5f5" stroke="transparent" points="476,-559.7 476,-582.7 754,-582.7 754,-559.7 476,-559.7"/>
<polygon fill="none" stroke="#000000" points="476,-559.7 476,-582.7 754,-582.7 754,-559.7 476,-559.7"/>
<text text-anchor="start" x="481" y="-568.3" font-family="Helvetica,sans-Serif" font-weight="bold" font-size="11.00" fill="#000000">court_appearance_movement_audit</text>
<text text-anchor="start" x="719.5219" y="-567.8" font-family="Helvetica,sans-Serif" font-size="11.00" fill="#000000">[table]</text>
<polygon fill="none" stroke="#000000" points="476,-537.7 476,-559.7 754,-559.7 754,-537.7 476,-537.7"/>
<image xlink:href="../../images/primaryKeys.png" width="11px" height="12px" preserveAspectRatio="xMinYMin meet" x="481" y="-554.7"/>
<text text-anchor="start" x="505" y="-544.8" font-family="Helvetica,sans-Serif" font-size="11.00" fill="#000000">rev_id</text>
<polygon fill="none" stroke="#000000" points="476,-515.7 476,-537.7 754,-537.7 754,-515.7 476,-515.7"/>
<image xlink:href="../../images/primaryKeys.png" width="11px" height="12px" preserveAspectRatio="xMinYMin meet" x="481" y="-532.7"/>
<text text-anchor="start" x="505" y="-522.8" font-family="Helvetica,sans-Serif" font-size="11.00" fill="#000000">id</text>
<polygon fill="none" stroke="#000000" points="476,-493.7 476,-515.7 754,-515.7 754,-493.7 476,-493.7"/>
<image xlink:href="../../images/foreignKeys.png" width="11px" height="12px" preserveAspectRatio="xMinYMin meet" x="481" y="-510.7"/>
<text text-anchor="start" x="505" y="-500.8" font-family="Helvetica,sans-Serif" font-size="11.00" fill="#000000">person_identifier</text>
<polygon fill="none" stroke="#000000" points="476,-474.7 476,-493.7 754,-493.7 754,-474.7 476,-474.7"/>
<text text-anchor="start" x="479" y="-480.8" font-family="Helvetica,sans-Serif" font-size="11.00" fill="#000000">...</text>
<polygon fill="#ffffff" stroke="transparent" points="476,-455.7 476,-474.7 613,-474.7 613,-455.7 476,-455.7"/>
<polygon fill="none" stroke="#000000" points="476,-455.7 476,-474.7 613,-474.7 613,-455.7 476,-455.7"/>
<text text-anchor="start" x="479" y="-461.8" font-family="Helvetica,sans-Serif" font-size="11.00" fill="#000000">&lt; 1</text>
<polygon fill="#ffffff" stroke="transparent" points="613,-455.7 613,-474.7 683,-474.7 683,-455.7 613,-455.7"/>
<polygon fill="none" stroke="#000000" points="613,-455.7 613,-474.7 683,-474.7 683,-455.7 613,-455.7"/>
<text text-anchor="start" x="673.8862" y="-461.8" font-family="Helvetica,sans-Serif" font-size="11.00" fill="#000000"> &#160;</text>
<polygon fill="#ffffff" stroke="transparent" points="683,-455.7 683,-474.7 754,-474.7 754,-455.7 683,-455.7"/>
<polygon fill="none" stroke="#000000" points="683,-455.7 683,-474.7 754,-474.7 754,-455.7 683,-455.7"/>
<text text-anchor="start" x="744.8862" y="-461.8" font-family="Helvetica,sans-Serif" font-size="11.00" fill="#000000"> &#160;</text>
</a>
</g>
</g>
<!-- court_appearance_movement_audit&#45;&gt;audit_revision -->
<g id="edge7" class="edge">
<title>court_appearance_movement_audit:w&#45;&gt;audit_revision:e</title>
<path fill="none" stroke="#000000" d="M461.8823,-552.3523C436.0857,-568.6219 455.3004,-633.7 414.5,-633.7"/>
<polygon fill="#000000" stroke="#000000" points="468.255,-550.7037 476.9017,-552.1853 472.1275,-549.7019 476,-548.7 476,-548.7 476,-548.7 472.1275,-549.7019 475.0983,-545.2147 468.255,-550.7037 468.255,-550.7037"/>
<ellipse fill="none" stroke="#000000" cx="465.157" cy="-551.5052" rx="3.2" ry="3.2"/>
</g>
</g>
</svg>
