<?xml version="1.0" encoding="UTF-8" standalone="no"?>
<!DOCTYPE svg PUBLIC "-//W3C//DTD SVG 1.1//EN"
 "http://www.w3.org/Graphics/SVG/1.1/DTD/svg11.dtd">
<!-- Generated by graphviz version 2.40.1 (20161225.0304)
 -->
<!-- Title: compactImpliedRelationshipsDiagram Pages: 1 -->
<svg width="848pt" height="736pt"
 viewBox="0.00 0.00 848.00 736.20" xmlns="http://www.w3.org/2000/svg" xmlns:xlink="http://www.w3.org/1999/xlink">
<g id="graph0" class="graph" transform="scale(1 1) rotate(0) translate(4 732.2)">
<title>compactImpliedRelationshipsDiagram</title>
<polygon fill="#ffffff" stroke="transparent" points="-4,4 -4,-732.2 844,-732.2 844,4 -4,4"/>
<text text-anchor="middle" x="72.4936" y="-7.3" font-family="Helvetica,sans-Serif" font-size="11.00" fill="#000000">Generated by SchemaSpy</text>
<!-- court_appearance -->
<g id="node1" class="node">
<title>court_appearance</title>
<g id="a_node1"><a xlink:href="../../tables/court_appearance.html" xlink:title="court_appearance" target="_top">
<polygon fill="#ffffff" stroke="transparent" points="327.5,-428.2 327.5,-665.2 486.5,-665.2 486.5,-428.2 327.5,-428.2"/>
<polygon fill="#f5f5f5" stroke="transparent" points="328,-641.7 328,-664.7 487,-664.7 487,-641.7 328,-641.7"/>
<polygon fill="none" stroke="#000000" points="328,-641.7 328,-664.7 487,-664.7 487,-641.7 328,-641.7"/>
<text text-anchor="start" x="333" y="-650.3" font-family="Helvetica,sans-Serif" font-weight="bold" font-size="11.00" fill="#000000">court_appearance</text>
<text text-anchor="start" x="452.5219" y="-649.8" font-family="Helvetica,sans-Serif" font-size="11.00" fill="#000000">[table]</text>
<polygon fill="none" stroke="#000000" points="328,-619.7 328,-641.7 487,-641.7 487,-619.7 328,-619.7"/>
<image xlink:href="../../images/primaryKeys.png" width="11px" height="12px" preserveAspectRatio="xMinYMin meet" x="333" y="-636.7"/>
<text text-anchor="start" x="354" y="-626.8" font-family="Helvetica,sans-Serif" font-size="11.00" fill="#000000">id</text>
<polygon fill="#ffffff" stroke="transparent" points="328,-597.7 328,-619.7 487,-619.7 487,-597.7 328,-597.7"/>
<polygon fill="none" stroke="#000000" points="328,-597.7 328,-619.7 487,-619.7 487,-597.7 328,-597.7"/>
<image xlink:href="../../images/foreignKeys.png" width="11px" height="12px" preserveAspectRatio="xMinYMin meet" x="333" y="-614.7"/>
<text text-anchor="start" x="354" y="-604.8" font-family="Helvetica,sans-Serif" font-size="11.00" fill="#000000">person_identifier</text>
<polygon fill="#ffffff" stroke="transparent" points="328,-575.7 328,-597.7 487,-597.7 487,-575.7 328,-575.7"/>
<polygon fill="none" stroke="#000000" points="328,-575.7 328,-597.7 487,-597.7 487,-575.7 328,-575.7"/>
<text text-anchor="start" x="354" y="-582.8" font-family="Helvetica,sans-Serif" font-size="11.00" fill="#000000">prison_code</text>
<polygon fill="#ffffff" stroke="transparent" points="328,-553.7 328,-575.7 487,-575.7 487,-553.7 328,-553.7"/>
<polygon fill="none" stroke="#000000" points="328,-553.7 328,-575.7 487,-575.7 487,-553.7 328,-553.7"/>
<image xlink:href="../../images/foreignKeys.png" width="11px" height="12px" preserveAspectRatio="xMinYMin meet" x="333" y="-570.7"/>
<text text-anchor="start" x="354" y="-560.8" font-family="Helvetica,sans-Serif" font-size="11.00" fill="#000000">reason_id</text>
<polygon fill="#ffffff" stroke="transparent" points="328,-531.7 328,-553.7 487,-553.7 487,-531.7 328,-531.7"/>
<polygon fill="none" stroke="#000000" points="328,-531.7 328,-553.7 487,-553.7 487,-531.7 328,-531.7"/>
<image xlink:href="../../images/foreignKeys.png" width="11px" height="12px" preserveAspectRatio="xMinYMin meet" x="333" y="-548.7"/>
<text text-anchor="start" x="354" y="-538.8" font-family="Helvetica,sans-Serif" font-size="11.00" fill="#000000">status_id</text>
<polygon fill="#ffffff" stroke="transparent" points="328,-509.7 328,-531.7 487,-531.7 487,-509.7 328,-509.7"/>
<polygon fill="none" stroke="#000000" points="328,-509.7 328,-531.7 487,-531.7 487,-509.7 328,-509.7"/>
<text text-anchor="start" x="354" y="-516.8" font-family="Helvetica,sans-Serif" font-size="11.00" fill="#000000">start</text>
<polygon fill="#ffffff" stroke="transparent" points="328,-487.7 328,-509.7 487,-509.7 487,-487.7 328,-487.7"/>
<polygon fill="none" stroke="#000000" points="328,-487.7 328,-509.7 487,-509.7 487,-487.7 328,-487.7"/>
<image xlink:href="../../images/foreignKeys.png" width="11px" height="12px" preserveAspectRatio="xMinYMin meet" x="333" y="-504.7"/>
<text text-anchor="start" x="354" y="-494.8" font-family="Helvetica,sans-Serif" font-size="11.00" fill="#000000">legacy_id</text>
<polygon fill="#ffffff" stroke="transparent" points="328,-465.7 328,-487.7 487,-487.7 487,-465.7 328,-465.7"/>
<polygon fill="none" stroke="#000000" points="328,-465.7 328,-487.7 487,-487.7 487,-465.7 328,-465.7"/>
<text text-anchor="start" x="354" y="-472.8" font-family="Helvetica,sans-Serif" font-size="11.00" fill="#000000">external_reference</text>
<polygon fill="none" stroke="#000000" points="328,-446.7 328,-465.7 487,-465.7 487,-446.7 328,-446.7"/>
<text text-anchor="start" x="331" y="-452.8" font-family="Helvetica,sans-Serif" font-size="11.00" fill="#000000">...</text>
<polygon fill="#ffffff" stroke="transparent" points="328,-427.7 328,-446.7 401,-446.7 401,-427.7 328,-427.7"/>
<polygon fill="none" stroke="#000000" points="328,-427.7 328,-446.7 401,-446.7 401,-427.7 328,-427.7"/>
<text text-anchor="start" x="331" y="-433.8" font-family="Helvetica,sans-Serif" font-size="11.00" fill="#000000">&lt; 3</text>
<polygon fill="#ffffff" stroke="transparent" points="401,-427.7 401,-446.7 439,-446.7 439,-427.7 401,-427.7"/>
<polygon fill="none" stroke="#000000" points="401,-427.7 401,-446.7 439,-446.7 439,-427.7 401,-427.7"/>
<text text-anchor="start" x="429.8862" y="-433.8" font-family="Helvetica,sans-Serif" font-size="11.00" fill="#000000"> &#160;</text>
<polygon fill="#ffffff" stroke="transparent" points="439,-427.7 439,-446.7 487,-446.7 487,-427.7 439,-427.7"/>
<polygon fill="none" stroke="#000000" points="439,-427.7 439,-446.7 487,-446.7 487,-427.7 439,-427.7"/>
<text text-anchor="start" x="468.4053" y="-433.8" font-family="Helvetica,sans-Serif" font-size="11.00" fill="#000000">1 &gt;</text>
</a>
</g>
</g>
<!-- court_appearance_reason -->
<g id="node3" class="node">
<title>court_appearance_reason</title>
<g id="a_node3"><a xlink:href="../../tables/court_appearance_reason.html" xlink:title="court_appearance_reason" target="_top">
<polygon fill="#ffffff" stroke="transparent" points="8,-597.2 8,-724.2 219,-724.2 219,-597.2 8,-597.2"/>
<polygon fill="#f5f5f5" stroke="transparent" points="8.5,-700.7 8.5,-723.7 219.5,-723.7 219.5,-700.7 8.5,-700.7"/>
<polygon fill="none" stroke="#000000" points="8.5,-700.7 8.5,-723.7 219.5,-723.7 219.5,-700.7 8.5,-700.7"/>
<text text-anchor="start" x="13.5" y="-709.3" font-family="Helvetica,sans-Serif" font-weight="bold" font-size="11.00" fill="#000000">court_appearance_reason</text>
<text text-anchor="start" x="185.0219" y="-708.8" font-family="Helvetica,sans-Serif" font-size="11.00" fill="#000000">[table]</text>
<polygon fill="none" stroke="#000000" points="8.5,-678.7 8.5,-700.7 219.5,-700.7 219.5,-678.7 8.5,-678.7"/>
<image xlink:href="../../images/primaryKeys.png" width="11px" height="12px" preserveAspectRatio="xMinYMin meet" x="13.5" y="-695.7"/>
<text text-anchor="start" x="37.5" y="-685.8" font-family="Helvetica,sans-Serif" font-size="11.00" fill="#000000">id</text>
<polygon fill="#ffffff" stroke="transparent" points="8.5,-656.7 8.5,-678.7 219.5,-678.7 219.5,-656.7 8.5,-656.7"/>
<polygon fill="none" stroke="#000000" points="8.5,-656.7 8.5,-678.7 219.5,-678.7 219.5,-656.7 8.5,-656.7"/>
<text text-anchor="start" x="37.5" y="-663.8" font-family="Helvetica,sans-Serif" font-size="11.00" fill="#000000">code</text>
<polygon fill="#ffffff" stroke="transparent" points="8.5,-634.7 8.5,-656.7 219.5,-656.7 219.5,-634.7 8.5,-634.7"/>
<polygon fill="none" stroke="#000000" points="8.5,-634.7 8.5,-656.7 219.5,-656.7 219.5,-634.7 8.5,-634.7"/>
<text text-anchor="start" x="37.5" y="-641.8" font-family="Helvetica,sans-Serif" font-size="11.00" fill="#000000">sequence_number</text>
<polygon fill="none" stroke="#000000" points="8.5,-615.7 8.5,-634.7 219.5,-634.7 219.5,-615.7 8.5,-615.7"/>
<text text-anchor="start" x="11.5" y="-621.8" font-family="Helvetica,sans-Serif" font-size="11.00" fill="#000000">...</text>
<polygon fill="#ffffff" stroke="transparent" points="8.5,-596.7 8.5,-615.7 103.5,-615.7 103.5,-596.7 8.5,-596.7"/>
<polygon fill="none" stroke="#000000" points="8.5,-596.7 8.5,-615.7 103.5,-615.7 103.5,-596.7 8.5,-596.7"/>
<text text-anchor="start" x="11.5" y="-602.8" font-family="Helvetica,sans-Serif" font-size="11.00" fill="#000000"> &#160;</text>
<polygon fill="#ffffff" stroke="transparent" points="103.5,-596.7 103.5,-615.7 156.5,-615.7 156.5,-596.7 103.5,-596.7"/>
<polygon fill="none" stroke="#000000" points="103.5,-596.7 103.5,-615.7 156.5,-615.7 156.5,-596.7 103.5,-596.7"/>
<text text-anchor="start" x="147.3862" y="-602.8" font-family="Helvetica,sans-Serif" font-size="11.00" fill="#000000"> &#160;</text>
<polygon fill="#ffffff" stroke="transparent" points="156.5,-596.7 156.5,-615.7 219.5,-615.7 219.5,-596.7 156.5,-596.7"/>
<polygon fill="none" stroke="#000000" points="156.5,-596.7 156.5,-615.7 219.5,-615.7 219.5,-596.7 156.5,-596.7"/>
<text text-anchor="start" x="200.9053" y="-602.8" font-family="Helvetica,sans-Serif" font-size="11.00" fill="#000000">2 &gt;</text>
</a>
</g>
</g>
<!-- court_appearance&#45;&gt;court_appearance_reason -->
<g id="edge3" class="edge">
<title>court_appearance:w&#45;&gt;court_appearance_reason:e</title>
<path fill="none" stroke="#000000" d="M313.3826,-566.6635C259.5512,-582.5661 287.6051,-689.7 219.5,-689.7"/>
<polygon fill="#000000" stroke="#000000" points="320.0712,-565.7651 328.4793,-568.268 324.0356,-565.2325 328,-564.7 328,-564.7 328,-564.7 324.0356,-565.2325 327.5207,-561.132 320.0712,-565.7651 320.0712,-565.7651"/>
<ellipse fill="none" stroke="#000000" cx="316.8997" cy="-566.1911" rx="3.2" ry="3.2"/>
</g>
<!-- court_appearance_status -->
<g id="node5" class="node">
<title>court_appearance_status</title>
<g id="a_node5"><a xlink:href="../../tables/court_appearance_status.html" xlink:title="court_appearance_status" target="_top">
<polygon fill="#ffffff" stroke="transparent" points="9.5,-449.2 9.5,-576.2 217.5,-576.2 217.5,-449.2 9.5,-449.2"/>
<polygon fill="#f5f5f5" stroke="transparent" points="9.5,-552.7 9.5,-575.7 217.5,-575.7 217.5,-552.7 9.5,-552.7"/>
<polygon fill="none" stroke="#000000" points="9.5,-552.7 9.5,-575.7 217.5,-575.7 217.5,-552.7 9.5,-552.7"/>
<text text-anchor="start" x="14.5" y="-561.3" font-family="Helvetica,sans-Serif" font-weight="bold" font-size="11.00" fill="#000000">court_appearance_status</text>
<text text-anchor="start" x="183.0219" y="-560.8" font-family="Helvetica,sans-Serif" font-size="11.00" fill="#000000">[table]</text>
<polygon fill="none" stroke="#000000" points="9.5,-530.7 9.5,-552.7 217.5,-552.7 217.5,-530.7 9.5,-530.7"/>
<image xlink:href="../../images/primaryKeys.png" width="11px" height="12px" preserveAspectRatio="xMinYMin meet" x="14.5" y="-547.7"/>
<text text-anchor="start" x="38.5" y="-537.8" font-family="Helvetica,sans-Serif" font-size="11.00" fill="#000000">id</text>
<polygon fill="#ffffff" stroke="transparent" points="9.5,-508.7 9.5,-530.7 217.5,-530.7 217.5,-508.7 9.5,-508.7"/>
<polygon fill="none" stroke="#000000" points="9.5,-508.7 9.5,-530.7 217.5,-530.7 217.5,-508.7 9.5,-508.7"/>
<text text-anchor="start" x="38.5" y="-515.8" font-family="Helvetica,sans-Serif" font-size="11.00" fill="#000000">code</text>
<polygon fill="#ffffff" stroke="transparent" points="9.5,-486.7 9.5,-508.7 217.5,-508.7 217.5,-486.7 9.5,-486.7"/>
<polygon fill="none" stroke="#000000" points="9.5,-486.7 9.5,-508.7 217.5,-508.7 217.5,-486.7 9.5,-486.7"/>
<text text-anchor="start" x="38.5" y="-493.8" font-family="Helvetica,sans-Serif" font-size="11.00" fill="#000000">sequence_number</text>
<polygon fill="none" stroke="#000000" points="9.5,-467.7 9.5,-486.7 217.5,-486.7 217.5,-467.7 9.5,-467.7"/>
<text text-anchor="start" x="12.5" y="-473.8" font-family="Helvetica,sans-Serif" font-size="11.00" fill="#000000">...</text>
<polygon fill="#ffffff" stroke="transparent" points="9.5,-448.7 9.5,-467.7 102.5,-467.7 102.5,-448.7 9.5,-448.7"/>
<polygon fill="none" stroke="#000000" points="9.5,-448.7 9.5,-467.7 102.5,-467.7 102.5,-448.7 9.5,-448.7"/>
<text text-anchor="start" x="12.5" y="-454.8" font-family="Helvetica,sans-Serif" font-size="11.00" fill="#000000"> &#160;</text>
<polygon fill="#ffffff" stroke="transparent" points="102.5,-448.7 102.5,-467.7 155.5,-467.7 155.5,-448.7 102.5,-448.7"/>
<polygon fill="none" stroke="#000000" points="102.5,-448.7 102.5,-467.7 155.5,-467.7 155.5,-448.7 102.5,-448.7"/>
<text text-anchor="start" x="146.3862" y="-454.8" font-family="Helvetica,sans-Serif" font-size="11.00" fill="#000000"> &#160;</text>
<polygon fill="#ffffff" stroke="transparent" points="155.5,-448.7 155.5,-467.7 217.5,-467.7 217.5,-448.7 155.5,-448.7"/>
<polygon fill="none" stroke="#000000" points="155.5,-448.7 155.5,-467.7 217.5,-467.7 217.5,-448.7 155.5,-448.7"/>
<text text-anchor="start" x="198.9053" y="-454.8" font-family="Helvetica,sans-Serif" font-size="11.00" fill="#000000">1 &gt;</text>
</a>
</g>
</g>
<!-- court_appearance&#45;&gt;court_appearance_status -->
<g id="edge4" class="edge">
<title>court_appearance:w&#45;&gt;court_appearance_status:e</title>
<path fill="none" stroke="#000000" d="M313.1105,-542.6667C275.7613,-542.4932 261.2414,-541.7 217.5,-541.7"/>
<polygon fill="#000000" stroke="#000000" points="320,-542.6821 327.9919,-546.3 324,-542.691 328,-542.7 328,-542.7 328,-542.7 324,-542.691 328.0081,-539.1 320,-542.6821 320,-542.6821"/>
<ellipse fill="none" stroke="#000000" cx="316.8" cy="-542.6749" rx="3.2" ry="3.2"/>
</g>
<!-- audit_revision -->
<g id="node7" class="node">
<title>audit_revision</title>
<g id="a_node7"><a xlink:href="../../tables/audit_revision.html" xlink:title="audit_revision" target="_top">
<polygon fill="#ffffff" stroke="transparent" points="46.5,-183.2 46.5,-266.2 180.5,-266.2 180.5,-183.2 46.5,-183.2"/>
<polygon fill="#f5f5f5" stroke="transparent" points="46.5,-242.7 46.5,-265.7 180.5,-265.7 180.5,-242.7 46.5,-242.7"/>
<polygon fill="none" stroke="#000000" points="46.5,-242.7 46.5,-265.7 180.5,-265.7 180.5,-242.7 46.5,-242.7"/>
<text text-anchor="start" x="51.5" y="-251.3" font-family="Helvetica,sans-Serif" font-weight="bold" font-size="11.00" fill="#000000">audit_revision</text>
<text text-anchor="start" x="146.0219" y="-250.8" font-family="Helvetica,sans-Serif" font-size="11.00" fill="#000000">[table]</text>
<polygon fill="none" stroke="#000000" points="46.5,-220.7 46.5,-242.7 180.5,-242.7 180.5,-220.7 46.5,-220.7"/>
<image xlink:href="../../images/primaryKeys.png" width="11px" height="12px" preserveAspectRatio="xMinYMin meet" x="51.5" y="-237.7"/>
<text text-anchor="start" x="66.5" y="-227.8" font-family="Helvetica,sans-Serif" font-size="11.00" fill="#000000">id</text>
<polygon fill="none" stroke="#000000" points="46.5,-201.7 46.5,-220.7 180.5,-220.7 180.5,-201.7 46.5,-201.7"/>
<text text-anchor="start" x="49.5" y="-207.8" font-family="Helvetica,sans-Serif" font-size="11.00" fill="#000000">...</text>
<polygon fill="#ffffff" stroke="transparent" points="46.5,-182.7 46.5,-201.7 102.5,-201.7 102.5,-182.7 46.5,-182.7"/>
<polygon fill="none" stroke="#000000" points="46.5,-182.7 46.5,-201.7 102.5,-201.7 102.5,-182.7 46.5,-182.7"/>
<text text-anchor="start" x="49.5" y="-188.8" font-family="Helvetica,sans-Serif" font-size="11.00" fill="#000000"> &#160;</text>
<polygon fill="#ffffff" stroke="transparent" points="102.5,-182.7 102.5,-201.7 136.5,-201.7 136.5,-182.7 102.5,-182.7"/>
<polygon fill="none" stroke="#000000" points="102.5,-182.7 102.5,-201.7 136.5,-201.7 136.5,-182.7 102.5,-182.7"/>
<text text-anchor="start" x="127.3862" y="-188.8" font-family="Helvetica,sans-Serif" font-size="11.00" fill="#000000"> &#160;</text>
<polygon fill="#ffffff" stroke="transparent" points="136.5,-182.7 136.5,-201.7 180.5,-201.7 180.5,-182.7 136.5,-182.7"/>
<polygon fill="none" stroke="#000000" points="136.5,-182.7 136.5,-201.7 180.5,-201.7 180.5,-182.7 136.5,-182.7"/>
<text text-anchor="start" x="161.9053" y="-188.8" font-family="Helvetica,sans-Serif" font-size="11.00" fill="#000000">2 &gt;</text>
</a>
</g>
</g>
<!-- court_appearance&#45;&gt;audit_revision -->
<g id="edge1" class="edge">
<title>court_appearance:w&#45;&gt;audit_revision:e</title>
<path fill="none" stroke="#000000" stroke-dasharray="5,2" d="M317.4498,-498.112C198.9975,-484.2981 312.3633,-231.7 180.5,-231.7"/>
<polygon fill="#000000" stroke="#000000" points="327.4239,-494.6617 326.9786,-502.6493 325.3811,-502.5602 325.8263,-494.5726 327.4239,-494.6617"/>
<polyline fill="none" stroke="#000000" points="328,-498.7 324.0062,-498.4774 "/>
<ellipse fill="none" stroke="#000000" cx="320.8112" cy="-498.2993" rx="3.2" ry="3.2"/>
</g>
<!-- person_summary -->
<g id="node8" class="node">
<title>person_summary</title>
<g id="a_node8"><a xlink:href="../../tables/person_summary.html" xlink:title="person_summary" target="_top">
<polygon fill="#ffffff" stroke="transparent" points="36.5,-287.2 36.5,-370.2 190.5,-370.2 190.5,-287.2 36.5,-287.2"/>
<polygon fill="#f5f5f5" stroke="transparent" points="36.5,-346.7 36.5,-369.7 190.5,-369.7 190.5,-346.7 36.5,-346.7"/>
<polygon fill="none" stroke="#000000" points="36.5,-346.7 36.5,-369.7 190.5,-369.7 190.5,-346.7 36.5,-346.7"/>
<text text-anchor="start" x="41.5" y="-355.3" font-family="Helvetica,sans-Serif" font-weight="bold" font-size="11.00" fill="#000000">person_summary</text>
<text text-anchor="start" x="156.0219" y="-354.8" font-family="Helvetica,sans-Serif" font-size="11.00" fill="#000000">[table]</text>
<polygon fill="none" stroke="#000000" points="36.5,-324.7 36.5,-346.7 190.5,-346.7 190.5,-324.7 36.5,-324.7"/>
<image xlink:href="../../images/primaryKeys.png" width="11px" height="12px" preserveAspectRatio="xMinYMin meet" x="41.5" y="-341.7"/>
<text text-anchor="start" x="65.5" y="-331.8" font-family="Helvetica,sans-Serif" font-size="11.00" fill="#000000">person_identifier</text>
<polygon fill="none" stroke="#000000" points="36.5,-305.7 36.5,-324.7 190.5,-324.7 190.5,-305.7 36.5,-305.7"/>
<text text-anchor="start" x="39.5" y="-311.8" font-family="Helvetica,sans-Serif" font-size="11.00" fill="#000000">...</text>
<polygon fill="#ffffff" stroke="transparent" points="36.5,-286.7 36.5,-305.7 102.5,-305.7 102.5,-286.7 36.5,-286.7"/>
<polygon fill="none" stroke="#000000" points="36.5,-286.7 36.5,-305.7 102.5,-305.7 102.5,-286.7 36.5,-286.7"/>
<text text-anchor="start" x="39.5" y="-292.8" font-family="Helvetica,sans-Serif" font-size="11.00" fill="#000000"> &#160;</text>
<polygon fill="#ffffff" stroke="transparent" points="102.5,-286.7 102.5,-305.7 141.5,-305.7 141.5,-286.7 102.5,-286.7"/>
<polygon fill="none" stroke="#000000" points="102.5,-286.7 102.5,-305.7 141.5,-305.7 141.5,-286.7 102.5,-286.7"/>
<text text-anchor="start" x="132.3862" y="-292.8" font-family="Helvetica,sans-Serif" font-size="11.00" fill="#000000"> &#160;</text>
<polygon fill="#ffffff" stroke="transparent" points="141.5,-286.7 141.5,-305.7 190.5,-305.7 190.5,-286.7 141.5,-286.7"/>
<polygon fill="none" stroke="#000000" points="141.5,-286.7 141.5,-305.7 190.5,-305.7 190.5,-286.7 141.5,-286.7"/>
<text text-anchor="start" x="171.9053" y="-292.8" font-family="Helvetica,sans-Serif" font-size="11.00" fill="#000000">2 &gt;</text>
</a>
</g>
</g>
<!-- court_appearance&#45;&gt;person_summary -->
<g id="edge2" class="edge">
<title>court_appearance:w&#45;&gt;person_summary:e</title>
<path fill="none" stroke="#000000" d="M313.623,-607.5422C201.977,-588.3011 321.18,-335.7 190.5,-335.7"/>
<polygon fill="#000000" stroke="#000000" points="320.0258,-608.0578 327.711,-612.2884 324.0129,-608.3789 328,-608.7 328,-608.7 328,-608.7 324.0129,-608.3789 328.289,-605.1116 320.0258,-608.0578 320.0258,-608.0578"/>
<ellipse fill="none" stroke="#000000" cx="316.8361" cy="-607.8009" rx="3.2" ry="3.2"/>
</g>
<!-- court_appearance_audit -->
<g id="node2" class="node">
<title>court_appearance_audit</title>
<g id="a_node2"><a xlink:href="../../tables/court_appearance_audit.html" xlink:title="court_appearance_audit" target="_top">
<polygon fill="#ffffff" stroke="transparent" points="307,-38.2 307,-209.2 507,-209.2 507,-38.2 307,-38.2"/>
<polygon fill="#f5f5f5" stroke="transparent" points="307,-185.7 307,-208.7 507,-208.7 507,-185.7 307,-185.7"/>
<polygon fill="none" stroke="#000000" points="307,-185.7 307,-208.7 507,-208.7 507,-185.7 307,-185.7"/>
<text text-anchor="start" x="312" y="-194.3" font-family="Helvetica,sans-Serif" font-weight="bold" font-size="11.00" fill="#000000">court_appearance_audit</text>
<text text-anchor="start" x="472.5219" y="-193.8" font-family="Helvetica,sans-Serif" font-size="11.00" fill="#000000">[table]</text>
<polygon fill="none" stroke="#000000" points="307,-163.7 307,-185.7 507,-185.7 507,-163.7 307,-163.7"/>
<image xlink:href="../../images/primaryKeys.png" width="11px" height="12px" preserveAspectRatio="xMinYMin meet" x="312" y="-180.7"/>
<text text-anchor="start" x="336" y="-170.8" font-family="Helvetica,sans-Serif" font-size="11.00" fill="#000000">rev_id</text>
<polygon fill="none" stroke="#000000" points="307,-141.7 307,-163.7 507,-163.7 507,-141.7 307,-141.7"/>
<image xlink:href="../../images/primaryKeys.png" width="11px" height="12px" preserveAspectRatio="xMinYMin meet" x="312" y="-158.7"/>
<text text-anchor="start" x="336" y="-148.8" font-family="Helvetica,sans-Serif" font-size="11.00" fill="#000000">id</text>
<polygon fill="none" stroke="#000000" points="307,-119.7 307,-141.7 507,-141.7 507,-119.7 307,-119.7"/>
<image xlink:href="../../images/foreignKeys.png" width="11px" height="12px" preserveAspectRatio="xMinYMin meet" x="312" y="-136.7"/>
<text text-anchor="start" x="336" y="-126.8" font-family="Helvetica,sans-Serif" font-size="11.00" fill="#000000">person_identifier</text>
<polygon fill="none" stroke="#000000" points="307,-97.7 307,-119.7 507,-119.7 507,-97.7 307,-97.7"/>
<image xlink:href="../../images/foreignKeys.png" width="11px" height="12px" preserveAspectRatio="xMinYMin meet" x="312" y="-114.7"/>
<text text-anchor="start" x="336" y="-104.8" font-family="Helvetica,sans-Serif" font-size="11.00" fill="#000000">legacy_id</text>
<polygon fill="#ffffff" stroke="transparent" points="307,-75.7 307,-97.7 507,-97.7 507,-75.7 307,-75.7"/>
<polygon fill="none" stroke="#000000" points="307,-75.7 307,-97.7 507,-97.7 507,-75.7 307,-75.7"/>
<text text-anchor="start" x="336" y="-82.8" font-family="Helvetica,sans-Serif" font-size="11.00" fill="#000000">external_reference</text>
<polygon fill="none" stroke="#000000" points="307,-56.7 307,-75.7 507,-75.7 507,-56.7 307,-56.7"/>
<text text-anchor="start" x="310" y="-62.8" font-family="Helvetica,sans-Serif" font-size="11.00" fill="#000000">...</text>
<polygon fill="#ffffff" stroke="transparent" points="307,-37.7 307,-56.7 405,-56.7 405,-37.7 307,-37.7"/>
<polygon fill="none" stroke="#000000" points="307,-37.7 307,-56.7 405,-56.7 405,-37.7 307,-37.7"/>
<text text-anchor="start" x="310" y="-43.8" font-family="Helvetica,sans-Serif" font-size="11.00" fill="#000000">&lt; 1</text>
<polygon fill="#ffffff" stroke="transparent" points="405,-37.7 405,-56.7 456,-56.7 456,-37.7 405,-37.7"/>
<polygon fill="none" stroke="#000000" points="405,-37.7 405,-56.7 456,-56.7 456,-37.7 405,-37.7"/>
<text text-anchor="start" x="446.8862" y="-43.8" font-family="Helvetica,sans-Serif" font-size="11.00" fill="#000000"> &#160;</text>
<polygon fill="#ffffff" stroke="transparent" points="456,-37.7 456,-56.7 507,-56.7 507,-37.7 456,-37.7"/>
<polygon fill="none" stroke="#000000" points="456,-37.7 456,-56.7 507,-56.7 507,-37.7 456,-37.7"/>
<text text-anchor="start" x="497.8862" y="-43.8" font-family="Helvetica,sans-Serif" font-size="11.00" fill="#000000"> &#160;</text>
</a>
</g>
</g>
<!-- court_appearance_audit&#45;&gt;audit_revision -->
<g id="edge5" class="edge">
<title>court_appearance_audit:w&#45;&gt;audit_revision:e</title>
<path fill="none" stroke="#000000" stroke-dasharray="5,2" d="M292.3733,-110.3458C232.2213,-124.9416 253.5574,-231.7 180.5,-231.7"/>
<polygon fill="#000000" stroke="#000000" points="299.0502,-109.5945 307.4025,-112.2774 303.0251,-109.1473 307,-108.7 307,-108.7 307,-108.7 303.0251,-109.1473 306.5975,-105.1226 299.0502,-109.5945 299.0502,-109.5945"/>
<ellipse fill="none" stroke="#000000" cx="295.8702" cy="-109.9524" rx="3.2" ry="3.2"/>
</g>
<!-- court_appearance_audit&#45;&gt;audit_revision -->
<g id="edge7" class="edge">
<title>court_appearance_audit:w&#45;&gt;audit_revision:e</title>
<path fill="none" stroke="#000000" d="M292.6315,-175.8386C244.3892,-183.8722 236.9872,-231.7 180.5,-231.7"/>
<polygon fill="#000000" stroke="#000000" points="299.025,-175.332 307.2844,-178.2888 303.0125,-175.016 307,-174.7 307,-174.7 307,-174.7 303.0125,-175.016 306.7156,-171.1112 299.025,-175.332 299.025,-175.332"/>
<ellipse fill="none" stroke="#000000" cx="295.835" cy="-175.5848" rx="3.2" ry="3.2"/>
</g>
<!-- court_appearance_audit&#45;&gt;person_summary -->
<g id="edge6" class="edge">
<title>court_appearance_audit:w&#45;&gt;person_summary:e</title>
<path fill="none" stroke="#000000" stroke-dasharray="5,2" d="M292.5141,-132.2322C211.1485,-150.9917 289.9742,-335.7 190.5,-335.7"/>
<polygon fill="#000000" stroke="#000000" points="299.0444,-131.5415 307.3787,-134.28 303.0222,-131.1208 307,-130.7 307,-130.7 307,-130.7 303.0222,-131.1208 306.6213,-127.12 299.0444,-131.5415 299.0444,-131.5415"/>
<ellipse fill="none" stroke="#000000" cx="295.8621" cy="-131.8782" rx="3.2" ry="3.2"/>
</g>
<!-- court_appearance_movement -->
<g id="node4" class="node">
<title>court_appearance_movement</title>
<g id="a_node4"><a xlink:href="../../tables/court_appearance_movement.html" xlink:title="court_appearance_movement" target="_top">
<polygon fill="#ffffff" stroke="transparent" points="595,-516.2 595,-687.2 832,-687.2 832,-516.2 595,-516.2"/>
<polygon fill="#f5f5f5" stroke="transparent" points="595.5,-663.7 595.5,-686.7 832.5,-686.7 832.5,-663.7 595.5,-663.7"/>
<polygon fill="none" stroke="#000000" points="595.5,-663.7 595.5,-686.7 832.5,-686.7 832.5,-663.7 595.5,-663.7"/>
<text text-anchor="start" x="600.5" y="-672.3" font-family="Helvetica,sans-Serif" font-weight="bold" font-size="11.00" fill="#000000">court_appearance_movement</text>
<text text-anchor="start" x="798.0219" y="-671.8" font-family="Helvetica,sans-Serif" font-size="11.00" fill="#000000">[table]</text>
<polygon fill="none" stroke="#000000" points="595.5,-641.7 595.5,-663.7 832.5,-663.7 832.5,-641.7 595.5,-641.7"/>
<image xlink:href="../../images/primaryKeys.png" width="11px" height="12px" preserveAspectRatio="xMinYMin meet" x="600.5" y="-658.7"/>
<text text-anchor="start" x="624.5" y="-648.8" font-family="Helvetica,sans-Serif" font-size="11.00" fill="#000000">id</text>
<polygon fill="#ffffff" stroke="transparent" points="595.5,-619.7 595.5,-641.7 832.5,-641.7 832.5,-619.7 595.5,-619.7"/>
<polygon fill="none" stroke="#000000" points="595.5,-619.7 595.5,-641.7 832.5,-641.7 832.5,-619.7 595.5,-619.7"/>
<image xlink:href="../../images/foreignKeys.png" width="11px" height="12px" preserveAspectRatio="xMinYMin meet" x="600.5" y="-636.7"/>
<text text-anchor="start" x="624.5" y="-626.8" font-family="Helvetica,sans-Serif" font-size="11.00" fill="#000000">court_appearance_id</text>
<polygon fill="#ffffff" stroke="transparent" points="595.5,-597.7 595.5,-619.7 832.5,-619.7 832.5,-597.7 595.5,-597.7"/>
<polygon fill="none" stroke="#000000" points="595.5,-597.7 595.5,-619.7 832.5,-619.7 832.5,-597.7 595.5,-597.7"/>
<image xlink:href="../../images/foreignKeys.png" width="11px" height="12px" preserveAspectRatio="xMinYMin meet" x="600.5" y="-614.7"/>
<text text-anchor="start" x="624.5" y="-604.8" font-family="Helvetica,sans-Serif" font-size="11.00" fill="#000000">person_identifier</text>
<polygon fill="none" stroke="#000000" points="595.5,-575.7 595.5,-597.7 832.5,-597.7 832.5,-575.7 595.5,-575.7"/>
<image xlink:href="../../images/foreignKeys.png" width="11px" height="12px" preserveAspectRatio="xMinYMin meet" x="600.5" y="-592.7"/>
<text text-anchor="start" x="624.5" y="-582.8" font-family="Helvetica,sans-Serif" font-size="11.00" fill="#000000">reason_id</text>
<polygon fill="#ffffff" stroke="transparent" points="595.5,-553.7 595.5,-575.7 832.5,-575.7 832.5,-553.7 595.5,-553.7"/>
<polygon fill="none" stroke="#000000" points="595.5,-553.7 595.5,-575.7 832.5,-575.7 832.5,-553.7 595.5,-553.7"/>
<text text-anchor="start" x="624.5" y="-560.8" font-family="Helvetica,sans-Serif" font-size="11.00" fill="#000000">legacy_id</text>
<polygon fill="none" stroke="#000000" points="595.5,-534.7 595.5,-553.7 832.5,-553.7 832.5,-534.7 595.5,-534.7"/>
<text text-anchor="start" x="598.5" y="-540.8" font-family="Helvetica,sans-Serif" font-size="11.00" fill="#000000">...</text>
<polygon fill="#ffffff" stroke="transparent" points="595.5,-515.7 595.5,-534.7 712.5,-534.7 712.5,-515.7 595.5,-515.7"/>
<polygon fill="none" stroke="#000000" points="595.5,-515.7 595.5,-534.7 712.5,-534.7 712.5,-515.7 595.5,-515.7"/>
<text text-anchor="start" x="598.5" y="-521.8" font-family="Helvetica,sans-Serif" font-size="11.00" fill="#000000">&lt; 3</text>
<polygon fill="#ffffff" stroke="transparent" points="712.5,-515.7 712.5,-534.7 772.5,-534.7 772.5,-515.7 712.5,-515.7"/>
<polygon fill="none" stroke="#000000" points="712.5,-515.7 712.5,-534.7 772.5,-534.7 772.5,-515.7 712.5,-515.7"/>
<text text-anchor="start" x="763.3862" y="-521.8" font-family="Helvetica,sans-Serif" font-size="11.00" fill="#000000"> &#160;</text>
<polygon fill="#ffffff" stroke="transparent" points="772.5,-515.7 772.5,-534.7 832.5,-534.7 832.5,-515.7 772.5,-515.7"/>
<polygon fill="none" stroke="#000000" points="772.5,-515.7 772.5,-534.7 832.5,-534.7 832.5,-515.7 772.5,-515.7"/>
<text text-anchor="start" x="823.3862" y="-521.8" font-family="Helvetica,sans-Serif" font-size="11.00" fill="#000000"> &#160;</text>
</a>
</g>
</g>
<!-- court_appearance_movement&#45;&gt;court_appearance -->
<g id="edge8" class="edge">
<title>court_appearance_movement:w&#45;&gt;court_appearance:e</title>
<path fill="none" stroke="#000000" d="M580.8804,-630.7C544.208,-630.7 529.9479,-630.7 487,-630.7"/>
<polygon fill="#000000" stroke="#000000" points="587.5,-630.7001 595.5,-634.3 591.5,-630.7 595.5,-630.7 595.5,-630.7 595.5,-630.7 591.5,-630.7 595.5,-627.1 587.5,-630.7001 587.5,-630.7001"/>
<ellipse fill="none" stroke="#000000" cx="584.3" cy="-630.7001" rx="3.2" ry="3.2"/>
</g>
<!-- court_appearance_movement&#45;&gt;court_appearance_reason -->
<g id="edge10" class="edge">
<title>court_appearance_movement:w&#45;&gt;court_appearance_reason:e</title>
<path fill="none" stroke="#000000" d="M581.5219,-590.2505C561.1925,-604.1185 585.2046,-654.8902 554,-675.7 430.206,-758.2562 368.2968,-689.7 219.5,-689.7"/>
<polygon fill="#000000" stroke="#000000" points="587.7462,-588.6695 596.3863,-590.1892 591.6231,-587.6848 595.5,-586.7 595.5,-586.7 595.5,-586.7 591.6231,-587.6848 594.6137,-583.2108 587.7462,-588.6695 587.7462,-588.6695"/>
<ellipse fill="none" stroke="#000000" cx="584.6447" cy="-589.4573" rx="3.2" ry="3.2"/>
</g>
<!-- court_appearance_movement&#45;&gt;person_summary -->
<g id="edge9" class="edge">
<title>court_appearance_movement:w&#45;&gt;person_summary:e</title>
<path fill="none" stroke="#000000" d="M581.061,-607.0943C522.1256,-591.8266 614.7825,-471.648 554,-417.7 504.9159,-374.135 321.002,-413.9058 260,-389.7 223.641,-375.2726 229.6168,-335.7 190.5,-335.7"/>
<polygon fill="#000000" stroke="#000000" points="587.549,-607.8157 595.1021,-612.2779 591.5245,-608.2579 595.5,-608.7 595.5,-608.7 595.5,-608.7 591.5245,-608.2579 595.8979,-605.1221 587.549,-607.8157 587.549,-607.8157"/>
<ellipse fill="none" stroke="#000000" cx="584.3686" cy="-607.462" rx="3.2" ry="3.2"/>
</g>
<!-- court_appearance_movement_audit -->
<g id="node6" class="node">
<title>court_appearance_movement_audit</title>
<g id="a_node6"><a xlink:href="../../tables/court_appearance_movement_audit.html" xlink:title="court_appearance_movement_audit" target="_top">
<polygon fill="#ffffff" stroke="transparent" points="268,-230.2 268,-379.2 546,-379.2 546,-230.2 268,-230.2"/>
<polygon fill="#f5f5f5" stroke="transparent" points="268,-355.7 268,-378.7 546,-378.7 546,-355.7 268,-355.7"/>
<polygon fill="none" stroke="#000000" points="268,-355.7 268,-378.7 546,-378.7 546,-355.7 268,-355.7"/>
<text text-anchor="start" x="273" y="-364.3" font-family="Helvetica,sans-Serif" font-weight="bold" font-size="11.00" fill="#000000">court_appearance_movement_audit</text>
<text text-anchor="start" x="511.5219" y="-363.8" font-family="Helvetica,sans-Serif" font-size="11.00" fill="#000000">[table]</text>
<polygon fill="none" stroke="#000000" points="268,-333.7 268,-355.7 546,-355.7 546,-333.7 268,-333.7"/>
<image xlink:href="../../images/primaryKeys.png" width="11px" height="12px" preserveAspectRatio="xMinYMin meet" x="273" y="-350.7"/>
<text text-anchor="start" x="297" y="-340.8" font-family="Helvetica,sans-Serif" font-size="11.00" fill="#000000">rev_id</text>
<polygon fill="none" stroke="#000000" points="268,-311.7 268,-333.7 546,-333.7 546,-311.7 268,-311.7"/>
<image xlink:href="../../images/primaryKeys.png" width="11px" height="12px" preserveAspectRatio="xMinYMin meet" x="273" y="-328.7"/>
<text text-anchor="start" x="297" y="-318.8" font-family="Helvetica,sans-Serif" font-size="11.00" fill="#000000">id</text>
<polygon fill="#ffffff" stroke="transparent" points="268,-289.7 268,-311.7 546,-311.7 546,-289.7 268,-289.7"/>
<polygon fill="none" stroke="#000000" points="268,-289.7 268,-311.7 546,-311.7 546,-289.7 268,-289.7"/>
<text text-anchor="start" x="297" y="-296.8" font-family="Helvetica,sans-Serif" font-size="11.00" fill="#000000">court_appearance_id</text>
<polygon fill="none" stroke="#000000" points="268,-267.7 268,-289.7 546,-289.7 546,-267.7 268,-267.7"/>
<image xlink:href="../../images/foreignKeys.png" width="11px" height="12px" preserveAspectRatio="xMinYMin meet" x="273" y="-284.7"/>
<text text-anchor="start" x="297" y="-274.8" font-family="Helvetica,sans-Serif" font-size="11.00" fill="#000000">person_identifier</text>
<polygon fill="none" stroke="#000000" points="268,-248.7 268,-267.7 546,-267.7 546,-248.7 268,-248.7"/>
<text text-anchor="start" x="271" y="-254.8" font-family="Helvetica,sans-Serif" font-size="11.00" fill="#000000">...</text>
<polygon fill="#ffffff" stroke="transparent" points="268,-229.7 268,-248.7 405,-248.7 405,-229.7 268,-229.7"/>
<polygon fill="none" stroke="#000000" points="268,-229.7 268,-248.7 405,-248.7 405,-229.7 268,-229.7"/>
<text text-anchor="start" x="271" y="-235.8" font-family="Helvetica,sans-Serif" font-size="11.00" fill="#000000">&lt; 1</text>
<polygon fill="#ffffff" stroke="transparent" points="405,-229.7 405,-248.7 475,-248.7 475,-229.7 405,-229.7"/>
<polygon fill="none" stroke="#000000" points="405,-229.7 405,-248.7 475,-248.7 475,-229.7 405,-229.7"/>
<text text-anchor="start" x="465.8862" y="-235.8" font-family="Helvetica,sans-Serif" font-size="11.00" fill="#000000"> &#160;</text>
<polygon fill="#ffffff" stroke="transparent" points="475,-229.7 475,-248.7 546,-248.7 546,-229.7 475,-229.7"/>
<polygon fill="none" stroke="#000000" points="475,-229.7 475,-248.7 546,-248.7 546,-229.7 475,-229.7"/>
<text text-anchor="start" x="536.8862" y="-235.8" font-family="Helvetica,sans-Serif" font-size="11.00" fill="#000000"> &#160;</text>
</a>
</g>
</g>
<!-- court_appearance_movement_audit&#45;&gt;audit_revision -->
<g id="edge12" class="edge">
<title>court_appearance_movement_audit:w&#45;&gt;audit_revision:e</title>
<path fill="none" stroke="#000000" d="M253.9164,-341.3907C237.1711,-331.1945 245.1984,-299.5676 227,-276.7 209.0915,-254.1967 209.2595,-231.7 180.5,-231.7"/>
<polygon fill="#000000" stroke="#000000" points="260.2121,-342.87 267.1765,-348.2046 264.1061,-343.785 268,-344.7 268,-344.7 268,-344.7 264.1061,-343.785 268.8235,-341.1954 260.2121,-342.87 260.2121,-342.87"/>
<ellipse fill="none" stroke="#000000" cx="257.0969" cy="-342.138" rx="3.2" ry="3.2"/>
</g>
<!-- court_appearance_movement_audit&#45;&gt;person_summary -->
<g id="edge11" class="edge">
<title>court_appearance_movement_audit:w&#45;&gt;person_summary:e</title>
<path fill="none" stroke="#000000" stroke-dasharray="5,2" d="M253.7784,-281.2973C226.4652,-292.4482 227.7457,-335.7 190.5,-335.7"/>
<polygon fill="#000000" stroke="#000000" points="260.1302,-280.1373 268.6468,-282.2414 264.0651,-279.4187 268,-278.7 268,-278.7 268,-278.7 264.0651,-279.4187 267.3532,-275.1586 260.1302,-280.1373 260.1302,-280.1373"/>
<ellipse fill="none" stroke="#000000" cx="256.9822" cy="-280.7122" rx="3.2" ry="3.2"/>
</g>
</g>
</svg>
