<?xml version="1.0" encoding="UTF-8" standalone="no"?>
<!DOCTYPE svg PUBLIC "-//W3C//DTD SVG 1.1//EN"
 "http://www.w3.org/Graphics/SVG/1.1/DTD/svg11.dtd">
<!-- Generated by graphviz version 2.40.1 (20161225.0304)
 -->
<!-- Title: largeImpliedRelationshipsDiagram Pages: 1 -->
<svg width="848pt" height="1093pt"
 viewBox="0.00 0.00 848.00 1092.98" xmlns="http://www.w3.org/2000/svg" xmlns:xlink="http://www.w3.org/1999/xlink">
<g id="graph0" class="graph" transform="scale(1 1) rotate(0) translate(4 1088.9795)">
<title>largeImpliedRelationshipsDiagram</title>
<polygon fill="#ffffff" stroke="transparent" points="-4,4 -4,-1088.9795 844,-1088.9795 844,4 -4,4"/>
<text text-anchor="middle" x="72.4936" y="-7.3" font-family="Helvetica,sans-Serif" font-size="11.00" fill="#000000">Generated by SchemaSpy</text>
<!-- court_appearance -->
<g id="node1" class="node">
<title>court_appearance</title>
<g id="a_node1"><a xlink:href="../../tables/court_appearance.html" xlink:title="court_appearance" target="_top">
<polygon fill="#ffffff" stroke="transparent" points="327.5,-774.9795 327.5,-1080.9795 486.5,-1080.9795 486.5,-774.9795 327.5,-774.9795"/>
<polygon fill="#f5f5f5" stroke="transparent" points="328,-1057.9795 328,-1080.9795 487,-1080.9795 487,-1057.9795 328,-1057.9795"/>
<polygon fill="none" stroke="#000000" points="328,-1057.9795 328,-1080.9795 487,-1080.9795 487,-1057.9795 328,-1057.9795"/>
<text text-anchor="start" x="333" y="-1066.5795" font-family="Helvetica,sans-Serif" font-weight="bold" font-size="11.00" fill="#000000">court_appearance</text>
<text text-anchor="start" x="452.5219" y="-1066.0795" font-family="Helvetica,sans-Serif" font-size="11.00" fill="#000000">[table]</text>
<polygon fill="none" stroke="#000000" points="328,-1035.9795 328,-1057.9795 487,-1057.9795 487,-1035.9795 328,-1035.9795"/>
<image xlink:href="../../images/primaryKeys.png" width="11px" height="12px" preserveAspectRatio="xMinYMin meet" x="333" y="-1052.98"/>
<text text-anchor="start" x="357" y="-1043.0795" font-family="Helvetica,sans-Serif" font-size="11.00" fill="#000000">id</text>
<polygon fill="none" stroke="#000000" points="328,-1013.9795 328,-1035.9795 487,-1035.9795 487,-1013.9795 328,-1013.9795"/>
<text text-anchor="start" x="357" y="-1021.0795" font-family="Helvetica,sans-Serif" font-size="11.00" fill="#000000">version</text>
<polygon fill="#ffffff" stroke="transparent" points="328,-991.9795 328,-1013.9795 487,-1013.9795 487,-991.9795 328,-991.9795"/>
<polygon fill="none" stroke="#000000" points="328,-991.9795 328,-1013.9795 487,-1013.9795 487,-991.9795 328,-991.9795"/>
<image xlink:href="../../images/foreignKeys.png" width="11px" height="12px" preserveAspectRatio="xMinYMin meet" x="333" y="-1008.98"/>
<text text-anchor="start" x="357" y="-999.0795" font-family="Helvetica,sans-Serif" font-size="11.00" fill="#000000">person_identifier</text>
<polygon fill="#ffffff" stroke="transparent" points="328,-969.9795 328,-991.9795 487,-991.9795 487,-969.9795 328,-969.9795"/>
<polygon fill="none" stroke="#000000" points="328,-969.9795 328,-991.9795 487,-991.9795 487,-969.9795 328,-969.9795"/>
<text text-anchor="start" x="357" y="-977.0795" font-family="Helvetica,sans-Serif" font-size="11.00" fill="#000000">prison_code</text>
<polygon fill="none" stroke="#000000" points="328,-947.9795 328,-969.9795 487,-969.9795 487,-947.9795 328,-947.9795"/>
<text text-anchor="start" x="357" y="-955.0795" font-family="Helvetica,sans-Serif" font-size="11.00" fill="#000000">court_code</text>
<polygon fill="#ffffff" stroke="transparent" points="328,-925.9795 328,-947.9795 487,-947.9795 487,-925.9795 328,-925.9795"/>
<polygon fill="none" stroke="#000000" points="328,-925.9795 328,-947.9795 487,-947.9795 487,-925.9795 328,-925.9795"/>
<image xlink:href="../../images/foreignKeys.png" width="11px" height="12px" preserveAspectRatio="xMinYMin meet" x="333" y="-942.98"/>
<text text-anchor="start" x="357" y="-933.0795" font-family="Helvetica,sans-Serif" font-size="11.00" fill="#000000">reason_id</text>
<polygon fill="none" stroke="#000000" points="328,-903.9795 328,-925.9795 487,-925.9795 487,-903.9795 328,-903.9795"/>
<text text-anchor="start" x="357" y="-911.0795" font-family="Helvetica,sans-Serif" font-size="11.00" fill="#000000">external</text>
<polygon fill="#ffffff" stroke="transparent" points="328,-881.9795 328,-903.9795 487,-903.9795 487,-881.9795 328,-881.9795"/>
<polygon fill="none" stroke="#000000" points="328,-881.9795 328,-903.9795 487,-903.9795 487,-881.9795 328,-881.9795"/>
<image xlink:href="../../images/foreignKeys.png" width="11px" height="12px" preserveAspectRatio="xMinYMin meet" x="333" y="-898.98"/>
<text text-anchor="start" x="357" y="-889.0795" font-family="Helvetica,sans-Serif" font-size="11.00" fill="#000000">status_id</text>
<polygon fill="#ffffff" stroke="transparent" points="328,-859.9795 328,-881.9795 487,-881.9795 487,-859.9795 328,-859.9795"/>
<polygon fill="none" stroke="#000000" points="328,-859.9795 328,-881.9795 487,-881.9795 487,-859.9795 328,-859.9795"/>
<text text-anchor="start" x="357" y="-867.0795" font-family="Helvetica,sans-Serif" font-size="11.00" fill="#000000">start</text>
<polygon fill="none" stroke="#000000" points="328,-837.9795 328,-859.9795 487,-859.9795 487,-837.9795 328,-837.9795"/>
<text text-anchor="start" x="357" y="-845.0795" font-family="Helvetica,sans-Serif" font-size="11.00" fill="#000000">end</text>
<polygon fill="none" stroke="#000000" points="328,-815.9795 328,-837.9795 487,-837.9795 487,-815.9795 328,-815.9795"/>
<text text-anchor="start" x="357" y="-823.0795" font-family="Helvetica,sans-Serif" font-size="11.00" fill="#000000">comments</text>
<polygon fill="#ffffff" stroke="transparent" points="328,-793.9795 328,-815.9795 487,-815.9795 487,-793.9795 328,-793.9795"/>
<polygon fill="none" stroke="#000000" points="328,-793.9795 328,-815.9795 487,-815.9795 487,-793.9795 328,-793.9795"/>
<image xlink:href="../../images/foreignKeys.png" width="11px" height="12px" preserveAspectRatio="xMinYMin meet" x="333" y="-810.98"/>
<text text-anchor="start" x="357" y="-801.0795" font-family="Helvetica,sans-Serif" font-size="11.00" fill="#000000">legacy_id</text>
<polygon fill="#ffffff" stroke="transparent" points="328,-774.9795 328,-793.9795 401,-793.9795 401,-774.9795 328,-774.9795"/>
<polygon fill="none" stroke="#000000" points="328,-774.9795 328,-793.9795 401,-793.9795 401,-774.9795 328,-774.9795"/>
<text text-anchor="start" x="331" y="-781.0795" font-family="Helvetica,sans-Serif" font-size="11.00" fill="#000000">&lt; 3</text>
<polygon fill="#ffffff" stroke="transparent" points="401,-774.9795 401,-793.9795 439,-793.9795 439,-774.9795 401,-774.9795"/>
<polygon fill="none" stroke="#000000" points="401,-774.9795 401,-793.9795 439,-793.9795 439,-774.9795 401,-774.9795"/>
<text text-anchor="start" x="429.8862" y="-781.0795" font-family="Helvetica,sans-Serif" font-size="11.00" fill="#000000"> &#160;</text>
<polygon fill="#ffffff" stroke="transparent" points="439,-774.9795 439,-793.9795 487,-793.9795 487,-774.9795 439,-774.9795"/>
<polygon fill="none" stroke="#000000" points="439,-774.9795 439,-793.9795 487,-793.9795 487,-774.9795 439,-774.9795"/>
<text text-anchor="start" x="468.4053" y="-781.0795" font-family="Helvetica,sans-Serif" font-size="11.00" fill="#000000">1 &gt;</text>
</a>
</g>
</g>
<!-- court_appearance_reason -->
<g id="node2" class="node">
<title>court_appearance_reason</title>
<g id="a_node2"><a xlink:href="../../tables/court_appearance_reason.html" xlink:title="court_appearance_reason" target="_top">
<polygon fill="#ffffff" stroke="transparent" points="8,-871.9795 8,-1045.9795 219,-1045.9795 219,-871.9795 8,-871.9795"/>
<polygon fill="#f5f5f5" stroke="transparent" points="8.5,-1022.9795 8.5,-1045.9795 219.5,-1045.9795 219.5,-1022.9795 8.5,-1022.9795"/>
<polygon fill="none" stroke="#000000" points="8.5,-1022.9795 8.5,-1045.9795 219.5,-1045.9795 219.5,-1022.9795 8.5,-1022.9795"/>
<text text-anchor="start" x="13.5" y="-1031.5795" font-family="Helvetica,sans-Serif" font-weight="bold" font-size="11.00" fill="#000000">court_appearance_reason</text>
<text text-anchor="start" x="185.0219" y="-1031.0795" font-family="Helvetica,sans-Serif" font-size="11.00" fill="#000000">[table]</text>
<polygon fill="none" stroke="#000000" points="8.5,-1000.9795 8.5,-1022.9795 219.5,-1022.9795 219.5,-1000.9795 8.5,-1000.9795"/>
<image xlink:href="../../images/primaryKeys.png" width="11px" height="12px" preserveAspectRatio="xMinYMin meet" x="13.5" y="-1017.98"/>
<text text-anchor="start" x="37.5" y="-1008.0795" font-family="Helvetica,sans-Serif" font-size="11.00" fill="#000000">id</text>
<polygon fill="#ffffff" stroke="transparent" points="8.5,-978.9795 8.5,-1000.9795 219.5,-1000.9795 219.5,-978.9795 8.5,-978.9795"/>
<polygon fill="none" stroke="#000000" points="8.5,-978.9795 8.5,-1000.9795 219.5,-1000.9795 219.5,-978.9795 8.5,-978.9795"/>
<text text-anchor="start" x="37.5" y="-986.0795" font-family="Helvetica,sans-Serif" font-size="11.00" fill="#000000">code</text>
<polygon fill="none" stroke="#000000" points="8.5,-956.9795 8.5,-978.9795 219.5,-978.9795 219.5,-956.9795 8.5,-956.9795"/>
<text text-anchor="start" x="37.5" y="-964.0795" font-family="Helvetica,sans-Serif" font-size="11.00" fill="#000000">description</text>
<polygon fill="#ffffff" stroke="transparent" points="8.5,-934.9795 8.5,-956.9795 219.5,-956.9795 219.5,-934.9795 8.5,-934.9795"/>
<polygon fill="none" stroke="#000000" points="8.5,-934.9795 8.5,-956.9795 219.5,-956.9795 219.5,-934.9795 8.5,-934.9795"/>
<text text-anchor="start" x="37.5" y="-942.0795" font-family="Helvetica,sans-Serif" font-size="11.00" fill="#000000">sequence_number</text>
<polygon fill="none" stroke="#000000" points="8.5,-912.9795 8.5,-934.9795 219.5,-934.9795 219.5,-912.9795 8.5,-912.9795"/>
<text text-anchor="start" x="37.5" y="-920.0795" font-family="Helvetica,sans-Serif" font-size="11.00" fill="#000000">active</text>
<polygon fill="none" stroke="#000000" points="8.5,-890.9795 8.5,-912.9795 219.5,-912.9795 219.5,-890.9795 8.5,-890.9795"/>
<text text-anchor="start" x="37.5" y="-898.0795" font-family="Helvetica,sans-Serif" font-size="11.00" fill="#000000">external</text>
<polygon fill="#ffffff" stroke="transparent" points="8.5,-871.9795 8.5,-890.9795 103.5,-890.9795 103.5,-871.9795 8.5,-871.9795"/>
<polygon fill="none" stroke="#000000" points="8.5,-871.9795 8.5,-890.9795 103.5,-890.9795 103.5,-871.9795 8.5,-871.9795"/>
<text text-anchor="start" x="11.5" y="-878.0795" font-family="Helvetica,sans-Serif" font-size="11.00" fill="#000000"> &#160;</text>
<polygon fill="#ffffff" stroke="transparent" points="103.5,-871.9795 103.5,-890.9795 156.5,-890.9795 156.5,-871.9795 103.5,-871.9795"/>
<polygon fill="none" stroke="#000000" points="103.5,-871.9795 103.5,-890.9795 156.5,-890.9795 156.5,-871.9795 103.5,-871.9795"/>
<text text-anchor="start" x="147.3862" y="-878.0795" font-family="Helvetica,sans-Serif" font-size="11.00" fill="#000000"> &#160;</text>
<polygon fill="#ffffff" stroke="transparent" points="156.5,-871.9795 156.5,-890.9795 219.5,-890.9795 219.5,-871.9795 156.5,-871.9795"/>
<polygon fill="none" stroke="#000000" points="156.5,-871.9795 156.5,-890.9795 219.5,-890.9795 219.5,-871.9795 156.5,-871.9795"/>
<text text-anchor="start" x="200.9053" y="-878.0795" font-family="Helvetica,sans-Serif" font-size="11.00" fill="#000000">1 &gt;</text>
</a>
</g>
</g>
<!-- court_appearance&#45;&gt;court_appearance_reason -->
<g id="edge3" class="edge">
<title>court_appearance:w&#45;&gt;court_appearance_reason:e</title>
<path fill="none" stroke="#000000" d="M313.4549,-938.7595C270.4159,-950.1171 272.7403,-1011.9795 219.5,-1011.9795"/>
<polygon fill="#000000" stroke="#000000" points="320.0592,-937.9514 328.4373,-940.5529 324.0296,-937.4655 328,-936.9795 328,-936.9795 328,-936.9795 324.0296,-937.4655 327.5627,-933.4062 320.0592,-937.9514 320.0592,-937.9514"/>
<ellipse fill="none" stroke="#000000" cx="316.8829" cy="-938.3401" rx="3.2" ry="3.2"/>
</g>
<!-- court_appearance_status -->
<g id="node5" class="node">
<title>court_appearance_status</title>
<g id="a_node5"><a xlink:href="../../tables/court_appearance_status.html" xlink:title="court_appearance_status" target="_top">
<polygon fill="#ffffff" stroke="transparent" points="9.5,-720.9795 9.5,-850.9795 217.5,-850.9795 217.5,-720.9795 9.5,-720.9795"/>
<polygon fill="#f5f5f5" stroke="transparent" points="9.5,-827.9795 9.5,-850.9795 217.5,-850.9795 217.5,-827.9795 9.5,-827.9795"/>
<polygon fill="none" stroke="#000000" points="9.5,-827.9795 9.5,-850.9795 217.5,-850.9795 217.5,-827.9795 9.5,-827.9795"/>
<text text-anchor="start" x="14.5" y="-836.5795" font-family="Helvetica,sans-Serif" font-weight="bold" font-size="11.00" fill="#000000">court_appearance_status</text>
<text text-anchor="start" x="183.0219" y="-836.0795" font-family="Helvetica,sans-Serif" font-size="11.00" fill="#000000">[table]</text>
<polygon fill="none" stroke="#000000" points="9.5,-805.9795 9.5,-827.9795 217.5,-827.9795 217.5,-805.9795 9.5,-805.9795"/>
<image xlink:href="../../images/primaryKeys.png" width="11px" height="12px" preserveAspectRatio="xMinYMin meet" x="14.5" y="-822.98"/>
<text text-anchor="start" x="38.5" y="-813.0795" font-family="Helvetica,sans-Serif" font-size="11.00" fill="#000000">id</text>
<polygon fill="#ffffff" stroke="transparent" points="9.5,-783.9795 9.5,-805.9795 217.5,-805.9795 217.5,-783.9795 9.5,-783.9795"/>
<polygon fill="none" stroke="#000000" points="9.5,-783.9795 9.5,-805.9795 217.5,-805.9795 217.5,-783.9795 9.5,-783.9795"/>
<text text-anchor="start" x="38.5" y="-791.0795" font-family="Helvetica,sans-Serif" font-size="11.00" fill="#000000">code</text>
<polygon fill="none" stroke="#000000" points="9.5,-761.9795 9.5,-783.9795 217.5,-783.9795 217.5,-761.9795 9.5,-761.9795"/>
<text text-anchor="start" x="38.5" y="-769.0795" font-family="Helvetica,sans-Serif" font-size="11.00" fill="#000000">description</text>
<polygon fill="#ffffff" stroke="transparent" points="9.5,-739.9795 9.5,-761.9795 217.5,-761.9795 217.5,-739.9795 9.5,-739.9795"/>
<polygon fill="none" stroke="#000000" points="9.5,-739.9795 9.5,-761.9795 217.5,-761.9795 217.5,-739.9795 9.5,-739.9795"/>
<text text-anchor="start" x="38.5" y="-747.0795" font-family="Helvetica,sans-Serif" font-size="11.00" fill="#000000">sequence_number</text>
<polygon fill="#ffffff" stroke="transparent" points="9.5,-720.9795 9.5,-739.9795 102.5,-739.9795 102.5,-720.9795 9.5,-720.9795"/>
<polygon fill="none" stroke="#000000" points="9.5,-720.9795 9.5,-739.9795 102.5,-739.9795 102.5,-720.9795 9.5,-720.9795"/>
<text text-anchor="start" x="12.5" y="-727.0795" font-family="Helvetica,sans-Serif" font-size="11.00" fill="#000000"> &#160;</text>
<polygon fill="#ffffff" stroke="transparent" points="102.5,-720.9795 102.5,-739.9795 155.5,-739.9795 155.5,-720.9795 102.5,-720.9795"/>
<polygon fill="none" stroke="#000000" points="102.5,-720.9795 102.5,-739.9795 155.5,-739.9795 155.5,-720.9795 102.5,-720.9795"/>
<text text-anchor="start" x="146.3862" y="-727.0795" font-family="Helvetica,sans-Serif" font-size="11.00" fill="#000000"> &#160;</text>
<polygon fill="#ffffff" stroke="transparent" points="155.5,-720.9795 155.5,-739.9795 217.5,-739.9795 217.5,-720.9795 155.5,-720.9795"/>
<polygon fill="none" stroke="#000000" points="155.5,-720.9795 155.5,-739.9795 217.5,-739.9795 217.5,-720.9795 155.5,-720.9795"/>
<text text-anchor="start" x="198.9053" y="-727.0795" font-family="Helvetica,sans-Serif" font-size="11.00" fill="#000000">1 &gt;</text>
</a>
</g>
</g>
<!-- court_appearance&#45;&gt;court_appearance_status -->
<g id="edge4" class="edge">
<title>court_appearance:w&#45;&gt;court_appearance_status:e</title>
<path fill="none" stroke="#000000" d="M313.4897,-891.2494C269.4082,-879.9368 271.7505,-816.9795 217.5,-816.9795"/>
<polygon fill="#000000" stroke="#000000" points="320.0563,-892.0323 327.5737,-896.5542 324.0281,-892.5059 328,-892.9795 328,-892.9795 328,-892.9795 324.0281,-892.5059 328.4263,-889.4049 320.0563,-892.0323 320.0563,-892.0323"/>
<ellipse fill="none" stroke="#000000" cx="316.8788" cy="-891.6534" rx="3.2" ry="3.2"/>
</g>
<!-- audit_revision -->
<g id="node7" class="node">
<title>audit_revision</title>
<g id="a_node7"><a xlink:href="../../tables/audit_revision.html" xlink:title="audit_revision" target="_top">
<polygon fill="#ffffff" stroke="transparent" points="46.5,-469.9795 46.5,-665.9795 180.5,-665.9795 180.5,-469.9795 46.5,-469.9795"/>
<polygon fill="#f5f5f5" stroke="transparent" points="46.5,-642.9795 46.5,-665.9795 180.5,-665.9795 180.5,-642.9795 46.5,-642.9795"/>
<polygon fill="none" stroke="#000000" points="46.5,-642.9795 46.5,-665.9795 180.5,-665.9795 180.5,-642.9795 46.5,-642.9795"/>
<text text-anchor="start" x="51.5" y="-651.5795" font-family="Helvetica,sans-Serif" font-weight="bold" font-size="11.00" fill="#000000">audit_revision</text>
<text text-anchor="start" x="146.0219" y="-651.0795" font-family="Helvetica,sans-Serif" font-size="11.00" fill="#000000">[table]</text>
<polygon fill="none" stroke="#000000" points="46.5,-620.9795 46.5,-642.9795 180.5,-642.9795 180.5,-620.9795 46.5,-620.9795"/>
<image xlink:href="../../images/primaryKeys.png" width="11px" height="12px" preserveAspectRatio="xMinYMin meet" x="51.5" y="-637.98"/>
<text text-anchor="start" x="66.5" y="-628.0795" font-family="Helvetica,sans-Serif" font-size="11.00" fill="#000000">id</text>
<polygon fill="none" stroke="#000000" points="46.5,-598.9795 46.5,-620.9795 180.5,-620.9795 180.5,-598.9795 46.5,-598.9795"/>
<text text-anchor="start" x="66.5" y="-606.0795" font-family="Helvetica,sans-Serif" font-size="11.00" fill="#000000">timestamp</text>
<polygon fill="none" stroke="#000000" points="46.5,-576.9795 46.5,-598.9795 180.5,-598.9795 180.5,-576.9795 46.5,-576.9795"/>
<text text-anchor="start" x="66.5" y="-584.0795" font-family="Helvetica,sans-Serif" font-size="11.00" fill="#000000">source</text>
<polygon fill="none" stroke="#000000" points="46.5,-554.9795 46.5,-576.9795 180.5,-576.9795 180.5,-554.9795 46.5,-554.9795"/>
<text text-anchor="start" x="66.5" y="-562.0795" font-family="Helvetica,sans-Serif" font-size="11.00" fill="#000000">affected_entities</text>
<polygon fill="none" stroke="#000000" points="46.5,-532.9795 46.5,-554.9795 180.5,-554.9795 180.5,-532.9795 46.5,-532.9795"/>
<text text-anchor="start" x="66.5" y="-540.0795" font-family="Helvetica,sans-Serif" font-size="11.00" fill="#000000">username</text>
<polygon fill="none" stroke="#000000" points="46.5,-510.9795 46.5,-532.9795 180.5,-532.9795 180.5,-510.9795 46.5,-510.9795"/>
<text text-anchor="start" x="66.5" y="-518.0795" font-family="Helvetica,sans-Serif" font-size="11.00" fill="#000000">caseload_id</text>
<polygon fill="none" stroke="#000000" points="46.5,-488.9795 46.5,-510.9795 180.5,-510.9795 180.5,-488.9795 46.5,-488.9795"/>
<text text-anchor="start" x="66.5" y="-496.0795" font-family="Helvetica,sans-Serif" font-size="11.00" fill="#000000">reason</text>
<polygon fill="#ffffff" stroke="transparent" points="46.5,-469.9795 46.5,-488.9795 102.5,-488.9795 102.5,-469.9795 46.5,-469.9795"/>
<polygon fill="none" stroke="#000000" points="46.5,-469.9795 46.5,-488.9795 102.5,-488.9795 102.5,-469.9795 46.5,-469.9795"/>
<text text-anchor="start" x="49.5" y="-476.0795" font-family="Helvetica,sans-Serif" font-size="11.00" fill="#000000"> &#160;</text>
<polygon fill="#ffffff" stroke="transparent" points="102.5,-469.9795 102.5,-488.9795 136.5,-488.9795 136.5,-469.9795 102.5,-469.9795"/>
<polygon fill="none" stroke="#000000" points="102.5,-469.9795 102.5,-488.9795 136.5,-488.9795 136.5,-469.9795 102.5,-469.9795"/>
<text text-anchor="start" x="127.3862" y="-476.0795" font-family="Helvetica,sans-Serif" font-size="11.00" fill="#000000"> &#160;</text>
<polygon fill="#ffffff" stroke="transparent" points="136.5,-469.9795 136.5,-488.9795 180.5,-488.9795 180.5,-469.9795 136.5,-469.9795"/>
<polygon fill="none" stroke="#000000" points="136.5,-469.9795 136.5,-488.9795 180.5,-488.9795 180.5,-469.9795 136.5,-469.9795"/>
<text text-anchor="start" x="161.9053" y="-476.0795" font-family="Helvetica,sans-Serif" font-size="11.00" fill="#000000">2 &gt;</text>
</a>
</g>
</g>
<!-- court_appearance&#45;&gt;audit_revision -->
<g id="edge1" class="edge">
<title>court_appearance:w&#45;&gt;audit_revision:e</title>
<path fill="none" stroke="#000000" stroke-dasharray="5,2" d="M317.4068,-804.4384C290.9732,-801.5214 282.1592,-786.9834 260,-764.9795 211.1332,-716.4553 249.3663,-631.9795 180.5,-631.9795"/>
<polygon fill="#000000" stroke="#000000" points="327.4052,-800.9439 326.9969,-808.9335 325.399,-808.8519 325.8072,-800.8623 327.4052,-800.9439"/>
<polyline fill="none" stroke="#000000" points="328,-804.9795 324.0052,-804.7754 "/>
<ellipse fill="none" stroke="#000000" cx="320.8094" cy="-804.6121" rx="3.2" ry="3.2"/>
</g>
<!-- person_summary -->
<g id="node8" class="node">
<title>person_summary</title>
<g id="a_node8"><a xlink:href="../../tables/person_summary.html" xlink:title="person_summary" target="_top">
<polygon fill="#ffffff" stroke="transparent" points="36.5,-207.9795 36.5,-381.9795 190.5,-381.9795 190.5,-207.9795 36.5,-207.9795"/>
<polygon fill="#f5f5f5" stroke="transparent" points="36.5,-358.9795 36.5,-381.9795 190.5,-381.9795 190.5,-358.9795 36.5,-358.9795"/>
<polygon fill="none" stroke="#000000" points="36.5,-358.9795 36.5,-381.9795 190.5,-381.9795 190.5,-358.9795 36.5,-358.9795"/>
<text text-anchor="start" x="41.5" y="-367.5795" font-family="Helvetica,sans-Serif" font-weight="bold" font-size="11.00" fill="#000000">person_summary</text>
<text text-anchor="start" x="156.0219" y="-367.0795" font-family="Helvetica,sans-Serif" font-size="11.00" fill="#000000">[table]</text>
<polygon fill="none" stroke="#000000" points="36.5,-336.9795 36.5,-358.9795 190.5,-358.9795 190.5,-336.9795 36.5,-336.9795"/>
<image xlink:href="../../images/primaryKeys.png" width="11px" height="12px" preserveAspectRatio="xMinYMin meet" x="41.5" y="-353.98"/>
<text text-anchor="start" x="65.5" y="-344.0795" font-family="Helvetica,sans-Serif" font-size="11.00" fill="#000000">person_identifier</text>
<polygon fill="none" stroke="#000000" points="36.5,-314.9795 36.5,-336.9795 190.5,-336.9795 190.5,-314.9795 36.5,-314.9795"/>
<text text-anchor="start" x="65.5" y="-322.0795" font-family="Helvetica,sans-Serif" font-size="11.00" fill="#000000">version</text>
<polygon fill="none" stroke="#000000" points="36.5,-292.9795 36.5,-314.9795 190.5,-314.9795 190.5,-292.9795 36.5,-292.9795"/>
<text text-anchor="start" x="65.5" y="-300.0795" font-family="Helvetica,sans-Serif" font-size="11.00" fill="#000000">first_name</text>
<polygon fill="none" stroke="#000000" points="36.5,-270.9795 36.5,-292.9795 190.5,-292.9795 190.5,-270.9795 36.5,-270.9795"/>
<text text-anchor="start" x="65.5" y="-278.0795" font-family="Helvetica,sans-Serif" font-size="11.00" fill="#000000">last_name</text>
<polygon fill="none" stroke="#000000" points="36.5,-248.9795 36.5,-270.9795 190.5,-270.9795 190.5,-248.9795 36.5,-248.9795"/>
<text text-anchor="start" x="65.5" y="-256.0795" font-family="Helvetica,sans-Serif" font-size="11.00" fill="#000000">prison_code</text>
<polygon fill="none" stroke="#000000" points="36.5,-226.9795 36.5,-248.9795 190.5,-248.9795 190.5,-226.9795 36.5,-226.9795"/>
<text text-anchor="start" x="65.5" y="-234.0795" font-family="Helvetica,sans-Serif" font-size="11.00" fill="#000000">cell_location</text>
<polygon fill="#ffffff" stroke="transparent" points="36.5,-207.9795 36.5,-226.9795 102.5,-226.9795 102.5,-207.9795 36.5,-207.9795"/>
<polygon fill="none" stroke="#000000" points="36.5,-207.9795 36.5,-226.9795 102.5,-226.9795 102.5,-207.9795 36.5,-207.9795"/>
<text text-anchor="start" x="39.5" y="-214.0795" font-family="Helvetica,sans-Serif" font-size="11.00" fill="#000000"> &#160;</text>
<polygon fill="#ffffff" stroke="transparent" points="102.5,-207.9795 102.5,-226.9795 141.5,-226.9795 141.5,-207.9795 102.5,-207.9795"/>
<polygon fill="none" stroke="#000000" points="102.5,-207.9795 102.5,-226.9795 141.5,-226.9795 141.5,-207.9795 102.5,-207.9795"/>
<text text-anchor="start" x="132.3862" y="-214.0795" font-family="Helvetica,sans-Serif" font-size="11.00" fill="#000000"> &#160;</text>
<polygon fill="#ffffff" stroke="transparent" points="141.5,-207.9795 141.5,-226.9795 190.5,-226.9795 190.5,-207.9795 141.5,-207.9795"/>
<polygon fill="none" stroke="#000000" points="141.5,-207.9795 141.5,-226.9795 190.5,-226.9795 190.5,-207.9795 141.5,-207.9795"/>
<text text-anchor="start" x="171.9053" y="-214.0795" font-family="Helvetica,sans-Serif" font-size="11.00" fill="#000000">2 &gt;</text>
</a>
</g>
</g>
<!-- court_appearance&#45;&gt;person_summary -->
<g id="edge2" class="edge">
<title>court_appearance:w&#45;&gt;person_summary:e</title>
<path fill="none" stroke="#000000" d="M314.4034,-997.3181C249.8036,-941.8837 234.9975,-497.2438 227,-459.9795 216.0141,-408.7907 242.8544,-347.9795 190.5,-347.9795"/>
<polygon fill="#000000" stroke="#000000" points="320.6146,-999.9043 326.6162,-1006.303 324.3073,-1001.4419 328,-1002.9795 328,-1002.9795 328,-1002.9795 324.3073,-1001.4419 329.3838,-999.6561 320.6146,-999.9043 320.6146,-999.9043"/>
<ellipse fill="none" stroke="#000000" cx="317.6605" cy="-998.6743" rx="3.2" ry="3.2"/>
</g>
<!-- court_appearance_audit -->
<g id="node3" class="node">
<title>court_appearance_audit</title>
<g id="a_node3"><a xlink:href="../../tables/court_appearance_audit.html" xlink:title="court_appearance_audit" target="_top">
<polygon fill="#ffffff" stroke="transparent" points="307,-403.9795 307,-753.9795 507,-753.9795 507,-403.9795 307,-403.9795"/>
<polygon fill="#f5f5f5" stroke="transparent" points="307,-730.9795 307,-753.9795 507,-753.9795 507,-730.9795 307,-730.9795"/>
<polygon fill="none" stroke="#000000" points="307,-730.9795 307,-753.9795 507,-753.9795 507,-730.9795 307,-730.9795"/>
<text text-anchor="start" x="312" y="-739.5795" font-family="Helvetica,sans-Serif" font-weight="bold" font-size="11.00" fill="#000000">court_appearance_audit</text>
<text text-anchor="start" x="472.5219" y="-739.0795" font-family="Helvetica,sans-Serif" font-size="11.00" fill="#000000">[table]</text>
<polygon fill="none" stroke="#000000" points="307,-708.9795 307,-730.9795 507,-730.9795 507,-708.9795 307,-708.9795"/>
<image xlink:href="../../images/primaryKeys.png" width="11px" height="12px" preserveAspectRatio="xMinYMin meet" x="312" y="-725.98"/>
<text text-anchor="start" x="336" y="-716.0795" font-family="Helvetica,sans-Serif" font-size="11.00" fill="#000000">rev_id</text>
<polygon fill="none" stroke="#000000" points="307,-686.9795 307,-708.9795 507,-708.9795 507,-686.9795 307,-686.9795"/>
<text text-anchor="start" x="336" y="-694.0795" font-family="Helvetica,sans-Serif" font-size="11.00" fill="#000000">rev_type</text>
<polygon fill="none" stroke="#000000" points="307,-664.9795 307,-686.9795 507,-686.9795 507,-664.9795 307,-664.9795"/>
<image xlink:href="../../images/primaryKeys.png" width="11px" height="12px" preserveAspectRatio="xMinYMin meet" x="312" y="-681.98"/>
<text text-anchor="start" x="336" y="-672.0795" font-family="Helvetica,sans-Serif" font-size="11.00" fill="#000000">id</text>
<polygon fill="none" stroke="#000000" points="307,-642.9795 307,-664.9795 507,-664.9795 507,-642.9795 307,-642.9795"/>
<text text-anchor="start" x="336" y="-650.0795" font-family="Helvetica,sans-Serif" font-size="11.00" fill="#000000">version</text>
<polygon fill="none" stroke="#000000" points="307,-620.9795 307,-642.9795 507,-642.9795 507,-620.9795 307,-620.9795"/>
<image xlink:href="../../images/foreignKeys.png" width="11px" height="12px" preserveAspectRatio="xMinYMin meet" x="312" y="-637.98"/>
<text text-anchor="start" x="336" y="-628.0795" font-family="Helvetica,sans-Serif" font-size="11.00" fill="#000000">person_identifier</text>
<polygon fill="none" stroke="#000000" points="307,-598.9795 307,-620.9795 507,-620.9795 507,-598.9795 307,-598.9795"/>
<text text-anchor="start" x="336" y="-606.0795" font-family="Helvetica,sans-Serif" font-size="11.00" fill="#000000">prison_code</text>
<polygon fill="none" stroke="#000000" points="307,-576.9795 307,-598.9795 507,-598.9795 507,-576.9795 307,-576.9795"/>
<text text-anchor="start" x="336" y="-584.0795" font-family="Helvetica,sans-Serif" font-size="11.00" fill="#000000">court_code</text>
<polygon fill="none" stroke="#000000" points="307,-554.9795 307,-576.9795 507,-576.9795 507,-554.9795 307,-554.9795"/>
<text text-anchor="start" x="336" y="-562.0795" font-family="Helvetica,sans-Serif" font-size="11.00" fill="#000000">reason_id</text>
<polygon fill="none" stroke="#000000" points="307,-532.9795 307,-554.9795 507,-554.9795 507,-532.9795 307,-532.9795"/>
<text text-anchor="start" x="336" y="-540.0795" font-family="Helvetica,sans-Serif" font-size="11.00" fill="#000000">external</text>
<polygon fill="none" stroke="#000000" points="307,-510.9795 307,-532.9795 507,-532.9795 507,-510.9795 307,-510.9795"/>
<text text-anchor="start" x="336" y="-518.0795" font-family="Helvetica,sans-Serif" font-size="11.00" fill="#000000">status_id</text>
<polygon fill="none" stroke="#000000" points="307,-488.9795 307,-510.9795 507,-510.9795 507,-488.9795 307,-488.9795"/>
<text text-anchor="start" x="336" y="-496.0795" font-family="Helvetica,sans-Serif" font-size="11.00" fill="#000000">start</text>
<polygon fill="none" stroke="#000000" points="307,-466.9795 307,-488.9795 507,-488.9795 507,-466.9795 307,-466.9795"/>
<text text-anchor="start" x="336" y="-474.0795" font-family="Helvetica,sans-Serif" font-size="11.00" fill="#000000">end</text>
<polygon fill="none" stroke="#000000" points="307,-444.9795 307,-466.9795 507,-466.9795 507,-444.9795 307,-444.9795"/>
<text text-anchor="start" x="336" y="-452.0795" font-family="Helvetica,sans-Serif" font-size="11.00" fill="#000000">comments</text>
<polygon fill="none" stroke="#000000" points="307,-422.9795 307,-444.9795 507,-444.9795 507,-422.9795 307,-422.9795"/>
<image xlink:href="../../images/foreignKeys.png" width="11px" height="12px" preserveAspectRatio="xMinYMin meet" x="312" y="-439.98"/>
<text text-anchor="start" x="336" y="-430.0795" font-family="Helvetica,sans-Serif" font-size="11.00" fill="#000000">legacy_id</text>
<polygon fill="#ffffff" stroke="transparent" points="307,-403.9795 307,-422.9795 405,-422.9795 405,-403.9795 307,-403.9795"/>
<polygon fill="none" stroke="#000000" points="307,-403.9795 307,-422.9795 405,-422.9795 405,-403.9795 307,-403.9795"/>
<text text-anchor="start" x="310" y="-410.0795" font-family="Helvetica,sans-Serif" font-size="11.00" fill="#000000">&lt; 1</text>
<polygon fill="#ffffff" stroke="transparent" points="405,-403.9795 405,-422.9795 456,-422.9795 456,-403.9795 405,-403.9795"/>
<polygon fill="none" stroke="#000000" points="405,-403.9795 405,-422.9795 456,-422.9795 456,-403.9795 405,-403.9795"/>
<text text-anchor="start" x="446.8862" y="-410.0795" font-family="Helvetica,sans-Serif" font-size="11.00" fill="#000000"> &#160;</text>
<polygon fill="#ffffff" stroke="transparent" points="456,-403.9795 456,-422.9795 507,-422.9795 507,-403.9795 456,-403.9795"/>
<polygon fill="none" stroke="#000000" points="456,-403.9795 456,-422.9795 507,-422.9795 507,-403.9795 456,-403.9795"/>
<text text-anchor="start" x="497.8862" y="-410.0795" font-family="Helvetica,sans-Serif" font-size="11.00" fill="#000000"> &#160;</text>
</a>
</g>
</g>
<!-- court_appearance_audit&#45;&gt;audit_revision -->
<g id="edge5" class="edge">
<title>court_appearance_audit:w&#45;&gt;audit_revision:e</title>
<path fill="none" stroke="#000000" stroke-dasharray="5,2" d="M292.4873,-435.4595C210.4557,-453.5783 279.6238,-631.9795 180.5,-631.9795"/>
<polygon fill="#000000" stroke="#000000" points="299.0413,-434.7912 307.3652,-437.561 303.0206,-434.3854 307,-433.9795 307,-433.9795 307,-433.9795 303.0206,-434.3854 306.6348,-430.3981 299.0413,-434.7912 299.0413,-434.7912"/>
<ellipse fill="none" stroke="#000000" cx="295.8578" cy="-435.1158" rx="3.2" ry="3.2"/>
</g>
<!-- court_appearance_audit&#45;&gt;audit_revision -->
<g id="edge7" class="edge">
<title>court_appearance_audit:w&#45;&gt;audit_revision:e</title>
<path fill="none" stroke="#000000" d="M292.6541,-718.5256C239.6497,-707.0839 243.7712,-631.9795 180.5,-631.9795"/>
<polygon fill="#000000" stroke="#000000" points="299.0408,-719.1728 306.637,-723.5612 303.0204,-719.5762 307,-719.9795 307,-719.9795 307,-719.9795 303.0204,-719.5762 307.363,-716.3979 299.0408,-719.1728 299.0408,-719.1728"/>
<ellipse fill="none" stroke="#000000" cx="295.8571" cy="-718.8501" rx="3.2" ry="3.2"/>
</g>
<!-- court_appearance_audit&#45;&gt;person_summary -->
<g id="edge6" class="edge">
<title>court_appearance_audit:w&#45;&gt;person_summary:e</title>
<path fill="none" stroke="#000000" stroke-dasharray="5,2" d="M292.3176,-630.7134C182.3394,-610.2254 321.6001,-347.9795 190.5,-347.9795"/>
<polygon fill="#000000" stroke="#000000" points="299.0296,-631.2921 306.6907,-635.5662 303.0148,-631.6358 307,-631.9795 307,-631.9795 307,-631.9795 303.0148,-631.6358 307.3093,-628.3929 299.0296,-631.2921 299.0296,-631.2921"/>
<ellipse fill="none" stroke="#000000" cx="295.8414" cy="-631.0172" rx="3.2" ry="3.2"/>
</g>
<!-- court_appearance_movement -->
<g id="node4" class="node">
<title>court_appearance_movement</title>
<g id="a_node4"><a xlink:href="../../tables/court_appearance_movement.html" xlink:title="court_appearance_movement" target="_top">
<polygon fill="#ffffff" stroke="transparent" points="595,-376.9795 595,-638.9795 832,-638.9795 832,-376.9795 595,-376.9795"/>
<polygon fill="#f5f5f5" stroke="transparent" points="595.5,-615.9795 595.5,-638.9795 832.5,-638.9795 832.5,-615.9795 595.5,-615.9795"/>
<polygon fill="none" stroke="#000000" points="595.5,-615.9795 595.5,-638.9795 832.5,-638.9795 832.5,-615.9795 595.5,-615.9795"/>
<text text-anchor="start" x="600.5" y="-624.5795" font-family="Helvetica,sans-Serif" font-weight="bold" font-size="11.00" fill="#000000">court_appearance_movement</text>
<text text-anchor="start" x="798.0219" y="-624.0795" font-family="Helvetica,sans-Serif" font-size="11.00" fill="#000000">[table]</text>
<polygon fill="none" stroke="#000000" points="595.5,-593.9795 595.5,-615.9795 832.5,-615.9795 832.5,-593.9795 595.5,-593.9795"/>
<image xlink:href="../../images/primaryKeys.png" width="11px" height="12px" preserveAspectRatio="xMinYMin meet" x="600.5" y="-610.98"/>
<text text-anchor="start" x="624.5" y="-601.0795" font-family="Helvetica,sans-Serif" font-size="11.00" fill="#000000">id</text>
<polygon fill="none" stroke="#000000" points="595.5,-571.9795 595.5,-593.9795 832.5,-593.9795 832.5,-571.9795 595.5,-571.9795"/>
<text text-anchor="start" x="624.5" y="-579.0795" font-family="Helvetica,sans-Serif" font-size="11.00" fill="#000000">version</text>
<polygon fill="none" stroke="#000000" points="595.5,-549.9795 595.5,-571.9795 832.5,-571.9795 832.5,-549.9795 595.5,-549.9795"/>
<image xlink:href="../../images/foreignKeys.png" width="11px" height="12px" preserveAspectRatio="xMinYMin meet" x="600.5" y="-566.98"/>
<text text-anchor="start" x="624.5" y="-557.0795" font-family="Helvetica,sans-Serif" font-size="11.00" fill="#000000">court_appearance_id</text>
<polygon fill="#ffffff" stroke="transparent" points="595.5,-527.9795 595.5,-549.9795 832.5,-549.9795 832.5,-527.9795 595.5,-527.9795"/>
<polygon fill="none" stroke="#000000" points="595.5,-527.9795 595.5,-549.9795 832.5,-549.9795 832.5,-527.9795 595.5,-527.9795"/>
<image xlink:href="../../images/foreignKeys.png" width="11px" height="12px" preserveAspectRatio="xMinYMin meet" x="600.5" y="-544.98"/>
<text text-anchor="start" x="624.5" y="-535.0795" font-family="Helvetica,sans-Serif" font-size="11.00" fill="#000000">person_identifier</text>
<polygon fill="none" stroke="#000000" points="595.5,-505.9795 595.5,-527.9795 832.5,-527.9795 832.5,-505.9795 595.5,-505.9795"/>
<text text-anchor="start" x="624.5" y="-513.0795" font-family="Helvetica,sans-Serif" font-size="11.00" fill="#000000">prison_code</text>
<polygon fill="none" stroke="#000000" points="595.5,-483.9795 595.5,-505.9795 832.5,-505.9795 832.5,-483.9795 595.5,-483.9795"/>
<text text-anchor="start" x="624.5" y="-491.0795" font-family="Helvetica,sans-Serif" font-size="11.00" fill="#000000">court_code</text>
<polygon fill="none" stroke="#000000" points="595.5,-461.9795 595.5,-483.9795 832.5,-483.9795 832.5,-461.9795 595.5,-461.9795"/>
<text text-anchor="start" x="624.5" y="-469.0795" font-family="Helvetica,sans-Serif" font-size="11.00" fill="#000000">direction</text>
<polygon fill="none" stroke="#000000" points="595.5,-439.9795 595.5,-461.9795 832.5,-461.9795 832.5,-439.9795 595.5,-439.9795"/>
<text text-anchor="start" x="624.5" y="-447.0795" font-family="Helvetica,sans-Serif" font-size="11.00" fill="#000000">occurred_at</text>
<polygon fill="none" stroke="#000000" points="595.5,-417.9795 595.5,-439.9795 832.5,-439.9795 832.5,-417.9795 595.5,-417.9795"/>
<text text-anchor="start" x="624.5" y="-425.0795" font-family="Helvetica,sans-Serif" font-size="11.00" fill="#000000">comments</text>
<polygon fill="#ffffff" stroke="transparent" points="595.5,-395.9795 595.5,-417.9795 832.5,-417.9795 832.5,-395.9795 595.5,-395.9795"/>
<polygon fill="none" stroke="#000000" points="595.5,-395.9795 595.5,-417.9795 832.5,-417.9795 832.5,-395.9795 595.5,-395.9795"/>
<text text-anchor="start" x="624.5" y="-403.0795" font-family="Helvetica,sans-Serif" font-size="11.00" fill="#000000">legacy_id</text>
<polygon fill="#ffffff" stroke="transparent" points="595.5,-376.9795 595.5,-395.9795 712.5,-395.9795 712.5,-376.9795 595.5,-376.9795"/>
<polygon fill="none" stroke="#000000" points="595.5,-376.9795 595.5,-395.9795 712.5,-395.9795 712.5,-376.9795 595.5,-376.9795"/>
<text text-anchor="start" x="598.5" y="-383.0795" font-family="Helvetica,sans-Serif" font-size="11.00" fill="#000000">&lt; 2</text>
<polygon fill="#ffffff" stroke="transparent" points="712.5,-376.9795 712.5,-395.9795 772.5,-395.9795 772.5,-376.9795 712.5,-376.9795"/>
<polygon fill="none" stroke="#000000" points="712.5,-376.9795 712.5,-395.9795 772.5,-395.9795 772.5,-376.9795 712.5,-376.9795"/>
<text text-anchor="start" x="763.3862" y="-383.0795" font-family="Helvetica,sans-Serif" font-size="11.00" fill="#000000"> &#160;</text>
<polygon fill="#ffffff" stroke="transparent" points="772.5,-376.9795 772.5,-395.9795 832.5,-395.9795 832.5,-376.9795 772.5,-376.9795"/>
<polygon fill="none" stroke="#000000" points="772.5,-376.9795 772.5,-395.9795 832.5,-395.9795 832.5,-376.9795 772.5,-376.9795"/>
<text text-anchor="start" x="823.3862" y="-383.0795" font-family="Helvetica,sans-Serif" font-size="11.00" fill="#000000"> &#160;</text>
</a>
</g>
</g>
<!-- court_appearance_movement&#45;&gt;court_appearance -->
<g id="edge8" class="edge">
<title>court_appearance_movement:w&#45;&gt;court_appearance:e</title>
<path fill="none" stroke="#000000" d="M582.0014,-566.6978C552.2567,-595.5045 562.831,-724.9201 554,-764.9795 526.2672,-890.7812 615.8222,-1046.9795 487,-1046.9795"/>
<polygon fill="#000000" stroke="#000000" points="588.1337,-564.1001 596.9042,-564.2944 591.8168,-562.5398 595.5,-560.9795 595.5,-560.9795 595.5,-560.9795 591.8168,-562.5398 594.0958,-557.6647 588.1337,-564.1001 588.1337,-564.1001"/>
<ellipse fill="none" stroke="#000000" cx="585.1872" cy="-565.3483" rx="3.2" ry="3.2"/>
</g>
<!-- court_appearance_movement&#45;&gt;person_summary -->
<g id="edge9" class="edge">
<title>court_appearance_movement:w&#45;&gt;person_summary:e</title>
<path fill="none" stroke="#000000" d="M581.2777,-535.9676C503.8221,-499.0315 627.8516,-133.6353 554,-65.9795 505.8258,-21.8469 311.4289,-25.6867 260,-65.9795 158.3884,-145.589 319.5836,-347.9795 190.5,-347.9795"/>
<polygon fill="#000000" stroke="#000000" points="587.6736,-537.3221 594.7541,-542.5014 591.5868,-538.1508 595.5,-538.9795 595.5,-538.9795 595.5,-538.9795 591.5868,-538.1508 596.2459,-535.4577 587.6736,-537.3221 587.6736,-537.3221"/>
<ellipse fill="none" stroke="#000000" cx="584.543" cy="-536.6591" rx="3.2" ry="3.2"/>
</g>
<!-- court_appearance_movement_audit -->
<g id="node6" class="node">
<title>court_appearance_movement_audit</title>
<g id="a_node6"><a xlink:href="../../tables/court_appearance_movement_audit.html" xlink:title="court_appearance_movement_audit" target="_top">
<polygon fill="#ffffff" stroke="transparent" points="268,-76.9795 268,-382.9795 546,-382.9795 546,-76.9795 268,-76.9795"/>
<polygon fill="#f5f5f5" stroke="transparent" points="268,-359.9795 268,-382.9795 546,-382.9795 546,-359.9795 268,-359.9795"/>
<polygon fill="none" stroke="#000000" points="268,-359.9795 268,-382.9795 546,-382.9795 546,-359.9795 268,-359.9795"/>
<text text-anchor="start" x="273" y="-368.5795" font-family="Helvetica,sans-Serif" font-weight="bold" font-size="11.00" fill="#000000">court_appearance_movement_audit</text>
<text text-anchor="start" x="511.5219" y="-368.0795" font-family="Helvetica,sans-Serif" font-size="11.00" fill="#000000">[table]</text>
<polygon fill="none" stroke="#000000" points="268,-337.9795 268,-359.9795 546,-359.9795 546,-337.9795 268,-337.9795"/>
<image xlink:href="../../images/primaryKeys.png" width="11px" height="12px" preserveAspectRatio="xMinYMin meet" x="273" y="-354.98"/>
<text text-anchor="start" x="297" y="-345.0795" font-family="Helvetica,sans-Serif" font-size="11.00" fill="#000000">rev_id</text>
<polygon fill="none" stroke="#000000" points="268,-315.9795 268,-337.9795 546,-337.9795 546,-315.9795 268,-315.9795"/>
<text text-anchor="start" x="297" y="-323.0795" font-family="Helvetica,sans-Serif" font-size="11.00" fill="#000000">rev_type</text>
<polygon fill="none" stroke="#000000" points="268,-293.9795 268,-315.9795 546,-315.9795 546,-293.9795 268,-293.9795"/>
<image xlink:href="../../images/primaryKeys.png" width="11px" height="12px" preserveAspectRatio="xMinYMin meet" x="273" y="-310.98"/>
<text text-anchor="start" x="297" y="-301.0795" font-family="Helvetica,sans-Serif" font-size="11.00" fill="#000000">id</text>
<polygon fill="none" stroke="#000000" points="268,-271.9795 268,-293.9795 546,-293.9795 546,-271.9795 268,-271.9795"/>
<text text-anchor="start" x="297" y="-279.0795" font-family="Helvetica,sans-Serif" font-size="11.00" fill="#000000">version</text>
<polygon fill="none" stroke="#000000" points="268,-249.9795 268,-271.9795 546,-271.9795 546,-249.9795 268,-249.9795"/>
<text text-anchor="start" x="297" y="-257.0795" font-family="Helvetica,sans-Serif" font-size="11.00" fill="#000000">court_appearance_id</text>
<polygon fill="none" stroke="#000000" points="268,-227.9795 268,-249.9795 546,-249.9795 546,-227.9795 268,-227.9795"/>
<image xlink:href="../../images/foreignKeys.png" width="11px" height="12px" preserveAspectRatio="xMinYMin meet" x="273" y="-244.98"/>
<text text-anchor="start" x="297" y="-235.0795" font-family="Helvetica,sans-Serif" font-size="11.00" fill="#000000">person_identifier</text>
<polygon fill="none" stroke="#000000" points="268,-205.9795 268,-227.9795 546,-227.9795 546,-205.9795 268,-205.9795"/>
<text text-anchor="start" x="297" y="-213.0795" font-family="Helvetica,sans-Serif" font-size="11.00" fill="#000000">prison_code</text>
<polygon fill="none" stroke="#000000" points="268,-183.9795 268,-205.9795 546,-205.9795 546,-183.9795 268,-183.9795"/>
<text text-anchor="start" x="297" y="-191.0795" font-family="Helvetica,sans-Serif" font-size="11.00" fill="#000000">court_code</text>
<polygon fill="none" stroke="#000000" points="268,-161.9795 268,-183.9795 546,-183.9795 546,-161.9795 268,-161.9795"/>
<text text-anchor="start" x="297" y="-169.0795" font-family="Helvetica,sans-Serif" font-size="11.00" fill="#000000">direction</text>
<polygon fill="none" stroke="#000000" points="268,-139.9795 268,-161.9795 546,-161.9795 546,-139.9795 268,-139.9795"/>
<text text-anchor="start" x="297" y="-147.0795" font-family="Helvetica,sans-Serif" font-size="11.00" fill="#000000">occurred_at</text>
<polygon fill="none" stroke="#000000" points="268,-117.9795 268,-139.9795 546,-139.9795 546,-117.9795 268,-117.9795"/>
<text text-anchor="start" x="297" y="-125.0795" font-family="Helvetica,sans-Serif" font-size="11.00" fill="#000000">comments</text>
<polygon fill="none" stroke="#000000" points="268,-95.9795 268,-117.9795 546,-117.9795 546,-95.9795 268,-95.9795"/>
<text text-anchor="start" x="297" y="-103.0795" font-family="Helvetica,sans-Serif" font-size="11.00" fill="#000000">legacy_id</text>
<polygon fill="#ffffff" stroke="transparent" points="268,-76.9795 268,-95.9795 405,-95.9795 405,-76.9795 268,-76.9795"/>
<polygon fill="none" stroke="#000000" points="268,-76.9795 268,-95.9795 405,-95.9795 405,-76.9795 268,-76.9795"/>
<text text-anchor="start" x="271" y="-83.0795" font-family="Helvetica,sans-Serif" font-size="11.00" fill="#000000">&lt; 1</text>
<polygon fill="#ffffff" stroke="transparent" points="405,-76.9795 405,-95.9795 475,-95.9795 475,-76.9795 405,-76.9795"/>
<polygon fill="none" stroke="#000000" points="405,-76.9795 405,-95.9795 475,-95.9795 475,-76.9795 405,-76.9795"/>
<text text-anchor="start" x="465.8862" y="-83.0795" font-family="Helvetica,sans-Serif" font-size="11.00" fill="#000000"> &#160;</text>
<polygon fill="#ffffff" stroke="transparent" points="475,-76.9795 475,-95.9795 546,-95.9795 546,-76.9795 475,-76.9795"/>
<polygon fill="none" stroke="#000000" points="475,-76.9795 475,-95.9795 546,-95.9795 546,-76.9795 475,-76.9795"/>
<text text-anchor="start" x="536.8862" y="-83.0795" font-family="Helvetica,sans-Serif" font-size="11.00" fill="#000000"> &#160;</text>
</a>
</g>
</g>
<!-- court_appearance_movement_audit&#45;&gt;audit_revision -->
<g id="edge11" class="edge">
<title>court_appearance_movement_audit:w&#45;&gt;audit_revision:e</title>
<path fill="none" stroke="#000000" d="M254.189,-354.1331C208.5398,-392.489 241.055,-631.9795 180.5,-631.9795"/>
<polygon fill="#000000" stroke="#000000" points="260.5048,-351.7764 269.2586,-352.3524 264.2524,-350.378 268,-348.9795 268,-348.9795 268,-348.9795 264.2524,-350.378 266.7414,-345.6067 260.5048,-351.7764 260.5048,-351.7764"/>
<ellipse fill="none" stroke="#000000" cx="257.5067" cy="-352.8952" rx="3.2" ry="3.2"/>
</g>
<!-- court_appearance_movement_audit&#45;&gt;person_summary -->
<g id="edge10" class="edge">
<title>court_appearance_movement_audit:w&#45;&gt;person_summary:e</title>
<path fill="none" stroke="#000000" stroke-dasharray="5,2" d="M253.7744,-241.6739C215.4317,-258.459 244.3688,-347.9795 190.5,-347.9795"/>
<polygon fill="#000000" stroke="#000000" points="260.1397,-240.4684 268.67,-242.5167 264.0699,-239.724 268,-238.9795 268,-238.9795 268,-238.9795 264.0699,-239.724 267.33,-235.4424 260.1397,-240.4684 260.1397,-240.4684"/>
<ellipse fill="none" stroke="#000000" cx="256.9956" cy="-241.0639" rx="3.2" ry="3.2"/>
</g>
</g>
</svg>
