<?xml version="1.0" encoding="UTF-8" standalone="no"?>
<!DOCTYPE svg PUBLIC "-//W3C//DTD SVG 1.1//EN"
 "http://www.w3.org/Graphics/SVG/1.1/DTD/svg11.dtd">
<!-- Generated by graphviz version 2.40.1 (20161225.0304)
 -->
<!-- Title: compactRelationshipsDiagram Pages: 1 -->
<svg width="770pt" height="731pt"
 viewBox="0.00 0.00 770.00 731.20" xmlns="http://www.w3.org/2000/svg" xmlns:xlink="http://www.w3.org/1999/xlink">
<g id="graph0" class="graph" transform="scale(1 1) rotate(0) translate(4 727.2)">
<title>compactRelationshipsDiagram</title>
<polygon fill="#ffffff" stroke="transparent" points="-4,4 -4,-727.2 766,-727.2 766,4 -4,4"/>
<text text-anchor="middle" x="72.4936" y="-7.3" font-family="Helvetica,sans-Serif" font-size="11.00" fill="#000000">Generated by SchemaSpy</text>
<!-- court_appearance -->
<g id="node1" class="node">
<title>court_appearance</title>
<g id="a_node1"><a xlink:href="../../tables/court_appearance.html" xlink:title="court_appearance" target="_top">
<polygon fill="#ffffff" stroke="transparent" points="268,-142.2 268,-379.2 427,-379.2 427,-142.2 268,-142.2"/>
<polygon fill="#f5f5f5" stroke="transparent" points="268.5,-355.7 268.5,-378.7 427.5,-378.7 427.5,-355.7 268.5,-355.7"/>
<polygon fill="none" stroke="#000000" points="268.5,-355.7 268.5,-378.7 427.5,-378.7 427.5,-355.7 268.5,-355.7"/>
<text text-anchor="start" x="273.5" y="-364.3" font-family="Helvetica,sans-Serif" font-weight="bold" font-size="11.00" fill="#000000">court_appearance</text>
<text text-anchor="start" x="393.0219" y="-363.8" font-family="Helvetica,sans-Serif" font-size="11.00" fill="#000000">[table]</text>
<polygon fill="none" stroke="#000000" points="268.5,-333.7 268.5,-355.7 427.5,-355.7 427.5,-333.7 268.5,-333.7"/>
<image xlink:href="../../images/primaryKeys.png" width="11px" height="12px" preserveAspectRatio="xMinYMin meet" x="273.5" y="-350.7"/>
<text text-anchor="start" x="294.5" y="-340.8" font-family="Helvetica,sans-Serif" font-size="11.00" fill="#000000">id</text>
<polygon fill="#ffffff" stroke="transparent" points="268.5,-311.7 268.5,-333.7 427.5,-333.7 427.5,-311.7 268.5,-311.7"/>
<polygon fill="none" stroke="#000000" points="268.5,-311.7 268.5,-333.7 427.5,-333.7 427.5,-311.7 268.5,-311.7"/>
<image xlink:href="../../images/foreignKeys.png" width="11px" height="12px" preserveAspectRatio="xMinYMin meet" x="273.5" y="-328.7"/>
<text text-anchor="start" x="294.5" y="-318.8" font-family="Helvetica,sans-Serif" font-size="11.00" fill="#000000">person_identifier</text>
<polygon fill="#ffffff" stroke="transparent" points="268.5,-289.7 268.5,-311.7 427.5,-311.7 427.5,-289.7 268.5,-289.7"/>
<polygon fill="none" stroke="#000000" points="268.5,-289.7 268.5,-311.7 427.5,-311.7 427.5,-289.7 268.5,-289.7"/>
<text text-anchor="start" x="294.5" y="-296.8" font-family="Helvetica,sans-Serif" font-size="11.00" fill="#000000">prison_code</text>
<polygon fill="#ffffff" stroke="transparent" points="268.5,-267.7 268.5,-289.7 427.5,-289.7 427.5,-267.7 268.5,-267.7"/>
<polygon fill="none" stroke="#000000" points="268.5,-267.7 268.5,-289.7 427.5,-289.7 427.5,-267.7 268.5,-267.7"/>
<image xlink:href="../../images/foreignKeys.png" width="11px" height="12px" preserveAspectRatio="xMinYMin meet" x="273.5" y="-284.7"/>
<text text-anchor="start" x="294.5" y="-274.8" font-family="Helvetica,sans-Serif" font-size="11.00" fill="#000000">reason_id</text>
<polygon fill="#ffffff" stroke="transparent" points="268.5,-245.7 268.5,-267.7 427.5,-267.7 427.5,-245.7 268.5,-245.7"/>
<polygon fill="none" stroke="#000000" points="268.5,-245.7 268.5,-267.7 427.5,-267.7 427.5,-245.7 268.5,-245.7"/>
<image xlink:href="../../images/foreignKeys.png" width="11px" height="12px" preserveAspectRatio="xMinYMin meet" x="273.5" y="-262.7"/>
<text text-anchor="start" x="294.5" y="-252.8" font-family="Helvetica,sans-Serif" font-size="11.00" fill="#000000">status_id</text>
<polygon fill="#ffffff" stroke="transparent" points="268.5,-223.7 268.5,-245.7 427.5,-245.7 427.5,-223.7 268.5,-223.7"/>
<polygon fill="none" stroke="#000000" points="268.5,-223.7 268.5,-245.7 427.5,-245.7 427.5,-223.7 268.5,-223.7"/>
<text text-anchor="start" x="294.5" y="-230.8" font-family="Helvetica,sans-Serif" font-size="11.00" fill="#000000">start</text>
<polygon fill="#ffffff" stroke="transparent" points="268.5,-201.7 268.5,-223.7 427.5,-223.7 427.5,-201.7 268.5,-201.7"/>
<polygon fill="none" stroke="#000000" points="268.5,-201.7 268.5,-223.7 427.5,-223.7 427.5,-201.7 268.5,-201.7"/>
<image xlink:href="../../images/foreignKeys.png" width="11px" height="12px" preserveAspectRatio="xMinYMin meet" x="273.5" y="-218.7"/>
<text text-anchor="start" x="294.5" y="-208.8" font-family="Helvetica,sans-Serif" font-size="11.00" fill="#000000">legacy_id</text>
<polygon fill="#ffffff" stroke="transparent" points="268.5,-179.7 268.5,-201.7 427.5,-201.7 427.5,-179.7 268.5,-179.7"/>
<polygon fill="none" stroke="#000000" points="268.5,-179.7 268.5,-201.7 427.5,-201.7 427.5,-179.7 268.5,-179.7"/>
<text text-anchor="start" x="294.5" y="-186.8" font-family="Helvetica,sans-Serif" font-size="11.00" fill="#000000">external_reference</text>
<polygon fill="none" stroke="#000000" points="268.5,-160.7 268.5,-179.7 427.5,-179.7 427.5,-160.7 268.5,-160.7"/>
<text text-anchor="start" x="271.5" y="-166.8" font-family="Helvetica,sans-Serif" font-size="11.00" fill="#000000">...</text>
<polygon fill="#ffffff" stroke="transparent" points="268.5,-141.7 268.5,-160.7 341.5,-160.7 341.5,-141.7 268.5,-141.7"/>
<polygon fill="none" stroke="#000000" points="268.5,-141.7 268.5,-160.7 341.5,-160.7 341.5,-141.7 268.5,-141.7"/>
<text text-anchor="start" x="271.5" y="-147.8" font-family="Helvetica,sans-Serif" font-size="11.00" fill="#000000">&lt; 3</text>
<polygon fill="#ffffff" stroke="transparent" points="341.5,-141.7 341.5,-160.7 379.5,-160.7 379.5,-141.7 341.5,-141.7"/>
<polygon fill="none" stroke="#000000" points="341.5,-141.7 341.5,-160.7 379.5,-160.7 379.5,-141.7 341.5,-141.7"/>
<text text-anchor="start" x="370.3862" y="-147.8" font-family="Helvetica,sans-Serif" font-size="11.00" fill="#000000"> &#160;</text>
<polygon fill="#ffffff" stroke="transparent" points="379.5,-141.7 379.5,-160.7 427.5,-160.7 427.5,-141.7 379.5,-141.7"/>
<polygon fill="none" stroke="#000000" points="379.5,-141.7 379.5,-160.7 427.5,-160.7 427.5,-141.7 379.5,-141.7"/>
<text text-anchor="start" x="408.9053" y="-147.8" font-family="Helvetica,sans-Serif" font-size="11.00" fill="#000000">1 &gt;</text>
</a>
</g>
</g>
<!-- court_appearance_reason -->
<g id="node3" class="node">
<title>court_appearance_reason</title>
<g id="a_node3"><a xlink:href="../../tables/court_appearance_reason.html" xlink:title="court_appearance_reason" target="_top">
<polygon fill="#ffffff" stroke="transparent" points="8,-186.2 8,-313.2 219,-313.2 219,-186.2 8,-186.2"/>
<polygon fill="#f5f5f5" stroke="transparent" points="8.5,-289.7 8.5,-312.7 219.5,-312.7 219.5,-289.7 8.5,-289.7"/>
<polygon fill="none" stroke="#000000" points="8.5,-289.7 8.5,-312.7 219.5,-312.7 219.5,-289.7 8.5,-289.7"/>
<text text-anchor="start" x="13.5" y="-298.3" font-family="Helvetica,sans-Serif" font-weight="bold" font-size="11.00" fill="#000000">court_appearance_reason</text>
<text text-anchor="start" x="185.0219" y="-297.8" font-family="Helvetica,sans-Serif" font-size="11.00" fill="#000000">[table]</text>
<polygon fill="none" stroke="#000000" points="8.5,-267.7 8.5,-289.7 219.5,-289.7 219.5,-267.7 8.5,-267.7"/>
<image xlink:href="../../images/primaryKeys.png" width="11px" height="12px" preserveAspectRatio="xMinYMin meet" x="13.5" y="-284.7"/>
<text text-anchor="start" x="37.5" y="-274.8" font-family="Helvetica,sans-Serif" font-size="11.00" fill="#000000">id</text>
<polygon fill="#ffffff" stroke="transparent" points="8.5,-245.7 8.5,-267.7 219.5,-267.7 219.5,-245.7 8.5,-245.7"/>
<polygon fill="none" stroke="#000000" points="8.5,-245.7 8.5,-267.7 219.5,-267.7 219.5,-245.7 8.5,-245.7"/>
<text text-anchor="start" x="37.5" y="-252.8" font-family="Helvetica,sans-Serif" font-size="11.00" fill="#000000">code</text>
<polygon fill="#ffffff" stroke="transparent" points="8.5,-223.7 8.5,-245.7 219.5,-245.7 219.5,-223.7 8.5,-223.7"/>
<polygon fill="none" stroke="#000000" points="8.5,-223.7 8.5,-245.7 219.5,-245.7 219.5,-223.7 8.5,-223.7"/>
<text text-anchor="start" x="37.5" y="-230.8" font-family="Helvetica,sans-Serif" font-size="11.00" fill="#000000">sequence_number</text>
<polygon fill="none" stroke="#000000" points="8.5,-204.7 8.5,-223.7 219.5,-223.7 219.5,-204.7 8.5,-204.7"/>
<text text-anchor="start" x="11.5" y="-210.8" font-family="Helvetica,sans-Serif" font-size="11.00" fill="#000000">...</text>
<polygon fill="#ffffff" stroke="transparent" points="8.5,-185.7 8.5,-204.7 103.5,-204.7 103.5,-185.7 8.5,-185.7"/>
<polygon fill="none" stroke="#000000" points="8.5,-185.7 8.5,-204.7 103.5,-204.7 103.5,-185.7 8.5,-185.7"/>
<text text-anchor="start" x="11.5" y="-191.8" font-family="Helvetica,sans-Serif" font-size="11.00" fill="#000000"> &#160;</text>
<polygon fill="#ffffff" stroke="transparent" points="103.5,-185.7 103.5,-204.7 156.5,-204.7 156.5,-185.7 103.5,-185.7"/>
<polygon fill="none" stroke="#000000" points="103.5,-185.7 103.5,-204.7 156.5,-204.7 156.5,-185.7 103.5,-185.7"/>
<text text-anchor="start" x="147.3862" y="-191.8" font-family="Helvetica,sans-Serif" font-size="11.00" fill="#000000"> &#160;</text>
<polygon fill="#ffffff" stroke="transparent" points="156.5,-185.7 156.5,-204.7 219.5,-204.7 219.5,-185.7 156.5,-185.7"/>
<polygon fill="none" stroke="#000000" points="156.5,-185.7 156.5,-204.7 219.5,-204.7 219.5,-185.7 156.5,-185.7"/>
<text text-anchor="start" x="200.9053" y="-191.8" font-family="Helvetica,sans-Serif" font-size="11.00" fill="#000000">2 &gt;</text>
</a>
</g>
</g>
<!-- court_appearance&#45;&gt;court_appearance_reason -->
<g id="edge2" class="edge">
<title>court_appearance:w&#45;&gt;court_appearance_reason:e</title>
<path fill="none" stroke="#000000" d="M253.9909,-278.7C242.6774,-278.7 235.4931,-278.7 219.5,-278.7"/>
<polygon fill="#000000" stroke="#000000" points="260.5,-278.7001 268.5,-282.3 264.5,-278.7 268.5,-278.7 268.5,-278.7 268.5,-278.7 264.5,-278.7 268.5,-275.1 260.5,-278.7001 260.5,-278.7001"/>
<ellipse fill="none" stroke="#000000" cx="257.3" cy="-278.7001" rx="3.2" ry="3.2"/>
</g>
<!-- court_appearance_status -->
<g id="node5" class="node">
<title>court_appearance_status</title>
<g id="a_node5"><a xlink:href="../../tables/court_appearance_status.html" xlink:title="court_appearance_status" target="_top">
<polygon fill="#ffffff" stroke="transparent" points="9.5,-38.2 9.5,-165.2 217.5,-165.2 217.5,-38.2 9.5,-38.2"/>
<polygon fill="#f5f5f5" stroke="transparent" points="9.5,-141.7 9.5,-164.7 217.5,-164.7 217.5,-141.7 9.5,-141.7"/>
<polygon fill="none" stroke="#000000" points="9.5,-141.7 9.5,-164.7 217.5,-164.7 217.5,-141.7 9.5,-141.7"/>
<text text-anchor="start" x="14.5" y="-150.3" font-family="Helvetica,sans-Serif" font-weight="bold" font-size="11.00" fill="#000000">court_appearance_status</text>
<text text-anchor="start" x="183.0219" y="-149.8" font-family="Helvetica,sans-Serif" font-size="11.00" fill="#000000">[table]</text>
<polygon fill="none" stroke="#000000" points="9.5,-119.7 9.5,-141.7 217.5,-141.7 217.5,-119.7 9.5,-119.7"/>
<image xlink:href="../../images/primaryKeys.png" width="11px" height="12px" preserveAspectRatio="xMinYMin meet" x="14.5" y="-136.7"/>
<text text-anchor="start" x="38.5" y="-126.8" font-family="Helvetica,sans-Serif" font-size="11.00" fill="#000000">id</text>
<polygon fill="#ffffff" stroke="transparent" points="9.5,-97.7 9.5,-119.7 217.5,-119.7 217.5,-97.7 9.5,-97.7"/>
<polygon fill="none" stroke="#000000" points="9.5,-97.7 9.5,-119.7 217.5,-119.7 217.5,-97.7 9.5,-97.7"/>
<text text-anchor="start" x="38.5" y="-104.8" font-family="Helvetica,sans-Serif" font-size="11.00" fill="#000000">code</text>
<polygon fill="#ffffff" stroke="transparent" points="9.5,-75.7 9.5,-97.7 217.5,-97.7 217.5,-75.7 9.5,-75.7"/>
<polygon fill="none" stroke="#000000" points="9.5,-75.7 9.5,-97.7 217.5,-97.7 217.5,-75.7 9.5,-75.7"/>
<text text-anchor="start" x="38.5" y="-82.8" font-family="Helvetica,sans-Serif" font-size="11.00" fill="#000000">sequence_number</text>
<polygon fill="none" stroke="#000000" points="9.5,-56.7 9.5,-75.7 217.5,-75.7 217.5,-56.7 9.5,-56.7"/>
<text text-anchor="start" x="12.5" y="-62.8" font-family="Helvetica,sans-Serif" font-size="11.00" fill="#000000">...</text>
<polygon fill="#ffffff" stroke="transparent" points="9.5,-37.7 9.5,-56.7 102.5,-56.7 102.5,-37.7 9.5,-37.7"/>
<polygon fill="none" stroke="#000000" points="9.5,-37.7 9.5,-56.7 102.5,-56.7 102.5,-37.7 9.5,-37.7"/>
<text text-anchor="start" x="12.5" y="-43.8" font-family="Helvetica,sans-Serif" font-size="11.00" fill="#000000"> &#160;</text>
<polygon fill="#ffffff" stroke="transparent" points="102.5,-37.7 102.5,-56.7 155.5,-56.7 155.5,-37.7 102.5,-37.7"/>
<polygon fill="none" stroke="#000000" points="102.5,-37.7 102.5,-56.7 155.5,-56.7 155.5,-37.7 102.5,-37.7"/>
<text text-anchor="start" x="146.3862" y="-43.8" font-family="Helvetica,sans-Serif" font-size="11.00" fill="#000000"> &#160;</text>
<polygon fill="#ffffff" stroke="transparent" points="155.5,-37.7 155.5,-56.7 217.5,-56.7 217.5,-37.7 155.5,-37.7"/>
<polygon fill="none" stroke="#000000" points="155.5,-37.7 155.5,-56.7 217.5,-56.7 217.5,-37.7 155.5,-37.7"/>
<text text-anchor="start" x="198.9053" y="-43.8" font-family="Helvetica,sans-Serif" font-size="11.00" fill="#000000">1 &gt;</text>
</a>
</g>
</g>
<!-- court_appearance&#45;&gt;court_appearance_status -->
<g id="edge3" class="edge">
<title>court_appearance:w&#45;&gt;court_appearance_status:e</title>
<path fill="none" stroke="#000000" d="M254.2844,-253.3298C220.4826,-233.2923 272.0136,-130.7 217.5,-130.7"/>
<polygon fill="#000000" stroke="#000000" points="260.7158,-254.8545 267.6695,-260.2029 264.6079,-255.7772 268.5,-256.7 268.5,-256.7 268.5,-256.7 264.6079,-255.7772 269.3305,-253.1971 260.7158,-254.8545 260.7158,-254.8545"/>
<ellipse fill="none" stroke="#000000" cx="257.6021" cy="-254.1163" rx="3.2" ry="3.2"/>
</g>
<!-- person_summary -->
<g id="node8" class="node">
<title>person_summary</title>
<g id="a_node8"><a xlink:href="../../tables/person_summary.html" xlink:title="person_summary" target="_top">
<polygon fill="#ffffff" stroke="transparent" points="36.5,-344.2 36.5,-427.2 190.5,-427.2 190.5,-344.2 36.5,-344.2"/>
<polygon fill="#f5f5f5" stroke="transparent" points="36.5,-403.7 36.5,-426.7 190.5,-426.7 190.5,-403.7 36.5,-403.7"/>
<polygon fill="none" stroke="#000000" points="36.5,-403.7 36.5,-426.7 190.5,-426.7 190.5,-403.7 36.5,-403.7"/>
<text text-anchor="start" x="41.5" y="-412.3" font-family="Helvetica,sans-Serif" font-weight="bold" font-size="11.00" fill="#000000">person_summary</text>
<text text-anchor="start" x="156.0219" y="-411.8" font-family="Helvetica,sans-Serif" font-size="11.00" fill="#000000">[table]</text>
<polygon fill="none" stroke="#000000" points="36.5,-381.7 36.5,-403.7 190.5,-403.7 190.5,-381.7 36.5,-381.7"/>
<image xlink:href="../../images/primaryKeys.png" width="11px" height="12px" preserveAspectRatio="xMinYMin meet" x="41.5" y="-398.7"/>
<text text-anchor="start" x="65.5" y="-388.8" font-family="Helvetica,sans-Serif" font-size="11.00" fill="#000000">person_identifier</text>
<polygon fill="none" stroke="#000000" points="36.5,-362.7 36.5,-381.7 190.5,-381.7 190.5,-362.7 36.5,-362.7"/>
<text text-anchor="start" x="39.5" y="-368.8" font-family="Helvetica,sans-Serif" font-size="11.00" fill="#000000">...</text>
<polygon fill="#ffffff" stroke="transparent" points="36.5,-343.7 36.5,-362.7 102.5,-362.7 102.5,-343.7 36.5,-343.7"/>
<polygon fill="none" stroke="#000000" points="36.5,-343.7 36.5,-362.7 102.5,-362.7 102.5,-343.7 36.5,-343.7"/>
<text text-anchor="start" x="39.5" y="-349.8" font-family="Helvetica,sans-Serif" font-size="11.00" fill="#000000"> &#160;</text>
<polygon fill="#ffffff" stroke="transparent" points="102.5,-343.7 102.5,-362.7 141.5,-362.7 141.5,-343.7 102.5,-343.7"/>
<polygon fill="none" stroke="#000000" points="102.5,-343.7 102.5,-362.7 141.5,-362.7 141.5,-343.7 102.5,-343.7"/>
<text text-anchor="start" x="132.3862" y="-349.8" font-family="Helvetica,sans-Serif" font-size="11.00" fill="#000000"> &#160;</text>
<polygon fill="#ffffff" stroke="transparent" points="141.5,-343.7 141.5,-362.7 190.5,-362.7 190.5,-343.7 141.5,-343.7"/>
<polygon fill="none" stroke="#000000" points="141.5,-343.7 141.5,-362.7 190.5,-362.7 190.5,-343.7 141.5,-343.7"/>
<text text-anchor="start" x="171.9053" y="-349.8" font-family="Helvetica,sans-Serif" font-size="11.00" fill="#000000">2 &gt;</text>
</a>
</g>
</g>
<!-- court_appearance&#45;&gt;person_summary -->
<g id="edge1" class="edge">
<title>court_appearance:w&#45;&gt;person_summary:e</title>
<path fill="none" stroke="#000000" d="M254.0752,-325.5308C224.6863,-338.6267 231.4393,-392.7 190.5,-392.7"/>
<polygon fill="#000000" stroke="#000000" points="260.6497,-324.2406 269.1933,-326.2326 264.5749,-323.4703 268.5,-322.7 268.5,-322.7 268.5,-322.7 264.5749,-323.4703 267.8067,-319.1674 260.6497,-324.2406 260.6497,-324.2406"/>
<ellipse fill="none" stroke="#000000" cx="257.5096" cy="-324.8568" rx="3.2" ry="3.2"/>
</g>
<!-- court_appearance_audit -->
<g id="node2" class="node">
<title>court_appearance_audit</title>
<g id="a_node2"><a xlink:href="../../tables/court_appearance_audit.html" xlink:title="court_appearance_audit" target="_top">
<polygon fill="#ffffff" stroke="transparent" points="515,-570.2 515,-719.2 715,-719.2 715,-570.2 515,-570.2"/>
<polygon fill="#f5f5f5" stroke="transparent" points="515,-695.7 515,-718.7 715,-718.7 715,-695.7 515,-695.7"/>
<polygon fill="none" stroke="#000000" points="515,-695.7 515,-718.7 715,-718.7 715,-695.7 515,-695.7"/>
<text text-anchor="start" x="520" y="-704.3" font-family="Helvetica,sans-Serif" font-weight="bold" font-size="11.00" fill="#000000">court_appearance_audit</text>
<text text-anchor="start" x="680.5219" y="-703.8" font-family="Helvetica,sans-Serif" font-size="11.00" fill="#000000">[table]</text>
<polygon fill="none" stroke="#000000" points="515,-673.7 515,-695.7 715,-695.7 715,-673.7 515,-673.7"/>
<image xlink:href="../../images/primaryKeys.png" width="11px" height="12px" preserveAspectRatio="xMinYMin meet" x="520" y="-690.7"/>
<text text-anchor="start" x="544" y="-680.8" font-family="Helvetica,sans-Serif" font-size="11.00" fill="#000000">rev_id</text>
<polygon fill="none" stroke="#000000" points="515,-651.7 515,-673.7 715,-673.7 715,-651.7 515,-651.7"/>
<image xlink:href="../../images/primaryKeys.png" width="11px" height="12px" preserveAspectRatio="xMinYMin meet" x="520" y="-668.7"/>
<text text-anchor="start" x="544" y="-658.8" font-family="Helvetica,sans-Serif" font-size="11.00" fill="#000000">id</text>
<polygon fill="none" stroke="#000000" points="515,-629.7 515,-651.7 715,-651.7 715,-629.7 515,-629.7"/>
<image xlink:href="../../images/foreignKeys.png" width="11px" height="12px" preserveAspectRatio="xMinYMin meet" x="520" y="-646.7"/>
<text text-anchor="start" x="544" y="-636.8" font-family="Helvetica,sans-Serif" font-size="11.00" fill="#000000">person_identifier</text>
<polygon fill="none" stroke="#000000" points="515,-607.7 515,-629.7 715,-629.7 715,-607.7 515,-607.7"/>
<image xlink:href="../../images/foreignKeys.png" width="11px" height="12px" preserveAspectRatio="xMinYMin meet" x="520" y="-624.7"/>
<text text-anchor="start" x="544" y="-614.8" font-family="Helvetica,sans-Serif" font-size="11.00" fill="#000000">legacy_id</text>
<polygon fill="none" stroke="#000000" points="515,-588.7 515,-607.7 715,-607.7 715,-588.7 515,-588.7"/>
<text text-anchor="start" x="518" y="-594.8" font-family="Helvetica,sans-Serif" font-size="11.00" fill="#000000">...</text>
<polygon fill="#ffffff" stroke="transparent" points="515,-569.7 515,-588.7 613,-588.7 613,-569.7 515,-569.7"/>
<polygon fill="none" stroke="#000000" points="515,-569.7 515,-588.7 613,-588.7 613,-569.7 515,-569.7"/>
<text text-anchor="start" x="518" y="-575.8" font-family="Helvetica,sans-Serif" font-size="11.00" fill="#000000">&lt; 1</text>
<polygon fill="#ffffff" stroke="transparent" points="613,-569.7 613,-588.7 664,-588.7 664,-569.7 613,-569.7"/>
<polygon fill="none" stroke="#000000" points="613,-569.7 613,-588.7 664,-588.7 664,-569.7 613,-569.7"/>
<text text-anchor="start" x="654.8862" y="-575.8" font-family="Helvetica,sans-Serif" font-size="11.00" fill="#000000"> &#160;</text>
<polygon fill="#ffffff" stroke="transparent" points="664,-569.7 664,-588.7 715,-588.7 715,-569.7 664,-569.7"/>
<polygon fill="none" stroke="#000000" points="664,-569.7 664,-588.7 715,-588.7 715,-569.7 664,-569.7"/>
<text text-anchor="start" x="705.8862" y="-575.8" font-family="Helvetica,sans-Serif" font-size="11.00" fill="#000000"> &#160;</text>
</a>
</g>
</g>
<!-- audit_revision -->
<g id="node7" class="node">
<title>audit_revision</title>
<g id="a_node7"><a xlink:href="../../tables/audit_revision.html" xlink:title="audit_revision" target="_top">
<polygon fill="#ffffff" stroke="transparent" points="280.5,-551.2 280.5,-634.2 414.5,-634.2 414.5,-551.2 280.5,-551.2"/>
<polygon fill="#f5f5f5" stroke="transparent" points="280.5,-610.7 280.5,-633.7 414.5,-633.7 414.5,-610.7 280.5,-610.7"/>
<polygon fill="none" stroke="#000000" points="280.5,-610.7 280.5,-633.7 414.5,-633.7 414.5,-610.7 280.5,-610.7"/>
<text text-anchor="start" x="285.5" y="-619.3" font-family="Helvetica,sans-Serif" font-weight="bold" font-size="11.00" fill="#000000">audit_revision</text>
<text text-anchor="start" x="380.0219" y="-618.8" font-family="Helvetica,sans-Serif" font-size="11.00" fill="#000000">[table]</text>
<polygon fill="none" stroke="#000000" points="280.5,-588.7 280.5,-610.7 414.5,-610.7 414.5,-588.7 280.5,-588.7"/>
<image xlink:href="../../images/primaryKeys.png" width="11px" height="12px" preserveAspectRatio="xMinYMin meet" x="285.5" y="-605.7"/>
<text text-anchor="start" x="300.5" y="-595.8" font-family="Helvetica,sans-Serif" font-size="11.00" fill="#000000">id</text>
<polygon fill="none" stroke="#000000" points="280.5,-569.7 280.5,-588.7 414.5,-588.7 414.5,-569.7 280.5,-569.7"/>
<text text-anchor="start" x="283.5" y="-575.8" font-family="Helvetica,sans-Serif" font-size="11.00" fill="#000000">...</text>
<polygon fill="#ffffff" stroke="transparent" points="280.5,-550.7 280.5,-569.7 336.5,-569.7 336.5,-550.7 280.5,-550.7"/>
<polygon fill="none" stroke="#000000" points="280.5,-550.7 280.5,-569.7 336.5,-569.7 336.5,-550.7 280.5,-550.7"/>
<text text-anchor="start" x="283.5" y="-556.8" font-family="Helvetica,sans-Serif" font-size="11.00" fill="#000000"> &#160;</text>
<polygon fill="#ffffff" stroke="transparent" points="336.5,-550.7 336.5,-569.7 370.5,-569.7 370.5,-550.7 336.5,-550.7"/>
<polygon fill="none" stroke="#000000" points="336.5,-550.7 336.5,-569.7 370.5,-569.7 370.5,-550.7 336.5,-550.7"/>
<text text-anchor="start" x="361.3862" y="-556.8" font-family="Helvetica,sans-Serif" font-size="11.00" fill="#000000"> &#160;</text>
<polygon fill="#ffffff" stroke="transparent" points="370.5,-550.7 370.5,-569.7 414.5,-569.7 414.5,-550.7 370.5,-550.7"/>
<polygon fill="none" stroke="#000000" points="370.5,-550.7 370.5,-569.7 414.5,-569.7 414.5,-550.7 370.5,-550.7"/>
<text text-anchor="start" x="395.9053" y="-556.8" font-family="Helvetica,sans-Serif" font-size="11.00" fill="#000000">2 &gt;</text>
</a>
</g>
</g>
<!-- court_appearance_audit&#45;&gt;audit_revision -->
<g id="edge4" class="edge">
<title>court_appearance_audit:w&#45;&gt;audit_revision:e</title>
<path fill="none" stroke="#000000" d="M500.6696,-682.6827C458.8972,-669.8108 467.6301,-599.7 414.5,-599.7"/>
<polygon fill="#000000" stroke="#000000" points="507.0781,-683.5848 514.4982,-688.2649 511.0391,-684.1424 515,-684.7 515,-684.7 515,-684.7 511.0391,-684.1424 515.5018,-681.1351 507.0781,-683.5848 507.0781,-683.5848"/>
<ellipse fill="none" stroke="#000000" cx="503.9093" cy="-683.1387" rx="3.2" ry="3.2"/>
</g>
<!-- court_appearance_movement -->
<g id="node4" class="node">
<title>court_appearance_movement</title>
<g id="a_node4"><a xlink:href="../../tables/court_appearance_movement.html" xlink:title="court_appearance_movement" target="_top">
<polygon fill="#ffffff" stroke="transparent" points="496.5,-230.2 496.5,-401.2 733.5,-401.2 733.5,-230.2 496.5,-230.2"/>
<polygon fill="#f5f5f5" stroke="transparent" points="497,-377.7 497,-400.7 734,-400.7 734,-377.7 497,-377.7"/>
<polygon fill="none" stroke="#000000" points="497,-377.7 497,-400.7 734,-400.7 734,-377.7 497,-377.7"/>
<text text-anchor="start" x="502" y="-386.3" font-family="Helvetica,sans-Serif" font-weight="bold" font-size="11.00" fill="#000000">court_appearance_movement</text>
<text text-anchor="start" x="699.5219" y="-385.8" font-family="Helvetica,sans-Serif" font-size="11.00" fill="#000000">[table]</text>
<polygon fill="none" stroke="#000000" points="497,-355.7 497,-377.7 734,-377.7 734,-355.7 497,-355.7"/>
<image xlink:href="../../images/primaryKeys.png" width="11px" height="12px" preserveAspectRatio="xMinYMin meet" x="502" y="-372.7"/>
<text text-anchor="start" x="526" y="-362.8" font-family="Helvetica,sans-Serif" font-size="11.00" fill="#000000">id</text>
<polygon fill="#ffffff" stroke="transparent" points="497,-333.7 497,-355.7 734,-355.7 734,-333.7 497,-333.7"/>
<polygon fill="none" stroke="#000000" points="497,-333.7 497,-355.7 734,-355.7 734,-333.7 497,-333.7"/>
<image xlink:href="../../images/foreignKeys.png" width="11px" height="12px" preserveAspectRatio="xMinYMin meet" x="502" y="-350.7"/>
<text text-anchor="start" x="526" y="-340.8" font-family="Helvetica,sans-Serif" font-size="11.00" fill="#000000">court_appearance_id</text>
<polygon fill="#ffffff" stroke="transparent" points="497,-311.7 497,-333.7 734,-333.7 734,-311.7 497,-311.7"/>
<polygon fill="none" stroke="#000000" points="497,-311.7 497,-333.7 734,-333.7 734,-311.7 497,-311.7"/>
<image xlink:href="../../images/foreignKeys.png" width="11px" height="12px" preserveAspectRatio="xMinYMin meet" x="502" y="-328.7"/>
<text text-anchor="start" x="526" y="-318.8" font-family="Helvetica,sans-Serif" font-size="11.00" fill="#000000">person_identifier</text>
<polygon fill="none" stroke="#000000" points="497,-289.7 497,-311.7 734,-311.7 734,-289.7 497,-289.7"/>
<image xlink:href="../../images/foreignKeys.png" width="11px" height="12px" preserveAspectRatio="xMinYMin meet" x="502" y="-306.7"/>
<text text-anchor="start" x="526" y="-296.8" font-family="Helvetica,sans-Serif" font-size="11.00" fill="#000000">reason_id</text>
<polygon fill="#ffffff" stroke="transparent" points="497,-267.7 497,-289.7 734,-289.7 734,-267.7 497,-267.7"/>
<polygon fill="none" stroke="#000000" points="497,-267.7 497,-289.7 734,-289.7 734,-267.7 497,-267.7"/>
<text text-anchor="start" x="526" y="-274.8" font-family="Helvetica,sans-Serif" font-size="11.00" fill="#000000">legacy_id</text>
<polygon fill="none" stroke="#000000" points="497,-248.7 497,-267.7 734,-267.7 734,-248.7 497,-248.7"/>
<text text-anchor="start" x="500" y="-254.8" font-family="Helvetica,sans-Serif" font-size="11.00" fill="#000000">...</text>
<polygon fill="#ffffff" stroke="transparent" points="497,-229.7 497,-248.7 614,-248.7 614,-229.7 497,-229.7"/>
<polygon fill="none" stroke="#000000" points="497,-229.7 497,-248.7 614,-248.7 614,-229.7 497,-229.7"/>
<text text-anchor="start" x="500" y="-235.8" font-family="Helvetica,sans-Serif" font-size="11.00" fill="#000000">&lt; 3</text>
<polygon fill="#ffffff" stroke="transparent" points="614,-229.7 614,-248.7 674,-248.7 674,-229.7 614,-229.7"/>
<polygon fill="none" stroke="#000000" points="614,-229.7 614,-248.7 674,-248.7 674,-229.7 614,-229.7"/>
<text text-anchor="start" x="664.8862" y="-235.8" font-family="Helvetica,sans-Serif" font-size="11.00" fill="#000000"> &#160;</text>
<polygon fill="#ffffff" stroke="transparent" points="674,-229.7 674,-248.7 734,-248.7 734,-229.7 674,-229.7"/>
<polygon fill="none" stroke="#000000" points="674,-229.7 674,-248.7 734,-248.7 734,-229.7 674,-229.7"/>
<text text-anchor="start" x="724.8862" y="-235.8" font-family="Helvetica,sans-Serif" font-size="11.00" fill="#000000"> &#160;</text>
</a>
</g>
</g>
<!-- court_appearance_movement&#45;&gt;court_appearance -->
<g id="edge5" class="edge">
<title>court_appearance_movement:w&#45;&gt;court_appearance:e</title>
<path fill="none" stroke="#000000" d="M482.3241,-344.7C462.5879,-344.7 452.8385,-344.7 427.5,-344.7"/>
<polygon fill="#000000" stroke="#000000" points="489,-344.7001 497,-348.3 493,-344.7 497,-344.7 497,-344.7 497,-344.7 493,-344.7 497,-341.1 489,-344.7001 489,-344.7001"/>
<ellipse fill="none" stroke="#000000" cx="485.8" cy="-344.7001" rx="3.2" ry="3.2"/>
</g>
<!-- court_appearance_movement&#45;&gt;court_appearance_reason -->
<g id="edge7" class="edge">
<title>court_appearance_movement:w&#45;&gt;court_appearance_reason:e</title>
<path fill="none" stroke="#000000" d="M482.4415,-298.9426C428.0127,-283.7584 495.9835,-174.2852 435,-131.7 371.2313,-87.1699 321.8716,-84.5694 260,-131.7 206.0915,-172.7648 287.2676,-278.7 219.5,-278.7"/>
<polygon fill="#000000" stroke="#000000" points="489.0577,-299.7412 496.5685,-304.2741 493.0288,-300.2206 497,-300.7 497,-300.7 497,-300.7 493.0288,-300.2206 497.4315,-297.1259 489.0577,-299.7412 489.0577,-299.7412"/>
<ellipse fill="none" stroke="#000000" cx="485.8807" cy="-299.3577" rx="3.2" ry="3.2"/>
</g>
<!-- court_appearance_movement&#45;&gt;person_summary -->
<g id="edge6" class="edge">
<title>court_appearance_movement:w&#45;&gt;person_summary:e</title>
<path fill="none" stroke="#000000" d="M482.6027,-325.6109C459.8501,-336.5932 466.7163,-375.6046 435,-389.7 335.6908,-433.835 299.1748,-392.7 190.5,-392.7"/>
<polygon fill="#000000" stroke="#000000" points="489.1587,-324.2854 497.7134,-326.2286 493.0793,-323.4927 497,-322.7 497,-322.7 497,-322.7 493.0793,-323.4927 496.2866,-319.1714 489.1587,-324.2854 489.1587,-324.2854"/>
<ellipse fill="none" stroke="#000000" cx="486.0221" cy="-324.9196" rx="3.2" ry="3.2"/>
</g>
<!-- court_appearance_movement_audit -->
<g id="node6" class="node">
<title>court_appearance_movement_audit</title>
<g id="a_node6"><a xlink:href="../../tables/court_appearance_movement_audit.html" xlink:title="court_appearance_movement_audit" target="_top">
<polygon fill="#ffffff" stroke="transparent" points="476,-422.2 476,-549.2 754,-549.2 754,-422.2 476,-422.2"/>
<polygon fill="#f5f5f5" stroke="transparent" points="476,-525.7 476,-548.7 754,-548.7 754,-525.7 476,-525.7"/>
<polygon fill="none" stroke="#000000" points="476,-525.7 476,-548.7 754,-548.7 754,-525.7 476,-525.7"/>
<text text-anchor="start" x="481" y="-534.3" font-family="Helvetica,sans-Serif" font-weight="bold" font-size="11.00" fill="#000000">court_appearance_movement_audit</text>
<text text-anchor="start" x="719.5219" y="-533.8" font-family="Helvetica,sans-Serif" font-size="11.00" fill="#000000">[table]</text>
<polygon fill="none" stroke="#000000" points="476,-503.7 476,-525.7 754,-525.7 754,-503.7 476,-503.7"/>
<image xlink:href="../../images/primaryKeys.png" width="11px" height="12px" preserveAspectRatio="xMinYMin meet" x="481" y="-520.7"/>
<text text-anchor="start" x="505" y="-510.8" font-family="Helvetica,sans-Serif" font-size="11.00" fill="#000000">rev_id</text>
<polygon fill="none" stroke="#000000" points="476,-481.7 476,-503.7 754,-503.7 754,-481.7 476,-481.7"/>
<image xlink:href="../../images/primaryKeys.png" width="11px" height="12px" preserveAspectRatio="xMinYMin meet" x="481" y="-498.7"/>
<text text-anchor="start" x="505" y="-488.8" font-family="Helvetica,sans-Serif" font-size="11.00" fill="#000000">id</text>
<polygon fill="none" stroke="#000000" points="476,-459.7 476,-481.7 754,-481.7 754,-459.7 476,-459.7"/>
<image xlink:href="../../images/foreignKeys.png" width="11px" height="12px" preserveAspectRatio="xMinYMin meet" x="481" y="-476.7"/>
<text text-anchor="start" x="505" y="-466.8" font-family="Helvetica,sans-Serif" font-size="11.00" fill="#000000">person_identifier</text>
<polygon fill="none" stroke="#000000" points="476,-440.7 476,-459.7 754,-459.7 754,-440.7 476,-440.7"/>
<text text-anchor="start" x="479" y="-446.8" font-family="Helvetica,sans-Serif" font-size="11.00" fill="#000000">...</text>
<polygon fill="#ffffff" stroke="transparent" points="476,-421.7 476,-440.7 613,-440.7 613,-421.7 476,-421.7"/>
<polygon fill="none" stroke="#000000" points="476,-421.7 476,-440.7 613,-440.7 613,-421.7 476,-421.7"/>
<text text-anchor="start" x="479" y="-427.8" font-family="Helvetica,sans-Serif" font-size="11.00" fill="#000000">&lt; 1</text>
<polygon fill="#ffffff" stroke="transparent" points="613,-421.7 613,-440.7 683,-440.7 683,-421.7 613,-421.7"/>
<polygon fill="none" stroke="#000000" points="613,-421.7 613,-440.7 683,-440.7 683,-421.7 613,-421.7"/>
<text text-anchor="start" x="673.8862" y="-427.8" font-family="Helvetica,sans-Serif" font-size="11.00" fill="#000000"> &#160;</text>
<polygon fill="#ffffff" stroke="transparent" points="683,-421.7 683,-440.7 754,-440.7 754,-421.7 683,-421.7"/>
<polygon fill="none" stroke="#000000" points="683,-421.7 683,-440.7 754,-440.7 754,-421.7 683,-421.7"/>
<text text-anchor="start" x="744.8862" y="-427.8" font-family="Helvetica,sans-Serif" font-size="11.00" fill="#000000"> &#160;</text>
</a>
</g>
</g>
<!-- court_appearance_movement_audit&#45;&gt;audit_revision -->
<g id="edge8" class="edge">
<title>court_appearance_movement_audit:w&#45;&gt;audit_revision:e</title>
<path fill="none" stroke="#000000" d="M461.8823,-518.3523C436.0857,-534.6219 455.3004,-599.7 414.5,-599.7"/>
<polygon fill="#000000" stroke="#000000" points="468.255,-516.7037 476.9017,-518.1853 472.1275,-515.7019 476,-514.7 476,-514.7 476,-514.7 472.1275,-515.7019 475.0983,-511.2147 468.255,-516.7037 468.255,-516.7037"/>
<ellipse fill="none" stroke="#000000" cx="465.157" cy="-517.5052" rx="3.2" ry="3.2"/>
</g>
</g>
</svg>
