<?xml version="1.0" encoding="UTF-8" standalone="no"?>
<!DOCTYPE svg PUBLIC "-//W3C//DTD SVG 1.1//EN"
 "http://www.w3.org/Graphics/SVG/1.1/DTD/svg11.dtd">
<!-- Generated by graphviz version 2.40.1 (20161225.0304)
 -->
<!-- Title: compactImpliedRelationshipsDiagram Pages: 1 -->
<svg width="848pt" height="686pt"
 viewBox="0.00 0.00 848.00 685.59" xmlns="http://www.w3.org/2000/svg" xmlns:xlink="http://www.w3.org/1999/xlink">
<g id="graph0" class="graph" transform="scale(1 1) rotate(0) translate(4 681.5891)">
<title>compactImpliedRelationshipsDiagram</title>
<polygon fill="#ffffff" stroke="transparent" points="-4,4 -4,-681.5891 844,-681.5891 844,4 -4,4"/>
<text text-anchor="middle" x="72.4936" y="-7.3" font-family="Helvetica,sans-Serif" font-size="11.00" fill="#000000">Generated by SchemaSpy</text>
<!-- court_appearance -->
<g id="node1" class="node">
<title>court_appearance</title>
<g id="a_node1"><a xlink:href="../../tables/court_appearance.html" xlink:title="court_appearance" target="_top">
<polygon fill="#ffffff" stroke="transparent" points="327.5,-415.5891 327.5,-630.5891 486.5,-630.5891 486.5,-415.5891 327.5,-415.5891"/>
<polygon fill="#f5f5f5" stroke="transparent" points="328,-607.0891 328,-630.0891 487,-630.0891 487,-607.0891 328,-607.0891"/>
<polygon fill="none" stroke="#000000" points="328,-607.0891 328,-630.0891 487,-630.0891 487,-607.0891 328,-607.0891"/>
<text text-anchor="start" x="333" y="-615.6891" font-family="Helvetica,sans-Serif" font-weight="bold" font-size="11.00" fill="#000000">court_appearance</text>
<text text-anchor="start" x="452.5219" y="-615.1891" font-family="Helvetica,sans-Serif" font-size="11.00" fill="#000000">[table]</text>
<polygon fill="none" stroke="#000000" points="328,-585.0891 328,-607.0891 487,-607.0891 487,-585.0891 328,-585.0891"/>
<image xlink:href="../../images/primaryKeys.png" width="11px" height="12px" preserveAspectRatio="xMinYMin meet" x="333" y="-602.089"/>
<text text-anchor="start" x="357" y="-592.1891" font-family="Helvetica,sans-Serif" font-size="11.00" fill="#000000">id</text>
<polygon fill="#ffffff" stroke="transparent" points="328,-563.0891 328,-585.0891 487,-585.0891 487,-563.0891 328,-563.0891"/>
<polygon fill="none" stroke="#000000" points="328,-563.0891 328,-585.0891 487,-585.0891 487,-563.0891 328,-563.0891"/>
<image xlink:href="../../images/foreignKeys.png" width="11px" height="12px" preserveAspectRatio="xMinYMin meet" x="333" y="-580.089"/>
<text text-anchor="start" x="357" y="-570.1891" font-family="Helvetica,sans-Serif" font-size="11.00" fill="#000000">person_identifier</text>
<polygon fill="#ffffff" stroke="transparent" points="328,-541.0891 328,-563.0891 487,-563.0891 487,-541.0891 328,-541.0891"/>
<polygon fill="none" stroke="#000000" points="328,-541.0891 328,-563.0891 487,-563.0891 487,-541.0891 328,-541.0891"/>
<text text-anchor="start" x="357" y="-548.1891" font-family="Helvetica,sans-Serif" font-size="11.00" fill="#000000">prison_code</text>
<polygon fill="#ffffff" stroke="transparent" points="328,-519.0891 328,-541.0891 487,-541.0891 487,-519.0891 328,-519.0891"/>
<polygon fill="none" stroke="#000000" points="328,-519.0891 328,-541.0891 487,-541.0891 487,-519.0891 328,-519.0891"/>
<image xlink:href="../../images/foreignKeys.png" width="11px" height="12px" preserveAspectRatio="xMinYMin meet" x="333" y="-536.089"/>
<text text-anchor="start" x="357" y="-526.1891" font-family="Helvetica,sans-Serif" font-size="11.00" fill="#000000">reason_id</text>
<polygon fill="#ffffff" stroke="transparent" points="328,-497.0891 328,-519.0891 487,-519.0891 487,-497.0891 328,-497.0891"/>
<polygon fill="none" stroke="#000000" points="328,-497.0891 328,-519.0891 487,-519.0891 487,-497.0891 328,-497.0891"/>
<image xlink:href="../../images/foreignKeys.png" width="11px" height="12px" preserveAspectRatio="xMinYMin meet" x="333" y="-514.089"/>
<text text-anchor="start" x="357" y="-504.1891" font-family="Helvetica,sans-Serif" font-size="11.00" fill="#000000">status_id</text>
<polygon fill="#ffffff" stroke="transparent" points="328,-475.0891 328,-497.0891 487,-497.0891 487,-475.0891 328,-475.0891"/>
<polygon fill="none" stroke="#000000" points="328,-475.0891 328,-497.0891 487,-497.0891 487,-475.0891 328,-475.0891"/>
<text text-anchor="start" x="357" y="-482.1891" font-family="Helvetica,sans-Serif" font-size="11.00" fill="#000000">start</text>
<polygon fill="#ffffff" stroke="transparent" points="328,-453.0891 328,-475.0891 487,-475.0891 487,-453.0891 328,-453.0891"/>
<polygon fill="none" stroke="#000000" points="328,-453.0891 328,-475.0891 487,-475.0891 487,-453.0891 328,-453.0891"/>
<image xlink:href="../../images/foreignKeys.png" width="11px" height="12px" preserveAspectRatio="xMinYMin meet" x="333" y="-470.089"/>
<text text-anchor="start" x="357" y="-460.1891" font-family="Helvetica,sans-Serif" font-size="11.00" fill="#000000">legacy_id</text>
<polygon fill="none" stroke="#000000" points="328,-434.0891 328,-453.0891 487,-453.0891 487,-434.0891 328,-434.0891"/>
<text text-anchor="start" x="331" y="-440.1891" font-family="Helvetica,sans-Serif" font-size="11.00" fill="#000000">...</text>
<polygon fill="#ffffff" stroke="transparent" points="328,-415.0891 328,-434.0891 401,-434.0891 401,-415.0891 328,-415.0891"/>
<polygon fill="none" stroke="#000000" points="328,-415.0891 328,-434.0891 401,-434.0891 401,-415.0891 328,-415.0891"/>
<text text-anchor="start" x="331" y="-421.1891" font-family="Helvetica,sans-Serif" font-size="11.00" fill="#000000">&lt; 3</text>
<polygon fill="#ffffff" stroke="transparent" points="401,-415.0891 401,-434.0891 439,-434.0891 439,-415.0891 401,-415.0891"/>
<polygon fill="none" stroke="#000000" points="401,-415.0891 401,-434.0891 439,-434.0891 439,-415.0891 401,-415.0891"/>
<text text-anchor="start" x="429.8862" y="-421.1891" font-family="Helvetica,sans-Serif" font-size="11.00" fill="#000000"> &#160;</text>
<polygon fill="#ffffff" stroke="transparent" points="439,-415.0891 439,-434.0891 487,-434.0891 487,-415.0891 439,-415.0891"/>
<polygon fill="none" stroke="#000000" points="439,-415.0891 439,-434.0891 487,-434.0891 487,-415.0891 439,-415.0891"/>
<text text-anchor="start" x="468.4053" y="-421.1891" font-family="Helvetica,sans-Serif" font-size="11.00" fill="#000000">1 &gt;</text>
</a>
</g>
</g>
<!-- court_appearance_reason -->
<g id="node2" class="node">
<title>court_appearance_reason</title>
<g id="a_node2"><a xlink:href="../../tables/court_appearance_reason.html" xlink:title="court_appearance_reason" target="_top">
<polygon fill="#ffffff" stroke="transparent" points="8,-546.5891 8,-673.5891 219,-673.5891 219,-546.5891 8,-546.5891"/>
<polygon fill="#f5f5f5" stroke="transparent" points="8.5,-650.0891 8.5,-673.0891 219.5,-673.0891 219.5,-650.0891 8.5,-650.0891"/>
<polygon fill="none" stroke="#000000" points="8.5,-650.0891 8.5,-673.0891 219.5,-673.0891 219.5,-650.0891 8.5,-650.0891"/>
<text text-anchor="start" x="13.5" y="-658.6891" font-family="Helvetica,sans-Serif" font-weight="bold" font-size="11.00" fill="#000000">court_appearance_reason</text>
<text text-anchor="start" x="185.0219" y="-658.1891" font-family="Helvetica,sans-Serif" font-size="11.00" fill="#000000">[table]</text>
<polygon fill="none" stroke="#000000" points="8.5,-628.0891 8.5,-650.0891 219.5,-650.0891 219.5,-628.0891 8.5,-628.0891"/>
<image xlink:href="../../images/primaryKeys.png" width="11px" height="12px" preserveAspectRatio="xMinYMin meet" x="13.5" y="-645.089"/>
<text text-anchor="start" x="37.5" y="-635.1891" font-family="Helvetica,sans-Serif" font-size="11.00" fill="#000000">id</text>
<polygon fill="#ffffff" stroke="transparent" points="8.5,-606.0891 8.5,-628.0891 219.5,-628.0891 219.5,-606.0891 8.5,-606.0891"/>
<polygon fill="none" stroke="#000000" points="8.5,-606.0891 8.5,-628.0891 219.5,-628.0891 219.5,-606.0891 8.5,-606.0891"/>
<text text-anchor="start" x="37.5" y="-613.1891" font-family="Helvetica,sans-Serif" font-size="11.00" fill="#000000">code</text>
<polygon fill="#ffffff" stroke="transparent" points="8.5,-584.0891 8.5,-606.0891 219.5,-606.0891 219.5,-584.0891 8.5,-584.0891"/>
<polygon fill="none" stroke="#000000" points="8.5,-584.0891 8.5,-606.0891 219.5,-606.0891 219.5,-584.0891 8.5,-584.0891"/>
<text text-anchor="start" x="37.5" y="-591.1891" font-family="Helvetica,sans-Serif" font-size="11.00" fill="#000000">sequence_number</text>
<polygon fill="none" stroke="#000000" points="8.5,-565.0891 8.5,-584.0891 219.5,-584.0891 219.5,-565.0891 8.5,-565.0891"/>
<text text-anchor="start" x="11.5" y="-571.1891" font-family="Helvetica,sans-Serif" font-size="11.00" fill="#000000">...</text>
<polygon fill="#ffffff" stroke="transparent" points="8.5,-546.0891 8.5,-565.0891 103.5,-565.0891 103.5,-546.0891 8.5,-546.0891"/>
<polygon fill="none" stroke="#000000" points="8.5,-546.0891 8.5,-565.0891 103.5,-565.0891 103.5,-546.0891 8.5,-546.0891"/>
<text text-anchor="start" x="11.5" y="-552.1891" font-family="Helvetica,sans-Serif" font-size="11.00" fill="#000000"> &#160;</text>
<polygon fill="#ffffff" stroke="transparent" points="103.5,-546.0891 103.5,-565.0891 156.5,-565.0891 156.5,-546.0891 103.5,-546.0891"/>
<polygon fill="none" stroke="#000000" points="103.5,-546.0891 103.5,-565.0891 156.5,-565.0891 156.5,-546.0891 103.5,-546.0891"/>
<text text-anchor="start" x="147.3862" y="-552.1891" font-family="Helvetica,sans-Serif" font-size="11.00" fill="#000000"> &#160;</text>
<polygon fill="#ffffff" stroke="transparent" points="156.5,-546.0891 156.5,-565.0891 219.5,-565.0891 219.5,-546.0891 156.5,-546.0891"/>
<polygon fill="none" stroke="#000000" points="156.5,-546.0891 156.5,-565.0891 219.5,-565.0891 219.5,-546.0891 156.5,-546.0891"/>
<text text-anchor="start" x="200.9053" y="-552.1891" font-family="Helvetica,sans-Serif" font-size="11.00" fill="#000000">1 &gt;</text>
</a>
</g>
</g>
<!-- court_appearance&#45;&gt;court_appearance_reason -->
<g id="edge3" class="edge">
<title>court_appearance:w&#45;&gt;court_appearance_reason:e</title>
<path fill="none" stroke="#000000" d="M313.6556,-531.981C263.4642,-546.4551 282.5137,-639.0891 219.5,-639.0891"/>
<polygon fill="#000000" stroke="#000000" points="320.0687,-531.1352 328.4708,-533.6582 324.0343,-530.6122 328,-530.0891 328,-530.0891 328,-530.0891 324.0343,-530.6122 327.5292,-526.52 320.0687,-531.1352 320.0687,-531.1352"/>
<ellipse fill="none" stroke="#000000" cx="316.8962" cy="-531.5537" rx="3.2" ry="3.2"/>
</g>
<!-- court_appearance_status -->
<g id="node5" class="node">
<title>court_appearance_status</title>
<g id="a_node5"><a xlink:href="../../tables/court_appearance_status.html" xlink:title="court_appearance_status" target="_top">
<polygon fill="#ffffff" stroke="transparent" points="9.5,-398.5891 9.5,-525.5891 217.5,-525.5891 217.5,-398.5891 9.5,-398.5891"/>
<polygon fill="#f5f5f5" stroke="transparent" points="9.5,-502.0891 9.5,-525.0891 217.5,-525.0891 217.5,-502.0891 9.5,-502.0891"/>
<polygon fill="none" stroke="#000000" points="9.5,-502.0891 9.5,-525.0891 217.5,-525.0891 217.5,-502.0891 9.5,-502.0891"/>
<text text-anchor="start" x="14.5" y="-510.6891" font-family="Helvetica,sans-Serif" font-weight="bold" font-size="11.00" fill="#000000">court_appearance_status</text>
<text text-anchor="start" x="183.0219" y="-510.1891" font-family="Helvetica,sans-Serif" font-size="11.00" fill="#000000">[table]</text>
<polygon fill="none" stroke="#000000" points="9.5,-480.0891 9.5,-502.0891 217.5,-502.0891 217.5,-480.0891 9.5,-480.0891"/>
<image xlink:href="../../images/primaryKeys.png" width="11px" height="12px" preserveAspectRatio="xMinYMin meet" x="14.5" y="-497.089"/>
<text text-anchor="start" x="38.5" y="-487.1891" font-family="Helvetica,sans-Serif" font-size="11.00" fill="#000000">id</text>
<polygon fill="#ffffff" stroke="transparent" points="9.5,-458.0891 9.5,-480.0891 217.5,-480.0891 217.5,-458.0891 9.5,-458.0891"/>
<polygon fill="none" stroke="#000000" points="9.5,-458.0891 9.5,-480.0891 217.5,-480.0891 217.5,-458.0891 9.5,-458.0891"/>
<text text-anchor="start" x="38.5" y="-465.1891" font-family="Helvetica,sans-Serif" font-size="11.00" fill="#000000">code</text>
<polygon fill="#ffffff" stroke="transparent" points="9.5,-436.0891 9.5,-458.0891 217.5,-458.0891 217.5,-436.0891 9.5,-436.0891"/>
<polygon fill="none" stroke="#000000" points="9.5,-436.0891 9.5,-458.0891 217.5,-458.0891 217.5,-436.0891 9.5,-436.0891"/>
<text text-anchor="start" x="38.5" y="-443.1891" font-family="Helvetica,sans-Serif" font-size="11.00" fill="#000000">sequence_number</text>
<polygon fill="none" stroke="#000000" points="9.5,-417.0891 9.5,-436.0891 217.5,-436.0891 217.5,-417.0891 9.5,-417.0891"/>
<text text-anchor="start" x="12.5" y="-423.1891" font-family="Helvetica,sans-Serif" font-size="11.00" fill="#000000">...</text>
<polygon fill="#ffffff" stroke="transparent" points="9.5,-398.0891 9.5,-417.0891 102.5,-417.0891 102.5,-398.0891 9.5,-398.0891"/>
<polygon fill="none" stroke="#000000" points="9.5,-398.0891 9.5,-417.0891 102.5,-417.0891 102.5,-398.0891 9.5,-398.0891"/>
<text text-anchor="start" x="12.5" y="-404.1891" font-family="Helvetica,sans-Serif" font-size="11.00" fill="#000000"> &#160;</text>
<polygon fill="#ffffff" stroke="transparent" points="102.5,-398.0891 102.5,-417.0891 155.5,-417.0891 155.5,-398.0891 102.5,-398.0891"/>
<polygon fill="none" stroke="#000000" points="102.5,-398.0891 102.5,-417.0891 155.5,-417.0891 155.5,-398.0891 102.5,-398.0891"/>
<text text-anchor="start" x="146.3862" y="-404.1891" font-family="Helvetica,sans-Serif" font-size="11.00" fill="#000000"> &#160;</text>
<polygon fill="#ffffff" stroke="transparent" points="155.5,-398.0891 155.5,-417.0891 217.5,-417.0891 217.5,-398.0891 155.5,-398.0891"/>
<polygon fill="none" stroke="#000000" points="155.5,-398.0891 155.5,-417.0891 217.5,-417.0891 217.5,-398.0891 155.5,-398.0891"/>
<text text-anchor="start" x="198.9053" y="-404.1891" font-family="Helvetica,sans-Serif" font-size="11.00" fill="#000000">1 &gt;</text>
</a>
</g>
</g>
<!-- court_appearance&#45;&gt;court_appearance_status -->
<g id="edge4" class="edge">
<title>court_appearance:w&#45;&gt;court_appearance_status:e</title>
<path fill="none" stroke="#000000" d="M313.4746,-507.5617C275.536,-504.6923 261.9483,-491.0891 217.5,-491.0891"/>
<polygon fill="#000000" stroke="#000000" points="320.0053,-507.7988 327.8693,-511.6868 324.0026,-507.944 328,-508.0891 328,-508.0891 328,-508.0891 324.0026,-507.944 328.1307,-504.4915 320.0053,-507.7988 320.0053,-507.7988"/>
<ellipse fill="none" stroke="#000000" cx="316.8074" cy="-507.6827" rx="3.2" ry="3.2"/>
</g>
<!-- audit_revision -->
<g id="node7" class="node">
<title>audit_revision</title>
<g id="a_node7"><a xlink:href="../../tables/audit_revision.html" xlink:title="audit_revision" target="_top">
<polygon fill="#ffffff" stroke="transparent" points="46.5,-261.5891 46.5,-344.5891 180.5,-344.5891 180.5,-261.5891 46.5,-261.5891"/>
<polygon fill="#f5f5f5" stroke="transparent" points="46.5,-321.0891 46.5,-344.0891 180.5,-344.0891 180.5,-321.0891 46.5,-321.0891"/>
<polygon fill="none" stroke="#000000" points="46.5,-321.0891 46.5,-344.0891 180.5,-344.0891 180.5,-321.0891 46.5,-321.0891"/>
<text text-anchor="start" x="51.5" y="-329.6891" font-family="Helvetica,sans-Serif" font-weight="bold" font-size="11.00" fill="#000000">audit_revision</text>
<text text-anchor="start" x="146.0219" y="-329.1891" font-family="Helvetica,sans-Serif" font-size="11.00" fill="#000000">[table]</text>
<polygon fill="none" stroke="#000000" points="46.5,-299.0891 46.5,-321.0891 180.5,-321.0891 180.5,-299.0891 46.5,-299.0891"/>
<image xlink:href="../../images/primaryKeys.png" width="11px" height="12px" preserveAspectRatio="xMinYMin meet" x="51.5" y="-316.089"/>
<text text-anchor="start" x="66.5" y="-306.1891" font-family="Helvetica,sans-Serif" font-size="11.00" fill="#000000">id</text>
<polygon fill="none" stroke="#000000" points="46.5,-280.0891 46.5,-299.0891 180.5,-299.0891 180.5,-280.0891 46.5,-280.0891"/>
<text text-anchor="start" x="49.5" y="-286.1891" font-family="Helvetica,sans-Serif" font-size="11.00" fill="#000000">...</text>
<polygon fill="#ffffff" stroke="transparent" points="46.5,-261.0891 46.5,-280.0891 102.5,-280.0891 102.5,-261.0891 46.5,-261.0891"/>
<polygon fill="none" stroke="#000000" points="46.5,-261.0891 46.5,-280.0891 102.5,-280.0891 102.5,-261.0891 46.5,-261.0891"/>
<text text-anchor="start" x="49.5" y="-267.1891" font-family="Helvetica,sans-Serif" font-size="11.00" fill="#000000"> &#160;</text>
<polygon fill="#ffffff" stroke="transparent" points="102.5,-261.0891 102.5,-280.0891 136.5,-280.0891 136.5,-261.0891 102.5,-261.0891"/>
<polygon fill="none" stroke="#000000" points="102.5,-261.0891 102.5,-280.0891 136.5,-280.0891 136.5,-261.0891 102.5,-261.0891"/>
<text text-anchor="start" x="127.3862" y="-267.1891" font-family="Helvetica,sans-Serif" font-size="11.00" fill="#000000"> &#160;</text>
<polygon fill="#ffffff" stroke="transparent" points="136.5,-261.0891 136.5,-280.0891 180.5,-280.0891 180.5,-261.0891 136.5,-261.0891"/>
<polygon fill="none" stroke="#000000" points="136.5,-261.0891 136.5,-280.0891 180.5,-280.0891 180.5,-261.0891 136.5,-261.0891"/>
<text text-anchor="start" x="161.9053" y="-267.1891" font-family="Helvetica,sans-Serif" font-size="11.00" fill="#000000">2 &gt;</text>
</a>
</g>
</g>
<!-- court_appearance&#45;&gt;audit_revision -->
<g id="edge1" class="edge">
<title>court_appearance:w&#45;&gt;audit_revision:e</title>
<path fill="none" stroke="#000000" stroke-dasharray="5,2" d="M317.3604,-463.2479C287.7299,-458.159 285.3012,-430.8459 260,-405.0891 221.4184,-365.8129 235.556,-310.0891 180.5,-310.0891"/>
<polygon fill="#000000" stroke="#000000" points="327.5178,-460.0385 326.8872,-468.0136 325.2922,-467.8875 325.9228,-459.9124 327.5178,-460.0385"/>
<polyline fill="none" stroke="#000000" points="328,-464.0891 324.0124,-463.7738 "/>
<ellipse fill="none" stroke="#000000" cx="320.8224" cy="-463.5216" rx="3.2" ry="3.2"/>
</g>
<!-- person_summary -->
<g id="node8" class="node">
<title>person_summary</title>
<g id="a_node8"><a xlink:href="../../tables/person_summary.html" xlink:title="person_summary" target="_top">
<polygon fill="#ffffff" stroke="transparent" points="36.5,-119.5891 36.5,-202.5891 190.5,-202.5891 190.5,-119.5891 36.5,-119.5891"/>
<polygon fill="#f5f5f5" stroke="transparent" points="36.5,-179.0891 36.5,-202.0891 190.5,-202.0891 190.5,-179.0891 36.5,-179.0891"/>
<polygon fill="none" stroke="#000000" points="36.5,-179.0891 36.5,-202.0891 190.5,-202.0891 190.5,-179.0891 36.5,-179.0891"/>
<text text-anchor="start" x="41.5" y="-187.6891" font-family="Helvetica,sans-Serif" font-weight="bold" font-size="11.00" fill="#000000">person_summary</text>
<text text-anchor="start" x="156.0219" y="-187.1891" font-family="Helvetica,sans-Serif" font-size="11.00" fill="#000000">[table]</text>
<polygon fill="none" stroke="#000000" points="36.5,-157.0891 36.5,-179.0891 190.5,-179.0891 190.5,-157.0891 36.5,-157.0891"/>
<image xlink:href="../../images/primaryKeys.png" width="11px" height="12px" preserveAspectRatio="xMinYMin meet" x="41.5" y="-174.089"/>
<text text-anchor="start" x="65.5" y="-164.1891" font-family="Helvetica,sans-Serif" font-size="11.00" fill="#000000">person_identifier</text>
<polygon fill="none" stroke="#000000" points="36.5,-138.0891 36.5,-157.0891 190.5,-157.0891 190.5,-138.0891 36.5,-138.0891"/>
<text text-anchor="start" x="39.5" y="-144.1891" font-family="Helvetica,sans-Serif" font-size="11.00" fill="#000000">...</text>
<polygon fill="#ffffff" stroke="transparent" points="36.5,-119.0891 36.5,-138.0891 102.5,-138.0891 102.5,-119.0891 36.5,-119.0891"/>
<polygon fill="none" stroke="#000000" points="36.5,-119.0891 36.5,-138.0891 102.5,-138.0891 102.5,-119.0891 36.5,-119.0891"/>
<text text-anchor="start" x="39.5" y="-125.1891" font-family="Helvetica,sans-Serif" font-size="11.00" fill="#000000"> &#160;</text>
<polygon fill="#ffffff" stroke="transparent" points="102.5,-119.0891 102.5,-138.0891 141.5,-138.0891 141.5,-119.0891 102.5,-119.0891"/>
<polygon fill="none" stroke="#000000" points="102.5,-119.0891 102.5,-138.0891 141.5,-138.0891 141.5,-119.0891 102.5,-119.0891"/>
<text text-anchor="start" x="132.3862" y="-125.1891" font-family="Helvetica,sans-Serif" font-size="11.00" fill="#000000"> &#160;</text>
<polygon fill="#ffffff" stroke="transparent" points="141.5,-119.0891 141.5,-138.0891 190.5,-138.0891 190.5,-119.0891 141.5,-119.0891"/>
<polygon fill="none" stroke="#000000" points="141.5,-119.0891 141.5,-138.0891 190.5,-138.0891 190.5,-119.0891 141.5,-119.0891"/>
<text text-anchor="start" x="171.9053" y="-125.1891" font-family="Helvetica,sans-Serif" font-size="11.00" fill="#000000">2 &gt;</text>
</a>
</g>
</g>
<!-- court_appearance&#45;&gt;person_summary -->
<g id="edge2" class="edge">
<title>court_appearance:w&#45;&gt;person_summary:e</title>
<path fill="none" stroke="#000000" d="M313.4241,-573.4673C183.9647,-561.8353 271.6889,-389.3137 227,-251.0891 214.6031,-212.7451 230.7983,-168.0891 190.5,-168.0891"/>
<polygon fill="#000000" stroke="#000000" points="320.0073,-573.7481 327.8465,-577.6859 324.0036,-573.9186 328,-574.0891 328,-574.0891 328,-574.0891 324.0036,-573.9186 328.1535,-570.4924 320.0073,-573.7481 320.0073,-573.7481"/>
<ellipse fill="none" stroke="#000000" cx="316.8102" cy="-573.6117" rx="3.2" ry="3.2"/>
</g>
<!-- court_appearance_audit -->
<g id="node3" class="node">
<title>court_appearance_audit</title>
<g id="a_node3"><a xlink:href="../../tables/court_appearance_audit.html" xlink:title="court_appearance_audit" target="_top">
<polygon fill="#ffffff" stroke="transparent" points="307,-245.5891 307,-394.5891 507,-394.5891 507,-245.5891 307,-245.5891"/>
<polygon fill="#f5f5f5" stroke="transparent" points="307,-371.0891 307,-394.0891 507,-394.0891 507,-371.0891 307,-371.0891"/>
<polygon fill="none" stroke="#000000" points="307,-371.0891 307,-394.0891 507,-394.0891 507,-371.0891 307,-371.0891"/>
<text text-anchor="start" x="312" y="-379.6891" font-family="Helvetica,sans-Serif" font-weight="bold" font-size="11.00" fill="#000000">court_appearance_audit</text>
<text text-anchor="start" x="472.5219" y="-379.1891" font-family="Helvetica,sans-Serif" font-size="11.00" fill="#000000">[table]</text>
<polygon fill="none" stroke="#000000" points="307,-349.0891 307,-371.0891 507,-371.0891 507,-349.0891 307,-349.0891"/>
<image xlink:href="../../images/primaryKeys.png" width="11px" height="12px" preserveAspectRatio="xMinYMin meet" x="312" y="-366.089"/>
<text text-anchor="start" x="336" y="-356.1891" font-family="Helvetica,sans-Serif" font-size="11.00" fill="#000000">rev_id</text>
<polygon fill="none" stroke="#000000" points="307,-327.0891 307,-349.0891 507,-349.0891 507,-327.0891 307,-327.0891"/>
<image xlink:href="../../images/primaryKeys.png" width="11px" height="12px" preserveAspectRatio="xMinYMin meet" x="312" y="-344.089"/>
<text text-anchor="start" x="336" y="-334.1891" font-family="Helvetica,sans-Serif" font-size="11.00" fill="#000000">id</text>
<polygon fill="none" stroke="#000000" points="307,-305.0891 307,-327.0891 507,-327.0891 507,-305.0891 307,-305.0891"/>
<image xlink:href="../../images/foreignKeys.png" width="11px" height="12px" preserveAspectRatio="xMinYMin meet" x="312" y="-322.089"/>
<text text-anchor="start" x="336" y="-312.1891" font-family="Helvetica,sans-Serif" font-size="11.00" fill="#000000">person_identifier</text>
<polygon fill="none" stroke="#000000" points="307,-283.0891 307,-305.0891 507,-305.0891 507,-283.0891 307,-283.0891"/>
<image xlink:href="../../images/foreignKeys.png" width="11px" height="12px" preserveAspectRatio="xMinYMin meet" x="312" y="-300.089"/>
<text text-anchor="start" x="336" y="-290.1891" font-family="Helvetica,sans-Serif" font-size="11.00" fill="#000000">legacy_id</text>
<polygon fill="none" stroke="#000000" points="307,-264.0891 307,-283.0891 507,-283.0891 507,-264.0891 307,-264.0891"/>
<text text-anchor="start" x="310" y="-270.1891" font-family="Helvetica,sans-Serif" font-size="11.00" fill="#000000">...</text>
<polygon fill="#ffffff" stroke="transparent" points="307,-245.0891 307,-264.0891 405,-264.0891 405,-245.0891 307,-245.0891"/>
<polygon fill="none" stroke="#000000" points="307,-245.0891 307,-264.0891 405,-264.0891 405,-245.0891 307,-245.0891"/>
<text text-anchor="start" x="310" y="-251.1891" font-family="Helvetica,sans-Serif" font-size="11.00" fill="#000000">&lt; 1</text>
<polygon fill="#ffffff" stroke="transparent" points="405,-245.0891 405,-264.0891 456,-264.0891 456,-245.0891 405,-245.0891"/>
<polygon fill="none" stroke="#000000" points="405,-245.0891 405,-264.0891 456,-264.0891 456,-245.0891 405,-245.0891"/>
<text text-anchor="start" x="446.8862" y="-251.1891" font-family="Helvetica,sans-Serif" font-size="11.00" fill="#000000"> &#160;</text>
<polygon fill="#ffffff" stroke="transparent" points="456,-245.0891 456,-264.0891 507,-264.0891 507,-245.0891 456,-245.0891"/>
<polygon fill="none" stroke="#000000" points="456,-245.0891 456,-264.0891 507,-264.0891 507,-245.0891 456,-245.0891"/>
<text text-anchor="start" x="497.8862" y="-251.1891" font-family="Helvetica,sans-Serif" font-size="11.00" fill="#000000"> &#160;</text>
</a>
</g>
</g>
<!-- court_appearance_audit&#45;&gt;audit_revision -->
<g id="edge5" class="edge">
<title>court_appearance_audit:w&#45;&gt;audit_revision:e</title>
<path fill="none" stroke="#000000" stroke-dasharray="5,2" d="M292.4262,-294.4689C247.5472,-296.8918 231.968,-310.0891 180.5,-310.0891"/>
<polygon fill="#000000" stroke="#000000" points="299.0027,-294.2976 307.0938,-297.6879 303.0014,-294.1933 307,-294.0891 307,-294.0891 307,-294.0891 303.0014,-294.1933 306.9062,-290.4904 299.0027,-294.2976 299.0027,-294.2976"/>
<ellipse fill="none" stroke="#000000" cx="295.8038" cy="-294.3809" rx="3.2" ry="3.2"/>
</g>
<!-- court_appearance_audit&#45;&gt;audit_revision -->
<g id="edge7" class="edge">
<title>court_appearance_audit:w&#45;&gt;audit_revision:e</title>
<path fill="none" stroke="#000000" d="M292.5599,-359.0448C245.1793,-351.8646 235.7593,-310.0891 180.5,-310.0891"/>
<polygon fill="#000000" stroke="#000000" points="299.0208,-359.512 306.7403,-363.6798 303.0104,-359.8006 307,-360.0891 307,-360.0891 307,-360.0891 303.0104,-359.8006 307.2597,-356.4985 299.0208,-359.512 299.0208,-359.512"/>
<ellipse fill="none" stroke="#000000" cx="295.8292" cy="-359.2812" rx="3.2" ry="3.2"/>
</g>
<!-- court_appearance_audit&#45;&gt;person_summary -->
<g id="edge6" class="edge">
<title>court_appearance_audit:w&#45;&gt;person_summary:e</title>
<path fill="none" stroke="#000000" stroke-dasharray="5,2" d="M292.4194,-314.3239C229.2933,-297.6258 268.8163,-168.0891 190.5,-168.0891"/>
<polygon fill="#000000" stroke="#000000" points="299.058,-315.1276 306.5673,-319.663 303.029,-315.6084 307,-316.0891 307,-316.0891 307,-316.0891 303.029,-315.6084 307.4327,-312.5152 299.058,-315.1276 299.058,-315.1276"/>
<ellipse fill="none" stroke="#000000" cx="295.8812" cy="-314.743" rx="3.2" ry="3.2"/>
</g>
<!-- court_appearance_movement -->
<g id="node4" class="node">
<title>court_appearance_movement</title>
<g id="a_node4"><a xlink:href="../../tables/court_appearance_movement.html" xlink:title="court_appearance_movement" target="_top">
<polygon fill="#ffffff" stroke="transparent" points="595,-252.5891 595,-401.5891 832,-401.5891 832,-252.5891 595,-252.5891"/>
<polygon fill="#f5f5f5" stroke="transparent" points="595.5,-378.0891 595.5,-401.0891 832.5,-401.0891 832.5,-378.0891 595.5,-378.0891"/>
<polygon fill="none" stroke="#000000" points="595.5,-378.0891 595.5,-401.0891 832.5,-401.0891 832.5,-378.0891 595.5,-378.0891"/>
<text text-anchor="start" x="600.5" y="-386.6891" font-family="Helvetica,sans-Serif" font-weight="bold" font-size="11.00" fill="#000000">court_appearance_movement</text>
<text text-anchor="start" x="798.0219" y="-386.1891" font-family="Helvetica,sans-Serif" font-size="11.00" fill="#000000">[table]</text>
<polygon fill="none" stroke="#000000" points="595.5,-356.0891 595.5,-378.0891 832.5,-378.0891 832.5,-356.0891 595.5,-356.0891"/>
<image xlink:href="../../images/primaryKeys.png" width="11px" height="12px" preserveAspectRatio="xMinYMin meet" x="600.5" y="-373.089"/>
<text text-anchor="start" x="624.5" y="-363.1891" font-family="Helvetica,sans-Serif" font-size="11.00" fill="#000000">id</text>
<polygon fill="none" stroke="#000000" points="595.5,-334.0891 595.5,-356.0891 832.5,-356.0891 832.5,-334.0891 595.5,-334.0891"/>
<image xlink:href="../../images/foreignKeys.png" width="11px" height="12px" preserveAspectRatio="xMinYMin meet" x="600.5" y="-351.089"/>
<text text-anchor="start" x="624.5" y="-341.1891" font-family="Helvetica,sans-Serif" font-size="11.00" fill="#000000">court_appearance_id</text>
<polygon fill="#ffffff" stroke="transparent" points="595.5,-312.0891 595.5,-334.0891 832.5,-334.0891 832.5,-312.0891 595.5,-312.0891"/>
<polygon fill="none" stroke="#000000" points="595.5,-312.0891 595.5,-334.0891 832.5,-334.0891 832.5,-312.0891 595.5,-312.0891"/>
<image xlink:href="../../images/foreignKeys.png" width="11px" height="12px" preserveAspectRatio="xMinYMin meet" x="600.5" y="-329.089"/>
<text text-anchor="start" x="624.5" y="-319.1891" font-family="Helvetica,sans-Serif" font-size="11.00" fill="#000000">person_identifier</text>
<polygon fill="#ffffff" stroke="transparent" points="595.5,-290.0891 595.5,-312.0891 832.5,-312.0891 832.5,-290.0891 595.5,-290.0891"/>
<polygon fill="none" stroke="#000000" points="595.5,-290.0891 595.5,-312.0891 832.5,-312.0891 832.5,-290.0891 595.5,-290.0891"/>
<text text-anchor="start" x="624.5" y="-297.1891" font-family="Helvetica,sans-Serif" font-size="11.00" fill="#000000">legacy_id</text>
<polygon fill="none" stroke="#000000" points="595.5,-271.0891 595.5,-290.0891 832.5,-290.0891 832.5,-271.0891 595.5,-271.0891"/>
<text text-anchor="start" x="598.5" y="-277.1891" font-family="Helvetica,sans-Serif" font-size="11.00" fill="#000000">...</text>
<polygon fill="#ffffff" stroke="transparent" points="595.5,-252.0891 595.5,-271.0891 712.5,-271.0891 712.5,-252.0891 595.5,-252.0891"/>
<polygon fill="none" stroke="#000000" points="595.5,-252.0891 595.5,-271.0891 712.5,-271.0891 712.5,-252.0891 595.5,-252.0891"/>
<text text-anchor="start" x="598.5" y="-258.1891" font-family="Helvetica,sans-Serif" font-size="11.00" fill="#000000">&lt; 2</text>
<polygon fill="#ffffff" stroke="transparent" points="712.5,-252.0891 712.5,-271.0891 772.5,-271.0891 772.5,-252.0891 712.5,-252.0891"/>
<polygon fill="none" stroke="#000000" points="712.5,-252.0891 712.5,-271.0891 772.5,-271.0891 772.5,-252.0891 712.5,-252.0891"/>
<text text-anchor="start" x="763.3862" y="-258.1891" font-family="Helvetica,sans-Serif" font-size="11.00" fill="#000000"> &#160;</text>
<polygon fill="#ffffff" stroke="transparent" points="772.5,-252.0891 772.5,-271.0891 832.5,-271.0891 832.5,-252.0891 772.5,-252.0891"/>
<polygon fill="none" stroke="#000000" points="772.5,-252.0891 772.5,-271.0891 832.5,-271.0891 832.5,-252.0891 772.5,-252.0891"/>
<text text-anchor="start" x="823.3862" y="-258.1891" font-family="Helvetica,sans-Serif" font-size="11.00" fill="#000000"> &#160;</text>
</a>
</g>
</g>
<!-- court_appearance_movement&#45;&gt;court_appearance -->
<g id="edge8" class="edge">
<title>court_appearance_movement:w&#45;&gt;court_appearance:e</title>
<path fill="none" stroke="#000000" d="M581.664,-350.103C536.4024,-385.4789 542.6626,-596.0891 487,-596.0891"/>
<polygon fill="#000000" stroke="#000000" points="587.9786,-347.8147 596.7265,-348.4738 591.7393,-346.4519 595.5,-345.0891 595.5,-345.0891 595.5,-345.0891 591.7393,-346.4519 594.2735,-341.7045 587.9786,-347.8147 587.9786,-347.8147"/>
<ellipse fill="none" stroke="#000000" cx="584.97" cy="-348.905" rx="3.2" ry="3.2"/>
</g>
<!-- court_appearance_movement&#45;&gt;person_summary -->
<g id="edge9" class="edge">
<title>court_appearance_movement:w&#45;&gt;person_summary:e</title>
<path fill="none" stroke="#000000" d="M580.6923,-321.7306C503.8253,-305.6959 631.2651,-151.9529 554,-87.0891 453.9231,-3.0749 378.7262,-32.5193 260,-87.0891 216.8992,-106.8994 237.9355,-168.0891 190.5,-168.0891"/>
<polygon fill="#000000" stroke="#000000" points="587.5335,-322.3582 595.1711,-326.6741 591.5167,-322.7237 595.5,-323.0891 595.5,-323.0891 595.5,-323.0891 591.5167,-322.7237 595.8289,-319.5042 587.5335,-322.3582 587.5335,-322.3582"/>
<ellipse fill="none" stroke="#000000" cx="584.3468" cy="-322.0658" rx="3.2" ry="3.2"/>
</g>
<!-- court_appearance_movement_audit -->
<g id="node6" class="node">
<title>court_appearance_movement_audit</title>
<g id="a_node6"><a xlink:href="../../tables/court_appearance_movement_audit.html" xlink:title="court_appearance_movement_audit" target="_top">
<polygon fill="#ffffff" stroke="transparent" points="268,-97.5891 268,-224.5891 546,-224.5891 546,-97.5891 268,-97.5891"/>
<polygon fill="#f5f5f5" stroke="transparent" points="268,-201.0891 268,-224.0891 546,-224.0891 546,-201.0891 268,-201.0891"/>
<polygon fill="none" stroke="#000000" points="268,-201.0891 268,-224.0891 546,-224.0891 546,-201.0891 268,-201.0891"/>
<text text-anchor="start" x="273" y="-209.6891" font-family="Helvetica,sans-Serif" font-weight="bold" font-size="11.00" fill="#000000">court_appearance_movement_audit</text>
<text text-anchor="start" x="511.5219" y="-209.1891" font-family="Helvetica,sans-Serif" font-size="11.00" fill="#000000">[table]</text>
<polygon fill="none" stroke="#000000" points="268,-179.0891 268,-201.0891 546,-201.0891 546,-179.0891 268,-179.0891"/>
<image xlink:href="../../images/primaryKeys.png" width="11px" height="12px" preserveAspectRatio="xMinYMin meet" x="273" y="-196.089"/>
<text text-anchor="start" x="297" y="-186.1891" font-family="Helvetica,sans-Serif" font-size="11.00" fill="#000000">rev_id</text>
<polygon fill="none" stroke="#000000" points="268,-157.0891 268,-179.0891 546,-179.0891 546,-157.0891 268,-157.0891"/>
<image xlink:href="../../images/primaryKeys.png" width="11px" height="12px" preserveAspectRatio="xMinYMin meet" x="273" y="-174.089"/>
<text text-anchor="start" x="297" y="-164.1891" font-family="Helvetica,sans-Serif" font-size="11.00" fill="#000000">id</text>
<polygon fill="none" stroke="#000000" points="268,-135.0891 268,-157.0891 546,-157.0891 546,-135.0891 268,-135.0891"/>
<image xlink:href="../../images/foreignKeys.png" width="11px" height="12px" preserveAspectRatio="xMinYMin meet" x="273" y="-152.089"/>
<text text-anchor="start" x="297" y="-142.1891" font-family="Helvetica,sans-Serif" font-size="11.00" fill="#000000">person_identifier</text>
<polygon fill="none" stroke="#000000" points="268,-116.0891 268,-135.0891 546,-135.0891 546,-116.0891 268,-116.0891"/>
<text text-anchor="start" x="271" y="-122.1891" font-family="Helvetica,sans-Serif" font-size="11.00" fill="#000000">...</text>
<polygon fill="#ffffff" stroke="transparent" points="268,-97.0891 268,-116.0891 405,-116.0891 405,-97.0891 268,-97.0891"/>
<polygon fill="none" stroke="#000000" points="268,-97.0891 268,-116.0891 405,-116.0891 405,-97.0891 268,-97.0891"/>
<text text-anchor="start" x="271" y="-103.1891" font-family="Helvetica,sans-Serif" font-size="11.00" fill="#000000">&lt; 1</text>
<polygon fill="#ffffff" stroke="transparent" points="405,-97.0891 405,-116.0891 475,-116.0891 475,-97.0891 405,-97.0891"/>
<polygon fill="none" stroke="#000000" points="405,-97.0891 405,-116.0891 475,-116.0891 475,-97.0891 405,-97.0891"/>
<text text-anchor="start" x="465.8862" y="-103.1891" font-family="Helvetica,sans-Serif" font-size="11.00" fill="#000000"> &#160;</text>
<polygon fill="#ffffff" stroke="transparent" points="475,-97.0891 475,-116.0891 546,-116.0891 546,-97.0891 475,-97.0891"/>
<polygon fill="none" stroke="#000000" points="475,-97.0891 475,-116.0891 546,-116.0891 546,-97.0891 475,-97.0891"/>
<text text-anchor="start" x="536.8862" y="-103.1891" font-family="Helvetica,sans-Serif" font-size="11.00" fill="#000000"> &#160;</text>
</a>
</g>
</g>
<!-- court_appearance_movement_audit&#45;&gt;audit_revision -->
<g id="edge11" class="edge">
<title>court_appearance_movement_audit:w&#45;&gt;audit_revision:e</title>
<path fill="none" stroke="#000000" d="M253.5772,-192.4862C208.6911,-209.399 240.9625,-310.0891 180.5,-310.0891"/>
<polygon fill="#000000" stroke="#000000" points="260.1082,-191.4008 268.5902,-193.6404 264.0541,-190.745 268,-190.0891 268,-190.0891 268,-190.0891 264.0541,-190.745 267.4098,-186.5378 260.1082,-191.4008 260.1082,-191.4008"/>
<ellipse fill="none" stroke="#000000" cx="256.9515" cy="-191.9254" rx="3.2" ry="3.2"/>
</g>
<!-- court_appearance_movement_audit&#45;&gt;person_summary -->
<g id="edge10" class="edge">
<title>court_appearance_movement_audit:w&#45;&gt;person_summary:e</title>
<path fill="none" stroke="#000000" stroke-dasharray="5,2" d="M253.5072,-147.4653C229.7059,-152.2817 220.8506,-168.0891 190.5,-168.0891"/>
<polygon fill="#000000" stroke="#000000" points="260.0358,-146.8454 268.3403,-149.673 264.0179,-146.4673 268,-146.0891 268,-146.0891 268,-146.0891 264.0179,-146.4673 267.6597,-142.5053 260.0358,-146.8454 260.0358,-146.8454"/>
<ellipse fill="none" stroke="#000000" cx="256.8502" cy="-147.148" rx="3.2" ry="3.2"/>
</g>
</g>
</svg>
