<?xml version="1.0" encoding="UTF-8" standalone="no"?>
<!DOCTYPE svg PUBLIC "-//W3C//DTD SVG 1.1//EN"
 "http://www.w3.org/Graphics/SVG/1.1/DTD/svg11.dtd">
<!-- Generated by graphviz version 2.40.1 (20161225.0304)
 -->
<!-- Title: compactRelationshipsDiagram Pages: 1 -->
<svg width="770pt" height="601pt"
 viewBox="0.00 0.00 770.00 601.20" xmlns="http://www.w3.org/2000/svg" xmlns:xlink="http://www.w3.org/1999/xlink">
<g id="graph0" class="graph" transform="scale(1 1) rotate(0) translate(4 597.2)">
<title>compactRelationshipsDiagram</title>
<polygon fill="#ffffff" stroke="transparent" points="-4,4 -4,-597.2 766,-597.2 766,4 -4,4"/>
<text text-anchor="middle" x="72.4936" y="-7.3" font-family="Helvetica,sans-Serif" font-size="11.00" fill="#000000">Generated by SchemaSpy</text>
<!-- court_appearance_audit -->
<g id="node1" class="node">
<title>court_appearance_audit</title>
<g id="a_node1"><a xlink:href="../../tables/court_appearance_audit.html" xlink:title="court_appearance_audit" target="_top">
<polygon fill="#ffffff" stroke="transparent" points="515,-186.2 515,-335.2 715,-335.2 715,-186.2 515,-186.2"/>
<polygon fill="#f5f5f5" stroke="transparent" points="515,-311.7 515,-334.7 715,-334.7 715,-311.7 515,-311.7"/>
<polygon fill="none" stroke="#000000" points="515,-311.7 515,-334.7 715,-334.7 715,-311.7 515,-311.7"/>
<text text-anchor="start" x="520" y="-320.3" font-family="Helvetica,sans-Serif" font-weight="bold" font-size="11.00" fill="#000000">court_appearance_audit</text>
<text text-anchor="start" x="680.5219" y="-319.8" font-family="Helvetica,sans-Serif" font-size="11.00" fill="#000000">[table]</text>
<polygon fill="none" stroke="#000000" points="515,-289.7 515,-311.7 715,-311.7 715,-289.7 515,-289.7"/>
<image xlink:href="../../images/primaryKeys.png" width="11px" height="12px" preserveAspectRatio="xMinYMin meet" x="520" y="-306.7"/>
<text text-anchor="start" x="544" y="-296.8" font-family="Helvetica,sans-Serif" font-size="11.00" fill="#000000">rev_id</text>
<polygon fill="none" stroke="#000000" points="515,-267.7 515,-289.7 715,-289.7 715,-267.7 515,-267.7"/>
<image xlink:href="../../images/primaryKeys.png" width="11px" height="12px" preserveAspectRatio="xMinYMin meet" x="520" y="-284.7"/>
<text text-anchor="start" x="544" y="-274.8" font-family="Helvetica,sans-Serif" font-size="11.00" fill="#000000">id</text>
<polygon fill="none" stroke="#000000" points="515,-245.7 515,-267.7 715,-267.7 715,-245.7 515,-245.7"/>
<image xlink:href="../../images/foreignKeys.png" width="11px" height="12px" preserveAspectRatio="xMinYMin meet" x="520" y="-262.7"/>
<text text-anchor="start" x="544" y="-252.8" font-family="Helvetica,sans-Serif" font-size="11.00" fill="#000000">person_identifier</text>
<polygon fill="none" stroke="#000000" points="515,-223.7 515,-245.7 715,-245.7 715,-223.7 515,-223.7"/>
<image xlink:href="../../images/foreignKeys.png" width="11px" height="12px" preserveAspectRatio="xMinYMin meet" x="520" y="-240.7"/>
<text text-anchor="start" x="544" y="-230.8" font-family="Helvetica,sans-Serif" font-size="11.00" fill="#000000">legacy_id</text>
<polygon fill="none" stroke="#000000" points="515,-204.7 515,-223.7 715,-223.7 715,-204.7 515,-204.7"/>
<text text-anchor="start" x="518" y="-210.8" font-family="Helvetica,sans-Serif" font-size="11.00" fill="#000000">...</text>
<polygon fill="#ffffff" stroke="transparent" points="515,-185.7 515,-204.7 613,-204.7 613,-185.7 515,-185.7"/>
<polygon fill="none" stroke="#000000" points="515,-185.7 515,-204.7 613,-204.7 613,-185.7 515,-185.7"/>
<text text-anchor="start" x="518" y="-191.8" font-family="Helvetica,sans-Serif" font-size="11.00" fill="#000000">&lt; 1</text>
<polygon fill="#ffffff" stroke="transparent" points="613,-185.7 613,-204.7 664,-204.7 664,-185.7 613,-185.7"/>
<polygon fill="none" stroke="#000000" points="613,-185.7 613,-204.7 664,-204.7 664,-185.7 613,-185.7"/>
<text text-anchor="start" x="654.8862" y="-191.8" font-family="Helvetica,sans-Serif" font-size="11.00" fill="#000000"> &#160;</text>
<polygon fill="#ffffff" stroke="transparent" points="664,-185.7 664,-204.7 715,-204.7 715,-185.7 664,-185.7"/>
<polygon fill="none" stroke="#000000" points="664,-185.7 664,-204.7 715,-204.7 715,-185.7 664,-185.7"/>
<text text-anchor="start" x="705.8862" y="-191.8" font-family="Helvetica,sans-Serif" font-size="11.00" fill="#000000"> &#160;</text>
</a>
</g>
</g>
<!-- audit_revision -->
<g id="node7" class="node">
<title>audit_revision</title>
<g id="a_node7"><a xlink:href="../../tables/audit_revision.html" xlink:title="audit_revision" target="_top">
<polygon fill="#ffffff" stroke="transparent" points="280.5,-165.2 280.5,-248.2 414.5,-248.2 414.5,-165.2 280.5,-165.2"/>
<polygon fill="#f5f5f5" stroke="transparent" points="280.5,-224.7 280.5,-247.7 414.5,-247.7 414.5,-224.7 280.5,-224.7"/>
<polygon fill="none" stroke="#000000" points="280.5,-224.7 280.5,-247.7 414.5,-247.7 414.5,-224.7 280.5,-224.7"/>
<text text-anchor="start" x="285.5" y="-233.3" font-family="Helvetica,sans-Serif" font-weight="bold" font-size="11.00" fill="#000000">audit_revision</text>
<text text-anchor="start" x="380.0219" y="-232.8" font-family="Helvetica,sans-Serif" font-size="11.00" fill="#000000">[table]</text>
<polygon fill="none" stroke="#000000" points="280.5,-202.7 280.5,-224.7 414.5,-224.7 414.5,-202.7 280.5,-202.7"/>
<image xlink:href="../../images/primaryKeys.png" width="11px" height="12px" preserveAspectRatio="xMinYMin meet" x="285.5" y="-219.7"/>
<text text-anchor="start" x="300.5" y="-209.8" font-family="Helvetica,sans-Serif" font-size="11.00" fill="#000000">id</text>
<polygon fill="none" stroke="#000000" points="280.5,-183.7 280.5,-202.7 414.5,-202.7 414.5,-183.7 280.5,-183.7"/>
<text text-anchor="start" x="283.5" y="-189.8" font-family="Helvetica,sans-Serif" font-size="11.00" fill="#000000">...</text>
<polygon fill="#ffffff" stroke="transparent" points="280.5,-164.7 280.5,-183.7 336.5,-183.7 336.5,-164.7 280.5,-164.7"/>
<polygon fill="none" stroke="#000000" points="280.5,-164.7 280.5,-183.7 336.5,-183.7 336.5,-164.7 280.5,-164.7"/>
<text text-anchor="start" x="283.5" y="-170.8" font-family="Helvetica,sans-Serif" font-size="11.00" fill="#000000"> &#160;</text>
<polygon fill="#ffffff" stroke="transparent" points="336.5,-164.7 336.5,-183.7 370.5,-183.7 370.5,-164.7 336.5,-164.7"/>
<polygon fill="none" stroke="#000000" points="336.5,-164.7 336.5,-183.7 370.5,-183.7 370.5,-164.7 336.5,-164.7"/>
<text text-anchor="start" x="361.3862" y="-170.8" font-family="Helvetica,sans-Serif" font-size="11.00" fill="#000000"> &#160;</text>
<polygon fill="#ffffff" stroke="transparent" points="370.5,-164.7 370.5,-183.7 414.5,-183.7 414.5,-164.7 370.5,-164.7"/>
<polygon fill="none" stroke="#000000" points="370.5,-164.7 370.5,-183.7 414.5,-183.7 414.5,-164.7 370.5,-164.7"/>
<text text-anchor="start" x="395.9053" y="-170.8" font-family="Helvetica,sans-Serif" font-size="11.00" fill="#000000">2 &gt;</text>
</a>
</g>
</g>
<!-- court_appearance_audit&#45;&gt;audit_revision -->
<g id="edge4" class="edge">
<title>court_appearance_audit:w&#45;&gt;audit_revision:e</title>
<path fill="none" stroke="#000000" d="M500.5516,-298.6352C458.5169,-285.4605 468.1549,-213.7 414.5,-213.7"/>
<polygon fill="#000000" stroke="#000000" points="507.0805,-299.5682 514.4907,-304.2638 511.0402,-300.1341 515,-300.7 515,-300.7 515,-300.7 511.0402,-300.1341 515.5093,-297.1362 507.0805,-299.5682 507.0805,-299.5682"/>
<ellipse fill="none" stroke="#000000" cx="503.9126" cy="-299.1155" rx="3.2" ry="3.2"/>
</g>
<!-- court_appearance -->
<g id="node2" class="node">
<title>court_appearance</title>
<g id="a_node2"><a xlink:href="../../tables/court_appearance.html" xlink:title="court_appearance" target="_top">
<polygon fill="#ffffff" stroke="transparent" points="268,-311.2 268,-526.2 427,-526.2 427,-311.2 268,-311.2"/>
<polygon fill="#f5f5f5" stroke="transparent" points="268.5,-502.7 268.5,-525.7 427.5,-525.7 427.5,-502.7 268.5,-502.7"/>
<polygon fill="none" stroke="#000000" points="268.5,-502.7 268.5,-525.7 427.5,-525.7 427.5,-502.7 268.5,-502.7"/>
<text text-anchor="start" x="273.5" y="-511.3" font-family="Helvetica,sans-Serif" font-weight="bold" font-size="11.00" fill="#000000">court_appearance</text>
<text text-anchor="start" x="393.0219" y="-510.8" font-family="Helvetica,sans-Serif" font-size="11.00" fill="#000000">[table]</text>
<polygon fill="none" stroke="#000000" points="268.5,-480.7 268.5,-502.7 427.5,-502.7 427.5,-480.7 268.5,-480.7"/>
<image xlink:href="../../images/primaryKeys.png" width="11px" height="12px" preserveAspectRatio="xMinYMin meet" x="273.5" y="-497.7"/>
<text text-anchor="start" x="297.5" y="-487.8" font-family="Helvetica,sans-Serif" font-size="11.00" fill="#000000">id</text>
<polygon fill="#ffffff" stroke="transparent" points="268.5,-458.7 268.5,-480.7 427.5,-480.7 427.5,-458.7 268.5,-458.7"/>
<polygon fill="none" stroke="#000000" points="268.5,-458.7 268.5,-480.7 427.5,-480.7 427.5,-458.7 268.5,-458.7"/>
<image xlink:href="../../images/foreignKeys.png" width="11px" height="12px" preserveAspectRatio="xMinYMin meet" x="273.5" y="-475.7"/>
<text text-anchor="start" x="297.5" y="-465.8" font-family="Helvetica,sans-Serif" font-size="11.00" fill="#000000">person_identifier</text>
<polygon fill="#ffffff" stroke="transparent" points="268.5,-436.7 268.5,-458.7 427.5,-458.7 427.5,-436.7 268.5,-436.7"/>
<polygon fill="none" stroke="#000000" points="268.5,-436.7 268.5,-458.7 427.5,-458.7 427.5,-436.7 268.5,-436.7"/>
<text text-anchor="start" x="297.5" y="-443.8" font-family="Helvetica,sans-Serif" font-size="11.00" fill="#000000">prison_code</text>
<polygon fill="#ffffff" stroke="transparent" points="268.5,-414.7 268.5,-436.7 427.5,-436.7 427.5,-414.7 268.5,-414.7"/>
<polygon fill="none" stroke="#000000" points="268.5,-414.7 268.5,-436.7 427.5,-436.7 427.5,-414.7 268.5,-414.7"/>
<image xlink:href="../../images/foreignKeys.png" width="11px" height="12px" preserveAspectRatio="xMinYMin meet" x="273.5" y="-431.7"/>
<text text-anchor="start" x="297.5" y="-421.8" font-family="Helvetica,sans-Serif" font-size="11.00" fill="#000000">reason_id</text>
<polygon fill="#ffffff" stroke="transparent" points="268.5,-392.7 268.5,-414.7 427.5,-414.7 427.5,-392.7 268.5,-392.7"/>
<polygon fill="none" stroke="#000000" points="268.5,-392.7 268.5,-414.7 427.5,-414.7 427.5,-392.7 268.5,-392.7"/>
<image xlink:href="../../images/foreignKeys.png" width="11px" height="12px" preserveAspectRatio="xMinYMin meet" x="273.5" y="-409.7"/>
<text text-anchor="start" x="297.5" y="-399.8" font-family="Helvetica,sans-Serif" font-size="11.00" fill="#000000">status_id</text>
<polygon fill="#ffffff" stroke="transparent" points="268.5,-370.7 268.5,-392.7 427.5,-392.7 427.5,-370.7 268.5,-370.7"/>
<polygon fill="none" stroke="#000000" points="268.5,-370.7 268.5,-392.7 427.5,-392.7 427.5,-370.7 268.5,-370.7"/>
<text text-anchor="start" x="297.5" y="-377.8" font-family="Helvetica,sans-Serif" font-size="11.00" fill="#000000">start</text>
<polygon fill="#ffffff" stroke="transparent" points="268.5,-348.7 268.5,-370.7 427.5,-370.7 427.5,-348.7 268.5,-348.7"/>
<polygon fill="none" stroke="#000000" points="268.5,-348.7 268.5,-370.7 427.5,-370.7 427.5,-348.7 268.5,-348.7"/>
<image xlink:href="../../images/foreignKeys.png" width="11px" height="12px" preserveAspectRatio="xMinYMin meet" x="273.5" y="-365.7"/>
<text text-anchor="start" x="297.5" y="-355.8" font-family="Helvetica,sans-Serif" font-size="11.00" fill="#000000">legacy_id</text>
<polygon fill="none" stroke="#000000" points="268.5,-329.7 268.5,-348.7 427.5,-348.7 427.5,-329.7 268.5,-329.7"/>
<text text-anchor="start" x="271.5" y="-335.8" font-family="Helvetica,sans-Serif" font-size="11.00" fill="#000000">...</text>
<polygon fill="#ffffff" stroke="transparent" points="268.5,-310.7 268.5,-329.7 341.5,-329.7 341.5,-310.7 268.5,-310.7"/>
<polygon fill="none" stroke="#000000" points="268.5,-310.7 268.5,-329.7 341.5,-329.7 341.5,-310.7 268.5,-310.7"/>
<text text-anchor="start" x="271.5" y="-316.8" font-family="Helvetica,sans-Serif" font-size="11.00" fill="#000000">&lt; 3</text>
<polygon fill="#ffffff" stroke="transparent" points="341.5,-310.7 341.5,-329.7 379.5,-329.7 379.5,-310.7 341.5,-310.7"/>
<polygon fill="none" stroke="#000000" points="341.5,-310.7 341.5,-329.7 379.5,-329.7 379.5,-310.7 341.5,-310.7"/>
<text text-anchor="start" x="370.3862" y="-316.8" font-family="Helvetica,sans-Serif" font-size="11.00" fill="#000000"> &#160;</text>
<polygon fill="#ffffff" stroke="transparent" points="379.5,-310.7 379.5,-329.7 427.5,-329.7 427.5,-310.7 379.5,-310.7"/>
<polygon fill="none" stroke="#000000" points="379.5,-310.7 379.5,-329.7 427.5,-329.7 427.5,-310.7 379.5,-310.7"/>
<text text-anchor="start" x="408.9053" y="-316.8" font-family="Helvetica,sans-Serif" font-size="11.00" fill="#000000">1 &gt;</text>
</a>
</g>
</g>
<!-- court_appearance_reason -->
<g id="node3" class="node">
<title>court_appearance_reason</title>
<g id="a_node3"><a xlink:href="../../tables/court_appearance_reason.html" xlink:title="court_appearance_reason" target="_top">
<polygon fill="#ffffff" stroke="transparent" points="8,-339.2 8,-466.2 219,-466.2 219,-339.2 8,-339.2"/>
<polygon fill="#f5f5f5" stroke="transparent" points="8.5,-442.7 8.5,-465.7 219.5,-465.7 219.5,-442.7 8.5,-442.7"/>
<polygon fill="none" stroke="#000000" points="8.5,-442.7 8.5,-465.7 219.5,-465.7 219.5,-442.7 8.5,-442.7"/>
<text text-anchor="start" x="13.5" y="-451.3" font-family="Helvetica,sans-Serif" font-weight="bold" font-size="11.00" fill="#000000">court_appearance_reason</text>
<text text-anchor="start" x="185.0219" y="-450.8" font-family="Helvetica,sans-Serif" font-size="11.00" fill="#000000">[table]</text>
<polygon fill="none" stroke="#000000" points="8.5,-420.7 8.5,-442.7 219.5,-442.7 219.5,-420.7 8.5,-420.7"/>
<image xlink:href="../../images/primaryKeys.png" width="11px" height="12px" preserveAspectRatio="xMinYMin meet" x="13.5" y="-437.7"/>
<text text-anchor="start" x="37.5" y="-427.8" font-family="Helvetica,sans-Serif" font-size="11.00" fill="#000000">id</text>
<polygon fill="#ffffff" stroke="transparent" points="8.5,-398.7 8.5,-420.7 219.5,-420.7 219.5,-398.7 8.5,-398.7"/>
<polygon fill="none" stroke="#000000" points="8.5,-398.7 8.5,-420.7 219.5,-420.7 219.5,-398.7 8.5,-398.7"/>
<text text-anchor="start" x="37.5" y="-405.8" font-family="Helvetica,sans-Serif" font-size="11.00" fill="#000000">code</text>
<polygon fill="#ffffff" stroke="transparent" points="8.5,-376.7 8.5,-398.7 219.5,-398.7 219.5,-376.7 8.5,-376.7"/>
<polygon fill="none" stroke="#000000" points="8.5,-376.7 8.5,-398.7 219.5,-398.7 219.5,-376.7 8.5,-376.7"/>
<text text-anchor="start" x="37.5" y="-383.8" font-family="Helvetica,sans-Serif" font-size="11.00" fill="#000000">sequence_number</text>
<polygon fill="none" stroke="#000000" points="8.5,-357.7 8.5,-376.7 219.5,-376.7 219.5,-357.7 8.5,-357.7"/>
<text text-anchor="start" x="11.5" y="-363.8" font-family="Helvetica,sans-Serif" font-size="11.00" fill="#000000">...</text>
<polygon fill="#ffffff" stroke="transparent" points="8.5,-338.7 8.5,-357.7 103.5,-357.7 103.5,-338.7 8.5,-338.7"/>
<polygon fill="none" stroke="#000000" points="8.5,-338.7 8.5,-357.7 103.5,-357.7 103.5,-338.7 8.5,-338.7"/>
<text text-anchor="start" x="11.5" y="-344.8" font-family="Helvetica,sans-Serif" font-size="11.00" fill="#000000"> &#160;</text>
<polygon fill="#ffffff" stroke="transparent" points="103.5,-338.7 103.5,-357.7 156.5,-357.7 156.5,-338.7 103.5,-338.7"/>
<polygon fill="none" stroke="#000000" points="103.5,-338.7 103.5,-357.7 156.5,-357.7 156.5,-338.7 103.5,-338.7"/>
<text text-anchor="start" x="147.3862" y="-344.8" font-family="Helvetica,sans-Serif" font-size="11.00" fill="#000000"> &#160;</text>
<polygon fill="#ffffff" stroke="transparent" points="156.5,-338.7 156.5,-357.7 219.5,-357.7 219.5,-338.7 156.5,-338.7"/>
<polygon fill="none" stroke="#000000" points="156.5,-338.7 156.5,-357.7 219.5,-357.7 219.5,-338.7 156.5,-338.7"/>
<text text-anchor="start" x="200.9053" y="-344.8" font-family="Helvetica,sans-Serif" font-size="11.00" fill="#000000">1 &gt;</text>
</a>
</g>
</g>
<!-- court_appearance&#45;&gt;court_appearance_reason -->
<g id="edge2" class="edge">
<title>court_appearance:w&#45;&gt;court_appearance_reason:e</title>
<path fill="none" stroke="#000000" d="M253.9463,-426.7451C242.6532,-428.4642 235.6125,-431.7 219.5,-431.7"/>
<polygon fill="#000000" stroke="#000000" points="260.5205,-426.2731 268.7579,-429.2908 264.5103,-425.9865 268.5,-425.7 268.5,-425.7 268.5,-425.7 264.5103,-425.9865 268.2421,-422.1092 260.5205,-426.2731 260.5205,-426.2731"/>
<ellipse fill="none" stroke="#000000" cx="257.3288" cy="-426.5023" rx="3.2" ry="3.2"/>
</g>
<!-- court_appearance_status -->
<g id="node5" class="node">
<title>court_appearance_status</title>
<g id="a_node5"><a xlink:href="../../tables/court_appearance_status.html" xlink:title="court_appearance_status" target="_top">
<polygon fill="#ffffff" stroke="transparent" points="9.5,-191.2 9.5,-318.2 217.5,-318.2 217.5,-191.2 9.5,-191.2"/>
<polygon fill="#f5f5f5" stroke="transparent" points="9.5,-294.7 9.5,-317.7 217.5,-317.7 217.5,-294.7 9.5,-294.7"/>
<polygon fill="none" stroke="#000000" points="9.5,-294.7 9.5,-317.7 217.5,-317.7 217.5,-294.7 9.5,-294.7"/>
<text text-anchor="start" x="14.5" y="-303.3" font-family="Helvetica,sans-Serif" font-weight="bold" font-size="11.00" fill="#000000">court_appearance_status</text>
<text text-anchor="start" x="183.0219" y="-302.8" font-family="Helvetica,sans-Serif" font-size="11.00" fill="#000000">[table]</text>
<polygon fill="none" stroke="#000000" points="9.5,-272.7 9.5,-294.7 217.5,-294.7 217.5,-272.7 9.5,-272.7"/>
<image xlink:href="../../images/primaryKeys.png" width="11px" height="12px" preserveAspectRatio="xMinYMin meet" x="14.5" y="-289.7"/>
<text text-anchor="start" x="38.5" y="-279.8" font-family="Helvetica,sans-Serif" font-size="11.00" fill="#000000">id</text>
<polygon fill="#ffffff" stroke="transparent" points="9.5,-250.7 9.5,-272.7 217.5,-272.7 217.5,-250.7 9.5,-250.7"/>
<polygon fill="none" stroke="#000000" points="9.5,-250.7 9.5,-272.7 217.5,-272.7 217.5,-250.7 9.5,-250.7"/>
<text text-anchor="start" x="38.5" y="-257.8" font-family="Helvetica,sans-Serif" font-size="11.00" fill="#000000">code</text>
<polygon fill="#ffffff" stroke="transparent" points="9.5,-228.7 9.5,-250.7 217.5,-250.7 217.5,-228.7 9.5,-228.7"/>
<polygon fill="none" stroke="#000000" points="9.5,-228.7 9.5,-250.7 217.5,-250.7 217.5,-228.7 9.5,-228.7"/>
<text text-anchor="start" x="38.5" y="-235.8" font-family="Helvetica,sans-Serif" font-size="11.00" fill="#000000">sequence_number</text>
<polygon fill="none" stroke="#000000" points="9.5,-209.7 9.5,-228.7 217.5,-228.7 217.5,-209.7 9.5,-209.7"/>
<text text-anchor="start" x="12.5" y="-215.8" font-family="Helvetica,sans-Serif" font-size="11.00" fill="#000000">...</text>
<polygon fill="#ffffff" stroke="transparent" points="9.5,-190.7 9.5,-209.7 102.5,-209.7 102.5,-190.7 9.5,-190.7"/>
<polygon fill="none" stroke="#000000" points="9.5,-190.7 9.5,-209.7 102.5,-209.7 102.5,-190.7 9.5,-190.7"/>
<text text-anchor="start" x="12.5" y="-196.8" font-family="Helvetica,sans-Serif" font-size="11.00" fill="#000000"> &#160;</text>
<polygon fill="#ffffff" stroke="transparent" points="102.5,-190.7 102.5,-209.7 155.5,-209.7 155.5,-190.7 102.5,-190.7"/>
<polygon fill="none" stroke="#000000" points="102.5,-190.7 102.5,-209.7 155.5,-209.7 155.5,-190.7 102.5,-190.7"/>
<text text-anchor="start" x="146.3862" y="-196.8" font-family="Helvetica,sans-Serif" font-size="11.00" fill="#000000"> &#160;</text>
<polygon fill="#ffffff" stroke="transparent" points="155.5,-190.7 155.5,-209.7 217.5,-209.7 217.5,-190.7 155.5,-190.7"/>
<polygon fill="none" stroke="#000000" points="155.5,-190.7 155.5,-209.7 217.5,-209.7 217.5,-190.7 155.5,-190.7"/>
<text text-anchor="start" x="198.9053" y="-196.8" font-family="Helvetica,sans-Serif" font-size="11.00" fill="#000000">1 &gt;</text>
</a>
</g>
</g>
<!-- court_appearance&#45;&gt;court_appearance_status -->
<g id="edge3" class="edge">
<title>court_appearance:w&#45;&gt;court_appearance_status:e</title>
<path fill="none" stroke="#000000" d="M254.3875,-400.238C222.4655,-380.5628 269.5646,-283.7 217.5,-283.7"/>
<polygon fill="#000000" stroke="#000000" points="260.7304,-401.794 267.6423,-407.1963 264.6152,-402.747 268.5,-403.7 268.5,-403.7 268.5,-403.7 264.6152,-402.747 269.3577,-400.2037 260.7304,-401.794 260.7304,-401.794"/>
<ellipse fill="none" stroke="#000000" cx="257.6225" cy="-401.0316" rx="3.2" ry="3.2"/>
</g>
<!-- person_summary -->
<g id="node8" class="node">
<title>person_summary</title>
<g id="a_node8"><a xlink:href="../../tables/person_summary.html" xlink:title="person_summary" target="_top">
<polygon fill="#ffffff" stroke="transparent" points="36.5,-497.2 36.5,-580.2 190.5,-580.2 190.5,-497.2 36.5,-497.2"/>
<polygon fill="#f5f5f5" stroke="transparent" points="36.5,-556.7 36.5,-579.7 190.5,-579.7 190.5,-556.7 36.5,-556.7"/>
<polygon fill="none" stroke="#000000" points="36.5,-556.7 36.5,-579.7 190.5,-579.7 190.5,-556.7 36.5,-556.7"/>
<text text-anchor="start" x="41.5" y="-565.3" font-family="Helvetica,sans-Serif" font-weight="bold" font-size="11.00" fill="#000000">person_summary</text>
<text text-anchor="start" x="156.0219" y="-564.8" font-family="Helvetica,sans-Serif" font-size="11.00" fill="#000000">[table]</text>
<polygon fill="none" stroke="#000000" points="36.5,-534.7 36.5,-556.7 190.5,-556.7 190.5,-534.7 36.5,-534.7"/>
<image xlink:href="../../images/primaryKeys.png" width="11px" height="12px" preserveAspectRatio="xMinYMin meet" x="41.5" y="-551.7"/>
<text text-anchor="start" x="65.5" y="-541.8" font-family="Helvetica,sans-Serif" font-size="11.00" fill="#000000">person_identifier</text>
<polygon fill="none" stroke="#000000" points="36.5,-515.7 36.5,-534.7 190.5,-534.7 190.5,-515.7 36.5,-515.7"/>
<text text-anchor="start" x="39.5" y="-521.8" font-family="Helvetica,sans-Serif" font-size="11.00" fill="#000000">...</text>
<polygon fill="#ffffff" stroke="transparent" points="36.5,-496.7 36.5,-515.7 102.5,-515.7 102.5,-496.7 36.5,-496.7"/>
<polygon fill="none" stroke="#000000" points="36.5,-496.7 36.5,-515.7 102.5,-515.7 102.5,-496.7 36.5,-496.7"/>
<text text-anchor="start" x="39.5" y="-502.8" font-family="Helvetica,sans-Serif" font-size="11.00" fill="#000000"> &#160;</text>
<polygon fill="#ffffff" stroke="transparent" points="102.5,-496.7 102.5,-515.7 141.5,-515.7 141.5,-496.7 102.5,-496.7"/>
<polygon fill="none" stroke="#000000" points="102.5,-496.7 102.5,-515.7 141.5,-515.7 141.5,-496.7 102.5,-496.7"/>
<text text-anchor="start" x="132.3862" y="-502.8" font-family="Helvetica,sans-Serif" font-size="11.00" fill="#000000"> &#160;</text>
<polygon fill="#ffffff" stroke="transparent" points="141.5,-496.7 141.5,-515.7 190.5,-515.7 190.5,-496.7 141.5,-496.7"/>
<polygon fill="none" stroke="#000000" points="141.5,-496.7 141.5,-515.7 190.5,-515.7 190.5,-496.7 141.5,-496.7"/>
<text text-anchor="start" x="171.9053" y="-502.8" font-family="Helvetica,sans-Serif" font-size="11.00" fill="#000000">2 &gt;</text>
</a>
</g>
</g>
<!-- court_appearance&#45;&gt;person_summary -->
<g id="edge1" class="edge">
<title>court_appearance:w&#45;&gt;person_summary:e</title>
<path fill="none" stroke="#000000" d="M254.0363,-472.5865C223.5825,-486.4688 233.2295,-545.7 190.5,-545.7"/>
<polygon fill="#000000" stroke="#000000" points="260.6547,-471.2657 269.2046,-473.2304 264.5774,-470.4829 268.5,-469.7 268.5,-469.7 268.5,-469.7 264.5774,-470.4829 267.7954,-466.1696 260.6547,-471.2657 260.6547,-471.2657"/>
<ellipse fill="none" stroke="#000000" cx="257.5166" cy="-471.892" rx="3.2" ry="3.2"/>
</g>
<!-- court_appearance_movement -->
<g id="node4" class="node">
<title>court_appearance_movement</title>
<g id="a_node4"><a xlink:href="../../tables/court_appearance_movement.html" xlink:title="court_appearance_movement" target="_top">
<polygon fill="#ffffff" stroke="transparent" points="496.5,-440.2 496.5,-589.2 733.5,-589.2 733.5,-440.2 496.5,-440.2"/>
<polygon fill="#f5f5f5" stroke="transparent" points="497,-565.7 497,-588.7 734,-588.7 734,-565.7 497,-565.7"/>
<polygon fill="none" stroke="#000000" points="497,-565.7 497,-588.7 734,-588.7 734,-565.7 497,-565.7"/>
<text text-anchor="start" x="502" y="-574.3" font-family="Helvetica,sans-Serif" font-weight="bold" font-size="11.00" fill="#000000">court_appearance_movement</text>
<text text-anchor="start" x="699.5219" y="-573.8" font-family="Helvetica,sans-Serif" font-size="11.00" fill="#000000">[table]</text>
<polygon fill="none" stroke="#000000" points="497,-543.7 497,-565.7 734,-565.7 734,-543.7 497,-543.7"/>
<image xlink:href="../../images/primaryKeys.png" width="11px" height="12px" preserveAspectRatio="xMinYMin meet" x="502" y="-560.7"/>
<text text-anchor="start" x="526" y="-550.8" font-family="Helvetica,sans-Serif" font-size="11.00" fill="#000000">id</text>
<polygon fill="none" stroke="#000000" points="497,-521.7 497,-543.7 734,-543.7 734,-521.7 497,-521.7"/>
<image xlink:href="../../images/foreignKeys.png" width="11px" height="12px" preserveAspectRatio="xMinYMin meet" x="502" y="-538.7"/>
<text text-anchor="start" x="526" y="-528.8" font-family="Helvetica,sans-Serif" font-size="11.00" fill="#000000">court_appearance_id</text>
<polygon fill="#ffffff" stroke="transparent" points="497,-499.7 497,-521.7 734,-521.7 734,-499.7 497,-499.7"/>
<polygon fill="none" stroke="#000000" points="497,-499.7 497,-521.7 734,-521.7 734,-499.7 497,-499.7"/>
<image xlink:href="../../images/foreignKeys.png" width="11px" height="12px" preserveAspectRatio="xMinYMin meet" x="502" y="-516.7"/>
<text text-anchor="start" x="526" y="-506.8" font-family="Helvetica,sans-Serif" font-size="11.00" fill="#000000">person_identifier</text>
<polygon fill="#ffffff" stroke="transparent" points="497,-477.7 497,-499.7 734,-499.7 734,-477.7 497,-477.7"/>
<polygon fill="none" stroke="#000000" points="497,-477.7 497,-499.7 734,-499.7 734,-477.7 497,-477.7"/>
<text text-anchor="start" x="526" y="-484.8" font-family="Helvetica,sans-Serif" font-size="11.00" fill="#000000">legacy_id</text>
<polygon fill="none" stroke="#000000" points="497,-458.7 497,-477.7 734,-477.7 734,-458.7 497,-458.7"/>
<text text-anchor="start" x="500" y="-464.8" font-family="Helvetica,sans-Serif" font-size="11.00" fill="#000000">...</text>
<polygon fill="#ffffff" stroke="transparent" points="497,-439.7 497,-458.7 614,-458.7 614,-439.7 497,-439.7"/>
<polygon fill="none" stroke="#000000" points="497,-439.7 497,-458.7 614,-458.7 614,-439.7 497,-439.7"/>
<text text-anchor="start" x="500" y="-445.8" font-family="Helvetica,sans-Serif" font-size="11.00" fill="#000000">&lt; 2</text>
<polygon fill="#ffffff" stroke="transparent" points="614,-439.7 614,-458.7 674,-458.7 674,-439.7 614,-439.7"/>
<polygon fill="none" stroke="#000000" points="614,-439.7 614,-458.7 674,-458.7 674,-439.7 614,-439.7"/>
<text text-anchor="start" x="664.8862" y="-445.8" font-family="Helvetica,sans-Serif" font-size="11.00" fill="#000000"> &#160;</text>
<polygon fill="#ffffff" stroke="transparent" points="674,-439.7 674,-458.7 734,-458.7 734,-439.7 674,-439.7"/>
<polygon fill="none" stroke="#000000" points="674,-439.7 674,-458.7 734,-458.7 734,-439.7 674,-439.7"/>
<text text-anchor="start" x="724.8862" y="-445.8" font-family="Helvetica,sans-Serif" font-size="11.00" fill="#000000"> &#160;</text>
</a>
</g>
</g>
<!-- court_appearance_movement&#45;&gt;court_appearance -->
<g id="edge5" class="edge">
<title>court_appearance_movement:w&#45;&gt;court_appearance:e</title>
<path fill="none" stroke="#000000" d="M482.6883,-530.0099C460.9026,-520.8885 457.7596,-491.7 427.5,-491.7"/>
<polygon fill="#000000" stroke="#000000" points="489.1377,-531.2221 496.3349,-536.238 493.0688,-531.9611 497,-532.7 497,-532.7 497,-532.7 493.0688,-531.9611 497.6651,-529.162 489.1377,-531.2221 489.1377,-531.2221"/>
<ellipse fill="none" stroke="#000000" cx="485.9928" cy="-530.6309" rx="3.2" ry="3.2"/>
</g>
<!-- court_appearance_movement&#45;&gt;person_summary -->
<g id="edge6" class="edge">
<title>court_appearance_movement:w&#45;&gt;person_summary:e</title>
<path fill="none" stroke="#000000" d="M482.6831,-512.5483C465.0947,-517.5764 458.7088,-531.4745 435,-536.7 328.8085,-560.1051 299.2403,-545.7 190.5,-545.7"/>
<polygon fill="#000000" stroke="#000000" points="489.0658,-511.7243 497.461,-514.2704 493.0329,-511.2122 497,-510.7 497,-510.7 497,-510.7 493.0329,-511.2122 496.539,-507.1296 489.0658,-511.7243 489.0658,-511.7243"/>
<ellipse fill="none" stroke="#000000" cx="485.8922" cy="-512.1341" rx="3.2" ry="3.2"/>
</g>
<!-- court_appearance_movement_audit -->
<g id="node6" class="node">
<title>court_appearance_movement_audit</title>
<g id="a_node6"><a xlink:href="../../tables/court_appearance_movement_audit.html" xlink:title="court_appearance_movement_audit" target="_top">
<polygon fill="#ffffff" stroke="transparent" points="476,-38.2 476,-165.2 754,-165.2 754,-38.2 476,-38.2"/>
<polygon fill="#f5f5f5" stroke="transparent" points="476,-141.7 476,-164.7 754,-164.7 754,-141.7 476,-141.7"/>
<polygon fill="none" stroke="#000000" points="476,-141.7 476,-164.7 754,-164.7 754,-141.7 476,-141.7"/>
<text text-anchor="start" x="481" y="-150.3" font-family="Helvetica,sans-Serif" font-weight="bold" font-size="11.00" fill="#000000">court_appearance_movement_audit</text>
<text text-anchor="start" x="719.5219" y="-149.8" font-family="Helvetica,sans-Serif" font-size="11.00" fill="#000000">[table]</text>
<polygon fill="none" stroke="#000000" points="476,-119.7 476,-141.7 754,-141.7 754,-119.7 476,-119.7"/>
<image xlink:href="../../images/primaryKeys.png" width="11px" height="12px" preserveAspectRatio="xMinYMin meet" x="481" y="-136.7"/>
<text text-anchor="start" x="505" y="-126.8" font-family="Helvetica,sans-Serif" font-size="11.00" fill="#000000">rev_id</text>
<polygon fill="none" stroke="#000000" points="476,-97.7 476,-119.7 754,-119.7 754,-97.7 476,-97.7"/>
<image xlink:href="../../images/primaryKeys.png" width="11px" height="12px" preserveAspectRatio="xMinYMin meet" x="481" y="-114.7"/>
<text text-anchor="start" x="505" y="-104.8" font-family="Helvetica,sans-Serif" font-size="11.00" fill="#000000">id</text>
<polygon fill="none" stroke="#000000" points="476,-75.7 476,-97.7 754,-97.7 754,-75.7 476,-75.7"/>
<image xlink:href="../../images/foreignKeys.png" width="11px" height="12px" preserveAspectRatio="xMinYMin meet" x="481" y="-92.7"/>
<text text-anchor="start" x="505" y="-82.8" font-family="Helvetica,sans-Serif" font-size="11.00" fill="#000000">person_identifier</text>
<polygon fill="none" stroke="#000000" points="476,-56.7 476,-75.7 754,-75.7 754,-56.7 476,-56.7"/>
<text text-anchor="start" x="479" y="-62.8" font-family="Helvetica,sans-Serif" font-size="11.00" fill="#000000">...</text>
<polygon fill="#ffffff" stroke="transparent" points="476,-37.7 476,-56.7 613,-56.7 613,-37.7 476,-37.7"/>
<polygon fill="none" stroke="#000000" points="476,-37.7 476,-56.7 613,-56.7 613,-37.7 476,-37.7"/>
<text text-anchor="start" x="479" y="-43.8" font-family="Helvetica,sans-Serif" font-size="11.00" fill="#000000">&lt; 1</text>
<polygon fill="#ffffff" stroke="transparent" points="613,-37.7 613,-56.7 683,-56.7 683,-37.7 613,-37.7"/>
<polygon fill="none" stroke="#000000" points="613,-37.7 613,-56.7 683,-56.7 683,-37.7 613,-37.7"/>
<text text-anchor="start" x="673.8862" y="-43.8" font-family="Helvetica,sans-Serif" font-size="11.00" fill="#000000"> &#160;</text>
<polygon fill="#ffffff" stroke="transparent" points="683,-37.7 683,-56.7 754,-56.7 754,-37.7 683,-37.7"/>
<polygon fill="none" stroke="#000000" points="683,-37.7 683,-56.7 754,-56.7 754,-37.7 683,-37.7"/>
<text text-anchor="start" x="744.8862" y="-43.8" font-family="Helvetica,sans-Serif" font-size="11.00" fill="#000000"> &#160;</text>
</a>
</g>
</g>
<!-- court_appearance_movement_audit&#45;&gt;audit_revision -->
<g id="edge7" class="edge">
<title>court_appearance_movement_audit:w&#45;&gt;audit_revision:e</title>
<path fill="none" stroke="#000000" d="M461.7188,-134.482C436.6392,-150.7192 454.4936,-213.7 414.5,-213.7"/>
<polygon fill="#000000" stroke="#000000" points="468.2666,-132.748 476.9216,-134.18 472.1333,-131.724 476,-130.7 476,-130.7 476,-130.7 472.1333,-131.724 475.0784,-127.22 468.2666,-132.748 468.2666,-132.748"/>
<ellipse fill="none" stroke="#000000" cx="465.1732" cy="-133.5673" rx="3.2" ry="3.2"/>
</g>
</g>
</svg>
