<?xml version="1.0" encoding="UTF-8" standalone="no"?>
<!DOCTYPE svg PUBLIC "-//W3C//DTD SVG 1.1//EN"
 "http://www.w3.org/Graphics/SVG/1.1/DTD/svg11.dtd">
<!-- Generated by graphviz version 2.40.1 (20161225.0304)
 -->
<!-- Title: largeImpliedRelationshipsDiagram Pages: 1 -->
<svg width="848pt" height="1291pt"
 viewBox="0.00 0.00 848.00 1291.20" xmlns="http://www.w3.org/2000/svg" xmlns:xlink="http://www.w3.org/1999/xlink">
<g id="graph0" class="graph" transform="scale(1 1) rotate(0) translate(4 1287.2)">
<title>largeImpliedRelationshipsDiagram</title>
<polygon fill="#ffffff" stroke="transparent" points="-4,4 -4,-1287.2 844,-1287.2 844,4 -4,4"/>
<text text-anchor="middle" x="72.4936" y="-7.3" font-family="Helvetica,sans-Serif" font-size="11.00" fill="#000000">Generated by SchemaSpy</text>
<!-- court_appearance_audit -->
<g id="node1" class="node">
<title>court_appearance_audit</title>
<g id="a_node1"><a xlink:href="../../tables/court_appearance_audit.html" xlink:title="court_appearance_audit" target="_top">
<polygon fill="#ffffff" stroke="transparent" points="307,-907.2 307,-1279.2 507,-1279.2 507,-907.2 307,-907.2"/>
<polygon fill="#f5f5f5" stroke="transparent" points="307,-1256.2 307,-1279.2 507,-1279.2 507,-1256.2 307,-1256.2"/>
<polygon fill="none" stroke="#000000" points="307,-1256.2 307,-1279.2 507,-1279.2 507,-1256.2 307,-1256.2"/>
<text text-anchor="start" x="312" y="-1264.8" font-family="Helvetica,sans-Serif" font-weight="bold" font-size="11.00" fill="#000000">court_appearance_audit</text>
<text text-anchor="start" x="472.5219" y="-1264.3" font-family="Helvetica,sans-Serif" font-size="11.00" fill="#000000">[table]</text>
<polygon fill="none" stroke="#000000" points="307,-1234.2 307,-1256.2 507,-1256.2 507,-1234.2 307,-1234.2"/>
<image xlink:href="../../images/primaryKeys.png" width="11px" height="12px" preserveAspectRatio="xMinYMin meet" x="312" y="-1251.2"/>
<text text-anchor="start" x="336" y="-1241.3" font-family="Helvetica,sans-Serif" font-size="11.00" fill="#000000">rev_id</text>
<polygon fill="none" stroke="#000000" points="307,-1212.2 307,-1234.2 507,-1234.2 507,-1212.2 307,-1212.2"/>
<text text-anchor="start" x="336" y="-1219.3" font-family="Helvetica,sans-Serif" font-size="11.00" fill="#000000">rev_type</text>
<polygon fill="none" stroke="#000000" points="307,-1190.2 307,-1212.2 507,-1212.2 507,-1190.2 307,-1190.2"/>
<image xlink:href="../../images/primaryKeys.png" width="11px" height="12px" preserveAspectRatio="xMinYMin meet" x="312" y="-1207.2"/>
<text text-anchor="start" x="336" y="-1197.3" font-family="Helvetica,sans-Serif" font-size="11.00" fill="#000000">id</text>
<polygon fill="none" stroke="#000000" points="307,-1168.2 307,-1190.2 507,-1190.2 507,-1168.2 307,-1168.2"/>
<text text-anchor="start" x="336" y="-1175.3" font-family="Helvetica,sans-Serif" font-size="11.00" fill="#000000">version</text>
<polygon fill="none" stroke="#000000" points="307,-1146.2 307,-1168.2 507,-1168.2 507,-1146.2 307,-1146.2"/>
<image xlink:href="../../images/foreignKeys.png" width="11px" height="12px" preserveAspectRatio="xMinYMin meet" x="312" y="-1163.2"/>
<text text-anchor="start" x="336" y="-1153.3" font-family="Helvetica,sans-Serif" font-size="11.00" fill="#000000">person_identifier</text>
<polygon fill="none" stroke="#000000" points="307,-1124.2 307,-1146.2 507,-1146.2 507,-1124.2 307,-1124.2"/>
<text text-anchor="start" x="336" y="-1131.3" font-family="Helvetica,sans-Serif" font-size="11.00" fill="#000000">prison_code</text>
<polygon fill="none" stroke="#000000" points="307,-1102.2 307,-1124.2 507,-1124.2 507,-1102.2 307,-1102.2"/>
<text text-anchor="start" x="336" y="-1109.3" font-family="Helvetica,sans-Serif" font-size="11.00" fill="#000000">court_code</text>
<polygon fill="none" stroke="#000000" points="307,-1080.2 307,-1102.2 507,-1102.2 507,-1080.2 307,-1080.2"/>
<text text-anchor="start" x="336" y="-1087.3" font-family="Helvetica,sans-Serif" font-size="11.00" fill="#000000">reason_id</text>
<polygon fill="none" stroke="#000000" points="307,-1058.2 307,-1080.2 507,-1080.2 507,-1058.2 307,-1058.2"/>
<text text-anchor="start" x="336" y="-1065.3" font-family="Helvetica,sans-Serif" font-size="11.00" fill="#000000">external</text>
<polygon fill="none" stroke="#000000" points="307,-1036.2 307,-1058.2 507,-1058.2 507,-1036.2 307,-1036.2"/>
<text text-anchor="start" x="336" y="-1043.3" font-family="Helvetica,sans-Serif" font-size="11.00" fill="#000000">status_id</text>
<polygon fill="none" stroke="#000000" points="307,-1014.2 307,-1036.2 507,-1036.2 507,-1014.2 307,-1014.2"/>
<text text-anchor="start" x="336" y="-1021.3" font-family="Helvetica,sans-Serif" font-size="11.00" fill="#000000">start</text>
<polygon fill="none" stroke="#000000" points="307,-992.2 307,-1014.2 507,-1014.2 507,-992.2 307,-992.2"/>
<text text-anchor="start" x="336" y="-999.3" font-family="Helvetica,sans-Serif" font-size="11.00" fill="#000000">end</text>
<polygon fill="none" stroke="#000000" points="307,-970.2 307,-992.2 507,-992.2 507,-970.2 307,-970.2"/>
<text text-anchor="start" x="336" y="-977.3" font-family="Helvetica,sans-Serif" font-size="11.00" fill="#000000">comments</text>
<polygon fill="none" stroke="#000000" points="307,-948.2 307,-970.2 507,-970.2 507,-948.2 307,-948.2"/>
<image xlink:href="../../images/foreignKeys.png" width="11px" height="12px" preserveAspectRatio="xMinYMin meet" x="312" y="-965.2"/>
<text text-anchor="start" x="336" y="-955.3" font-family="Helvetica,sans-Serif" font-size="11.00" fill="#000000">legacy_id</text>
<polygon fill="none" stroke="#000000" points="307,-926.2 307,-948.2 507,-948.2 507,-926.2 307,-926.2"/>
<text text-anchor="start" x="336" y="-933.3" font-family="Helvetica,sans-Serif" font-size="11.00" fill="#000000">external_reference</text>
<polygon fill="#ffffff" stroke="transparent" points="307,-907.2 307,-926.2 405,-926.2 405,-907.2 307,-907.2"/>
<polygon fill="none" stroke="#000000" points="307,-907.2 307,-926.2 405,-926.2 405,-907.2 307,-907.2"/>
<text text-anchor="start" x="310" y="-913.3" font-family="Helvetica,sans-Serif" font-size="11.00" fill="#000000">&lt; 1</text>
<polygon fill="#ffffff" stroke="transparent" points="405,-907.2 405,-926.2 456,-926.2 456,-907.2 405,-907.2"/>
<polygon fill="none" stroke="#000000" points="405,-907.2 405,-926.2 456,-926.2 456,-907.2 405,-907.2"/>
<text text-anchor="start" x="446.8862" y="-913.3" font-family="Helvetica,sans-Serif" font-size="11.00" fill="#000000"> &#160;</text>
<polygon fill="#ffffff" stroke="transparent" points="456,-907.2 456,-926.2 507,-926.2 507,-907.2 456,-907.2"/>
<polygon fill="none" stroke="#000000" points="456,-907.2 456,-926.2 507,-926.2 507,-907.2 456,-907.2"/>
<text text-anchor="start" x="497.8862" y="-913.3" font-family="Helvetica,sans-Serif" font-size="11.00" fill="#000000"> &#160;</text>
</a>
</g>
</g>
<!-- audit_revision -->
<g id="node7" class="node">
<title>audit_revision</title>
<g id="a_node7"><a xlink:href="../../tables/audit_revision.html" xlink:title="audit_revision" target="_top">
<polygon fill="#ffffff" stroke="transparent" points="46.5,-743.2 46.5,-939.2 180.5,-939.2 180.5,-743.2 46.5,-743.2"/>
<polygon fill="#f5f5f5" stroke="transparent" points="46.5,-916.2 46.5,-939.2 180.5,-939.2 180.5,-916.2 46.5,-916.2"/>
<polygon fill="none" stroke="#000000" points="46.5,-916.2 46.5,-939.2 180.5,-939.2 180.5,-916.2 46.5,-916.2"/>
<text text-anchor="start" x="51.5" y="-924.8" font-family="Helvetica,sans-Serif" font-weight="bold" font-size="11.00" fill="#000000">audit_revision</text>
<text text-anchor="start" x="146.0219" y="-924.3" font-family="Helvetica,sans-Serif" font-size="11.00" fill="#000000">[table]</text>
<polygon fill="none" stroke="#000000" points="46.5,-894.2 46.5,-916.2 180.5,-916.2 180.5,-894.2 46.5,-894.2"/>
<image xlink:href="../../images/primaryKeys.png" width="11px" height="12px" preserveAspectRatio="xMinYMin meet" x="51.5" y="-911.2"/>
<text text-anchor="start" x="66.5" y="-901.3" font-family="Helvetica,sans-Serif" font-size="11.00" fill="#000000">id</text>
<polygon fill="none" stroke="#000000" points="46.5,-872.2 46.5,-894.2 180.5,-894.2 180.5,-872.2 46.5,-872.2"/>
<text text-anchor="start" x="66.5" y="-879.3" font-family="Helvetica,sans-Serif" font-size="11.00" fill="#000000">timestamp</text>
<polygon fill="none" stroke="#000000" points="46.5,-850.2 46.5,-872.2 180.5,-872.2 180.5,-850.2 46.5,-850.2"/>
<text text-anchor="start" x="66.5" y="-857.3" font-family="Helvetica,sans-Serif" font-size="11.00" fill="#000000">source</text>
<polygon fill="none" stroke="#000000" points="46.5,-828.2 46.5,-850.2 180.5,-850.2 180.5,-828.2 46.5,-828.2"/>
<text text-anchor="start" x="66.5" y="-835.3" font-family="Helvetica,sans-Serif" font-size="11.00" fill="#000000">affected_entities</text>
<polygon fill="none" stroke="#000000" points="46.5,-806.2 46.5,-828.2 180.5,-828.2 180.5,-806.2 46.5,-806.2"/>
<text text-anchor="start" x="66.5" y="-813.3" font-family="Helvetica,sans-Serif" font-size="11.00" fill="#000000">username</text>
<polygon fill="none" stroke="#000000" points="46.5,-784.2 46.5,-806.2 180.5,-806.2 180.5,-784.2 46.5,-784.2"/>
<text text-anchor="start" x="66.5" y="-791.3" font-family="Helvetica,sans-Serif" font-size="11.00" fill="#000000">caseload_id</text>
<polygon fill="none" stroke="#000000" points="46.5,-762.2 46.5,-784.2 180.5,-784.2 180.5,-762.2 46.5,-762.2"/>
<text text-anchor="start" x="66.5" y="-769.3" font-family="Helvetica,sans-Serif" font-size="11.00" fill="#000000">reason</text>
<polygon fill="#ffffff" stroke="transparent" points="46.5,-743.2 46.5,-762.2 102.5,-762.2 102.5,-743.2 46.5,-743.2"/>
<polygon fill="none" stroke="#000000" points="46.5,-743.2 46.5,-762.2 102.5,-762.2 102.5,-743.2 46.5,-743.2"/>
<text text-anchor="start" x="49.5" y="-749.3" font-family="Helvetica,sans-Serif" font-size="11.00" fill="#000000"> &#160;</text>
<polygon fill="#ffffff" stroke="transparent" points="102.5,-743.2 102.5,-762.2 136.5,-762.2 136.5,-743.2 102.5,-743.2"/>
<polygon fill="none" stroke="#000000" points="102.5,-743.2 102.5,-762.2 136.5,-762.2 136.5,-743.2 102.5,-743.2"/>
<text text-anchor="start" x="127.3862" y="-749.3" font-family="Helvetica,sans-Serif" font-size="11.00" fill="#000000"> &#160;</text>
<polygon fill="#ffffff" stroke="transparent" points="136.5,-743.2 136.5,-762.2 180.5,-762.2 180.5,-743.2 136.5,-743.2"/>
<polygon fill="none" stroke="#000000" points="136.5,-743.2 136.5,-762.2 180.5,-762.2 180.5,-743.2 136.5,-743.2"/>
<text text-anchor="start" x="161.9053" y="-749.3" font-family="Helvetica,sans-Serif" font-size="11.00" fill="#000000">2 &gt;</text>
</a>
</g>
</g>
<!-- court_appearance_audit&#45;&gt;audit_revision -->
<g id="edge5" class="edge">
<title>court_appearance_audit:w&#45;&gt;audit_revision:e</title>
<path fill="none" stroke="#000000" stroke-dasharray="5,2" d="M292.4281,-958.0721C244.7208,-950.3176 236.3771,-905.2 180.5,-905.2"/>
<polygon fill="#000000" stroke="#000000" points="299.0239,-958.5826 306.7222,-962.7893 303.0119,-958.8913 307,-959.2 307,-959.2 307,-959.2 303.0119,-958.8913 307.2778,-955.6107 299.0239,-958.5826 299.0239,-958.5826"/>
<ellipse fill="none" stroke="#000000" cx="295.8334" cy="-958.3356" rx="3.2" ry="3.2"/>
</g>
<!-- court_appearance_audit&#45;&gt;audit_revision -->
<g id="edge7" class="edge">
<title>court_appearance_audit:w&#45;&gt;audit_revision:e</title>
<path fill="none" stroke="#000000" d="M292.5012,-1244.1634C158.0282,-1223.639 336.5353,-905.2 180.5,-905.2"/>
<polygon fill="#000000" stroke="#000000" points="299.0204,-1244.6295 306.7433,-1248.7908 303.0102,-1244.9147 307,-1245.2 307,-1245.2 307,-1245.2 303.0102,-1244.9147 307.2567,-1241.6092 299.0204,-1244.6295 299.0204,-1244.6295"/>
<ellipse fill="none" stroke="#000000" cx="295.8285" cy="-1244.4012" rx="3.2" ry="3.2"/>
</g>
<!-- person_summary -->
<g id="node8" class="node">
<title>person_summary</title>
<g id="a_node8"><a xlink:href="../../tables/person_summary.html" xlink:title="person_summary" target="_top">
<polygon fill="#ffffff" stroke="transparent" points="36.5,-503.2 36.5,-677.2 190.5,-677.2 190.5,-503.2 36.5,-503.2"/>
<polygon fill="#f5f5f5" stroke="transparent" points="36.5,-654.2 36.5,-677.2 190.5,-677.2 190.5,-654.2 36.5,-654.2"/>
<polygon fill="none" stroke="#000000" points="36.5,-654.2 36.5,-677.2 190.5,-677.2 190.5,-654.2 36.5,-654.2"/>
<text text-anchor="start" x="41.5" y="-662.8" font-family="Helvetica,sans-Serif" font-weight="bold" font-size="11.00" fill="#000000">person_summary</text>
<text text-anchor="start" x="156.0219" y="-662.3" font-family="Helvetica,sans-Serif" font-size="11.00" fill="#000000">[table]</text>
<polygon fill="none" stroke="#000000" points="36.5,-632.2 36.5,-654.2 190.5,-654.2 190.5,-632.2 36.5,-632.2"/>
<image xlink:href="../../images/primaryKeys.png" width="11px" height="12px" preserveAspectRatio="xMinYMin meet" x="41.5" y="-649.2"/>
<text text-anchor="start" x="65.5" y="-639.3" font-family="Helvetica,sans-Serif" font-size="11.00" fill="#000000">person_identifier</text>
<polygon fill="none" stroke="#000000" points="36.5,-610.2 36.5,-632.2 190.5,-632.2 190.5,-610.2 36.5,-610.2"/>
<text text-anchor="start" x="65.5" y="-617.3" font-family="Helvetica,sans-Serif" font-size="11.00" fill="#000000">version</text>
<polygon fill="none" stroke="#000000" points="36.5,-588.2 36.5,-610.2 190.5,-610.2 190.5,-588.2 36.5,-588.2"/>
<text text-anchor="start" x="65.5" y="-595.3" font-family="Helvetica,sans-Serif" font-size="11.00" fill="#000000">first_name</text>
<polygon fill="none" stroke="#000000" points="36.5,-566.2 36.5,-588.2 190.5,-588.2 190.5,-566.2 36.5,-566.2"/>
<text text-anchor="start" x="65.5" y="-573.3" font-family="Helvetica,sans-Serif" font-size="11.00" fill="#000000">last_name</text>
<polygon fill="none" stroke="#000000" points="36.5,-544.2 36.5,-566.2 190.5,-566.2 190.5,-544.2 36.5,-544.2"/>
<text text-anchor="start" x="65.5" y="-551.3" font-family="Helvetica,sans-Serif" font-size="11.00" fill="#000000">prison_code</text>
<polygon fill="none" stroke="#000000" points="36.5,-522.2 36.5,-544.2 190.5,-544.2 190.5,-522.2 36.5,-522.2"/>
<text text-anchor="start" x="65.5" y="-529.3" font-family="Helvetica,sans-Serif" font-size="11.00" fill="#000000">cell_location</text>
<polygon fill="#ffffff" stroke="transparent" points="36.5,-503.2 36.5,-522.2 102.5,-522.2 102.5,-503.2 36.5,-503.2"/>
<polygon fill="none" stroke="#000000" points="36.5,-503.2 36.5,-522.2 102.5,-522.2 102.5,-503.2 36.5,-503.2"/>
<text text-anchor="start" x="39.5" y="-509.3" font-family="Helvetica,sans-Serif" font-size="11.00" fill="#000000"> &#160;</text>
<polygon fill="#ffffff" stroke="transparent" points="102.5,-503.2 102.5,-522.2 141.5,-522.2 141.5,-503.2 102.5,-503.2"/>
<polygon fill="none" stroke="#000000" points="102.5,-503.2 102.5,-522.2 141.5,-522.2 141.5,-503.2 102.5,-503.2"/>
<text text-anchor="start" x="132.3862" y="-509.3" font-family="Helvetica,sans-Serif" font-size="11.00" fill="#000000"> &#160;</text>
<polygon fill="#ffffff" stroke="transparent" points="141.5,-503.2 141.5,-522.2 190.5,-522.2 190.5,-503.2 141.5,-503.2"/>
<polygon fill="none" stroke="#000000" points="141.5,-503.2 141.5,-522.2 190.5,-522.2 190.5,-503.2 141.5,-503.2"/>
<text text-anchor="start" x="171.9053" y="-509.3" font-family="Helvetica,sans-Serif" font-size="11.00" fill="#000000">2 &gt;</text>
</a>
</g>
</g>
<!-- court_appearance_audit&#45;&gt;person_summary -->
<g id="edge6" class="edge">
<title>court_appearance_audit:w&#45;&gt;person_summary:e</title>
<path fill="none" stroke="#000000" stroke-dasharray="5,2" d="M292.8803,-1154.3093C199.7752,-1113.0169 302.4725,-643.2 190.5,-643.2"/>
<polygon fill="#000000" stroke="#000000" points="299.1626,-1155.5954 306.2779,-1160.7269 303.0813,-1156.3977 307,-1157.2 307,-1157.2 307,-1157.2 303.0813,-1156.3977 307.7221,-1153.6731 299.1626,-1155.5954 299.1626,-1155.5954"/>
<ellipse fill="none" stroke="#000000" cx="296.0276" cy="-1154.9536" rx="3.2" ry="3.2"/>
</g>
<!-- court_appearance -->
<g id="node2" class="node">
<title>court_appearance</title>
<g id="a_node2"><a xlink:href="../../tables/court_appearance.html" xlink:title="court_appearance" target="_top">
<polygon fill="#ffffff" stroke="transparent" points="327.5,-209.2 327.5,-537.2 486.5,-537.2 486.5,-209.2 327.5,-209.2"/>
<polygon fill="#f5f5f5" stroke="transparent" points="328,-514.2 328,-537.2 487,-537.2 487,-514.2 328,-514.2"/>
<polygon fill="none" stroke="#000000" points="328,-514.2 328,-537.2 487,-537.2 487,-514.2 328,-514.2"/>
<text text-anchor="start" x="333" y="-522.8" font-family="Helvetica,sans-Serif" font-weight="bold" font-size="11.00" fill="#000000">court_appearance</text>
<text text-anchor="start" x="452.5219" y="-522.3" font-family="Helvetica,sans-Serif" font-size="11.00" fill="#000000">[table]</text>
<polygon fill="none" stroke="#000000" points="328,-492.2 328,-514.2 487,-514.2 487,-492.2 328,-492.2"/>
<image xlink:href="../../images/primaryKeys.png" width="11px" height="12px" preserveAspectRatio="xMinYMin meet" x="333" y="-509.2"/>
<text text-anchor="start" x="354" y="-499.3" font-family="Helvetica,sans-Serif" font-size="11.00" fill="#000000">id</text>
<polygon fill="none" stroke="#000000" points="328,-470.2 328,-492.2 487,-492.2 487,-470.2 328,-470.2"/>
<text text-anchor="start" x="354" y="-477.3" font-family="Helvetica,sans-Serif" font-size="11.00" fill="#000000">version</text>
<polygon fill="#ffffff" stroke="transparent" points="328,-448.2 328,-470.2 487,-470.2 487,-448.2 328,-448.2"/>
<polygon fill="none" stroke="#000000" points="328,-448.2 328,-470.2 487,-470.2 487,-448.2 328,-448.2"/>
<image xlink:href="../../images/foreignKeys.png" width="11px" height="12px" preserveAspectRatio="xMinYMin meet" x="333" y="-465.2"/>
<text text-anchor="start" x="354" y="-455.3" font-family="Helvetica,sans-Serif" font-size="11.00" fill="#000000">person_identifier</text>
<polygon fill="#ffffff" stroke="transparent" points="328,-426.2 328,-448.2 487,-448.2 487,-426.2 328,-426.2"/>
<polygon fill="none" stroke="#000000" points="328,-426.2 328,-448.2 487,-448.2 487,-426.2 328,-426.2"/>
<text text-anchor="start" x="354" y="-433.3" font-family="Helvetica,sans-Serif" font-size="11.00" fill="#000000">prison_code</text>
<polygon fill="none" stroke="#000000" points="328,-404.2 328,-426.2 487,-426.2 487,-404.2 328,-404.2"/>
<text text-anchor="start" x="354" y="-411.3" font-family="Helvetica,sans-Serif" font-size="11.00" fill="#000000">court_code</text>
<polygon fill="#ffffff" stroke="transparent" points="328,-382.2 328,-404.2 487,-404.2 487,-382.2 328,-382.2"/>
<polygon fill="none" stroke="#000000" points="328,-382.2 328,-404.2 487,-404.2 487,-382.2 328,-382.2"/>
<image xlink:href="../../images/foreignKeys.png" width="11px" height="12px" preserveAspectRatio="xMinYMin meet" x="333" y="-399.2"/>
<text text-anchor="start" x="354" y="-389.3" font-family="Helvetica,sans-Serif" font-size="11.00" fill="#000000">reason_id</text>
<polygon fill="none" stroke="#000000" points="328,-360.2 328,-382.2 487,-382.2 487,-360.2 328,-360.2"/>
<text text-anchor="start" x="354" y="-367.3" font-family="Helvetica,sans-Serif" font-size="11.00" fill="#000000">external</text>
<polygon fill="#ffffff" stroke="transparent" points="328,-338.2 328,-360.2 487,-360.2 487,-338.2 328,-338.2"/>
<polygon fill="none" stroke="#000000" points="328,-338.2 328,-360.2 487,-360.2 487,-338.2 328,-338.2"/>
<image xlink:href="../../images/foreignKeys.png" width="11px" height="12px" preserveAspectRatio="xMinYMin meet" x="333" y="-355.2"/>
<text text-anchor="start" x="354" y="-345.3" font-family="Helvetica,sans-Serif" font-size="11.00" fill="#000000">status_id</text>
<polygon fill="#ffffff" stroke="transparent" points="328,-316.2 328,-338.2 487,-338.2 487,-316.2 328,-316.2"/>
<polygon fill="none" stroke="#000000" points="328,-316.2 328,-338.2 487,-338.2 487,-316.2 328,-316.2"/>
<text text-anchor="start" x="354" y="-323.3" font-family="Helvetica,sans-Serif" font-size="11.00" fill="#000000">start</text>
<polygon fill="none" stroke="#000000" points="328,-294.2 328,-316.2 487,-316.2 487,-294.2 328,-294.2"/>
<text text-anchor="start" x="354" y="-301.3" font-family="Helvetica,sans-Serif" font-size="11.00" fill="#000000">end</text>
<polygon fill="none" stroke="#000000" points="328,-272.2 328,-294.2 487,-294.2 487,-272.2 328,-272.2"/>
<text text-anchor="start" x="354" y="-279.3" font-family="Helvetica,sans-Serif" font-size="11.00" fill="#000000">comments</text>
<polygon fill="#ffffff" stroke="transparent" points="328,-250.2 328,-272.2 487,-272.2 487,-250.2 328,-250.2"/>
<polygon fill="none" stroke="#000000" points="328,-250.2 328,-272.2 487,-272.2 487,-250.2 328,-250.2"/>
<image xlink:href="../../images/foreignKeys.png" width="11px" height="12px" preserveAspectRatio="xMinYMin meet" x="333" y="-267.2"/>
<text text-anchor="start" x="354" y="-257.3" font-family="Helvetica,sans-Serif" font-size="11.00" fill="#000000">legacy_id</text>
<polygon fill="#ffffff" stroke="transparent" points="328,-228.2 328,-250.2 487,-250.2 487,-228.2 328,-228.2"/>
<polygon fill="none" stroke="#000000" points="328,-228.2 328,-250.2 487,-250.2 487,-228.2 328,-228.2"/>
<text text-anchor="start" x="354" y="-235.3" font-family="Helvetica,sans-Serif" font-size="11.00" fill="#000000">external_reference</text>
<polygon fill="#ffffff" stroke="transparent" points="328,-209.2 328,-228.2 401,-228.2 401,-209.2 328,-209.2"/>
<polygon fill="none" stroke="#000000" points="328,-209.2 328,-228.2 401,-228.2 401,-209.2 328,-209.2"/>
<text text-anchor="start" x="331" y="-215.3" font-family="Helvetica,sans-Serif" font-size="11.00" fill="#000000">&lt; 3</text>
<polygon fill="#ffffff" stroke="transparent" points="401,-209.2 401,-228.2 439,-228.2 439,-209.2 401,-209.2"/>
<polygon fill="none" stroke="#000000" points="401,-209.2 401,-228.2 439,-228.2 439,-209.2 401,-209.2"/>
<text text-anchor="start" x="429.8862" y="-215.3" font-family="Helvetica,sans-Serif" font-size="11.00" fill="#000000"> &#160;</text>
<polygon fill="#ffffff" stroke="transparent" points="439,-209.2 439,-228.2 487,-228.2 487,-209.2 439,-209.2"/>
<polygon fill="none" stroke="#000000" points="439,-209.2 439,-228.2 487,-228.2 487,-209.2 439,-209.2"/>
<text text-anchor="start" x="468.4053" y="-215.3" font-family="Helvetica,sans-Serif" font-size="11.00" fill="#000000">1 &gt;</text>
</a>
</g>
</g>
<!-- court_appearance_reason -->
<g id="node3" class="node">
<title>court_appearance_reason</title>
<g id="a_node3"><a xlink:href="../../tables/court_appearance_reason.html" xlink:title="court_appearance_reason" target="_top">
<polygon fill="#ffffff" stroke="transparent" points="8,-38.2 8,-212.2 219,-212.2 219,-38.2 8,-38.2"/>
<polygon fill="#f5f5f5" stroke="transparent" points="8.5,-189.2 8.5,-212.2 219.5,-212.2 219.5,-189.2 8.5,-189.2"/>
<polygon fill="none" stroke="#000000" points="8.5,-189.2 8.5,-212.2 219.5,-212.2 219.5,-189.2 8.5,-189.2"/>
<text text-anchor="start" x="13.5" y="-197.8" font-family="Helvetica,sans-Serif" font-weight="bold" font-size="11.00" fill="#000000">court_appearance_reason</text>
<text text-anchor="start" x="185.0219" y="-197.3" font-family="Helvetica,sans-Serif" font-size="11.00" fill="#000000">[table]</text>
<polygon fill="none" stroke="#000000" points="8.5,-167.2 8.5,-189.2 219.5,-189.2 219.5,-167.2 8.5,-167.2"/>
<image xlink:href="../../images/primaryKeys.png" width="11px" height="12px" preserveAspectRatio="xMinYMin meet" x="13.5" y="-184.2"/>
<text text-anchor="start" x="37.5" y="-174.3" font-family="Helvetica,sans-Serif" font-size="11.00" fill="#000000">id</text>
<polygon fill="#ffffff" stroke="transparent" points="8.5,-145.2 8.5,-167.2 219.5,-167.2 219.5,-145.2 8.5,-145.2"/>
<polygon fill="none" stroke="#000000" points="8.5,-145.2 8.5,-167.2 219.5,-167.2 219.5,-145.2 8.5,-145.2"/>
<text text-anchor="start" x="37.5" y="-152.3" font-family="Helvetica,sans-Serif" font-size="11.00" fill="#000000">code</text>
<polygon fill="none" stroke="#000000" points="8.5,-123.2 8.5,-145.2 219.5,-145.2 219.5,-123.2 8.5,-123.2"/>
<text text-anchor="start" x="37.5" y="-130.3" font-family="Helvetica,sans-Serif" font-size="11.00" fill="#000000">description</text>
<polygon fill="#ffffff" stroke="transparent" points="8.5,-101.2 8.5,-123.2 219.5,-123.2 219.5,-101.2 8.5,-101.2"/>
<polygon fill="none" stroke="#000000" points="8.5,-101.2 8.5,-123.2 219.5,-123.2 219.5,-101.2 8.5,-101.2"/>
<text text-anchor="start" x="37.5" y="-108.3" font-family="Helvetica,sans-Serif" font-size="11.00" fill="#000000">sequence_number</text>
<polygon fill="none" stroke="#000000" points="8.5,-79.2 8.5,-101.2 219.5,-101.2 219.5,-79.2 8.5,-79.2"/>
<text text-anchor="start" x="37.5" y="-86.3" font-family="Helvetica,sans-Serif" font-size="11.00" fill="#000000">active</text>
<polygon fill="none" stroke="#000000" points="8.5,-57.2 8.5,-79.2 219.5,-79.2 219.5,-57.2 8.5,-57.2"/>
<text text-anchor="start" x="37.5" y="-64.3" font-family="Helvetica,sans-Serif" font-size="11.00" fill="#000000">external</text>
<polygon fill="#ffffff" stroke="transparent" points="8.5,-38.2 8.5,-57.2 103.5,-57.2 103.5,-38.2 8.5,-38.2"/>
<polygon fill="none" stroke="#000000" points="8.5,-38.2 8.5,-57.2 103.5,-57.2 103.5,-38.2 8.5,-38.2"/>
<text text-anchor="start" x="11.5" y="-44.3" font-family="Helvetica,sans-Serif" font-size="11.00" fill="#000000"> &#160;</text>
<polygon fill="#ffffff" stroke="transparent" points="103.5,-38.2 103.5,-57.2 156.5,-57.2 156.5,-38.2 103.5,-38.2"/>
<polygon fill="none" stroke="#000000" points="103.5,-38.2 103.5,-57.2 156.5,-57.2 156.5,-38.2 103.5,-38.2"/>
<text text-anchor="start" x="147.3862" y="-44.3" font-family="Helvetica,sans-Serif" font-size="11.00" fill="#000000"> &#160;</text>
<polygon fill="#ffffff" stroke="transparent" points="156.5,-38.2 156.5,-57.2 219.5,-57.2 219.5,-38.2 156.5,-38.2"/>
<polygon fill="none" stroke="#000000" points="156.5,-38.2 156.5,-57.2 219.5,-57.2 219.5,-38.2 156.5,-38.2"/>
<text text-anchor="start" x="200.9053" y="-44.3" font-family="Helvetica,sans-Serif" font-size="11.00" fill="#000000">2 &gt;</text>
</a>
</g>
</g>
<!-- court_appearance&#45;&gt;court_appearance_reason -->
<g id="edge3" class="edge">
<title>court_appearance:w&#45;&gt;court_appearance_reason:e</title>
<path fill="none" stroke="#000000" d="M313.5372,-391.6532C230.9543,-372.3173 321.2031,-178.2 219.5,-178.2"/>
<polygon fill="#000000" stroke="#000000" points="320.0454,-392.3492 327.6171,-396.7796 324.0227,-392.7746 328,-393.2 328,-393.2 328,-393.2 324.0227,-392.7746 328.3829,-389.6204 320.0454,-392.3492 320.0454,-392.3492"/>
<ellipse fill="none" stroke="#000000" cx="316.8635" cy="-392.0089" rx="3.2" ry="3.2"/>
</g>
<!-- court_appearance_status -->
<g id="node5" class="node">
<title>court_appearance_status</title>
<g id="a_node5"><a xlink:href="../../tables/court_appearance_status.html" xlink:title="court_appearance_status" target="_top">
<polygon fill="#ffffff" stroke="transparent" points="9.5,-253.2 9.5,-383.2 217.5,-383.2 217.5,-253.2 9.5,-253.2"/>
<polygon fill="#f5f5f5" stroke="transparent" points="9.5,-360.2 9.5,-383.2 217.5,-383.2 217.5,-360.2 9.5,-360.2"/>
<polygon fill="none" stroke="#000000" points="9.5,-360.2 9.5,-383.2 217.5,-383.2 217.5,-360.2 9.5,-360.2"/>
<text text-anchor="start" x="14.5" y="-368.8" font-family="Helvetica,sans-Serif" font-weight="bold" font-size="11.00" fill="#000000">court_appearance_status</text>
<text text-anchor="start" x="183.0219" y="-368.3" font-family="Helvetica,sans-Serif" font-size="11.00" fill="#000000">[table]</text>
<polygon fill="none" stroke="#000000" points="9.5,-338.2 9.5,-360.2 217.5,-360.2 217.5,-338.2 9.5,-338.2"/>
<image xlink:href="../../images/primaryKeys.png" width="11px" height="12px" preserveAspectRatio="xMinYMin meet" x="14.5" y="-355.2"/>
<text text-anchor="start" x="38.5" y="-345.3" font-family="Helvetica,sans-Serif" font-size="11.00" fill="#000000">id</text>
<polygon fill="#ffffff" stroke="transparent" points="9.5,-316.2 9.5,-338.2 217.5,-338.2 217.5,-316.2 9.5,-316.2"/>
<polygon fill="none" stroke="#000000" points="9.5,-316.2 9.5,-338.2 217.5,-338.2 217.5,-316.2 9.5,-316.2"/>
<text text-anchor="start" x="38.5" y="-323.3" font-family="Helvetica,sans-Serif" font-size="11.00" fill="#000000">code</text>
<polygon fill="none" stroke="#000000" points="9.5,-294.2 9.5,-316.2 217.5,-316.2 217.5,-294.2 9.5,-294.2"/>
<text text-anchor="start" x="38.5" y="-301.3" font-family="Helvetica,sans-Serif" font-size="11.00" fill="#000000">description</text>
<polygon fill="#ffffff" stroke="transparent" points="9.5,-272.2 9.5,-294.2 217.5,-294.2 217.5,-272.2 9.5,-272.2"/>
<polygon fill="none" stroke="#000000" points="9.5,-272.2 9.5,-294.2 217.5,-294.2 217.5,-272.2 9.5,-272.2"/>
<text text-anchor="start" x="38.5" y="-279.3" font-family="Helvetica,sans-Serif" font-size="11.00" fill="#000000">sequence_number</text>
<polygon fill="#ffffff" stroke="transparent" points="9.5,-253.2 9.5,-272.2 102.5,-272.2 102.5,-253.2 9.5,-253.2"/>
<polygon fill="none" stroke="#000000" points="9.5,-253.2 9.5,-272.2 102.5,-272.2 102.5,-253.2 9.5,-253.2"/>
<text text-anchor="start" x="12.5" y="-259.3" font-family="Helvetica,sans-Serif" font-size="11.00" fill="#000000"> &#160;</text>
<polygon fill="#ffffff" stroke="transparent" points="102.5,-253.2 102.5,-272.2 155.5,-272.2 155.5,-253.2 102.5,-253.2"/>
<polygon fill="none" stroke="#000000" points="102.5,-253.2 102.5,-272.2 155.5,-272.2 155.5,-253.2 102.5,-253.2"/>
<text text-anchor="start" x="146.3862" y="-259.3" font-family="Helvetica,sans-Serif" font-size="11.00" fill="#000000"> &#160;</text>
<polygon fill="#ffffff" stroke="transparent" points="155.5,-253.2 155.5,-272.2 217.5,-272.2 217.5,-253.2 155.5,-253.2"/>
<polygon fill="none" stroke="#000000" points="155.5,-253.2 155.5,-272.2 217.5,-272.2 217.5,-253.2 155.5,-253.2"/>
<text text-anchor="start" x="198.9053" y="-259.3" font-family="Helvetica,sans-Serif" font-size="11.00" fill="#000000">1 &gt;</text>
</a>
</g>
</g>
<!-- court_appearance&#45;&gt;court_appearance_status -->
<g id="edge4" class="edge">
<title>court_appearance:w&#45;&gt;court_appearance_status:e</title>
<path fill="none" stroke="#000000" d="M313.1109,-349.2C275.7625,-349.2 261.2396,-349.2 217.5,-349.2"/>
<polygon fill="#000000" stroke="#000000" points="320,-349.2001 328,-352.8 324,-349.2 328,-349.2 328,-349.2 328,-349.2 324,-349.2 328,-345.6 320,-349.2001 320,-349.2001"/>
<ellipse fill="none" stroke="#000000" cx="316.8" cy="-349.2001" rx="3.2" ry="3.2"/>
</g>
<!-- court_appearance&#45;&gt;audit_revision -->
<g id="edge1" class="edge">
<title>court_appearance:w&#45;&gt;audit_revision:e</title>
<path fill="none" stroke="#000000" stroke-dasharray="5,2" d="M317.3737,-262.4244C188.4152,-293.4879 323.589,-905.2 180.5,-905.2"/>
<polygon fill="#000000" stroke="#000000" points="326.7473,-257.3179 327.6632,-265.2653 326.0737,-265.4485 325.1579,-257.501 326.7473,-257.3179"/>
<polyline fill="none" stroke="#000000" points="328,-261.2 324.0263,-261.6579 "/>
<ellipse fill="none" stroke="#000000" cx="320.8473" cy="-262.0242" rx="3.2" ry="3.2"/>
</g>
<!-- court_appearance&#45;&gt;person_summary -->
<g id="edge2" class="edge">
<title>court_appearance:w&#45;&gt;person_summary:e</title>
<path fill="none" stroke="#000000" d="M313.4578,-460.6277C232.3611,-477.754 287.3051,-643.2 190.5,-643.2"/>
<polygon fill="#000000" stroke="#000000" points="320.0383,-459.9817 328.3518,-462.7828 324.0191,-459.5909 328,-459.2 328,-459.2 328,-459.2 324.0191,-459.5909 327.6482,-455.6172 320.0383,-459.9817 320.0383,-459.9817"/>
<ellipse fill="none" stroke="#000000" cx="316.8536" cy="-460.2944" rx="3.2" ry="3.2"/>
</g>
<!-- court_appearance_movement -->
<g id="node4" class="node">
<title>court_appearance_movement</title>
<g id="a_node4"><a xlink:href="../../tables/court_appearance_movement.html" xlink:title="court_appearance_movement" target="_top">
<polygon fill="#ffffff" stroke="transparent" points="595,-40.2 595,-324.2 832,-324.2 832,-40.2 595,-40.2"/>
<polygon fill="#f5f5f5" stroke="transparent" points="595.5,-301.2 595.5,-324.2 832.5,-324.2 832.5,-301.2 595.5,-301.2"/>
<polygon fill="none" stroke="#000000" points="595.5,-301.2 595.5,-324.2 832.5,-324.2 832.5,-301.2 595.5,-301.2"/>
<text text-anchor="start" x="600.5" y="-309.8" font-family="Helvetica,sans-Serif" font-weight="bold" font-size="11.00" fill="#000000">court_appearance_movement</text>
<text text-anchor="start" x="798.0219" y="-309.3" font-family="Helvetica,sans-Serif" font-size="11.00" fill="#000000">[table]</text>
<polygon fill="none" stroke="#000000" points="595.5,-279.2 595.5,-301.2 832.5,-301.2 832.5,-279.2 595.5,-279.2"/>
<image xlink:href="../../images/primaryKeys.png" width="11px" height="12px" preserveAspectRatio="xMinYMin meet" x="600.5" y="-296.2"/>
<text text-anchor="start" x="624.5" y="-286.3" font-family="Helvetica,sans-Serif" font-size="11.00" fill="#000000">id</text>
<polygon fill="none" stroke="#000000" points="595.5,-257.2 595.5,-279.2 832.5,-279.2 832.5,-257.2 595.5,-257.2"/>
<text text-anchor="start" x="624.5" y="-264.3" font-family="Helvetica,sans-Serif" font-size="11.00" fill="#000000">version</text>
<polygon fill="none" stroke="#000000" points="595.5,-235.2 595.5,-257.2 832.5,-257.2 832.5,-235.2 595.5,-235.2"/>
<image xlink:href="../../images/foreignKeys.png" width="11px" height="12px" preserveAspectRatio="xMinYMin meet" x="600.5" y="-252.2"/>
<text text-anchor="start" x="624.5" y="-242.3" font-family="Helvetica,sans-Serif" font-size="11.00" fill="#000000">court_appearance_id</text>
<polygon fill="#ffffff" stroke="transparent" points="595.5,-213.2 595.5,-235.2 832.5,-235.2 832.5,-213.2 595.5,-213.2"/>
<polygon fill="none" stroke="#000000" points="595.5,-213.2 595.5,-235.2 832.5,-235.2 832.5,-213.2 595.5,-213.2"/>
<image xlink:href="../../images/foreignKeys.png" width="11px" height="12px" preserveAspectRatio="xMinYMin meet" x="600.5" y="-230.2"/>
<text text-anchor="start" x="624.5" y="-220.3" font-family="Helvetica,sans-Serif" font-size="11.00" fill="#000000">person_identifier</text>
<polygon fill="none" stroke="#000000" points="595.5,-191.2 595.5,-213.2 832.5,-213.2 832.5,-191.2 595.5,-191.2"/>
<text text-anchor="start" x="624.5" y="-198.3" font-family="Helvetica,sans-Serif" font-size="11.00" fill="#000000">prison_code</text>
<polygon fill="none" stroke="#000000" points="595.5,-169.2 595.5,-191.2 832.5,-191.2 832.5,-169.2 595.5,-169.2"/>
<text text-anchor="start" x="624.5" y="-176.3" font-family="Helvetica,sans-Serif" font-size="11.00" fill="#000000">court_code</text>
<polygon fill="none" stroke="#000000" points="595.5,-147.2 595.5,-169.2 832.5,-169.2 832.5,-147.2 595.5,-147.2"/>
<image xlink:href="../../images/foreignKeys.png" width="11px" height="12px" preserveAspectRatio="xMinYMin meet" x="600.5" y="-164.2"/>
<text text-anchor="start" x="624.5" y="-154.3" font-family="Helvetica,sans-Serif" font-size="11.00" fill="#000000">reason_id</text>
<polygon fill="none" stroke="#000000" points="595.5,-125.2 595.5,-147.2 832.5,-147.2 832.5,-125.2 595.5,-125.2"/>
<text text-anchor="start" x="624.5" y="-132.3" font-family="Helvetica,sans-Serif" font-size="11.00" fill="#000000">direction</text>
<polygon fill="none" stroke="#000000" points="595.5,-103.2 595.5,-125.2 832.5,-125.2 832.5,-103.2 595.5,-103.2"/>
<text text-anchor="start" x="624.5" y="-110.3" font-family="Helvetica,sans-Serif" font-size="11.00" fill="#000000">occurred_at</text>
<polygon fill="none" stroke="#000000" points="595.5,-81.2 595.5,-103.2 832.5,-103.2 832.5,-81.2 595.5,-81.2"/>
<text text-anchor="start" x="624.5" y="-88.3" font-family="Helvetica,sans-Serif" font-size="11.00" fill="#000000">comments</text>
<polygon fill="#ffffff" stroke="transparent" points="595.5,-59.2 595.5,-81.2 832.5,-81.2 832.5,-59.2 595.5,-59.2"/>
<polygon fill="none" stroke="#000000" points="595.5,-59.2 595.5,-81.2 832.5,-81.2 832.5,-59.2 595.5,-59.2"/>
<text text-anchor="start" x="624.5" y="-66.3" font-family="Helvetica,sans-Serif" font-size="11.00" fill="#000000">legacy_id</text>
<polygon fill="#ffffff" stroke="transparent" points="595.5,-40.2 595.5,-59.2 712.5,-59.2 712.5,-40.2 595.5,-40.2"/>
<polygon fill="none" stroke="#000000" points="595.5,-40.2 595.5,-59.2 712.5,-59.2 712.5,-40.2 595.5,-40.2"/>
<text text-anchor="start" x="598.5" y="-46.3" font-family="Helvetica,sans-Serif" font-size="11.00" fill="#000000">&lt; 3</text>
<polygon fill="#ffffff" stroke="transparent" points="712.5,-40.2 712.5,-59.2 772.5,-59.2 772.5,-40.2 712.5,-40.2"/>
<polygon fill="none" stroke="#000000" points="712.5,-40.2 712.5,-59.2 772.5,-59.2 772.5,-40.2 712.5,-40.2"/>
<text text-anchor="start" x="763.3862" y="-46.3" font-family="Helvetica,sans-Serif" font-size="11.00" fill="#000000"> &#160;</text>
<polygon fill="#ffffff" stroke="transparent" points="772.5,-40.2 772.5,-59.2 832.5,-59.2 832.5,-40.2 772.5,-40.2"/>
<polygon fill="none" stroke="#000000" points="772.5,-40.2 772.5,-59.2 832.5,-59.2 832.5,-40.2 772.5,-40.2"/>
<text text-anchor="start" x="823.3862" y="-46.3" font-family="Helvetica,sans-Serif" font-size="11.00" fill="#000000"> &#160;</text>
</a>
</g>
</g>
<!-- court_appearance_movement&#45;&gt;court_appearance -->
<g id="edge8" class="edge">
<title>court_appearance_movement:w&#45;&gt;court_appearance:e</title>
<path fill="none" stroke="#000000" d="M580.9351,-247.5827C483.0149,-267.8114 605.6568,-503.2 487,-503.2"/>
<polygon fill="#000000" stroke="#000000" points="587.5358,-246.9561 595.8403,-249.7839 591.5179,-246.5781 595.5,-246.2 595.5,-246.2 595.5,-246.2 591.5179,-246.5781 595.1597,-242.6161 587.5358,-246.9561 587.5358,-246.9561"/>
<ellipse fill="none" stroke="#000000" cx="584.3501" cy="-247.2586" rx="3.2" ry="3.2"/>
</g>
<!-- court_appearance_movement&#45;&gt;court_appearance_reason -->
<g id="edge10" class="edge">
<title>court_appearance_movement:w&#45;&gt;court_appearance_reason:e</title>
<path fill="none" stroke="#000000" d="M580.9907,-158.2253C443.605,-158.7135 404.0652,-166.2155 260,-175.2 241.9857,-176.3234 237.5493,-178.2 219.5,-178.2"/>
<polygon fill="#000000" stroke="#000000" points="587.5,-158.214 595.5063,-161.8 591.5,-158.207 595.5,-158.2 595.5,-158.2 595.5,-158.2 591.5,-158.207 595.4937,-154.6 587.5,-158.214 587.5,-158.214"/>
<ellipse fill="none" stroke="#000000" cx="584.3" cy="-158.2196" rx="3.2" ry="3.2"/>
</g>
<!-- court_appearance_movement&#45;&gt;person_summary -->
<g id="edge9" class="edge">
<title>court_appearance_movement:w&#45;&gt;person_summary:e</title>
<path fill="none" stroke="#000000" d="M581.5792,-220.2123C572.6523,-214.0621 569.0353,-202.5209 554,-198.2 491.2082,-180.1548 309.6342,-155.716 260,-198.2 183.9627,-263.2836 290.5877,-643.2 190.5,-643.2"/>
<polygon fill="#000000" stroke="#000000" points="587.8093,-221.9969 594.5086,-227.6608 591.6547,-223.0985 595.5,-224.2 595.5,-224.2 595.5,-224.2 591.6547,-223.0985 596.4914,-220.7392 587.8093,-221.9969 587.8093,-221.9969"/>
<ellipse fill="none" stroke="#000000" cx="584.733" cy="-221.1157" rx="3.2" ry="3.2"/>
</g>
<!-- court_appearance_movement_audit -->
<g id="node6" class="node">
<title>court_appearance_movement_audit</title>
<g id="a_node6"><a xlink:href="../../tables/court_appearance_movement_audit.html" xlink:title="court_appearance_movement_audit" target="_top">
<polygon fill="#ffffff" stroke="transparent" points="268,-558.2 268,-886.2 546,-886.2 546,-558.2 268,-558.2"/>
<polygon fill="#f5f5f5" stroke="transparent" points="268,-863.2 268,-886.2 546,-886.2 546,-863.2 268,-863.2"/>
<polygon fill="none" stroke="#000000" points="268,-863.2 268,-886.2 546,-886.2 546,-863.2 268,-863.2"/>
<text text-anchor="start" x="273" y="-871.8" font-family="Helvetica,sans-Serif" font-weight="bold" font-size="11.00" fill="#000000">court_appearance_movement_audit</text>
<text text-anchor="start" x="511.5219" y="-871.3" font-family="Helvetica,sans-Serif" font-size="11.00" fill="#000000">[table]</text>
<polygon fill="none" stroke="#000000" points="268,-841.2 268,-863.2 546,-863.2 546,-841.2 268,-841.2"/>
<image xlink:href="../../images/primaryKeys.png" width="11px" height="12px" preserveAspectRatio="xMinYMin meet" x="273" y="-858.2"/>
<text text-anchor="start" x="297" y="-848.3" font-family="Helvetica,sans-Serif" font-size="11.00" fill="#000000">rev_id</text>
<polygon fill="none" stroke="#000000" points="268,-819.2 268,-841.2 546,-841.2 546,-819.2 268,-819.2"/>
<text text-anchor="start" x="297" y="-826.3" font-family="Helvetica,sans-Serif" font-size="11.00" fill="#000000">rev_type</text>
<polygon fill="none" stroke="#000000" points="268,-797.2 268,-819.2 546,-819.2 546,-797.2 268,-797.2"/>
<image xlink:href="../../images/primaryKeys.png" width="11px" height="12px" preserveAspectRatio="xMinYMin meet" x="273" y="-814.2"/>
<text text-anchor="start" x="297" y="-804.3" font-family="Helvetica,sans-Serif" font-size="11.00" fill="#000000">id</text>
<polygon fill="none" stroke="#000000" points="268,-775.2 268,-797.2 546,-797.2 546,-775.2 268,-775.2"/>
<text text-anchor="start" x="297" y="-782.3" font-family="Helvetica,sans-Serif" font-size="11.00" fill="#000000">version</text>
<polygon fill="none" stroke="#000000" points="268,-753.2 268,-775.2 546,-775.2 546,-753.2 268,-753.2"/>
<text text-anchor="start" x="297" y="-760.3" font-family="Helvetica,sans-Serif" font-size="11.00" fill="#000000">court_appearance_id</text>
<polygon fill="none" stroke="#000000" points="268,-731.2 268,-753.2 546,-753.2 546,-731.2 268,-731.2"/>
<image xlink:href="../../images/foreignKeys.png" width="11px" height="12px" preserveAspectRatio="xMinYMin meet" x="273" y="-748.2"/>
<text text-anchor="start" x="297" y="-738.3" font-family="Helvetica,sans-Serif" font-size="11.00" fill="#000000">person_identifier</text>
<polygon fill="none" stroke="#000000" points="268,-709.2 268,-731.2 546,-731.2 546,-709.2 268,-709.2"/>
<text text-anchor="start" x="297" y="-716.3" font-family="Helvetica,sans-Serif" font-size="11.00" fill="#000000">prison_code</text>
<polygon fill="none" stroke="#000000" points="268,-687.2 268,-709.2 546,-709.2 546,-687.2 268,-687.2"/>
<text text-anchor="start" x="297" y="-694.3" font-family="Helvetica,sans-Serif" font-size="11.00" fill="#000000">court_code</text>
<polygon fill="none" stroke="#000000" points="268,-665.2 268,-687.2 546,-687.2 546,-665.2 268,-665.2"/>
<text text-anchor="start" x="297" y="-672.3" font-family="Helvetica,sans-Serif" font-size="11.00" fill="#000000">reason_id</text>
<polygon fill="none" stroke="#000000" points="268,-643.2 268,-665.2 546,-665.2 546,-643.2 268,-643.2"/>
<text text-anchor="start" x="297" y="-650.3" font-family="Helvetica,sans-Serif" font-size="11.00" fill="#000000">direction</text>
<polygon fill="none" stroke="#000000" points="268,-621.2 268,-643.2 546,-643.2 546,-621.2 268,-621.2"/>
<text text-anchor="start" x="297" y="-628.3" font-family="Helvetica,sans-Serif" font-size="11.00" fill="#000000">occurred_at</text>
<polygon fill="none" stroke="#000000" points="268,-599.2 268,-621.2 546,-621.2 546,-599.2 268,-599.2"/>
<text text-anchor="start" x="297" y="-606.3" font-family="Helvetica,sans-Serif" font-size="11.00" fill="#000000">comments</text>
<polygon fill="none" stroke="#000000" points="268,-577.2 268,-599.2 546,-599.2 546,-577.2 268,-577.2"/>
<text text-anchor="start" x="297" y="-584.3" font-family="Helvetica,sans-Serif" font-size="11.00" fill="#000000">legacy_id</text>
<polygon fill="#ffffff" stroke="transparent" points="268,-558.2 268,-577.2 405,-577.2 405,-558.2 268,-558.2"/>
<polygon fill="none" stroke="#000000" points="268,-558.2 268,-577.2 405,-577.2 405,-558.2 268,-558.2"/>
<text text-anchor="start" x="271" y="-564.3" font-family="Helvetica,sans-Serif" font-size="11.00" fill="#000000">&lt; 1</text>
<polygon fill="#ffffff" stroke="transparent" points="405,-558.2 405,-577.2 475,-577.2 475,-558.2 405,-558.2"/>
<polygon fill="none" stroke="#000000" points="405,-558.2 405,-577.2 475,-577.2 475,-558.2 405,-558.2"/>
<text text-anchor="start" x="465.8862" y="-564.3" font-family="Helvetica,sans-Serif" font-size="11.00" fill="#000000"> &#160;</text>
<polygon fill="#ffffff" stroke="transparent" points="475,-558.2 475,-577.2 546,-577.2 546,-558.2 475,-558.2"/>
<polygon fill="none" stroke="#000000" points="475,-558.2 475,-577.2 546,-577.2 546,-558.2 475,-558.2"/>
<text text-anchor="start" x="536.8862" y="-564.3" font-family="Helvetica,sans-Serif" font-size="11.00" fill="#000000"> &#160;</text>
</a>
</g>
</g>
<!-- court_appearance_movement_audit&#45;&gt;audit_revision -->
<g id="edge12" class="edge">
<title>court_appearance_movement_audit:w&#45;&gt;audit_revision:e</title>
<path fill="none" stroke="#000000" d="M253.4603,-854.3433C222.6478,-864.2588 220.4609,-905.2 180.5,-905.2"/>
<polygon fill="#000000" stroke="#000000" points="260.0855,-853.3667 268.525,-855.7615 264.0428,-852.7834 268,-852.2 268,-852.2 268,-852.2 264.0428,-852.7834 267.475,-848.6385 260.0855,-853.3667 260.0855,-853.3667"/>
<ellipse fill="none" stroke="#000000" cx="256.9197" cy="-853.8334" rx="3.2" ry="3.2"/>
</g>
<!-- court_appearance_movement_audit&#45;&gt;person_summary -->
<g id="edge11" class="edge">
<title>court_appearance_movement_audit:w&#45;&gt;person_summary:e</title>
<path fill="none" stroke="#000000" stroke-dasharray="5,2" d="M253.5749,-739.3439C218.1501,-723.1118 240.7034,-643.2 190.5,-643.2"/>
<polygon fill="#000000" stroke="#000000" points="260.1523,-740.6462 267.3008,-745.7314 264.0762,-741.4231 268,-742.2 268,-742.2 268,-742.2 264.0762,-741.4231 268.6992,-738.6686 260.1523,-740.6462 260.1523,-740.6462"/>
<ellipse fill="none" stroke="#000000" cx="257.0133" cy="-740.0246" rx="3.2" ry="3.2"/>
</g>
</g>
</svg>
