<?xml version="1.0" encoding="UTF-8" standalone="no"?>
<!DOCTYPE svg PUBLIC "-//W3C//DTD SVG 1.1//EN"
 "http://www.w3.org/Graphics/SVG/1.1/DTD/svg11.dtd">
<!-- Generated by graphviz version 2.40.1 (20161225.0304)
 -->
<!-- Title: compactImpliedRelationshipsDiagram Pages: 1 -->
<svg width="848pt" height="692pt"
 viewBox="0.00 0.00 848.00 692.20" xmlns="http://www.w3.org/2000/svg" xmlns:xlink="http://www.w3.org/1999/xlink">
<g id="graph0" class="graph" transform="scale(1 1) rotate(0) translate(4 688.2)">
<title>compactImpliedRelationshipsDiagram</title>
<polygon fill="#ffffff" stroke="transparent" points="-4,4 -4,-688.2 844,-688.2 844,4 -4,4"/>
<text text-anchor="middle" x="72.4936" y="-7.3" font-family="Helvetica,sans-Serif" font-size="11.00" fill="#000000">Generated by SchemaSpy</text>
<!-- court_appearance_audit -->
<g id="node1" class="node">
<title>court_appearance_audit</title>
<g id="a_node1"><a xlink:href="../../tables/court_appearance_audit.html" xlink:title="court_appearance_audit" target="_top">
<polygon fill="#ffffff" stroke="transparent" points="307,-531.2 307,-680.2 507,-680.2 507,-531.2 307,-531.2"/>
<polygon fill="#f5f5f5" stroke="transparent" points="307,-656.7 307,-679.7 507,-679.7 507,-656.7 307,-656.7"/>
<polygon fill="none" stroke="#000000" points="307,-656.7 307,-679.7 507,-679.7 507,-656.7 307,-656.7"/>
<text text-anchor="start" x="312" y="-665.3" font-family="Helvetica,sans-Serif" font-weight="bold" font-size="11.00" fill="#000000">court_appearance_audit</text>
<text text-anchor="start" x="472.5219" y="-664.8" font-family="Helvetica,sans-Serif" font-size="11.00" fill="#000000">[table]</text>
<polygon fill="none" stroke="#000000" points="307,-634.7 307,-656.7 507,-656.7 507,-634.7 307,-634.7"/>
<image xlink:href="../../images/primaryKeys.png" width="11px" height="12px" preserveAspectRatio="xMinYMin meet" x="312" y="-651.7"/>
<text text-anchor="start" x="336" y="-641.8" font-family="Helvetica,sans-Serif" font-size="11.00" fill="#000000">rev_id</text>
<polygon fill="none" stroke="#000000" points="307,-612.7 307,-634.7 507,-634.7 507,-612.7 307,-612.7"/>
<image xlink:href="../../images/primaryKeys.png" width="11px" height="12px" preserveAspectRatio="xMinYMin meet" x="312" y="-629.7"/>
<text text-anchor="start" x="336" y="-619.8" font-family="Helvetica,sans-Serif" font-size="11.00" fill="#000000">id</text>
<polygon fill="none" stroke="#000000" points="307,-590.7 307,-612.7 507,-612.7 507,-590.7 307,-590.7"/>
<image xlink:href="../../images/foreignKeys.png" width="11px" height="12px" preserveAspectRatio="xMinYMin meet" x="312" y="-607.7"/>
<text text-anchor="start" x="336" y="-597.8" font-family="Helvetica,sans-Serif" font-size="11.00" fill="#000000">person_identifier</text>
<polygon fill="none" stroke="#000000" points="307,-568.7 307,-590.7 507,-590.7 507,-568.7 307,-568.7"/>
<image xlink:href="../../images/foreignKeys.png" width="11px" height="12px" preserveAspectRatio="xMinYMin meet" x="312" y="-585.7"/>
<text text-anchor="start" x="336" y="-575.8" font-family="Helvetica,sans-Serif" font-size="11.00" fill="#000000">legacy_id</text>
<polygon fill="none" stroke="#000000" points="307,-549.7 307,-568.7 507,-568.7 507,-549.7 307,-549.7"/>
<text text-anchor="start" x="310" y="-555.8" font-family="Helvetica,sans-Serif" font-size="11.00" fill="#000000">...</text>
<polygon fill="#ffffff" stroke="transparent" points="307,-530.7 307,-549.7 405,-549.7 405,-530.7 307,-530.7"/>
<polygon fill="none" stroke="#000000" points="307,-530.7 307,-549.7 405,-549.7 405,-530.7 307,-530.7"/>
<text text-anchor="start" x="310" y="-536.8" font-family="Helvetica,sans-Serif" font-size="11.00" fill="#000000">&lt; 1</text>
<polygon fill="#ffffff" stroke="transparent" points="405,-530.7 405,-549.7 456,-549.7 456,-530.7 405,-530.7"/>
<polygon fill="none" stroke="#000000" points="405,-530.7 405,-549.7 456,-549.7 456,-530.7 405,-530.7"/>
<text text-anchor="start" x="446.8862" y="-536.8" font-family="Helvetica,sans-Serif" font-size="11.00" fill="#000000"> &#160;</text>
<polygon fill="#ffffff" stroke="transparent" points="456,-530.7 456,-549.7 507,-549.7 507,-530.7 456,-530.7"/>
<polygon fill="none" stroke="#000000" points="456,-530.7 456,-549.7 507,-549.7 507,-530.7 456,-530.7"/>
<text text-anchor="start" x="497.8862" y="-536.8" font-family="Helvetica,sans-Serif" font-size="11.00" fill="#000000"> &#160;</text>
</a>
</g>
</g>
<!-- audit_revision -->
<g id="node7" class="node">
<title>audit_revision</title>
<g id="a_node7"><a xlink:href="../../tables/audit_revision.html" xlink:title="audit_revision" target="_top">
<polygon fill="#ffffff" stroke="transparent" points="46.5,-493.2 46.5,-576.2 180.5,-576.2 180.5,-493.2 46.5,-493.2"/>
<polygon fill="#f5f5f5" stroke="transparent" points="46.5,-552.7 46.5,-575.7 180.5,-575.7 180.5,-552.7 46.5,-552.7"/>
<polygon fill="none" stroke="#000000" points="46.5,-552.7 46.5,-575.7 180.5,-575.7 180.5,-552.7 46.5,-552.7"/>
<text text-anchor="start" x="51.5" y="-561.3" font-family="Helvetica,sans-Serif" font-weight="bold" font-size="11.00" fill="#000000">audit_revision</text>
<text text-anchor="start" x="146.0219" y="-560.8" font-family="Helvetica,sans-Serif" font-size="11.00" fill="#000000">[table]</text>
<polygon fill="none" stroke="#000000" points="46.5,-530.7 46.5,-552.7 180.5,-552.7 180.5,-530.7 46.5,-530.7"/>
<image xlink:href="../../images/primaryKeys.png" width="11px" height="12px" preserveAspectRatio="xMinYMin meet" x="51.5" y="-547.7"/>
<text text-anchor="start" x="66.5" y="-537.8" font-family="Helvetica,sans-Serif" font-size="11.00" fill="#000000">id</text>
<polygon fill="none" stroke="#000000" points="46.5,-511.7 46.5,-530.7 180.5,-530.7 180.5,-511.7 46.5,-511.7"/>
<text text-anchor="start" x="49.5" y="-517.8" font-family="Helvetica,sans-Serif" font-size="11.00" fill="#000000">...</text>
<polygon fill="#ffffff" stroke="transparent" points="46.5,-492.7 46.5,-511.7 102.5,-511.7 102.5,-492.7 46.5,-492.7"/>
<polygon fill="none" stroke="#000000" points="46.5,-492.7 46.5,-511.7 102.5,-511.7 102.5,-492.7 46.5,-492.7"/>
<text text-anchor="start" x="49.5" y="-498.8" font-family="Helvetica,sans-Serif" font-size="11.00" fill="#000000"> &#160;</text>
<polygon fill="#ffffff" stroke="transparent" points="102.5,-492.7 102.5,-511.7 136.5,-511.7 136.5,-492.7 102.5,-492.7"/>
<polygon fill="none" stroke="#000000" points="102.5,-492.7 102.5,-511.7 136.5,-511.7 136.5,-492.7 102.5,-492.7"/>
<text text-anchor="start" x="127.3862" y="-498.8" font-family="Helvetica,sans-Serif" font-size="11.00" fill="#000000"> &#160;</text>
<polygon fill="#ffffff" stroke="transparent" points="136.5,-492.7 136.5,-511.7 180.5,-511.7 180.5,-492.7 136.5,-492.7"/>
<polygon fill="none" stroke="#000000" points="136.5,-492.7 136.5,-511.7 180.5,-511.7 180.5,-492.7 136.5,-492.7"/>
<text text-anchor="start" x="161.9053" y="-498.8" font-family="Helvetica,sans-Serif" font-size="11.00" fill="#000000">2 &gt;</text>
</a>
</g>
</g>
<!-- court_appearance_audit&#45;&gt;audit_revision -->
<g id="edge5" class="edge">
<title>court_appearance_audit:w&#45;&gt;audit_revision:e</title>
<path fill="none" stroke="#000000" stroke-dasharray="5,2" d="M292.6037,-578.871C246.3145,-573.3139 234.0446,-541.7 180.5,-541.7"/>
<polygon fill="#000000" stroke="#000000" points="299.0132,-579.24 306.793,-583.294 303.0066,-579.47 307,-579.7 307,-579.7 307,-579.7 303.0066,-579.47 307.207,-576.106 299.0132,-579.24 299.0132,-579.24"/>
<ellipse fill="none" stroke="#000000" cx="295.8185" cy="-579.056" rx="3.2" ry="3.2"/>
</g>
<!-- court_appearance_audit&#45;&gt;audit_revision -->
<g id="edge7" class="edge">
<title>court_appearance_audit:w&#45;&gt;audit_revision:e</title>
<path fill="none" stroke="#000000" d="M292.5905,-644.1491C236.4926,-631.2119 248.0237,-541.7 180.5,-541.7"/>
<polygon fill="#000000" stroke="#000000" points="299.0459,-644.8439 306.6147,-649.2793 303.023,-645.2719 307,-645.7 307,-645.7 307,-645.7 303.023,-645.2719 307.3853,-642.1207 299.0459,-644.8439 299.0459,-644.8439"/>
<ellipse fill="none" stroke="#000000" cx="295.8643" cy="-644.5014" rx="3.2" ry="3.2"/>
</g>
<!-- person_summary -->
<g id="node8" class="node">
<title>person_summary</title>
<g id="a_node8"><a xlink:href="../../tables/person_summary.html" xlink:title="person_summary" target="_top">
<polygon fill="#ffffff" stroke="transparent" points="36.5,-367.2 36.5,-450.2 190.5,-450.2 190.5,-367.2 36.5,-367.2"/>
<polygon fill="#f5f5f5" stroke="transparent" points="36.5,-426.7 36.5,-449.7 190.5,-449.7 190.5,-426.7 36.5,-426.7"/>
<polygon fill="none" stroke="#000000" points="36.5,-426.7 36.5,-449.7 190.5,-449.7 190.5,-426.7 36.5,-426.7"/>
<text text-anchor="start" x="41.5" y="-435.3" font-family="Helvetica,sans-Serif" font-weight="bold" font-size="11.00" fill="#000000">person_summary</text>
<text text-anchor="start" x="156.0219" y="-434.8" font-family="Helvetica,sans-Serif" font-size="11.00" fill="#000000">[table]</text>
<polygon fill="none" stroke="#000000" points="36.5,-404.7 36.5,-426.7 190.5,-426.7 190.5,-404.7 36.5,-404.7"/>
<image xlink:href="../../images/primaryKeys.png" width="11px" height="12px" preserveAspectRatio="xMinYMin meet" x="41.5" y="-421.7"/>
<text text-anchor="start" x="65.5" y="-411.8" font-family="Helvetica,sans-Serif" font-size="11.00" fill="#000000">person_identifier</text>
<polygon fill="none" stroke="#000000" points="36.5,-385.7 36.5,-404.7 190.5,-404.7 190.5,-385.7 36.5,-385.7"/>
<text text-anchor="start" x="39.5" y="-391.8" font-family="Helvetica,sans-Serif" font-size="11.00" fill="#000000">...</text>
<polygon fill="#ffffff" stroke="transparent" points="36.5,-366.7 36.5,-385.7 102.5,-385.7 102.5,-366.7 36.5,-366.7"/>
<polygon fill="none" stroke="#000000" points="36.5,-366.7 36.5,-385.7 102.5,-385.7 102.5,-366.7 36.5,-366.7"/>
<text text-anchor="start" x="39.5" y="-372.8" font-family="Helvetica,sans-Serif" font-size="11.00" fill="#000000"> &#160;</text>
<polygon fill="#ffffff" stroke="transparent" points="102.5,-366.7 102.5,-385.7 141.5,-385.7 141.5,-366.7 102.5,-366.7"/>
<polygon fill="none" stroke="#000000" points="102.5,-366.7 102.5,-385.7 141.5,-385.7 141.5,-366.7 102.5,-366.7"/>
<text text-anchor="start" x="132.3862" y="-372.8" font-family="Helvetica,sans-Serif" font-size="11.00" fill="#000000"> &#160;</text>
<polygon fill="#ffffff" stroke="transparent" points="141.5,-366.7 141.5,-385.7 190.5,-385.7 190.5,-366.7 141.5,-366.7"/>
<polygon fill="none" stroke="#000000" points="141.5,-366.7 141.5,-385.7 190.5,-385.7 190.5,-366.7 141.5,-366.7"/>
<text text-anchor="start" x="171.9053" y="-372.8" font-family="Helvetica,sans-Serif" font-size="11.00" fill="#000000">2 &gt;</text>
</a>
</g>
</g>
<!-- court_appearance_audit&#45;&gt;person_summary -->
<g id="edge6" class="edge">
<title>court_appearance_audit:w&#45;&gt;person_summary:e</title>
<path fill="none" stroke="#000000" stroke-dasharray="5,2" d="M292.5194,-600.092C217.5253,-581.9125 282.709,-415.7 190.5,-415.7"/>
<polygon fill="#000000" stroke="#000000" points="299.0489,-600.817 306.6027,-605.278 303.0244,-601.2585 307,-601.7 307,-601.7 307,-601.7 303.0244,-601.2585 307.3973,-598.122 299.0489,-600.817 299.0489,-600.817"/>
<ellipse fill="none" stroke="#000000" cx="295.8684" cy="-600.4638" rx="3.2" ry="3.2"/>
</g>
<!-- court_appearance -->
<g id="node2" class="node">
<title>court_appearance</title>
<g id="a_node2"><a xlink:href="../../tables/court_appearance.html" xlink:title="court_appearance" target="_top">
<polygon fill="#ffffff" stroke="transparent" points="327.5,-147.2 327.5,-362.2 486.5,-362.2 486.5,-147.2 327.5,-147.2"/>
<polygon fill="#f5f5f5" stroke="transparent" points="328,-338.7 328,-361.7 487,-361.7 487,-338.7 328,-338.7"/>
<polygon fill="none" stroke="#000000" points="328,-338.7 328,-361.7 487,-361.7 487,-338.7 328,-338.7"/>
<text text-anchor="start" x="333" y="-347.3" font-family="Helvetica,sans-Serif" font-weight="bold" font-size="11.00" fill="#000000">court_appearance</text>
<text text-anchor="start" x="452.5219" y="-346.8" font-family="Helvetica,sans-Serif" font-size="11.00" fill="#000000">[table]</text>
<polygon fill="none" stroke="#000000" points="328,-316.7 328,-338.7 487,-338.7 487,-316.7 328,-316.7"/>
<image xlink:href="../../images/primaryKeys.png" width="11px" height="12px" preserveAspectRatio="xMinYMin meet" x="333" y="-333.7"/>
<text text-anchor="start" x="357" y="-323.8" font-family="Helvetica,sans-Serif" font-size="11.00" fill="#000000">id</text>
<polygon fill="#ffffff" stroke="transparent" points="328,-294.7 328,-316.7 487,-316.7 487,-294.7 328,-294.7"/>
<polygon fill="none" stroke="#000000" points="328,-294.7 328,-316.7 487,-316.7 487,-294.7 328,-294.7"/>
<image xlink:href="../../images/foreignKeys.png" width="11px" height="12px" preserveAspectRatio="xMinYMin meet" x="333" y="-311.7"/>
<text text-anchor="start" x="357" y="-301.8" font-family="Helvetica,sans-Serif" font-size="11.00" fill="#000000">person_identifier</text>
<polygon fill="#ffffff" stroke="transparent" points="328,-272.7 328,-294.7 487,-294.7 487,-272.7 328,-272.7"/>
<polygon fill="none" stroke="#000000" points="328,-272.7 328,-294.7 487,-294.7 487,-272.7 328,-272.7"/>
<text text-anchor="start" x="357" y="-279.8" font-family="Helvetica,sans-Serif" font-size="11.00" fill="#000000">prison_code</text>
<polygon fill="#ffffff" stroke="transparent" points="328,-250.7 328,-272.7 487,-272.7 487,-250.7 328,-250.7"/>
<polygon fill="none" stroke="#000000" points="328,-250.7 328,-272.7 487,-272.7 487,-250.7 328,-250.7"/>
<image xlink:href="../../images/foreignKeys.png" width="11px" height="12px" preserveAspectRatio="xMinYMin meet" x="333" y="-267.7"/>
<text text-anchor="start" x="357" y="-257.8" font-family="Helvetica,sans-Serif" font-size="11.00" fill="#000000">reason_id</text>
<polygon fill="#ffffff" stroke="transparent" points="328,-228.7 328,-250.7 487,-250.7 487,-228.7 328,-228.7"/>
<polygon fill="none" stroke="#000000" points="328,-228.7 328,-250.7 487,-250.7 487,-228.7 328,-228.7"/>
<image xlink:href="../../images/foreignKeys.png" width="11px" height="12px" preserveAspectRatio="xMinYMin meet" x="333" y="-245.7"/>
<text text-anchor="start" x="357" y="-235.8" font-family="Helvetica,sans-Serif" font-size="11.00" fill="#000000">status_id</text>
<polygon fill="#ffffff" stroke="transparent" points="328,-206.7 328,-228.7 487,-228.7 487,-206.7 328,-206.7"/>
<polygon fill="none" stroke="#000000" points="328,-206.7 328,-228.7 487,-228.7 487,-206.7 328,-206.7"/>
<text text-anchor="start" x="357" y="-213.8" font-family="Helvetica,sans-Serif" font-size="11.00" fill="#000000">start</text>
<polygon fill="#ffffff" stroke="transparent" points="328,-184.7 328,-206.7 487,-206.7 487,-184.7 328,-184.7"/>
<polygon fill="none" stroke="#000000" points="328,-184.7 328,-206.7 487,-206.7 487,-184.7 328,-184.7"/>
<image xlink:href="../../images/foreignKeys.png" width="11px" height="12px" preserveAspectRatio="xMinYMin meet" x="333" y="-201.7"/>
<text text-anchor="start" x="357" y="-191.8" font-family="Helvetica,sans-Serif" font-size="11.00" fill="#000000">legacy_id</text>
<polygon fill="none" stroke="#000000" points="328,-165.7 328,-184.7 487,-184.7 487,-165.7 328,-165.7"/>
<text text-anchor="start" x="331" y="-171.8" font-family="Helvetica,sans-Serif" font-size="11.00" fill="#000000">...</text>
<polygon fill="#ffffff" stroke="transparent" points="328,-146.7 328,-165.7 401,-165.7 401,-146.7 328,-146.7"/>
<polygon fill="none" stroke="#000000" points="328,-146.7 328,-165.7 401,-165.7 401,-146.7 328,-146.7"/>
<text text-anchor="start" x="331" y="-152.8" font-family="Helvetica,sans-Serif" font-size="11.00" fill="#000000">&lt; 3</text>
<polygon fill="#ffffff" stroke="transparent" points="401,-146.7 401,-165.7 439,-165.7 439,-146.7 401,-146.7"/>
<polygon fill="none" stroke="#000000" points="401,-146.7 401,-165.7 439,-165.7 439,-146.7 401,-146.7"/>
<text text-anchor="start" x="429.8862" y="-152.8" font-family="Helvetica,sans-Serif" font-size="11.00" fill="#000000"> &#160;</text>
<polygon fill="#ffffff" stroke="transparent" points="439,-146.7 439,-165.7 487,-165.7 487,-146.7 439,-146.7"/>
<polygon fill="none" stroke="#000000" points="439,-146.7 439,-165.7 487,-165.7 487,-146.7 439,-146.7"/>
<text text-anchor="start" x="468.4053" y="-152.8" font-family="Helvetica,sans-Serif" font-size="11.00" fill="#000000">1 &gt;</text>
</a>
</g>
</g>
<!-- court_appearance_reason -->
<g id="node3" class="node">
<title>court_appearance_reason</title>
<g id="a_node3"><a xlink:href="../../tables/court_appearance_reason.html" xlink:title="court_appearance_reason" target="_top">
<polygon fill="#ffffff" stroke="transparent" points="8,-186.2 8,-313.2 219,-313.2 219,-186.2 8,-186.2"/>
<polygon fill="#f5f5f5" stroke="transparent" points="8.5,-289.7 8.5,-312.7 219.5,-312.7 219.5,-289.7 8.5,-289.7"/>
<polygon fill="none" stroke="#000000" points="8.5,-289.7 8.5,-312.7 219.5,-312.7 219.5,-289.7 8.5,-289.7"/>
<text text-anchor="start" x="13.5" y="-298.3" font-family="Helvetica,sans-Serif" font-weight="bold" font-size="11.00" fill="#000000">court_appearance_reason</text>
<text text-anchor="start" x="185.0219" y="-297.8" font-family="Helvetica,sans-Serif" font-size="11.00" fill="#000000">[table]</text>
<polygon fill="none" stroke="#000000" points="8.5,-267.7 8.5,-289.7 219.5,-289.7 219.5,-267.7 8.5,-267.7"/>
<image xlink:href="../../images/primaryKeys.png" width="11px" height="12px" preserveAspectRatio="xMinYMin meet" x="13.5" y="-284.7"/>
<text text-anchor="start" x="37.5" y="-274.8" font-family="Helvetica,sans-Serif" font-size="11.00" fill="#000000">id</text>
<polygon fill="#ffffff" stroke="transparent" points="8.5,-245.7 8.5,-267.7 219.5,-267.7 219.5,-245.7 8.5,-245.7"/>
<polygon fill="none" stroke="#000000" points="8.5,-245.7 8.5,-267.7 219.5,-267.7 219.5,-245.7 8.5,-245.7"/>
<text text-anchor="start" x="37.5" y="-252.8" font-family="Helvetica,sans-Serif" font-size="11.00" fill="#000000">code</text>
<polygon fill="#ffffff" stroke="transparent" points="8.5,-223.7 8.5,-245.7 219.5,-245.7 219.5,-223.7 8.5,-223.7"/>
<polygon fill="none" stroke="#000000" points="8.5,-223.7 8.5,-245.7 219.5,-245.7 219.5,-223.7 8.5,-223.7"/>
<text text-anchor="start" x="37.5" y="-230.8" font-family="Helvetica,sans-Serif" font-size="11.00" fill="#000000">sequence_number</text>
<polygon fill="none" stroke="#000000" points="8.5,-204.7 8.5,-223.7 219.5,-223.7 219.5,-204.7 8.5,-204.7"/>
<text text-anchor="start" x="11.5" y="-210.8" font-family="Helvetica,sans-Serif" font-size="11.00" fill="#000000">...</text>
<polygon fill="#ffffff" stroke="transparent" points="8.5,-185.7 8.5,-204.7 103.5,-204.7 103.5,-185.7 8.5,-185.7"/>
<polygon fill="none" stroke="#000000" points="8.5,-185.7 8.5,-204.7 103.5,-204.7 103.5,-185.7 8.5,-185.7"/>
<text text-anchor="start" x="11.5" y="-191.8" font-family="Helvetica,sans-Serif" font-size="11.00" fill="#000000"> &#160;</text>
<polygon fill="#ffffff" stroke="transparent" points="103.5,-185.7 103.5,-204.7 156.5,-204.7 156.5,-185.7 103.5,-185.7"/>
<polygon fill="none" stroke="#000000" points="103.5,-185.7 103.5,-204.7 156.5,-204.7 156.5,-185.7 103.5,-185.7"/>
<text text-anchor="start" x="147.3862" y="-191.8" font-family="Helvetica,sans-Serif" font-size="11.00" fill="#000000"> &#160;</text>
<polygon fill="#ffffff" stroke="transparent" points="156.5,-185.7 156.5,-204.7 219.5,-204.7 219.5,-185.7 156.5,-185.7"/>
<polygon fill="none" stroke="#000000" points="156.5,-185.7 156.5,-204.7 219.5,-204.7 219.5,-185.7 156.5,-185.7"/>
<text text-anchor="start" x="200.9053" y="-191.8" font-family="Helvetica,sans-Serif" font-size="11.00" fill="#000000">1 &gt;</text>
</a>
</g>
</g>
<!-- court_appearance&#45;&gt;court_appearance_reason -->
<g id="edge3" class="edge">
<title>court_appearance:w&#45;&gt;court_appearance_reason:e</title>
<path fill="none" stroke="#000000" d="M313.2461,-262.2656C276.3559,-265.2154 262.9719,-278.7 219.5,-278.7"/>
<polygon fill="#000000" stroke="#000000" points="320.0059,-262.0065 328.1379,-265.2974 324.0029,-261.8533 328,-261.7 328,-261.7 328,-261.7 324.0029,-261.8533 327.8621,-258.1026 320.0059,-262.0065 320.0059,-262.0065"/>
<ellipse fill="none" stroke="#000000" cx="316.8082" cy="-262.1291" rx="3.2" ry="3.2"/>
</g>
<!-- court_appearance_status -->
<g id="node5" class="node">
<title>court_appearance_status</title>
<g id="a_node5"><a xlink:href="../../tables/court_appearance_status.html" xlink:title="court_appearance_status" target="_top">
<polygon fill="#ffffff" stroke="transparent" points="9.5,-38.2 9.5,-165.2 217.5,-165.2 217.5,-38.2 9.5,-38.2"/>
<polygon fill="#f5f5f5" stroke="transparent" points="9.5,-141.7 9.5,-164.7 217.5,-164.7 217.5,-141.7 9.5,-141.7"/>
<polygon fill="none" stroke="#000000" points="9.5,-141.7 9.5,-164.7 217.5,-164.7 217.5,-141.7 9.5,-141.7"/>
<text text-anchor="start" x="14.5" y="-150.3" font-family="Helvetica,sans-Serif" font-weight="bold" font-size="11.00" fill="#000000">court_appearance_status</text>
<text text-anchor="start" x="183.0219" y="-149.8" font-family="Helvetica,sans-Serif" font-size="11.00" fill="#000000">[table]</text>
<polygon fill="none" stroke="#000000" points="9.5,-119.7 9.5,-141.7 217.5,-141.7 217.5,-119.7 9.5,-119.7"/>
<image xlink:href="../../images/primaryKeys.png" width="11px" height="12px" preserveAspectRatio="xMinYMin meet" x="14.5" y="-136.7"/>
<text text-anchor="start" x="38.5" y="-126.8" font-family="Helvetica,sans-Serif" font-size="11.00" fill="#000000">id</text>
<polygon fill="#ffffff" stroke="transparent" points="9.5,-97.7 9.5,-119.7 217.5,-119.7 217.5,-97.7 9.5,-97.7"/>
<polygon fill="none" stroke="#000000" points="9.5,-97.7 9.5,-119.7 217.5,-119.7 217.5,-97.7 9.5,-97.7"/>
<text text-anchor="start" x="38.5" y="-104.8" font-family="Helvetica,sans-Serif" font-size="11.00" fill="#000000">code</text>
<polygon fill="#ffffff" stroke="transparent" points="9.5,-75.7 9.5,-97.7 217.5,-97.7 217.5,-75.7 9.5,-75.7"/>
<polygon fill="none" stroke="#000000" points="9.5,-75.7 9.5,-97.7 217.5,-97.7 217.5,-75.7 9.5,-75.7"/>
<text text-anchor="start" x="38.5" y="-82.8" font-family="Helvetica,sans-Serif" font-size="11.00" fill="#000000">sequence_number</text>
<polygon fill="none" stroke="#000000" points="9.5,-56.7 9.5,-75.7 217.5,-75.7 217.5,-56.7 9.5,-56.7"/>
<text text-anchor="start" x="12.5" y="-62.8" font-family="Helvetica,sans-Serif" font-size="11.00" fill="#000000">...</text>
<polygon fill="#ffffff" stroke="transparent" points="9.5,-37.7 9.5,-56.7 102.5,-56.7 102.5,-37.7 9.5,-37.7"/>
<polygon fill="none" stroke="#000000" points="9.5,-37.7 9.5,-56.7 102.5,-56.7 102.5,-37.7 9.5,-37.7"/>
<text text-anchor="start" x="12.5" y="-43.8" font-family="Helvetica,sans-Serif" font-size="11.00" fill="#000000"> &#160;</text>
<polygon fill="#ffffff" stroke="transparent" points="102.5,-37.7 102.5,-56.7 155.5,-56.7 155.5,-37.7 102.5,-37.7"/>
<polygon fill="none" stroke="#000000" points="102.5,-37.7 102.5,-56.7 155.5,-56.7 155.5,-37.7 102.5,-37.7"/>
<text text-anchor="start" x="146.3862" y="-43.8" font-family="Helvetica,sans-Serif" font-size="11.00" fill="#000000"> &#160;</text>
<polygon fill="#ffffff" stroke="transparent" points="155.5,-37.7 155.5,-56.7 217.5,-56.7 217.5,-37.7 155.5,-37.7"/>
<polygon fill="none" stroke="#000000" points="155.5,-37.7 155.5,-56.7 217.5,-56.7 217.5,-37.7 155.5,-37.7"/>
<text text-anchor="start" x="198.9053" y="-43.8" font-family="Helvetica,sans-Serif" font-size="11.00" fill="#000000">1 &gt;</text>
</a>
</g>
</g>
<!-- court_appearance&#45;&gt;court_appearance_status -->
<g id="edge4" class="edge">
<title>court_appearance:w&#45;&gt;court_appearance_status:e</title>
<path fill="none" stroke="#000000" d="M313.506,-237.8081C262.7193,-223.334 281.0944,-130.7 217.5,-130.7"/>
<polygon fill="#000000" stroke="#000000" points="320.0673,-238.6645 327.534,-243.2697 324.0336,-239.1822 328,-239.7 328,-239.7 328,-239.7 324.0336,-239.1822 328.466,-236.1303 320.0673,-238.6645 320.0673,-238.6645"/>
<ellipse fill="none" stroke="#000000" cx="316.8942" cy="-238.2503" rx="3.2" ry="3.2"/>
</g>
<!-- court_appearance&#45;&gt;audit_revision -->
<g id="edge1" class="edge">
<title>court_appearance:w&#45;&gt;audit_revision:e</title>
<path fill="none" stroke="#000000" stroke-dasharray="5,2" d="M317.2635,-196.2158C169.0464,-211.0684 343.9132,-541.7 180.5,-541.7"/>
<polygon fill="#000000" stroke="#000000" points="327.0089,-191.743 327.3929,-199.7338 325.7948,-199.8106 325.4108,-191.8198 327.0089,-191.743"/>
<polyline fill="none" stroke="#000000" points="328,-195.7 324.0046,-195.892 "/>
<ellipse fill="none" stroke="#000000" cx="320.8083" cy="-196.0456" rx="3.2" ry="3.2"/>
</g>
<!-- court_appearance&#45;&gt;person_summary -->
<g id="edge2" class="edge">
<title>court_appearance:w&#45;&gt;person_summary:e</title>
<path fill="none" stroke="#000000" d="M313.6391,-307.0908C251.8368,-319.8243 263.5634,-415.7 190.5,-415.7"/>
<polygon fill="#000000" stroke="#000000" points="320.0373,-306.4712 328.347,-309.2832 324.0186,-306.0856 328,-305.7 328,-305.7 328,-305.7 324.0186,-306.0856 327.653,-302.1168 320.0373,-306.4712 320.0373,-306.4712"/>
<ellipse fill="none" stroke="#000000" cx="316.8522" cy="-306.7797" rx="3.2" ry="3.2"/>
</g>
<!-- court_appearance_movement -->
<g id="node4" class="node">
<title>court_appearance_movement</title>
<g id="a_node4"><a xlink:href="../../tables/court_appearance_movement.html" xlink:title="court_appearance_movement" target="_top">
<polygon fill="#ffffff" stroke="transparent" points="595,-143.2 595,-292.2 832,-292.2 832,-143.2 595,-143.2"/>
<polygon fill="#f5f5f5" stroke="transparent" points="595.5,-268.7 595.5,-291.7 832.5,-291.7 832.5,-268.7 595.5,-268.7"/>
<polygon fill="none" stroke="#000000" points="595.5,-268.7 595.5,-291.7 832.5,-291.7 832.5,-268.7 595.5,-268.7"/>
<text text-anchor="start" x="600.5" y="-277.3" font-family="Helvetica,sans-Serif" font-weight="bold" font-size="11.00" fill="#000000">court_appearance_movement</text>
<text text-anchor="start" x="798.0219" y="-276.8" font-family="Helvetica,sans-Serif" font-size="11.00" fill="#000000">[table]</text>
<polygon fill="none" stroke="#000000" points="595.5,-246.7 595.5,-268.7 832.5,-268.7 832.5,-246.7 595.5,-246.7"/>
<image xlink:href="../../images/primaryKeys.png" width="11px" height="12px" preserveAspectRatio="xMinYMin meet" x="600.5" y="-263.7"/>
<text text-anchor="start" x="624.5" y="-253.8" font-family="Helvetica,sans-Serif" font-size="11.00" fill="#000000">id</text>
<polygon fill="none" stroke="#000000" points="595.5,-224.7 595.5,-246.7 832.5,-246.7 832.5,-224.7 595.5,-224.7"/>
<image xlink:href="../../images/foreignKeys.png" width="11px" height="12px" preserveAspectRatio="xMinYMin meet" x="600.5" y="-241.7"/>
<text text-anchor="start" x="624.5" y="-231.8" font-family="Helvetica,sans-Serif" font-size="11.00" fill="#000000">court_appearance_id</text>
<polygon fill="#ffffff" stroke="transparent" points="595.5,-202.7 595.5,-224.7 832.5,-224.7 832.5,-202.7 595.5,-202.7"/>
<polygon fill="none" stroke="#000000" points="595.5,-202.7 595.5,-224.7 832.5,-224.7 832.5,-202.7 595.5,-202.7"/>
<image xlink:href="../../images/foreignKeys.png" width="11px" height="12px" preserveAspectRatio="xMinYMin meet" x="600.5" y="-219.7"/>
<text text-anchor="start" x="624.5" y="-209.8" font-family="Helvetica,sans-Serif" font-size="11.00" fill="#000000">person_identifier</text>
<polygon fill="#ffffff" stroke="transparent" points="595.5,-180.7 595.5,-202.7 832.5,-202.7 832.5,-180.7 595.5,-180.7"/>
<polygon fill="none" stroke="#000000" points="595.5,-180.7 595.5,-202.7 832.5,-202.7 832.5,-180.7 595.5,-180.7"/>
<text text-anchor="start" x="624.5" y="-187.8" font-family="Helvetica,sans-Serif" font-size="11.00" fill="#000000">legacy_id</text>
<polygon fill="none" stroke="#000000" points="595.5,-161.7 595.5,-180.7 832.5,-180.7 832.5,-161.7 595.5,-161.7"/>
<text text-anchor="start" x="598.5" y="-167.8" font-family="Helvetica,sans-Serif" font-size="11.00" fill="#000000">...</text>
<polygon fill="#ffffff" stroke="transparent" points="595.5,-142.7 595.5,-161.7 712.5,-161.7 712.5,-142.7 595.5,-142.7"/>
<polygon fill="none" stroke="#000000" points="595.5,-142.7 595.5,-161.7 712.5,-161.7 712.5,-142.7 595.5,-142.7"/>
<text text-anchor="start" x="598.5" y="-148.8" font-family="Helvetica,sans-Serif" font-size="11.00" fill="#000000">&lt; 2</text>
<polygon fill="#ffffff" stroke="transparent" points="712.5,-142.7 712.5,-161.7 772.5,-161.7 772.5,-142.7 712.5,-142.7"/>
<polygon fill="none" stroke="#000000" points="712.5,-142.7 712.5,-161.7 772.5,-161.7 772.5,-142.7 712.5,-142.7"/>
<text text-anchor="start" x="763.3862" y="-148.8" font-family="Helvetica,sans-Serif" font-size="11.00" fill="#000000"> &#160;</text>
<polygon fill="#ffffff" stroke="transparent" points="772.5,-142.7 772.5,-161.7 832.5,-161.7 832.5,-142.7 772.5,-142.7"/>
<polygon fill="none" stroke="#000000" points="772.5,-142.7 772.5,-161.7 832.5,-161.7 832.5,-142.7 772.5,-142.7"/>
<text text-anchor="start" x="823.3862" y="-148.8" font-family="Helvetica,sans-Serif" font-size="11.00" fill="#000000"> &#160;</text>
</a>
</g>
</g>
<!-- court_appearance_movement&#45;&gt;court_appearance -->
<g id="edge8" class="edge">
<title>court_appearance_movement:w&#45;&gt;court_appearance:e</title>
<path fill="none" stroke="#000000" d="M581.1919,-237.5377C534.7181,-250.5042 544.9142,-327.7 487,-327.7"/>
<polygon fill="#000000" stroke="#000000" points="587.5652,-236.7192 595.9586,-239.2707 591.5326,-236.2096 595.5,-235.7 595.5,-235.7 595.5,-235.7 591.5326,-236.2096 595.0414,-232.1293 587.5652,-236.7192 587.5652,-236.7192"/>
<ellipse fill="none" stroke="#000000" cx="584.3913" cy="-237.1269" rx="3.2" ry="3.2"/>
</g>
<!-- court_appearance_movement&#45;&gt;person_summary -->
<g id="edge9" class="edge">
<title>court_appearance_movement:w&#45;&gt;person_summary:e</title>
<path fill="none" stroke="#000000" d="M581.3977,-209.5076C564.9893,-195.9732 581.9033,-153.3592 554,-136.7 441.8076,-69.7176 360.1023,-52.7161 260,-136.7 211.051,-177.7673 254.3947,-415.7 190.5,-415.7"/>
<polygon fill="#000000" stroke="#000000" points="587.8317,-211.4203 594.4741,-217.1507 591.6658,-212.5601 595.5,-213.7 595.5,-213.7 595.5,-213.7 591.6658,-212.5601 596.5259,-210.2493 587.8317,-211.4203 587.8317,-211.4203"/>
<ellipse fill="none" stroke="#000000" cx="584.7644" cy="-210.5084" rx="3.2" ry="3.2"/>
</g>
<!-- court_appearance_movement_audit -->
<g id="node6" class="node">
<title>court_appearance_movement_audit</title>
<g id="a_node6"><a xlink:href="../../tables/court_appearance_movement_audit.html" xlink:title="court_appearance_movement_audit" target="_top">
<polygon fill="#ffffff" stroke="transparent" points="268,-383.2 268,-510.2 546,-510.2 546,-383.2 268,-383.2"/>
<polygon fill="#f5f5f5" stroke="transparent" points="268,-486.7 268,-509.7 546,-509.7 546,-486.7 268,-486.7"/>
<polygon fill="none" stroke="#000000" points="268,-486.7 268,-509.7 546,-509.7 546,-486.7 268,-486.7"/>
<text text-anchor="start" x="273" y="-495.3" font-family="Helvetica,sans-Serif" font-weight="bold" font-size="11.00" fill="#000000">court_appearance_movement_audit</text>
<text text-anchor="start" x="511.5219" y="-494.8" font-family="Helvetica,sans-Serif" font-size="11.00" fill="#000000">[table]</text>
<polygon fill="none" stroke="#000000" points="268,-464.7 268,-486.7 546,-486.7 546,-464.7 268,-464.7"/>
<image xlink:href="../../images/primaryKeys.png" width="11px" height="12px" preserveAspectRatio="xMinYMin meet" x="273" y="-481.7"/>
<text text-anchor="start" x="297" y="-471.8" font-family="Helvetica,sans-Serif" font-size="11.00" fill="#000000">rev_id</text>
<polygon fill="none" stroke="#000000" points="268,-442.7 268,-464.7 546,-464.7 546,-442.7 268,-442.7"/>
<image xlink:href="../../images/primaryKeys.png" width="11px" height="12px" preserveAspectRatio="xMinYMin meet" x="273" y="-459.7"/>
<text text-anchor="start" x="297" y="-449.8" font-family="Helvetica,sans-Serif" font-size="11.00" fill="#000000">id</text>
<polygon fill="none" stroke="#000000" points="268,-420.7 268,-442.7 546,-442.7 546,-420.7 268,-420.7"/>
<image xlink:href="../../images/foreignKeys.png" width="11px" height="12px" preserveAspectRatio="xMinYMin meet" x="273" y="-437.7"/>
<text text-anchor="start" x="297" y="-427.8" font-family="Helvetica,sans-Serif" font-size="11.00" fill="#000000">person_identifier</text>
<polygon fill="none" stroke="#000000" points="268,-401.7 268,-420.7 546,-420.7 546,-401.7 268,-401.7"/>
<text text-anchor="start" x="271" y="-407.8" font-family="Helvetica,sans-Serif" font-size="11.00" fill="#000000">...</text>
<polygon fill="#ffffff" stroke="transparent" points="268,-382.7 268,-401.7 405,-401.7 405,-382.7 268,-382.7"/>
<polygon fill="none" stroke="#000000" points="268,-382.7 268,-401.7 405,-401.7 405,-382.7 268,-382.7"/>
<text text-anchor="start" x="271" y="-388.8" font-family="Helvetica,sans-Serif" font-size="11.00" fill="#000000">&lt; 1</text>
<polygon fill="#ffffff" stroke="transparent" points="405,-382.7 405,-401.7 475,-401.7 475,-382.7 405,-382.7"/>
<polygon fill="none" stroke="#000000" points="405,-382.7 405,-401.7 475,-401.7 475,-382.7 405,-382.7"/>
<text text-anchor="start" x="465.8862" y="-388.8" font-family="Helvetica,sans-Serif" font-size="11.00" fill="#000000"> &#160;</text>
<polygon fill="#ffffff" stroke="transparent" points="475,-382.7 475,-401.7 546,-401.7 546,-382.7 475,-382.7"/>
<polygon fill="none" stroke="#000000" points="475,-382.7 475,-401.7 546,-401.7 546,-382.7 475,-382.7"/>
<text text-anchor="start" x="536.8862" y="-388.8" font-family="Helvetica,sans-Serif" font-size="11.00" fill="#000000"> &#160;</text>
</a>
</g>
</g>
<!-- court_appearance_movement_audit&#45;&gt;audit_revision -->
<g id="edge11" class="edge">
<title>court_appearance_movement_audit:w&#45;&gt;audit_revision:e</title>
<path fill="none" stroke="#000000" d="M253.5326,-478.049C220.7844,-489.8062 223.6932,-541.7 180.5,-541.7"/>
<polygon fill="#000000" stroke="#000000" points="260.1034,-476.9822 268.577,-479.2535 264.0517,-476.3411 268,-475.7 268,-475.7 268,-475.7 264.0517,-476.3411 267.423,-472.1465 260.1034,-476.9822 260.1034,-476.9822"/>
<ellipse fill="none" stroke="#000000" cx="256.9448" cy="-477.495" rx="3.2" ry="3.2"/>
</g>
<!-- court_appearance_movement_audit&#45;&gt;person_summary -->
<g id="edge10" class="edge">
<title>court_appearance_movement_audit:w&#45;&gt;person_summary:e</title>
<path fill="none" stroke="#000000" stroke-dasharray="5,2" d="M253.3516,-430.6502C229.9083,-427.0906 220.1754,-415.7 190.5,-415.7"/>
<polygon fill="#000000" stroke="#000000" points="260.0205,-431.1281 267.7426,-435.2908 264.0102,-431.414 268,-431.7 268,-431.7 268,-431.7 264.0102,-431.414 268.2574,-428.1092 260.0205,-431.1281 260.0205,-431.1281"/>
<ellipse fill="none" stroke="#000000" cx="256.8287" cy="-430.8993" rx="3.2" ry="3.2"/>
</g>
</g>
</svg>
