<?xml version="1.0" encoding="UTF-8" standalone="no"?>
<!DOCTYPE svg PUBLIC "-//W3C//DTD SVG 1.1//EN"
 "http://www.w3.org/Graphics/SVG/1.1/DTD/svg11.dtd">
<!-- Generated by graphviz version 2.40.1 (20161225.0304)
 -->
<!-- Title: largeRelationshipsDiagram Pages: 1 -->
<svg width="770pt" height="1298pt"
 viewBox="0.00 0.00 770.00 1298.20" xmlns="http://www.w3.org/2000/svg" xmlns:xlink="http://www.w3.org/1999/xlink">
<g id="graph0" class="graph" transform="scale(1 1) rotate(0) translate(4 1294.2)">
<title>largeRelationshipsDiagram</title>
<polygon fill="#ffffff" stroke="transparent" points="-4,4 -4,-1294.2 766,-1294.2 766,4 -4,4"/>
<text text-anchor="middle" x="72.4936" y="-7.3" font-family="Helvetica,sans-Serif" font-size="11.00" fill="#000000">Generated by SchemaSpy</text>
<!-- court_appearance -->
<g id="node1" class="node">
<title>court_appearance</title>
<g id="a_node1"><a xlink:href="../../tables/court_appearance.html" xlink:title="court_appearance" target="_top">
<polygon fill="#ffffff" stroke="transparent" points="268,-172.2 268,-500.2 427,-500.2 427,-172.2 268,-172.2"/>
<polygon fill="#f5f5f5" stroke="transparent" points="268.5,-477.2 268.5,-500.2 427.5,-500.2 427.5,-477.2 268.5,-477.2"/>
<polygon fill="none" stroke="#000000" points="268.5,-477.2 268.5,-500.2 427.5,-500.2 427.5,-477.2 268.5,-477.2"/>
<text text-anchor="start" x="273.5" y="-485.8" font-family="Helvetica,sans-Serif" font-weight="bold" font-size="11.00" fill="#000000">court_appearance</text>
<text text-anchor="start" x="393.0219" y="-485.3" font-family="Helvetica,sans-Serif" font-size="11.00" fill="#000000">[table]</text>
<polygon fill="none" stroke="#000000" points="268.5,-455.2 268.5,-477.2 427.5,-477.2 427.5,-455.2 268.5,-455.2"/>
<image xlink:href="../../images/primaryKeys.png" width="11px" height="12px" preserveAspectRatio="xMinYMin meet" x="273.5" y="-472.2"/>
<text text-anchor="start" x="294.5" y="-462.3" font-family="Helvetica,sans-Serif" font-size="11.00" fill="#000000">id</text>
<polygon fill="none" stroke="#000000" points="268.5,-433.2 268.5,-455.2 427.5,-455.2 427.5,-433.2 268.5,-433.2"/>
<text text-anchor="start" x="294.5" y="-440.3" font-family="Helvetica,sans-Serif" font-size="11.00" fill="#000000">version</text>
<polygon fill="#ffffff" stroke="transparent" points="268.5,-411.2 268.5,-433.2 427.5,-433.2 427.5,-411.2 268.5,-411.2"/>
<polygon fill="none" stroke="#000000" points="268.5,-411.2 268.5,-433.2 427.5,-433.2 427.5,-411.2 268.5,-411.2"/>
<image xlink:href="../../images/foreignKeys.png" width="11px" height="12px" preserveAspectRatio="xMinYMin meet" x="273.5" y="-428.2"/>
<text text-anchor="start" x="294.5" y="-418.3" font-family="Helvetica,sans-Serif" font-size="11.00" fill="#000000">person_identifier</text>
<polygon fill="#ffffff" stroke="transparent" points="268.5,-389.2 268.5,-411.2 427.5,-411.2 427.5,-389.2 268.5,-389.2"/>
<polygon fill="none" stroke="#000000" points="268.5,-389.2 268.5,-411.2 427.5,-411.2 427.5,-389.2 268.5,-389.2"/>
<text text-anchor="start" x="294.5" y="-396.3" font-family="Helvetica,sans-Serif" font-size="11.00" fill="#000000">prison_code</text>
<polygon fill="none" stroke="#000000" points="268.5,-367.2 268.5,-389.2 427.5,-389.2 427.5,-367.2 268.5,-367.2"/>
<text text-anchor="start" x="294.5" y="-374.3" font-family="Helvetica,sans-Serif" font-size="11.00" fill="#000000">court_code</text>
<polygon fill="#ffffff" stroke="transparent" points="268.5,-345.2 268.5,-367.2 427.5,-367.2 427.5,-345.2 268.5,-345.2"/>
<polygon fill="none" stroke="#000000" points="268.5,-345.2 268.5,-367.2 427.5,-367.2 427.5,-345.2 268.5,-345.2"/>
<image xlink:href="../../images/foreignKeys.png" width="11px" height="12px" preserveAspectRatio="xMinYMin meet" x="273.5" y="-362.2"/>
<text text-anchor="start" x="294.5" y="-352.3" font-family="Helvetica,sans-Serif" font-size="11.00" fill="#000000">reason_id</text>
<polygon fill="none" stroke="#000000" points="268.5,-323.2 268.5,-345.2 427.5,-345.2 427.5,-323.2 268.5,-323.2"/>
<text text-anchor="start" x="294.5" y="-330.3" font-family="Helvetica,sans-Serif" font-size="11.00" fill="#000000">external</text>
<polygon fill="#ffffff" stroke="transparent" points="268.5,-301.2 268.5,-323.2 427.5,-323.2 427.5,-301.2 268.5,-301.2"/>
<polygon fill="none" stroke="#000000" points="268.5,-301.2 268.5,-323.2 427.5,-323.2 427.5,-301.2 268.5,-301.2"/>
<image xlink:href="../../images/foreignKeys.png" width="11px" height="12px" preserveAspectRatio="xMinYMin meet" x="273.5" y="-318.2"/>
<text text-anchor="start" x="294.5" y="-308.3" font-family="Helvetica,sans-Serif" font-size="11.00" fill="#000000">status_id</text>
<polygon fill="#ffffff" stroke="transparent" points="268.5,-279.2 268.5,-301.2 427.5,-301.2 427.5,-279.2 268.5,-279.2"/>
<polygon fill="none" stroke="#000000" points="268.5,-279.2 268.5,-301.2 427.5,-301.2 427.5,-279.2 268.5,-279.2"/>
<text text-anchor="start" x="294.5" y="-286.3" font-family="Helvetica,sans-Serif" font-size="11.00" fill="#000000">start</text>
<polygon fill="none" stroke="#000000" points="268.5,-257.2 268.5,-279.2 427.5,-279.2 427.5,-257.2 268.5,-257.2"/>
<text text-anchor="start" x="294.5" y="-264.3" font-family="Helvetica,sans-Serif" font-size="11.00" fill="#000000">end</text>
<polygon fill="none" stroke="#000000" points="268.5,-235.2 268.5,-257.2 427.5,-257.2 427.5,-235.2 268.5,-235.2"/>
<text text-anchor="start" x="294.5" y="-242.3" font-family="Helvetica,sans-Serif" font-size="11.00" fill="#000000">comments</text>
<polygon fill="#ffffff" stroke="transparent" points="268.5,-213.2 268.5,-235.2 427.5,-235.2 427.5,-213.2 268.5,-213.2"/>
<polygon fill="none" stroke="#000000" points="268.5,-213.2 268.5,-235.2 427.5,-235.2 427.5,-213.2 268.5,-213.2"/>
<image xlink:href="../../images/foreignKeys.png" width="11px" height="12px" preserveAspectRatio="xMinYMin meet" x="273.5" y="-230.2"/>
<text text-anchor="start" x="294.5" y="-220.3" font-family="Helvetica,sans-Serif" font-size="11.00" fill="#000000">legacy_id</text>
<polygon fill="#ffffff" stroke="transparent" points="268.5,-191.2 268.5,-213.2 427.5,-213.2 427.5,-191.2 268.5,-191.2"/>
<polygon fill="none" stroke="#000000" points="268.5,-191.2 268.5,-213.2 427.5,-213.2 427.5,-191.2 268.5,-191.2"/>
<text text-anchor="start" x="294.5" y="-198.3" font-family="Helvetica,sans-Serif" font-size="11.00" fill="#000000">external_reference</text>
<polygon fill="#ffffff" stroke="transparent" points="268.5,-172.2 268.5,-191.2 341.5,-191.2 341.5,-172.2 268.5,-172.2"/>
<polygon fill="none" stroke="#000000" points="268.5,-172.2 268.5,-191.2 341.5,-191.2 341.5,-172.2 268.5,-172.2"/>
<text text-anchor="start" x="271.5" y="-178.3" font-family="Helvetica,sans-Serif" font-size="11.00" fill="#000000">&lt; 3</text>
<polygon fill="#ffffff" stroke="transparent" points="341.5,-172.2 341.5,-191.2 379.5,-191.2 379.5,-172.2 341.5,-172.2"/>
<polygon fill="none" stroke="#000000" points="341.5,-172.2 341.5,-191.2 379.5,-191.2 379.5,-172.2 341.5,-172.2"/>
<text text-anchor="start" x="370.3862" y="-178.3" font-family="Helvetica,sans-Serif" font-size="11.00" fill="#000000"> &#160;</text>
<polygon fill="#ffffff" stroke="transparent" points="379.5,-172.2 379.5,-191.2 427.5,-191.2 427.5,-172.2 379.5,-172.2"/>
<polygon fill="none" stroke="#000000" points="379.5,-172.2 379.5,-191.2 427.5,-191.2 427.5,-172.2 379.5,-172.2"/>
<text text-anchor="start" x="408.9053" y="-178.3" font-family="Helvetica,sans-Serif" font-size="11.00" fill="#000000">1 &gt;</text>
</a>
</g>
</g>
<!-- court_appearance_reason -->
<g id="node2" class="node">
<title>court_appearance_reason</title>
<g id="a_node2"><a xlink:href="../../tables/court_appearance_reason.html" xlink:title="court_appearance_reason" target="_top">
<polygon fill="#ffffff" stroke="transparent" points="8,-189.2 8,-363.2 219,-363.2 219,-189.2 8,-189.2"/>
<polygon fill="#f5f5f5" stroke="transparent" points="8.5,-340.2 8.5,-363.2 219.5,-363.2 219.5,-340.2 8.5,-340.2"/>
<polygon fill="none" stroke="#000000" points="8.5,-340.2 8.5,-363.2 219.5,-363.2 219.5,-340.2 8.5,-340.2"/>
<text text-anchor="start" x="13.5" y="-348.8" font-family="Helvetica,sans-Serif" font-weight="bold" font-size="11.00" fill="#000000">court_appearance_reason</text>
<text text-anchor="start" x="185.0219" y="-348.3" font-family="Helvetica,sans-Serif" font-size="11.00" fill="#000000">[table]</text>
<polygon fill="none" stroke="#000000" points="8.5,-318.2 8.5,-340.2 219.5,-340.2 219.5,-318.2 8.5,-318.2"/>
<image xlink:href="../../images/primaryKeys.png" width="11px" height="12px" preserveAspectRatio="xMinYMin meet" x="13.5" y="-335.2"/>
<text text-anchor="start" x="37.5" y="-325.3" font-family="Helvetica,sans-Serif" font-size="11.00" fill="#000000">id</text>
<polygon fill="#ffffff" stroke="transparent" points="8.5,-296.2 8.5,-318.2 219.5,-318.2 219.5,-296.2 8.5,-296.2"/>
<polygon fill="none" stroke="#000000" points="8.5,-296.2 8.5,-318.2 219.5,-318.2 219.5,-296.2 8.5,-296.2"/>
<text text-anchor="start" x="37.5" y="-303.3" font-family="Helvetica,sans-Serif" font-size="11.00" fill="#000000">code</text>
<polygon fill="none" stroke="#000000" points="8.5,-274.2 8.5,-296.2 219.5,-296.2 219.5,-274.2 8.5,-274.2"/>
<text text-anchor="start" x="37.5" y="-281.3" font-family="Helvetica,sans-Serif" font-size="11.00" fill="#000000">description</text>
<polygon fill="#ffffff" stroke="transparent" points="8.5,-252.2 8.5,-274.2 219.5,-274.2 219.5,-252.2 8.5,-252.2"/>
<polygon fill="none" stroke="#000000" points="8.5,-252.2 8.5,-274.2 219.5,-274.2 219.5,-252.2 8.5,-252.2"/>
<text text-anchor="start" x="37.5" y="-259.3" font-family="Helvetica,sans-Serif" font-size="11.00" fill="#000000">sequence_number</text>
<polygon fill="none" stroke="#000000" points="8.5,-230.2 8.5,-252.2 219.5,-252.2 219.5,-230.2 8.5,-230.2"/>
<text text-anchor="start" x="37.5" y="-237.3" font-family="Helvetica,sans-Serif" font-size="11.00" fill="#000000">active</text>
<polygon fill="none" stroke="#000000" points="8.5,-208.2 8.5,-230.2 219.5,-230.2 219.5,-208.2 8.5,-208.2"/>
<text text-anchor="start" x="37.5" y="-215.3" font-family="Helvetica,sans-Serif" font-size="11.00" fill="#000000">external</text>
<polygon fill="#ffffff" stroke="transparent" points="8.5,-189.2 8.5,-208.2 103.5,-208.2 103.5,-189.2 8.5,-189.2"/>
<polygon fill="none" stroke="#000000" points="8.5,-189.2 8.5,-208.2 103.5,-208.2 103.5,-189.2 8.5,-189.2"/>
<text text-anchor="start" x="11.5" y="-195.3" font-family="Helvetica,sans-Serif" font-size="11.00" fill="#000000"> &#160;</text>
<polygon fill="#ffffff" stroke="transparent" points="103.5,-189.2 103.5,-208.2 156.5,-208.2 156.5,-189.2 103.5,-189.2"/>
<polygon fill="none" stroke="#000000" points="103.5,-189.2 103.5,-208.2 156.5,-208.2 156.5,-189.2 103.5,-189.2"/>
<text text-anchor="start" x="147.3862" y="-195.3" font-family="Helvetica,sans-Serif" font-size="11.00" fill="#000000"> &#160;</text>
<polygon fill="#ffffff" stroke="transparent" points="156.5,-189.2 156.5,-208.2 219.5,-208.2 219.5,-189.2 156.5,-189.2"/>
<polygon fill="none" stroke="#000000" points="156.5,-189.2 156.5,-208.2 219.5,-208.2 219.5,-189.2 156.5,-189.2"/>
<text text-anchor="start" x="200.9053" y="-195.3" font-family="Helvetica,sans-Serif" font-size="11.00" fill="#000000">2 &gt;</text>
</a>
</g>
</g>
<!-- court_appearance&#45;&gt;court_appearance_reason -->
<g id="edge2" class="edge">
<title>court_appearance:w&#45;&gt;court_appearance_reason:e</title>
<path fill="none" stroke="#000000" d="M254.5757,-352.4458C242.5712,-345.0269 238.5373,-329.2 219.5,-329.2"/>
<polygon fill="#000000" stroke="#000000" points="260.7758,-354.1174 267.5628,-359.6759 264.6379,-355.1587 268.5,-356.2 268.5,-356.2 268.5,-356.2 264.6379,-355.1587 269.4372,-352.7241 260.7758,-354.1174 260.7758,-354.1174"/>
<ellipse fill="none" stroke="#000000" cx="257.6861" cy="-353.2844" rx="3.2" ry="3.2"/>
</g>
<!-- court_appearance_status -->
<g id="node5" class="node">
<title>court_appearance_status</title>
<g id="a_node5"><a xlink:href="../../tables/court_appearance_status.html" xlink:title="court_appearance_status" target="_top">
<polygon fill="#ffffff" stroke="transparent" points="9.5,-38.2 9.5,-168.2 217.5,-168.2 217.5,-38.2 9.5,-38.2"/>
<polygon fill="#f5f5f5" stroke="transparent" points="9.5,-145.2 9.5,-168.2 217.5,-168.2 217.5,-145.2 9.5,-145.2"/>
<polygon fill="none" stroke="#000000" points="9.5,-145.2 9.5,-168.2 217.5,-168.2 217.5,-145.2 9.5,-145.2"/>
<text text-anchor="start" x="14.5" y="-153.8" font-family="Helvetica,sans-Serif" font-weight="bold" font-size="11.00" fill="#000000">court_appearance_status</text>
<text text-anchor="start" x="183.0219" y="-153.3" font-family="Helvetica,sans-Serif" font-size="11.00" fill="#000000">[table]</text>
<polygon fill="none" stroke="#000000" points="9.5,-123.2 9.5,-145.2 217.5,-145.2 217.5,-123.2 9.5,-123.2"/>
<image xlink:href="../../images/primaryKeys.png" width="11px" height="12px" preserveAspectRatio="xMinYMin meet" x="14.5" y="-140.2"/>
<text text-anchor="start" x="38.5" y="-130.3" font-family="Helvetica,sans-Serif" font-size="11.00" fill="#000000">id</text>
<polygon fill="#ffffff" stroke="transparent" points="9.5,-101.2 9.5,-123.2 217.5,-123.2 217.5,-101.2 9.5,-101.2"/>
<polygon fill="none" stroke="#000000" points="9.5,-101.2 9.5,-123.2 217.5,-123.2 217.5,-101.2 9.5,-101.2"/>
<text text-anchor="start" x="38.5" y="-108.3" font-family="Helvetica,sans-Serif" font-size="11.00" fill="#000000">code</text>
<polygon fill="none" stroke="#000000" points="9.5,-79.2 9.5,-101.2 217.5,-101.2 217.5,-79.2 9.5,-79.2"/>
<text text-anchor="start" x="38.5" y="-86.3" font-family="Helvetica,sans-Serif" font-size="11.00" fill="#000000">description</text>
<polygon fill="#ffffff" stroke="transparent" points="9.5,-57.2 9.5,-79.2 217.5,-79.2 217.5,-57.2 9.5,-57.2"/>
<polygon fill="none" stroke="#000000" points="9.5,-57.2 9.5,-79.2 217.5,-79.2 217.5,-57.2 9.5,-57.2"/>
<text text-anchor="start" x="38.5" y="-64.3" font-family="Helvetica,sans-Serif" font-size="11.00" fill="#000000">sequence_number</text>
<polygon fill="#ffffff" stroke="transparent" points="9.5,-38.2 9.5,-57.2 102.5,-57.2 102.5,-38.2 9.5,-38.2"/>
<polygon fill="none" stroke="#000000" points="9.5,-38.2 9.5,-57.2 102.5,-57.2 102.5,-38.2 9.5,-38.2"/>
<text text-anchor="start" x="12.5" y="-44.3" font-family="Helvetica,sans-Serif" font-size="11.00" fill="#000000"> &#160;</text>
<polygon fill="#ffffff" stroke="transparent" points="102.5,-38.2 102.5,-57.2 155.5,-57.2 155.5,-38.2 102.5,-38.2"/>
<polygon fill="none" stroke="#000000" points="102.5,-38.2 102.5,-57.2 155.5,-57.2 155.5,-38.2 102.5,-38.2"/>
<text text-anchor="start" x="146.3862" y="-44.3" font-family="Helvetica,sans-Serif" font-size="11.00" fill="#000000"> &#160;</text>
<polygon fill="#ffffff" stroke="transparent" points="155.5,-38.2 155.5,-57.2 217.5,-57.2 217.5,-38.2 155.5,-38.2"/>
<polygon fill="none" stroke="#000000" points="155.5,-38.2 155.5,-57.2 217.5,-57.2 217.5,-38.2 155.5,-38.2"/>
<text text-anchor="start" x="198.9053" y="-44.3" font-family="Helvetica,sans-Serif" font-size="11.00" fill="#000000">1 &gt;</text>
</a>
</g>
</g>
<!-- court_appearance&#45;&gt;court_appearance_status -->
<g id="edge3" class="edge">
<title>court_appearance:w&#45;&gt;court_appearance_status:e</title>
<path fill="none" stroke="#000000" d="M254.2442,-309.8183C200.8201,-288.6959 294.1687,-134.2 217.5,-134.2"/>
<polygon fill="#000000" stroke="#000000" points="260.6094,-310.8817 267.9068,-315.7508 264.5547,-311.5408 268.5,-312.2 268.5,-312.2 268.5,-312.2 264.5547,-311.5408 269.0932,-308.6492 260.6094,-310.8817 260.6094,-310.8817"/>
<ellipse fill="none" stroke="#000000" cx="257.4531" cy="-310.3544" rx="3.2" ry="3.2"/>
</g>
<!-- person_summary -->
<g id="node8" class="node">
<title>person_summary</title>
<g id="a_node8"><a xlink:href="../../tables/person_summary.html" xlink:title="person_summary" target="_top">
<polygon fill="#ffffff" stroke="transparent" points="36.5,-384.2 36.5,-558.2 190.5,-558.2 190.5,-384.2 36.5,-384.2"/>
<polygon fill="#f5f5f5" stroke="transparent" points="36.5,-535.2 36.5,-558.2 190.5,-558.2 190.5,-535.2 36.5,-535.2"/>
<polygon fill="none" stroke="#000000" points="36.5,-535.2 36.5,-558.2 190.5,-558.2 190.5,-535.2 36.5,-535.2"/>
<text text-anchor="start" x="41.5" y="-543.8" font-family="Helvetica,sans-Serif" font-weight="bold" font-size="11.00" fill="#000000">person_summary</text>
<text text-anchor="start" x="156.0219" y="-543.3" font-family="Helvetica,sans-Serif" font-size="11.00" fill="#000000">[table]</text>
<polygon fill="none" stroke="#000000" points="36.5,-513.2 36.5,-535.2 190.5,-535.2 190.5,-513.2 36.5,-513.2"/>
<image xlink:href="../../images/primaryKeys.png" width="11px" height="12px" preserveAspectRatio="xMinYMin meet" x="41.5" y="-530.2"/>
<text text-anchor="start" x="65.5" y="-520.3" font-family="Helvetica,sans-Serif" font-size="11.00" fill="#000000">person_identifier</text>
<polygon fill="none" stroke="#000000" points="36.5,-491.2 36.5,-513.2 190.5,-513.2 190.5,-491.2 36.5,-491.2"/>
<text text-anchor="start" x="65.5" y="-498.3" font-family="Helvetica,sans-Serif" font-size="11.00" fill="#000000">version</text>
<polygon fill="none" stroke="#000000" points="36.5,-469.2 36.5,-491.2 190.5,-491.2 190.5,-469.2 36.5,-469.2"/>
<text text-anchor="start" x="65.5" y="-476.3" font-family="Helvetica,sans-Serif" font-size="11.00" fill="#000000">first_name</text>
<polygon fill="none" stroke="#000000" points="36.5,-447.2 36.5,-469.2 190.5,-469.2 190.5,-447.2 36.5,-447.2"/>
<text text-anchor="start" x="65.5" y="-454.3" font-family="Helvetica,sans-Serif" font-size="11.00" fill="#000000">last_name</text>
<polygon fill="none" stroke="#000000" points="36.5,-425.2 36.5,-447.2 190.5,-447.2 190.5,-425.2 36.5,-425.2"/>
<text text-anchor="start" x="65.5" y="-432.3" font-family="Helvetica,sans-Serif" font-size="11.00" fill="#000000">prison_code</text>
<polygon fill="none" stroke="#000000" points="36.5,-403.2 36.5,-425.2 190.5,-425.2 190.5,-403.2 36.5,-403.2"/>
<text text-anchor="start" x="65.5" y="-410.3" font-family="Helvetica,sans-Serif" font-size="11.00" fill="#000000">cell_location</text>
<polygon fill="#ffffff" stroke="transparent" points="36.5,-384.2 36.5,-403.2 102.5,-403.2 102.5,-384.2 36.5,-384.2"/>
<polygon fill="none" stroke="#000000" points="36.5,-384.2 36.5,-403.2 102.5,-403.2 102.5,-384.2 36.5,-384.2"/>
<text text-anchor="start" x="39.5" y="-390.3" font-family="Helvetica,sans-Serif" font-size="11.00" fill="#000000"> &#160;</text>
<polygon fill="#ffffff" stroke="transparent" points="102.5,-384.2 102.5,-403.2 141.5,-403.2 141.5,-384.2 102.5,-384.2"/>
<polygon fill="none" stroke="#000000" points="102.5,-384.2 102.5,-403.2 141.5,-403.2 141.5,-384.2 102.5,-384.2"/>
<text text-anchor="start" x="132.3862" y="-390.3" font-family="Helvetica,sans-Serif" font-size="11.00" fill="#000000"> &#160;</text>
<polygon fill="#ffffff" stroke="transparent" points="141.5,-384.2 141.5,-403.2 190.5,-403.2 190.5,-384.2 141.5,-384.2"/>
<polygon fill="none" stroke="#000000" points="141.5,-384.2 141.5,-403.2 190.5,-403.2 190.5,-384.2 141.5,-384.2"/>
<text text-anchor="start" x="171.9053" y="-390.3" font-family="Helvetica,sans-Serif" font-size="11.00" fill="#000000">2 &gt;</text>
</a>
</g>
</g>
<!-- court_appearance&#45;&gt;person_summary -->
<g id="edge1" class="edge">
<title>court_appearance:w&#45;&gt;person_summary:e</title>
<path fill="none" stroke="#000000" d="M254.2736,-424.9283C217.6002,-441.1491 241.996,-524.2 190.5,-524.2"/>
<polygon fill="#000000" stroke="#000000" points="260.6432,-423.7068 269.1781,-425.7356 264.5716,-422.9534 268.5,-422.2 268.5,-422.2 268.5,-422.2 264.5716,-422.9534 267.8219,-418.6644 260.6432,-423.7068 260.6432,-423.7068"/>
<ellipse fill="none" stroke="#000000" cx="257.5004" cy="-424.3095" rx="3.2" ry="3.2"/>
</g>
<!-- court_appearance_audit -->
<g id="node3" class="node">
<title>court_appearance_audit</title>
<g id="a_node3"><a xlink:href="../../tables/court_appearance_audit.html" xlink:title="court_appearance_audit" target="_top">
<polygon fill="#ffffff" stroke="transparent" points="515,-914.2 515,-1286.2 715,-1286.2 715,-914.2 515,-914.2"/>
<polygon fill="#f5f5f5" stroke="transparent" points="515,-1263.2 515,-1286.2 715,-1286.2 715,-1263.2 515,-1263.2"/>
<polygon fill="none" stroke="#000000" points="515,-1263.2 515,-1286.2 715,-1286.2 715,-1263.2 515,-1263.2"/>
<text text-anchor="start" x="520" y="-1271.8" font-family="Helvetica,sans-Serif" font-weight="bold" font-size="11.00" fill="#000000">court_appearance_audit</text>
<text text-anchor="start" x="680.5219" y="-1271.3" font-family="Helvetica,sans-Serif" font-size="11.00" fill="#000000">[table]</text>
<polygon fill="none" stroke="#000000" points="515,-1241.2 515,-1263.2 715,-1263.2 715,-1241.2 515,-1241.2"/>
<image xlink:href="../../images/primaryKeys.png" width="11px" height="12px" preserveAspectRatio="xMinYMin meet" x="520" y="-1258.2"/>
<text text-anchor="start" x="544" y="-1248.3" font-family="Helvetica,sans-Serif" font-size="11.00" fill="#000000">rev_id</text>
<polygon fill="none" stroke="#000000" points="515,-1219.2 515,-1241.2 715,-1241.2 715,-1219.2 515,-1219.2"/>
<text text-anchor="start" x="544" y="-1226.3" font-family="Helvetica,sans-Serif" font-size="11.00" fill="#000000">rev_type</text>
<polygon fill="none" stroke="#000000" points="515,-1197.2 515,-1219.2 715,-1219.2 715,-1197.2 515,-1197.2"/>
<image xlink:href="../../images/primaryKeys.png" width="11px" height="12px" preserveAspectRatio="xMinYMin meet" x="520" y="-1214.2"/>
<text text-anchor="start" x="544" y="-1204.3" font-family="Helvetica,sans-Serif" font-size="11.00" fill="#000000">id</text>
<polygon fill="none" stroke="#000000" points="515,-1175.2 515,-1197.2 715,-1197.2 715,-1175.2 515,-1175.2"/>
<text text-anchor="start" x="544" y="-1182.3" font-family="Helvetica,sans-Serif" font-size="11.00" fill="#000000">version</text>
<polygon fill="none" stroke="#000000" points="515,-1153.2 515,-1175.2 715,-1175.2 715,-1153.2 515,-1153.2"/>
<image xlink:href="../../images/foreignKeys.png" width="11px" height="12px" preserveAspectRatio="xMinYMin meet" x="520" y="-1170.2"/>
<text text-anchor="start" x="544" y="-1160.3" font-family="Helvetica,sans-Serif" font-size="11.00" fill="#000000">person_identifier</text>
<polygon fill="none" stroke="#000000" points="515,-1131.2 515,-1153.2 715,-1153.2 715,-1131.2 515,-1131.2"/>
<text text-anchor="start" x="544" y="-1138.3" font-family="Helvetica,sans-Serif" font-size="11.00" fill="#000000">prison_code</text>
<polygon fill="none" stroke="#000000" points="515,-1109.2 515,-1131.2 715,-1131.2 715,-1109.2 515,-1109.2"/>
<text text-anchor="start" x="544" y="-1116.3" font-family="Helvetica,sans-Serif" font-size="11.00" fill="#000000">court_code</text>
<polygon fill="none" stroke="#000000" points="515,-1087.2 515,-1109.2 715,-1109.2 715,-1087.2 515,-1087.2"/>
<text text-anchor="start" x="544" y="-1094.3" font-family="Helvetica,sans-Serif" font-size="11.00" fill="#000000">reason_id</text>
<polygon fill="none" stroke="#000000" points="515,-1065.2 515,-1087.2 715,-1087.2 715,-1065.2 515,-1065.2"/>
<text text-anchor="start" x="544" y="-1072.3" font-family="Helvetica,sans-Serif" font-size="11.00" fill="#000000">external</text>
<polygon fill="none" stroke="#000000" points="515,-1043.2 515,-1065.2 715,-1065.2 715,-1043.2 515,-1043.2"/>
<text text-anchor="start" x="544" y="-1050.3" font-family="Helvetica,sans-Serif" font-size="11.00" fill="#000000">status_id</text>
<polygon fill="none" stroke="#000000" points="515,-1021.2 515,-1043.2 715,-1043.2 715,-1021.2 515,-1021.2"/>
<text text-anchor="start" x="544" y="-1028.3" font-family="Helvetica,sans-Serif" font-size="11.00" fill="#000000">start</text>
<polygon fill="none" stroke="#000000" points="515,-999.2 515,-1021.2 715,-1021.2 715,-999.2 515,-999.2"/>
<text text-anchor="start" x="544" y="-1006.3" font-family="Helvetica,sans-Serif" font-size="11.00" fill="#000000">end</text>
<polygon fill="none" stroke="#000000" points="515,-977.2 515,-999.2 715,-999.2 715,-977.2 515,-977.2"/>
<text text-anchor="start" x="544" y="-984.3" font-family="Helvetica,sans-Serif" font-size="11.00" fill="#000000">comments</text>
<polygon fill="none" stroke="#000000" points="515,-955.2 515,-977.2 715,-977.2 715,-955.2 515,-955.2"/>
<image xlink:href="../../images/foreignKeys.png" width="11px" height="12px" preserveAspectRatio="xMinYMin meet" x="520" y="-972.2"/>
<text text-anchor="start" x="544" y="-962.3" font-family="Helvetica,sans-Serif" font-size="11.00" fill="#000000">legacy_id</text>
<polygon fill="none" stroke="#000000" points="515,-933.2 515,-955.2 715,-955.2 715,-933.2 515,-933.2"/>
<text text-anchor="start" x="544" y="-940.3" font-family="Helvetica,sans-Serif" font-size="11.00" fill="#000000">external_reference</text>
<polygon fill="#ffffff" stroke="transparent" points="515,-914.2 515,-933.2 613,-933.2 613,-914.2 515,-914.2"/>
<polygon fill="none" stroke="#000000" points="515,-914.2 515,-933.2 613,-933.2 613,-914.2 515,-914.2"/>
<text text-anchor="start" x="518" y="-920.3" font-family="Helvetica,sans-Serif" font-size="11.00" fill="#000000">&lt; 1</text>
<polygon fill="#ffffff" stroke="transparent" points="613,-914.2 613,-933.2 664,-933.2 664,-914.2 613,-914.2"/>
<polygon fill="none" stroke="#000000" points="613,-914.2 613,-933.2 664,-933.2 664,-914.2 613,-914.2"/>
<text text-anchor="start" x="654.8862" y="-920.3" font-family="Helvetica,sans-Serif" font-size="11.00" fill="#000000"> &#160;</text>
<polygon fill="#ffffff" stroke="transparent" points="664,-914.2 664,-933.2 715,-933.2 715,-914.2 664,-914.2"/>
<polygon fill="none" stroke="#000000" points="664,-914.2 664,-933.2 715,-933.2 715,-914.2 664,-914.2"/>
<text text-anchor="start" x="705.8862" y="-920.3" font-family="Helvetica,sans-Serif" font-size="11.00" fill="#000000"> &#160;</text>
</a>
</g>
</g>
<!-- audit_revision -->
<g id="node7" class="node">
<title>audit_revision</title>
<g id="a_node7"><a xlink:href="../../tables/audit_revision.html" xlink:title="audit_revision" target="_top">
<polygon fill="#ffffff" stroke="transparent" points="280.5,-893.2 280.5,-1089.2 414.5,-1089.2 414.5,-893.2 280.5,-893.2"/>
<polygon fill="#f5f5f5" stroke="transparent" points="280.5,-1066.2 280.5,-1089.2 414.5,-1089.2 414.5,-1066.2 280.5,-1066.2"/>
<polygon fill="none" stroke="#000000" points="280.5,-1066.2 280.5,-1089.2 414.5,-1089.2 414.5,-1066.2 280.5,-1066.2"/>
<text text-anchor="start" x="285.5" y="-1074.8" font-family="Helvetica,sans-Serif" font-weight="bold" font-size="11.00" fill="#000000">audit_revision</text>
<text text-anchor="start" x="380.0219" y="-1074.3" font-family="Helvetica,sans-Serif" font-size="11.00" fill="#000000">[table]</text>
<polygon fill="none" stroke="#000000" points="280.5,-1044.2 280.5,-1066.2 414.5,-1066.2 414.5,-1044.2 280.5,-1044.2"/>
<image xlink:href="../../images/primaryKeys.png" width="11px" height="12px" preserveAspectRatio="xMinYMin meet" x="285.5" y="-1061.2"/>
<text text-anchor="start" x="300.5" y="-1051.3" font-family="Helvetica,sans-Serif" font-size="11.00" fill="#000000">id</text>
<polygon fill="none" stroke="#000000" points="280.5,-1022.2 280.5,-1044.2 414.5,-1044.2 414.5,-1022.2 280.5,-1022.2"/>
<text text-anchor="start" x="300.5" y="-1029.3" font-family="Helvetica,sans-Serif" font-size="11.00" fill="#000000">timestamp</text>
<polygon fill="none" stroke="#000000" points="280.5,-1000.2 280.5,-1022.2 414.5,-1022.2 414.5,-1000.2 280.5,-1000.2"/>
<text text-anchor="start" x="300.5" y="-1007.3" font-family="Helvetica,sans-Serif" font-size="11.00" fill="#000000">source</text>
<polygon fill="none" stroke="#000000" points="280.5,-978.2 280.5,-1000.2 414.5,-1000.2 414.5,-978.2 280.5,-978.2"/>
<text text-anchor="start" x="300.5" y="-985.3" font-family="Helvetica,sans-Serif" font-size="11.00" fill="#000000">affected_entities</text>
<polygon fill="none" stroke="#000000" points="280.5,-956.2 280.5,-978.2 414.5,-978.2 414.5,-956.2 280.5,-956.2"/>
<text text-anchor="start" x="300.5" y="-963.3" font-family="Helvetica,sans-Serif" font-size="11.00" fill="#000000">username</text>
<polygon fill="none" stroke="#000000" points="280.5,-934.2 280.5,-956.2 414.5,-956.2 414.5,-934.2 280.5,-934.2"/>
<text text-anchor="start" x="300.5" y="-941.3" font-family="Helvetica,sans-Serif" font-size="11.00" fill="#000000">caseload_id</text>
<polygon fill="none" stroke="#000000" points="280.5,-912.2 280.5,-934.2 414.5,-934.2 414.5,-912.2 280.5,-912.2"/>
<text text-anchor="start" x="300.5" y="-919.3" font-family="Helvetica,sans-Serif" font-size="11.00" fill="#000000">reason</text>
<polygon fill="#ffffff" stroke="transparent" points="280.5,-893.2 280.5,-912.2 336.5,-912.2 336.5,-893.2 280.5,-893.2"/>
<polygon fill="none" stroke="#000000" points="280.5,-893.2 280.5,-912.2 336.5,-912.2 336.5,-893.2 280.5,-893.2"/>
<text text-anchor="start" x="283.5" y="-899.3" font-family="Helvetica,sans-Serif" font-size="11.00" fill="#000000"> &#160;</text>
<polygon fill="#ffffff" stroke="transparent" points="336.5,-893.2 336.5,-912.2 370.5,-912.2 370.5,-893.2 336.5,-893.2"/>
<polygon fill="none" stroke="#000000" points="336.5,-893.2 336.5,-912.2 370.5,-912.2 370.5,-893.2 336.5,-893.2"/>
<text text-anchor="start" x="361.3862" y="-899.3" font-family="Helvetica,sans-Serif" font-size="11.00" fill="#000000"> &#160;</text>
<polygon fill="#ffffff" stroke="transparent" points="370.5,-893.2 370.5,-912.2 414.5,-912.2 414.5,-893.2 370.5,-893.2"/>
<polygon fill="none" stroke="#000000" points="370.5,-893.2 370.5,-912.2 414.5,-912.2 414.5,-893.2 370.5,-893.2"/>
<text text-anchor="start" x="395.9053" y="-899.3" font-family="Helvetica,sans-Serif" font-size="11.00" fill="#000000">2 &gt;</text>
</a>
</g>
</g>
<!-- court_appearance_audit&#45;&gt;audit_revision -->
<g id="edge4" class="edge">
<title>court_appearance_audit:w&#45;&gt;audit_revision:e</title>
<path fill="none" stroke="#000000" d="M500.5545,-1250.4969C426.6368,-1231.2423 507.4155,-1055.2 414.5,-1055.2"/>
<polygon fill="#000000" stroke="#000000" points="507.055,-1251.2633 514.5785,-1255.7752 511.0275,-1251.7316 515,-1252.2 515,-1252.2 515,-1252.2 511.0275,-1251.7316 515.4215,-1248.6248 507.055,-1251.2633 507.055,-1251.2633"/>
<ellipse fill="none" stroke="#000000" cx="503.877" cy="-1250.8886" rx="3.2" ry="3.2"/>
</g>
<!-- court_appearance_movement -->
<g id="node4" class="node">
<title>court_appearance_movement</title>
<g id="a_node4"><a xlink:href="../../tables/court_appearance_movement.html" xlink:title="court_appearance_movement" target="_top">
<polygon fill="#ffffff" stroke="transparent" points="496.5,-260.2 496.5,-544.2 733.5,-544.2 733.5,-260.2 496.5,-260.2"/>
<polygon fill="#f5f5f5" stroke="transparent" points="497,-521.2 497,-544.2 734,-544.2 734,-521.2 497,-521.2"/>
<polygon fill="none" stroke="#000000" points="497,-521.2 497,-544.2 734,-544.2 734,-521.2 497,-521.2"/>
<text text-anchor="start" x="502" y="-529.8" font-family="Helvetica,sans-Serif" font-weight="bold" font-size="11.00" fill="#000000">court_appearance_movement</text>
<text text-anchor="start" x="699.5219" y="-529.3" font-family="Helvetica,sans-Serif" font-size="11.00" fill="#000000">[table]</text>
<polygon fill="none" stroke="#000000" points="497,-499.2 497,-521.2 734,-521.2 734,-499.2 497,-499.2"/>
<image xlink:href="../../images/primaryKeys.png" width="11px" height="12px" preserveAspectRatio="xMinYMin meet" x="502" y="-516.2"/>
<text text-anchor="start" x="526" y="-506.3" font-family="Helvetica,sans-Serif" font-size="11.00" fill="#000000">id</text>
<polygon fill="none" stroke="#000000" points="497,-477.2 497,-499.2 734,-499.2 734,-477.2 497,-477.2"/>
<text text-anchor="start" x="526" y="-484.3" font-family="Helvetica,sans-Serif" font-size="11.00" fill="#000000">version</text>
<polygon fill="#ffffff" stroke="transparent" points="497,-455.2 497,-477.2 734,-477.2 734,-455.2 497,-455.2"/>
<polygon fill="none" stroke="#000000" points="497,-455.2 497,-477.2 734,-477.2 734,-455.2 497,-455.2"/>
<image xlink:href="../../images/foreignKeys.png" width="11px" height="12px" preserveAspectRatio="xMinYMin meet" x="502" y="-472.2"/>
<text text-anchor="start" x="526" y="-462.3" font-family="Helvetica,sans-Serif" font-size="11.00" fill="#000000">court_appearance_id</text>
<polygon fill="#ffffff" stroke="transparent" points="497,-433.2 497,-455.2 734,-455.2 734,-433.2 497,-433.2"/>
<polygon fill="none" stroke="#000000" points="497,-433.2 497,-455.2 734,-455.2 734,-433.2 497,-433.2"/>
<image xlink:href="../../images/foreignKeys.png" width="11px" height="12px" preserveAspectRatio="xMinYMin meet" x="502" y="-450.2"/>
<text text-anchor="start" x="526" y="-440.3" font-family="Helvetica,sans-Serif" font-size="11.00" fill="#000000">person_identifier</text>
<polygon fill="none" stroke="#000000" points="497,-411.2 497,-433.2 734,-433.2 734,-411.2 497,-411.2"/>
<text text-anchor="start" x="526" y="-418.3" font-family="Helvetica,sans-Serif" font-size="11.00" fill="#000000">prison_code</text>
<polygon fill="none" stroke="#000000" points="497,-389.2 497,-411.2 734,-411.2 734,-389.2 497,-389.2"/>
<text text-anchor="start" x="526" y="-396.3" font-family="Helvetica,sans-Serif" font-size="11.00" fill="#000000">court_code</text>
<polygon fill="none" stroke="#000000" points="497,-367.2 497,-389.2 734,-389.2 734,-367.2 497,-367.2"/>
<image xlink:href="../../images/foreignKeys.png" width="11px" height="12px" preserveAspectRatio="xMinYMin meet" x="502" y="-384.2"/>
<text text-anchor="start" x="526" y="-374.3" font-family="Helvetica,sans-Serif" font-size="11.00" fill="#000000">reason_id</text>
<polygon fill="none" stroke="#000000" points="497,-345.2 497,-367.2 734,-367.2 734,-345.2 497,-345.2"/>
<text text-anchor="start" x="526" y="-352.3" font-family="Helvetica,sans-Serif" font-size="11.00" fill="#000000">direction</text>
<polygon fill="none" stroke="#000000" points="497,-323.2 497,-345.2 734,-345.2 734,-323.2 497,-323.2"/>
<text text-anchor="start" x="526" y="-330.3" font-family="Helvetica,sans-Serif" font-size="11.00" fill="#000000">occurred_at</text>
<polygon fill="none" stroke="#000000" points="497,-301.2 497,-323.2 734,-323.2 734,-301.2 497,-301.2"/>
<text text-anchor="start" x="526" y="-308.3" font-family="Helvetica,sans-Serif" font-size="11.00" fill="#000000">comments</text>
<polygon fill="#ffffff" stroke="transparent" points="497,-279.2 497,-301.2 734,-301.2 734,-279.2 497,-279.2"/>
<polygon fill="none" stroke="#000000" points="497,-279.2 497,-301.2 734,-301.2 734,-279.2 497,-279.2"/>
<text text-anchor="start" x="526" y="-286.3" font-family="Helvetica,sans-Serif" font-size="11.00" fill="#000000">legacy_id</text>
<polygon fill="#ffffff" stroke="transparent" points="497,-260.2 497,-279.2 614,-279.2 614,-260.2 497,-260.2"/>
<polygon fill="none" stroke="#000000" points="497,-260.2 497,-279.2 614,-279.2 614,-260.2 497,-260.2"/>
<text text-anchor="start" x="500" y="-266.3" font-family="Helvetica,sans-Serif" font-size="11.00" fill="#000000">&lt; 3</text>
<polygon fill="#ffffff" stroke="transparent" points="614,-260.2 614,-279.2 674,-279.2 674,-260.2 614,-260.2"/>
<polygon fill="none" stroke="#000000" points="614,-260.2 614,-279.2 674,-279.2 674,-260.2 614,-260.2"/>
<text text-anchor="start" x="664.8862" y="-266.3" font-family="Helvetica,sans-Serif" font-size="11.00" fill="#000000"> &#160;</text>
<polygon fill="#ffffff" stroke="transparent" points="674,-260.2 674,-279.2 734,-279.2 734,-260.2 674,-260.2"/>
<polygon fill="none" stroke="#000000" points="674,-260.2 674,-279.2 734,-279.2 734,-260.2 674,-260.2"/>
<text text-anchor="start" x="724.8862" y="-266.3" font-family="Helvetica,sans-Serif" font-size="11.00" fill="#000000"> &#160;</text>
</a>
</g>
</g>
<!-- court_appearance_movement&#45;&gt;court_appearance -->
<g id="edge5" class="edge">
<title>court_appearance_movement:w&#45;&gt;court_appearance:e</title>
<path fill="none" stroke="#000000" d="M482.3241,-466.2C462.5879,-466.2 452.8385,-466.2 427.5,-466.2"/>
<polygon fill="#000000" stroke="#000000" points="489,-466.2001 497,-469.8 493,-466.2 497,-466.2 497,-466.2 497,-466.2 493,-466.2 497,-462.6 489,-466.2001 489,-466.2001"/>
<ellipse fill="none" stroke="#000000" cx="485.8" cy="-466.2001" rx="3.2" ry="3.2"/>
</g>
<!-- court_appearance_movement&#45;&gt;court_appearance_reason -->
<g id="edge7" class="edge">
<title>court_appearance_movement:w&#45;&gt;court_appearance_reason:e</title>
<path fill="none" stroke="#000000" d="M482.4378,-376.8363C409.0507,-361.3598 510.6981,-218.2992 435,-161.2 372.9062,-114.3626 321.1028,-113.0769 260,-161.2 199.6609,-208.7216 296.3057,-329.2 219.5,-329.2"/>
<polygon fill="#000000" stroke="#000000" points="489.0348,-377.4541 496.6643,-381.7843 493.0174,-377.827 497,-378.2 497,-378.2 497,-378.2 493.0174,-377.827 497.3357,-374.6157 489.0348,-377.4541 489.0348,-377.4541"/>
<ellipse fill="none" stroke="#000000" cx="485.8488" cy="-377.1557" rx="3.2" ry="3.2"/>
</g>
<!-- court_appearance_movement&#45;&gt;person_summary -->
<g id="edge6" class="edge">
<title>court_appearance_movement:w&#45;&gt;person_summary:e</title>
<path fill="none" stroke="#000000" d="M482.5842,-447.0704C459.765,-457.9068 466.4218,-496.4598 435,-511.2 336.4813,-557.4158 299.3202,-524.2 190.5,-524.2"/>
<polygon fill="#000000" stroke="#000000" points="489.154,-445.7623 497.703,-447.7307 493.077,-444.9812 497,-444.2 497,-444.2 497,-444.2 493.077,-444.9812 496.297,-440.6693 489.154,-445.7623 489.154,-445.7623"/>
<ellipse fill="none" stroke="#000000" cx="486.0156" cy="-446.3872" rx="3.2" ry="3.2"/>
</g>
<!-- court_appearance_movement_audit -->
<g id="node6" class="node">
<title>court_appearance_movement_audit</title>
<g id="a_node6"><a xlink:href="../../tables/court_appearance_movement_audit.html" xlink:title="court_appearance_movement_audit" target="_top">
<polygon fill="#ffffff" stroke="transparent" points="476,-565.2 476,-893.2 754,-893.2 754,-565.2 476,-565.2"/>
<polygon fill="#f5f5f5" stroke="transparent" points="476,-870.2 476,-893.2 754,-893.2 754,-870.2 476,-870.2"/>
<polygon fill="none" stroke="#000000" points="476,-870.2 476,-893.2 754,-893.2 754,-870.2 476,-870.2"/>
<text text-anchor="start" x="481" y="-878.8" font-family="Helvetica,sans-Serif" font-weight="bold" font-size="11.00" fill="#000000">court_appearance_movement_audit</text>
<text text-anchor="start" x="719.5219" y="-878.3" font-family="Helvetica,sans-Serif" font-size="11.00" fill="#000000">[table]</text>
<polygon fill="none" stroke="#000000" points="476,-848.2 476,-870.2 754,-870.2 754,-848.2 476,-848.2"/>
<image xlink:href="../../images/primaryKeys.png" width="11px" height="12px" preserveAspectRatio="xMinYMin meet" x="481" y="-865.2"/>
<text text-anchor="start" x="505" y="-855.3" font-family="Helvetica,sans-Serif" font-size="11.00" fill="#000000">rev_id</text>
<polygon fill="none" stroke="#000000" points="476,-826.2 476,-848.2 754,-848.2 754,-826.2 476,-826.2"/>
<text text-anchor="start" x="505" y="-833.3" font-family="Helvetica,sans-Serif" font-size="11.00" fill="#000000">rev_type</text>
<polygon fill="none" stroke="#000000" points="476,-804.2 476,-826.2 754,-826.2 754,-804.2 476,-804.2"/>
<image xlink:href="../../images/primaryKeys.png" width="11px" height="12px" preserveAspectRatio="xMinYMin meet" x="481" y="-821.2"/>
<text text-anchor="start" x="505" y="-811.3" font-family="Helvetica,sans-Serif" font-size="11.00" fill="#000000">id</text>
<polygon fill="none" stroke="#000000" points="476,-782.2 476,-804.2 754,-804.2 754,-782.2 476,-782.2"/>
<text text-anchor="start" x="505" y="-789.3" font-family="Helvetica,sans-Serif" font-size="11.00" fill="#000000">version</text>
<polygon fill="none" stroke="#000000" points="476,-760.2 476,-782.2 754,-782.2 754,-760.2 476,-760.2"/>
<text text-anchor="start" x="505" y="-767.3" font-family="Helvetica,sans-Serif" font-size="11.00" fill="#000000">court_appearance_id</text>
<polygon fill="none" stroke="#000000" points="476,-738.2 476,-760.2 754,-760.2 754,-738.2 476,-738.2"/>
<image xlink:href="../../images/foreignKeys.png" width="11px" height="12px" preserveAspectRatio="xMinYMin meet" x="481" y="-755.2"/>
<text text-anchor="start" x="505" y="-745.3" font-family="Helvetica,sans-Serif" font-size="11.00" fill="#000000">person_identifier</text>
<polygon fill="none" stroke="#000000" points="476,-716.2 476,-738.2 754,-738.2 754,-716.2 476,-716.2"/>
<text text-anchor="start" x="505" y="-723.3" font-family="Helvetica,sans-Serif" font-size="11.00" fill="#000000">prison_code</text>
<polygon fill="none" stroke="#000000" points="476,-694.2 476,-716.2 754,-716.2 754,-694.2 476,-694.2"/>
<text text-anchor="start" x="505" y="-701.3" font-family="Helvetica,sans-Serif" font-size="11.00" fill="#000000">court_code</text>
<polygon fill="none" stroke="#000000" points="476,-672.2 476,-694.2 754,-694.2 754,-672.2 476,-672.2"/>
<text text-anchor="start" x="505" y="-679.3" font-family="Helvetica,sans-Serif" font-size="11.00" fill="#000000">reason_id</text>
<polygon fill="none" stroke="#000000" points="476,-650.2 476,-672.2 754,-672.2 754,-650.2 476,-650.2"/>
<text text-anchor="start" x="505" y="-657.3" font-family="Helvetica,sans-Serif" font-size="11.00" fill="#000000">direction</text>
<polygon fill="none" stroke="#000000" points="476,-628.2 476,-650.2 754,-650.2 754,-628.2 476,-628.2"/>
<text text-anchor="start" x="505" y="-635.3" font-family="Helvetica,sans-Serif" font-size="11.00" fill="#000000">occurred_at</text>
<polygon fill="none" stroke="#000000" points="476,-606.2 476,-628.2 754,-628.2 754,-606.2 476,-606.2"/>
<text text-anchor="start" x="505" y="-613.3" font-family="Helvetica,sans-Serif" font-size="11.00" fill="#000000">comments</text>
<polygon fill="none" stroke="#000000" points="476,-584.2 476,-606.2 754,-606.2 754,-584.2 476,-584.2"/>
<text text-anchor="start" x="505" y="-591.3" font-family="Helvetica,sans-Serif" font-size="11.00" fill="#000000">legacy_id</text>
<polygon fill="#ffffff" stroke="transparent" points="476,-565.2 476,-584.2 613,-584.2 613,-565.2 476,-565.2"/>
<polygon fill="none" stroke="#000000" points="476,-565.2 476,-584.2 613,-584.2 613,-565.2 476,-565.2"/>
<text text-anchor="start" x="479" y="-571.3" font-family="Helvetica,sans-Serif" font-size="11.00" fill="#000000">&lt; 1</text>
<polygon fill="#ffffff" stroke="transparent" points="613,-565.2 613,-584.2 683,-584.2 683,-565.2 613,-565.2"/>
<polygon fill="none" stroke="#000000" points="613,-565.2 613,-584.2 683,-584.2 683,-565.2 613,-565.2"/>
<text text-anchor="start" x="673.8862" y="-571.3" font-family="Helvetica,sans-Serif" font-size="11.00" fill="#000000"> &#160;</text>
<polygon fill="#ffffff" stroke="transparent" points="683,-565.2 683,-584.2 754,-584.2 754,-565.2 683,-565.2"/>
<polygon fill="none" stroke="#000000" points="683,-565.2 683,-584.2 754,-584.2 754,-565.2 683,-565.2"/>
<text text-anchor="start" x="744.8862" y="-571.3" font-family="Helvetica,sans-Serif" font-size="11.00" fill="#000000"> &#160;</text>
</a>
</g>
</g>
<!-- court_appearance_movement_audit&#45;&gt;audit_revision -->
<g id="edge8" class="edge">
<title>court_appearance_movement_audit:w&#45;&gt;audit_revision:e</title>
<path fill="none" stroke="#000000" d="M461.658,-861.2686C398.5868,-882.2159 500.2709,-1055.2 414.5,-1055.2"/>
<polygon fill="#000000" stroke="#000000" points="468.0819,-860.3421 476.5139,-862.7631 472.041,-859.771 476,-859.2 476,-859.2 476,-859.2 472.041,-859.771 475.4861,-855.6369 468.0819,-860.3421 468.0819,-860.3421"/>
<ellipse fill="none" stroke="#000000" cx="464.9147" cy="-860.7989" rx="3.2" ry="3.2"/>
</g>
</g>
</svg>
