<?xml version="1.0" encoding="UTF-8" standalone="no"?>
<!DOCTYPE svg PUBLIC "-//W3C//DTD SVG 1.1//EN"
 "http://www.w3.org/Graphics/SVG/1.1/DTD/svg11.dtd">
<!-- Generated by graphviz version 2.40.1 (20161225.0304)
 -->
<!-- Title: largeImpliedRelationshipsDiagram Pages: 1 -->
<svg width="848pt" height="1196pt"
 viewBox="0.00 0.00 848.00 1196.20" xmlns="http://www.w3.org/2000/svg" xmlns:xlink="http://www.w3.org/1999/xlink">
<g id="graph0" class="graph" transform="scale(1 1) rotate(0) translate(4 1192.2)">
<title>largeImpliedRelationshipsDiagram</title>
<polygon fill="#ffffff" stroke="transparent" points="-4,4 -4,-1192.2 844,-1192.2 844,4 -4,4"/>
<text text-anchor="middle" x="72.4936" y="-7.3" font-family="Helvetica,sans-Serif" font-size="11.00" fill="#000000">Generated by SchemaSpy</text>
<!-- court_appearance -->
<g id="node1" class="node">
<title>court_appearance</title>
<g id="a_node1"><a xlink:href="../../tables/court_appearance.html" xlink:title="court_appearance" target="_top">
<polygon fill="#ffffff" stroke="transparent" points="327.5,-807.2 327.5,-1135.2 486.5,-1135.2 486.5,-807.2 327.5,-807.2"/>
<polygon fill="#f5f5f5" stroke="transparent" points="328,-1112.2 328,-1135.2 487,-1135.2 487,-1112.2 328,-1112.2"/>
<polygon fill="none" stroke="#000000" points="328,-1112.2 328,-1135.2 487,-1135.2 487,-1112.2 328,-1112.2"/>
<text text-anchor="start" x="333" y="-1120.8" font-family="Helvetica,sans-Serif" font-weight="bold" font-size="11.00" fill="#000000">court_appearance</text>
<text text-anchor="start" x="452.5219" y="-1120.3" font-family="Helvetica,sans-Serif" font-size="11.00" fill="#000000">[table]</text>
<polygon fill="none" stroke="#000000" points="328,-1090.2 328,-1112.2 487,-1112.2 487,-1090.2 328,-1090.2"/>
<image xlink:href="../../images/primaryKeys.png" width="11px" height="12px" preserveAspectRatio="xMinYMin meet" x="333" y="-1107.2"/>
<text text-anchor="start" x="354" y="-1097.3" font-family="Helvetica,sans-Serif" font-size="11.00" fill="#000000">id</text>
<polygon fill="none" stroke="#000000" points="328,-1068.2 328,-1090.2 487,-1090.2 487,-1068.2 328,-1068.2"/>
<text text-anchor="start" x="354" y="-1075.3" font-family="Helvetica,sans-Serif" font-size="11.00" fill="#000000">version</text>
<polygon fill="#ffffff" stroke="transparent" points="328,-1046.2 328,-1068.2 487,-1068.2 487,-1046.2 328,-1046.2"/>
<polygon fill="none" stroke="#000000" points="328,-1046.2 328,-1068.2 487,-1068.2 487,-1046.2 328,-1046.2"/>
<image xlink:href="../../images/foreignKeys.png" width="11px" height="12px" preserveAspectRatio="xMinYMin meet" x="333" y="-1063.2"/>
<text text-anchor="start" x="354" y="-1053.3" font-family="Helvetica,sans-Serif" font-size="11.00" fill="#000000">person_identifier</text>
<polygon fill="#ffffff" stroke="transparent" points="328,-1024.2 328,-1046.2 487,-1046.2 487,-1024.2 328,-1024.2"/>
<polygon fill="none" stroke="#000000" points="328,-1024.2 328,-1046.2 487,-1046.2 487,-1024.2 328,-1024.2"/>
<text text-anchor="start" x="354" y="-1031.3" font-family="Helvetica,sans-Serif" font-size="11.00" fill="#000000">prison_code</text>
<polygon fill="none" stroke="#000000" points="328,-1002.2 328,-1024.2 487,-1024.2 487,-1002.2 328,-1002.2"/>
<text text-anchor="start" x="354" y="-1009.3" font-family="Helvetica,sans-Serif" font-size="11.00" fill="#000000">court_code</text>
<polygon fill="#ffffff" stroke="transparent" points="328,-980.2 328,-1002.2 487,-1002.2 487,-980.2 328,-980.2"/>
<polygon fill="none" stroke="#000000" points="328,-980.2 328,-1002.2 487,-1002.2 487,-980.2 328,-980.2"/>
<image xlink:href="../../images/foreignKeys.png" width="11px" height="12px" preserveAspectRatio="xMinYMin meet" x="333" y="-997.2"/>
<text text-anchor="start" x="354" y="-987.3" font-family="Helvetica,sans-Serif" font-size="11.00" fill="#000000">reason_id</text>
<polygon fill="none" stroke="#000000" points="328,-958.2 328,-980.2 487,-980.2 487,-958.2 328,-958.2"/>
<text text-anchor="start" x="354" y="-965.3" font-family="Helvetica,sans-Serif" font-size="11.00" fill="#000000">external</text>
<polygon fill="#ffffff" stroke="transparent" points="328,-936.2 328,-958.2 487,-958.2 487,-936.2 328,-936.2"/>
<polygon fill="none" stroke="#000000" points="328,-936.2 328,-958.2 487,-958.2 487,-936.2 328,-936.2"/>
<image xlink:href="../../images/foreignKeys.png" width="11px" height="12px" preserveAspectRatio="xMinYMin meet" x="333" y="-953.2"/>
<text text-anchor="start" x="354" y="-943.3" font-family="Helvetica,sans-Serif" font-size="11.00" fill="#000000">status_id</text>
<polygon fill="#ffffff" stroke="transparent" points="328,-914.2 328,-936.2 487,-936.2 487,-914.2 328,-914.2"/>
<polygon fill="none" stroke="#000000" points="328,-914.2 328,-936.2 487,-936.2 487,-914.2 328,-914.2"/>
<text text-anchor="start" x="354" y="-921.3" font-family="Helvetica,sans-Serif" font-size="11.00" fill="#000000">start</text>
<polygon fill="none" stroke="#000000" points="328,-892.2 328,-914.2 487,-914.2 487,-892.2 328,-892.2"/>
<text text-anchor="start" x="354" y="-899.3" font-family="Helvetica,sans-Serif" font-size="11.00" fill="#000000">end</text>
<polygon fill="none" stroke="#000000" points="328,-870.2 328,-892.2 487,-892.2 487,-870.2 328,-870.2"/>
<text text-anchor="start" x="354" y="-877.3" font-family="Helvetica,sans-Serif" font-size="11.00" fill="#000000">comments</text>
<polygon fill="#ffffff" stroke="transparent" points="328,-848.2 328,-870.2 487,-870.2 487,-848.2 328,-848.2"/>
<polygon fill="none" stroke="#000000" points="328,-848.2 328,-870.2 487,-870.2 487,-848.2 328,-848.2"/>
<image xlink:href="../../images/foreignKeys.png" width="11px" height="12px" preserveAspectRatio="xMinYMin meet" x="333" y="-865.2"/>
<text text-anchor="start" x="354" y="-855.3" font-family="Helvetica,sans-Serif" font-size="11.00" fill="#000000">legacy_id</text>
<polygon fill="#ffffff" stroke="transparent" points="328,-826.2 328,-848.2 487,-848.2 487,-826.2 328,-826.2"/>
<polygon fill="none" stroke="#000000" points="328,-826.2 328,-848.2 487,-848.2 487,-826.2 328,-826.2"/>
<text text-anchor="start" x="354" y="-833.3" font-family="Helvetica,sans-Serif" font-size="11.00" fill="#000000">external_reference</text>
<polygon fill="#ffffff" stroke="transparent" points="328,-807.2 328,-826.2 401,-826.2 401,-807.2 328,-807.2"/>
<polygon fill="none" stroke="#000000" points="328,-807.2 328,-826.2 401,-826.2 401,-807.2 328,-807.2"/>
<text text-anchor="start" x="331" y="-813.3" font-family="Helvetica,sans-Serif" font-size="11.00" fill="#000000">&lt; 3</text>
<polygon fill="#ffffff" stroke="transparent" points="401,-807.2 401,-826.2 439,-826.2 439,-807.2 401,-807.2"/>
<polygon fill="none" stroke="#000000" points="401,-807.2 401,-826.2 439,-826.2 439,-807.2 401,-807.2"/>
<text text-anchor="start" x="429.8862" y="-813.3" font-family="Helvetica,sans-Serif" font-size="11.00" fill="#000000"> &#160;</text>
<polygon fill="#ffffff" stroke="transparent" points="439,-807.2 439,-826.2 487,-826.2 487,-807.2 439,-807.2"/>
<polygon fill="none" stroke="#000000" points="439,-807.2 439,-826.2 487,-826.2 487,-807.2 439,-807.2"/>
<text text-anchor="start" x="468.4053" y="-813.3" font-family="Helvetica,sans-Serif" font-size="11.00" fill="#000000">1 &gt;</text>
</a>
</g>
</g>
<!-- court_appearance_reason -->
<g id="node2" class="node">
<title>court_appearance_reason</title>
<g id="a_node2"><a xlink:href="../../tables/court_appearance_reason.html" xlink:title="court_appearance_reason" target="_top">
<polygon fill="#ffffff" stroke="transparent" points="8,-1010.2 8,-1184.2 219,-1184.2 219,-1010.2 8,-1010.2"/>
<polygon fill="#f5f5f5" stroke="transparent" points="8.5,-1161.2 8.5,-1184.2 219.5,-1184.2 219.5,-1161.2 8.5,-1161.2"/>
<polygon fill="none" stroke="#000000" points="8.5,-1161.2 8.5,-1184.2 219.5,-1184.2 219.5,-1161.2 8.5,-1161.2"/>
<text text-anchor="start" x="13.5" y="-1169.8" font-family="Helvetica,sans-Serif" font-weight="bold" font-size="11.00" fill="#000000">court_appearance_reason</text>
<text text-anchor="start" x="185.0219" y="-1169.3" font-family="Helvetica,sans-Serif" font-size="11.00" fill="#000000">[table]</text>
<polygon fill="none" stroke="#000000" points="8.5,-1139.2 8.5,-1161.2 219.5,-1161.2 219.5,-1139.2 8.5,-1139.2"/>
<image xlink:href="../../images/primaryKeys.png" width="11px" height="12px" preserveAspectRatio="xMinYMin meet" x="13.5" y="-1156.2"/>
<text text-anchor="start" x="37.5" y="-1146.3" font-family="Helvetica,sans-Serif" font-size="11.00" fill="#000000">id</text>
<polygon fill="#ffffff" stroke="transparent" points="8.5,-1117.2 8.5,-1139.2 219.5,-1139.2 219.5,-1117.2 8.5,-1117.2"/>
<polygon fill="none" stroke="#000000" points="8.5,-1117.2 8.5,-1139.2 219.5,-1139.2 219.5,-1117.2 8.5,-1117.2"/>
<text text-anchor="start" x="37.5" y="-1124.3" font-family="Helvetica,sans-Serif" font-size="11.00" fill="#000000">code</text>
<polygon fill="none" stroke="#000000" points="8.5,-1095.2 8.5,-1117.2 219.5,-1117.2 219.5,-1095.2 8.5,-1095.2"/>
<text text-anchor="start" x="37.5" y="-1102.3" font-family="Helvetica,sans-Serif" font-size="11.00" fill="#000000">description</text>
<polygon fill="#ffffff" stroke="transparent" points="8.5,-1073.2 8.5,-1095.2 219.5,-1095.2 219.5,-1073.2 8.5,-1073.2"/>
<polygon fill="none" stroke="#000000" points="8.5,-1073.2 8.5,-1095.2 219.5,-1095.2 219.5,-1073.2 8.5,-1073.2"/>
<text text-anchor="start" x="37.5" y="-1080.3" font-family="Helvetica,sans-Serif" font-size="11.00" fill="#000000">sequence_number</text>
<polygon fill="none" stroke="#000000" points="8.5,-1051.2 8.5,-1073.2 219.5,-1073.2 219.5,-1051.2 8.5,-1051.2"/>
<text text-anchor="start" x="37.5" y="-1058.3" font-family="Helvetica,sans-Serif" font-size="11.00" fill="#000000">active</text>
<polygon fill="none" stroke="#000000" points="8.5,-1029.2 8.5,-1051.2 219.5,-1051.2 219.5,-1029.2 8.5,-1029.2"/>
<text text-anchor="start" x="37.5" y="-1036.3" font-family="Helvetica,sans-Serif" font-size="11.00" fill="#000000">external</text>
<polygon fill="#ffffff" stroke="transparent" points="8.5,-1010.2 8.5,-1029.2 103.5,-1029.2 103.5,-1010.2 8.5,-1010.2"/>
<polygon fill="none" stroke="#000000" points="8.5,-1010.2 8.5,-1029.2 103.5,-1029.2 103.5,-1010.2 8.5,-1010.2"/>
<text text-anchor="start" x="11.5" y="-1016.3" font-family="Helvetica,sans-Serif" font-size="11.00" fill="#000000"> &#160;</text>
<polygon fill="#ffffff" stroke="transparent" points="103.5,-1010.2 103.5,-1029.2 156.5,-1029.2 156.5,-1010.2 103.5,-1010.2"/>
<polygon fill="none" stroke="#000000" points="103.5,-1010.2 103.5,-1029.2 156.5,-1029.2 156.5,-1010.2 103.5,-1010.2"/>
<text text-anchor="start" x="147.3862" y="-1016.3" font-family="Helvetica,sans-Serif" font-size="11.00" fill="#000000"> &#160;</text>
<polygon fill="#ffffff" stroke="transparent" points="156.5,-1010.2 156.5,-1029.2 219.5,-1029.2 219.5,-1010.2 156.5,-1010.2"/>
<polygon fill="none" stroke="#000000" points="156.5,-1010.2 156.5,-1029.2 219.5,-1029.2 219.5,-1010.2 156.5,-1010.2"/>
<text text-anchor="start" x="200.9053" y="-1016.3" font-family="Helvetica,sans-Serif" font-size="11.00" fill="#000000">2 &gt;</text>
</a>
</g>
</g>
<!-- court_appearance&#45;&gt;court_appearance_reason -->
<g id="edge3" class="edge">
<title>court_appearance:w&#45;&gt;court_appearance_reason:e</title>
<path fill="none" stroke="#000000" d="M313.6228,-992.9856C249.6947,-1010.4539 299.7051,-1150.2 219.5,-1150.2"/>
<polygon fill="#000000" stroke="#000000" points="320.061,-992.1861 328.4437,-994.7726 324.0305,-991.693 328,-991.2 328,-991.2 328,-991.2 324.0305,-991.693 327.5563,-987.6274 320.061,-992.1861 320.061,-992.1861"/>
<ellipse fill="none" stroke="#000000" cx="316.8854" cy="-992.5805" rx="3.2" ry="3.2"/>
</g>
<!-- court_appearance_status -->
<g id="node5" class="node">
<title>court_appearance_status</title>
<g id="a_node5"><a xlink:href="../../tables/court_appearance_status.html" xlink:title="court_appearance_status" target="_top">
<polygon fill="#ffffff" stroke="transparent" points="9.5,-851.2 9.5,-981.2 217.5,-981.2 217.5,-851.2 9.5,-851.2"/>
<polygon fill="#f5f5f5" stroke="transparent" points="9.5,-958.2 9.5,-981.2 217.5,-981.2 217.5,-958.2 9.5,-958.2"/>
<polygon fill="none" stroke="#000000" points="9.5,-958.2 9.5,-981.2 217.5,-981.2 217.5,-958.2 9.5,-958.2"/>
<text text-anchor="start" x="14.5" y="-966.8" font-family="Helvetica,sans-Serif" font-weight="bold" font-size="11.00" fill="#000000">court_appearance_status</text>
<text text-anchor="start" x="183.0219" y="-966.3" font-family="Helvetica,sans-Serif" font-size="11.00" fill="#000000">[table]</text>
<polygon fill="none" stroke="#000000" points="9.5,-936.2 9.5,-958.2 217.5,-958.2 217.5,-936.2 9.5,-936.2"/>
<image xlink:href="../../images/primaryKeys.png" width="11px" height="12px" preserveAspectRatio="xMinYMin meet" x="14.5" y="-953.2"/>
<text text-anchor="start" x="38.5" y="-943.3" font-family="Helvetica,sans-Serif" font-size="11.00" fill="#000000">id</text>
<polygon fill="#ffffff" stroke="transparent" points="9.5,-914.2 9.5,-936.2 217.5,-936.2 217.5,-914.2 9.5,-914.2"/>
<polygon fill="none" stroke="#000000" points="9.5,-914.2 9.5,-936.2 217.5,-936.2 217.5,-914.2 9.5,-914.2"/>
<text text-anchor="start" x="38.5" y="-921.3" font-family="Helvetica,sans-Serif" font-size="11.00" fill="#000000">code</text>
<polygon fill="none" stroke="#000000" points="9.5,-892.2 9.5,-914.2 217.5,-914.2 217.5,-892.2 9.5,-892.2"/>
<text text-anchor="start" x="38.5" y="-899.3" font-family="Helvetica,sans-Serif" font-size="11.00" fill="#000000">description</text>
<polygon fill="#ffffff" stroke="transparent" points="9.5,-870.2 9.5,-892.2 217.5,-892.2 217.5,-870.2 9.5,-870.2"/>
<polygon fill="none" stroke="#000000" points="9.5,-870.2 9.5,-892.2 217.5,-892.2 217.5,-870.2 9.5,-870.2"/>
<text text-anchor="start" x="38.5" y="-877.3" font-family="Helvetica,sans-Serif" font-size="11.00" fill="#000000">sequence_number</text>
<polygon fill="#ffffff" stroke="transparent" points="9.5,-851.2 9.5,-870.2 102.5,-870.2 102.5,-851.2 9.5,-851.2"/>
<polygon fill="none" stroke="#000000" points="9.5,-851.2 9.5,-870.2 102.5,-870.2 102.5,-851.2 9.5,-851.2"/>
<text text-anchor="start" x="12.5" y="-857.3" font-family="Helvetica,sans-Serif" font-size="11.00" fill="#000000"> &#160;</text>
<polygon fill="#ffffff" stroke="transparent" points="102.5,-851.2 102.5,-870.2 155.5,-870.2 155.5,-851.2 102.5,-851.2"/>
<polygon fill="none" stroke="#000000" points="102.5,-851.2 102.5,-870.2 155.5,-870.2 155.5,-851.2 102.5,-851.2"/>
<text text-anchor="start" x="146.3862" y="-857.3" font-family="Helvetica,sans-Serif" font-size="11.00" fill="#000000"> &#160;</text>
<polygon fill="#ffffff" stroke="transparent" points="155.5,-851.2 155.5,-870.2 217.5,-870.2 217.5,-851.2 155.5,-851.2"/>
<polygon fill="none" stroke="#000000" points="155.5,-851.2 155.5,-870.2 217.5,-870.2 217.5,-851.2 155.5,-851.2"/>
<text text-anchor="start" x="198.9053" y="-857.3" font-family="Helvetica,sans-Serif" font-size="11.00" fill="#000000">1 &gt;</text>
</a>
</g>
</g>
<!-- court_appearance&#45;&gt;court_appearance_status -->
<g id="edge4" class="edge">
<title>court_appearance:w&#45;&gt;court_appearance_status:e</title>
<path fill="none" stroke="#000000" d="M313.1109,-947.2C275.7625,-947.2 261.2396,-947.2 217.5,-947.2"/>
<polygon fill="#000000" stroke="#000000" points="320,-947.2001 328,-950.8 324,-947.2 328,-947.2 328,-947.2 328,-947.2 324,-947.2 328,-943.6 320,-947.2001 320,-947.2001"/>
<ellipse fill="none" stroke="#000000" cx="316.8" cy="-947.2001" rx="3.2" ry="3.2"/>
</g>
<!-- audit_revision -->
<g id="node7" class="node">
<title>audit_revision</title>
<g id="a_node7"><a xlink:href="../../tables/audit_revision.html" xlink:title="audit_revision" target="_top">
<polygon fill="#ffffff" stroke="transparent" points="46.5,-320.2 46.5,-516.2 180.5,-516.2 180.5,-320.2 46.5,-320.2"/>
<polygon fill="#f5f5f5" stroke="transparent" points="46.5,-493.2 46.5,-516.2 180.5,-516.2 180.5,-493.2 46.5,-493.2"/>
<polygon fill="none" stroke="#000000" points="46.5,-493.2 46.5,-516.2 180.5,-516.2 180.5,-493.2 46.5,-493.2"/>
<text text-anchor="start" x="51.5" y="-501.8" font-family="Helvetica,sans-Serif" font-weight="bold" font-size="11.00" fill="#000000">audit_revision</text>
<text text-anchor="start" x="146.0219" y="-501.3" font-family="Helvetica,sans-Serif" font-size="11.00" fill="#000000">[table]</text>
<polygon fill="none" stroke="#000000" points="46.5,-471.2 46.5,-493.2 180.5,-493.2 180.5,-471.2 46.5,-471.2"/>
<image xlink:href="../../images/primaryKeys.png" width="11px" height="12px" preserveAspectRatio="xMinYMin meet" x="51.5" y="-488.2"/>
<text text-anchor="start" x="66.5" y="-478.3" font-family="Helvetica,sans-Serif" font-size="11.00" fill="#000000">id</text>
<polygon fill="none" stroke="#000000" points="46.5,-449.2 46.5,-471.2 180.5,-471.2 180.5,-449.2 46.5,-449.2"/>
<text text-anchor="start" x="66.5" y="-456.3" font-family="Helvetica,sans-Serif" font-size="11.00" fill="#000000">timestamp</text>
<polygon fill="none" stroke="#000000" points="46.5,-427.2 46.5,-449.2 180.5,-449.2 180.5,-427.2 46.5,-427.2"/>
<text text-anchor="start" x="66.5" y="-434.3" font-family="Helvetica,sans-Serif" font-size="11.00" fill="#000000">source</text>
<polygon fill="none" stroke="#000000" points="46.5,-405.2 46.5,-427.2 180.5,-427.2 180.5,-405.2 46.5,-405.2"/>
<text text-anchor="start" x="66.5" y="-412.3" font-family="Helvetica,sans-Serif" font-size="11.00" fill="#000000">affected_entities</text>
<polygon fill="none" stroke="#000000" points="46.5,-383.2 46.5,-405.2 180.5,-405.2 180.5,-383.2 46.5,-383.2"/>
<text text-anchor="start" x="66.5" y="-390.3" font-family="Helvetica,sans-Serif" font-size="11.00" fill="#000000">username</text>
<polygon fill="none" stroke="#000000" points="46.5,-361.2 46.5,-383.2 180.5,-383.2 180.5,-361.2 46.5,-361.2"/>
<text text-anchor="start" x="66.5" y="-368.3" font-family="Helvetica,sans-Serif" font-size="11.00" fill="#000000">caseload_id</text>
<polygon fill="none" stroke="#000000" points="46.5,-339.2 46.5,-361.2 180.5,-361.2 180.5,-339.2 46.5,-339.2"/>
<text text-anchor="start" x="66.5" y="-346.3" font-family="Helvetica,sans-Serif" font-size="11.00" fill="#000000">reason</text>
<polygon fill="#ffffff" stroke="transparent" points="46.5,-320.2 46.5,-339.2 102.5,-339.2 102.5,-320.2 46.5,-320.2"/>
<polygon fill="none" stroke="#000000" points="46.5,-320.2 46.5,-339.2 102.5,-339.2 102.5,-320.2 46.5,-320.2"/>
<text text-anchor="start" x="49.5" y="-326.3" font-family="Helvetica,sans-Serif" font-size="11.00" fill="#000000"> &#160;</text>
<polygon fill="#ffffff" stroke="transparent" points="102.5,-320.2 102.5,-339.2 136.5,-339.2 136.5,-320.2 102.5,-320.2"/>
<polygon fill="none" stroke="#000000" points="102.5,-320.2 102.5,-339.2 136.5,-339.2 136.5,-320.2 102.5,-320.2"/>
<text text-anchor="start" x="127.3862" y="-326.3" font-family="Helvetica,sans-Serif" font-size="11.00" fill="#000000"> &#160;</text>
<polygon fill="#ffffff" stroke="transparent" points="136.5,-320.2 136.5,-339.2 180.5,-339.2 180.5,-320.2 136.5,-320.2"/>
<polygon fill="none" stroke="#000000" points="136.5,-320.2 136.5,-339.2 180.5,-339.2 180.5,-320.2 136.5,-320.2"/>
<text text-anchor="start" x="161.9053" y="-326.3" font-family="Helvetica,sans-Serif" font-size="11.00" fill="#000000">2 &gt;</text>
</a>
</g>
</g>
<!-- court_appearance&#45;&gt;audit_revision -->
<g id="edge1" class="edge">
<title>court_appearance:w&#45;&gt;audit_revision:e</title>
<path fill="none" stroke="#000000" stroke-dasharray="5,2" d="M317.4187,-858.7308C156.6212,-843.8957 356.7335,-482.2 180.5,-482.2"/>
<polygon fill="#000000" stroke="#000000" points="327.378,-855.1685 327.0236,-863.1606 325.4251,-863.0897 325.7796,-855.0976 327.378,-855.1685"/>
<polyline fill="none" stroke="#000000" points="328,-859.2 324.0039,-859.0228 "/>
<ellipse fill="none" stroke="#000000" cx="320.8071" cy="-858.881" rx="3.2" ry="3.2"/>
</g>
<!-- person_summary -->
<g id="node8" class="node">
<title>person_summary</title>
<g id="a_node8"><a xlink:href="../../tables/person_summary.html" xlink:title="person_summary" target="_top">
<polygon fill="#ffffff" stroke="transparent" points="36.5,-590.2 36.5,-764.2 190.5,-764.2 190.5,-590.2 36.5,-590.2"/>
<polygon fill="#f5f5f5" stroke="transparent" points="36.5,-741.2 36.5,-764.2 190.5,-764.2 190.5,-741.2 36.5,-741.2"/>
<polygon fill="none" stroke="#000000" points="36.5,-741.2 36.5,-764.2 190.5,-764.2 190.5,-741.2 36.5,-741.2"/>
<text text-anchor="start" x="41.5" y="-749.8" font-family="Helvetica,sans-Serif" font-weight="bold" font-size="11.00" fill="#000000">person_summary</text>
<text text-anchor="start" x="156.0219" y="-749.3" font-family="Helvetica,sans-Serif" font-size="11.00" fill="#000000">[table]</text>
<polygon fill="none" stroke="#000000" points="36.5,-719.2 36.5,-741.2 190.5,-741.2 190.5,-719.2 36.5,-719.2"/>
<image xlink:href="../../images/primaryKeys.png" width="11px" height="12px" preserveAspectRatio="xMinYMin meet" x="41.5" y="-736.2"/>
<text text-anchor="start" x="65.5" y="-726.3" font-family="Helvetica,sans-Serif" font-size="11.00" fill="#000000">person_identifier</text>
<polygon fill="none" stroke="#000000" points="36.5,-697.2 36.5,-719.2 190.5,-719.2 190.5,-697.2 36.5,-697.2"/>
<text text-anchor="start" x="65.5" y="-704.3" font-family="Helvetica,sans-Serif" font-size="11.00" fill="#000000">version</text>
<polygon fill="none" stroke="#000000" points="36.5,-675.2 36.5,-697.2 190.5,-697.2 190.5,-675.2 36.5,-675.2"/>
<text text-anchor="start" x="65.5" y="-682.3" font-family="Helvetica,sans-Serif" font-size="11.00" fill="#000000">first_name</text>
<polygon fill="none" stroke="#000000" points="36.5,-653.2 36.5,-675.2 190.5,-675.2 190.5,-653.2 36.5,-653.2"/>
<text text-anchor="start" x="65.5" y="-660.3" font-family="Helvetica,sans-Serif" font-size="11.00" fill="#000000">last_name</text>
<polygon fill="none" stroke="#000000" points="36.5,-631.2 36.5,-653.2 190.5,-653.2 190.5,-631.2 36.5,-631.2"/>
<text text-anchor="start" x="65.5" y="-638.3" font-family="Helvetica,sans-Serif" font-size="11.00" fill="#000000">prison_code</text>
<polygon fill="none" stroke="#000000" points="36.5,-609.2 36.5,-631.2 190.5,-631.2 190.5,-609.2 36.5,-609.2"/>
<text text-anchor="start" x="65.5" y="-616.3" font-family="Helvetica,sans-Serif" font-size="11.00" fill="#000000">cell_location</text>
<polygon fill="#ffffff" stroke="transparent" points="36.5,-590.2 36.5,-609.2 102.5,-609.2 102.5,-590.2 36.5,-590.2"/>
<polygon fill="none" stroke="#000000" points="36.5,-590.2 36.5,-609.2 102.5,-609.2 102.5,-590.2 36.5,-590.2"/>
<text text-anchor="start" x="39.5" y="-596.3" font-family="Helvetica,sans-Serif" font-size="11.00" fill="#000000"> &#160;</text>
<polygon fill="#ffffff" stroke="transparent" points="102.5,-590.2 102.5,-609.2 141.5,-609.2 141.5,-590.2 102.5,-590.2"/>
<polygon fill="none" stroke="#000000" points="102.5,-590.2 102.5,-609.2 141.5,-609.2 141.5,-590.2 102.5,-590.2"/>
<text text-anchor="start" x="132.3862" y="-596.3" font-family="Helvetica,sans-Serif" font-size="11.00" fill="#000000"> &#160;</text>
<polygon fill="#ffffff" stroke="transparent" points="141.5,-590.2 141.5,-609.2 190.5,-609.2 190.5,-590.2 141.5,-590.2"/>
<polygon fill="none" stroke="#000000" points="141.5,-590.2 141.5,-609.2 190.5,-609.2 190.5,-590.2 141.5,-590.2"/>
<text text-anchor="start" x="171.9053" y="-596.3" font-family="Helvetica,sans-Serif" font-size="11.00" fill="#000000">2 &gt;</text>
</a>
</g>
</g>
<!-- court_appearance&#45;&gt;person_summary -->
<g id="edge2" class="edge">
<title>court_appearance:w&#45;&gt;person_summary:e</title>
<path fill="none" stroke="#000000" d="M313.3807,-1056.1424C181.7794,-1035.8457 342.9242,-730.2 190.5,-730.2"/>
<polygon fill="#000000" stroke="#000000" points="320.0209,-1056.6227 327.7402,-1060.7906 324.0104,-1056.9114 328,-1057.2 328,-1057.2 328,-1057.2 324.0104,-1056.9114 328.2598,-1053.6094 320.0209,-1056.6227 320.0209,-1056.6227"/>
<ellipse fill="none" stroke="#000000" cx="316.8292" cy="-1056.3918" rx="3.2" ry="3.2"/>
</g>
<!-- court_appearance_audit -->
<g id="node3" class="node">
<title>court_appearance_audit</title>
<g id="a_node3"><a xlink:href="../../tables/court_appearance_audit.html" xlink:title="court_appearance_audit" target="_top">
<polygon fill="#ffffff" stroke="transparent" points="307,-38.2 307,-410.2 507,-410.2 507,-38.2 307,-38.2"/>
<polygon fill="#f5f5f5" stroke="transparent" points="307,-387.2 307,-410.2 507,-410.2 507,-387.2 307,-387.2"/>
<polygon fill="none" stroke="#000000" points="307,-387.2 307,-410.2 507,-410.2 507,-387.2 307,-387.2"/>
<text text-anchor="start" x="312" y="-395.8" font-family="Helvetica,sans-Serif" font-weight="bold" font-size="11.00" fill="#000000">court_appearance_audit</text>
<text text-anchor="start" x="472.5219" y="-395.3" font-family="Helvetica,sans-Serif" font-size="11.00" fill="#000000">[table]</text>
<polygon fill="none" stroke="#000000" points="307,-365.2 307,-387.2 507,-387.2 507,-365.2 307,-365.2"/>
<image xlink:href="../../images/primaryKeys.png" width="11px" height="12px" preserveAspectRatio="xMinYMin meet" x="312" y="-382.2"/>
<text text-anchor="start" x="336" y="-372.3" font-family="Helvetica,sans-Serif" font-size="11.00" fill="#000000">rev_id</text>
<polygon fill="none" stroke="#000000" points="307,-343.2 307,-365.2 507,-365.2 507,-343.2 307,-343.2"/>
<text text-anchor="start" x="336" y="-350.3" font-family="Helvetica,sans-Serif" font-size="11.00" fill="#000000">rev_type</text>
<polygon fill="none" stroke="#000000" points="307,-321.2 307,-343.2 507,-343.2 507,-321.2 307,-321.2"/>
<image xlink:href="../../images/primaryKeys.png" width="11px" height="12px" preserveAspectRatio="xMinYMin meet" x="312" y="-338.2"/>
<text text-anchor="start" x="336" y="-328.3" font-family="Helvetica,sans-Serif" font-size="11.00" fill="#000000">id</text>
<polygon fill="none" stroke="#000000" points="307,-299.2 307,-321.2 507,-321.2 507,-299.2 307,-299.2"/>
<text text-anchor="start" x="336" y="-306.3" font-family="Helvetica,sans-Serif" font-size="11.00" fill="#000000">version</text>
<polygon fill="none" stroke="#000000" points="307,-277.2 307,-299.2 507,-299.2 507,-277.2 307,-277.2"/>
<image xlink:href="../../images/foreignKeys.png" width="11px" height="12px" preserveAspectRatio="xMinYMin meet" x="312" y="-294.2"/>
<text text-anchor="start" x="336" y="-284.3" font-family="Helvetica,sans-Serif" font-size="11.00" fill="#000000">person_identifier</text>
<polygon fill="none" stroke="#000000" points="307,-255.2 307,-277.2 507,-277.2 507,-255.2 307,-255.2"/>
<text text-anchor="start" x="336" y="-262.3" font-family="Helvetica,sans-Serif" font-size="11.00" fill="#000000">prison_code</text>
<polygon fill="none" stroke="#000000" points="307,-233.2 307,-255.2 507,-255.2 507,-233.2 307,-233.2"/>
<text text-anchor="start" x="336" y="-240.3" font-family="Helvetica,sans-Serif" font-size="11.00" fill="#000000">court_code</text>
<polygon fill="none" stroke="#000000" points="307,-211.2 307,-233.2 507,-233.2 507,-211.2 307,-211.2"/>
<text text-anchor="start" x="336" y="-218.3" font-family="Helvetica,sans-Serif" font-size="11.00" fill="#000000">reason_id</text>
<polygon fill="none" stroke="#000000" points="307,-189.2 307,-211.2 507,-211.2 507,-189.2 307,-189.2"/>
<text text-anchor="start" x="336" y="-196.3" font-family="Helvetica,sans-Serif" font-size="11.00" fill="#000000">external</text>
<polygon fill="none" stroke="#000000" points="307,-167.2 307,-189.2 507,-189.2 507,-167.2 307,-167.2"/>
<text text-anchor="start" x="336" y="-174.3" font-family="Helvetica,sans-Serif" font-size="11.00" fill="#000000">status_id</text>
<polygon fill="none" stroke="#000000" points="307,-145.2 307,-167.2 507,-167.2 507,-145.2 307,-145.2"/>
<text text-anchor="start" x="336" y="-152.3" font-family="Helvetica,sans-Serif" font-size="11.00" fill="#000000">start</text>
<polygon fill="none" stroke="#000000" points="307,-123.2 307,-145.2 507,-145.2 507,-123.2 307,-123.2"/>
<text text-anchor="start" x="336" y="-130.3" font-family="Helvetica,sans-Serif" font-size="11.00" fill="#000000">end</text>
<polygon fill="none" stroke="#000000" points="307,-101.2 307,-123.2 507,-123.2 507,-101.2 307,-101.2"/>
<text text-anchor="start" x="336" y="-108.3" font-family="Helvetica,sans-Serif" font-size="11.00" fill="#000000">comments</text>
<polygon fill="none" stroke="#000000" points="307,-79.2 307,-101.2 507,-101.2 507,-79.2 307,-79.2"/>
<image xlink:href="../../images/foreignKeys.png" width="11px" height="12px" preserveAspectRatio="xMinYMin meet" x="312" y="-96.2"/>
<text text-anchor="start" x="336" y="-86.3" font-family="Helvetica,sans-Serif" font-size="11.00" fill="#000000">legacy_id</text>
<polygon fill="none" stroke="#000000" points="307,-57.2 307,-79.2 507,-79.2 507,-57.2 307,-57.2"/>
<text text-anchor="start" x="336" y="-64.3" font-family="Helvetica,sans-Serif" font-size="11.00" fill="#000000">external_reference</text>
<polygon fill="#ffffff" stroke="transparent" points="307,-38.2 307,-57.2 405,-57.2 405,-38.2 307,-38.2"/>
<polygon fill="none" stroke="#000000" points="307,-38.2 307,-57.2 405,-57.2 405,-38.2 307,-38.2"/>
<text text-anchor="start" x="310" y="-44.3" font-family="Helvetica,sans-Serif" font-size="11.00" fill="#000000">&lt; 1</text>
<polygon fill="#ffffff" stroke="transparent" points="405,-38.2 405,-57.2 456,-57.2 456,-38.2 405,-38.2"/>
<polygon fill="none" stroke="#000000" points="405,-38.2 405,-57.2 456,-57.2 456,-38.2 405,-38.2"/>
<text text-anchor="start" x="446.8862" y="-44.3" font-family="Helvetica,sans-Serif" font-size="11.00" fill="#000000"> &#160;</text>
<polygon fill="#ffffff" stroke="transparent" points="456,-38.2 456,-57.2 507,-57.2 507,-38.2 456,-38.2"/>
<polygon fill="none" stroke="#000000" points="456,-38.2 456,-57.2 507,-57.2 507,-38.2 456,-38.2"/>
<text text-anchor="start" x="497.8862" y="-44.3" font-family="Helvetica,sans-Serif" font-size="11.00" fill="#000000"> &#160;</text>
</a>
</g>
</g>
<!-- court_appearance_audit&#45;&gt;audit_revision -->
<g id="edge5" class="edge">
<title>court_appearance_audit:w&#45;&gt;audit_revision:e</title>
<path fill="none" stroke="#000000" stroke-dasharray="5,2" d="M292.4442,-91.1254C137.1651,-112.0887 358.3846,-482.2 180.5,-482.2"/>
<polygon fill="#000000" stroke="#000000" points="299.0161,-90.7076 307.2284,-93.7927 303.0081,-90.4538 307,-90.2 307,-90.2 307,-90.2 303.0081,-90.4538 306.7716,-86.6073 299.0161,-90.7076 299.0161,-90.7076"/>
<ellipse fill="none" stroke="#000000" cx="295.8226" cy="-90.9107" rx="3.2" ry="3.2"/>
</g>
<!-- court_appearance_audit&#45;&gt;audit_revision -->
<g id="edge7" class="edge">
<title>court_appearance_audit:w&#45;&gt;audit_revision:e</title>
<path fill="none" stroke="#000000" d="M292.4928,-377.7807C236.0801,-390.9667 248.5504,-482.2 180.5,-482.2"/>
<polygon fill="#000000" stroke="#000000" points="299.0471,-377.0666 307.39,-379.7788 303.0235,-376.6333 307,-376.2 307,-376.2 307,-376.2 303.0235,-376.6333 306.61,-372.6212 299.0471,-377.0666 299.0471,-377.0666"/>
<ellipse fill="none" stroke="#000000" cx="295.8659" cy="-377.4132" rx="3.2" ry="3.2"/>
</g>
<!-- court_appearance_audit&#45;&gt;person_summary -->
<g id="edge6" class="edge">
<title>court_appearance_audit:w&#45;&gt;person_summary:e</title>
<path fill="none" stroke="#000000" stroke-dasharray="5,2" d="M292.9323,-291.5036C213.7386,-331.9508 286.9186,-730.2 190.5,-730.2"/>
<polygon fill="#000000" stroke="#000000" points="299.2119,-290.029 307.823,-291.7047 303.1059,-289.1145 307,-288.2 307,-288.2 307,-288.2 303.1059,-289.1145 306.177,-284.6953 299.2119,-290.029 299.2119,-290.029"/>
<ellipse fill="none" stroke="#000000" cx="296.0966" cy="-290.7606" rx="3.2" ry="3.2"/>
</g>
<!-- court_appearance_movement -->
<g id="node4" class="node">
<title>court_appearance_movement</title>
<g id="a_node4"><a xlink:href="../../tables/court_appearance_movement.html" xlink:title="court_appearance_movement" target="_top">
<polygon fill="#ffffff" stroke="transparent" points="595,-895.2 595,-1179.2 832,-1179.2 832,-895.2 595,-895.2"/>
<polygon fill="#f5f5f5" stroke="transparent" points="595.5,-1156.2 595.5,-1179.2 832.5,-1179.2 832.5,-1156.2 595.5,-1156.2"/>
<polygon fill="none" stroke="#000000" points="595.5,-1156.2 595.5,-1179.2 832.5,-1179.2 832.5,-1156.2 595.5,-1156.2"/>
<text text-anchor="start" x="600.5" y="-1164.8" font-family="Helvetica,sans-Serif" font-weight="bold" font-size="11.00" fill="#000000">court_appearance_movement</text>
<text text-anchor="start" x="798.0219" y="-1164.3" font-family="Helvetica,sans-Serif" font-size="11.00" fill="#000000">[table]</text>
<polygon fill="none" stroke="#000000" points="595.5,-1134.2 595.5,-1156.2 832.5,-1156.2 832.5,-1134.2 595.5,-1134.2"/>
<image xlink:href="../../images/primaryKeys.png" width="11px" height="12px" preserveAspectRatio="xMinYMin meet" x="600.5" y="-1151.2"/>
<text text-anchor="start" x="624.5" y="-1141.3" font-family="Helvetica,sans-Serif" font-size="11.00" fill="#000000">id</text>
<polygon fill="none" stroke="#000000" points="595.5,-1112.2 595.5,-1134.2 832.5,-1134.2 832.5,-1112.2 595.5,-1112.2"/>
<text text-anchor="start" x="624.5" y="-1119.3" font-family="Helvetica,sans-Serif" font-size="11.00" fill="#000000">version</text>
<polygon fill="#ffffff" stroke="transparent" points="595.5,-1090.2 595.5,-1112.2 832.5,-1112.2 832.5,-1090.2 595.5,-1090.2"/>
<polygon fill="none" stroke="#000000" points="595.5,-1090.2 595.5,-1112.2 832.5,-1112.2 832.5,-1090.2 595.5,-1090.2"/>
<image xlink:href="../../images/foreignKeys.png" width="11px" height="12px" preserveAspectRatio="xMinYMin meet" x="600.5" y="-1107.2"/>
<text text-anchor="start" x="624.5" y="-1097.3" font-family="Helvetica,sans-Serif" font-size="11.00" fill="#000000">court_appearance_id</text>
<polygon fill="#ffffff" stroke="transparent" points="595.5,-1068.2 595.5,-1090.2 832.5,-1090.2 832.5,-1068.2 595.5,-1068.2"/>
<polygon fill="none" stroke="#000000" points="595.5,-1068.2 595.5,-1090.2 832.5,-1090.2 832.5,-1068.2 595.5,-1068.2"/>
<image xlink:href="../../images/foreignKeys.png" width="11px" height="12px" preserveAspectRatio="xMinYMin meet" x="600.5" y="-1085.2"/>
<text text-anchor="start" x="624.5" y="-1075.3" font-family="Helvetica,sans-Serif" font-size="11.00" fill="#000000">person_identifier</text>
<polygon fill="none" stroke="#000000" points="595.5,-1046.2 595.5,-1068.2 832.5,-1068.2 832.5,-1046.2 595.5,-1046.2"/>
<text text-anchor="start" x="624.5" y="-1053.3" font-family="Helvetica,sans-Serif" font-size="11.00" fill="#000000">prison_code</text>
<polygon fill="none" stroke="#000000" points="595.5,-1024.2 595.5,-1046.2 832.5,-1046.2 832.5,-1024.2 595.5,-1024.2"/>
<text text-anchor="start" x="624.5" y="-1031.3" font-family="Helvetica,sans-Serif" font-size="11.00" fill="#000000">court_code</text>
<polygon fill="none" stroke="#000000" points="595.5,-1002.2 595.5,-1024.2 832.5,-1024.2 832.5,-1002.2 595.5,-1002.2"/>
<image xlink:href="../../images/foreignKeys.png" width="11px" height="12px" preserveAspectRatio="xMinYMin meet" x="600.5" y="-1019.2"/>
<text text-anchor="start" x="624.5" y="-1009.3" font-family="Helvetica,sans-Serif" font-size="11.00" fill="#000000">reason_id</text>
<polygon fill="none" stroke="#000000" points="595.5,-980.2 595.5,-1002.2 832.5,-1002.2 832.5,-980.2 595.5,-980.2"/>
<text text-anchor="start" x="624.5" y="-987.3" font-family="Helvetica,sans-Serif" font-size="11.00" fill="#000000">direction</text>
<polygon fill="none" stroke="#000000" points="595.5,-958.2 595.5,-980.2 832.5,-980.2 832.5,-958.2 595.5,-958.2"/>
<text text-anchor="start" x="624.5" y="-965.3" font-family="Helvetica,sans-Serif" font-size="11.00" fill="#000000">occurred_at</text>
<polygon fill="none" stroke="#000000" points="595.5,-936.2 595.5,-958.2 832.5,-958.2 832.5,-936.2 595.5,-936.2"/>
<text text-anchor="start" x="624.5" y="-943.3" font-family="Helvetica,sans-Serif" font-size="11.00" fill="#000000">comments</text>
<polygon fill="#ffffff" stroke="transparent" points="595.5,-914.2 595.5,-936.2 832.5,-936.2 832.5,-914.2 595.5,-914.2"/>
<polygon fill="none" stroke="#000000" points="595.5,-914.2 595.5,-936.2 832.5,-936.2 832.5,-914.2 595.5,-914.2"/>
<text text-anchor="start" x="624.5" y="-921.3" font-family="Helvetica,sans-Serif" font-size="11.00" fill="#000000">legacy_id</text>
<polygon fill="#ffffff" stroke="transparent" points="595.5,-895.2 595.5,-914.2 712.5,-914.2 712.5,-895.2 595.5,-895.2"/>
<polygon fill="none" stroke="#000000" points="595.5,-895.2 595.5,-914.2 712.5,-914.2 712.5,-895.2 595.5,-895.2"/>
<text text-anchor="start" x="598.5" y="-901.3" font-family="Helvetica,sans-Serif" font-size="11.00" fill="#000000">&lt; 3</text>
<polygon fill="#ffffff" stroke="transparent" points="712.5,-895.2 712.5,-914.2 772.5,-914.2 772.5,-895.2 712.5,-895.2"/>
<polygon fill="none" stroke="#000000" points="712.5,-895.2 712.5,-914.2 772.5,-914.2 772.5,-895.2 712.5,-895.2"/>
<text text-anchor="start" x="763.3862" y="-901.3" font-family="Helvetica,sans-Serif" font-size="11.00" fill="#000000"> &#160;</text>
<polygon fill="#ffffff" stroke="transparent" points="772.5,-895.2 772.5,-914.2 832.5,-914.2 832.5,-895.2 772.5,-895.2"/>
<polygon fill="none" stroke="#000000" points="772.5,-895.2 772.5,-914.2 832.5,-914.2 832.5,-895.2 772.5,-895.2"/>
<text text-anchor="start" x="823.3862" y="-901.3" font-family="Helvetica,sans-Serif" font-size="11.00" fill="#000000"> &#160;</text>
</a>
</g>
</g>
<!-- court_appearance_movement&#45;&gt;court_appearance -->
<g id="edge8" class="edge">
<title>court_appearance_movement:w&#45;&gt;court_appearance:e</title>
<path fill="none" stroke="#000000" d="M580.8804,-1101.2C544.208,-1101.2 529.9479,-1101.2 487,-1101.2"/>
<polygon fill="#000000" stroke="#000000" points="587.5,-1101.2001 595.5,-1104.8 591.5,-1101.2 595.5,-1101.2 595.5,-1101.2 595.5,-1101.2 591.5,-1101.2 595.5,-1097.6 587.5,-1101.2001 587.5,-1101.2001"/>
<ellipse fill="none" stroke="#000000" cx="584.3" cy="-1101.2001" rx="3.2" ry="3.2"/>
</g>
<!-- court_appearance_movement&#45;&gt;court_appearance_reason -->
<g id="edge10" class="edge">
<title>court_appearance_movement:w&#45;&gt;court_appearance_reason:e</title>
<path fill="none" stroke="#000000" d="M580.9011,-1015.8026C546.1243,-1031.3896 598.812,-1112.8251 554,-1146.2 434.7598,-1235.0071 368.1773,-1150.2 219.5,-1150.2"/>
<polygon fill="#000000" stroke="#000000" points="587.6242,-1014.6041 596.1318,-1016.7441 591.5621,-1013.902 595.5,-1013.2 595.5,-1013.2 595.5,-1013.2 591.5621,-1013.902 594.8682,-1009.6559 587.6242,-1014.6041 587.6242,-1014.6041"/>
<ellipse fill="none" stroke="#000000" cx="584.4738" cy="-1015.1657" rx="3.2" ry="3.2"/>
</g>
<!-- court_appearance_movement&#45;&gt;person_summary -->
<g id="edge9" class="edge">
<title>court_appearance_movement:w&#45;&gt;person_summary:e</title>
<path fill="none" stroke="#000000" d="M581.9206,-1074.192C542.9769,-1039.656 596.0412,-837.0088 554,-797.2 506.3604,-752.09 322.5425,-790.0212 260,-770.2 226.0259,-759.4328 226.1395,-730.2 190.5,-730.2"/>
<polygon fill="#000000" stroke="#000000" points="587.9942,-1076.4319 594.2543,-1082.5776 591.7471,-1077.8159 595.5,-1079.2 595.5,-1079.2 595.5,-1079.2 591.7471,-1077.8159 596.7457,-1075.8224 587.9942,-1076.4319 587.9942,-1076.4319"/>
<ellipse fill="none" stroke="#000000" cx="584.9918" cy="-1075.3246" rx="3.2" ry="3.2"/>
</g>
<!-- court_appearance_movement_audit -->
<g id="node6" class="node">
<title>court_appearance_movement_audit</title>
<g id="a_node6"><a xlink:href="../../tables/court_appearance_movement_audit.html" xlink:title="court_appearance_movement_audit" target="_top">
<polygon fill="#ffffff" stroke="transparent" points="268,-431.2 268,-759.2 546,-759.2 546,-431.2 268,-431.2"/>
<polygon fill="#f5f5f5" stroke="transparent" points="268,-736.2 268,-759.2 546,-759.2 546,-736.2 268,-736.2"/>
<polygon fill="none" stroke="#000000" points="268,-736.2 268,-759.2 546,-759.2 546,-736.2 268,-736.2"/>
<text text-anchor="start" x="273" y="-744.8" font-family="Helvetica,sans-Serif" font-weight="bold" font-size="11.00" fill="#000000">court_appearance_movement_audit</text>
<text text-anchor="start" x="511.5219" y="-744.3" font-family="Helvetica,sans-Serif" font-size="11.00" fill="#000000">[table]</text>
<polygon fill="none" stroke="#000000" points="268,-714.2 268,-736.2 546,-736.2 546,-714.2 268,-714.2"/>
<image xlink:href="../../images/primaryKeys.png" width="11px" height="12px" preserveAspectRatio="xMinYMin meet" x="273" y="-731.2"/>
<text text-anchor="start" x="297" y="-721.3" font-family="Helvetica,sans-Serif" font-size="11.00" fill="#000000">rev_id</text>
<polygon fill="none" stroke="#000000" points="268,-692.2 268,-714.2 546,-714.2 546,-692.2 268,-692.2"/>
<text text-anchor="start" x="297" y="-699.3" font-family="Helvetica,sans-Serif" font-size="11.00" fill="#000000">rev_type</text>
<polygon fill="none" stroke="#000000" points="268,-670.2 268,-692.2 546,-692.2 546,-670.2 268,-670.2"/>
<image xlink:href="../../images/primaryKeys.png" width="11px" height="12px" preserveAspectRatio="xMinYMin meet" x="273" y="-687.2"/>
<text text-anchor="start" x="297" y="-677.3" font-family="Helvetica,sans-Serif" font-size="11.00" fill="#000000">id</text>
<polygon fill="none" stroke="#000000" points="268,-648.2 268,-670.2 546,-670.2 546,-648.2 268,-648.2"/>
<text text-anchor="start" x="297" y="-655.3" font-family="Helvetica,sans-Serif" font-size="11.00" fill="#000000">version</text>
<polygon fill="none" stroke="#000000" points="268,-626.2 268,-648.2 546,-648.2 546,-626.2 268,-626.2"/>
<text text-anchor="start" x="297" y="-633.3" font-family="Helvetica,sans-Serif" font-size="11.00" fill="#000000">court_appearance_id</text>
<polygon fill="none" stroke="#000000" points="268,-604.2 268,-626.2 546,-626.2 546,-604.2 268,-604.2"/>
<image xlink:href="../../images/foreignKeys.png" width="11px" height="12px" preserveAspectRatio="xMinYMin meet" x="273" y="-621.2"/>
<text text-anchor="start" x="297" y="-611.3" font-family="Helvetica,sans-Serif" font-size="11.00" fill="#000000">person_identifier</text>
<polygon fill="none" stroke="#000000" points="268,-582.2 268,-604.2 546,-604.2 546,-582.2 268,-582.2"/>
<text text-anchor="start" x="297" y="-589.3" font-family="Helvetica,sans-Serif" font-size="11.00" fill="#000000">prison_code</text>
<polygon fill="none" stroke="#000000" points="268,-560.2 268,-582.2 546,-582.2 546,-560.2 268,-560.2"/>
<text text-anchor="start" x="297" y="-567.3" font-family="Helvetica,sans-Serif" font-size="11.00" fill="#000000">court_code</text>
<polygon fill="none" stroke="#000000" points="268,-538.2 268,-560.2 546,-560.2 546,-538.2 268,-538.2"/>
<text text-anchor="start" x="297" y="-545.3" font-family="Helvetica,sans-Serif" font-size="11.00" fill="#000000">reason_id</text>
<polygon fill="none" stroke="#000000" points="268,-516.2 268,-538.2 546,-538.2 546,-516.2 268,-516.2"/>
<text text-anchor="start" x="297" y="-523.3" font-family="Helvetica,sans-Serif" font-size="11.00" fill="#000000">direction</text>
<polygon fill="none" stroke="#000000" points="268,-494.2 268,-516.2 546,-516.2 546,-494.2 268,-494.2"/>
<text text-anchor="start" x="297" y="-501.3" font-family="Helvetica,sans-Serif" font-size="11.00" fill="#000000">occurred_at</text>
<polygon fill="none" stroke="#000000" points="268,-472.2 268,-494.2 546,-494.2 546,-472.2 268,-472.2"/>
<text text-anchor="start" x="297" y="-479.3" font-family="Helvetica,sans-Serif" font-size="11.00" fill="#000000">comments</text>
<polygon fill="none" stroke="#000000" points="268,-450.2 268,-472.2 546,-472.2 546,-450.2 268,-450.2"/>
<text text-anchor="start" x="297" y="-457.3" font-family="Helvetica,sans-Serif" font-size="11.00" fill="#000000">legacy_id</text>
<polygon fill="#ffffff" stroke="transparent" points="268,-431.2 268,-450.2 405,-450.2 405,-431.2 268,-431.2"/>
<polygon fill="none" stroke="#000000" points="268,-431.2 268,-450.2 405,-450.2 405,-431.2 268,-431.2"/>
<text text-anchor="start" x="271" y="-437.3" font-family="Helvetica,sans-Serif" font-size="11.00" fill="#000000">&lt; 1</text>
<polygon fill="#ffffff" stroke="transparent" points="405,-431.2 405,-450.2 475,-450.2 475,-431.2 405,-431.2"/>
<polygon fill="none" stroke="#000000" points="405,-431.2 405,-450.2 475,-450.2 475,-431.2 405,-431.2"/>
<text text-anchor="start" x="465.8862" y="-437.3" font-family="Helvetica,sans-Serif" font-size="11.00" fill="#000000"> &#160;</text>
<polygon fill="#ffffff" stroke="transparent" points="475,-431.2 475,-450.2 546,-450.2 546,-431.2 475,-431.2"/>
<polygon fill="none" stroke="#000000" points="475,-431.2 475,-450.2 546,-450.2 546,-431.2 475,-431.2"/>
<text text-anchor="start" x="536.8862" y="-437.3" font-family="Helvetica,sans-Serif" font-size="11.00" fill="#000000"> &#160;</text>
</a>
</g>
</g>
<!-- court_appearance_movement_audit&#45;&gt;audit_revision -->
<g id="edge12" class="edge">
<title>court_appearance_movement_audit:w&#45;&gt;audit_revision:e</title>
<path fill="none" stroke="#000000" d="M253.4791,-723.5188C208.8312,-711.5136 248.5706,-637.6293 227,-580.2 210.0485,-535.0686 228.7099,-482.2 180.5,-482.2"/>
<polygon fill="#000000" stroke="#000000" points="260.0531,-724.2799 267.5859,-728.7761 264.0265,-724.7399 268,-725.2 268,-725.2 268,-725.2 264.0265,-724.7399 268.4141,-721.6239 260.0531,-724.2799 260.0531,-724.2799"/>
<ellipse fill="none" stroke="#000000" cx="256.8743" cy="-723.9118" rx="3.2" ry="3.2"/>
</g>
<!-- court_appearance_movement_audit&#45;&gt;person_summary -->
<g id="edge11" class="edge">
<title>court_appearance_movement_audit:w&#45;&gt;person_summary:e</title>
<path fill="none" stroke="#000000" stroke-dasharray="5,2" d="M253.8327,-617.818C213.7229,-634.9358 246.5967,-730.2 190.5,-730.2"/>
<polygon fill="#000000" stroke="#000000" points="260.1332,-616.6538 268.6542,-618.7401 264.0666,-615.9269 268,-615.2 268,-615.2 268,-615.2 264.0666,-615.9269 267.3458,-611.6599 260.1332,-616.6538 260.1332,-616.6538"/>
<ellipse fill="none" stroke="#000000" cx="256.9865" cy="-617.2353" rx="3.2" ry="3.2"/>
</g>
</g>
</svg>
