<?xml version="1.0" encoding="UTF-8" standalone="no"?>
<!DOCTYPE svg PUBLIC "-//W3C//DTD SVG 1.1//EN"
 "http://www.w3.org/Graphics/SVG/1.1/DTD/svg11.dtd">
<!-- Generated by graphviz version 2.40.1 (20161225.0304)
 -->
<!-- Title: largeImpliedRelationshipsDiagram Pages: 1 -->
<svg width="848pt" height="1152pt"
 viewBox="0.00 0.00 848.00 1152.20" xmlns="http://www.w3.org/2000/svg" xmlns:xlink="http://www.w3.org/1999/xlink">
<g id="graph0" class="graph" transform="scale(1 1) rotate(0) translate(4 1148.2)">
<title>largeImpliedRelationshipsDiagram</title>
<polygon fill="#ffffff" stroke="transparent" points="-4,4 -4,-1148.2 844,-1148.2 844,4 -4,4"/>
<text text-anchor="middle" x="72.4936" y="-7.3" font-family="Helvetica,sans-Serif" font-size="11.00" fill="#000000">Generated by SchemaSpy</text>
<!-- court_appearance -->
<g id="node1" class="node">
<title>court_appearance</title>
<g id="a_node1"><a xlink:href="../../tables/court_appearance.html" xlink:title="court_appearance" target="_top">
<polygon fill="#ffffff" stroke="transparent" points="327.5,-785.2 327.5,-1091.2 486.5,-1091.2 486.5,-785.2 327.5,-785.2"/>
<polygon fill="#f5f5f5" stroke="transparent" points="328,-1068.2 328,-1091.2 487,-1091.2 487,-1068.2 328,-1068.2"/>
<polygon fill="none" stroke="#000000" points="328,-1068.2 328,-1091.2 487,-1091.2 487,-1068.2 328,-1068.2"/>
<text text-anchor="start" x="333" y="-1076.8" font-family="Helvetica,sans-Serif" font-weight="bold" font-size="11.00" fill="#000000">court_appearance</text>
<text text-anchor="start" x="452.5219" y="-1076.3" font-family="Helvetica,sans-Serif" font-size="11.00" fill="#000000">[table]</text>
<polygon fill="none" stroke="#000000" points="328,-1046.2 328,-1068.2 487,-1068.2 487,-1046.2 328,-1046.2"/>
<image xlink:href="../../images/primaryKeys.png" width="11px" height="12px" preserveAspectRatio="xMinYMin meet" x="333" y="-1063.2"/>
<text text-anchor="start" x="357" y="-1053.3" font-family="Helvetica,sans-Serif" font-size="11.00" fill="#000000">id</text>
<polygon fill="none" stroke="#000000" points="328,-1024.2 328,-1046.2 487,-1046.2 487,-1024.2 328,-1024.2"/>
<text text-anchor="start" x="357" y="-1031.3" font-family="Helvetica,sans-Serif" font-size="11.00" fill="#000000">version</text>
<polygon fill="#ffffff" stroke="transparent" points="328,-1002.2 328,-1024.2 487,-1024.2 487,-1002.2 328,-1002.2"/>
<polygon fill="none" stroke="#000000" points="328,-1002.2 328,-1024.2 487,-1024.2 487,-1002.2 328,-1002.2"/>
<image xlink:href="../../images/foreignKeys.png" width="11px" height="12px" preserveAspectRatio="xMinYMin meet" x="333" y="-1019.2"/>
<text text-anchor="start" x="357" y="-1009.3" font-family="Helvetica,sans-Serif" font-size="11.00" fill="#000000">person_identifier</text>
<polygon fill="#ffffff" stroke="transparent" points="328,-980.2 328,-1002.2 487,-1002.2 487,-980.2 328,-980.2"/>
<polygon fill="none" stroke="#000000" points="328,-980.2 328,-1002.2 487,-1002.2 487,-980.2 328,-980.2"/>
<text text-anchor="start" x="357" y="-987.3" font-family="Helvetica,sans-Serif" font-size="11.00" fill="#000000">prison_code</text>
<polygon fill="none" stroke="#000000" points="328,-958.2 328,-980.2 487,-980.2 487,-958.2 328,-958.2"/>
<text text-anchor="start" x="357" y="-965.3" font-family="Helvetica,sans-Serif" font-size="11.00" fill="#000000">court_code</text>
<polygon fill="#ffffff" stroke="transparent" points="328,-936.2 328,-958.2 487,-958.2 487,-936.2 328,-936.2"/>
<polygon fill="none" stroke="#000000" points="328,-936.2 328,-958.2 487,-958.2 487,-936.2 328,-936.2"/>
<image xlink:href="../../images/foreignKeys.png" width="11px" height="12px" preserveAspectRatio="xMinYMin meet" x="333" y="-953.2"/>
<text text-anchor="start" x="357" y="-943.3" font-family="Helvetica,sans-Serif" font-size="11.00" fill="#000000">reason_id</text>
<polygon fill="none" stroke="#000000" points="328,-914.2 328,-936.2 487,-936.2 487,-914.2 328,-914.2"/>
<text text-anchor="start" x="357" y="-921.3" font-family="Helvetica,sans-Serif" font-size="11.00" fill="#000000">external</text>
<polygon fill="#ffffff" stroke="transparent" points="328,-892.2 328,-914.2 487,-914.2 487,-892.2 328,-892.2"/>
<polygon fill="none" stroke="#000000" points="328,-892.2 328,-914.2 487,-914.2 487,-892.2 328,-892.2"/>
<image xlink:href="../../images/foreignKeys.png" width="11px" height="12px" preserveAspectRatio="xMinYMin meet" x="333" y="-909.2"/>
<text text-anchor="start" x="357" y="-899.3" font-family="Helvetica,sans-Serif" font-size="11.00" fill="#000000">status_id</text>
<polygon fill="#ffffff" stroke="transparent" points="328,-870.2 328,-892.2 487,-892.2 487,-870.2 328,-870.2"/>
<polygon fill="none" stroke="#000000" points="328,-870.2 328,-892.2 487,-892.2 487,-870.2 328,-870.2"/>
<text text-anchor="start" x="357" y="-877.3" font-family="Helvetica,sans-Serif" font-size="11.00" fill="#000000">start</text>
<polygon fill="none" stroke="#000000" points="328,-848.2 328,-870.2 487,-870.2 487,-848.2 328,-848.2"/>
<text text-anchor="start" x="357" y="-855.3" font-family="Helvetica,sans-Serif" font-size="11.00" fill="#000000">end</text>
<polygon fill="none" stroke="#000000" points="328,-826.2 328,-848.2 487,-848.2 487,-826.2 328,-826.2"/>
<text text-anchor="start" x="357" y="-833.3" font-family="Helvetica,sans-Serif" font-size="11.00" fill="#000000">comments</text>
<polygon fill="#ffffff" stroke="transparent" points="328,-804.2 328,-826.2 487,-826.2 487,-804.2 328,-804.2"/>
<polygon fill="none" stroke="#000000" points="328,-804.2 328,-826.2 487,-826.2 487,-804.2 328,-804.2"/>
<image xlink:href="../../images/foreignKeys.png" width="11px" height="12px" preserveAspectRatio="xMinYMin meet" x="333" y="-821.2"/>
<text text-anchor="start" x="357" y="-811.3" font-family="Helvetica,sans-Serif" font-size="11.00" fill="#000000">legacy_id</text>
<polygon fill="#ffffff" stroke="transparent" points="328,-785.2 328,-804.2 401,-804.2 401,-785.2 328,-785.2"/>
<polygon fill="none" stroke="#000000" points="328,-785.2 328,-804.2 401,-804.2 401,-785.2 328,-785.2"/>
<text text-anchor="start" x="331" y="-791.3" font-family="Helvetica,sans-Serif" font-size="11.00" fill="#000000">&lt; 3</text>
<polygon fill="#ffffff" stroke="transparent" points="401,-785.2 401,-804.2 439,-804.2 439,-785.2 401,-785.2"/>
<polygon fill="none" stroke="#000000" points="401,-785.2 401,-804.2 439,-804.2 439,-785.2 401,-785.2"/>
<text text-anchor="start" x="429.8862" y="-791.3" font-family="Helvetica,sans-Serif" font-size="11.00" fill="#000000"> &#160;</text>
<polygon fill="#ffffff" stroke="transparent" points="439,-785.2 439,-804.2 487,-804.2 487,-785.2 439,-785.2"/>
<polygon fill="none" stroke="#000000" points="439,-785.2 439,-804.2 487,-804.2 487,-785.2 439,-785.2"/>
<text text-anchor="start" x="468.4053" y="-791.3" font-family="Helvetica,sans-Serif" font-size="11.00" fill="#000000">1 &gt;</text>
</a>
</g>
</g>
<!-- court_appearance_reason -->
<g id="node3" class="node">
<title>court_appearance_reason</title>
<g id="a_node3"><a xlink:href="../../tables/court_appearance_reason.html" xlink:title="court_appearance_reason" target="_top">
<polygon fill="#ffffff" stroke="transparent" points="8,-966.2 8,-1140.2 219,-1140.2 219,-966.2 8,-966.2"/>
<polygon fill="#f5f5f5" stroke="transparent" points="8.5,-1117.2 8.5,-1140.2 219.5,-1140.2 219.5,-1117.2 8.5,-1117.2"/>
<polygon fill="none" stroke="#000000" points="8.5,-1117.2 8.5,-1140.2 219.5,-1140.2 219.5,-1117.2 8.5,-1117.2"/>
<text text-anchor="start" x="13.5" y="-1125.8" font-family="Helvetica,sans-Serif" font-weight="bold" font-size="11.00" fill="#000000">court_appearance_reason</text>
<text text-anchor="start" x="185.0219" y="-1125.3" font-family="Helvetica,sans-Serif" font-size="11.00" fill="#000000">[table]</text>
<polygon fill="none" stroke="#000000" points="8.5,-1095.2 8.5,-1117.2 219.5,-1117.2 219.5,-1095.2 8.5,-1095.2"/>
<image xlink:href="../../images/primaryKeys.png" width="11px" height="12px" preserveAspectRatio="xMinYMin meet" x="13.5" y="-1112.2"/>
<text text-anchor="start" x="37.5" y="-1102.3" font-family="Helvetica,sans-Serif" font-size="11.00" fill="#000000">id</text>
<polygon fill="#ffffff" stroke="transparent" points="8.5,-1073.2 8.5,-1095.2 219.5,-1095.2 219.5,-1073.2 8.5,-1073.2"/>
<polygon fill="none" stroke="#000000" points="8.5,-1073.2 8.5,-1095.2 219.5,-1095.2 219.5,-1073.2 8.5,-1073.2"/>
<text text-anchor="start" x="37.5" y="-1080.3" font-family="Helvetica,sans-Serif" font-size="11.00" fill="#000000">code</text>
<polygon fill="none" stroke="#000000" points="8.5,-1051.2 8.5,-1073.2 219.5,-1073.2 219.5,-1051.2 8.5,-1051.2"/>
<text text-anchor="start" x="37.5" y="-1058.3" font-family="Helvetica,sans-Serif" font-size="11.00" fill="#000000">description</text>
<polygon fill="#ffffff" stroke="transparent" points="8.5,-1029.2 8.5,-1051.2 219.5,-1051.2 219.5,-1029.2 8.5,-1029.2"/>
<polygon fill="none" stroke="#000000" points="8.5,-1029.2 8.5,-1051.2 219.5,-1051.2 219.5,-1029.2 8.5,-1029.2"/>
<text text-anchor="start" x="37.5" y="-1036.3" font-family="Helvetica,sans-Serif" font-size="11.00" fill="#000000">sequence_number</text>
<polygon fill="none" stroke="#000000" points="8.5,-1007.2 8.5,-1029.2 219.5,-1029.2 219.5,-1007.2 8.5,-1007.2"/>
<text text-anchor="start" x="37.5" y="-1014.3" font-family="Helvetica,sans-Serif" font-size="11.00" fill="#000000">active</text>
<polygon fill="none" stroke="#000000" points="8.5,-985.2 8.5,-1007.2 219.5,-1007.2 219.5,-985.2 8.5,-985.2"/>
<text text-anchor="start" x="37.5" y="-992.3" font-family="Helvetica,sans-Serif" font-size="11.00" fill="#000000">external</text>
<polygon fill="#ffffff" stroke="transparent" points="8.5,-966.2 8.5,-985.2 103.5,-985.2 103.5,-966.2 8.5,-966.2"/>
<polygon fill="none" stroke="#000000" points="8.5,-966.2 8.5,-985.2 103.5,-985.2 103.5,-966.2 8.5,-966.2"/>
<text text-anchor="start" x="11.5" y="-972.3" font-family="Helvetica,sans-Serif" font-size="11.00" fill="#000000"> &#160;</text>
<polygon fill="#ffffff" stroke="transparent" points="103.5,-966.2 103.5,-985.2 156.5,-985.2 156.5,-966.2 103.5,-966.2"/>
<polygon fill="none" stroke="#000000" points="103.5,-966.2 103.5,-985.2 156.5,-985.2 156.5,-966.2 103.5,-966.2"/>
<text text-anchor="start" x="147.3862" y="-972.3" font-family="Helvetica,sans-Serif" font-size="11.00" fill="#000000"> &#160;</text>
<polygon fill="#ffffff" stroke="transparent" points="156.5,-966.2 156.5,-985.2 219.5,-985.2 219.5,-966.2 156.5,-966.2"/>
<polygon fill="none" stroke="#000000" points="156.5,-966.2 156.5,-985.2 219.5,-985.2 219.5,-966.2 156.5,-966.2"/>
<text text-anchor="start" x="200.9053" y="-972.3" font-family="Helvetica,sans-Serif" font-size="11.00" fill="#000000">2 &gt;</text>
</a>
</g>
</g>
<!-- court_appearance&#45;&gt;court_appearance_reason -->
<g id="edge3" class="edge">
<title>court_appearance:w&#45;&gt;court_appearance_reason:e</title>
<path fill="none" stroke="#000000" d="M313.6228,-948.9856C249.6947,-966.4539 299.7051,-1106.2 219.5,-1106.2"/>
<polygon fill="#000000" stroke="#000000" points="320.061,-948.1861 328.4437,-950.7726 324.0305,-947.693 328,-947.2 328,-947.2 328,-947.2 324.0305,-947.693 327.5563,-943.6274 320.061,-948.1861 320.061,-948.1861"/>
<ellipse fill="none" stroke="#000000" cx="316.8854" cy="-948.5805" rx="3.2" ry="3.2"/>
</g>
<!-- court_appearance_status -->
<g id="node5" class="node">
<title>court_appearance_status</title>
<g id="a_node5"><a xlink:href="../../tables/court_appearance_status.html" xlink:title="court_appearance_status" target="_top">
<polygon fill="#ffffff" stroke="transparent" points="9.5,-807.2 9.5,-937.2 217.5,-937.2 217.5,-807.2 9.5,-807.2"/>
<polygon fill="#f5f5f5" stroke="transparent" points="9.5,-914.2 9.5,-937.2 217.5,-937.2 217.5,-914.2 9.5,-914.2"/>
<polygon fill="none" stroke="#000000" points="9.5,-914.2 9.5,-937.2 217.5,-937.2 217.5,-914.2 9.5,-914.2"/>
<text text-anchor="start" x="14.5" y="-922.8" font-family="Helvetica,sans-Serif" font-weight="bold" font-size="11.00" fill="#000000">court_appearance_status</text>
<text text-anchor="start" x="183.0219" y="-922.3" font-family="Helvetica,sans-Serif" font-size="11.00" fill="#000000">[table]</text>
<polygon fill="none" stroke="#000000" points="9.5,-892.2 9.5,-914.2 217.5,-914.2 217.5,-892.2 9.5,-892.2"/>
<image xlink:href="../../images/primaryKeys.png" width="11px" height="12px" preserveAspectRatio="xMinYMin meet" x="14.5" y="-909.2"/>
<text text-anchor="start" x="38.5" y="-899.3" font-family="Helvetica,sans-Serif" font-size="11.00" fill="#000000">id</text>
<polygon fill="#ffffff" stroke="transparent" points="9.5,-870.2 9.5,-892.2 217.5,-892.2 217.5,-870.2 9.5,-870.2"/>
<polygon fill="none" stroke="#000000" points="9.5,-870.2 9.5,-892.2 217.5,-892.2 217.5,-870.2 9.5,-870.2"/>
<text text-anchor="start" x="38.5" y="-877.3" font-family="Helvetica,sans-Serif" font-size="11.00" fill="#000000">code</text>
<polygon fill="none" stroke="#000000" points="9.5,-848.2 9.5,-870.2 217.5,-870.2 217.5,-848.2 9.5,-848.2"/>
<text text-anchor="start" x="38.5" y="-855.3" font-family="Helvetica,sans-Serif" font-size="11.00" fill="#000000">description</text>
<polygon fill="#ffffff" stroke="transparent" points="9.5,-826.2 9.5,-848.2 217.5,-848.2 217.5,-826.2 9.5,-826.2"/>
<polygon fill="none" stroke="#000000" points="9.5,-826.2 9.5,-848.2 217.5,-848.2 217.5,-826.2 9.5,-826.2"/>
<text text-anchor="start" x="38.5" y="-833.3" font-family="Helvetica,sans-Serif" font-size="11.00" fill="#000000">sequence_number</text>
<polygon fill="#ffffff" stroke="transparent" points="9.5,-807.2 9.5,-826.2 102.5,-826.2 102.5,-807.2 9.5,-807.2"/>
<polygon fill="none" stroke="#000000" points="9.5,-807.2 9.5,-826.2 102.5,-826.2 102.5,-807.2 9.5,-807.2"/>
<text text-anchor="start" x="12.5" y="-813.3" font-family="Helvetica,sans-Serif" font-size="11.00" fill="#000000"> &#160;</text>
<polygon fill="#ffffff" stroke="transparent" points="102.5,-807.2 102.5,-826.2 155.5,-826.2 155.5,-807.2 102.5,-807.2"/>
<polygon fill="none" stroke="#000000" points="102.5,-807.2 102.5,-826.2 155.5,-826.2 155.5,-807.2 102.5,-807.2"/>
<text text-anchor="start" x="146.3862" y="-813.3" font-family="Helvetica,sans-Serif" font-size="11.00" fill="#000000"> &#160;</text>
<polygon fill="#ffffff" stroke="transparent" points="155.5,-807.2 155.5,-826.2 217.5,-826.2 217.5,-807.2 155.5,-807.2"/>
<polygon fill="none" stroke="#000000" points="155.5,-807.2 155.5,-826.2 217.5,-826.2 217.5,-807.2 155.5,-807.2"/>
<text text-anchor="start" x="198.9053" y="-813.3" font-family="Helvetica,sans-Serif" font-size="11.00" fill="#000000">1 &gt;</text>
</a>
</g>
</g>
<!-- court_appearance&#45;&gt;court_appearance_status -->
<g id="edge4" class="edge">
<title>court_appearance:w&#45;&gt;court_appearance_status:e</title>
<path fill="none" stroke="#000000" d="M313.1109,-903.2C275.7625,-903.2 261.2396,-903.2 217.5,-903.2"/>
<polygon fill="#000000" stroke="#000000" points="320,-903.2001 328,-906.8 324,-903.2 328,-903.2 328,-903.2 328,-903.2 324,-903.2 328,-899.6 320,-903.2001 320,-903.2001"/>
<ellipse fill="none" stroke="#000000" cx="316.8" cy="-903.2001" rx="3.2" ry="3.2"/>
</g>
<!-- audit_revision -->
<g id="node7" class="node">
<title>audit_revision</title>
<g id="a_node7"><a xlink:href="../../tables/audit_revision.html" xlink:title="audit_revision" target="_top">
<polygon fill="#ffffff" stroke="transparent" points="46.5,-293.2 46.5,-489.2 180.5,-489.2 180.5,-293.2 46.5,-293.2"/>
<polygon fill="#f5f5f5" stroke="transparent" points="46.5,-466.2 46.5,-489.2 180.5,-489.2 180.5,-466.2 46.5,-466.2"/>
<polygon fill="none" stroke="#000000" points="46.5,-466.2 46.5,-489.2 180.5,-489.2 180.5,-466.2 46.5,-466.2"/>
<text text-anchor="start" x="51.5" y="-474.8" font-family="Helvetica,sans-Serif" font-weight="bold" font-size="11.00" fill="#000000">audit_revision</text>
<text text-anchor="start" x="146.0219" y="-474.3" font-family="Helvetica,sans-Serif" font-size="11.00" fill="#000000">[table]</text>
<polygon fill="none" stroke="#000000" points="46.5,-444.2 46.5,-466.2 180.5,-466.2 180.5,-444.2 46.5,-444.2"/>
<image xlink:href="../../images/primaryKeys.png" width="11px" height="12px" preserveAspectRatio="xMinYMin meet" x="51.5" y="-461.2"/>
<text text-anchor="start" x="66.5" y="-451.3" font-family="Helvetica,sans-Serif" font-size="11.00" fill="#000000">id</text>
<polygon fill="none" stroke="#000000" points="46.5,-422.2 46.5,-444.2 180.5,-444.2 180.5,-422.2 46.5,-422.2"/>
<text text-anchor="start" x="66.5" y="-429.3" font-family="Helvetica,sans-Serif" font-size="11.00" fill="#000000">timestamp</text>
<polygon fill="none" stroke="#000000" points="46.5,-400.2 46.5,-422.2 180.5,-422.2 180.5,-400.2 46.5,-400.2"/>
<text text-anchor="start" x="66.5" y="-407.3" font-family="Helvetica,sans-Serif" font-size="11.00" fill="#000000">source</text>
<polygon fill="none" stroke="#000000" points="46.5,-378.2 46.5,-400.2 180.5,-400.2 180.5,-378.2 46.5,-378.2"/>
<text text-anchor="start" x="66.5" y="-385.3" font-family="Helvetica,sans-Serif" font-size="11.00" fill="#000000">affected_entities</text>
<polygon fill="none" stroke="#000000" points="46.5,-356.2 46.5,-378.2 180.5,-378.2 180.5,-356.2 46.5,-356.2"/>
<text text-anchor="start" x="66.5" y="-363.3" font-family="Helvetica,sans-Serif" font-size="11.00" fill="#000000">username</text>
<polygon fill="none" stroke="#000000" points="46.5,-334.2 46.5,-356.2 180.5,-356.2 180.5,-334.2 46.5,-334.2"/>
<text text-anchor="start" x="66.5" y="-341.3" font-family="Helvetica,sans-Serif" font-size="11.00" fill="#000000">caseload_id</text>
<polygon fill="none" stroke="#000000" points="46.5,-312.2 46.5,-334.2 180.5,-334.2 180.5,-312.2 46.5,-312.2"/>
<text text-anchor="start" x="66.5" y="-319.3" font-family="Helvetica,sans-Serif" font-size="11.00" fill="#000000">reason</text>
<polygon fill="#ffffff" stroke="transparent" points="46.5,-293.2 46.5,-312.2 102.5,-312.2 102.5,-293.2 46.5,-293.2"/>
<polygon fill="none" stroke="#000000" points="46.5,-293.2 46.5,-312.2 102.5,-312.2 102.5,-293.2 46.5,-293.2"/>
<text text-anchor="start" x="49.5" y="-299.3" font-family="Helvetica,sans-Serif" font-size="11.00" fill="#000000"> &#160;</text>
<polygon fill="#ffffff" stroke="transparent" points="102.5,-293.2 102.5,-312.2 136.5,-312.2 136.5,-293.2 102.5,-293.2"/>
<polygon fill="none" stroke="#000000" points="102.5,-293.2 102.5,-312.2 136.5,-312.2 136.5,-293.2 102.5,-293.2"/>
<text text-anchor="start" x="127.3862" y="-299.3" font-family="Helvetica,sans-Serif" font-size="11.00" fill="#000000"> &#160;</text>
<polygon fill="#ffffff" stroke="transparent" points="136.5,-293.2 136.5,-312.2 180.5,-312.2 180.5,-293.2 136.5,-293.2"/>
<polygon fill="none" stroke="#000000" points="136.5,-293.2 136.5,-312.2 180.5,-312.2 180.5,-293.2 136.5,-293.2"/>
<text text-anchor="start" x="161.9053" y="-299.3" font-family="Helvetica,sans-Serif" font-size="11.00" fill="#000000">2 &gt;</text>
</a>
</g>
</g>
<!-- court_appearance&#45;&gt;audit_revision -->
<g id="edge1" class="edge">
<title>court_appearance:w&#45;&gt;audit_revision:e</title>
<path fill="none" stroke="#000000" stroke-dasharray="5,2" d="M317.3622,-814.7086C163.4411,-799.8974 349.6942,-455.2 180.5,-455.2"/>
<polygon fill="#000000" stroke="#000000" points="327.3855,-811.1673 327.0163,-819.1588 325.418,-819.085 325.7872,-811.0935 327.3855,-811.1673"/>
<polyline fill="none" stroke="#000000" points="328,-815.2 324.0043,-815.0154 "/>
<ellipse fill="none" stroke="#000000" cx="320.8077" cy="-814.8677" rx="3.2" ry="3.2"/>
</g>
<!-- person_summary -->
<g id="node8" class="node">
<title>person_summary</title>
<g id="a_node8"><a xlink:href="../../tables/person_summary.html" xlink:title="person_summary" target="_top">
<polygon fill="#ffffff" stroke="transparent" points="36.5,-561.2 36.5,-735.2 190.5,-735.2 190.5,-561.2 36.5,-561.2"/>
<polygon fill="#f5f5f5" stroke="transparent" points="36.5,-712.2 36.5,-735.2 190.5,-735.2 190.5,-712.2 36.5,-712.2"/>
<polygon fill="none" stroke="#000000" points="36.5,-712.2 36.5,-735.2 190.5,-735.2 190.5,-712.2 36.5,-712.2"/>
<text text-anchor="start" x="41.5" y="-720.8" font-family="Helvetica,sans-Serif" font-weight="bold" font-size="11.00" fill="#000000">person_summary</text>
<text text-anchor="start" x="156.0219" y="-720.3" font-family="Helvetica,sans-Serif" font-size="11.00" fill="#000000">[table]</text>
<polygon fill="none" stroke="#000000" points="36.5,-690.2 36.5,-712.2 190.5,-712.2 190.5,-690.2 36.5,-690.2"/>
<image xlink:href="../../images/primaryKeys.png" width="11px" height="12px" preserveAspectRatio="xMinYMin meet" x="41.5" y="-707.2"/>
<text text-anchor="start" x="65.5" y="-697.3" font-family="Helvetica,sans-Serif" font-size="11.00" fill="#000000">person_identifier</text>
<polygon fill="none" stroke="#000000" points="36.5,-668.2 36.5,-690.2 190.5,-690.2 190.5,-668.2 36.5,-668.2"/>
<text text-anchor="start" x="65.5" y="-675.3" font-family="Helvetica,sans-Serif" font-size="11.00" fill="#000000">version</text>
<polygon fill="none" stroke="#000000" points="36.5,-646.2 36.5,-668.2 190.5,-668.2 190.5,-646.2 36.5,-646.2"/>
<text text-anchor="start" x="65.5" y="-653.3" font-family="Helvetica,sans-Serif" font-size="11.00" fill="#000000">first_name</text>
<polygon fill="none" stroke="#000000" points="36.5,-624.2 36.5,-646.2 190.5,-646.2 190.5,-624.2 36.5,-624.2"/>
<text text-anchor="start" x="65.5" y="-631.3" font-family="Helvetica,sans-Serif" font-size="11.00" fill="#000000">last_name</text>
<polygon fill="none" stroke="#000000" points="36.5,-602.2 36.5,-624.2 190.5,-624.2 190.5,-602.2 36.5,-602.2"/>
<text text-anchor="start" x="65.5" y="-609.3" font-family="Helvetica,sans-Serif" font-size="11.00" fill="#000000">prison_code</text>
<polygon fill="none" stroke="#000000" points="36.5,-580.2 36.5,-602.2 190.5,-602.2 190.5,-580.2 36.5,-580.2"/>
<text text-anchor="start" x="65.5" y="-587.3" font-family="Helvetica,sans-Serif" font-size="11.00" fill="#000000">cell_location</text>
<polygon fill="#ffffff" stroke="transparent" points="36.5,-561.2 36.5,-580.2 102.5,-580.2 102.5,-561.2 36.5,-561.2"/>
<polygon fill="none" stroke="#000000" points="36.5,-561.2 36.5,-580.2 102.5,-580.2 102.5,-561.2 36.5,-561.2"/>
<text text-anchor="start" x="39.5" y="-567.3" font-family="Helvetica,sans-Serif" font-size="11.00" fill="#000000"> &#160;</text>
<polygon fill="#ffffff" stroke="transparent" points="102.5,-561.2 102.5,-580.2 141.5,-580.2 141.5,-561.2 102.5,-561.2"/>
<polygon fill="none" stroke="#000000" points="102.5,-561.2 102.5,-580.2 141.5,-580.2 141.5,-561.2 102.5,-561.2"/>
<text text-anchor="start" x="132.3862" y="-567.3" font-family="Helvetica,sans-Serif" font-size="11.00" fill="#000000"> &#160;</text>
<polygon fill="#ffffff" stroke="transparent" points="141.5,-561.2 141.5,-580.2 190.5,-580.2 190.5,-561.2 141.5,-561.2"/>
<polygon fill="none" stroke="#000000" points="141.5,-561.2 141.5,-580.2 190.5,-580.2 190.5,-561.2 141.5,-561.2"/>
<text text-anchor="start" x="171.9053" y="-567.3" font-family="Helvetica,sans-Serif" font-size="11.00" fill="#000000">2 &gt;</text>
</a>
</g>
</g>
<!-- court_appearance&#45;&gt;person_summary -->
<g id="edge2" class="edge">
<title>court_appearance:w&#45;&gt;person_summary:e</title>
<path fill="none" stroke="#000000" d="M313.5477,-1012.1314C187.4124,-992.2364 336.8561,-701.2 190.5,-701.2"/>
<polygon fill="#000000" stroke="#000000" points="320.0218,-1012.6101 327.7345,-1016.7902 324.0109,-1012.905 328,-1013.2 328,-1013.2 328,-1013.2 324.0109,-1012.905 328.2655,-1009.6098 320.0218,-1012.6101 320.0218,-1012.6101"/>
<ellipse fill="none" stroke="#000000" cx="316.8305" cy="-1012.3741" rx="3.2" ry="3.2"/>
</g>
<!-- court_appearance_audit -->
<g id="node2" class="node">
<title>court_appearance_audit</title>
<g id="a_node2"><a xlink:href="../../tables/court_appearance_audit.html" xlink:title="court_appearance_audit" target="_top">
<polygon fill="#ffffff" stroke="transparent" points="307,-38.2 307,-388.2 507,-388.2 507,-38.2 307,-38.2"/>
<polygon fill="#f5f5f5" stroke="transparent" points="307,-365.2 307,-388.2 507,-388.2 507,-365.2 307,-365.2"/>
<polygon fill="none" stroke="#000000" points="307,-365.2 307,-388.2 507,-388.2 507,-365.2 307,-365.2"/>
<text text-anchor="start" x="312" y="-373.8" font-family="Helvetica,sans-Serif" font-weight="bold" font-size="11.00" fill="#000000">court_appearance_audit</text>
<text text-anchor="start" x="472.5219" y="-373.3" font-family="Helvetica,sans-Serif" font-size="11.00" fill="#000000">[table]</text>
<polygon fill="none" stroke="#000000" points="307,-343.2 307,-365.2 507,-365.2 507,-343.2 307,-343.2"/>
<image xlink:href="../../images/primaryKeys.png" width="11px" height="12px" preserveAspectRatio="xMinYMin meet" x="312" y="-360.2"/>
<text text-anchor="start" x="336" y="-350.3" font-family="Helvetica,sans-Serif" font-size="11.00" fill="#000000">rev_id</text>
<polygon fill="none" stroke="#000000" points="307,-321.2 307,-343.2 507,-343.2 507,-321.2 307,-321.2"/>
<text text-anchor="start" x="336" y="-328.3" font-family="Helvetica,sans-Serif" font-size="11.00" fill="#000000">rev_type</text>
<polygon fill="none" stroke="#000000" points="307,-299.2 307,-321.2 507,-321.2 507,-299.2 307,-299.2"/>
<image xlink:href="../../images/primaryKeys.png" width="11px" height="12px" preserveAspectRatio="xMinYMin meet" x="312" y="-316.2"/>
<text text-anchor="start" x="336" y="-306.3" font-family="Helvetica,sans-Serif" font-size="11.00" fill="#000000">id</text>
<polygon fill="none" stroke="#000000" points="307,-277.2 307,-299.2 507,-299.2 507,-277.2 307,-277.2"/>
<text text-anchor="start" x="336" y="-284.3" font-family="Helvetica,sans-Serif" font-size="11.00" fill="#000000">version</text>
<polygon fill="none" stroke="#000000" points="307,-255.2 307,-277.2 507,-277.2 507,-255.2 307,-255.2"/>
<image xlink:href="../../images/foreignKeys.png" width="11px" height="12px" preserveAspectRatio="xMinYMin meet" x="312" y="-272.2"/>
<text text-anchor="start" x="336" y="-262.3" font-family="Helvetica,sans-Serif" font-size="11.00" fill="#000000">person_identifier</text>
<polygon fill="none" stroke="#000000" points="307,-233.2 307,-255.2 507,-255.2 507,-233.2 307,-233.2"/>
<text text-anchor="start" x="336" y="-240.3" font-family="Helvetica,sans-Serif" font-size="11.00" fill="#000000">prison_code</text>
<polygon fill="none" stroke="#000000" points="307,-211.2 307,-233.2 507,-233.2 507,-211.2 307,-211.2"/>
<text text-anchor="start" x="336" y="-218.3" font-family="Helvetica,sans-Serif" font-size="11.00" fill="#000000">court_code</text>
<polygon fill="none" stroke="#000000" points="307,-189.2 307,-211.2 507,-211.2 507,-189.2 307,-189.2"/>
<text text-anchor="start" x="336" y="-196.3" font-family="Helvetica,sans-Serif" font-size="11.00" fill="#000000">reason_id</text>
<polygon fill="none" stroke="#000000" points="307,-167.2 307,-189.2 507,-189.2 507,-167.2 307,-167.2"/>
<text text-anchor="start" x="336" y="-174.3" font-family="Helvetica,sans-Serif" font-size="11.00" fill="#000000">external</text>
<polygon fill="none" stroke="#000000" points="307,-145.2 307,-167.2 507,-167.2 507,-145.2 307,-145.2"/>
<text text-anchor="start" x="336" y="-152.3" font-family="Helvetica,sans-Serif" font-size="11.00" fill="#000000">status_id</text>
<polygon fill="none" stroke="#000000" points="307,-123.2 307,-145.2 507,-145.2 507,-123.2 307,-123.2"/>
<text text-anchor="start" x="336" y="-130.3" font-family="Helvetica,sans-Serif" font-size="11.00" fill="#000000">start</text>
<polygon fill="none" stroke="#000000" points="307,-101.2 307,-123.2 507,-123.2 507,-101.2 307,-101.2"/>
<text text-anchor="start" x="336" y="-108.3" font-family="Helvetica,sans-Serif" font-size="11.00" fill="#000000">end</text>
<polygon fill="none" stroke="#000000" points="307,-79.2 307,-101.2 507,-101.2 507,-79.2 307,-79.2"/>
<text text-anchor="start" x="336" y="-86.3" font-family="Helvetica,sans-Serif" font-size="11.00" fill="#000000">comments</text>
<polygon fill="none" stroke="#000000" points="307,-57.2 307,-79.2 507,-79.2 507,-57.2 307,-57.2"/>
<image xlink:href="../../images/foreignKeys.png" width="11px" height="12px" preserveAspectRatio="xMinYMin meet" x="312" y="-74.2"/>
<text text-anchor="start" x="336" y="-64.3" font-family="Helvetica,sans-Serif" font-size="11.00" fill="#000000">legacy_id</text>
<polygon fill="#ffffff" stroke="transparent" points="307,-38.2 307,-57.2 405,-57.2 405,-38.2 307,-38.2"/>
<polygon fill="none" stroke="#000000" points="307,-38.2 307,-57.2 405,-57.2 405,-38.2 307,-38.2"/>
<text text-anchor="start" x="310" y="-44.3" font-family="Helvetica,sans-Serif" font-size="11.00" fill="#000000">&lt; 1</text>
<polygon fill="#ffffff" stroke="transparent" points="405,-38.2 405,-57.2 456,-57.2 456,-38.2 405,-38.2"/>
<polygon fill="none" stroke="#000000" points="405,-38.2 405,-57.2 456,-57.2 456,-38.2 405,-38.2"/>
<text text-anchor="start" x="446.8862" y="-44.3" font-family="Helvetica,sans-Serif" font-size="11.00" fill="#000000"> &#160;</text>
<polygon fill="#ffffff" stroke="transparent" points="456,-38.2 456,-57.2 507,-57.2 507,-38.2 456,-38.2"/>
<polygon fill="none" stroke="#000000" points="456,-38.2 456,-57.2 507,-57.2 507,-38.2 456,-38.2"/>
<text text-anchor="start" x="497.8862" y="-44.3" font-family="Helvetica,sans-Serif" font-size="11.00" fill="#000000"> &#160;</text>
</a>
</g>
</g>
<!-- court_appearance_audit&#45;&gt;audit_revision -->
<g id="edge5" class="edge">
<title>court_appearance_audit:w&#45;&gt;audit_revision:e</title>
<path fill="none" stroke="#000000" stroke-dasharray="5,2" d="M292.6088,-69.1136C139.0443,-89.8095 356.3309,-455.2 180.5,-455.2"/>
<polygon fill="#000000" stroke="#000000" points="299.0161,-68.7069 307.2281,-71.7928 303.008,-68.4534 307,-68.2 307,-68.2 307,-68.2 303.008,-68.4534 306.7719,-64.6072 299.0161,-68.7069 299.0161,-68.7069"/>
<ellipse fill="none" stroke="#000000" cx="295.8225" cy="-68.9096" rx="3.2" ry="3.2"/>
</g>
<!-- court_appearance_audit&#45;&gt;audit_revision -->
<g id="edge7" class="edge">
<title>court_appearance_audit:w&#45;&gt;audit_revision:e</title>
<path fill="none" stroke="#000000" d="M292.3844,-355.7865C237.1449,-368.6358 247.1045,-455.2 180.5,-455.2"/>
<polygon fill="#000000" stroke="#000000" points="299.0467,-355.0633 307.3885,-357.779 303.0234,-354.6317 307,-354.2 307,-354.2 307,-354.2 303.0234,-354.6317 306.6115,-350.621 299.0467,-355.0633 299.0467,-355.0633"/>
<ellipse fill="none" stroke="#000000" cx="295.8654" cy="-355.4087" rx="3.2" ry="3.2"/>
</g>
<!-- court_appearance_audit&#45;&gt;person_summary -->
<g id="edge6" class="edge">
<title>court_appearance_audit:w&#45;&gt;person_summary:e</title>
<path fill="none" stroke="#000000" stroke-dasharray="5,2" d="M292.6469,-269.7015C215.2378,-310.8692 285.2961,-701.2 190.5,-701.2"/>
<polygon fill="#000000" stroke="#000000" points="299.2279,-268.0961 307.8532,-269.6974 303.114,-267.148 307,-266.2 307,-266.2 307,-266.2 303.114,-267.148 306.1468,-262.7026 299.2279,-268.0961 299.2279,-268.0961"/>
<ellipse fill="none" stroke="#000000" cx="296.1191" cy="-268.8545" rx="3.2" ry="3.2"/>
</g>
<!-- court_appearance_movement -->
<g id="node4" class="node">
<title>court_appearance_movement</title>
<g id="a_node4"><a xlink:href="../../tables/court_appearance_movement.html" xlink:title="court_appearance_movement" target="_top">
<polygon fill="#ffffff" stroke="transparent" points="595,-851.2 595,-1135.2 832,-1135.2 832,-851.2 595,-851.2"/>
<polygon fill="#f5f5f5" stroke="transparent" points="595.5,-1112.2 595.5,-1135.2 832.5,-1135.2 832.5,-1112.2 595.5,-1112.2"/>
<polygon fill="none" stroke="#000000" points="595.5,-1112.2 595.5,-1135.2 832.5,-1135.2 832.5,-1112.2 595.5,-1112.2"/>
<text text-anchor="start" x="600.5" y="-1120.8" font-family="Helvetica,sans-Serif" font-weight="bold" font-size="11.00" fill="#000000">court_appearance_movement</text>
<text text-anchor="start" x="798.0219" y="-1120.3" font-family="Helvetica,sans-Serif" font-size="11.00" fill="#000000">[table]</text>
<polygon fill="none" stroke="#000000" points="595.5,-1090.2 595.5,-1112.2 832.5,-1112.2 832.5,-1090.2 595.5,-1090.2"/>
<image xlink:href="../../images/primaryKeys.png" width="11px" height="12px" preserveAspectRatio="xMinYMin meet" x="600.5" y="-1107.2"/>
<text text-anchor="start" x="624.5" y="-1097.3" font-family="Helvetica,sans-Serif" font-size="11.00" fill="#000000">id</text>
<polygon fill="none" stroke="#000000" points="595.5,-1068.2 595.5,-1090.2 832.5,-1090.2 832.5,-1068.2 595.5,-1068.2"/>
<text text-anchor="start" x="624.5" y="-1075.3" font-family="Helvetica,sans-Serif" font-size="11.00" fill="#000000">version</text>
<polygon fill="none" stroke="#000000" points="595.5,-1046.2 595.5,-1068.2 832.5,-1068.2 832.5,-1046.2 595.5,-1046.2"/>
<image xlink:href="../../images/foreignKeys.png" width="11px" height="12px" preserveAspectRatio="xMinYMin meet" x="600.5" y="-1063.2"/>
<text text-anchor="start" x="624.5" y="-1053.3" font-family="Helvetica,sans-Serif" font-size="11.00" fill="#000000">court_appearance_id</text>
<polygon fill="#ffffff" stroke="transparent" points="595.5,-1024.2 595.5,-1046.2 832.5,-1046.2 832.5,-1024.2 595.5,-1024.2"/>
<polygon fill="none" stroke="#000000" points="595.5,-1024.2 595.5,-1046.2 832.5,-1046.2 832.5,-1024.2 595.5,-1024.2"/>
<image xlink:href="../../images/foreignKeys.png" width="11px" height="12px" preserveAspectRatio="xMinYMin meet" x="600.5" y="-1041.2"/>
<text text-anchor="start" x="624.5" y="-1031.3" font-family="Helvetica,sans-Serif" font-size="11.00" fill="#000000">person_identifier</text>
<polygon fill="none" stroke="#000000" points="595.5,-1002.2 595.5,-1024.2 832.5,-1024.2 832.5,-1002.2 595.5,-1002.2"/>
<text text-anchor="start" x="624.5" y="-1009.3" font-family="Helvetica,sans-Serif" font-size="11.00" fill="#000000">prison_code</text>
<polygon fill="none" stroke="#000000" points="595.5,-980.2 595.5,-1002.2 832.5,-1002.2 832.5,-980.2 595.5,-980.2"/>
<text text-anchor="start" x="624.5" y="-987.3" font-family="Helvetica,sans-Serif" font-size="11.00" fill="#000000">court_code</text>
<polygon fill="none" stroke="#000000" points="595.5,-958.2 595.5,-980.2 832.5,-980.2 832.5,-958.2 595.5,-958.2"/>
<image xlink:href="../../images/foreignKeys.png" width="11px" height="12px" preserveAspectRatio="xMinYMin meet" x="600.5" y="-975.2"/>
<text text-anchor="start" x="624.5" y="-965.3" font-family="Helvetica,sans-Serif" font-size="11.00" fill="#000000">reason_id</text>
<polygon fill="none" stroke="#000000" points="595.5,-936.2 595.5,-958.2 832.5,-958.2 832.5,-936.2 595.5,-936.2"/>
<text text-anchor="start" x="624.5" y="-943.3" font-family="Helvetica,sans-Serif" font-size="11.00" fill="#000000">direction</text>
<polygon fill="none" stroke="#000000" points="595.5,-914.2 595.5,-936.2 832.5,-936.2 832.5,-914.2 595.5,-914.2"/>
<text text-anchor="start" x="624.5" y="-921.3" font-family="Helvetica,sans-Serif" font-size="11.00" fill="#000000">occurred_at</text>
<polygon fill="none" stroke="#000000" points="595.5,-892.2 595.5,-914.2 832.5,-914.2 832.5,-892.2 595.5,-892.2"/>
<text text-anchor="start" x="624.5" y="-899.3" font-family="Helvetica,sans-Serif" font-size="11.00" fill="#000000">comments</text>
<polygon fill="#ffffff" stroke="transparent" points="595.5,-870.2 595.5,-892.2 832.5,-892.2 832.5,-870.2 595.5,-870.2"/>
<polygon fill="none" stroke="#000000" points="595.5,-870.2 595.5,-892.2 832.5,-892.2 832.5,-870.2 595.5,-870.2"/>
<text text-anchor="start" x="624.5" y="-877.3" font-family="Helvetica,sans-Serif" font-size="11.00" fill="#000000">legacy_id</text>
<polygon fill="#ffffff" stroke="transparent" points="595.5,-851.2 595.5,-870.2 712.5,-870.2 712.5,-851.2 595.5,-851.2"/>
<polygon fill="none" stroke="#000000" points="595.5,-851.2 595.5,-870.2 712.5,-870.2 712.5,-851.2 595.5,-851.2"/>
<text text-anchor="start" x="598.5" y="-857.3" font-family="Helvetica,sans-Serif" font-size="11.00" fill="#000000">&lt; 3</text>
<polygon fill="#ffffff" stroke="transparent" points="712.5,-851.2 712.5,-870.2 772.5,-870.2 772.5,-851.2 712.5,-851.2"/>
<polygon fill="none" stroke="#000000" points="712.5,-851.2 712.5,-870.2 772.5,-870.2 772.5,-851.2 712.5,-851.2"/>
<text text-anchor="start" x="763.3862" y="-857.3" font-family="Helvetica,sans-Serif" font-size="11.00" fill="#000000"> &#160;</text>
<polygon fill="#ffffff" stroke="transparent" points="772.5,-851.2 772.5,-870.2 832.5,-870.2 832.5,-851.2 772.5,-851.2"/>
<polygon fill="none" stroke="#000000" points="772.5,-851.2 772.5,-870.2 832.5,-870.2 832.5,-851.2 772.5,-851.2"/>
<text text-anchor="start" x="823.3862" y="-857.3" font-family="Helvetica,sans-Serif" font-size="11.00" fill="#000000"> &#160;</text>
</a>
</g>
</g>
<!-- court_appearance_movement&#45;&gt;court_appearance -->
<g id="edge8" class="edge">
<title>court_appearance_movement:w&#45;&gt;court_appearance:e</title>
<path fill="none" stroke="#000000" d="M580.8804,-1057.2C544.208,-1057.2 529.9479,-1057.2 487,-1057.2"/>
<polygon fill="#000000" stroke="#000000" points="587.5,-1057.2001 595.5,-1060.8 591.5,-1057.2 595.5,-1057.2 595.5,-1057.2 595.5,-1057.2 591.5,-1057.2 595.5,-1053.6 587.5,-1057.2001 587.5,-1057.2001"/>
<ellipse fill="none" stroke="#000000" cx="584.3" cy="-1057.2001" rx="3.2" ry="3.2"/>
</g>
<!-- court_appearance_movement&#45;&gt;court_appearance_reason -->
<g id="edge10" class="edge">
<title>court_appearance_movement:w&#45;&gt;court_appearance_reason:e</title>
<path fill="none" stroke="#000000" d="M580.9011,-971.8026C546.1243,-987.3896 598.812,-1068.8251 554,-1102.2 434.7598,-1191.0071 368.1773,-1106.2 219.5,-1106.2"/>
<polygon fill="#000000" stroke="#000000" points="587.6242,-970.6041 596.1318,-972.7441 591.5621,-969.902 595.5,-969.2 595.5,-969.2 595.5,-969.2 591.5621,-969.902 594.8682,-965.6559 587.6242,-970.6041 587.6242,-970.6041"/>
<ellipse fill="none" stroke="#000000" cx="584.4738" cy="-971.1657" rx="3.2" ry="3.2"/>
</g>
<!-- court_appearance_movement&#45;&gt;person_summary -->
<g id="edge9" class="edge">
<title>court_appearance_movement:w&#45;&gt;person_summary:e</title>
<path fill="none" stroke="#000000" d="M581.9803,-1029.7281C547.2911,-995.5269 592.7229,-811.4225 554,-775.2 506.0869,-730.3806 321.7844,-770.271 260,-748.2 224.8843,-735.6558 227.789,-701.2 190.5,-701.2"/>
<polygon fill="#000000" stroke="#000000" points="588.0844,-1032.1986 594.1494,-1038.537 591.7922,-1033.6993 595.5,-1035.2 595.5,-1035.2 595.5,-1035.2 591.7922,-1033.6993 596.8506,-1031.863 588.0844,-1032.1986 588.0844,-1032.1986"/>
<ellipse fill="none" stroke="#000000" cx="585.1181" cy="-1030.998" rx="3.2" ry="3.2"/>
</g>
<!-- court_appearance_movement_audit -->
<g id="node6" class="node">
<title>court_appearance_movement_audit</title>
<g id="a_node6"><a xlink:href="../../tables/court_appearance_movement_audit.html" xlink:title="court_appearance_movement_audit" target="_top">
<polygon fill="#ffffff" stroke="transparent" points="268,-409.2 268,-737.2 546,-737.2 546,-409.2 268,-409.2"/>
<polygon fill="#f5f5f5" stroke="transparent" points="268,-714.2 268,-737.2 546,-737.2 546,-714.2 268,-714.2"/>
<polygon fill="none" stroke="#000000" points="268,-714.2 268,-737.2 546,-737.2 546,-714.2 268,-714.2"/>
<text text-anchor="start" x="273" y="-722.8" font-family="Helvetica,sans-Serif" font-weight="bold" font-size="11.00" fill="#000000">court_appearance_movement_audit</text>
<text text-anchor="start" x="511.5219" y="-722.3" font-family="Helvetica,sans-Serif" font-size="11.00" fill="#000000">[table]</text>
<polygon fill="none" stroke="#000000" points="268,-692.2 268,-714.2 546,-714.2 546,-692.2 268,-692.2"/>
<image xlink:href="../../images/primaryKeys.png" width="11px" height="12px" preserveAspectRatio="xMinYMin meet" x="273" y="-709.2"/>
<text text-anchor="start" x="297" y="-699.3" font-family="Helvetica,sans-Serif" font-size="11.00" fill="#000000">rev_id</text>
<polygon fill="none" stroke="#000000" points="268,-670.2 268,-692.2 546,-692.2 546,-670.2 268,-670.2"/>
<text text-anchor="start" x="297" y="-677.3" font-family="Helvetica,sans-Serif" font-size="11.00" fill="#000000">rev_type</text>
<polygon fill="none" stroke="#000000" points="268,-648.2 268,-670.2 546,-670.2 546,-648.2 268,-648.2"/>
<image xlink:href="../../images/primaryKeys.png" width="11px" height="12px" preserveAspectRatio="xMinYMin meet" x="273" y="-665.2"/>
<text text-anchor="start" x="297" y="-655.3" font-family="Helvetica,sans-Serif" font-size="11.00" fill="#000000">id</text>
<polygon fill="none" stroke="#000000" points="268,-626.2 268,-648.2 546,-648.2 546,-626.2 268,-626.2"/>
<text text-anchor="start" x="297" y="-633.3" font-family="Helvetica,sans-Serif" font-size="11.00" fill="#000000">version</text>
<polygon fill="none" stroke="#000000" points="268,-604.2 268,-626.2 546,-626.2 546,-604.2 268,-604.2"/>
<text text-anchor="start" x="297" y="-611.3" font-family="Helvetica,sans-Serif" font-size="11.00" fill="#000000">court_appearance_id</text>
<polygon fill="none" stroke="#000000" points="268,-582.2 268,-604.2 546,-604.2 546,-582.2 268,-582.2"/>
<image xlink:href="../../images/foreignKeys.png" width="11px" height="12px" preserveAspectRatio="xMinYMin meet" x="273" y="-599.2"/>
<text text-anchor="start" x="297" y="-589.3" font-family="Helvetica,sans-Serif" font-size="11.00" fill="#000000">person_identifier</text>
<polygon fill="none" stroke="#000000" points="268,-560.2 268,-582.2 546,-582.2 546,-560.2 268,-560.2"/>
<text text-anchor="start" x="297" y="-567.3" font-family="Helvetica,sans-Serif" font-size="11.00" fill="#000000">prison_code</text>
<polygon fill="none" stroke="#000000" points="268,-538.2 268,-560.2 546,-560.2 546,-538.2 268,-538.2"/>
<text text-anchor="start" x="297" y="-545.3" font-family="Helvetica,sans-Serif" font-size="11.00" fill="#000000">court_code</text>
<polygon fill="none" stroke="#000000" points="268,-516.2 268,-538.2 546,-538.2 546,-516.2 268,-516.2"/>
<text text-anchor="start" x="297" y="-523.3" font-family="Helvetica,sans-Serif" font-size="11.00" fill="#000000">reason_id</text>
<polygon fill="none" stroke="#000000" points="268,-494.2 268,-516.2 546,-516.2 546,-494.2 268,-494.2"/>
<text text-anchor="start" x="297" y="-501.3" font-family="Helvetica,sans-Serif" font-size="11.00" fill="#000000">direction</text>
<polygon fill="none" stroke="#000000" points="268,-472.2 268,-494.2 546,-494.2 546,-472.2 268,-472.2"/>
<text text-anchor="start" x="297" y="-479.3" font-family="Helvetica,sans-Serif" font-size="11.00" fill="#000000">occurred_at</text>
<polygon fill="none" stroke="#000000" points="268,-450.2 268,-472.2 546,-472.2 546,-450.2 268,-450.2"/>
<text text-anchor="start" x="297" y="-457.3" font-family="Helvetica,sans-Serif" font-size="11.00" fill="#000000">comments</text>
<polygon fill="none" stroke="#000000" points="268,-428.2 268,-450.2 546,-450.2 546,-428.2 268,-428.2"/>
<text text-anchor="start" x="297" y="-435.3" font-family="Helvetica,sans-Serif" font-size="11.00" fill="#000000">legacy_id</text>
<polygon fill="#ffffff" stroke="transparent" points="268,-409.2 268,-428.2 405,-428.2 405,-409.2 268,-409.2"/>
<polygon fill="none" stroke="#000000" points="268,-409.2 268,-428.2 405,-428.2 405,-409.2 268,-409.2"/>
<text text-anchor="start" x="271" y="-415.3" font-family="Helvetica,sans-Serif" font-size="11.00" fill="#000000">&lt; 1</text>
<polygon fill="#ffffff" stroke="transparent" points="405,-409.2 405,-428.2 475,-428.2 475,-409.2 405,-409.2"/>
<polygon fill="none" stroke="#000000" points="405,-409.2 405,-428.2 475,-428.2 475,-409.2 405,-409.2"/>
<text text-anchor="start" x="465.8862" y="-415.3" font-family="Helvetica,sans-Serif" font-size="11.00" fill="#000000"> &#160;</text>
<polygon fill="#ffffff" stroke="transparent" points="475,-409.2 475,-428.2 546,-428.2 546,-409.2 475,-409.2"/>
<polygon fill="none" stroke="#000000" points="475,-409.2 475,-428.2 546,-428.2 546,-409.2 475,-409.2"/>
<text text-anchor="start" x="536.8862" y="-415.3" font-family="Helvetica,sans-Serif" font-size="11.00" fill="#000000"> &#160;</text>
</a>
</g>
</g>
<!-- court_appearance_movement_audit&#45;&gt;audit_revision -->
<g id="edge12" class="edge">
<title>court_appearance_movement_audit:w&#45;&gt;audit_revision:e</title>
<path fill="none" stroke="#000000" d="M253.4615,-701.5921C206.0891,-689.4888 249.5102,-611.5025 227,-551.2 210.4205,-506.7852 227.9084,-455.2 180.5,-455.2"/>
<polygon fill="#000000" stroke="#000000" points="260.0485,-702.3205 267.6042,-706.7782 264.0242,-702.7603 268,-703.2 268,-703.2 268,-703.2 264.0242,-702.7603 268.3958,-699.6218 260.0485,-702.3205 260.0485,-702.3205"/>
<ellipse fill="none" stroke="#000000" cx="256.8679" cy="-701.9687" rx="3.2" ry="3.2"/>
</g>
<!-- court_appearance_movement_audit&#45;&gt;person_summary -->
<g id="edge11" class="edge">
<title>court_appearance_movement_audit:w&#45;&gt;person_summary:e</title>
<path fill="none" stroke="#000000" stroke-dasharray="5,2" d="M253.8493,-595.8697C215.6673,-612.5008 244.041,-701.2 190.5,-701.2"/>
<polygon fill="#000000" stroke="#000000" points="260.1387,-594.6832 268.6674,-596.7376 264.0693,-593.9416 268,-593.2 268,-593.2 268,-593.2 264.0693,-593.9416 267.3326,-589.6624 260.1387,-594.6832 260.1387,-594.6832"/>
<ellipse fill="none" stroke="#000000" cx="256.9942" cy="-595.2764" rx="3.2" ry="3.2"/>
</g>
</g>
</svg>
