<?xml version="1.0" encoding="UTF-8" standalone="no"?>
<!DOCTYPE svg PUBLIC "-//W3C//DTD SVG 1.1//EN"
 "http://www.w3.org/Graphics/SVG/1.1/DTD/svg11.dtd">
<!-- Generated by graphviz version 2.40.1 (20161225.0304)
 -->
<!-- Title: largeImpliedRelationshipsDiagram Pages: 1 -->
<svg width="848pt" height="1134pt"
 viewBox="0.00 0.00 848.00 1134.20" xmlns="http://www.w3.org/2000/svg" xmlns:xlink="http://www.w3.org/1999/xlink">
<g id="graph0" class="graph" transform="scale(1 1) rotate(0) translate(4 1130.2)">
<title>largeImpliedRelationshipsDiagram</title>
<polygon fill="#ffffff" stroke="transparent" points="-4,4 -4,-1130.2 844,-1130.2 844,4 -4,4"/>
<text text-anchor="middle" x="72.4936" y="-7.3" font-family="Helvetica,sans-Serif" font-size="11.00" fill="#000000">Generated by SchemaSpy</text>
<!-- court_appearance_audit -->
<g id="node1" class="node">
<title>court_appearance_audit</title>
<g id="a_node1"><a xlink:href="../../tables/court_appearance_audit.html" xlink:title="court_appearance_audit" target="_top">
<polygon fill="#ffffff" stroke="transparent" points="307,-772.2 307,-1122.2 507,-1122.2 507,-772.2 307,-772.2"/>
<polygon fill="#f5f5f5" stroke="transparent" points="307,-1099.2 307,-1122.2 507,-1122.2 507,-1099.2 307,-1099.2"/>
<polygon fill="none" stroke="#000000" points="307,-1099.2 307,-1122.2 507,-1122.2 507,-1099.2 307,-1099.2"/>
<text text-anchor="start" x="312" y="-1107.8" font-family="Helvetica,sans-Serif" font-weight="bold" font-size="11.00" fill="#000000">court_appearance_audit</text>
<text text-anchor="start" x="472.5219" y="-1107.3" font-family="Helvetica,sans-Serif" font-size="11.00" fill="#000000">[table]</text>
<polygon fill="none" stroke="#000000" points="307,-1077.2 307,-1099.2 507,-1099.2 507,-1077.2 307,-1077.2"/>
<image xlink:href="../../images/primaryKeys.png" width="11px" height="12px" preserveAspectRatio="xMinYMin meet" x="312" y="-1094.2"/>
<text text-anchor="start" x="336" y="-1084.3" font-family="Helvetica,sans-Serif" font-size="11.00" fill="#000000">rev_id</text>
<polygon fill="none" stroke="#000000" points="307,-1055.2 307,-1077.2 507,-1077.2 507,-1055.2 307,-1055.2"/>
<text text-anchor="start" x="336" y="-1062.3" font-family="Helvetica,sans-Serif" font-size="11.00" fill="#000000">rev_type</text>
<polygon fill="none" stroke="#000000" points="307,-1033.2 307,-1055.2 507,-1055.2 507,-1033.2 307,-1033.2"/>
<image xlink:href="../../images/primaryKeys.png" width="11px" height="12px" preserveAspectRatio="xMinYMin meet" x="312" y="-1050.2"/>
<text text-anchor="start" x="336" y="-1040.3" font-family="Helvetica,sans-Serif" font-size="11.00" fill="#000000">id</text>
<polygon fill="none" stroke="#000000" points="307,-1011.2 307,-1033.2 507,-1033.2 507,-1011.2 307,-1011.2"/>
<text text-anchor="start" x="336" y="-1018.3" font-family="Helvetica,sans-Serif" font-size="11.00" fill="#000000">version</text>
<polygon fill="none" stroke="#000000" points="307,-989.2 307,-1011.2 507,-1011.2 507,-989.2 307,-989.2"/>
<image xlink:href="../../images/foreignKeys.png" width="11px" height="12px" preserveAspectRatio="xMinYMin meet" x="312" y="-1006.2"/>
<text text-anchor="start" x="336" y="-996.3" font-family="Helvetica,sans-Serif" font-size="11.00" fill="#000000">person_identifier</text>
<polygon fill="none" stroke="#000000" points="307,-967.2 307,-989.2 507,-989.2 507,-967.2 307,-967.2"/>
<text text-anchor="start" x="336" y="-974.3" font-family="Helvetica,sans-Serif" font-size="11.00" fill="#000000">prison_code</text>
<polygon fill="none" stroke="#000000" points="307,-945.2 307,-967.2 507,-967.2 507,-945.2 307,-945.2"/>
<text text-anchor="start" x="336" y="-952.3" font-family="Helvetica,sans-Serif" font-size="11.00" fill="#000000">court_code</text>
<polygon fill="none" stroke="#000000" points="307,-923.2 307,-945.2 507,-945.2 507,-923.2 307,-923.2"/>
<text text-anchor="start" x="336" y="-930.3" font-family="Helvetica,sans-Serif" font-size="11.00" fill="#000000">reason_id</text>
<polygon fill="none" stroke="#000000" points="307,-901.2 307,-923.2 507,-923.2 507,-901.2 307,-901.2"/>
<text text-anchor="start" x="336" y="-908.3" font-family="Helvetica,sans-Serif" font-size="11.00" fill="#000000">external</text>
<polygon fill="none" stroke="#000000" points="307,-879.2 307,-901.2 507,-901.2 507,-879.2 307,-879.2"/>
<text text-anchor="start" x="336" y="-886.3" font-family="Helvetica,sans-Serif" font-size="11.00" fill="#000000">status_id</text>
<polygon fill="none" stroke="#000000" points="307,-857.2 307,-879.2 507,-879.2 507,-857.2 307,-857.2"/>
<text text-anchor="start" x="336" y="-864.3" font-family="Helvetica,sans-Serif" font-size="11.00" fill="#000000">start</text>
<polygon fill="none" stroke="#000000" points="307,-835.2 307,-857.2 507,-857.2 507,-835.2 307,-835.2"/>
<text text-anchor="start" x="336" y="-842.3" font-family="Helvetica,sans-Serif" font-size="11.00" fill="#000000">end</text>
<polygon fill="none" stroke="#000000" points="307,-813.2 307,-835.2 507,-835.2 507,-813.2 307,-813.2"/>
<text text-anchor="start" x="336" y="-820.3" font-family="Helvetica,sans-Serif" font-size="11.00" fill="#000000">comments</text>
<polygon fill="none" stroke="#000000" points="307,-791.2 307,-813.2 507,-813.2 507,-791.2 307,-791.2"/>
<image xlink:href="../../images/foreignKeys.png" width="11px" height="12px" preserveAspectRatio="xMinYMin meet" x="312" y="-808.2"/>
<text text-anchor="start" x="336" y="-798.3" font-family="Helvetica,sans-Serif" font-size="11.00" fill="#000000">legacy_id</text>
<polygon fill="#ffffff" stroke="transparent" points="307,-772.2 307,-791.2 405,-791.2 405,-772.2 307,-772.2"/>
<polygon fill="none" stroke="#000000" points="307,-772.2 307,-791.2 405,-791.2 405,-772.2 307,-772.2"/>
<text text-anchor="start" x="310" y="-778.3" font-family="Helvetica,sans-Serif" font-size="11.00" fill="#000000">&lt; 1</text>
<polygon fill="#ffffff" stroke="transparent" points="405,-772.2 405,-791.2 456,-791.2 456,-772.2 405,-772.2"/>
<polygon fill="none" stroke="#000000" points="405,-772.2 405,-791.2 456,-791.2 456,-772.2 405,-772.2"/>
<text text-anchor="start" x="446.8862" y="-778.3" font-family="Helvetica,sans-Serif" font-size="11.00" fill="#000000"> &#160;</text>
<polygon fill="#ffffff" stroke="transparent" points="456,-772.2 456,-791.2 507,-791.2 507,-772.2 456,-772.2"/>
<polygon fill="none" stroke="#000000" points="456,-772.2 456,-791.2 507,-791.2 507,-772.2 456,-772.2"/>
<text text-anchor="start" x="497.8862" y="-778.3" font-family="Helvetica,sans-Serif" font-size="11.00" fill="#000000"> &#160;</text>
</a>
</g>
</g>
<!-- audit_revision -->
<g id="node7" class="node">
<title>audit_revision</title>
<g id="a_node7"><a xlink:href="../../tables/audit_revision.html" xlink:title="audit_revision" target="_top">
<polygon fill="#ffffff" stroke="transparent" points="46.5,-597.2 46.5,-793.2 180.5,-793.2 180.5,-597.2 46.5,-597.2"/>
<polygon fill="#f5f5f5" stroke="transparent" points="46.5,-770.2 46.5,-793.2 180.5,-793.2 180.5,-770.2 46.5,-770.2"/>
<polygon fill="none" stroke="#000000" points="46.5,-770.2 46.5,-793.2 180.5,-793.2 180.5,-770.2 46.5,-770.2"/>
<text text-anchor="start" x="51.5" y="-778.8" font-family="Helvetica,sans-Serif" font-weight="bold" font-size="11.00" fill="#000000">audit_revision</text>
<text text-anchor="start" x="146.0219" y="-778.3" font-family="Helvetica,sans-Serif" font-size="11.00" fill="#000000">[table]</text>
<polygon fill="none" stroke="#000000" points="46.5,-748.2 46.5,-770.2 180.5,-770.2 180.5,-748.2 46.5,-748.2"/>
<image xlink:href="../../images/primaryKeys.png" width="11px" height="12px" preserveAspectRatio="xMinYMin meet" x="51.5" y="-765.2"/>
<text text-anchor="start" x="66.5" y="-755.3" font-family="Helvetica,sans-Serif" font-size="11.00" fill="#000000">id</text>
<polygon fill="none" stroke="#000000" points="46.5,-726.2 46.5,-748.2 180.5,-748.2 180.5,-726.2 46.5,-726.2"/>
<text text-anchor="start" x="66.5" y="-733.3" font-family="Helvetica,sans-Serif" font-size="11.00" fill="#000000">timestamp</text>
<polygon fill="none" stroke="#000000" points="46.5,-704.2 46.5,-726.2 180.5,-726.2 180.5,-704.2 46.5,-704.2"/>
<text text-anchor="start" x="66.5" y="-711.3" font-family="Helvetica,sans-Serif" font-size="11.00" fill="#000000">source</text>
<polygon fill="none" stroke="#000000" points="46.5,-682.2 46.5,-704.2 180.5,-704.2 180.5,-682.2 46.5,-682.2"/>
<text text-anchor="start" x="66.5" y="-689.3" font-family="Helvetica,sans-Serif" font-size="11.00" fill="#000000">affected_entities</text>
<polygon fill="none" stroke="#000000" points="46.5,-660.2 46.5,-682.2 180.5,-682.2 180.5,-660.2 46.5,-660.2"/>
<text text-anchor="start" x="66.5" y="-667.3" font-family="Helvetica,sans-Serif" font-size="11.00" fill="#000000">username</text>
<polygon fill="none" stroke="#000000" points="46.5,-638.2 46.5,-660.2 180.5,-660.2 180.5,-638.2 46.5,-638.2"/>
<text text-anchor="start" x="66.5" y="-645.3" font-family="Helvetica,sans-Serif" font-size="11.00" fill="#000000">caseload_id</text>
<polygon fill="none" stroke="#000000" points="46.5,-616.2 46.5,-638.2 180.5,-638.2 180.5,-616.2 46.5,-616.2"/>
<text text-anchor="start" x="66.5" y="-623.3" font-family="Helvetica,sans-Serif" font-size="11.00" fill="#000000">reason</text>
<polygon fill="#ffffff" stroke="transparent" points="46.5,-597.2 46.5,-616.2 102.5,-616.2 102.5,-597.2 46.5,-597.2"/>
<polygon fill="none" stroke="#000000" points="46.5,-597.2 46.5,-616.2 102.5,-616.2 102.5,-597.2 46.5,-597.2"/>
<text text-anchor="start" x="49.5" y="-603.3" font-family="Helvetica,sans-Serif" font-size="11.00" fill="#000000"> &#160;</text>
<polygon fill="#ffffff" stroke="transparent" points="102.5,-597.2 102.5,-616.2 136.5,-616.2 136.5,-597.2 102.5,-597.2"/>
<polygon fill="none" stroke="#000000" points="102.5,-597.2 102.5,-616.2 136.5,-616.2 136.5,-597.2 102.5,-597.2"/>
<text text-anchor="start" x="127.3862" y="-603.3" font-family="Helvetica,sans-Serif" font-size="11.00" fill="#000000"> &#160;</text>
<polygon fill="#ffffff" stroke="transparent" points="136.5,-597.2 136.5,-616.2 180.5,-616.2 180.5,-597.2 136.5,-597.2"/>
<polygon fill="none" stroke="#000000" points="136.5,-597.2 136.5,-616.2 180.5,-616.2 180.5,-597.2 136.5,-597.2"/>
<text text-anchor="start" x="161.9053" y="-603.3" font-family="Helvetica,sans-Serif" font-size="11.00" fill="#000000">2 &gt;</text>
</a>
</g>
</g>
<!-- court_appearance_audit&#45;&gt;audit_revision -->
<g id="edge5" class="edge">
<title>court_appearance_audit:w&#45;&gt;audit_revision:e</title>
<path fill="none" stroke="#000000" stroke-dasharray="5,2" d="M292.4694,-801.2619C245.8595,-794.9736 234.6625,-759.2 180.5,-759.2"/>
<polygon fill="#000000" stroke="#000000" points="299.0166,-801.6845 306.768,-805.7925 303.0083,-801.9423 307,-802.2 307,-802.2 307,-802.2 303.0083,-801.9423 307.232,-798.6075 299.0166,-801.6845 299.0166,-801.6845"/>
<ellipse fill="none" stroke="#000000" cx="295.8233" cy="-801.4783" rx="3.2" ry="3.2"/>
</g>
<!-- court_appearance_audit&#45;&gt;audit_revision -->
<g id="edge7" class="edge">
<title>court_appearance_audit:w&#45;&gt;audit_revision:e</title>
<path fill="none" stroke="#000000" d="M292.5062,-1087.136C162.3687,-1066.715 331.9569,-759.2 180.5,-759.2"/>
<polygon fill="#000000" stroke="#000000" points="299.0215,-1087.6142 306.7364,-1091.7903 303.0107,-1087.9071 307,-1088.2 307,-1088.2 307,-1088.2 303.0107,-1087.9071 307.2636,-1084.6097 299.0215,-1087.6142 299.0215,-1087.6142"/>
<ellipse fill="none" stroke="#000000" cx="295.8301" cy="-1087.3799" rx="3.2" ry="3.2"/>
</g>
<!-- person_summary -->
<g id="node8" class="node">
<title>person_summary</title>
<g id="a_node8"><a xlink:href="../../tables/person_summary.html" xlink:title="person_summary" target="_top">
<polygon fill="#ffffff" stroke="transparent" points="36.5,-396.2 36.5,-570.2 190.5,-570.2 190.5,-396.2 36.5,-396.2"/>
<polygon fill="#f5f5f5" stroke="transparent" points="36.5,-547.2 36.5,-570.2 190.5,-570.2 190.5,-547.2 36.5,-547.2"/>
<polygon fill="none" stroke="#000000" points="36.5,-547.2 36.5,-570.2 190.5,-570.2 190.5,-547.2 36.5,-547.2"/>
<text text-anchor="start" x="41.5" y="-555.8" font-family="Helvetica,sans-Serif" font-weight="bold" font-size="11.00" fill="#000000">person_summary</text>
<text text-anchor="start" x="156.0219" y="-555.3" font-family="Helvetica,sans-Serif" font-size="11.00" fill="#000000">[table]</text>
<polygon fill="none" stroke="#000000" points="36.5,-525.2 36.5,-547.2 190.5,-547.2 190.5,-525.2 36.5,-525.2"/>
<image xlink:href="../../images/primaryKeys.png" width="11px" height="12px" preserveAspectRatio="xMinYMin meet" x="41.5" y="-542.2"/>
<text text-anchor="start" x="65.5" y="-532.3" font-family="Helvetica,sans-Serif" font-size="11.00" fill="#000000">person_identifier</text>
<polygon fill="none" stroke="#000000" points="36.5,-503.2 36.5,-525.2 190.5,-525.2 190.5,-503.2 36.5,-503.2"/>
<text text-anchor="start" x="65.5" y="-510.3" font-family="Helvetica,sans-Serif" font-size="11.00" fill="#000000">version</text>
<polygon fill="none" stroke="#000000" points="36.5,-481.2 36.5,-503.2 190.5,-503.2 190.5,-481.2 36.5,-481.2"/>
<text text-anchor="start" x="65.5" y="-488.3" font-family="Helvetica,sans-Serif" font-size="11.00" fill="#000000">first_name</text>
<polygon fill="none" stroke="#000000" points="36.5,-459.2 36.5,-481.2 190.5,-481.2 190.5,-459.2 36.5,-459.2"/>
<text text-anchor="start" x="65.5" y="-466.3" font-family="Helvetica,sans-Serif" font-size="11.00" fill="#000000">last_name</text>
<polygon fill="none" stroke="#000000" points="36.5,-437.2 36.5,-459.2 190.5,-459.2 190.5,-437.2 36.5,-437.2"/>
<text text-anchor="start" x="65.5" y="-444.3" font-family="Helvetica,sans-Serif" font-size="11.00" fill="#000000">prison_code</text>
<polygon fill="none" stroke="#000000" points="36.5,-415.2 36.5,-437.2 190.5,-437.2 190.5,-415.2 36.5,-415.2"/>
<text text-anchor="start" x="65.5" y="-422.3" font-family="Helvetica,sans-Serif" font-size="11.00" fill="#000000">cell_location</text>
<polygon fill="#ffffff" stroke="transparent" points="36.5,-396.2 36.5,-415.2 102.5,-415.2 102.5,-396.2 36.5,-396.2"/>
<polygon fill="none" stroke="#000000" points="36.5,-396.2 36.5,-415.2 102.5,-415.2 102.5,-396.2 36.5,-396.2"/>
<text text-anchor="start" x="39.5" y="-402.3" font-family="Helvetica,sans-Serif" font-size="11.00" fill="#000000"> &#160;</text>
<polygon fill="#ffffff" stroke="transparent" points="102.5,-396.2 102.5,-415.2 141.5,-415.2 141.5,-396.2 102.5,-396.2"/>
<polygon fill="none" stroke="#000000" points="102.5,-396.2 102.5,-415.2 141.5,-415.2 141.5,-396.2 102.5,-396.2"/>
<text text-anchor="start" x="132.3862" y="-402.3" font-family="Helvetica,sans-Serif" font-size="11.00" fill="#000000"> &#160;</text>
<polygon fill="#ffffff" stroke="transparent" points="141.5,-396.2 141.5,-415.2 190.5,-415.2 190.5,-396.2 141.5,-396.2"/>
<polygon fill="none" stroke="#000000" points="141.5,-396.2 141.5,-415.2 190.5,-415.2 190.5,-396.2 141.5,-396.2"/>
<text text-anchor="start" x="171.9053" y="-402.3" font-family="Helvetica,sans-Serif" font-size="11.00" fill="#000000">2 &gt;</text>
</a>
</g>
</g>
<!-- court_appearance_audit&#45;&gt;person_summary -->
<g id="edge6" class="edge">
<title>court_appearance_audit:w&#45;&gt;person_summary:e</title>
<path fill="none" stroke="#000000" stroke-dasharray="5,2" d="M292.8278,-996.9892C209.5929,-955.9938 291.6205,-536.2 190.5,-536.2"/>
<polygon fill="#000000" stroke="#000000" points="299.1977,-998.4323 306.2045,-1003.711 303.0989,-999.3162 307,-1000.2 307,-1000.2 307,-1000.2 303.0989,-999.3162 307.7955,-996.689 299.1977,-998.4323 299.1977,-998.4323"/>
<ellipse fill="none" stroke="#000000" cx="296.0768" cy="-997.7253" rx="3.2" ry="3.2"/>
</g>
<!-- court_appearance -->
<g id="node2" class="node">
<title>court_appearance</title>
<g id="a_node2"><a xlink:href="../../tables/court_appearance.html" xlink:title="court_appearance" target="_top">
<polygon fill="#ffffff" stroke="transparent" points="327.5,-118.2 327.5,-424.2 486.5,-424.2 486.5,-118.2 327.5,-118.2"/>
<polygon fill="#f5f5f5" stroke="transparent" points="328,-401.2 328,-424.2 487,-424.2 487,-401.2 328,-401.2"/>
<polygon fill="none" stroke="#000000" points="328,-401.2 328,-424.2 487,-424.2 487,-401.2 328,-401.2"/>
<text text-anchor="start" x="333" y="-409.8" font-family="Helvetica,sans-Serif" font-weight="bold" font-size="11.00" fill="#000000">court_appearance</text>
<text text-anchor="start" x="452.5219" y="-409.3" font-family="Helvetica,sans-Serif" font-size="11.00" fill="#000000">[table]</text>
<polygon fill="none" stroke="#000000" points="328,-379.2 328,-401.2 487,-401.2 487,-379.2 328,-379.2"/>
<image xlink:href="../../images/primaryKeys.png" width="11px" height="12px" preserveAspectRatio="xMinYMin meet" x="333" y="-396.2"/>
<text text-anchor="start" x="357" y="-386.3" font-family="Helvetica,sans-Serif" font-size="11.00" fill="#000000">id</text>
<polygon fill="none" stroke="#000000" points="328,-357.2 328,-379.2 487,-379.2 487,-357.2 328,-357.2"/>
<text text-anchor="start" x="357" y="-364.3" font-family="Helvetica,sans-Serif" font-size="11.00" fill="#000000">version</text>
<polygon fill="#ffffff" stroke="transparent" points="328,-335.2 328,-357.2 487,-357.2 487,-335.2 328,-335.2"/>
<polygon fill="none" stroke="#000000" points="328,-335.2 328,-357.2 487,-357.2 487,-335.2 328,-335.2"/>
<image xlink:href="../../images/foreignKeys.png" width="11px" height="12px" preserveAspectRatio="xMinYMin meet" x="333" y="-352.2"/>
<text text-anchor="start" x="357" y="-342.3" font-family="Helvetica,sans-Serif" font-size="11.00" fill="#000000">person_identifier</text>
<polygon fill="#ffffff" stroke="transparent" points="328,-313.2 328,-335.2 487,-335.2 487,-313.2 328,-313.2"/>
<polygon fill="none" stroke="#000000" points="328,-313.2 328,-335.2 487,-335.2 487,-313.2 328,-313.2"/>
<text text-anchor="start" x="357" y="-320.3" font-family="Helvetica,sans-Serif" font-size="11.00" fill="#000000">prison_code</text>
<polygon fill="none" stroke="#000000" points="328,-291.2 328,-313.2 487,-313.2 487,-291.2 328,-291.2"/>
<text text-anchor="start" x="357" y="-298.3" font-family="Helvetica,sans-Serif" font-size="11.00" fill="#000000">court_code</text>
<polygon fill="#ffffff" stroke="transparent" points="328,-269.2 328,-291.2 487,-291.2 487,-269.2 328,-269.2"/>
<polygon fill="none" stroke="#000000" points="328,-269.2 328,-291.2 487,-291.2 487,-269.2 328,-269.2"/>
<image xlink:href="../../images/foreignKeys.png" width="11px" height="12px" preserveAspectRatio="xMinYMin meet" x="333" y="-286.2"/>
<text text-anchor="start" x="357" y="-276.3" font-family="Helvetica,sans-Serif" font-size="11.00" fill="#000000">reason_id</text>
<polygon fill="none" stroke="#000000" points="328,-247.2 328,-269.2 487,-269.2 487,-247.2 328,-247.2"/>
<text text-anchor="start" x="357" y="-254.3" font-family="Helvetica,sans-Serif" font-size="11.00" fill="#000000">external</text>
<polygon fill="#ffffff" stroke="transparent" points="328,-225.2 328,-247.2 487,-247.2 487,-225.2 328,-225.2"/>
<polygon fill="none" stroke="#000000" points="328,-225.2 328,-247.2 487,-247.2 487,-225.2 328,-225.2"/>
<image xlink:href="../../images/foreignKeys.png" width="11px" height="12px" preserveAspectRatio="xMinYMin meet" x="333" y="-242.2"/>
<text text-anchor="start" x="357" y="-232.3" font-family="Helvetica,sans-Serif" font-size="11.00" fill="#000000">status_id</text>
<polygon fill="#ffffff" stroke="transparent" points="328,-203.2 328,-225.2 487,-225.2 487,-203.2 328,-203.2"/>
<polygon fill="none" stroke="#000000" points="328,-203.2 328,-225.2 487,-225.2 487,-203.2 328,-203.2"/>
<text text-anchor="start" x="357" y="-210.3" font-family="Helvetica,sans-Serif" font-size="11.00" fill="#000000">start</text>
<polygon fill="none" stroke="#000000" points="328,-181.2 328,-203.2 487,-203.2 487,-181.2 328,-181.2"/>
<text text-anchor="start" x="357" y="-188.3" font-family="Helvetica,sans-Serif" font-size="11.00" fill="#000000">end</text>
<polygon fill="none" stroke="#000000" points="328,-159.2 328,-181.2 487,-181.2 487,-159.2 328,-159.2"/>
<text text-anchor="start" x="357" y="-166.3" font-family="Helvetica,sans-Serif" font-size="11.00" fill="#000000">comments</text>
<polygon fill="#ffffff" stroke="transparent" points="328,-137.2 328,-159.2 487,-159.2 487,-137.2 328,-137.2"/>
<polygon fill="none" stroke="#000000" points="328,-137.2 328,-159.2 487,-159.2 487,-137.2 328,-137.2"/>
<image xlink:href="../../images/foreignKeys.png" width="11px" height="12px" preserveAspectRatio="xMinYMin meet" x="333" y="-154.2"/>
<text text-anchor="start" x="357" y="-144.3" font-family="Helvetica,sans-Serif" font-size="11.00" fill="#000000">legacy_id</text>
<polygon fill="#ffffff" stroke="transparent" points="328,-118.2 328,-137.2 401,-137.2 401,-118.2 328,-118.2"/>
<polygon fill="none" stroke="#000000" points="328,-118.2 328,-137.2 401,-137.2 401,-118.2 328,-118.2"/>
<text text-anchor="start" x="331" y="-124.3" font-family="Helvetica,sans-Serif" font-size="11.00" fill="#000000">&lt; 3</text>
<polygon fill="#ffffff" stroke="transparent" points="401,-118.2 401,-137.2 439,-137.2 439,-118.2 401,-118.2"/>
<polygon fill="none" stroke="#000000" points="401,-118.2 401,-137.2 439,-137.2 439,-118.2 401,-118.2"/>
<text text-anchor="start" x="429.8862" y="-124.3" font-family="Helvetica,sans-Serif" font-size="11.00" fill="#000000"> &#160;</text>
<polygon fill="#ffffff" stroke="transparent" points="439,-118.2 439,-137.2 487,-137.2 487,-118.2 439,-118.2"/>
<polygon fill="none" stroke="#000000" points="439,-118.2 439,-137.2 487,-137.2 487,-118.2 439,-118.2"/>
<text text-anchor="start" x="468.4053" y="-124.3" font-family="Helvetica,sans-Serif" font-size="11.00" fill="#000000">1 &gt;</text>
</a>
</g>
</g>
<!-- court_appearance_reason -->
<g id="node3" class="node">
<title>court_appearance_reason</title>
<g id="a_node3"><a xlink:href="../../tables/court_appearance_reason.html" xlink:title="court_appearance_reason" target="_top">
<polygon fill="#ffffff" stroke="transparent" points="8,-189.2 8,-363.2 219,-363.2 219,-189.2 8,-189.2"/>
<polygon fill="#f5f5f5" stroke="transparent" points="8.5,-340.2 8.5,-363.2 219.5,-363.2 219.5,-340.2 8.5,-340.2"/>
<polygon fill="none" stroke="#000000" points="8.5,-340.2 8.5,-363.2 219.5,-363.2 219.5,-340.2 8.5,-340.2"/>
<text text-anchor="start" x="13.5" y="-348.8" font-family="Helvetica,sans-Serif" font-weight="bold" font-size="11.00" fill="#000000">court_appearance_reason</text>
<text text-anchor="start" x="185.0219" y="-348.3" font-family="Helvetica,sans-Serif" font-size="11.00" fill="#000000">[table]</text>
<polygon fill="none" stroke="#000000" points="8.5,-318.2 8.5,-340.2 219.5,-340.2 219.5,-318.2 8.5,-318.2"/>
<image xlink:href="../../images/primaryKeys.png" width="11px" height="12px" preserveAspectRatio="xMinYMin meet" x="13.5" y="-335.2"/>
<text text-anchor="start" x="37.5" y="-325.3" font-family="Helvetica,sans-Serif" font-size="11.00" fill="#000000">id</text>
<polygon fill="#ffffff" stroke="transparent" points="8.5,-296.2 8.5,-318.2 219.5,-318.2 219.5,-296.2 8.5,-296.2"/>
<polygon fill="none" stroke="#000000" points="8.5,-296.2 8.5,-318.2 219.5,-318.2 219.5,-296.2 8.5,-296.2"/>
<text text-anchor="start" x="37.5" y="-303.3" font-family="Helvetica,sans-Serif" font-size="11.00" fill="#000000">code</text>
<polygon fill="none" stroke="#000000" points="8.5,-274.2 8.5,-296.2 219.5,-296.2 219.5,-274.2 8.5,-274.2"/>
<text text-anchor="start" x="37.5" y="-281.3" font-family="Helvetica,sans-Serif" font-size="11.00" fill="#000000">description</text>
<polygon fill="#ffffff" stroke="transparent" points="8.5,-252.2 8.5,-274.2 219.5,-274.2 219.5,-252.2 8.5,-252.2"/>
<polygon fill="none" stroke="#000000" points="8.5,-252.2 8.5,-274.2 219.5,-274.2 219.5,-252.2 8.5,-252.2"/>
<text text-anchor="start" x="37.5" y="-259.3" font-family="Helvetica,sans-Serif" font-size="11.00" fill="#000000">sequence_number</text>
<polygon fill="none" stroke="#000000" points="8.5,-230.2 8.5,-252.2 219.5,-252.2 219.5,-230.2 8.5,-230.2"/>
<text text-anchor="start" x="37.5" y="-237.3" font-family="Helvetica,sans-Serif" font-size="11.00" fill="#000000">active</text>
<polygon fill="none" stroke="#000000" points="8.5,-208.2 8.5,-230.2 219.5,-230.2 219.5,-208.2 8.5,-208.2"/>
<text text-anchor="start" x="37.5" y="-215.3" font-family="Helvetica,sans-Serif" font-size="11.00" fill="#000000">external</text>
<polygon fill="#ffffff" stroke="transparent" points="8.5,-189.2 8.5,-208.2 103.5,-208.2 103.5,-189.2 8.5,-189.2"/>
<polygon fill="none" stroke="#000000" points="8.5,-189.2 8.5,-208.2 103.5,-208.2 103.5,-189.2 8.5,-189.2"/>
<text text-anchor="start" x="11.5" y="-195.3" font-family="Helvetica,sans-Serif" font-size="11.00" fill="#000000"> &#160;</text>
<polygon fill="#ffffff" stroke="transparent" points="103.5,-189.2 103.5,-208.2 156.5,-208.2 156.5,-189.2 103.5,-189.2"/>
<polygon fill="none" stroke="#000000" points="103.5,-189.2 103.5,-208.2 156.5,-208.2 156.5,-189.2 103.5,-189.2"/>
<text text-anchor="start" x="147.3862" y="-195.3" font-family="Helvetica,sans-Serif" font-size="11.00" fill="#000000"> &#160;</text>
<polygon fill="#ffffff" stroke="transparent" points="156.5,-189.2 156.5,-208.2 219.5,-208.2 219.5,-189.2 156.5,-189.2"/>
<polygon fill="none" stroke="#000000" points="156.5,-189.2 156.5,-208.2 219.5,-208.2 219.5,-189.2 156.5,-189.2"/>
<text text-anchor="start" x="200.9053" y="-195.3" font-family="Helvetica,sans-Serif" font-size="11.00" fill="#000000">1 &gt;</text>
</a>
</g>
</g>
<!-- court_appearance&#45;&gt;court_appearance_reason -->
<g id="edge3" class="edge">
<title>court_appearance:w&#45;&gt;court_appearance_reason:e</title>
<path fill="none" stroke="#000000" d="M313.5845,-281.5617C274.0566,-289.4755 267.1413,-329.2 219.5,-329.2"/>
<polygon fill="#000000" stroke="#000000" points="320.0355,-280.9524 328.3386,-283.784 324.0177,-280.5762 328,-280.2 328,-280.2 328,-280.2 324.0177,-280.5762 327.6614,-276.616 320.0355,-280.9524 320.0355,-280.9524"/>
<ellipse fill="none" stroke="#000000" cx="316.8496" cy="-281.2533" rx="3.2" ry="3.2"/>
</g>
<!-- court_appearance_status -->
<g id="node5" class="node">
<title>court_appearance_status</title>
<g id="a_node5"><a xlink:href="../../tables/court_appearance_status.html" xlink:title="court_appearance_status" target="_top">
<polygon fill="#ffffff" stroke="transparent" points="9.5,-38.2 9.5,-168.2 217.5,-168.2 217.5,-38.2 9.5,-38.2"/>
<polygon fill="#f5f5f5" stroke="transparent" points="9.5,-145.2 9.5,-168.2 217.5,-168.2 217.5,-145.2 9.5,-145.2"/>
<polygon fill="none" stroke="#000000" points="9.5,-145.2 9.5,-168.2 217.5,-168.2 217.5,-145.2 9.5,-145.2"/>
<text text-anchor="start" x="14.5" y="-153.8" font-family="Helvetica,sans-Serif" font-weight="bold" font-size="11.00" fill="#000000">court_appearance_status</text>
<text text-anchor="start" x="183.0219" y="-153.3" font-family="Helvetica,sans-Serif" font-size="11.00" fill="#000000">[table]</text>
<polygon fill="none" stroke="#000000" points="9.5,-123.2 9.5,-145.2 217.5,-145.2 217.5,-123.2 9.5,-123.2"/>
<image xlink:href="../../images/primaryKeys.png" width="11px" height="12px" preserveAspectRatio="xMinYMin meet" x="14.5" y="-140.2"/>
<text text-anchor="start" x="38.5" y="-130.3" font-family="Helvetica,sans-Serif" font-size="11.00" fill="#000000">id</text>
<polygon fill="#ffffff" stroke="transparent" points="9.5,-101.2 9.5,-123.2 217.5,-123.2 217.5,-101.2 9.5,-101.2"/>
<polygon fill="none" stroke="#000000" points="9.5,-101.2 9.5,-123.2 217.5,-123.2 217.5,-101.2 9.5,-101.2"/>
<text text-anchor="start" x="38.5" y="-108.3" font-family="Helvetica,sans-Serif" font-size="11.00" fill="#000000">code</text>
<polygon fill="none" stroke="#000000" points="9.5,-79.2 9.5,-101.2 217.5,-101.2 217.5,-79.2 9.5,-79.2"/>
<text text-anchor="start" x="38.5" y="-86.3" font-family="Helvetica,sans-Serif" font-size="11.00" fill="#000000">description</text>
<polygon fill="#ffffff" stroke="transparent" points="9.5,-57.2 9.5,-79.2 217.5,-79.2 217.5,-57.2 9.5,-57.2"/>
<polygon fill="none" stroke="#000000" points="9.5,-57.2 9.5,-79.2 217.5,-79.2 217.5,-57.2 9.5,-57.2"/>
<text text-anchor="start" x="38.5" y="-64.3" font-family="Helvetica,sans-Serif" font-size="11.00" fill="#000000">sequence_number</text>
<polygon fill="#ffffff" stroke="transparent" points="9.5,-38.2 9.5,-57.2 102.5,-57.2 102.5,-38.2 9.5,-38.2"/>
<polygon fill="none" stroke="#000000" points="9.5,-38.2 9.5,-57.2 102.5,-57.2 102.5,-38.2 9.5,-38.2"/>
<text text-anchor="start" x="12.5" y="-44.3" font-family="Helvetica,sans-Serif" font-size="11.00" fill="#000000"> &#160;</text>
<polygon fill="#ffffff" stroke="transparent" points="102.5,-38.2 102.5,-57.2 155.5,-57.2 155.5,-38.2 102.5,-38.2"/>
<polygon fill="none" stroke="#000000" points="102.5,-38.2 102.5,-57.2 155.5,-57.2 155.5,-38.2 102.5,-38.2"/>
<text text-anchor="start" x="146.3862" y="-44.3" font-family="Helvetica,sans-Serif" font-size="11.00" fill="#000000"> &#160;</text>
<polygon fill="#ffffff" stroke="transparent" points="155.5,-38.2 155.5,-57.2 217.5,-57.2 217.5,-38.2 155.5,-38.2"/>
<polygon fill="none" stroke="#000000" points="155.5,-38.2 155.5,-57.2 217.5,-57.2 217.5,-38.2 155.5,-38.2"/>
<text text-anchor="start" x="198.9053" y="-44.3" font-family="Helvetica,sans-Serif" font-size="11.00" fill="#000000">1 &gt;</text>
</a>
</g>
</g>
<!-- court_appearance&#45;&gt;court_appearance_status -->
<g id="edge4" class="edge">
<title>court_appearance:w&#45;&gt;court_appearance_status:e</title>
<path fill="none" stroke="#000000" d="M313.5828,-234.3425C264.2982,-220.5181 278.9836,-134.2 217.5,-134.2"/>
<polygon fill="#000000" stroke="#000000" points="320.0656,-235.1777 327.54,-239.7705 324.0328,-235.6889 328,-236.2 328,-236.2 328,-236.2 324.0328,-235.6889 328.46,-232.6295 320.0656,-235.1777 320.0656,-235.1777"/>
<ellipse fill="none" stroke="#000000" cx="316.8918" cy="-234.7688" rx="3.2" ry="3.2"/>
</g>
<!-- court_appearance&#45;&gt;audit_revision -->
<g id="edge1" class="edge">
<title>court_appearance:w&#45;&gt;audit_revision:e</title>
<path fill="none" stroke="#000000" stroke-dasharray="5,2" d="M317.5076,-149.452C195.0864,-179.9959 316.4952,-759.2 180.5,-759.2"/>
<polygon fill="#000000" stroke="#000000" points="326.7317,-144.323 327.6796,-152.2666 326.0909,-152.4562 325.143,-144.5125 326.7317,-144.323"/>
<polyline fill="none" stroke="#000000" points="328,-148.2 324.0282,-148.674 "/>
<ellipse fill="none" stroke="#000000" cx="320.8507" cy="-149.0531" rx="3.2" ry="3.2"/>
</g>
<!-- court_appearance&#45;&gt;person_summary -->
<g id="edge2" class="edge">
<title>court_appearance:w&#45;&gt;person_summary:e</title>
<path fill="none" stroke="#000000" d="M313.276,-347.992C280.1982,-357.1269 285.9184,-399.47 260,-435.2 228.0048,-479.3072 244.9898,-536.2 190.5,-536.2"/>
<polygon fill="#000000" stroke="#000000" points="320.0586,-347.1666 328.435,-349.7736 324.0293,-346.6833 328,-346.2 328,-346.2 328,-346.2 324.0293,-346.6833 327.565,-342.6264 320.0586,-347.1666 320.0586,-347.1666"/>
<ellipse fill="none" stroke="#000000" cx="316.882" cy="-347.5532" rx="3.2" ry="3.2"/>
</g>
<!-- court_appearance_movement -->
<g id="node4" class="node">
<title>court_appearance_movement</title>
<g id="a_node4"><a xlink:href="../../tables/court_appearance_movement.html" xlink:title="court_appearance_movement" target="_top">
<polygon fill="#ffffff" stroke="transparent" points="595,-69.2 595,-331.2 832,-331.2 832,-69.2 595,-69.2"/>
<polygon fill="#f5f5f5" stroke="transparent" points="595.5,-308.2 595.5,-331.2 832.5,-331.2 832.5,-308.2 595.5,-308.2"/>
<polygon fill="none" stroke="#000000" points="595.5,-308.2 595.5,-331.2 832.5,-331.2 832.5,-308.2 595.5,-308.2"/>
<text text-anchor="start" x="600.5" y="-316.8" font-family="Helvetica,sans-Serif" font-weight="bold" font-size="11.00" fill="#000000">court_appearance_movement</text>
<text text-anchor="start" x="798.0219" y="-316.3" font-family="Helvetica,sans-Serif" font-size="11.00" fill="#000000">[table]</text>
<polygon fill="none" stroke="#000000" points="595.5,-286.2 595.5,-308.2 832.5,-308.2 832.5,-286.2 595.5,-286.2"/>
<image xlink:href="../../images/primaryKeys.png" width="11px" height="12px" preserveAspectRatio="xMinYMin meet" x="600.5" y="-303.2"/>
<text text-anchor="start" x="624.5" y="-293.3" font-family="Helvetica,sans-Serif" font-size="11.00" fill="#000000">id</text>
<polygon fill="none" stroke="#000000" points="595.5,-264.2 595.5,-286.2 832.5,-286.2 832.5,-264.2 595.5,-264.2"/>
<text text-anchor="start" x="624.5" y="-271.3" font-family="Helvetica,sans-Serif" font-size="11.00" fill="#000000">version</text>
<polygon fill="none" stroke="#000000" points="595.5,-242.2 595.5,-264.2 832.5,-264.2 832.5,-242.2 595.5,-242.2"/>
<image xlink:href="../../images/foreignKeys.png" width="11px" height="12px" preserveAspectRatio="xMinYMin meet" x="600.5" y="-259.2"/>
<text text-anchor="start" x="624.5" y="-249.3" font-family="Helvetica,sans-Serif" font-size="11.00" fill="#000000">court_appearance_id</text>
<polygon fill="#ffffff" stroke="transparent" points="595.5,-220.2 595.5,-242.2 832.5,-242.2 832.5,-220.2 595.5,-220.2"/>
<polygon fill="none" stroke="#000000" points="595.5,-220.2 595.5,-242.2 832.5,-242.2 832.5,-220.2 595.5,-220.2"/>
<image xlink:href="../../images/foreignKeys.png" width="11px" height="12px" preserveAspectRatio="xMinYMin meet" x="600.5" y="-237.2"/>
<text text-anchor="start" x="624.5" y="-227.3" font-family="Helvetica,sans-Serif" font-size="11.00" fill="#000000">person_identifier</text>
<polygon fill="none" stroke="#000000" points="595.5,-198.2 595.5,-220.2 832.5,-220.2 832.5,-198.2 595.5,-198.2"/>
<text text-anchor="start" x="624.5" y="-205.3" font-family="Helvetica,sans-Serif" font-size="11.00" fill="#000000">prison_code</text>
<polygon fill="none" stroke="#000000" points="595.5,-176.2 595.5,-198.2 832.5,-198.2 832.5,-176.2 595.5,-176.2"/>
<text text-anchor="start" x="624.5" y="-183.3" font-family="Helvetica,sans-Serif" font-size="11.00" fill="#000000">court_code</text>
<polygon fill="none" stroke="#000000" points="595.5,-154.2 595.5,-176.2 832.5,-176.2 832.5,-154.2 595.5,-154.2"/>
<text text-anchor="start" x="624.5" y="-161.3" font-family="Helvetica,sans-Serif" font-size="11.00" fill="#000000">direction</text>
<polygon fill="none" stroke="#000000" points="595.5,-132.2 595.5,-154.2 832.5,-154.2 832.5,-132.2 595.5,-132.2"/>
<text text-anchor="start" x="624.5" y="-139.3" font-family="Helvetica,sans-Serif" font-size="11.00" fill="#000000">occurred_at</text>
<polygon fill="none" stroke="#000000" points="595.5,-110.2 595.5,-132.2 832.5,-132.2 832.5,-110.2 595.5,-110.2"/>
<text text-anchor="start" x="624.5" y="-117.3" font-family="Helvetica,sans-Serif" font-size="11.00" fill="#000000">comments</text>
<polygon fill="#ffffff" stroke="transparent" points="595.5,-88.2 595.5,-110.2 832.5,-110.2 832.5,-88.2 595.5,-88.2"/>
<polygon fill="none" stroke="#000000" points="595.5,-88.2 595.5,-110.2 832.5,-110.2 832.5,-88.2 595.5,-88.2"/>
<text text-anchor="start" x="624.5" y="-95.3" font-family="Helvetica,sans-Serif" font-size="11.00" fill="#000000">legacy_id</text>
<polygon fill="#ffffff" stroke="transparent" points="595.5,-69.2 595.5,-88.2 712.5,-88.2 712.5,-69.2 595.5,-69.2"/>
<polygon fill="none" stroke="#000000" points="595.5,-69.2 595.5,-88.2 712.5,-88.2 712.5,-69.2 595.5,-69.2"/>
<text text-anchor="start" x="598.5" y="-75.3" font-family="Helvetica,sans-Serif" font-size="11.00" fill="#000000">&lt; 2</text>
<polygon fill="#ffffff" stroke="transparent" points="712.5,-69.2 712.5,-88.2 772.5,-88.2 772.5,-69.2 712.5,-69.2"/>
<polygon fill="none" stroke="#000000" points="712.5,-69.2 712.5,-88.2 772.5,-88.2 772.5,-69.2 712.5,-69.2"/>
<text text-anchor="start" x="763.3862" y="-75.3" font-family="Helvetica,sans-Serif" font-size="11.00" fill="#000000"> &#160;</text>
<polygon fill="#ffffff" stroke="transparent" points="772.5,-69.2 772.5,-88.2 832.5,-88.2 832.5,-69.2 772.5,-69.2"/>
<polygon fill="none" stroke="#000000" points="772.5,-69.2 772.5,-88.2 832.5,-88.2 832.5,-69.2 772.5,-69.2"/>
<text text-anchor="start" x="823.3862" y="-75.3" font-family="Helvetica,sans-Serif" font-size="11.00" fill="#000000"> &#160;</text>
</a>
</g>
</g>
<!-- court_appearance_movement&#45;&gt;court_appearance -->
<g id="edge8" class="edge">
<title>court_appearance_movement:w&#45;&gt;court_appearance:e</title>
<path fill="none" stroke="#000000" d="M580.8764,-255.1367C523.8003,-271.7883 559.2101,-390.2 487,-390.2"/>
<polygon fill="#000000" stroke="#000000" points="587.5692,-254.2504 595.9727,-256.7688 591.5346,-253.7252 595.5,-253.2 595.5,-253.2 595.5,-253.2 591.5346,-253.7252 595.0273,-249.6312 587.5692,-254.2504 587.5692,-254.2504"/>
<ellipse fill="none" stroke="#000000" cx="584.3969" cy="-254.6705" rx="3.2" ry="3.2"/>
</g>
<!-- court_appearance_movement&#45;&gt;person_summary -->
<g id="edge9" class="edge">
<title>court_appearance_movement:w&#45;&gt;person_summary:e</title>
<path fill="none" stroke="#000000" d="M581.3211,-228.5666C549.1956,-213.4877 596.3761,-137.704 554,-107.2 447.9515,-30.862 357.8981,-20.6567 260,-107.2 187.6431,-171.1645 287.0763,-536.2 190.5,-536.2"/>
<polygon fill="#000000" stroke="#000000" points="587.6345,-229.7391 594.8426,-234.7395 591.5673,-230.4696 595.5,-231.2 595.5,-231.2 595.5,-231.2 591.5673,-230.4696 596.1574,-227.6605 587.6345,-229.7391 587.6345,-229.7391"/>
<ellipse fill="none" stroke="#000000" cx="584.4883" cy="-229.1548" rx="3.2" ry="3.2"/>
</g>
<!-- court_appearance_movement_audit -->
<g id="node6" class="node">
<title>court_appearance_movement_audit</title>
<g id="a_node6"><a xlink:href="../../tables/court_appearance_movement_audit.html" xlink:title="court_appearance_movement_audit" target="_top">
<polygon fill="#ffffff" stroke="transparent" points="268,-445.2 268,-751.2 546,-751.2 546,-445.2 268,-445.2"/>
<polygon fill="#f5f5f5" stroke="transparent" points="268,-728.2 268,-751.2 546,-751.2 546,-728.2 268,-728.2"/>
<polygon fill="none" stroke="#000000" points="268,-728.2 268,-751.2 546,-751.2 546,-728.2 268,-728.2"/>
<text text-anchor="start" x="273" y="-736.8" font-family="Helvetica,sans-Serif" font-weight="bold" font-size="11.00" fill="#000000">court_appearance_movement_audit</text>
<text text-anchor="start" x="511.5219" y="-736.3" font-family="Helvetica,sans-Serif" font-size="11.00" fill="#000000">[table]</text>
<polygon fill="none" stroke="#000000" points="268,-706.2 268,-728.2 546,-728.2 546,-706.2 268,-706.2"/>
<image xlink:href="../../images/primaryKeys.png" width="11px" height="12px" preserveAspectRatio="xMinYMin meet" x="273" y="-723.2"/>
<text text-anchor="start" x="297" y="-713.3" font-family="Helvetica,sans-Serif" font-size="11.00" fill="#000000">rev_id</text>
<polygon fill="none" stroke="#000000" points="268,-684.2 268,-706.2 546,-706.2 546,-684.2 268,-684.2"/>
<text text-anchor="start" x="297" y="-691.3" font-family="Helvetica,sans-Serif" font-size="11.00" fill="#000000">rev_type</text>
<polygon fill="none" stroke="#000000" points="268,-662.2 268,-684.2 546,-684.2 546,-662.2 268,-662.2"/>
<image xlink:href="../../images/primaryKeys.png" width="11px" height="12px" preserveAspectRatio="xMinYMin meet" x="273" y="-679.2"/>
<text text-anchor="start" x="297" y="-669.3" font-family="Helvetica,sans-Serif" font-size="11.00" fill="#000000">id</text>
<polygon fill="none" stroke="#000000" points="268,-640.2 268,-662.2 546,-662.2 546,-640.2 268,-640.2"/>
<text text-anchor="start" x="297" y="-647.3" font-family="Helvetica,sans-Serif" font-size="11.00" fill="#000000">version</text>
<polygon fill="none" stroke="#000000" points="268,-618.2 268,-640.2 546,-640.2 546,-618.2 268,-618.2"/>
<text text-anchor="start" x="297" y="-625.3" font-family="Helvetica,sans-Serif" font-size="11.00" fill="#000000">court_appearance_id</text>
<polygon fill="none" stroke="#000000" points="268,-596.2 268,-618.2 546,-618.2 546,-596.2 268,-596.2"/>
<image xlink:href="../../images/foreignKeys.png" width="11px" height="12px" preserveAspectRatio="xMinYMin meet" x="273" y="-613.2"/>
<text text-anchor="start" x="297" y="-603.3" font-family="Helvetica,sans-Serif" font-size="11.00" fill="#000000">person_identifier</text>
<polygon fill="none" stroke="#000000" points="268,-574.2 268,-596.2 546,-596.2 546,-574.2 268,-574.2"/>
<text text-anchor="start" x="297" y="-581.3" font-family="Helvetica,sans-Serif" font-size="11.00" fill="#000000">prison_code</text>
<polygon fill="none" stroke="#000000" points="268,-552.2 268,-574.2 546,-574.2 546,-552.2 268,-552.2"/>
<text text-anchor="start" x="297" y="-559.3" font-family="Helvetica,sans-Serif" font-size="11.00" fill="#000000">court_code</text>
<polygon fill="none" stroke="#000000" points="268,-530.2 268,-552.2 546,-552.2 546,-530.2 268,-530.2"/>
<text text-anchor="start" x="297" y="-537.3" font-family="Helvetica,sans-Serif" font-size="11.00" fill="#000000">direction</text>
<polygon fill="none" stroke="#000000" points="268,-508.2 268,-530.2 546,-530.2 546,-508.2 268,-508.2"/>
<text text-anchor="start" x="297" y="-515.3" font-family="Helvetica,sans-Serif" font-size="11.00" fill="#000000">occurred_at</text>
<polygon fill="none" stroke="#000000" points="268,-486.2 268,-508.2 546,-508.2 546,-486.2 268,-486.2"/>
<text text-anchor="start" x="297" y="-493.3" font-family="Helvetica,sans-Serif" font-size="11.00" fill="#000000">comments</text>
<polygon fill="none" stroke="#000000" points="268,-464.2 268,-486.2 546,-486.2 546,-464.2 268,-464.2"/>
<text text-anchor="start" x="297" y="-471.3" font-family="Helvetica,sans-Serif" font-size="11.00" fill="#000000">legacy_id</text>
<polygon fill="#ffffff" stroke="transparent" points="268,-445.2 268,-464.2 405,-464.2 405,-445.2 268,-445.2"/>
<polygon fill="none" stroke="#000000" points="268,-445.2 268,-464.2 405,-464.2 405,-445.2 268,-445.2"/>
<text text-anchor="start" x="271" y="-451.3" font-family="Helvetica,sans-Serif" font-size="11.00" fill="#000000">&lt; 1</text>
<polygon fill="#ffffff" stroke="transparent" points="405,-445.2 405,-464.2 475,-464.2 475,-445.2 405,-445.2"/>
<polygon fill="none" stroke="#000000" points="405,-445.2 405,-464.2 475,-464.2 475,-445.2 405,-445.2"/>
<text text-anchor="start" x="465.8862" y="-451.3" font-family="Helvetica,sans-Serif" font-size="11.00" fill="#000000"> &#160;</text>
<polygon fill="#ffffff" stroke="transparent" points="475,-445.2 475,-464.2 546,-464.2 546,-445.2 475,-445.2"/>
<polygon fill="none" stroke="#000000" points="475,-445.2 475,-464.2 546,-464.2 546,-445.2 475,-445.2"/>
<text text-anchor="start" x="536.8862" y="-451.3" font-family="Helvetica,sans-Serif" font-size="11.00" fill="#000000"> &#160;</text>
</a>
</g>
</g>
<!-- court_appearance_movement_audit&#45;&gt;audit_revision -->
<g id="edge11" class="edge">
<title>court_appearance_movement_audit:w&#45;&gt;audit_revision:e</title>
<path fill="none" stroke="#000000" d="M253.6245,-719.0047C223.9017,-727.0438 218.2448,-759.2 180.5,-759.2"/>
<polygon fill="#000000" stroke="#000000" points="260.0623,-718.1965 268.4484,-720.772 264.0312,-717.6983 268,-717.2 268,-717.2 268,-717.2 264.0312,-717.6983 267.5516,-713.628 260.0623,-718.1965 260.0623,-718.1965"/>
<ellipse fill="none" stroke="#000000" cx="256.8872" cy="-718.5952" rx="3.2" ry="3.2"/>
</g>
<!-- court_appearance_movement_audit&#45;&gt;person_summary -->
<g id="edge10" class="edge">
<title>court_appearance_movement_audit:w&#45;&gt;person_summary:e</title>
<path fill="none" stroke="#000000" stroke-dasharray="5,2" d="M253.563,-604.3288C224.2251,-591.0458 231.557,-536.2 190.5,-536.2"/>
<polygon fill="#000000" stroke="#000000" points="260.1537,-605.6395 267.2978,-610.7309 264.0768,-606.4197 268,-607.2 268,-607.2 268,-607.2 264.0768,-606.4197 268.7022,-603.6691 260.1537,-605.6395 260.1537,-605.6395"/>
<ellipse fill="none" stroke="#000000" cx="257.0151" cy="-605.0153" rx="3.2" ry="3.2"/>
</g>
</g>
</svg>
