<?xml version="1.0" encoding="UTF-8" standalone="no"?>
<!DOCTYPE svg PUBLIC "-//W3C//DTD SVG 1.1//EN"
 "http://www.w3.org/Graphics/SVG/1.1/DTD/svg11.dtd">
<!-- Generated by graphviz version 2.40.1 (20161225.0304)
 -->
<!-- Title: largeRelationshipsDiagram Pages: 1 -->
<svg width="770pt" height="1090pt"
 viewBox="0.00 0.00 770.00 1090.20" xmlns="http://www.w3.org/2000/svg" xmlns:xlink="http://www.w3.org/1999/xlink">
<g id="graph0" class="graph" transform="scale(1 1) rotate(0) translate(4 1086.2)">
<title>largeRelationshipsDiagram</title>
<polygon fill="#ffffff" stroke="transparent" points="-4,4 -4,-1086.2 766,-1086.2 766,4 -4,4"/>
<text text-anchor="middle" x="72.4936" y="-7.3" font-family="Helvetica,sans-Serif" font-size="11.00" fill="#000000">Generated by SchemaSpy</text>
<!-- court_appearance_audit -->
<g id="node1" class="node">
<title>court_appearance_audit</title>
<g id="a_node1"><a xlink:href="../../tables/court_appearance_audit.html" xlink:title="court_appearance_audit" target="_top">
<polygon fill="#ffffff" stroke="transparent" points="515,-387.2 515,-759.2 715,-759.2 715,-387.2 515,-387.2"/>
<polygon fill="#f5f5f5" stroke="transparent" points="515,-736.2 515,-759.2 715,-759.2 715,-736.2 515,-736.2"/>
<polygon fill="none" stroke="#000000" points="515,-736.2 515,-759.2 715,-759.2 715,-736.2 515,-736.2"/>
<text text-anchor="start" x="520" y="-744.8" font-family="Helvetica,sans-Serif" font-weight="bold" font-size="11.00" fill="#000000">court_appearance_audit</text>
<text text-anchor="start" x="680.5219" y="-744.3" font-family="Helvetica,sans-Serif" font-size="11.00" fill="#000000">[table]</text>
<polygon fill="none" stroke="#000000" points="515,-714.2 515,-736.2 715,-736.2 715,-714.2 515,-714.2"/>
<image xlink:href="../../images/primaryKeys.png" width="11px" height="12px" preserveAspectRatio="xMinYMin meet" x="520" y="-731.2"/>
<text text-anchor="start" x="544" y="-721.3" font-family="Helvetica,sans-Serif" font-size="11.00" fill="#000000">rev_id</text>
<polygon fill="none" stroke="#000000" points="515,-692.2 515,-714.2 715,-714.2 715,-692.2 515,-692.2"/>
<text text-anchor="start" x="544" y="-699.3" font-family="Helvetica,sans-Serif" font-size="11.00" fill="#000000">rev_type</text>
<polygon fill="none" stroke="#000000" points="515,-670.2 515,-692.2 715,-692.2 715,-670.2 515,-670.2"/>
<image xlink:href="../../images/primaryKeys.png" width="11px" height="12px" preserveAspectRatio="xMinYMin meet" x="520" y="-687.2"/>
<text text-anchor="start" x="544" y="-677.3" font-family="Helvetica,sans-Serif" font-size="11.00" fill="#000000">id</text>
<polygon fill="none" stroke="#000000" points="515,-648.2 515,-670.2 715,-670.2 715,-648.2 515,-648.2"/>
<text text-anchor="start" x="544" y="-655.3" font-family="Helvetica,sans-Serif" font-size="11.00" fill="#000000">version</text>
<polygon fill="none" stroke="#000000" points="515,-626.2 515,-648.2 715,-648.2 715,-626.2 515,-626.2"/>
<image xlink:href="../../images/foreignKeys.png" width="11px" height="12px" preserveAspectRatio="xMinYMin meet" x="520" y="-643.2"/>
<text text-anchor="start" x="544" y="-633.3" font-family="Helvetica,sans-Serif" font-size="11.00" fill="#000000">person_identifier</text>
<polygon fill="none" stroke="#000000" points="515,-604.2 515,-626.2 715,-626.2 715,-604.2 515,-604.2"/>
<text text-anchor="start" x="544" y="-611.3" font-family="Helvetica,sans-Serif" font-size="11.00" fill="#000000">prison_code</text>
<polygon fill="none" stroke="#000000" points="515,-582.2 515,-604.2 715,-604.2 715,-582.2 515,-582.2"/>
<text text-anchor="start" x="544" y="-589.3" font-family="Helvetica,sans-Serif" font-size="11.00" fill="#000000">court_code</text>
<polygon fill="none" stroke="#000000" points="515,-560.2 515,-582.2 715,-582.2 715,-560.2 515,-560.2"/>
<text text-anchor="start" x="544" y="-567.3" font-family="Helvetica,sans-Serif" font-size="11.00" fill="#000000">reason_id</text>
<polygon fill="none" stroke="#000000" points="515,-538.2 515,-560.2 715,-560.2 715,-538.2 515,-538.2"/>
<text text-anchor="start" x="544" y="-545.3" font-family="Helvetica,sans-Serif" font-size="11.00" fill="#000000">external</text>
<polygon fill="none" stroke="#000000" points="515,-516.2 515,-538.2 715,-538.2 715,-516.2 515,-516.2"/>
<text text-anchor="start" x="544" y="-523.3" font-family="Helvetica,sans-Serif" font-size="11.00" fill="#000000">status_id</text>
<polygon fill="none" stroke="#000000" points="515,-494.2 515,-516.2 715,-516.2 715,-494.2 515,-494.2"/>
<text text-anchor="start" x="544" y="-501.3" font-family="Helvetica,sans-Serif" font-size="11.00" fill="#000000">start</text>
<polygon fill="none" stroke="#000000" points="515,-472.2 515,-494.2 715,-494.2 715,-472.2 515,-472.2"/>
<text text-anchor="start" x="544" y="-479.3" font-family="Helvetica,sans-Serif" font-size="11.00" fill="#000000">end</text>
<polygon fill="none" stroke="#000000" points="515,-450.2 515,-472.2 715,-472.2 715,-450.2 515,-450.2"/>
<text text-anchor="start" x="544" y="-457.3" font-family="Helvetica,sans-Serif" font-size="11.00" fill="#000000">comments</text>
<polygon fill="none" stroke="#000000" points="515,-428.2 515,-450.2 715,-450.2 715,-428.2 515,-428.2"/>
<image xlink:href="../../images/foreignKeys.png" width="11px" height="12px" preserveAspectRatio="xMinYMin meet" x="520" y="-445.2"/>
<text text-anchor="start" x="544" y="-435.3" font-family="Helvetica,sans-Serif" font-size="11.00" fill="#000000">legacy_id</text>
<polygon fill="none" stroke="#000000" points="515,-406.2 515,-428.2 715,-428.2 715,-406.2 515,-406.2"/>
<text text-anchor="start" x="544" y="-413.3" font-family="Helvetica,sans-Serif" font-size="11.00" fill="#000000">external_reference</text>
<polygon fill="#ffffff" stroke="transparent" points="515,-387.2 515,-406.2 613,-406.2 613,-387.2 515,-387.2"/>
<polygon fill="none" stroke="#000000" points="515,-387.2 515,-406.2 613,-406.2 613,-387.2 515,-387.2"/>
<text text-anchor="start" x="518" y="-393.3" font-family="Helvetica,sans-Serif" font-size="11.00" fill="#000000">&lt; 1</text>
<polygon fill="#ffffff" stroke="transparent" points="613,-387.2 613,-406.2 664,-406.2 664,-387.2 613,-387.2"/>
<polygon fill="none" stroke="#000000" points="613,-387.2 613,-406.2 664,-406.2 664,-387.2 613,-387.2"/>
<text text-anchor="start" x="654.8862" y="-393.3" font-family="Helvetica,sans-Serif" font-size="11.00" fill="#000000"> &#160;</text>
<polygon fill="#ffffff" stroke="transparent" points="664,-387.2 664,-406.2 715,-406.2 715,-387.2 664,-387.2"/>
<polygon fill="none" stroke="#000000" points="664,-387.2 664,-406.2 715,-406.2 715,-387.2 664,-387.2"/>
<text text-anchor="start" x="705.8862" y="-393.3" font-family="Helvetica,sans-Serif" font-size="11.00" fill="#000000"> &#160;</text>
</a>
</g>
</g>
<!-- audit_revision -->
<g id="node7" class="node">
<title>audit_revision</title>
<g id="a_node7"><a xlink:href="../../tables/audit_revision.html" xlink:title="audit_revision" target="_top">
<polygon fill="#ffffff" stroke="transparent" points="280.5,-309.2 280.5,-505.2 414.5,-505.2 414.5,-309.2 280.5,-309.2"/>
<polygon fill="#f5f5f5" stroke="transparent" points="280.5,-482.2 280.5,-505.2 414.5,-505.2 414.5,-482.2 280.5,-482.2"/>
<polygon fill="none" stroke="#000000" points="280.5,-482.2 280.5,-505.2 414.5,-505.2 414.5,-482.2 280.5,-482.2"/>
<text text-anchor="start" x="285.5" y="-490.8" font-family="Helvetica,sans-Serif" font-weight="bold" font-size="11.00" fill="#000000">audit_revision</text>
<text text-anchor="start" x="380.0219" y="-490.3" font-family="Helvetica,sans-Serif" font-size="11.00" fill="#000000">[table]</text>
<polygon fill="none" stroke="#000000" points="280.5,-460.2 280.5,-482.2 414.5,-482.2 414.5,-460.2 280.5,-460.2"/>
<image xlink:href="../../images/primaryKeys.png" width="11px" height="12px" preserveAspectRatio="xMinYMin meet" x="285.5" y="-477.2"/>
<text text-anchor="start" x="300.5" y="-467.3" font-family="Helvetica,sans-Serif" font-size="11.00" fill="#000000">id</text>
<polygon fill="none" stroke="#000000" points="280.5,-438.2 280.5,-460.2 414.5,-460.2 414.5,-438.2 280.5,-438.2"/>
<text text-anchor="start" x="300.5" y="-445.3" font-family="Helvetica,sans-Serif" font-size="11.00" fill="#000000">timestamp</text>
<polygon fill="none" stroke="#000000" points="280.5,-416.2 280.5,-438.2 414.5,-438.2 414.5,-416.2 280.5,-416.2"/>
<text text-anchor="start" x="300.5" y="-423.3" font-family="Helvetica,sans-Serif" font-size="11.00" fill="#000000">source</text>
<polygon fill="none" stroke="#000000" points="280.5,-394.2 280.5,-416.2 414.5,-416.2 414.5,-394.2 280.5,-394.2"/>
<text text-anchor="start" x="300.5" y="-401.3" font-family="Helvetica,sans-Serif" font-size="11.00" fill="#000000">affected_entities</text>
<polygon fill="none" stroke="#000000" points="280.5,-372.2 280.5,-394.2 414.5,-394.2 414.5,-372.2 280.5,-372.2"/>
<text text-anchor="start" x="300.5" y="-379.3" font-family="Helvetica,sans-Serif" font-size="11.00" fill="#000000">username</text>
<polygon fill="none" stroke="#000000" points="280.5,-350.2 280.5,-372.2 414.5,-372.2 414.5,-350.2 280.5,-350.2"/>
<text text-anchor="start" x="300.5" y="-357.3" font-family="Helvetica,sans-Serif" font-size="11.00" fill="#000000">caseload_id</text>
<polygon fill="none" stroke="#000000" points="280.5,-328.2 280.5,-350.2 414.5,-350.2 414.5,-328.2 280.5,-328.2"/>
<text text-anchor="start" x="300.5" y="-335.3" font-family="Helvetica,sans-Serif" font-size="11.00" fill="#000000">reason</text>
<polygon fill="#ffffff" stroke="transparent" points="280.5,-309.2 280.5,-328.2 336.5,-328.2 336.5,-309.2 280.5,-309.2"/>
<polygon fill="none" stroke="#000000" points="280.5,-309.2 280.5,-328.2 336.5,-328.2 336.5,-309.2 280.5,-309.2"/>
<text text-anchor="start" x="283.5" y="-315.3" font-family="Helvetica,sans-Serif" font-size="11.00" fill="#000000"> &#160;</text>
<polygon fill="#ffffff" stroke="transparent" points="336.5,-309.2 336.5,-328.2 370.5,-328.2 370.5,-309.2 336.5,-309.2"/>
<polygon fill="none" stroke="#000000" points="336.5,-309.2 336.5,-328.2 370.5,-328.2 370.5,-309.2 336.5,-309.2"/>
<text text-anchor="start" x="361.3862" y="-315.3" font-family="Helvetica,sans-Serif" font-size="11.00" fill="#000000"> &#160;</text>
<polygon fill="#ffffff" stroke="transparent" points="370.5,-309.2 370.5,-328.2 414.5,-328.2 414.5,-309.2 370.5,-309.2"/>
<polygon fill="none" stroke="#000000" points="370.5,-309.2 370.5,-328.2 414.5,-328.2 414.5,-309.2 370.5,-309.2"/>
<text text-anchor="start" x="395.9053" y="-315.3" font-family="Helvetica,sans-Serif" font-size="11.00" fill="#000000">2 &gt;</text>
</a>
</g>
</g>
<!-- court_appearance_audit&#45;&gt;audit_revision -->
<g id="edge4" class="edge">
<title>court_appearance_audit:w&#45;&gt;audit_revision:e</title>
<path fill="none" stroke="#000000" d="M500.4776,-723.7715C405.594,-703.3663 530.5692,-471.2 414.5,-471.2"/>
<polygon fill="#000000" stroke="#000000" points="507.0384,-724.4168 514.6476,-728.7827 511.0192,-724.8084 515,-725.2 515,-725.2 515,-725.2 511.0192,-724.8084 515.3524,-721.6173 507.0384,-724.4168 507.0384,-724.4168"/>
<ellipse fill="none" stroke="#000000" cx="503.8538" cy="-724.1036" rx="3.2" ry="3.2"/>
</g>
<!-- court_appearance -->
<g id="node2" class="node">
<title>court_appearance</title>
<g id="a_node2"><a xlink:href="../../tables/court_appearance.html" xlink:title="court_appearance" target="_top">
<polygon fill="#ffffff" stroke="transparent" points="268,-692.2 268,-1020.2 427,-1020.2 427,-692.2 268,-692.2"/>
<polygon fill="#f5f5f5" stroke="transparent" points="268.5,-997.2 268.5,-1020.2 427.5,-1020.2 427.5,-997.2 268.5,-997.2"/>
<polygon fill="none" stroke="#000000" points="268.5,-997.2 268.5,-1020.2 427.5,-1020.2 427.5,-997.2 268.5,-997.2"/>
<text text-anchor="start" x="273.5" y="-1005.8" font-family="Helvetica,sans-Serif" font-weight="bold" font-size="11.00" fill="#000000">court_appearance</text>
<text text-anchor="start" x="393.0219" y="-1005.3" font-family="Helvetica,sans-Serif" font-size="11.00" fill="#000000">[table]</text>
<polygon fill="none" stroke="#000000" points="268.5,-975.2 268.5,-997.2 427.5,-997.2 427.5,-975.2 268.5,-975.2"/>
<image xlink:href="../../images/primaryKeys.png" width="11px" height="12px" preserveAspectRatio="xMinYMin meet" x="273.5" y="-992.2"/>
<text text-anchor="start" x="294.5" y="-982.3" font-family="Helvetica,sans-Serif" font-size="11.00" fill="#000000">id</text>
<polygon fill="none" stroke="#000000" points="268.5,-953.2 268.5,-975.2 427.5,-975.2 427.5,-953.2 268.5,-953.2"/>
<text text-anchor="start" x="294.5" y="-960.3" font-family="Helvetica,sans-Serif" font-size="11.00" fill="#000000">version</text>
<polygon fill="#ffffff" stroke="transparent" points="268.5,-931.2 268.5,-953.2 427.5,-953.2 427.5,-931.2 268.5,-931.2"/>
<polygon fill="none" stroke="#000000" points="268.5,-931.2 268.5,-953.2 427.5,-953.2 427.5,-931.2 268.5,-931.2"/>
<image xlink:href="../../images/foreignKeys.png" width="11px" height="12px" preserveAspectRatio="xMinYMin meet" x="273.5" y="-948.2"/>
<text text-anchor="start" x="294.5" y="-938.3" font-family="Helvetica,sans-Serif" font-size="11.00" fill="#000000">person_identifier</text>
<polygon fill="#ffffff" stroke="transparent" points="268.5,-909.2 268.5,-931.2 427.5,-931.2 427.5,-909.2 268.5,-909.2"/>
<polygon fill="none" stroke="#000000" points="268.5,-909.2 268.5,-931.2 427.5,-931.2 427.5,-909.2 268.5,-909.2"/>
<text text-anchor="start" x="294.5" y="-916.3" font-family="Helvetica,sans-Serif" font-size="11.00" fill="#000000">prison_code</text>
<polygon fill="none" stroke="#000000" points="268.5,-887.2 268.5,-909.2 427.5,-909.2 427.5,-887.2 268.5,-887.2"/>
<text text-anchor="start" x="294.5" y="-894.3" font-family="Helvetica,sans-Serif" font-size="11.00" fill="#000000">court_code</text>
<polygon fill="#ffffff" stroke="transparent" points="268.5,-865.2 268.5,-887.2 427.5,-887.2 427.5,-865.2 268.5,-865.2"/>
<polygon fill="none" stroke="#000000" points="268.5,-865.2 268.5,-887.2 427.5,-887.2 427.5,-865.2 268.5,-865.2"/>
<image xlink:href="../../images/foreignKeys.png" width="11px" height="12px" preserveAspectRatio="xMinYMin meet" x="273.5" y="-882.2"/>
<text text-anchor="start" x="294.5" y="-872.3" font-family="Helvetica,sans-Serif" font-size="11.00" fill="#000000">reason_id</text>
<polygon fill="none" stroke="#000000" points="268.5,-843.2 268.5,-865.2 427.5,-865.2 427.5,-843.2 268.5,-843.2"/>
<text text-anchor="start" x="294.5" y="-850.3" font-family="Helvetica,sans-Serif" font-size="11.00" fill="#000000">external</text>
<polygon fill="#ffffff" stroke="transparent" points="268.5,-821.2 268.5,-843.2 427.5,-843.2 427.5,-821.2 268.5,-821.2"/>
<polygon fill="none" stroke="#000000" points="268.5,-821.2 268.5,-843.2 427.5,-843.2 427.5,-821.2 268.5,-821.2"/>
<image xlink:href="../../images/foreignKeys.png" width="11px" height="12px" preserveAspectRatio="xMinYMin meet" x="273.5" y="-838.2"/>
<text text-anchor="start" x="294.5" y="-828.3" font-family="Helvetica,sans-Serif" font-size="11.00" fill="#000000">status_id</text>
<polygon fill="#ffffff" stroke="transparent" points="268.5,-799.2 268.5,-821.2 427.5,-821.2 427.5,-799.2 268.5,-799.2"/>
<polygon fill="none" stroke="#000000" points="268.5,-799.2 268.5,-821.2 427.5,-821.2 427.5,-799.2 268.5,-799.2"/>
<text text-anchor="start" x="294.5" y="-806.3" font-family="Helvetica,sans-Serif" font-size="11.00" fill="#000000">start</text>
<polygon fill="none" stroke="#000000" points="268.5,-777.2 268.5,-799.2 427.5,-799.2 427.5,-777.2 268.5,-777.2"/>
<text text-anchor="start" x="294.5" y="-784.3" font-family="Helvetica,sans-Serif" font-size="11.00" fill="#000000">end</text>
<polygon fill="none" stroke="#000000" points="268.5,-755.2 268.5,-777.2 427.5,-777.2 427.5,-755.2 268.5,-755.2"/>
<text text-anchor="start" x="294.5" y="-762.3" font-family="Helvetica,sans-Serif" font-size="11.00" fill="#000000">comments</text>
<polygon fill="#ffffff" stroke="transparent" points="268.5,-733.2 268.5,-755.2 427.5,-755.2 427.5,-733.2 268.5,-733.2"/>
<polygon fill="none" stroke="#000000" points="268.5,-733.2 268.5,-755.2 427.5,-755.2 427.5,-733.2 268.5,-733.2"/>
<image xlink:href="../../images/foreignKeys.png" width="11px" height="12px" preserveAspectRatio="xMinYMin meet" x="273.5" y="-750.2"/>
<text text-anchor="start" x="294.5" y="-740.3" font-family="Helvetica,sans-Serif" font-size="11.00" fill="#000000">legacy_id</text>
<polygon fill="#ffffff" stroke="transparent" points="268.5,-711.2 268.5,-733.2 427.5,-733.2 427.5,-711.2 268.5,-711.2"/>
<polygon fill="none" stroke="#000000" points="268.5,-711.2 268.5,-733.2 427.5,-733.2 427.5,-711.2 268.5,-711.2"/>
<text text-anchor="start" x="294.5" y="-718.3" font-family="Helvetica,sans-Serif" font-size="11.00" fill="#000000">external_reference</text>
<polygon fill="#ffffff" stroke="transparent" points="268.5,-692.2 268.5,-711.2 341.5,-711.2 341.5,-692.2 268.5,-692.2"/>
<polygon fill="none" stroke="#000000" points="268.5,-692.2 268.5,-711.2 341.5,-711.2 341.5,-692.2 268.5,-692.2"/>
<text text-anchor="start" x="271.5" y="-698.3" font-family="Helvetica,sans-Serif" font-size="11.00" fill="#000000">&lt; 3</text>
<polygon fill="#ffffff" stroke="transparent" points="341.5,-692.2 341.5,-711.2 379.5,-711.2 379.5,-692.2 341.5,-692.2"/>
<polygon fill="none" stroke="#000000" points="341.5,-692.2 341.5,-711.2 379.5,-711.2 379.5,-692.2 341.5,-692.2"/>
<text text-anchor="start" x="370.3862" y="-698.3" font-family="Helvetica,sans-Serif" font-size="11.00" fill="#000000"> &#160;</text>
<polygon fill="#ffffff" stroke="transparent" points="379.5,-692.2 379.5,-711.2 427.5,-711.2 427.5,-692.2 379.5,-692.2"/>
<polygon fill="none" stroke="#000000" points="379.5,-692.2 379.5,-711.2 427.5,-711.2 427.5,-692.2 379.5,-692.2"/>
<text text-anchor="start" x="408.9053" y="-698.3" font-family="Helvetica,sans-Serif" font-size="11.00" fill="#000000">1 &gt;</text>
</a>
</g>
</g>
<!-- court_appearance_reason -->
<g id="node3" class="node">
<title>court_appearance_reason</title>
<g id="a_node3"><a xlink:href="../../tables/court_appearance_reason.html" xlink:title="court_appearance_reason" target="_top">
<polygon fill="#ffffff" stroke="transparent" points="8,-709.2 8,-883.2 219,-883.2 219,-709.2 8,-709.2"/>
<polygon fill="#f5f5f5" stroke="transparent" points="8.5,-860.2 8.5,-883.2 219.5,-883.2 219.5,-860.2 8.5,-860.2"/>
<polygon fill="none" stroke="#000000" points="8.5,-860.2 8.5,-883.2 219.5,-883.2 219.5,-860.2 8.5,-860.2"/>
<text text-anchor="start" x="13.5" y="-868.8" font-family="Helvetica,sans-Serif" font-weight="bold" font-size="11.00" fill="#000000">court_appearance_reason</text>
<text text-anchor="start" x="185.0219" y="-868.3" font-family="Helvetica,sans-Serif" font-size="11.00" fill="#000000">[table]</text>
<polygon fill="none" stroke="#000000" points="8.5,-838.2 8.5,-860.2 219.5,-860.2 219.5,-838.2 8.5,-838.2"/>
<image xlink:href="../../images/primaryKeys.png" width="11px" height="12px" preserveAspectRatio="xMinYMin meet" x="13.5" y="-855.2"/>
<text text-anchor="start" x="37.5" y="-845.3" font-family="Helvetica,sans-Serif" font-size="11.00" fill="#000000">id</text>
<polygon fill="#ffffff" stroke="transparent" points="8.5,-816.2 8.5,-838.2 219.5,-838.2 219.5,-816.2 8.5,-816.2"/>
<polygon fill="none" stroke="#000000" points="8.5,-816.2 8.5,-838.2 219.5,-838.2 219.5,-816.2 8.5,-816.2"/>
<text text-anchor="start" x="37.5" y="-823.3" font-family="Helvetica,sans-Serif" font-size="11.00" fill="#000000">code</text>
<polygon fill="none" stroke="#000000" points="8.5,-794.2 8.5,-816.2 219.5,-816.2 219.5,-794.2 8.5,-794.2"/>
<text text-anchor="start" x="37.5" y="-801.3" font-family="Helvetica,sans-Serif" font-size="11.00" fill="#000000">description</text>
<polygon fill="#ffffff" stroke="transparent" points="8.5,-772.2 8.5,-794.2 219.5,-794.2 219.5,-772.2 8.5,-772.2"/>
<polygon fill="none" stroke="#000000" points="8.5,-772.2 8.5,-794.2 219.5,-794.2 219.5,-772.2 8.5,-772.2"/>
<text text-anchor="start" x="37.5" y="-779.3" font-family="Helvetica,sans-Serif" font-size="11.00" fill="#000000">sequence_number</text>
<polygon fill="none" stroke="#000000" points="8.5,-750.2 8.5,-772.2 219.5,-772.2 219.5,-750.2 8.5,-750.2"/>
<text text-anchor="start" x="37.5" y="-757.3" font-family="Helvetica,sans-Serif" font-size="11.00" fill="#000000">active</text>
<polygon fill="none" stroke="#000000" points="8.5,-728.2 8.5,-750.2 219.5,-750.2 219.5,-728.2 8.5,-728.2"/>
<text text-anchor="start" x="37.5" y="-735.3" font-family="Helvetica,sans-Serif" font-size="11.00" fill="#000000">external</text>
<polygon fill="#ffffff" stroke="transparent" points="8.5,-709.2 8.5,-728.2 103.5,-728.2 103.5,-709.2 8.5,-709.2"/>
<polygon fill="none" stroke="#000000" points="8.5,-709.2 8.5,-728.2 103.5,-728.2 103.5,-709.2 8.5,-709.2"/>
<text text-anchor="start" x="11.5" y="-715.3" font-family="Helvetica,sans-Serif" font-size="11.00" fill="#000000"> &#160;</text>
<polygon fill="#ffffff" stroke="transparent" points="103.5,-709.2 103.5,-728.2 156.5,-728.2 156.5,-709.2 103.5,-709.2"/>
<polygon fill="none" stroke="#000000" points="103.5,-709.2 103.5,-728.2 156.5,-728.2 156.5,-709.2 103.5,-709.2"/>
<text text-anchor="start" x="147.3862" y="-715.3" font-family="Helvetica,sans-Serif" font-size="11.00" fill="#000000"> &#160;</text>
<polygon fill="#ffffff" stroke="transparent" points="156.5,-709.2 156.5,-728.2 219.5,-728.2 219.5,-709.2 156.5,-709.2"/>
<polygon fill="none" stroke="#000000" points="156.5,-709.2 156.5,-728.2 219.5,-728.2 219.5,-709.2 156.5,-709.2"/>
<text text-anchor="start" x="200.9053" y="-715.3" font-family="Helvetica,sans-Serif" font-size="11.00" fill="#000000">2 &gt;</text>
</a>
</g>
</g>
<!-- court_appearance&#45;&gt;court_appearance_reason -->
<g id="edge2" class="edge">
<title>court_appearance:w&#45;&gt;court_appearance_reason:e</title>
<path fill="none" stroke="#000000" d="M254.5757,-872.4458C242.5712,-865.0269 238.5373,-849.2 219.5,-849.2"/>
<polygon fill="#000000" stroke="#000000" points="260.7758,-874.1174 267.5628,-879.6759 264.6379,-875.1587 268.5,-876.2 268.5,-876.2 268.5,-876.2 264.6379,-875.1587 269.4372,-872.7241 260.7758,-874.1174 260.7758,-874.1174"/>
<ellipse fill="none" stroke="#000000" cx="257.6861" cy="-873.2844" rx="3.2" ry="3.2"/>
</g>
<!-- court_appearance_status -->
<g id="node5" class="node">
<title>court_appearance_status</title>
<g id="a_node5"><a xlink:href="../../tables/court_appearance_status.html" xlink:title="court_appearance_status" target="_top">
<polygon fill="#ffffff" stroke="transparent" points="9.5,-558.2 9.5,-688.2 217.5,-688.2 217.5,-558.2 9.5,-558.2"/>
<polygon fill="#f5f5f5" stroke="transparent" points="9.5,-665.2 9.5,-688.2 217.5,-688.2 217.5,-665.2 9.5,-665.2"/>
<polygon fill="none" stroke="#000000" points="9.5,-665.2 9.5,-688.2 217.5,-688.2 217.5,-665.2 9.5,-665.2"/>
<text text-anchor="start" x="14.5" y="-673.8" font-family="Helvetica,sans-Serif" font-weight="bold" font-size="11.00" fill="#000000">court_appearance_status</text>
<text text-anchor="start" x="183.0219" y="-673.3" font-family="Helvetica,sans-Serif" font-size="11.00" fill="#000000">[table]</text>
<polygon fill="none" stroke="#000000" points="9.5,-643.2 9.5,-665.2 217.5,-665.2 217.5,-643.2 9.5,-643.2"/>
<image xlink:href="../../images/primaryKeys.png" width="11px" height="12px" preserveAspectRatio="xMinYMin meet" x="14.5" y="-660.2"/>
<text text-anchor="start" x="38.5" y="-650.3" font-family="Helvetica,sans-Serif" font-size="11.00" fill="#000000">id</text>
<polygon fill="#ffffff" stroke="transparent" points="9.5,-621.2 9.5,-643.2 217.5,-643.2 217.5,-621.2 9.5,-621.2"/>
<polygon fill="none" stroke="#000000" points="9.5,-621.2 9.5,-643.2 217.5,-643.2 217.5,-621.2 9.5,-621.2"/>
<text text-anchor="start" x="38.5" y="-628.3" font-family="Helvetica,sans-Serif" font-size="11.00" fill="#000000">code</text>
<polygon fill="none" stroke="#000000" points="9.5,-599.2 9.5,-621.2 217.5,-621.2 217.5,-599.2 9.5,-599.2"/>
<text text-anchor="start" x="38.5" y="-606.3" font-family="Helvetica,sans-Serif" font-size="11.00" fill="#000000">description</text>
<polygon fill="#ffffff" stroke="transparent" points="9.5,-577.2 9.5,-599.2 217.5,-599.2 217.5,-577.2 9.5,-577.2"/>
<polygon fill="none" stroke="#000000" points="9.5,-577.2 9.5,-599.2 217.5,-599.2 217.5,-577.2 9.5,-577.2"/>
<text text-anchor="start" x="38.5" y="-584.3" font-family="Helvetica,sans-Serif" font-size="11.00" fill="#000000">sequence_number</text>
<polygon fill="#ffffff" stroke="transparent" points="9.5,-558.2 9.5,-577.2 102.5,-577.2 102.5,-558.2 9.5,-558.2"/>
<polygon fill="none" stroke="#000000" points="9.5,-558.2 9.5,-577.2 102.5,-577.2 102.5,-558.2 9.5,-558.2"/>
<text text-anchor="start" x="12.5" y="-564.3" font-family="Helvetica,sans-Serif" font-size="11.00" fill="#000000"> &#160;</text>
<polygon fill="#ffffff" stroke="transparent" points="102.5,-558.2 102.5,-577.2 155.5,-577.2 155.5,-558.2 102.5,-558.2"/>
<polygon fill="none" stroke="#000000" points="102.5,-558.2 102.5,-577.2 155.5,-577.2 155.5,-558.2 102.5,-558.2"/>
<text text-anchor="start" x="146.3862" y="-564.3" font-family="Helvetica,sans-Serif" font-size="11.00" fill="#000000"> &#160;</text>
<polygon fill="#ffffff" stroke="transparent" points="155.5,-558.2 155.5,-577.2 217.5,-577.2 217.5,-558.2 155.5,-558.2"/>
<polygon fill="none" stroke="#000000" points="155.5,-558.2 155.5,-577.2 217.5,-577.2 217.5,-558.2 155.5,-558.2"/>
<text text-anchor="start" x="198.9053" y="-564.3" font-family="Helvetica,sans-Serif" font-size="11.00" fill="#000000">1 &gt;</text>
</a>
</g>
</g>
<!-- court_appearance&#45;&gt;court_appearance_status -->
<g id="edge3" class="edge">
<title>court_appearance:w&#45;&gt;court_appearance_status:e</title>
<path fill="none" stroke="#000000" d="M254.2442,-829.8183C200.8201,-808.6959 294.1687,-654.2 217.5,-654.2"/>
<polygon fill="#000000" stroke="#000000" points="260.6094,-830.8817 267.9068,-835.7508 264.5547,-831.5408 268.5,-832.2 268.5,-832.2 268.5,-832.2 264.5547,-831.5408 269.0932,-828.6492 260.6094,-830.8817 260.6094,-830.8817"/>
<ellipse fill="none" stroke="#000000" cx="257.4531" cy="-830.3544" rx="3.2" ry="3.2"/>
</g>
<!-- person_summary -->
<g id="node8" class="node">
<title>person_summary</title>
<g id="a_node8"><a xlink:href="../../tables/person_summary.html" xlink:title="person_summary" target="_top">
<polygon fill="#ffffff" stroke="transparent" points="36.5,-904.2 36.5,-1078.2 190.5,-1078.2 190.5,-904.2 36.5,-904.2"/>
<polygon fill="#f5f5f5" stroke="transparent" points="36.5,-1055.2 36.5,-1078.2 190.5,-1078.2 190.5,-1055.2 36.5,-1055.2"/>
<polygon fill="none" stroke="#000000" points="36.5,-1055.2 36.5,-1078.2 190.5,-1078.2 190.5,-1055.2 36.5,-1055.2"/>
<text text-anchor="start" x="41.5" y="-1063.8" font-family="Helvetica,sans-Serif" font-weight="bold" font-size="11.00" fill="#000000">person_summary</text>
<text text-anchor="start" x="156.0219" y="-1063.3" font-family="Helvetica,sans-Serif" font-size="11.00" fill="#000000">[table]</text>
<polygon fill="none" stroke="#000000" points="36.5,-1033.2 36.5,-1055.2 190.5,-1055.2 190.5,-1033.2 36.5,-1033.2"/>
<image xlink:href="../../images/primaryKeys.png" width="11px" height="12px" preserveAspectRatio="xMinYMin meet" x="41.5" y="-1050.2"/>
<text text-anchor="start" x="65.5" y="-1040.3" font-family="Helvetica,sans-Serif" font-size="11.00" fill="#000000">person_identifier</text>
<polygon fill="none" stroke="#000000" points="36.5,-1011.2 36.5,-1033.2 190.5,-1033.2 190.5,-1011.2 36.5,-1011.2"/>
<text text-anchor="start" x="65.5" y="-1018.3" font-family="Helvetica,sans-Serif" font-size="11.00" fill="#000000">version</text>
<polygon fill="none" stroke="#000000" points="36.5,-989.2 36.5,-1011.2 190.5,-1011.2 190.5,-989.2 36.5,-989.2"/>
<text text-anchor="start" x="65.5" y="-996.3" font-family="Helvetica,sans-Serif" font-size="11.00" fill="#000000">first_name</text>
<polygon fill="none" stroke="#000000" points="36.5,-967.2 36.5,-989.2 190.5,-989.2 190.5,-967.2 36.5,-967.2"/>
<text text-anchor="start" x="65.5" y="-974.3" font-family="Helvetica,sans-Serif" font-size="11.00" fill="#000000">last_name</text>
<polygon fill="none" stroke="#000000" points="36.5,-945.2 36.5,-967.2 190.5,-967.2 190.5,-945.2 36.5,-945.2"/>
<text text-anchor="start" x="65.5" y="-952.3" font-family="Helvetica,sans-Serif" font-size="11.00" fill="#000000">prison_code</text>
<polygon fill="none" stroke="#000000" points="36.5,-923.2 36.5,-945.2 190.5,-945.2 190.5,-923.2 36.5,-923.2"/>
<text text-anchor="start" x="65.5" y="-930.3" font-family="Helvetica,sans-Serif" font-size="11.00" fill="#000000">cell_location</text>
<polygon fill="#ffffff" stroke="transparent" points="36.5,-904.2 36.5,-923.2 102.5,-923.2 102.5,-904.2 36.5,-904.2"/>
<polygon fill="none" stroke="#000000" points="36.5,-904.2 36.5,-923.2 102.5,-923.2 102.5,-904.2 36.5,-904.2"/>
<text text-anchor="start" x="39.5" y="-910.3" font-family="Helvetica,sans-Serif" font-size="11.00" fill="#000000"> &#160;</text>
<polygon fill="#ffffff" stroke="transparent" points="102.5,-904.2 102.5,-923.2 141.5,-923.2 141.5,-904.2 102.5,-904.2"/>
<polygon fill="none" stroke="#000000" points="102.5,-904.2 102.5,-923.2 141.5,-923.2 141.5,-904.2 102.5,-904.2"/>
<text text-anchor="start" x="132.3862" y="-910.3" font-family="Helvetica,sans-Serif" font-size="11.00" fill="#000000"> &#160;</text>
<polygon fill="#ffffff" stroke="transparent" points="141.5,-904.2 141.5,-923.2 190.5,-923.2 190.5,-904.2 141.5,-904.2"/>
<polygon fill="none" stroke="#000000" points="141.5,-904.2 141.5,-923.2 190.5,-923.2 190.5,-904.2 141.5,-904.2"/>
<text text-anchor="start" x="171.9053" y="-910.3" font-family="Helvetica,sans-Serif" font-size="11.00" fill="#000000">2 &gt;</text>
</a>
</g>
</g>
<!-- court_appearance&#45;&gt;person_summary -->
<g id="edge1" class="edge">
<title>court_appearance:w&#45;&gt;person_summary:e</title>
<path fill="none" stroke="#000000" d="M254.2736,-944.9283C217.6002,-961.1491 241.996,-1044.2 190.5,-1044.2"/>
<polygon fill="#000000" stroke="#000000" points="260.6432,-943.7068 269.1781,-945.7356 264.5716,-942.9534 268.5,-942.2 268.5,-942.2 268.5,-942.2 264.5716,-942.9534 267.8219,-938.6644 260.6432,-943.7068 260.6432,-943.7068"/>
<ellipse fill="none" stroke="#000000" cx="257.5004" cy="-944.3095" rx="3.2" ry="3.2"/>
</g>
<!-- court_appearance_movement -->
<g id="node4" class="node">
<title>court_appearance_movement</title>
<g id="a_node4"><a xlink:href="../../tables/court_appearance_movement.html" xlink:title="court_appearance_movement" target="_top">
<polygon fill="#ffffff" stroke="transparent" points="496.5,-780.2 496.5,-1064.2 733.5,-1064.2 733.5,-780.2 496.5,-780.2"/>
<polygon fill="#f5f5f5" stroke="transparent" points="497,-1041.2 497,-1064.2 734,-1064.2 734,-1041.2 497,-1041.2"/>
<polygon fill="none" stroke="#000000" points="497,-1041.2 497,-1064.2 734,-1064.2 734,-1041.2 497,-1041.2"/>
<text text-anchor="start" x="502" y="-1049.8" font-family="Helvetica,sans-Serif" font-weight="bold" font-size="11.00" fill="#000000">court_appearance_movement</text>
<text text-anchor="start" x="699.5219" y="-1049.3" font-family="Helvetica,sans-Serif" font-size="11.00" fill="#000000">[table]</text>
<polygon fill="none" stroke="#000000" points="497,-1019.2 497,-1041.2 734,-1041.2 734,-1019.2 497,-1019.2"/>
<image xlink:href="../../images/primaryKeys.png" width="11px" height="12px" preserveAspectRatio="xMinYMin meet" x="502" y="-1036.2"/>
<text text-anchor="start" x="526" y="-1026.3" font-family="Helvetica,sans-Serif" font-size="11.00" fill="#000000">id</text>
<polygon fill="none" stroke="#000000" points="497,-997.2 497,-1019.2 734,-1019.2 734,-997.2 497,-997.2"/>
<text text-anchor="start" x="526" y="-1004.3" font-family="Helvetica,sans-Serif" font-size="11.00" fill="#000000">version</text>
<polygon fill="none" stroke="#000000" points="497,-975.2 497,-997.2 734,-997.2 734,-975.2 497,-975.2"/>
<image xlink:href="../../images/foreignKeys.png" width="11px" height="12px" preserveAspectRatio="xMinYMin meet" x="502" y="-992.2"/>
<text text-anchor="start" x="526" y="-982.3" font-family="Helvetica,sans-Serif" font-size="11.00" fill="#000000">court_appearance_id</text>
<polygon fill="#ffffff" stroke="transparent" points="497,-953.2 497,-975.2 734,-975.2 734,-953.2 497,-953.2"/>
<polygon fill="none" stroke="#000000" points="497,-953.2 497,-975.2 734,-975.2 734,-953.2 497,-953.2"/>
<image xlink:href="../../images/foreignKeys.png" width="11px" height="12px" preserveAspectRatio="xMinYMin meet" x="502" y="-970.2"/>
<text text-anchor="start" x="526" y="-960.3" font-family="Helvetica,sans-Serif" font-size="11.00" fill="#000000">person_identifier</text>
<polygon fill="none" stroke="#000000" points="497,-931.2 497,-953.2 734,-953.2 734,-931.2 497,-931.2"/>
<text text-anchor="start" x="526" y="-938.3" font-family="Helvetica,sans-Serif" font-size="11.00" fill="#000000">prison_code</text>
<polygon fill="none" stroke="#000000" points="497,-909.2 497,-931.2 734,-931.2 734,-909.2 497,-909.2"/>
<text text-anchor="start" x="526" y="-916.3" font-family="Helvetica,sans-Serif" font-size="11.00" fill="#000000">court_code</text>
<polygon fill="none" stroke="#000000" points="497,-887.2 497,-909.2 734,-909.2 734,-887.2 497,-887.2"/>
<image xlink:href="../../images/foreignKeys.png" width="11px" height="12px" preserveAspectRatio="xMinYMin meet" x="502" y="-904.2"/>
<text text-anchor="start" x="526" y="-894.3" font-family="Helvetica,sans-Serif" font-size="11.00" fill="#000000">reason_id</text>
<polygon fill="none" stroke="#000000" points="497,-865.2 497,-887.2 734,-887.2 734,-865.2 497,-865.2"/>
<text text-anchor="start" x="526" y="-872.3" font-family="Helvetica,sans-Serif" font-size="11.00" fill="#000000">direction</text>
<polygon fill="none" stroke="#000000" points="497,-843.2 497,-865.2 734,-865.2 734,-843.2 497,-843.2"/>
<text text-anchor="start" x="526" y="-850.3" font-family="Helvetica,sans-Serif" font-size="11.00" fill="#000000">occurred_at</text>
<polygon fill="none" stroke="#000000" points="497,-821.2 497,-843.2 734,-843.2 734,-821.2 497,-821.2"/>
<text text-anchor="start" x="526" y="-828.3" font-family="Helvetica,sans-Serif" font-size="11.00" fill="#000000">comments</text>
<polygon fill="#ffffff" stroke="transparent" points="497,-799.2 497,-821.2 734,-821.2 734,-799.2 497,-799.2"/>
<polygon fill="none" stroke="#000000" points="497,-799.2 497,-821.2 734,-821.2 734,-799.2 497,-799.2"/>
<text text-anchor="start" x="526" y="-806.3" font-family="Helvetica,sans-Serif" font-size="11.00" fill="#000000">legacy_id</text>
<polygon fill="#ffffff" stroke="transparent" points="497,-780.2 497,-799.2 614,-799.2 614,-780.2 497,-780.2"/>
<polygon fill="none" stroke="#000000" points="497,-780.2 497,-799.2 614,-799.2 614,-780.2 497,-780.2"/>
<text text-anchor="start" x="500" y="-786.3" font-family="Helvetica,sans-Serif" font-size="11.00" fill="#000000">&lt; 3</text>
<polygon fill="#ffffff" stroke="transparent" points="614,-780.2 614,-799.2 674,-799.2 674,-780.2 614,-780.2"/>
<polygon fill="none" stroke="#000000" points="614,-780.2 614,-799.2 674,-799.2 674,-780.2 614,-780.2"/>
<text text-anchor="start" x="664.8862" y="-786.3" font-family="Helvetica,sans-Serif" font-size="11.00" fill="#000000"> &#160;</text>
<polygon fill="#ffffff" stroke="transparent" points="674,-780.2 674,-799.2 734,-799.2 734,-780.2 674,-780.2"/>
<polygon fill="none" stroke="#000000" points="674,-780.2 674,-799.2 734,-799.2 734,-780.2 674,-780.2"/>
<text text-anchor="start" x="724.8862" y="-786.3" font-family="Helvetica,sans-Serif" font-size="11.00" fill="#000000"> &#160;</text>
</a>
</g>
</g>
<!-- court_appearance_movement&#45;&gt;court_appearance -->
<g id="edge5" class="edge">
<title>court_appearance_movement:w&#45;&gt;court_appearance:e</title>
<path fill="none" stroke="#000000" d="M482.3241,-986.2C462.5879,-986.2 452.8385,-986.2 427.5,-986.2"/>
<polygon fill="#000000" stroke="#000000" points="489,-986.2001 497,-989.8 493,-986.2 497,-986.2 497,-986.2 497,-986.2 493,-986.2 497,-982.6 489,-986.2001 489,-986.2001"/>
<ellipse fill="none" stroke="#000000" cx="485.8" cy="-986.2001" rx="3.2" ry="3.2"/>
</g>
<!-- court_appearance_movement&#45;&gt;court_appearance_reason -->
<g id="edge7" class="edge">
<title>court_appearance_movement:w&#45;&gt;court_appearance_reason:e</title>
<path fill="none" stroke="#000000" d="M482.4978,-896.8424C409.401,-881.4346 510.4104,-739.0099 435,-682.2 372.8776,-635.4005 321.1356,-634.1186 260,-682.2 199.9681,-729.4134 295.8737,-849.2 219.5,-849.2"/>
<polygon fill="#000000" stroke="#000000" points="489.0348,-897.4543 496.6644,-901.7843 493.0174,-897.8271 497,-898.2 497,-898.2 497,-898.2 493.0174,-897.8271 497.3356,-894.6157 489.0348,-897.4543 489.0348,-897.4543"/>
<ellipse fill="none" stroke="#000000" cx="485.8488" cy="-897.156" rx="3.2" ry="3.2"/>
</g>
<!-- court_appearance_movement&#45;&gt;person_summary -->
<g id="edge6" class="edge">
<title>court_appearance_movement:w&#45;&gt;person_summary:e</title>
<path fill="none" stroke="#000000" d="M482.5842,-967.0704C459.765,-977.9068 466.4218,-1016.4598 435,-1031.2 336.4813,-1077.4158 299.3202,-1044.2 190.5,-1044.2"/>
<polygon fill="#000000" stroke="#000000" points="489.154,-965.7623 497.703,-967.7307 493.077,-964.9812 497,-964.2 497,-964.2 497,-964.2 493.077,-964.9812 496.297,-960.6693 489.154,-965.7623 489.154,-965.7623"/>
<ellipse fill="none" stroke="#000000" cx="486.0156" cy="-966.3872" rx="3.2" ry="3.2"/>
</g>
<!-- court_appearance_movement_audit -->
<g id="node6" class="node">
<title>court_appearance_movement_audit</title>
<g id="a_node6"><a xlink:href="../../tables/court_appearance_movement_audit.html" xlink:title="court_appearance_movement_audit" target="_top">
<polygon fill="#ffffff" stroke="transparent" points="476,-38.2 476,-366.2 754,-366.2 754,-38.2 476,-38.2"/>
<polygon fill="#f5f5f5" stroke="transparent" points="476,-343.2 476,-366.2 754,-366.2 754,-343.2 476,-343.2"/>
<polygon fill="none" stroke="#000000" points="476,-343.2 476,-366.2 754,-366.2 754,-343.2 476,-343.2"/>
<text text-anchor="start" x="481" y="-351.8" font-family="Helvetica,sans-Serif" font-weight="bold" font-size="11.00" fill="#000000">court_appearance_movement_audit</text>
<text text-anchor="start" x="719.5219" y="-351.3" font-family="Helvetica,sans-Serif" font-size="11.00" fill="#000000">[table]</text>
<polygon fill="none" stroke="#000000" points="476,-321.2 476,-343.2 754,-343.2 754,-321.2 476,-321.2"/>
<image xlink:href="../../images/primaryKeys.png" width="11px" height="12px" preserveAspectRatio="xMinYMin meet" x="481" y="-338.2"/>
<text text-anchor="start" x="505" y="-328.3" font-family="Helvetica,sans-Serif" font-size="11.00" fill="#000000">rev_id</text>
<polygon fill="none" stroke="#000000" points="476,-299.2 476,-321.2 754,-321.2 754,-299.2 476,-299.2"/>
<text text-anchor="start" x="505" y="-306.3" font-family="Helvetica,sans-Serif" font-size="11.00" fill="#000000">rev_type</text>
<polygon fill="none" stroke="#000000" points="476,-277.2 476,-299.2 754,-299.2 754,-277.2 476,-277.2"/>
<image xlink:href="../../images/primaryKeys.png" width="11px" height="12px" preserveAspectRatio="xMinYMin meet" x="481" y="-294.2"/>
<text text-anchor="start" x="505" y="-284.3" font-family="Helvetica,sans-Serif" font-size="11.00" fill="#000000">id</text>
<polygon fill="none" stroke="#000000" points="476,-255.2 476,-277.2 754,-277.2 754,-255.2 476,-255.2"/>
<text text-anchor="start" x="505" y="-262.3" font-family="Helvetica,sans-Serif" font-size="11.00" fill="#000000">version</text>
<polygon fill="none" stroke="#000000" points="476,-233.2 476,-255.2 754,-255.2 754,-233.2 476,-233.2"/>
<text text-anchor="start" x="505" y="-240.3" font-family="Helvetica,sans-Serif" font-size="11.00" fill="#000000">court_appearance_id</text>
<polygon fill="none" stroke="#000000" points="476,-211.2 476,-233.2 754,-233.2 754,-211.2 476,-211.2"/>
<image xlink:href="../../images/foreignKeys.png" width="11px" height="12px" preserveAspectRatio="xMinYMin meet" x="481" y="-228.2"/>
<text text-anchor="start" x="505" y="-218.3" font-family="Helvetica,sans-Serif" font-size="11.00" fill="#000000">person_identifier</text>
<polygon fill="none" stroke="#000000" points="476,-189.2 476,-211.2 754,-211.2 754,-189.2 476,-189.2"/>
<text text-anchor="start" x="505" y="-196.3" font-family="Helvetica,sans-Serif" font-size="11.00" fill="#000000">prison_code</text>
<polygon fill="none" stroke="#000000" points="476,-167.2 476,-189.2 754,-189.2 754,-167.2 476,-167.2"/>
<text text-anchor="start" x="505" y="-174.3" font-family="Helvetica,sans-Serif" font-size="11.00" fill="#000000">court_code</text>
<polygon fill="none" stroke="#000000" points="476,-145.2 476,-167.2 754,-167.2 754,-145.2 476,-145.2"/>
<text text-anchor="start" x="505" y="-152.3" font-family="Helvetica,sans-Serif" font-size="11.00" fill="#000000">reason_id</text>
<polygon fill="none" stroke="#000000" points="476,-123.2 476,-145.2 754,-145.2 754,-123.2 476,-123.2"/>
<text text-anchor="start" x="505" y="-130.3" font-family="Helvetica,sans-Serif" font-size="11.00" fill="#000000">direction</text>
<polygon fill="none" stroke="#000000" points="476,-101.2 476,-123.2 754,-123.2 754,-101.2 476,-101.2"/>
<text text-anchor="start" x="505" y="-108.3" font-family="Helvetica,sans-Serif" font-size="11.00" fill="#000000">occurred_at</text>
<polygon fill="none" stroke="#000000" points="476,-79.2 476,-101.2 754,-101.2 754,-79.2 476,-79.2"/>
<text text-anchor="start" x="505" y="-86.3" font-family="Helvetica,sans-Serif" font-size="11.00" fill="#000000">comments</text>
<polygon fill="none" stroke="#000000" points="476,-57.2 476,-79.2 754,-79.2 754,-57.2 476,-57.2"/>
<text text-anchor="start" x="505" y="-64.3" font-family="Helvetica,sans-Serif" font-size="11.00" fill="#000000">legacy_id</text>
<polygon fill="#ffffff" stroke="transparent" points="476,-38.2 476,-57.2 613,-57.2 613,-38.2 476,-38.2"/>
<polygon fill="none" stroke="#000000" points="476,-38.2 476,-57.2 613,-57.2 613,-38.2 476,-38.2"/>
<text text-anchor="start" x="479" y="-44.3" font-family="Helvetica,sans-Serif" font-size="11.00" fill="#000000">&lt; 1</text>
<polygon fill="#ffffff" stroke="transparent" points="613,-38.2 613,-57.2 683,-57.2 683,-38.2 613,-38.2"/>
<polygon fill="none" stroke="#000000" points="613,-38.2 613,-57.2 683,-57.2 683,-38.2 613,-38.2"/>
<text text-anchor="start" x="673.8862" y="-44.3" font-family="Helvetica,sans-Serif" font-size="11.00" fill="#000000"> &#160;</text>
<polygon fill="#ffffff" stroke="transparent" points="683,-38.2 683,-57.2 754,-57.2 754,-38.2 683,-38.2"/>
<polygon fill="none" stroke="#000000" points="683,-38.2 683,-57.2 754,-57.2 754,-38.2 683,-38.2"/>
<text text-anchor="start" x="744.8862" y="-44.3" font-family="Helvetica,sans-Serif" font-size="11.00" fill="#000000"> &#160;</text>
</a>
</g>
</g>
<!-- court_appearance_movement_audit&#45;&gt;audit_revision -->
<g id="edge8" class="edge">
<title>court_appearance_movement_audit:w&#45;&gt;audit_revision:e</title>
<path fill="none" stroke="#000000" d="M461.7992,-334.9766C419.8139,-354.5672 476.3809,-471.2 414.5,-471.2"/>
<polygon fill="#000000" stroke="#000000" points="468.1487,-333.7352 476.6908,-335.7331 472.0743,-332.9676 476,-332.2 476,-332.2 476,-332.2 472.0743,-332.9676 475.3092,-328.6669 468.1487,-333.7352 468.1487,-333.7352"/>
<ellipse fill="none" stroke="#000000" cx="465.0081" cy="-334.3492" rx="3.2" ry="3.2"/>
</g>
</g>
</svg>
