<?xml version="1.0" encoding="UTF-8" standalone="no"?>
<!DOCTYPE svg PUBLIC "-//W3C//DTD SVG 1.1//EN"
 "http://www.w3.org/Graphics/SVG/1.1/DTD/svg11.dtd">
<!-- Generated by graphviz version 2.40.1 (20161225.0304)
 -->
<!-- Title: largeRelationshipsDiagram Pages: 1 -->
<svg width="770pt" height="1010pt"
 viewBox="0.00 0.00 770.00 1010.20" xmlns="http://www.w3.org/2000/svg" xmlns:xlink="http://www.w3.org/1999/xlink">
<g id="graph0" class="graph" transform="scale(1 1) rotate(0) translate(4 1006.2)">
<title>largeRelationshipsDiagram</title>
<polygon fill="#ffffff" stroke="transparent" points="-4,4 -4,-1006.2 766,-1006.2 766,4 -4,4"/>
<text text-anchor="middle" x="72.4936" y="-7.3" font-family="Helvetica,sans-Serif" font-size="11.00" fill="#000000">Generated by SchemaSpy</text>
<!-- court_appearance_audit -->
<g id="node1" class="node">
<title>court_appearance_audit</title>
<g id="a_node1"><a xlink:href="../../tables/court_appearance_audit.html" xlink:title="court_appearance_audit" target="_top">
<polygon fill="#ffffff" stroke="transparent" points="515,-365.2 515,-715.2 715,-715.2 715,-365.2 515,-365.2"/>
<polygon fill="#f5f5f5" stroke="transparent" points="515,-692.2 515,-715.2 715,-715.2 715,-692.2 515,-692.2"/>
<polygon fill="none" stroke="#000000" points="515,-692.2 515,-715.2 715,-715.2 715,-692.2 515,-692.2"/>
<text text-anchor="start" x="520" y="-700.8" font-family="Helvetica,sans-Serif" font-weight="bold" font-size="11.00" fill="#000000">court_appearance_audit</text>
<text text-anchor="start" x="680.5219" y="-700.3" font-family="Helvetica,sans-Serif" font-size="11.00" fill="#000000">[table]</text>
<polygon fill="none" stroke="#000000" points="515,-670.2 515,-692.2 715,-692.2 715,-670.2 515,-670.2"/>
<image xlink:href="../../images/primaryKeys.png" width="11px" height="12px" preserveAspectRatio="xMinYMin meet" x="520" y="-687.2"/>
<text text-anchor="start" x="544" y="-677.3" font-family="Helvetica,sans-Serif" font-size="11.00" fill="#000000">rev_id</text>
<polygon fill="none" stroke="#000000" points="515,-648.2 515,-670.2 715,-670.2 715,-648.2 515,-648.2"/>
<text text-anchor="start" x="544" y="-655.3" font-family="Helvetica,sans-Serif" font-size="11.00" fill="#000000">rev_type</text>
<polygon fill="none" stroke="#000000" points="515,-626.2 515,-648.2 715,-648.2 715,-626.2 515,-626.2"/>
<image xlink:href="../../images/primaryKeys.png" width="11px" height="12px" preserveAspectRatio="xMinYMin meet" x="520" y="-643.2"/>
<text text-anchor="start" x="544" y="-633.3" font-family="Helvetica,sans-Serif" font-size="11.00" fill="#000000">id</text>
<polygon fill="none" stroke="#000000" points="515,-604.2 515,-626.2 715,-626.2 715,-604.2 515,-604.2"/>
<text text-anchor="start" x="544" y="-611.3" font-family="Helvetica,sans-Serif" font-size="11.00" fill="#000000">version</text>
<polygon fill="none" stroke="#000000" points="515,-582.2 515,-604.2 715,-604.2 715,-582.2 515,-582.2"/>
<image xlink:href="../../images/foreignKeys.png" width="11px" height="12px" preserveAspectRatio="xMinYMin meet" x="520" y="-599.2"/>
<text text-anchor="start" x="544" y="-589.3" font-family="Helvetica,sans-Serif" font-size="11.00" fill="#000000">person_identifier</text>
<polygon fill="none" stroke="#000000" points="515,-560.2 515,-582.2 715,-582.2 715,-560.2 515,-560.2"/>
<text text-anchor="start" x="544" y="-567.3" font-family="Helvetica,sans-Serif" font-size="11.00" fill="#000000">prison_code</text>
<polygon fill="none" stroke="#000000" points="515,-538.2 515,-560.2 715,-560.2 715,-538.2 515,-538.2"/>
<text text-anchor="start" x="544" y="-545.3" font-family="Helvetica,sans-Serif" font-size="11.00" fill="#000000">court_code</text>
<polygon fill="none" stroke="#000000" points="515,-516.2 515,-538.2 715,-538.2 715,-516.2 515,-516.2"/>
<text text-anchor="start" x="544" y="-523.3" font-family="Helvetica,sans-Serif" font-size="11.00" fill="#000000">reason_id</text>
<polygon fill="none" stroke="#000000" points="515,-494.2 515,-516.2 715,-516.2 715,-494.2 515,-494.2"/>
<text text-anchor="start" x="544" y="-501.3" font-family="Helvetica,sans-Serif" font-size="11.00" fill="#000000">external</text>
<polygon fill="none" stroke="#000000" points="515,-472.2 515,-494.2 715,-494.2 715,-472.2 515,-472.2"/>
<text text-anchor="start" x="544" y="-479.3" font-family="Helvetica,sans-Serif" font-size="11.00" fill="#000000">status_id</text>
<polygon fill="none" stroke="#000000" points="515,-450.2 515,-472.2 715,-472.2 715,-450.2 515,-450.2"/>
<text text-anchor="start" x="544" y="-457.3" font-family="Helvetica,sans-Serif" font-size="11.00" fill="#000000">start</text>
<polygon fill="none" stroke="#000000" points="515,-428.2 515,-450.2 715,-450.2 715,-428.2 515,-428.2"/>
<text text-anchor="start" x="544" y="-435.3" font-family="Helvetica,sans-Serif" font-size="11.00" fill="#000000">end</text>
<polygon fill="none" stroke="#000000" points="515,-406.2 515,-428.2 715,-428.2 715,-406.2 515,-406.2"/>
<text text-anchor="start" x="544" y="-413.3" font-family="Helvetica,sans-Serif" font-size="11.00" fill="#000000">comments</text>
<polygon fill="none" stroke="#000000" points="515,-384.2 515,-406.2 715,-406.2 715,-384.2 515,-384.2"/>
<image xlink:href="../../images/foreignKeys.png" width="11px" height="12px" preserveAspectRatio="xMinYMin meet" x="520" y="-401.2"/>
<text text-anchor="start" x="544" y="-391.3" font-family="Helvetica,sans-Serif" font-size="11.00" fill="#000000">legacy_id</text>
<polygon fill="#ffffff" stroke="transparent" points="515,-365.2 515,-384.2 613,-384.2 613,-365.2 515,-365.2"/>
<polygon fill="none" stroke="#000000" points="515,-365.2 515,-384.2 613,-384.2 613,-365.2 515,-365.2"/>
<text text-anchor="start" x="518" y="-371.3" font-family="Helvetica,sans-Serif" font-size="11.00" fill="#000000">&lt; 1</text>
<polygon fill="#ffffff" stroke="transparent" points="613,-365.2 613,-384.2 664,-384.2 664,-365.2 613,-365.2"/>
<polygon fill="none" stroke="#000000" points="613,-365.2 613,-384.2 664,-384.2 664,-365.2 613,-365.2"/>
<text text-anchor="start" x="654.8862" y="-371.3" font-family="Helvetica,sans-Serif" font-size="11.00" fill="#000000"> &#160;</text>
<polygon fill="#ffffff" stroke="transparent" points="664,-365.2 664,-384.2 715,-384.2 715,-365.2 664,-365.2"/>
<polygon fill="none" stroke="#000000" points="664,-365.2 664,-384.2 715,-384.2 715,-365.2 664,-365.2"/>
<text text-anchor="start" x="705.8862" y="-371.3" font-family="Helvetica,sans-Serif" font-size="11.00" fill="#000000"> &#160;</text>
</a>
</g>
</g>
<!-- audit_revision -->
<g id="node7" class="node">
<title>audit_revision</title>
<g id="a_node7"><a xlink:href="../../tables/audit_revision.html" xlink:title="audit_revision" target="_top">
<polygon fill="#ffffff" stroke="transparent" points="280.5,-269.2 280.5,-465.2 414.5,-465.2 414.5,-269.2 280.5,-269.2"/>
<polygon fill="#f5f5f5" stroke="transparent" points="280.5,-442.2 280.5,-465.2 414.5,-465.2 414.5,-442.2 280.5,-442.2"/>
<polygon fill="none" stroke="#000000" points="280.5,-442.2 280.5,-465.2 414.5,-465.2 414.5,-442.2 280.5,-442.2"/>
<text text-anchor="start" x="285.5" y="-450.8" font-family="Helvetica,sans-Serif" font-weight="bold" font-size="11.00" fill="#000000">audit_revision</text>
<text text-anchor="start" x="380.0219" y="-450.3" font-family="Helvetica,sans-Serif" font-size="11.00" fill="#000000">[table]</text>
<polygon fill="none" stroke="#000000" points="280.5,-420.2 280.5,-442.2 414.5,-442.2 414.5,-420.2 280.5,-420.2"/>
<image xlink:href="../../images/primaryKeys.png" width="11px" height="12px" preserveAspectRatio="xMinYMin meet" x="285.5" y="-437.2"/>
<text text-anchor="start" x="300.5" y="-427.3" font-family="Helvetica,sans-Serif" font-size="11.00" fill="#000000">id</text>
<polygon fill="none" stroke="#000000" points="280.5,-398.2 280.5,-420.2 414.5,-420.2 414.5,-398.2 280.5,-398.2"/>
<text text-anchor="start" x="300.5" y="-405.3" font-family="Helvetica,sans-Serif" font-size="11.00" fill="#000000">timestamp</text>
<polygon fill="none" stroke="#000000" points="280.5,-376.2 280.5,-398.2 414.5,-398.2 414.5,-376.2 280.5,-376.2"/>
<text text-anchor="start" x="300.5" y="-383.3" font-family="Helvetica,sans-Serif" font-size="11.00" fill="#000000">source</text>
<polygon fill="none" stroke="#000000" points="280.5,-354.2 280.5,-376.2 414.5,-376.2 414.5,-354.2 280.5,-354.2"/>
<text text-anchor="start" x="300.5" y="-361.3" font-family="Helvetica,sans-Serif" font-size="11.00" fill="#000000">affected_entities</text>
<polygon fill="none" stroke="#000000" points="280.5,-332.2 280.5,-354.2 414.5,-354.2 414.5,-332.2 280.5,-332.2"/>
<text text-anchor="start" x="300.5" y="-339.3" font-family="Helvetica,sans-Serif" font-size="11.00" fill="#000000">username</text>
<polygon fill="none" stroke="#000000" points="280.5,-310.2 280.5,-332.2 414.5,-332.2 414.5,-310.2 280.5,-310.2"/>
<text text-anchor="start" x="300.5" y="-317.3" font-family="Helvetica,sans-Serif" font-size="11.00" fill="#000000">caseload_id</text>
<polygon fill="none" stroke="#000000" points="280.5,-288.2 280.5,-310.2 414.5,-310.2 414.5,-288.2 280.5,-288.2"/>
<text text-anchor="start" x="300.5" y="-295.3" font-family="Helvetica,sans-Serif" font-size="11.00" fill="#000000">reason</text>
<polygon fill="#ffffff" stroke="transparent" points="280.5,-269.2 280.5,-288.2 336.5,-288.2 336.5,-269.2 280.5,-269.2"/>
<polygon fill="none" stroke="#000000" points="280.5,-269.2 280.5,-288.2 336.5,-288.2 336.5,-269.2 280.5,-269.2"/>
<text text-anchor="start" x="283.5" y="-275.3" font-family="Helvetica,sans-Serif" font-size="11.00" fill="#000000"> &#160;</text>
<polygon fill="#ffffff" stroke="transparent" points="336.5,-269.2 336.5,-288.2 370.5,-288.2 370.5,-269.2 336.5,-269.2"/>
<polygon fill="none" stroke="#000000" points="336.5,-269.2 336.5,-288.2 370.5,-288.2 370.5,-269.2 336.5,-269.2"/>
<text text-anchor="start" x="361.3862" y="-275.3" font-family="Helvetica,sans-Serif" font-size="11.00" fill="#000000"> &#160;</text>
<polygon fill="#ffffff" stroke="transparent" points="370.5,-269.2 370.5,-288.2 414.5,-288.2 414.5,-269.2 370.5,-269.2"/>
<polygon fill="none" stroke="#000000" points="370.5,-269.2 370.5,-288.2 414.5,-288.2 414.5,-269.2 370.5,-269.2"/>
<text text-anchor="start" x="395.9053" y="-275.3" font-family="Helvetica,sans-Serif" font-size="11.00" fill="#000000">2 &gt;</text>
</a>
</g>
</g>
<!-- court_appearance_audit&#45;&gt;audit_revision -->
<g id="edge4" class="edge">
<title>court_appearance_audit:w&#45;&gt;audit_revision:e</title>
<path fill="none" stroke="#000000" d="M500.6675,-679.794C406.9646,-659.7101 528.9905,-431.2 414.5,-431.2"/>
<polygon fill="#000000" stroke="#000000" points="507.0382,-680.4189 514.6485,-684.7828 511.0191,-680.8095 515,-681.2 515,-681.2 515,-681.2 511.0191,-680.8095 515.3515,-677.6172 507.0382,-680.4189 507.0382,-680.4189"/>
<ellipse fill="none" stroke="#000000" cx="503.8535" cy="-680.1065" rx="3.2" ry="3.2"/>
</g>
<!-- court_appearance -->
<g id="node2" class="node">
<title>court_appearance</title>
<g id="a_node2"><a xlink:href="../../tables/court_appearance.html" xlink:title="court_appearance" target="_top">
<polygon fill="#ffffff" stroke="transparent" points="268,-614.2 268,-920.2 427,-920.2 427,-614.2 268,-614.2"/>
<polygon fill="#f5f5f5" stroke="transparent" points="268.5,-897.2 268.5,-920.2 427.5,-920.2 427.5,-897.2 268.5,-897.2"/>
<polygon fill="none" stroke="#000000" points="268.5,-897.2 268.5,-920.2 427.5,-920.2 427.5,-897.2 268.5,-897.2"/>
<text text-anchor="start" x="273.5" y="-905.8" font-family="Helvetica,sans-Serif" font-weight="bold" font-size="11.00" fill="#000000">court_appearance</text>
<text text-anchor="start" x="393.0219" y="-905.3" font-family="Helvetica,sans-Serif" font-size="11.00" fill="#000000">[table]</text>
<polygon fill="none" stroke="#000000" points="268.5,-875.2 268.5,-897.2 427.5,-897.2 427.5,-875.2 268.5,-875.2"/>
<image xlink:href="../../images/primaryKeys.png" width="11px" height="12px" preserveAspectRatio="xMinYMin meet" x="273.5" y="-892.2"/>
<text text-anchor="start" x="297.5" y="-882.3" font-family="Helvetica,sans-Serif" font-size="11.00" fill="#000000">id</text>
<polygon fill="none" stroke="#000000" points="268.5,-853.2 268.5,-875.2 427.5,-875.2 427.5,-853.2 268.5,-853.2"/>
<text text-anchor="start" x="297.5" y="-860.3" font-family="Helvetica,sans-Serif" font-size="11.00" fill="#000000">version</text>
<polygon fill="#ffffff" stroke="transparent" points="268.5,-831.2 268.5,-853.2 427.5,-853.2 427.5,-831.2 268.5,-831.2"/>
<polygon fill="none" stroke="#000000" points="268.5,-831.2 268.5,-853.2 427.5,-853.2 427.5,-831.2 268.5,-831.2"/>
<image xlink:href="../../images/foreignKeys.png" width="11px" height="12px" preserveAspectRatio="xMinYMin meet" x="273.5" y="-848.2"/>
<text text-anchor="start" x="297.5" y="-838.3" font-family="Helvetica,sans-Serif" font-size="11.00" fill="#000000">person_identifier</text>
<polygon fill="#ffffff" stroke="transparent" points="268.5,-809.2 268.5,-831.2 427.5,-831.2 427.5,-809.2 268.5,-809.2"/>
<polygon fill="none" stroke="#000000" points="268.5,-809.2 268.5,-831.2 427.5,-831.2 427.5,-809.2 268.5,-809.2"/>
<text text-anchor="start" x="297.5" y="-816.3" font-family="Helvetica,sans-Serif" font-size="11.00" fill="#000000">prison_code</text>
<polygon fill="none" stroke="#000000" points="268.5,-787.2 268.5,-809.2 427.5,-809.2 427.5,-787.2 268.5,-787.2"/>
<text text-anchor="start" x="297.5" y="-794.3" font-family="Helvetica,sans-Serif" font-size="11.00" fill="#000000">court_code</text>
<polygon fill="#ffffff" stroke="transparent" points="268.5,-765.2 268.5,-787.2 427.5,-787.2 427.5,-765.2 268.5,-765.2"/>
<polygon fill="none" stroke="#000000" points="268.5,-765.2 268.5,-787.2 427.5,-787.2 427.5,-765.2 268.5,-765.2"/>
<image xlink:href="../../images/foreignKeys.png" width="11px" height="12px" preserveAspectRatio="xMinYMin meet" x="273.5" y="-782.2"/>
<text text-anchor="start" x="297.5" y="-772.3" font-family="Helvetica,sans-Serif" font-size="11.00" fill="#000000">reason_id</text>
<polygon fill="none" stroke="#000000" points="268.5,-743.2 268.5,-765.2 427.5,-765.2 427.5,-743.2 268.5,-743.2"/>
<text text-anchor="start" x="297.5" y="-750.3" font-family="Helvetica,sans-Serif" font-size="11.00" fill="#000000">external</text>
<polygon fill="#ffffff" stroke="transparent" points="268.5,-721.2 268.5,-743.2 427.5,-743.2 427.5,-721.2 268.5,-721.2"/>
<polygon fill="none" stroke="#000000" points="268.5,-721.2 268.5,-743.2 427.5,-743.2 427.5,-721.2 268.5,-721.2"/>
<image xlink:href="../../images/foreignKeys.png" width="11px" height="12px" preserveAspectRatio="xMinYMin meet" x="273.5" y="-738.2"/>
<text text-anchor="start" x="297.5" y="-728.3" font-family="Helvetica,sans-Serif" font-size="11.00" fill="#000000">status_id</text>
<polygon fill="#ffffff" stroke="transparent" points="268.5,-699.2 268.5,-721.2 427.5,-721.2 427.5,-699.2 268.5,-699.2"/>
<polygon fill="none" stroke="#000000" points="268.5,-699.2 268.5,-721.2 427.5,-721.2 427.5,-699.2 268.5,-699.2"/>
<text text-anchor="start" x="297.5" y="-706.3" font-family="Helvetica,sans-Serif" font-size="11.00" fill="#000000">start</text>
<polygon fill="none" stroke="#000000" points="268.5,-677.2 268.5,-699.2 427.5,-699.2 427.5,-677.2 268.5,-677.2"/>
<text text-anchor="start" x="297.5" y="-684.3" font-family="Helvetica,sans-Serif" font-size="11.00" fill="#000000">end</text>
<polygon fill="none" stroke="#000000" points="268.5,-655.2 268.5,-677.2 427.5,-677.2 427.5,-655.2 268.5,-655.2"/>
<text text-anchor="start" x="297.5" y="-662.3" font-family="Helvetica,sans-Serif" font-size="11.00" fill="#000000">comments</text>
<polygon fill="#ffffff" stroke="transparent" points="268.5,-633.2 268.5,-655.2 427.5,-655.2 427.5,-633.2 268.5,-633.2"/>
<polygon fill="none" stroke="#000000" points="268.5,-633.2 268.5,-655.2 427.5,-655.2 427.5,-633.2 268.5,-633.2"/>
<image xlink:href="../../images/foreignKeys.png" width="11px" height="12px" preserveAspectRatio="xMinYMin meet" x="273.5" y="-650.2"/>
<text text-anchor="start" x="297.5" y="-640.3" font-family="Helvetica,sans-Serif" font-size="11.00" fill="#000000">legacy_id</text>
<polygon fill="#ffffff" stroke="transparent" points="268.5,-614.2 268.5,-633.2 341.5,-633.2 341.5,-614.2 268.5,-614.2"/>
<polygon fill="none" stroke="#000000" points="268.5,-614.2 268.5,-633.2 341.5,-633.2 341.5,-614.2 268.5,-614.2"/>
<text text-anchor="start" x="271.5" y="-620.3" font-family="Helvetica,sans-Serif" font-size="11.00" fill="#000000">&lt; 3</text>
<polygon fill="#ffffff" stroke="transparent" points="341.5,-614.2 341.5,-633.2 379.5,-633.2 379.5,-614.2 341.5,-614.2"/>
<polygon fill="none" stroke="#000000" points="341.5,-614.2 341.5,-633.2 379.5,-633.2 379.5,-614.2 341.5,-614.2"/>
<text text-anchor="start" x="370.3862" y="-620.3" font-family="Helvetica,sans-Serif" font-size="11.00" fill="#000000"> &#160;</text>
<polygon fill="#ffffff" stroke="transparent" points="379.5,-614.2 379.5,-633.2 427.5,-633.2 427.5,-614.2 379.5,-614.2"/>
<polygon fill="none" stroke="#000000" points="379.5,-614.2 379.5,-633.2 427.5,-633.2 427.5,-614.2 379.5,-614.2"/>
<text text-anchor="start" x="408.9053" y="-620.3" font-family="Helvetica,sans-Serif" font-size="11.00" fill="#000000">1 &gt;</text>
</a>
</g>
</g>
<!-- court_appearance_reason -->
<g id="node3" class="node">
<title>court_appearance_reason</title>
<g id="a_node3"><a xlink:href="../../tables/court_appearance_reason.html" xlink:title="court_appearance_reason" target="_top">
<polygon fill="#ffffff" stroke="transparent" points="8,-623.2 8,-797.2 219,-797.2 219,-623.2 8,-623.2"/>
<polygon fill="#f5f5f5" stroke="transparent" points="8.5,-774.2 8.5,-797.2 219.5,-797.2 219.5,-774.2 8.5,-774.2"/>
<polygon fill="none" stroke="#000000" points="8.5,-774.2 8.5,-797.2 219.5,-797.2 219.5,-774.2 8.5,-774.2"/>
<text text-anchor="start" x="13.5" y="-782.8" font-family="Helvetica,sans-Serif" font-weight="bold" font-size="11.00" fill="#000000">court_appearance_reason</text>
<text text-anchor="start" x="185.0219" y="-782.3" font-family="Helvetica,sans-Serif" font-size="11.00" fill="#000000">[table]</text>
<polygon fill="none" stroke="#000000" points="8.5,-752.2 8.5,-774.2 219.5,-774.2 219.5,-752.2 8.5,-752.2"/>
<image xlink:href="../../images/primaryKeys.png" width="11px" height="12px" preserveAspectRatio="xMinYMin meet" x="13.5" y="-769.2"/>
<text text-anchor="start" x="37.5" y="-759.3" font-family="Helvetica,sans-Serif" font-size="11.00" fill="#000000">id</text>
<polygon fill="#ffffff" stroke="transparent" points="8.5,-730.2 8.5,-752.2 219.5,-752.2 219.5,-730.2 8.5,-730.2"/>
<polygon fill="none" stroke="#000000" points="8.5,-730.2 8.5,-752.2 219.5,-752.2 219.5,-730.2 8.5,-730.2"/>
<text text-anchor="start" x="37.5" y="-737.3" font-family="Helvetica,sans-Serif" font-size="11.00" fill="#000000">code</text>
<polygon fill="none" stroke="#000000" points="8.5,-708.2 8.5,-730.2 219.5,-730.2 219.5,-708.2 8.5,-708.2"/>
<text text-anchor="start" x="37.5" y="-715.3" font-family="Helvetica,sans-Serif" font-size="11.00" fill="#000000">description</text>
<polygon fill="#ffffff" stroke="transparent" points="8.5,-686.2 8.5,-708.2 219.5,-708.2 219.5,-686.2 8.5,-686.2"/>
<polygon fill="none" stroke="#000000" points="8.5,-686.2 8.5,-708.2 219.5,-708.2 219.5,-686.2 8.5,-686.2"/>
<text text-anchor="start" x="37.5" y="-693.3" font-family="Helvetica,sans-Serif" font-size="11.00" fill="#000000">sequence_number</text>
<polygon fill="none" stroke="#000000" points="8.5,-664.2 8.5,-686.2 219.5,-686.2 219.5,-664.2 8.5,-664.2"/>
<text text-anchor="start" x="37.5" y="-671.3" font-family="Helvetica,sans-Serif" font-size="11.00" fill="#000000">active</text>
<polygon fill="none" stroke="#000000" points="8.5,-642.2 8.5,-664.2 219.5,-664.2 219.5,-642.2 8.5,-642.2"/>
<text text-anchor="start" x="37.5" y="-649.3" font-family="Helvetica,sans-Serif" font-size="11.00" fill="#000000">external</text>
<polygon fill="#ffffff" stroke="transparent" points="8.5,-623.2 8.5,-642.2 103.5,-642.2 103.5,-623.2 8.5,-623.2"/>
<polygon fill="none" stroke="#000000" points="8.5,-623.2 8.5,-642.2 103.5,-642.2 103.5,-623.2 8.5,-623.2"/>
<text text-anchor="start" x="11.5" y="-629.3" font-family="Helvetica,sans-Serif" font-size="11.00" fill="#000000"> &#160;</text>
<polygon fill="#ffffff" stroke="transparent" points="103.5,-623.2 103.5,-642.2 156.5,-642.2 156.5,-623.2 103.5,-623.2"/>
<polygon fill="none" stroke="#000000" points="103.5,-623.2 103.5,-642.2 156.5,-642.2 156.5,-623.2 103.5,-623.2"/>
<text text-anchor="start" x="147.3862" y="-629.3" font-family="Helvetica,sans-Serif" font-size="11.00" fill="#000000"> &#160;</text>
<polygon fill="#ffffff" stroke="transparent" points="156.5,-623.2 156.5,-642.2 219.5,-642.2 219.5,-623.2 156.5,-623.2"/>
<polygon fill="none" stroke="#000000" points="156.5,-623.2 156.5,-642.2 219.5,-642.2 219.5,-623.2 156.5,-623.2"/>
<text text-anchor="start" x="200.9053" y="-629.3" font-family="Helvetica,sans-Serif" font-size="11.00" fill="#000000">1 &gt;</text>
</a>
</g>
</g>
<!-- court_appearance&#45;&gt;court_appearance_reason -->
<g id="edge2" class="edge">
<title>court_appearance:w&#45;&gt;court_appearance_reason:e</title>
<path fill="none" stroke="#000000" d="M254.1439,-774.0533C242.7026,-770.3609 236.2224,-763.2 219.5,-763.2"/>
<polygon fill="#000000" stroke="#000000" points="260.588,-775.0169 267.9676,-779.7604 264.544,-775.6084 268.5,-776.2 268.5,-776.2 268.5,-776.2 264.544,-775.6084 269.0324,-772.6396 260.588,-775.0169 260.588,-775.0169"/>
<ellipse fill="none" stroke="#000000" cx="257.4232" cy="-774.5436" rx="3.2" ry="3.2"/>
</g>
<!-- court_appearance_status -->
<g id="node5" class="node">
<title>court_appearance_status</title>
<g id="a_node5"><a xlink:href="../../tables/court_appearance_status.html" xlink:title="court_appearance_status" target="_top">
<polygon fill="#ffffff" stroke="transparent" points="9.5,-472.2 9.5,-602.2 217.5,-602.2 217.5,-472.2 9.5,-472.2"/>
<polygon fill="#f5f5f5" stroke="transparent" points="9.5,-579.2 9.5,-602.2 217.5,-602.2 217.5,-579.2 9.5,-579.2"/>
<polygon fill="none" stroke="#000000" points="9.5,-579.2 9.5,-602.2 217.5,-602.2 217.5,-579.2 9.5,-579.2"/>
<text text-anchor="start" x="14.5" y="-587.8" font-family="Helvetica,sans-Serif" font-weight="bold" font-size="11.00" fill="#000000">court_appearance_status</text>
<text text-anchor="start" x="183.0219" y="-587.3" font-family="Helvetica,sans-Serif" font-size="11.00" fill="#000000">[table]</text>
<polygon fill="none" stroke="#000000" points="9.5,-557.2 9.5,-579.2 217.5,-579.2 217.5,-557.2 9.5,-557.2"/>
<image xlink:href="../../images/primaryKeys.png" width="11px" height="12px" preserveAspectRatio="xMinYMin meet" x="14.5" y="-574.2"/>
<text text-anchor="start" x="38.5" y="-564.3" font-family="Helvetica,sans-Serif" font-size="11.00" fill="#000000">id</text>
<polygon fill="#ffffff" stroke="transparent" points="9.5,-535.2 9.5,-557.2 217.5,-557.2 217.5,-535.2 9.5,-535.2"/>
<polygon fill="none" stroke="#000000" points="9.5,-535.2 9.5,-557.2 217.5,-557.2 217.5,-535.2 9.5,-535.2"/>
<text text-anchor="start" x="38.5" y="-542.3" font-family="Helvetica,sans-Serif" font-size="11.00" fill="#000000">code</text>
<polygon fill="none" stroke="#000000" points="9.5,-513.2 9.5,-535.2 217.5,-535.2 217.5,-513.2 9.5,-513.2"/>
<text text-anchor="start" x="38.5" y="-520.3" font-family="Helvetica,sans-Serif" font-size="11.00" fill="#000000">description</text>
<polygon fill="#ffffff" stroke="transparent" points="9.5,-491.2 9.5,-513.2 217.5,-513.2 217.5,-491.2 9.5,-491.2"/>
<polygon fill="none" stroke="#000000" points="9.5,-491.2 9.5,-513.2 217.5,-513.2 217.5,-491.2 9.5,-491.2"/>
<text text-anchor="start" x="38.5" y="-498.3" font-family="Helvetica,sans-Serif" font-size="11.00" fill="#000000">sequence_number</text>
<polygon fill="#ffffff" stroke="transparent" points="9.5,-472.2 9.5,-491.2 102.5,-491.2 102.5,-472.2 9.5,-472.2"/>
<polygon fill="none" stroke="#000000" points="9.5,-472.2 9.5,-491.2 102.5,-491.2 102.5,-472.2 9.5,-472.2"/>
<text text-anchor="start" x="12.5" y="-478.3" font-family="Helvetica,sans-Serif" font-size="11.00" fill="#000000"> &#160;</text>
<polygon fill="#ffffff" stroke="transparent" points="102.5,-472.2 102.5,-491.2 155.5,-491.2 155.5,-472.2 102.5,-472.2"/>
<polygon fill="none" stroke="#000000" points="102.5,-472.2 102.5,-491.2 155.5,-491.2 155.5,-472.2 102.5,-472.2"/>
<text text-anchor="start" x="146.3862" y="-478.3" font-family="Helvetica,sans-Serif" font-size="11.00" fill="#000000"> &#160;</text>
<polygon fill="#ffffff" stroke="transparent" points="155.5,-472.2 155.5,-491.2 217.5,-491.2 217.5,-472.2 155.5,-472.2"/>
<polygon fill="none" stroke="#000000" points="155.5,-472.2 155.5,-491.2 217.5,-491.2 217.5,-472.2 155.5,-472.2"/>
<text text-anchor="start" x="198.9053" y="-478.3" font-family="Helvetica,sans-Serif" font-size="11.00" fill="#000000">1 &gt;</text>
</a>
</g>
</g>
<!-- court_appearance&#45;&gt;court_appearance_status -->
<g id="edge3" class="edge">
<title>court_appearance:w&#45;&gt;court_appearance_status:e</title>
<path fill="none" stroke="#000000" d="M254.3001,-729.624C206.2783,-708.7596 288.1667,-568.2 217.5,-568.2"/>
<polygon fill="#000000" stroke="#000000" points="260.6285,-730.772 267.8574,-735.7422 264.5642,-731.486 268.5,-732.2 268.5,-732.2 268.5,-732.2 264.5642,-731.486 269.1426,-728.6578 260.6285,-730.772 260.6285,-730.772"/>
<ellipse fill="none" stroke="#000000" cx="257.4799" cy="-730.2007" rx="3.2" ry="3.2"/>
</g>
<!-- person_summary -->
<g id="node8" class="node">
<title>person_summary</title>
<g id="a_node8"><a xlink:href="../../tables/person_summary.html" xlink:title="person_summary" target="_top">
<polygon fill="#ffffff" stroke="transparent" points="36.5,-818.2 36.5,-992.2 190.5,-992.2 190.5,-818.2 36.5,-818.2"/>
<polygon fill="#f5f5f5" stroke="transparent" points="36.5,-969.2 36.5,-992.2 190.5,-992.2 190.5,-969.2 36.5,-969.2"/>
<polygon fill="none" stroke="#000000" points="36.5,-969.2 36.5,-992.2 190.5,-992.2 190.5,-969.2 36.5,-969.2"/>
<text text-anchor="start" x="41.5" y="-977.8" font-family="Helvetica,sans-Serif" font-weight="bold" font-size="11.00" fill="#000000">person_summary</text>
<text text-anchor="start" x="156.0219" y="-977.3" font-family="Helvetica,sans-Serif" font-size="11.00" fill="#000000">[table]</text>
<polygon fill="none" stroke="#000000" points="36.5,-947.2 36.5,-969.2 190.5,-969.2 190.5,-947.2 36.5,-947.2"/>
<image xlink:href="../../images/primaryKeys.png" width="11px" height="12px" preserveAspectRatio="xMinYMin meet" x="41.5" y="-964.2"/>
<text text-anchor="start" x="65.5" y="-954.3" font-family="Helvetica,sans-Serif" font-size="11.00" fill="#000000">person_identifier</text>
<polygon fill="none" stroke="#000000" points="36.5,-925.2 36.5,-947.2 190.5,-947.2 190.5,-925.2 36.5,-925.2"/>
<text text-anchor="start" x="65.5" y="-932.3" font-family="Helvetica,sans-Serif" font-size="11.00" fill="#000000">version</text>
<polygon fill="none" stroke="#000000" points="36.5,-903.2 36.5,-925.2 190.5,-925.2 190.5,-903.2 36.5,-903.2"/>
<text text-anchor="start" x="65.5" y="-910.3" font-family="Helvetica,sans-Serif" font-size="11.00" fill="#000000">first_name</text>
<polygon fill="none" stroke="#000000" points="36.5,-881.2 36.5,-903.2 190.5,-903.2 190.5,-881.2 36.5,-881.2"/>
<text text-anchor="start" x="65.5" y="-888.3" font-family="Helvetica,sans-Serif" font-size="11.00" fill="#000000">last_name</text>
<polygon fill="none" stroke="#000000" points="36.5,-859.2 36.5,-881.2 190.5,-881.2 190.5,-859.2 36.5,-859.2"/>
<text text-anchor="start" x="65.5" y="-866.3" font-family="Helvetica,sans-Serif" font-size="11.00" fill="#000000">prison_code</text>
<polygon fill="none" stroke="#000000" points="36.5,-837.2 36.5,-859.2 190.5,-859.2 190.5,-837.2 36.5,-837.2"/>
<text text-anchor="start" x="65.5" y="-844.3" font-family="Helvetica,sans-Serif" font-size="11.00" fill="#000000">cell_location</text>
<polygon fill="#ffffff" stroke="transparent" points="36.5,-818.2 36.5,-837.2 102.5,-837.2 102.5,-818.2 36.5,-818.2"/>
<polygon fill="none" stroke="#000000" points="36.5,-818.2 36.5,-837.2 102.5,-837.2 102.5,-818.2 36.5,-818.2"/>
<text text-anchor="start" x="39.5" y="-824.3" font-family="Helvetica,sans-Serif" font-size="11.00" fill="#000000"> &#160;</text>
<polygon fill="#ffffff" stroke="transparent" points="102.5,-818.2 102.5,-837.2 141.5,-837.2 141.5,-818.2 102.5,-818.2"/>
<polygon fill="none" stroke="#000000" points="102.5,-818.2 102.5,-837.2 141.5,-837.2 141.5,-818.2 102.5,-818.2"/>
<text text-anchor="start" x="132.3862" y="-824.3" font-family="Helvetica,sans-Serif" font-size="11.00" fill="#000000"> &#160;</text>
<polygon fill="#ffffff" stroke="transparent" points="141.5,-818.2 141.5,-837.2 190.5,-837.2 190.5,-818.2 141.5,-818.2"/>
<polygon fill="none" stroke="#000000" points="141.5,-818.2 141.5,-837.2 190.5,-837.2 190.5,-818.2 141.5,-818.2"/>
<text text-anchor="start" x="171.9053" y="-824.3" font-family="Helvetica,sans-Serif" font-size="11.00" fill="#000000">2 &gt;</text>
</a>
</g>
</g>
<!-- court_appearance&#45;&gt;person_summary -->
<g id="edge1" class="edge">
<title>court_appearance:w&#45;&gt;person_summary:e</title>
<path fill="none" stroke="#000000" d="M254.2222,-844.8408C213.8095,-862.1074 247.0452,-958.2 190.5,-958.2"/>
<polygon fill="#000000" stroke="#000000" points="260.6334,-843.655 269.1548,-845.74 264.5667,-842.9275 268.5,-842.2 268.5,-842.2 268.5,-842.2 264.5667,-842.9275 267.8452,-838.66 260.6334,-843.655 260.6334,-843.655"/>
<ellipse fill="none" stroke="#000000" cx="257.4868" cy="-844.237" rx="3.2" ry="3.2"/>
</g>
<!-- court_appearance_movement -->
<g id="node4" class="node">
<title>court_appearance_movement</title>
<g id="a_node4"><a xlink:href="../../tables/court_appearance_movement.html" xlink:title="court_appearance_movement" target="_top">
<polygon fill="#ffffff" stroke="transparent" points="496.5,-736.2 496.5,-998.2 733.5,-998.2 733.5,-736.2 496.5,-736.2"/>
<polygon fill="#f5f5f5" stroke="transparent" points="497,-975.2 497,-998.2 734,-998.2 734,-975.2 497,-975.2"/>
<polygon fill="none" stroke="#000000" points="497,-975.2 497,-998.2 734,-998.2 734,-975.2 497,-975.2"/>
<text text-anchor="start" x="502" y="-983.8" font-family="Helvetica,sans-Serif" font-weight="bold" font-size="11.00" fill="#000000">court_appearance_movement</text>
<text text-anchor="start" x="699.5219" y="-983.3" font-family="Helvetica,sans-Serif" font-size="11.00" fill="#000000">[table]</text>
<polygon fill="none" stroke="#000000" points="497,-953.2 497,-975.2 734,-975.2 734,-953.2 497,-953.2"/>
<image xlink:href="../../images/primaryKeys.png" width="11px" height="12px" preserveAspectRatio="xMinYMin meet" x="502" y="-970.2"/>
<text text-anchor="start" x="526" y="-960.3" font-family="Helvetica,sans-Serif" font-size="11.00" fill="#000000">id</text>
<polygon fill="none" stroke="#000000" points="497,-931.2 497,-953.2 734,-953.2 734,-931.2 497,-931.2"/>
<text text-anchor="start" x="526" y="-938.3" font-family="Helvetica,sans-Serif" font-size="11.00" fill="#000000">version</text>
<polygon fill="none" stroke="#000000" points="497,-909.2 497,-931.2 734,-931.2 734,-909.2 497,-909.2"/>
<image xlink:href="../../images/foreignKeys.png" width="11px" height="12px" preserveAspectRatio="xMinYMin meet" x="502" y="-926.2"/>
<text text-anchor="start" x="526" y="-916.3" font-family="Helvetica,sans-Serif" font-size="11.00" fill="#000000">court_appearance_id</text>
<polygon fill="#ffffff" stroke="transparent" points="497,-887.2 497,-909.2 734,-909.2 734,-887.2 497,-887.2"/>
<polygon fill="none" stroke="#000000" points="497,-887.2 497,-909.2 734,-909.2 734,-887.2 497,-887.2"/>
<image xlink:href="../../images/foreignKeys.png" width="11px" height="12px" preserveAspectRatio="xMinYMin meet" x="502" y="-904.2"/>
<text text-anchor="start" x="526" y="-894.3" font-family="Helvetica,sans-Serif" font-size="11.00" fill="#000000">person_identifier</text>
<polygon fill="none" stroke="#000000" points="497,-865.2 497,-887.2 734,-887.2 734,-865.2 497,-865.2"/>
<text text-anchor="start" x="526" y="-872.3" font-family="Helvetica,sans-Serif" font-size="11.00" fill="#000000">prison_code</text>
<polygon fill="none" stroke="#000000" points="497,-843.2 497,-865.2 734,-865.2 734,-843.2 497,-843.2"/>
<text text-anchor="start" x="526" y="-850.3" font-family="Helvetica,sans-Serif" font-size="11.00" fill="#000000">court_code</text>
<polygon fill="none" stroke="#000000" points="497,-821.2 497,-843.2 734,-843.2 734,-821.2 497,-821.2"/>
<text text-anchor="start" x="526" y="-828.3" font-family="Helvetica,sans-Serif" font-size="11.00" fill="#000000">direction</text>
<polygon fill="none" stroke="#000000" points="497,-799.2 497,-821.2 734,-821.2 734,-799.2 497,-799.2"/>
<text text-anchor="start" x="526" y="-806.3" font-family="Helvetica,sans-Serif" font-size="11.00" fill="#000000">occurred_at</text>
<polygon fill="none" stroke="#000000" points="497,-777.2 497,-799.2 734,-799.2 734,-777.2 497,-777.2"/>
<text text-anchor="start" x="526" y="-784.3" font-family="Helvetica,sans-Serif" font-size="11.00" fill="#000000">comments</text>
<polygon fill="#ffffff" stroke="transparent" points="497,-755.2 497,-777.2 734,-777.2 734,-755.2 497,-755.2"/>
<polygon fill="none" stroke="#000000" points="497,-755.2 497,-777.2 734,-777.2 734,-755.2 497,-755.2"/>
<text text-anchor="start" x="526" y="-762.3" font-family="Helvetica,sans-Serif" font-size="11.00" fill="#000000">legacy_id</text>
<polygon fill="#ffffff" stroke="transparent" points="497,-736.2 497,-755.2 614,-755.2 614,-736.2 497,-736.2"/>
<polygon fill="none" stroke="#000000" points="497,-736.2 497,-755.2 614,-755.2 614,-736.2 497,-736.2"/>
<text text-anchor="start" x="500" y="-742.3" font-family="Helvetica,sans-Serif" font-size="11.00" fill="#000000">&lt; 2</text>
<polygon fill="#ffffff" stroke="transparent" points="614,-736.2 614,-755.2 674,-755.2 674,-736.2 614,-736.2"/>
<polygon fill="none" stroke="#000000" points="614,-736.2 614,-755.2 674,-755.2 674,-736.2 614,-736.2"/>
<text text-anchor="start" x="664.8862" y="-742.3" font-family="Helvetica,sans-Serif" font-size="11.00" fill="#000000"> &#160;</text>
<polygon fill="#ffffff" stroke="transparent" points="674,-736.2 674,-755.2 734,-755.2 734,-736.2 674,-736.2"/>
<polygon fill="none" stroke="#000000" points="674,-736.2 674,-755.2 734,-755.2 734,-736.2 674,-736.2"/>
<text text-anchor="start" x="724.8862" y="-742.3" font-family="Helvetica,sans-Serif" font-size="11.00" fill="#000000"> &#160;</text>
</a>
</g>
</g>
<!-- court_appearance_movement&#45;&gt;court_appearance -->
<g id="edge5" class="edge">
<title>court_appearance_movement:w&#45;&gt;court_appearance:e</title>
<path fill="none" stroke="#000000" d="M482.496,-917.7548C461.4687,-909.9589 456.2454,-886.2 427.5,-886.2"/>
<polygon fill="#000000" stroke="#000000" points="489.1113,-918.87 496.4015,-923.7499 493.0557,-919.535 497,-920.2 497,-920.2 497,-920.2 493.0557,-919.535 497.5985,-916.6501 489.1113,-918.87 489.1113,-918.87"/>
<ellipse fill="none" stroke="#000000" cx="485.9558" cy="-918.338" rx="3.2" ry="3.2"/>
</g>
<!-- court_appearance_movement&#45;&gt;person_summary -->
<g id="edge6" class="edge">
<title>court_appearance_movement:w&#45;&gt;person_summary:e</title>
<path fill="none" stroke="#000000" d="M482.5007,-900.3681C464.4593,-906.4435 459.3498,-923.6797 435,-931.2 330.5412,-963.4616 299.8272,-958.2 190.5,-958.2"/>
<polygon fill="#000000" stroke="#000000" points="489.088,-899.3831 497.5324,-901.7604 493.044,-898.7916 497,-898.2 497,-898.2 497,-898.2 493.044,-898.7916 496.4676,-894.6396 489.088,-899.3831 489.088,-899.3831"/>
<ellipse fill="none" stroke="#000000" cx="485.9231" cy="-899.8564" rx="3.2" ry="3.2"/>
</g>
<!-- court_appearance_movement_audit -->
<g id="node6" class="node">
<title>court_appearance_movement_audit</title>
<g id="a_node6"><a xlink:href="../../tables/court_appearance_movement_audit.html" xlink:title="court_appearance_movement_audit" target="_top">
<polygon fill="#ffffff" stroke="transparent" points="476,-38.2 476,-344.2 754,-344.2 754,-38.2 476,-38.2"/>
<polygon fill="#f5f5f5" stroke="transparent" points="476,-321.2 476,-344.2 754,-344.2 754,-321.2 476,-321.2"/>
<polygon fill="none" stroke="#000000" points="476,-321.2 476,-344.2 754,-344.2 754,-321.2 476,-321.2"/>
<text text-anchor="start" x="481" y="-329.8" font-family="Helvetica,sans-Serif" font-weight="bold" font-size="11.00" fill="#000000">court_appearance_movement_audit</text>
<text text-anchor="start" x="719.5219" y="-329.3" font-family="Helvetica,sans-Serif" font-size="11.00" fill="#000000">[table]</text>
<polygon fill="none" stroke="#000000" points="476,-299.2 476,-321.2 754,-321.2 754,-299.2 476,-299.2"/>
<image xlink:href="../../images/primaryKeys.png" width="11px" height="12px" preserveAspectRatio="xMinYMin meet" x="481" y="-316.2"/>
<text text-anchor="start" x="505" y="-306.3" font-family="Helvetica,sans-Serif" font-size="11.00" fill="#000000">rev_id</text>
<polygon fill="none" stroke="#000000" points="476,-277.2 476,-299.2 754,-299.2 754,-277.2 476,-277.2"/>
<text text-anchor="start" x="505" y="-284.3" font-family="Helvetica,sans-Serif" font-size="11.00" fill="#000000">rev_type</text>
<polygon fill="none" stroke="#000000" points="476,-255.2 476,-277.2 754,-277.2 754,-255.2 476,-255.2"/>
<image xlink:href="../../images/primaryKeys.png" width="11px" height="12px" preserveAspectRatio="xMinYMin meet" x="481" y="-272.2"/>
<text text-anchor="start" x="505" y="-262.3" font-family="Helvetica,sans-Serif" font-size="11.00" fill="#000000">id</text>
<polygon fill="none" stroke="#000000" points="476,-233.2 476,-255.2 754,-255.2 754,-233.2 476,-233.2"/>
<text text-anchor="start" x="505" y="-240.3" font-family="Helvetica,sans-Serif" font-size="11.00" fill="#000000">version</text>
<polygon fill="none" stroke="#000000" points="476,-211.2 476,-233.2 754,-233.2 754,-211.2 476,-211.2"/>
<text text-anchor="start" x="505" y="-218.3" font-family="Helvetica,sans-Serif" font-size="11.00" fill="#000000">court_appearance_id</text>
<polygon fill="none" stroke="#000000" points="476,-189.2 476,-211.2 754,-211.2 754,-189.2 476,-189.2"/>
<image xlink:href="../../images/foreignKeys.png" width="11px" height="12px" preserveAspectRatio="xMinYMin meet" x="481" y="-206.2"/>
<text text-anchor="start" x="505" y="-196.3" font-family="Helvetica,sans-Serif" font-size="11.00" fill="#000000">person_identifier</text>
<polygon fill="none" stroke="#000000" points="476,-167.2 476,-189.2 754,-189.2 754,-167.2 476,-167.2"/>
<text text-anchor="start" x="505" y="-174.3" font-family="Helvetica,sans-Serif" font-size="11.00" fill="#000000">prison_code</text>
<polygon fill="none" stroke="#000000" points="476,-145.2 476,-167.2 754,-167.2 754,-145.2 476,-145.2"/>
<text text-anchor="start" x="505" y="-152.3" font-family="Helvetica,sans-Serif" font-size="11.00" fill="#000000">court_code</text>
<polygon fill="none" stroke="#000000" points="476,-123.2 476,-145.2 754,-145.2 754,-123.2 476,-123.2"/>
<text text-anchor="start" x="505" y="-130.3" font-family="Helvetica,sans-Serif" font-size="11.00" fill="#000000">direction</text>
<polygon fill="none" stroke="#000000" points="476,-101.2 476,-123.2 754,-123.2 754,-101.2 476,-101.2"/>
<text text-anchor="start" x="505" y="-108.3" font-family="Helvetica,sans-Serif" font-size="11.00" fill="#000000">occurred_at</text>
<polygon fill="none" stroke="#000000" points="476,-79.2 476,-101.2 754,-101.2 754,-79.2 476,-79.2"/>
<text text-anchor="start" x="505" y="-86.3" font-family="Helvetica,sans-Serif" font-size="11.00" fill="#000000">comments</text>
<polygon fill="none" stroke="#000000" points="476,-57.2 476,-79.2 754,-79.2 754,-57.2 476,-57.2"/>
<text text-anchor="start" x="505" y="-64.3" font-family="Helvetica,sans-Serif" font-size="11.00" fill="#000000">legacy_id</text>
<polygon fill="#ffffff" stroke="transparent" points="476,-38.2 476,-57.2 613,-57.2 613,-38.2 476,-38.2"/>
<polygon fill="none" stroke="#000000" points="476,-38.2 476,-57.2 613,-57.2 613,-38.2 476,-38.2"/>
<text text-anchor="start" x="479" y="-44.3" font-family="Helvetica,sans-Serif" font-size="11.00" fill="#000000">&lt; 1</text>
<polygon fill="#ffffff" stroke="transparent" points="613,-38.2 613,-57.2 683,-57.2 683,-38.2 613,-38.2"/>
<polygon fill="none" stroke="#000000" points="613,-38.2 613,-57.2 683,-57.2 683,-38.2 613,-38.2"/>
<text text-anchor="start" x="673.8862" y="-44.3" font-family="Helvetica,sans-Serif" font-size="11.00" fill="#000000"> &#160;</text>
<polygon fill="#ffffff" stroke="transparent" points="683,-38.2 683,-57.2 754,-57.2 754,-38.2 683,-38.2"/>
<polygon fill="none" stroke="#000000" points="683,-38.2 683,-57.2 754,-57.2 754,-38.2 683,-38.2"/>
<text text-anchor="start" x="744.8862" y="-44.3" font-family="Helvetica,sans-Serif" font-size="11.00" fill="#000000"> &#160;</text>
</a>
</g>
</g>
<!-- court_appearance_movement_audit&#45;&gt;audit_revision -->
<g id="edge7" class="edge">
<title>court_appearance_movement_audit:w&#45;&gt;audit_revision:e</title>
<path fill="none" stroke="#000000" d="M461.5222,-313.4365C426.088,-332.6789 468.9343,-431.2 414.5,-431.2"/>
<polygon fill="#000000" stroke="#000000" points="468.1927,-311.9453 476.7854,-313.7133 472.0963,-311.0727 476,-310.2 476,-310.2 476,-310.2 472.0963,-311.0727 475.2146,-306.6867 468.1927,-311.9453 468.1927,-311.9453"/>
<ellipse fill="none" stroke="#000000" cx="465.0698" cy="-312.6435" rx="3.2" ry="3.2"/>
</g>
</g>
</svg>
