<?xml version="1.0" encoding="UTF-8" standalone="no"?>
<!DOCTYPE svg PUBLIC "-//W3C//DTD SVG 1.1//EN"
 "http://www.w3.org/Graphics/SVG/1.1/DTD/svg11.dtd">
<!-- Generated by graphviz version 2.40.1 (20161225.0304)
 -->
<!-- Title: largeRelationshipsDiagram Pages: 1 -->
<svg width="770pt" height="1280pt"
 viewBox="0.00 0.00 770.00 1280.20" xmlns="http://www.w3.org/2000/svg" xmlns:xlink="http://www.w3.org/1999/xlink">
<g id="graph0" class="graph" transform="scale(1 1) rotate(0) translate(4 1276.2)">
<title>largeRelationshipsDiagram</title>
<polygon fill="#ffffff" stroke="transparent" points="-4,4 -4,-1276.2 766,-1276.2 766,4 -4,4"/>
<text text-anchor="middle" x="72.4936" y="-7.3" font-family="Helvetica,sans-Serif" font-size="11.00" fill="#000000">Generated by SchemaSpy</text>
<!-- court_appearance -->
<g id="node1" class="node">
<title>court_appearance</title>
<g id="a_node1"><a xlink:href="../../tables/court_appearance.html" xlink:title="court_appearance" target="_top">
<polygon fill="#ffffff" stroke="transparent" points="268,-174.2 268,-480.2 427,-480.2 427,-174.2 268,-174.2"/>
<polygon fill="#f5f5f5" stroke="transparent" points="268.5,-457.2 268.5,-480.2 427.5,-480.2 427.5,-457.2 268.5,-457.2"/>
<polygon fill="none" stroke="#000000" points="268.5,-457.2 268.5,-480.2 427.5,-480.2 427.5,-457.2 268.5,-457.2"/>
<text text-anchor="start" x="273.5" y="-465.8" font-family="Helvetica,sans-Serif" font-weight="bold" font-size="11.00" fill="#000000">court_appearance</text>
<text text-anchor="start" x="393.0219" y="-465.3" font-family="Helvetica,sans-Serif" font-size="11.00" fill="#000000">[table]</text>
<polygon fill="none" stroke="#000000" points="268.5,-435.2 268.5,-457.2 427.5,-457.2 427.5,-435.2 268.5,-435.2"/>
<image xlink:href="../../images/primaryKeys.png" width="11px" height="12px" preserveAspectRatio="xMinYMin meet" x="273.5" y="-452.2"/>
<text text-anchor="start" x="297.5" y="-442.3" font-family="Helvetica,sans-Serif" font-size="11.00" fill="#000000">id</text>
<polygon fill="none" stroke="#000000" points="268.5,-413.2 268.5,-435.2 427.5,-435.2 427.5,-413.2 268.5,-413.2"/>
<text text-anchor="start" x="297.5" y="-420.3" font-family="Helvetica,sans-Serif" font-size="11.00" fill="#000000">version</text>
<polygon fill="#ffffff" stroke="transparent" points="268.5,-391.2 268.5,-413.2 427.5,-413.2 427.5,-391.2 268.5,-391.2"/>
<polygon fill="none" stroke="#000000" points="268.5,-391.2 268.5,-413.2 427.5,-413.2 427.5,-391.2 268.5,-391.2"/>
<image xlink:href="../../images/foreignKeys.png" width="11px" height="12px" preserveAspectRatio="xMinYMin meet" x="273.5" y="-408.2"/>
<text text-anchor="start" x="297.5" y="-398.3" font-family="Helvetica,sans-Serif" font-size="11.00" fill="#000000">person_identifier</text>
<polygon fill="#ffffff" stroke="transparent" points="268.5,-369.2 268.5,-391.2 427.5,-391.2 427.5,-369.2 268.5,-369.2"/>
<polygon fill="none" stroke="#000000" points="268.5,-369.2 268.5,-391.2 427.5,-391.2 427.5,-369.2 268.5,-369.2"/>
<text text-anchor="start" x="297.5" y="-376.3" font-family="Helvetica,sans-Serif" font-size="11.00" fill="#000000">prison_code</text>
<polygon fill="none" stroke="#000000" points="268.5,-347.2 268.5,-369.2 427.5,-369.2 427.5,-347.2 268.5,-347.2"/>
<text text-anchor="start" x="297.5" y="-354.3" font-family="Helvetica,sans-Serif" font-size="11.00" fill="#000000">court_code</text>
<polygon fill="#ffffff" stroke="transparent" points="268.5,-325.2 268.5,-347.2 427.5,-347.2 427.5,-325.2 268.5,-325.2"/>
<polygon fill="none" stroke="#000000" points="268.5,-325.2 268.5,-347.2 427.5,-347.2 427.5,-325.2 268.5,-325.2"/>
<image xlink:href="../../images/foreignKeys.png" width="11px" height="12px" preserveAspectRatio="xMinYMin meet" x="273.5" y="-342.2"/>
<text text-anchor="start" x="297.5" y="-332.3" font-family="Helvetica,sans-Serif" font-size="11.00" fill="#000000">reason_id</text>
<polygon fill="none" stroke="#000000" points="268.5,-303.2 268.5,-325.2 427.5,-325.2 427.5,-303.2 268.5,-303.2"/>
<text text-anchor="start" x="297.5" y="-310.3" font-family="Helvetica,sans-Serif" font-size="11.00" fill="#000000">external</text>
<polygon fill="#ffffff" stroke="transparent" points="268.5,-281.2 268.5,-303.2 427.5,-303.2 427.5,-281.2 268.5,-281.2"/>
<polygon fill="none" stroke="#000000" points="268.5,-281.2 268.5,-303.2 427.5,-303.2 427.5,-281.2 268.5,-281.2"/>
<image xlink:href="../../images/foreignKeys.png" width="11px" height="12px" preserveAspectRatio="xMinYMin meet" x="273.5" y="-298.2"/>
<text text-anchor="start" x="297.5" y="-288.3" font-family="Helvetica,sans-Serif" font-size="11.00" fill="#000000">status_id</text>
<polygon fill="#ffffff" stroke="transparent" points="268.5,-259.2 268.5,-281.2 427.5,-281.2 427.5,-259.2 268.5,-259.2"/>
<polygon fill="none" stroke="#000000" points="268.5,-259.2 268.5,-281.2 427.5,-281.2 427.5,-259.2 268.5,-259.2"/>
<text text-anchor="start" x="297.5" y="-266.3" font-family="Helvetica,sans-Serif" font-size="11.00" fill="#000000">start</text>
<polygon fill="none" stroke="#000000" points="268.5,-237.2 268.5,-259.2 427.5,-259.2 427.5,-237.2 268.5,-237.2"/>
<text text-anchor="start" x="297.5" y="-244.3" font-family="Helvetica,sans-Serif" font-size="11.00" fill="#000000">end</text>
<polygon fill="none" stroke="#000000" points="268.5,-215.2 268.5,-237.2 427.5,-237.2 427.5,-215.2 268.5,-215.2"/>
<text text-anchor="start" x="297.5" y="-222.3" font-family="Helvetica,sans-Serif" font-size="11.00" fill="#000000">comments</text>
<polygon fill="#ffffff" stroke="transparent" points="268.5,-193.2 268.5,-215.2 427.5,-215.2 427.5,-193.2 268.5,-193.2"/>
<polygon fill="none" stroke="#000000" points="268.5,-193.2 268.5,-215.2 427.5,-215.2 427.5,-193.2 268.5,-193.2"/>
<image xlink:href="../../images/foreignKeys.png" width="11px" height="12px" preserveAspectRatio="xMinYMin meet" x="273.5" y="-210.2"/>
<text text-anchor="start" x="297.5" y="-200.3" font-family="Helvetica,sans-Serif" font-size="11.00" fill="#000000">legacy_id</text>
<polygon fill="#ffffff" stroke="transparent" points="268.5,-174.2 268.5,-193.2 341.5,-193.2 341.5,-174.2 268.5,-174.2"/>
<polygon fill="none" stroke="#000000" points="268.5,-174.2 268.5,-193.2 341.5,-193.2 341.5,-174.2 268.5,-174.2"/>
<text text-anchor="start" x="271.5" y="-180.3" font-family="Helvetica,sans-Serif" font-size="11.00" fill="#000000">&lt; 3</text>
<polygon fill="#ffffff" stroke="transparent" points="341.5,-174.2 341.5,-193.2 379.5,-193.2 379.5,-174.2 341.5,-174.2"/>
<polygon fill="none" stroke="#000000" points="341.5,-174.2 341.5,-193.2 379.5,-193.2 379.5,-174.2 341.5,-174.2"/>
<text text-anchor="start" x="370.3862" y="-180.3" font-family="Helvetica,sans-Serif" font-size="11.00" fill="#000000"> &#160;</text>
<polygon fill="#ffffff" stroke="transparent" points="379.5,-174.2 379.5,-193.2 427.5,-193.2 427.5,-174.2 379.5,-174.2"/>
<polygon fill="none" stroke="#000000" points="379.5,-174.2 379.5,-193.2 427.5,-193.2 427.5,-174.2 379.5,-174.2"/>
<text text-anchor="start" x="408.9053" y="-180.3" font-family="Helvetica,sans-Serif" font-size="11.00" fill="#000000">1 &gt;</text>
</a>
</g>
</g>
<!-- court_appearance_reason -->
<g id="node3" class="node">
<title>court_appearance_reason</title>
<g id="a_node3"><a xlink:href="../../tables/court_appearance_reason.html" xlink:title="court_appearance_reason" target="_top">
<polygon fill="#ffffff" stroke="transparent" points="8,-189.2 8,-363.2 219,-363.2 219,-189.2 8,-189.2"/>
<polygon fill="#f5f5f5" stroke="transparent" points="8.5,-340.2 8.5,-363.2 219.5,-363.2 219.5,-340.2 8.5,-340.2"/>
<polygon fill="none" stroke="#000000" points="8.5,-340.2 8.5,-363.2 219.5,-363.2 219.5,-340.2 8.5,-340.2"/>
<text text-anchor="start" x="13.5" y="-348.8" font-family="Helvetica,sans-Serif" font-weight="bold" font-size="11.00" fill="#000000">court_appearance_reason</text>
<text text-anchor="start" x="185.0219" y="-348.3" font-family="Helvetica,sans-Serif" font-size="11.00" fill="#000000">[table]</text>
<polygon fill="none" stroke="#000000" points="8.5,-318.2 8.5,-340.2 219.5,-340.2 219.5,-318.2 8.5,-318.2"/>
<image xlink:href="../../images/primaryKeys.png" width="11px" height="12px" preserveAspectRatio="xMinYMin meet" x="13.5" y="-335.2"/>
<text text-anchor="start" x="37.5" y="-325.3" font-family="Helvetica,sans-Serif" font-size="11.00" fill="#000000">id</text>
<polygon fill="#ffffff" stroke="transparent" points="8.5,-296.2 8.5,-318.2 219.5,-318.2 219.5,-296.2 8.5,-296.2"/>
<polygon fill="none" stroke="#000000" points="8.5,-296.2 8.5,-318.2 219.5,-318.2 219.5,-296.2 8.5,-296.2"/>
<text text-anchor="start" x="37.5" y="-303.3" font-family="Helvetica,sans-Serif" font-size="11.00" fill="#000000">code</text>
<polygon fill="none" stroke="#000000" points="8.5,-274.2 8.5,-296.2 219.5,-296.2 219.5,-274.2 8.5,-274.2"/>
<text text-anchor="start" x="37.5" y="-281.3" font-family="Helvetica,sans-Serif" font-size="11.00" fill="#000000">description</text>
<polygon fill="#ffffff" stroke="transparent" points="8.5,-252.2 8.5,-274.2 219.5,-274.2 219.5,-252.2 8.5,-252.2"/>
<polygon fill="none" stroke="#000000" points="8.5,-252.2 8.5,-274.2 219.5,-274.2 219.5,-252.2 8.5,-252.2"/>
<text text-anchor="start" x="37.5" y="-259.3" font-family="Helvetica,sans-Serif" font-size="11.00" fill="#000000">sequence_number</text>
<polygon fill="none" stroke="#000000" points="8.5,-230.2 8.5,-252.2 219.5,-252.2 219.5,-230.2 8.5,-230.2"/>
<text text-anchor="start" x="37.5" y="-237.3" font-family="Helvetica,sans-Serif" font-size="11.00" fill="#000000">active</text>
<polygon fill="none" stroke="#000000" points="8.5,-208.2 8.5,-230.2 219.5,-230.2 219.5,-208.2 8.5,-208.2"/>
<text text-anchor="start" x="37.5" y="-215.3" font-family="Helvetica,sans-Serif" font-size="11.00" fill="#000000">external</text>
<polygon fill="#ffffff" stroke="transparent" points="8.5,-189.2 8.5,-208.2 103.5,-208.2 103.5,-189.2 8.5,-189.2"/>
<polygon fill="none" stroke="#000000" points="8.5,-189.2 8.5,-208.2 103.5,-208.2 103.5,-189.2 8.5,-189.2"/>
<text text-anchor="start" x="11.5" y="-195.3" font-family="Helvetica,sans-Serif" font-size="11.00" fill="#000000"> &#160;</text>
<polygon fill="#ffffff" stroke="transparent" points="103.5,-189.2 103.5,-208.2 156.5,-208.2 156.5,-189.2 103.5,-189.2"/>
<polygon fill="none" stroke="#000000" points="103.5,-189.2 103.5,-208.2 156.5,-208.2 156.5,-189.2 103.5,-189.2"/>
<text text-anchor="start" x="147.3862" y="-195.3" font-family="Helvetica,sans-Serif" font-size="11.00" fill="#000000"> &#160;</text>
<polygon fill="#ffffff" stroke="transparent" points="156.5,-189.2 156.5,-208.2 219.5,-208.2 219.5,-189.2 156.5,-189.2"/>
<polygon fill="none" stroke="#000000" points="156.5,-189.2 156.5,-208.2 219.5,-208.2 219.5,-189.2 156.5,-189.2"/>
<text text-anchor="start" x="200.9053" y="-195.3" font-family="Helvetica,sans-Serif" font-size="11.00" fill="#000000">1 &gt;</text>
</a>
</g>
</g>
<!-- court_appearance&#45;&gt;court_appearance_reason -->
<g id="edge2" class="edge">
<title>court_appearance:w&#45;&gt;court_appearance_reason:e</title>
<path fill="none" stroke="#000000" d="M253.9302,-334.9807C242.6445,-332.9751 235.6554,-329.2 219.5,-329.2"/>
<polygon fill="#000000" stroke="#000000" points="260.5279,-335.5328 268.1998,-339.7875 264.5139,-335.8664 268.5,-336.2 268.5,-336.2 268.5,-336.2 264.5139,-335.8664 268.8002,-332.6125 260.5279,-335.5328 260.5279,-335.5328"/>
<ellipse fill="none" stroke="#000000" cx="257.339" cy="-335.2659" rx="3.2" ry="3.2"/>
</g>
<!-- court_appearance_status -->
<g id="node5" class="node">
<title>court_appearance_status</title>
<g id="a_node5"><a xlink:href="../../tables/court_appearance_status.html" xlink:title="court_appearance_status" target="_top">
<polygon fill="#ffffff" stroke="transparent" points="9.5,-38.2 9.5,-168.2 217.5,-168.2 217.5,-38.2 9.5,-38.2"/>
<polygon fill="#f5f5f5" stroke="transparent" points="9.5,-145.2 9.5,-168.2 217.5,-168.2 217.5,-145.2 9.5,-145.2"/>
<polygon fill="none" stroke="#000000" points="9.5,-145.2 9.5,-168.2 217.5,-168.2 217.5,-145.2 9.5,-145.2"/>
<text text-anchor="start" x="14.5" y="-153.8" font-family="Helvetica,sans-Serif" font-weight="bold" font-size="11.00" fill="#000000">court_appearance_status</text>
<text text-anchor="start" x="183.0219" y="-153.3" font-family="Helvetica,sans-Serif" font-size="11.00" fill="#000000">[table]</text>
<polygon fill="none" stroke="#000000" points="9.5,-123.2 9.5,-145.2 217.5,-145.2 217.5,-123.2 9.5,-123.2"/>
<image xlink:href="../../images/primaryKeys.png" width="11px" height="12px" preserveAspectRatio="xMinYMin meet" x="14.5" y="-140.2"/>
<text text-anchor="start" x="38.5" y="-130.3" font-family="Helvetica,sans-Serif" font-size="11.00" fill="#000000">id</text>
<polygon fill="#ffffff" stroke="transparent" points="9.5,-101.2 9.5,-123.2 217.5,-123.2 217.5,-101.2 9.5,-101.2"/>
<polygon fill="none" stroke="#000000" points="9.5,-101.2 9.5,-123.2 217.5,-123.2 217.5,-101.2 9.5,-101.2"/>
<text text-anchor="start" x="38.5" y="-108.3" font-family="Helvetica,sans-Serif" font-size="11.00" fill="#000000">code</text>
<polygon fill="none" stroke="#000000" points="9.5,-79.2 9.5,-101.2 217.5,-101.2 217.5,-79.2 9.5,-79.2"/>
<text text-anchor="start" x="38.5" y="-86.3" font-family="Helvetica,sans-Serif" font-size="11.00" fill="#000000">description</text>
<polygon fill="#ffffff" stroke="transparent" points="9.5,-57.2 9.5,-79.2 217.5,-79.2 217.5,-57.2 9.5,-57.2"/>
<polygon fill="none" stroke="#000000" points="9.5,-57.2 9.5,-79.2 217.5,-79.2 217.5,-57.2 9.5,-57.2"/>
<text text-anchor="start" x="38.5" y="-64.3" font-family="Helvetica,sans-Serif" font-size="11.00" fill="#000000">sequence_number</text>
<polygon fill="#ffffff" stroke="transparent" points="9.5,-38.2 9.5,-57.2 102.5,-57.2 102.5,-38.2 9.5,-38.2"/>
<polygon fill="none" stroke="#000000" points="9.5,-38.2 9.5,-57.2 102.5,-57.2 102.5,-38.2 9.5,-38.2"/>
<text text-anchor="start" x="12.5" y="-44.3" font-family="Helvetica,sans-Serif" font-size="11.00" fill="#000000"> &#160;</text>
<polygon fill="#ffffff" stroke="transparent" points="102.5,-38.2 102.5,-57.2 155.5,-57.2 155.5,-38.2 102.5,-38.2"/>
<polygon fill="none" stroke="#000000" points="102.5,-38.2 102.5,-57.2 155.5,-57.2 155.5,-38.2 102.5,-38.2"/>
<text text-anchor="start" x="146.3862" y="-44.3" font-family="Helvetica,sans-Serif" font-size="11.00" fill="#000000"> &#160;</text>
<polygon fill="#ffffff" stroke="transparent" points="155.5,-38.2 155.5,-57.2 217.5,-57.2 217.5,-38.2 155.5,-38.2"/>
<polygon fill="none" stroke="#000000" points="155.5,-38.2 155.5,-57.2 217.5,-57.2 217.5,-38.2 155.5,-38.2"/>
<text text-anchor="start" x="198.9053" y="-44.3" font-family="Helvetica,sans-Serif" font-size="11.00" fill="#000000">1 &gt;</text>
</a>
</g>
</g>
<!-- court_appearance&#45;&gt;court_appearance_status -->
<g id="edge3" class="edge">
<title>court_appearance:w&#45;&gt;court_appearance_status:e</title>
<path fill="none" stroke="#000000" d="M254.1626,-289.4576C208.7609,-268.4769 285.525,-134.2 217.5,-134.2"/>
<polygon fill="#000000" stroke="#000000" points="260.6424,-290.697 267.8237,-295.7359 264.5712,-291.4485 268.5,-292.2 268.5,-292.2 268.5,-292.2 264.5712,-291.4485 269.1763,-288.6641 260.6424,-290.697 260.6424,-290.697"/>
<ellipse fill="none" stroke="#000000" cx="257.4994" cy="-290.0958" rx="3.2" ry="3.2"/>
</g>
<!-- person_summary -->
<g id="node8" class="node">
<title>person_summary</title>
<g id="a_node8"><a xlink:href="../../tables/person_summary.html" xlink:title="person_summary" target="_top">
<polygon fill="#ffffff" stroke="transparent" points="36.5,-384.2 36.5,-558.2 190.5,-558.2 190.5,-384.2 36.5,-384.2"/>
<polygon fill="#f5f5f5" stroke="transparent" points="36.5,-535.2 36.5,-558.2 190.5,-558.2 190.5,-535.2 36.5,-535.2"/>
<polygon fill="none" stroke="#000000" points="36.5,-535.2 36.5,-558.2 190.5,-558.2 190.5,-535.2 36.5,-535.2"/>
<text text-anchor="start" x="41.5" y="-543.8" font-family="Helvetica,sans-Serif" font-weight="bold" font-size="11.00" fill="#000000">person_summary</text>
<text text-anchor="start" x="156.0219" y="-543.3" font-family="Helvetica,sans-Serif" font-size="11.00" fill="#000000">[table]</text>
<polygon fill="none" stroke="#000000" points="36.5,-513.2 36.5,-535.2 190.5,-535.2 190.5,-513.2 36.5,-513.2"/>
<image xlink:href="../../images/primaryKeys.png" width="11px" height="12px" preserveAspectRatio="xMinYMin meet" x="41.5" y="-530.2"/>
<text text-anchor="start" x="65.5" y="-520.3" font-family="Helvetica,sans-Serif" font-size="11.00" fill="#000000">person_identifier</text>
<polygon fill="none" stroke="#000000" points="36.5,-491.2 36.5,-513.2 190.5,-513.2 190.5,-491.2 36.5,-491.2"/>
<text text-anchor="start" x="65.5" y="-498.3" font-family="Helvetica,sans-Serif" font-size="11.00" fill="#000000">version</text>
<polygon fill="none" stroke="#000000" points="36.5,-469.2 36.5,-491.2 190.5,-491.2 190.5,-469.2 36.5,-469.2"/>
<text text-anchor="start" x="65.5" y="-476.3" font-family="Helvetica,sans-Serif" font-size="11.00" fill="#000000">first_name</text>
<polygon fill="none" stroke="#000000" points="36.5,-447.2 36.5,-469.2 190.5,-469.2 190.5,-447.2 36.5,-447.2"/>
<text text-anchor="start" x="65.5" y="-454.3" font-family="Helvetica,sans-Serif" font-size="11.00" fill="#000000">last_name</text>
<polygon fill="none" stroke="#000000" points="36.5,-425.2 36.5,-447.2 190.5,-447.2 190.5,-425.2 36.5,-425.2"/>
<text text-anchor="start" x="65.5" y="-432.3" font-family="Helvetica,sans-Serif" font-size="11.00" fill="#000000">prison_code</text>
<polygon fill="none" stroke="#000000" points="36.5,-403.2 36.5,-425.2 190.5,-425.2 190.5,-403.2 36.5,-403.2"/>
<text text-anchor="start" x="65.5" y="-410.3" font-family="Helvetica,sans-Serif" font-size="11.00" fill="#000000">cell_location</text>
<polygon fill="#ffffff" stroke="transparent" points="36.5,-384.2 36.5,-403.2 102.5,-403.2 102.5,-384.2 36.5,-384.2"/>
<polygon fill="none" stroke="#000000" points="36.5,-384.2 36.5,-403.2 102.5,-403.2 102.5,-384.2 36.5,-384.2"/>
<text text-anchor="start" x="39.5" y="-390.3" font-family="Helvetica,sans-Serif" font-size="11.00" fill="#000000"> &#160;</text>
<polygon fill="#ffffff" stroke="transparent" points="102.5,-384.2 102.5,-403.2 141.5,-403.2 141.5,-384.2 102.5,-384.2"/>
<polygon fill="none" stroke="#000000" points="102.5,-384.2 102.5,-403.2 141.5,-403.2 141.5,-384.2 102.5,-384.2"/>
<text text-anchor="start" x="132.3862" y="-390.3" font-family="Helvetica,sans-Serif" font-size="11.00" fill="#000000"> &#160;</text>
<polygon fill="#ffffff" stroke="transparent" points="141.5,-384.2 141.5,-403.2 190.5,-403.2 190.5,-384.2 141.5,-384.2"/>
<polygon fill="none" stroke="#000000" points="141.5,-384.2 141.5,-403.2 190.5,-403.2 190.5,-384.2 141.5,-384.2"/>
<text text-anchor="start" x="171.9053" y="-390.3" font-family="Helvetica,sans-Serif" font-size="11.00" fill="#000000">2 &gt;</text>
</a>
</g>
</g>
<!-- court_appearance&#45;&gt;person_summary -->
<g id="edge1" class="edge">
<title>court_appearance:w&#45;&gt;person_summary:e</title>
<path fill="none" stroke="#000000" d="M254.3114,-404.7481C212.0096,-422.2677 249.3263,-524.2 190.5,-524.2"/>
<polygon fill="#000000" stroke="#000000" points="260.626,-403.6141 269.1364,-405.7433 264.563,-402.9071 268.5,-402.2 268.5,-402.2 268.5,-402.2 264.563,-402.9071 267.8636,-398.6567 260.626,-403.6141 260.626,-403.6141"/>
<ellipse fill="none" stroke="#000000" cx="257.4764" cy="-404.1798" rx="3.2" ry="3.2"/>
</g>
<!-- court_appearance_audit -->
<g id="node2" class="node">
<title>court_appearance_audit</title>
<g id="a_node2"><a xlink:href="../../tables/court_appearance_audit.html" xlink:title="court_appearance_audit" target="_top">
<polygon fill="#ffffff" stroke="transparent" points="515,-918.2 515,-1268.2 715,-1268.2 715,-918.2 515,-918.2"/>
<polygon fill="#f5f5f5" stroke="transparent" points="515,-1245.2 515,-1268.2 715,-1268.2 715,-1245.2 515,-1245.2"/>
<polygon fill="none" stroke="#000000" points="515,-1245.2 515,-1268.2 715,-1268.2 715,-1245.2 515,-1245.2"/>
<text text-anchor="start" x="520" y="-1253.8" font-family="Helvetica,sans-Serif" font-weight="bold" font-size="11.00" fill="#000000">court_appearance_audit</text>
<text text-anchor="start" x="680.5219" y="-1253.3" font-family="Helvetica,sans-Serif" font-size="11.00" fill="#000000">[table]</text>
<polygon fill="none" stroke="#000000" points="515,-1223.2 515,-1245.2 715,-1245.2 715,-1223.2 515,-1223.2"/>
<image xlink:href="../../images/primaryKeys.png" width="11px" height="12px" preserveAspectRatio="xMinYMin meet" x="520" y="-1240.2"/>
<text text-anchor="start" x="544" y="-1230.3" font-family="Helvetica,sans-Serif" font-size="11.00" fill="#000000">rev_id</text>
<polygon fill="none" stroke="#000000" points="515,-1201.2 515,-1223.2 715,-1223.2 715,-1201.2 515,-1201.2"/>
<text text-anchor="start" x="544" y="-1208.3" font-family="Helvetica,sans-Serif" font-size="11.00" fill="#000000">rev_type</text>
<polygon fill="none" stroke="#000000" points="515,-1179.2 515,-1201.2 715,-1201.2 715,-1179.2 515,-1179.2"/>
<image xlink:href="../../images/primaryKeys.png" width="11px" height="12px" preserveAspectRatio="xMinYMin meet" x="520" y="-1196.2"/>
<text text-anchor="start" x="544" y="-1186.3" font-family="Helvetica,sans-Serif" font-size="11.00" fill="#000000">id</text>
<polygon fill="none" stroke="#000000" points="515,-1157.2 515,-1179.2 715,-1179.2 715,-1157.2 515,-1157.2"/>
<text text-anchor="start" x="544" y="-1164.3" font-family="Helvetica,sans-Serif" font-size="11.00" fill="#000000">version</text>
<polygon fill="none" stroke="#000000" points="515,-1135.2 515,-1157.2 715,-1157.2 715,-1135.2 515,-1135.2"/>
<image xlink:href="../../images/foreignKeys.png" width="11px" height="12px" preserveAspectRatio="xMinYMin meet" x="520" y="-1152.2"/>
<text text-anchor="start" x="544" y="-1142.3" font-family="Helvetica,sans-Serif" font-size="11.00" fill="#000000">person_identifier</text>
<polygon fill="none" stroke="#000000" points="515,-1113.2 515,-1135.2 715,-1135.2 715,-1113.2 515,-1113.2"/>
<text text-anchor="start" x="544" y="-1120.3" font-family="Helvetica,sans-Serif" font-size="11.00" fill="#000000">prison_code</text>
<polygon fill="none" stroke="#000000" points="515,-1091.2 515,-1113.2 715,-1113.2 715,-1091.2 515,-1091.2"/>
<text text-anchor="start" x="544" y="-1098.3" font-family="Helvetica,sans-Serif" font-size="11.00" fill="#000000">court_code</text>
<polygon fill="none" stroke="#000000" points="515,-1069.2 515,-1091.2 715,-1091.2 715,-1069.2 515,-1069.2"/>
<text text-anchor="start" x="544" y="-1076.3" font-family="Helvetica,sans-Serif" font-size="11.00" fill="#000000">reason_id</text>
<polygon fill="none" stroke="#000000" points="515,-1047.2 515,-1069.2 715,-1069.2 715,-1047.2 515,-1047.2"/>
<text text-anchor="start" x="544" y="-1054.3" font-family="Helvetica,sans-Serif" font-size="11.00" fill="#000000">external</text>
<polygon fill="none" stroke="#000000" points="515,-1025.2 515,-1047.2 715,-1047.2 715,-1025.2 515,-1025.2"/>
<text text-anchor="start" x="544" y="-1032.3" font-family="Helvetica,sans-Serif" font-size="11.00" fill="#000000">status_id</text>
<polygon fill="none" stroke="#000000" points="515,-1003.2 515,-1025.2 715,-1025.2 715,-1003.2 515,-1003.2"/>
<text text-anchor="start" x="544" y="-1010.3" font-family="Helvetica,sans-Serif" font-size="11.00" fill="#000000">start</text>
<polygon fill="none" stroke="#000000" points="515,-981.2 515,-1003.2 715,-1003.2 715,-981.2 515,-981.2"/>
<text text-anchor="start" x="544" y="-988.3" font-family="Helvetica,sans-Serif" font-size="11.00" fill="#000000">end</text>
<polygon fill="none" stroke="#000000" points="515,-959.2 515,-981.2 715,-981.2 715,-959.2 515,-959.2"/>
<text text-anchor="start" x="544" y="-966.3" font-family="Helvetica,sans-Serif" font-size="11.00" fill="#000000">comments</text>
<polygon fill="none" stroke="#000000" points="515,-937.2 515,-959.2 715,-959.2 715,-937.2 515,-937.2"/>
<image xlink:href="../../images/foreignKeys.png" width="11px" height="12px" preserveAspectRatio="xMinYMin meet" x="520" y="-954.2"/>
<text text-anchor="start" x="544" y="-944.3" font-family="Helvetica,sans-Serif" font-size="11.00" fill="#000000">legacy_id</text>
<polygon fill="#ffffff" stroke="transparent" points="515,-918.2 515,-937.2 613,-937.2 613,-918.2 515,-918.2"/>
<polygon fill="none" stroke="#000000" points="515,-918.2 515,-937.2 613,-937.2 613,-918.2 515,-918.2"/>
<text text-anchor="start" x="518" y="-924.3" font-family="Helvetica,sans-Serif" font-size="11.00" fill="#000000">&lt; 1</text>
<polygon fill="#ffffff" stroke="transparent" points="613,-918.2 613,-937.2 664,-937.2 664,-918.2 613,-918.2"/>
<polygon fill="none" stroke="#000000" points="613,-918.2 613,-937.2 664,-937.2 664,-918.2 613,-918.2"/>
<text text-anchor="start" x="654.8862" y="-924.3" font-family="Helvetica,sans-Serif" font-size="11.00" fill="#000000"> &#160;</text>
<polygon fill="#ffffff" stroke="transparent" points="664,-918.2 664,-937.2 715,-937.2 715,-918.2 664,-918.2"/>
<polygon fill="none" stroke="#000000" points="664,-918.2 664,-937.2 715,-937.2 715,-918.2 664,-918.2"/>
<text text-anchor="start" x="705.8862" y="-924.3" font-family="Helvetica,sans-Serif" font-size="11.00" fill="#000000"> &#160;</text>
</a>
</g>
</g>
<!-- audit_revision -->
<g id="node7" class="node">
<title>audit_revision</title>
<g id="a_node7"><a xlink:href="../../tables/audit_revision.html" xlink:title="audit_revision" target="_top">
<polygon fill="#ffffff" stroke="transparent" points="280.5,-886.2 280.5,-1082.2 414.5,-1082.2 414.5,-886.2 280.5,-886.2"/>
<polygon fill="#f5f5f5" stroke="transparent" points="280.5,-1059.2 280.5,-1082.2 414.5,-1082.2 414.5,-1059.2 280.5,-1059.2"/>
<polygon fill="none" stroke="#000000" points="280.5,-1059.2 280.5,-1082.2 414.5,-1082.2 414.5,-1059.2 280.5,-1059.2"/>
<text text-anchor="start" x="285.5" y="-1067.8" font-family="Helvetica,sans-Serif" font-weight="bold" font-size="11.00" fill="#000000">audit_revision</text>
<text text-anchor="start" x="380.0219" y="-1067.3" font-family="Helvetica,sans-Serif" font-size="11.00" fill="#000000">[table]</text>
<polygon fill="none" stroke="#000000" points="280.5,-1037.2 280.5,-1059.2 414.5,-1059.2 414.5,-1037.2 280.5,-1037.2"/>
<image xlink:href="../../images/primaryKeys.png" width="11px" height="12px" preserveAspectRatio="xMinYMin meet" x="285.5" y="-1054.2"/>
<text text-anchor="start" x="300.5" y="-1044.3" font-family="Helvetica,sans-Serif" font-size="11.00" fill="#000000">id</text>
<polygon fill="none" stroke="#000000" points="280.5,-1015.2 280.5,-1037.2 414.5,-1037.2 414.5,-1015.2 280.5,-1015.2"/>
<text text-anchor="start" x="300.5" y="-1022.3" font-family="Helvetica,sans-Serif" font-size="11.00" fill="#000000">timestamp</text>
<polygon fill="none" stroke="#000000" points="280.5,-993.2 280.5,-1015.2 414.5,-1015.2 414.5,-993.2 280.5,-993.2"/>
<text text-anchor="start" x="300.5" y="-1000.3" font-family="Helvetica,sans-Serif" font-size="11.00" fill="#000000">source</text>
<polygon fill="none" stroke="#000000" points="280.5,-971.2 280.5,-993.2 414.5,-993.2 414.5,-971.2 280.5,-971.2"/>
<text text-anchor="start" x="300.5" y="-978.3" font-family="Helvetica,sans-Serif" font-size="11.00" fill="#000000">affected_entities</text>
<polygon fill="none" stroke="#000000" points="280.5,-949.2 280.5,-971.2 414.5,-971.2 414.5,-949.2 280.5,-949.2"/>
<text text-anchor="start" x="300.5" y="-956.3" font-family="Helvetica,sans-Serif" font-size="11.00" fill="#000000">username</text>
<polygon fill="none" stroke="#000000" points="280.5,-927.2 280.5,-949.2 414.5,-949.2 414.5,-927.2 280.5,-927.2"/>
<text text-anchor="start" x="300.5" y="-934.3" font-family="Helvetica,sans-Serif" font-size="11.00" fill="#000000">caseload_id</text>
<polygon fill="none" stroke="#000000" points="280.5,-905.2 280.5,-927.2 414.5,-927.2 414.5,-905.2 280.5,-905.2"/>
<text text-anchor="start" x="300.5" y="-912.3" font-family="Helvetica,sans-Serif" font-size="11.00" fill="#000000">reason</text>
<polygon fill="#ffffff" stroke="transparent" points="280.5,-886.2 280.5,-905.2 336.5,-905.2 336.5,-886.2 280.5,-886.2"/>
<polygon fill="none" stroke="#000000" points="280.5,-886.2 280.5,-905.2 336.5,-905.2 336.5,-886.2 280.5,-886.2"/>
<text text-anchor="start" x="283.5" y="-892.3" font-family="Helvetica,sans-Serif" font-size="11.00" fill="#000000"> &#160;</text>
<polygon fill="#ffffff" stroke="transparent" points="336.5,-886.2 336.5,-905.2 370.5,-905.2 370.5,-886.2 336.5,-886.2"/>
<polygon fill="none" stroke="#000000" points="336.5,-886.2 336.5,-905.2 370.5,-905.2 370.5,-886.2 336.5,-886.2"/>
<text text-anchor="start" x="361.3862" y="-892.3" font-family="Helvetica,sans-Serif" font-size="11.00" fill="#000000"> &#160;</text>
<polygon fill="#ffffff" stroke="transparent" points="370.5,-886.2 370.5,-905.2 414.5,-905.2 414.5,-886.2 370.5,-886.2"/>
<polygon fill="none" stroke="#000000" points="370.5,-886.2 370.5,-905.2 414.5,-905.2 414.5,-886.2 370.5,-886.2"/>
<text text-anchor="start" x="395.9053" y="-892.3" font-family="Helvetica,sans-Serif" font-size="11.00" fill="#000000">2 &gt;</text>
</a>
</g>
</g>
<!-- court_appearance_audit&#45;&gt;audit_revision -->
<g id="edge4" class="edge">
<title>court_appearance_audit:w&#45;&gt;audit_revision:e</title>
<path fill="none" stroke="#000000" d="M500.2785,-1232.3591C430.6601,-1213.0417 502.9566,-1048.2 414.5,-1048.2"/>
<polygon fill="#000000" stroke="#000000" points="507.0618,-1233.2073 514.5533,-1237.7722 511.0309,-1233.7036 515,-1234.2 515,-1234.2 515,-1234.2 511.0309,-1233.7036 515.4467,-1230.6278 507.0618,-1233.2073 507.0618,-1233.2073"/>
<ellipse fill="none" stroke="#000000" cx="503.8866" cy="-1232.8102" rx="3.2" ry="3.2"/>
</g>
<!-- court_appearance_movement -->
<g id="node4" class="node">
<title>court_appearance_movement</title>
<g id="a_node4"><a xlink:href="../../tables/court_appearance_movement.html" xlink:title="court_appearance_movement" target="_top">
<polygon fill="#ffffff" stroke="transparent" points="496.5,-308.2 496.5,-570.2 733.5,-570.2 733.5,-308.2 496.5,-308.2"/>
<polygon fill="#f5f5f5" stroke="transparent" points="497,-547.2 497,-570.2 734,-570.2 734,-547.2 497,-547.2"/>
<polygon fill="none" stroke="#000000" points="497,-547.2 497,-570.2 734,-570.2 734,-547.2 497,-547.2"/>
<text text-anchor="start" x="502" y="-555.8" font-family="Helvetica,sans-Serif" font-weight="bold" font-size="11.00" fill="#000000">court_appearance_movement</text>
<text text-anchor="start" x="699.5219" y="-555.3" font-family="Helvetica,sans-Serif" font-size="11.00" fill="#000000">[table]</text>
<polygon fill="none" stroke="#000000" points="497,-525.2 497,-547.2 734,-547.2 734,-525.2 497,-525.2"/>
<image xlink:href="../../images/primaryKeys.png" width="11px" height="12px" preserveAspectRatio="xMinYMin meet" x="502" y="-542.2"/>
<text text-anchor="start" x="526" y="-532.3" font-family="Helvetica,sans-Serif" font-size="11.00" fill="#000000">id</text>
<polygon fill="none" stroke="#000000" points="497,-503.2 497,-525.2 734,-525.2 734,-503.2 497,-503.2"/>
<text text-anchor="start" x="526" y="-510.3" font-family="Helvetica,sans-Serif" font-size="11.00" fill="#000000">version</text>
<polygon fill="none" stroke="#000000" points="497,-481.2 497,-503.2 734,-503.2 734,-481.2 497,-481.2"/>
<image xlink:href="../../images/foreignKeys.png" width="11px" height="12px" preserveAspectRatio="xMinYMin meet" x="502" y="-498.2"/>
<text text-anchor="start" x="526" y="-488.3" font-family="Helvetica,sans-Serif" font-size="11.00" fill="#000000">court_appearance_id</text>
<polygon fill="#ffffff" stroke="transparent" points="497,-459.2 497,-481.2 734,-481.2 734,-459.2 497,-459.2"/>
<polygon fill="none" stroke="#000000" points="497,-459.2 497,-481.2 734,-481.2 734,-459.2 497,-459.2"/>
<image xlink:href="../../images/foreignKeys.png" width="11px" height="12px" preserveAspectRatio="xMinYMin meet" x="502" y="-476.2"/>
<text text-anchor="start" x="526" y="-466.3" font-family="Helvetica,sans-Serif" font-size="11.00" fill="#000000">person_identifier</text>
<polygon fill="none" stroke="#000000" points="497,-437.2 497,-459.2 734,-459.2 734,-437.2 497,-437.2"/>
<text text-anchor="start" x="526" y="-444.3" font-family="Helvetica,sans-Serif" font-size="11.00" fill="#000000">prison_code</text>
<polygon fill="none" stroke="#000000" points="497,-415.2 497,-437.2 734,-437.2 734,-415.2 497,-415.2"/>
<text text-anchor="start" x="526" y="-422.3" font-family="Helvetica,sans-Serif" font-size="11.00" fill="#000000">court_code</text>
<polygon fill="none" stroke="#000000" points="497,-393.2 497,-415.2 734,-415.2 734,-393.2 497,-393.2"/>
<text text-anchor="start" x="526" y="-400.3" font-family="Helvetica,sans-Serif" font-size="11.00" fill="#000000">direction</text>
<polygon fill="none" stroke="#000000" points="497,-371.2 497,-393.2 734,-393.2 734,-371.2 497,-371.2"/>
<text text-anchor="start" x="526" y="-378.3" font-family="Helvetica,sans-Serif" font-size="11.00" fill="#000000">occurred_at</text>
<polygon fill="none" stroke="#000000" points="497,-349.2 497,-371.2 734,-371.2 734,-349.2 497,-349.2"/>
<text text-anchor="start" x="526" y="-356.3" font-family="Helvetica,sans-Serif" font-size="11.00" fill="#000000">comments</text>
<polygon fill="#ffffff" stroke="transparent" points="497,-327.2 497,-349.2 734,-349.2 734,-327.2 497,-327.2"/>
<polygon fill="none" stroke="#000000" points="497,-327.2 497,-349.2 734,-349.2 734,-327.2 497,-327.2"/>
<text text-anchor="start" x="526" y="-334.3" font-family="Helvetica,sans-Serif" font-size="11.00" fill="#000000">legacy_id</text>
<polygon fill="#ffffff" stroke="transparent" points="497,-308.2 497,-327.2 614,-327.2 614,-308.2 497,-308.2"/>
<polygon fill="none" stroke="#000000" points="497,-308.2 497,-327.2 614,-327.2 614,-308.2 497,-308.2"/>
<text text-anchor="start" x="500" y="-314.3" font-family="Helvetica,sans-Serif" font-size="11.00" fill="#000000">&lt; 2</text>
<polygon fill="#ffffff" stroke="transparent" points="614,-308.2 614,-327.2 674,-327.2 674,-308.2 614,-308.2"/>
<polygon fill="none" stroke="#000000" points="614,-308.2 614,-327.2 674,-327.2 674,-308.2 614,-308.2"/>
<text text-anchor="start" x="664.8862" y="-314.3" font-family="Helvetica,sans-Serif" font-size="11.00" fill="#000000"> &#160;</text>
<polygon fill="#ffffff" stroke="transparent" points="674,-308.2 674,-327.2 734,-327.2 734,-308.2 674,-308.2"/>
<polygon fill="none" stroke="#000000" points="674,-308.2 674,-327.2 734,-327.2 734,-308.2 674,-308.2"/>
<text text-anchor="start" x="724.8862" y="-314.3" font-family="Helvetica,sans-Serif" font-size="11.00" fill="#000000"> &#160;</text>
</a>
</g>
</g>
<!-- court_appearance_movement&#45;&gt;court_appearance -->
<g id="edge5" class="edge">
<title>court_appearance_movement:w&#45;&gt;court_appearance:e</title>
<path fill="none" stroke="#000000" d="M482.6746,-489.3225C460.3887,-479.252 458.8988,-446.2 427.5,-446.2"/>
<polygon fill="#000000" stroke="#000000" points="489.1567,-490.6245 496.291,-495.7295 493.0783,-491.4122 497,-492.2 497,-492.2 497,-492.2 493.0783,-491.4122 497.709,-488.6705 489.1567,-490.6245 489.1567,-490.6245"/>
<ellipse fill="none" stroke="#000000" cx="486.0193" cy="-489.9943" rx="3.2" ry="3.2"/>
</g>
<!-- court_appearance_movement&#45;&gt;person_summary -->
<g id="edge6" class="edge">
<title>court_appearance_movement:w&#45;&gt;person_summary:e</title>
<path fill="none" stroke="#000000" d="M482.3987,-471.6786C465.2112,-475.5139 457.7925,-485.8544 435,-491.2 328.2448,-516.2377 300.152,-524.2 190.5,-524.2"/>
<polygon fill="#000000" stroke="#000000" points="489.0407,-471.006 497.3627,-473.7817 493.0204,-470.603 497,-470.2 497,-470.2 497,-470.2 493.0204,-470.603 496.6373,-466.6183 489.0407,-471.006 489.0407,-471.006"/>
<ellipse fill="none" stroke="#000000" cx="485.857" cy="-471.3284" rx="3.2" ry="3.2"/>
</g>
<!-- court_appearance_movement_audit -->
<g id="node6" class="node">
<title>court_appearance_movement_audit</title>
<g id="a_node6"><a xlink:href="../../tables/court_appearance_movement_audit.html" xlink:title="court_appearance_movement_audit" target="_top">
<polygon fill="#ffffff" stroke="transparent" points="476,-591.2 476,-897.2 754,-897.2 754,-591.2 476,-591.2"/>
<polygon fill="#f5f5f5" stroke="transparent" points="476,-874.2 476,-897.2 754,-897.2 754,-874.2 476,-874.2"/>
<polygon fill="none" stroke="#000000" points="476,-874.2 476,-897.2 754,-897.2 754,-874.2 476,-874.2"/>
<text text-anchor="start" x="481" y="-882.8" font-family="Helvetica,sans-Serif" font-weight="bold" font-size="11.00" fill="#000000">court_appearance_movement_audit</text>
<text text-anchor="start" x="719.5219" y="-882.3" font-family="Helvetica,sans-Serif" font-size="11.00" fill="#000000">[table]</text>
<polygon fill="none" stroke="#000000" points="476,-852.2 476,-874.2 754,-874.2 754,-852.2 476,-852.2"/>
<image xlink:href="../../images/primaryKeys.png" width="11px" height="12px" preserveAspectRatio="xMinYMin meet" x="481" y="-869.2"/>
<text text-anchor="start" x="505" y="-859.3" font-family="Helvetica,sans-Serif" font-size="11.00" fill="#000000">rev_id</text>
<polygon fill="none" stroke="#000000" points="476,-830.2 476,-852.2 754,-852.2 754,-830.2 476,-830.2"/>
<text text-anchor="start" x="505" y="-837.3" font-family="Helvetica,sans-Serif" font-size="11.00" fill="#000000">rev_type</text>
<polygon fill="none" stroke="#000000" points="476,-808.2 476,-830.2 754,-830.2 754,-808.2 476,-808.2"/>
<image xlink:href="../../images/primaryKeys.png" width="11px" height="12px" preserveAspectRatio="xMinYMin meet" x="481" y="-825.2"/>
<text text-anchor="start" x="505" y="-815.3" font-family="Helvetica,sans-Serif" font-size="11.00" fill="#000000">id</text>
<polygon fill="none" stroke="#000000" points="476,-786.2 476,-808.2 754,-808.2 754,-786.2 476,-786.2"/>
<text text-anchor="start" x="505" y="-793.3" font-family="Helvetica,sans-Serif" font-size="11.00" fill="#000000">version</text>
<polygon fill="none" stroke="#000000" points="476,-764.2 476,-786.2 754,-786.2 754,-764.2 476,-764.2"/>
<text text-anchor="start" x="505" y="-771.3" font-family="Helvetica,sans-Serif" font-size="11.00" fill="#000000">court_appearance_id</text>
<polygon fill="none" stroke="#000000" points="476,-742.2 476,-764.2 754,-764.2 754,-742.2 476,-742.2"/>
<image xlink:href="../../images/foreignKeys.png" width="11px" height="12px" preserveAspectRatio="xMinYMin meet" x="481" y="-759.2"/>
<text text-anchor="start" x="505" y="-749.3" font-family="Helvetica,sans-Serif" font-size="11.00" fill="#000000">person_identifier</text>
<polygon fill="none" stroke="#000000" points="476,-720.2 476,-742.2 754,-742.2 754,-720.2 476,-720.2"/>
<text text-anchor="start" x="505" y="-727.3" font-family="Helvetica,sans-Serif" font-size="11.00" fill="#000000">prison_code</text>
<polygon fill="none" stroke="#000000" points="476,-698.2 476,-720.2 754,-720.2 754,-698.2 476,-698.2"/>
<text text-anchor="start" x="505" y="-705.3" font-family="Helvetica,sans-Serif" font-size="11.00" fill="#000000">court_code</text>
<polygon fill="none" stroke="#000000" points="476,-676.2 476,-698.2 754,-698.2 754,-676.2 476,-676.2"/>
<text text-anchor="start" x="505" y="-683.3" font-family="Helvetica,sans-Serif" font-size="11.00" fill="#000000">direction</text>
<polygon fill="none" stroke="#000000" points="476,-654.2 476,-676.2 754,-676.2 754,-654.2 476,-654.2"/>
<text text-anchor="start" x="505" y="-661.3" font-family="Helvetica,sans-Serif" font-size="11.00" fill="#000000">occurred_at</text>
<polygon fill="none" stroke="#000000" points="476,-632.2 476,-654.2 754,-654.2 754,-632.2 476,-632.2"/>
<text text-anchor="start" x="505" y="-639.3" font-family="Helvetica,sans-Serif" font-size="11.00" fill="#000000">comments</text>
<polygon fill="none" stroke="#000000" points="476,-610.2 476,-632.2 754,-632.2 754,-610.2 476,-610.2"/>
<text text-anchor="start" x="505" y="-617.3" font-family="Helvetica,sans-Serif" font-size="11.00" fill="#000000">legacy_id</text>
<polygon fill="#ffffff" stroke="transparent" points="476,-591.2 476,-610.2 613,-610.2 613,-591.2 476,-591.2"/>
<polygon fill="none" stroke="#000000" points="476,-591.2 476,-610.2 613,-610.2 613,-591.2 476,-591.2"/>
<text text-anchor="start" x="479" y="-597.3" font-family="Helvetica,sans-Serif" font-size="11.00" fill="#000000">&lt; 1</text>
<polygon fill="#ffffff" stroke="transparent" points="613,-591.2 613,-610.2 683,-610.2 683,-591.2 613,-591.2"/>
<polygon fill="none" stroke="#000000" points="613,-591.2 613,-610.2 683,-610.2 683,-591.2 613,-591.2"/>
<text text-anchor="start" x="673.8862" y="-597.3" font-family="Helvetica,sans-Serif" font-size="11.00" fill="#000000"> &#160;</text>
<polygon fill="#ffffff" stroke="transparent" points="683,-591.2 683,-610.2 754,-610.2 754,-591.2 683,-591.2"/>
<polygon fill="none" stroke="#000000" points="683,-591.2 683,-610.2 754,-610.2 754,-591.2 683,-591.2"/>
<text text-anchor="start" x="744.8862" y="-597.3" font-family="Helvetica,sans-Serif" font-size="11.00" fill="#000000"> &#160;</text>
</a>
</g>
</g>
<!-- court_appearance_movement_audit&#45;&gt;audit_revision -->
<g id="edge7" class="edge">
<title>court_appearance_movement_audit:w&#45;&gt;audit_revision:e</title>
<path fill="none" stroke="#000000" d="M461.6129,-865.4065C402.94,-886.2791 495.5618,-1048.2 414.5,-1048.2"/>
<polygon fill="#000000" stroke="#000000" points="468.0925,-864.4128 476.5458,-866.7584 472.0462,-863.8064 476,-863.2 476,-863.2 476,-863.2 472.0462,-863.8064 475.4542,-859.6416 468.0925,-864.4128 468.0925,-864.4128"/>
<ellipse fill="none" stroke="#000000" cx="464.9294" cy="-864.8979" rx="3.2" ry="3.2"/>
</g>
</g>
</svg>
