<?xml version="1.0" encoding="UTF-8" standalone="no"?>
<!DOCTYPE svg PUBLIC "-//W3C//DTD SVG 1.1//EN"
 "http://www.w3.org/Graphics/SVG/1.1/DTD/svg11.dtd">
<!-- Generated by graphviz version 2.40.1 (20161225.0304)
 -->
<!-- Title: compactRelationshipsDiagram Pages: 1 -->
<svg width="770pt" height="565pt"
 viewBox="0.00 0.00 770.00 565.20" xmlns="http://www.w3.org/2000/svg" xmlns:xlink="http://www.w3.org/1999/xlink">
<g id="graph0" class="graph" transform="scale(1 1) rotate(0) translate(4 561.2)">
<title>compactRelationshipsDiagram</title>
<polygon fill="#ffffff" stroke="transparent" points="-4,4 -4,-561.2 766,-561.2 766,4 -4,4"/>
<text text-anchor="middle" x="72.4936" y="-7.3" font-family="Helvetica,sans-Serif" font-size="11.00" fill="#000000">Generated by SchemaSpy</text>
<!-- court_appearance_audit -->
<g id="node1" class="node">
<title>court_appearance_audit</title>
<g id="a_node1"><a xlink:href="../../tables/court_appearance_audit.html" xlink:title="court_appearance_audit" target="_top">
<polygon fill="#ffffff" stroke="transparent" points="515,-186.2 515,-335.2 715,-335.2 715,-186.2 515,-186.2"/>
<polygon fill="#f5f5f5" stroke="transparent" points="515,-311.7 515,-334.7 715,-334.7 715,-311.7 515,-311.7"/>
<polygon fill="none" stroke="#000000" points="515,-311.7 515,-334.7 715,-334.7 715,-311.7 515,-311.7"/>
<text text-anchor="start" x="520" y="-320.3" font-family="Helvetica,sans-Serif" font-weight="bold" font-size="11.00" fill="#000000">court_appearance_audit</text>
<text text-anchor="start" x="680.5219" y="-319.8" font-family="Helvetica,sans-Serif" font-size="11.00" fill="#000000">[table]</text>
<polygon fill="none" stroke="#000000" points="515,-289.7 515,-311.7 715,-311.7 715,-289.7 515,-289.7"/>
<image xlink:href="../../images/primaryKeys.png" width="11px" height="12px" preserveAspectRatio="xMinYMin meet" x="520" y="-306.7"/>
<text text-anchor="start" x="544" y="-296.8" font-family="Helvetica,sans-Serif" font-size="11.00" fill="#000000">rev_id</text>
<polygon fill="none" stroke="#000000" points="515,-267.7 515,-289.7 715,-289.7 715,-267.7 515,-267.7"/>
<image xlink:href="../../images/primaryKeys.png" width="11px" height="12px" preserveAspectRatio="xMinYMin meet" x="520" y="-284.7"/>
<text text-anchor="start" x="544" y="-274.8" font-family="Helvetica,sans-Serif" font-size="11.00" fill="#000000">id</text>
<polygon fill="none" stroke="#000000" points="515,-245.7 515,-267.7 715,-267.7 715,-245.7 515,-245.7"/>
<image xlink:href="../../images/foreignKeys.png" width="11px" height="12px" preserveAspectRatio="xMinYMin meet" x="520" y="-262.7"/>
<text text-anchor="start" x="544" y="-252.8" font-family="Helvetica,sans-Serif" font-size="11.00" fill="#000000">person_identifier</text>
<polygon fill="none" stroke="#000000" points="515,-223.7 515,-245.7 715,-245.7 715,-223.7 515,-223.7"/>
<image xlink:href="../../images/foreignKeys.png" width="11px" height="12px" preserveAspectRatio="xMinYMin meet" x="520" y="-240.7"/>
<text text-anchor="start" x="544" y="-230.8" font-family="Helvetica,sans-Serif" font-size="11.00" fill="#000000">legacy_id</text>
<polygon fill="none" stroke="#000000" points="515,-204.7 515,-223.7 715,-223.7 715,-204.7 515,-204.7"/>
<text text-anchor="start" x="518" y="-210.8" font-family="Helvetica,sans-Serif" font-size="11.00" fill="#000000">...</text>
<polygon fill="#ffffff" stroke="transparent" points="515,-185.7 515,-204.7 613,-204.7 613,-185.7 515,-185.7"/>
<polygon fill="none" stroke="#000000" points="515,-185.7 515,-204.7 613,-204.7 613,-185.7 515,-185.7"/>
<text text-anchor="start" x="518" y="-191.8" font-family="Helvetica,sans-Serif" font-size="11.00" fill="#000000">&lt; 1</text>
<polygon fill="#ffffff" stroke="transparent" points="613,-185.7 613,-204.7 664,-204.7 664,-185.7 613,-185.7"/>
<polygon fill="none" stroke="#000000" points="613,-185.7 613,-204.7 664,-204.7 664,-185.7 613,-185.7"/>
<text text-anchor="start" x="654.8862" y="-191.8" font-family="Helvetica,sans-Serif" font-size="11.00" fill="#000000"> &#160;</text>
<polygon fill="#ffffff" stroke="transparent" points="664,-185.7 664,-204.7 715,-204.7 715,-185.7 664,-185.7"/>
<polygon fill="none" stroke="#000000" points="664,-185.7 664,-204.7 715,-204.7 715,-185.7 664,-185.7"/>
<text text-anchor="start" x="705.8862" y="-191.8" font-family="Helvetica,sans-Serif" font-size="11.00" fill="#000000"> &#160;</text>
</a>
</g>
</g>
<!-- audit_revision -->
<g id="node7" class="node">
<title>audit_revision</title>
<g id="a_node7"><a xlink:href="../../tables/audit_revision.html" xlink:title="audit_revision" target="_top">
<polygon fill="#ffffff" stroke="transparent" points="280.5,-109.2 280.5,-192.2 414.5,-192.2 414.5,-109.2 280.5,-109.2"/>
<polygon fill="#f5f5f5" stroke="transparent" points="280.5,-168.7 280.5,-191.7 414.5,-191.7 414.5,-168.7 280.5,-168.7"/>
<polygon fill="none" stroke="#000000" points="280.5,-168.7 280.5,-191.7 414.5,-191.7 414.5,-168.7 280.5,-168.7"/>
<text text-anchor="start" x="285.5" y="-177.3" font-family="Helvetica,sans-Serif" font-weight="bold" font-size="11.00" fill="#000000">audit_revision</text>
<text text-anchor="start" x="380.0219" y="-176.8" font-family="Helvetica,sans-Serif" font-size="11.00" fill="#000000">[table]</text>
<polygon fill="none" stroke="#000000" points="280.5,-146.7 280.5,-168.7 414.5,-168.7 414.5,-146.7 280.5,-146.7"/>
<image xlink:href="../../images/primaryKeys.png" width="11px" height="12px" preserveAspectRatio="xMinYMin meet" x="285.5" y="-163.7"/>
<text text-anchor="start" x="300.5" y="-153.8" font-family="Helvetica,sans-Serif" font-size="11.00" fill="#000000">id</text>
<polygon fill="none" stroke="#000000" points="280.5,-127.7 280.5,-146.7 414.5,-146.7 414.5,-127.7 280.5,-127.7"/>
<text text-anchor="start" x="283.5" y="-133.8" font-family="Helvetica,sans-Serif" font-size="11.00" fill="#000000">...</text>
<polygon fill="#ffffff" stroke="transparent" points="280.5,-108.7 280.5,-127.7 336.5,-127.7 336.5,-108.7 280.5,-108.7"/>
<polygon fill="none" stroke="#000000" points="280.5,-108.7 280.5,-127.7 336.5,-127.7 336.5,-108.7 280.5,-108.7"/>
<text text-anchor="start" x="283.5" y="-114.8" font-family="Helvetica,sans-Serif" font-size="11.00" fill="#000000"> &#160;</text>
<polygon fill="#ffffff" stroke="transparent" points="336.5,-108.7 336.5,-127.7 370.5,-127.7 370.5,-108.7 336.5,-108.7"/>
<polygon fill="none" stroke="#000000" points="336.5,-108.7 336.5,-127.7 370.5,-127.7 370.5,-108.7 336.5,-108.7"/>
<text text-anchor="start" x="361.3862" y="-114.8" font-family="Helvetica,sans-Serif" font-size="11.00" fill="#000000"> &#160;</text>
<polygon fill="#ffffff" stroke="transparent" points="370.5,-108.7 370.5,-127.7 414.5,-127.7 414.5,-108.7 370.5,-108.7"/>
<polygon fill="none" stroke="#000000" points="370.5,-108.7 370.5,-127.7 414.5,-127.7 414.5,-108.7 370.5,-108.7"/>
<text text-anchor="start" x="395.9053" y="-114.8" font-family="Helvetica,sans-Serif" font-size="11.00" fill="#000000">2 &gt;</text>
</a>
</g>
</g>
<!-- court_appearance_audit&#45;&gt;audit_revision -->
<g id="edge4" class="edge">
<title>court_appearance_audit:w&#45;&gt;audit_revision:e</title>
<path fill="none" stroke="#000000" d="M500.4877,-298.6785C444.3783,-281.2976 486.7195,-157.7 414.5,-157.7"/>
<polygon fill="#000000" stroke="#000000" points="507.0765,-299.5962 514.5033,-304.2656 511.0383,-300.1481 515,-300.7 515,-300.7 515,-300.7 511.0383,-300.1481 515.4967,-297.1344 507.0765,-299.5962 507.0765,-299.5962"/>
<ellipse fill="none" stroke="#000000" cx="503.9071" cy="-299.1547" rx="3.2" ry="3.2"/>
</g>
<!-- court_appearance -->
<g id="node2" class="node">
<title>court_appearance</title>
<g id="a_node2"><a xlink:href="../../tables/court_appearance.html" xlink:title="court_appearance" target="_top">
<polygon fill="#ffffff" stroke="transparent" points="268,-268.2 268,-505.2 427,-505.2 427,-268.2 268,-268.2"/>
<polygon fill="#f5f5f5" stroke="transparent" points="268.5,-481.7 268.5,-504.7 427.5,-504.7 427.5,-481.7 268.5,-481.7"/>
<polygon fill="none" stroke="#000000" points="268.5,-481.7 268.5,-504.7 427.5,-504.7 427.5,-481.7 268.5,-481.7"/>
<text text-anchor="start" x="273.5" y="-490.3" font-family="Helvetica,sans-Serif" font-weight="bold" font-size="11.00" fill="#000000">court_appearance</text>
<text text-anchor="start" x="393.0219" y="-489.8" font-family="Helvetica,sans-Serif" font-size="11.00" fill="#000000">[table]</text>
<polygon fill="none" stroke="#000000" points="268.5,-459.7 268.5,-481.7 427.5,-481.7 427.5,-459.7 268.5,-459.7"/>
<image xlink:href="../../images/primaryKeys.png" width="11px" height="12px" preserveAspectRatio="xMinYMin meet" x="273.5" y="-476.7"/>
<text text-anchor="start" x="294.5" y="-466.8" font-family="Helvetica,sans-Serif" font-size="11.00" fill="#000000">id</text>
<polygon fill="#ffffff" stroke="transparent" points="268.5,-437.7 268.5,-459.7 427.5,-459.7 427.5,-437.7 268.5,-437.7"/>
<polygon fill="none" stroke="#000000" points="268.5,-437.7 268.5,-459.7 427.5,-459.7 427.5,-437.7 268.5,-437.7"/>
<image xlink:href="../../images/foreignKeys.png" width="11px" height="12px" preserveAspectRatio="xMinYMin meet" x="273.5" y="-454.7"/>
<text text-anchor="start" x="294.5" y="-444.8" font-family="Helvetica,sans-Serif" font-size="11.00" fill="#000000">person_identifier</text>
<polygon fill="#ffffff" stroke="transparent" points="268.5,-415.7 268.5,-437.7 427.5,-437.7 427.5,-415.7 268.5,-415.7"/>
<polygon fill="none" stroke="#000000" points="268.5,-415.7 268.5,-437.7 427.5,-437.7 427.5,-415.7 268.5,-415.7"/>
<text text-anchor="start" x="294.5" y="-422.8" font-family="Helvetica,sans-Serif" font-size="11.00" fill="#000000">prison_code</text>
<polygon fill="#ffffff" stroke="transparent" points="268.5,-393.7 268.5,-415.7 427.5,-415.7 427.5,-393.7 268.5,-393.7"/>
<polygon fill="none" stroke="#000000" points="268.5,-393.7 268.5,-415.7 427.5,-415.7 427.5,-393.7 268.5,-393.7"/>
<image xlink:href="../../images/foreignKeys.png" width="11px" height="12px" preserveAspectRatio="xMinYMin meet" x="273.5" y="-410.7"/>
<text text-anchor="start" x="294.5" y="-400.8" font-family="Helvetica,sans-Serif" font-size="11.00" fill="#000000">reason_id</text>
<polygon fill="#ffffff" stroke="transparent" points="268.5,-371.7 268.5,-393.7 427.5,-393.7 427.5,-371.7 268.5,-371.7"/>
<polygon fill="none" stroke="#000000" points="268.5,-371.7 268.5,-393.7 427.5,-393.7 427.5,-371.7 268.5,-371.7"/>
<image xlink:href="../../images/foreignKeys.png" width="11px" height="12px" preserveAspectRatio="xMinYMin meet" x="273.5" y="-388.7"/>
<text text-anchor="start" x="294.5" y="-378.8" font-family="Helvetica,sans-Serif" font-size="11.00" fill="#000000">status_id</text>
<polygon fill="#ffffff" stroke="transparent" points="268.5,-349.7 268.5,-371.7 427.5,-371.7 427.5,-349.7 268.5,-349.7"/>
<polygon fill="none" stroke="#000000" points="268.5,-349.7 268.5,-371.7 427.5,-371.7 427.5,-349.7 268.5,-349.7"/>
<text text-anchor="start" x="294.5" y="-356.8" font-family="Helvetica,sans-Serif" font-size="11.00" fill="#000000">start</text>
<polygon fill="#ffffff" stroke="transparent" points="268.5,-327.7 268.5,-349.7 427.5,-349.7 427.5,-327.7 268.5,-327.7"/>
<polygon fill="none" stroke="#000000" points="268.5,-327.7 268.5,-349.7 427.5,-349.7 427.5,-327.7 268.5,-327.7"/>
<image xlink:href="../../images/foreignKeys.png" width="11px" height="12px" preserveAspectRatio="xMinYMin meet" x="273.5" y="-344.7"/>
<text text-anchor="start" x="294.5" y="-334.8" font-family="Helvetica,sans-Serif" font-size="11.00" fill="#000000">legacy_id</text>
<polygon fill="#ffffff" stroke="transparent" points="268.5,-305.7 268.5,-327.7 427.5,-327.7 427.5,-305.7 268.5,-305.7"/>
<polygon fill="none" stroke="#000000" points="268.5,-305.7 268.5,-327.7 427.5,-327.7 427.5,-305.7 268.5,-305.7"/>
<text text-anchor="start" x="294.5" y="-312.8" font-family="Helvetica,sans-Serif" font-size="11.00" fill="#000000">external_reference</text>
<polygon fill="none" stroke="#000000" points="268.5,-286.7 268.5,-305.7 427.5,-305.7 427.5,-286.7 268.5,-286.7"/>
<text text-anchor="start" x="271.5" y="-292.8" font-family="Helvetica,sans-Serif" font-size="11.00" fill="#000000">...</text>
<polygon fill="#ffffff" stroke="transparent" points="268.5,-267.7 268.5,-286.7 341.5,-286.7 341.5,-267.7 268.5,-267.7"/>
<polygon fill="none" stroke="#000000" points="268.5,-267.7 268.5,-286.7 341.5,-286.7 341.5,-267.7 268.5,-267.7"/>
<text text-anchor="start" x="271.5" y="-273.8" font-family="Helvetica,sans-Serif" font-size="11.00" fill="#000000">&lt; 3</text>
<polygon fill="#ffffff" stroke="transparent" points="341.5,-267.7 341.5,-286.7 379.5,-286.7 379.5,-267.7 341.5,-267.7"/>
<polygon fill="none" stroke="#000000" points="341.5,-267.7 341.5,-286.7 379.5,-286.7 379.5,-267.7 341.5,-267.7"/>
<text text-anchor="start" x="370.3862" y="-273.8" font-family="Helvetica,sans-Serif" font-size="11.00" fill="#000000"> &#160;</text>
<polygon fill="#ffffff" stroke="transparent" points="379.5,-267.7 379.5,-286.7 427.5,-286.7 427.5,-267.7 379.5,-267.7"/>
<polygon fill="none" stroke="#000000" points="379.5,-267.7 379.5,-286.7 427.5,-286.7 427.5,-267.7 379.5,-267.7"/>
<text text-anchor="start" x="408.9053" y="-273.8" font-family="Helvetica,sans-Serif" font-size="11.00" fill="#000000">1 &gt;</text>
</a>
</g>
</g>
<!-- court_appearance_reason -->
<g id="node3" class="node">
<title>court_appearance_reason</title>
<g id="a_node3"><a xlink:href="../../tables/court_appearance_reason.html" xlink:title="court_appearance_reason" target="_top">
<polygon fill="#ffffff" stroke="transparent" points="8,-312.2 8,-439.2 219,-439.2 219,-312.2 8,-312.2"/>
<polygon fill="#f5f5f5" stroke="transparent" points="8.5,-415.7 8.5,-438.7 219.5,-438.7 219.5,-415.7 8.5,-415.7"/>
<polygon fill="none" stroke="#000000" points="8.5,-415.7 8.5,-438.7 219.5,-438.7 219.5,-415.7 8.5,-415.7"/>
<text text-anchor="start" x="13.5" y="-424.3" font-family="Helvetica,sans-Serif" font-weight="bold" font-size="11.00" fill="#000000">court_appearance_reason</text>
<text text-anchor="start" x="185.0219" y="-423.8" font-family="Helvetica,sans-Serif" font-size="11.00" fill="#000000">[table]</text>
<polygon fill="none" stroke="#000000" points="8.5,-393.7 8.5,-415.7 219.5,-415.7 219.5,-393.7 8.5,-393.7"/>
<image xlink:href="../../images/primaryKeys.png" width="11px" height="12px" preserveAspectRatio="xMinYMin meet" x="13.5" y="-410.7"/>
<text text-anchor="start" x="37.5" y="-400.8" font-family="Helvetica,sans-Serif" font-size="11.00" fill="#000000">id</text>
<polygon fill="#ffffff" stroke="transparent" points="8.5,-371.7 8.5,-393.7 219.5,-393.7 219.5,-371.7 8.5,-371.7"/>
<polygon fill="none" stroke="#000000" points="8.5,-371.7 8.5,-393.7 219.5,-393.7 219.5,-371.7 8.5,-371.7"/>
<text text-anchor="start" x="37.5" y="-378.8" font-family="Helvetica,sans-Serif" font-size="11.00" fill="#000000">code</text>
<polygon fill="#ffffff" stroke="transparent" points="8.5,-349.7 8.5,-371.7 219.5,-371.7 219.5,-349.7 8.5,-349.7"/>
<polygon fill="none" stroke="#000000" points="8.5,-349.7 8.5,-371.7 219.5,-371.7 219.5,-349.7 8.5,-349.7"/>
<text text-anchor="start" x="37.5" y="-356.8" font-family="Helvetica,sans-Serif" font-size="11.00" fill="#000000">sequence_number</text>
<polygon fill="none" stroke="#000000" points="8.5,-330.7 8.5,-349.7 219.5,-349.7 219.5,-330.7 8.5,-330.7"/>
<text text-anchor="start" x="11.5" y="-336.8" font-family="Helvetica,sans-Serif" font-size="11.00" fill="#000000">...</text>
<polygon fill="#ffffff" stroke="transparent" points="8.5,-311.7 8.5,-330.7 103.5,-330.7 103.5,-311.7 8.5,-311.7"/>
<polygon fill="none" stroke="#000000" points="8.5,-311.7 8.5,-330.7 103.5,-330.7 103.5,-311.7 8.5,-311.7"/>
<text text-anchor="start" x="11.5" y="-317.8" font-family="Helvetica,sans-Serif" font-size="11.00" fill="#000000"> &#160;</text>
<polygon fill="#ffffff" stroke="transparent" points="103.5,-311.7 103.5,-330.7 156.5,-330.7 156.5,-311.7 103.5,-311.7"/>
<polygon fill="none" stroke="#000000" points="103.5,-311.7 103.5,-330.7 156.5,-330.7 156.5,-311.7 103.5,-311.7"/>
<text text-anchor="start" x="147.3862" y="-317.8" font-family="Helvetica,sans-Serif" font-size="11.00" fill="#000000"> &#160;</text>
<polygon fill="#ffffff" stroke="transparent" points="156.5,-311.7 156.5,-330.7 219.5,-330.7 219.5,-311.7 156.5,-311.7"/>
<polygon fill="none" stroke="#000000" points="156.5,-311.7 156.5,-330.7 219.5,-330.7 219.5,-311.7 156.5,-311.7"/>
<text text-anchor="start" x="200.9053" y="-317.8" font-family="Helvetica,sans-Serif" font-size="11.00" fill="#000000">2 &gt;</text>
</a>
</g>
</g>
<!-- court_appearance&#45;&gt;court_appearance_reason -->
<g id="edge2" class="edge">
<title>court_appearance:w&#45;&gt;court_appearance_reason:e</title>
<path fill="none" stroke="#000000" d="M253.9909,-404.7C242.6774,-404.7 235.4931,-404.7 219.5,-404.7"/>
<polygon fill="#000000" stroke="#000000" points="260.5,-404.7001 268.5,-408.3 264.5,-404.7 268.5,-404.7 268.5,-404.7 268.5,-404.7 264.5,-404.7 268.5,-401.1 260.5,-404.7001 260.5,-404.7001"/>
<ellipse fill="none" stroke="#000000" cx="257.3" cy="-404.7001" rx="3.2" ry="3.2"/>
</g>
<!-- court_appearance_status -->
<g id="node5" class="node">
<title>court_appearance_status</title>
<g id="a_node5"><a xlink:href="../../tables/court_appearance_status.html" xlink:title="court_appearance_status" target="_top">
<polygon fill="#ffffff" stroke="transparent" points="9.5,-164.2 9.5,-291.2 217.5,-291.2 217.5,-164.2 9.5,-164.2"/>
<polygon fill="#f5f5f5" stroke="transparent" points="9.5,-267.7 9.5,-290.7 217.5,-290.7 217.5,-267.7 9.5,-267.7"/>
<polygon fill="none" stroke="#000000" points="9.5,-267.7 9.5,-290.7 217.5,-290.7 217.5,-267.7 9.5,-267.7"/>
<text text-anchor="start" x="14.5" y="-276.3" font-family="Helvetica,sans-Serif" font-weight="bold" font-size="11.00" fill="#000000">court_appearance_status</text>
<text text-anchor="start" x="183.0219" y="-275.8" font-family="Helvetica,sans-Serif" font-size="11.00" fill="#000000">[table]</text>
<polygon fill="none" stroke="#000000" points="9.5,-245.7 9.5,-267.7 217.5,-267.7 217.5,-245.7 9.5,-245.7"/>
<image xlink:href="../../images/primaryKeys.png" width="11px" height="12px" preserveAspectRatio="xMinYMin meet" x="14.5" y="-262.7"/>
<text text-anchor="start" x="38.5" y="-252.8" font-family="Helvetica,sans-Serif" font-size="11.00" fill="#000000">id</text>
<polygon fill="#ffffff" stroke="transparent" points="9.5,-223.7 9.5,-245.7 217.5,-245.7 217.5,-223.7 9.5,-223.7"/>
<polygon fill="none" stroke="#000000" points="9.5,-223.7 9.5,-245.7 217.5,-245.7 217.5,-223.7 9.5,-223.7"/>
<text text-anchor="start" x="38.5" y="-230.8" font-family="Helvetica,sans-Serif" font-size="11.00" fill="#000000">code</text>
<polygon fill="#ffffff" stroke="transparent" points="9.5,-201.7 9.5,-223.7 217.5,-223.7 217.5,-201.7 9.5,-201.7"/>
<polygon fill="none" stroke="#000000" points="9.5,-201.7 9.5,-223.7 217.5,-223.7 217.5,-201.7 9.5,-201.7"/>
<text text-anchor="start" x="38.5" y="-208.8" font-family="Helvetica,sans-Serif" font-size="11.00" fill="#000000">sequence_number</text>
<polygon fill="none" stroke="#000000" points="9.5,-182.7 9.5,-201.7 217.5,-201.7 217.5,-182.7 9.5,-182.7"/>
<text text-anchor="start" x="12.5" y="-188.8" font-family="Helvetica,sans-Serif" font-size="11.00" fill="#000000">...</text>
<polygon fill="#ffffff" stroke="transparent" points="9.5,-163.7 9.5,-182.7 102.5,-182.7 102.5,-163.7 9.5,-163.7"/>
<polygon fill="none" stroke="#000000" points="9.5,-163.7 9.5,-182.7 102.5,-182.7 102.5,-163.7 9.5,-163.7"/>
<text text-anchor="start" x="12.5" y="-169.8" font-family="Helvetica,sans-Serif" font-size="11.00" fill="#000000"> &#160;</text>
<polygon fill="#ffffff" stroke="transparent" points="102.5,-163.7 102.5,-182.7 155.5,-182.7 155.5,-163.7 102.5,-163.7"/>
<polygon fill="none" stroke="#000000" points="102.5,-163.7 102.5,-182.7 155.5,-182.7 155.5,-163.7 102.5,-163.7"/>
<text text-anchor="start" x="146.3862" y="-169.8" font-family="Helvetica,sans-Serif" font-size="11.00" fill="#000000"> &#160;</text>
<polygon fill="#ffffff" stroke="transparent" points="155.5,-163.7 155.5,-182.7 217.5,-182.7 217.5,-163.7 155.5,-163.7"/>
<polygon fill="none" stroke="#000000" points="155.5,-163.7 155.5,-182.7 217.5,-182.7 217.5,-163.7 155.5,-163.7"/>
<text text-anchor="start" x="198.9053" y="-169.8" font-family="Helvetica,sans-Serif" font-size="11.00" fill="#000000">1 &gt;</text>
</a>
</g>
</g>
<!-- court_appearance&#45;&gt;court_appearance_status -->
<g id="edge3" class="edge">
<title>court_appearance:w&#45;&gt;court_appearance_status:e</title>
<path fill="none" stroke="#000000" d="M254.2844,-379.3298C220.4826,-359.2923 272.0136,-256.7 217.5,-256.7"/>
<polygon fill="#000000" stroke="#000000" points="260.7158,-380.8545 267.6695,-386.2029 264.6079,-381.7772 268.5,-382.7 268.5,-382.7 268.5,-382.7 264.6079,-381.7772 269.3305,-379.1971 260.7158,-380.8545 260.7158,-380.8545"/>
<ellipse fill="none" stroke="#000000" cx="257.6021" cy="-380.1163" rx="3.2" ry="3.2"/>
</g>
<!-- person_summary -->
<g id="node8" class="node">
<title>person_summary</title>
<g id="a_node8"><a xlink:href="../../tables/person_summary.html" xlink:title="person_summary" target="_top">
<polygon fill="#ffffff" stroke="transparent" points="36.5,-470.2 36.5,-553.2 190.5,-553.2 190.5,-470.2 36.5,-470.2"/>
<polygon fill="#f5f5f5" stroke="transparent" points="36.5,-529.7 36.5,-552.7 190.5,-552.7 190.5,-529.7 36.5,-529.7"/>
<polygon fill="none" stroke="#000000" points="36.5,-529.7 36.5,-552.7 190.5,-552.7 190.5,-529.7 36.5,-529.7"/>
<text text-anchor="start" x="41.5" y="-538.3" font-family="Helvetica,sans-Serif" font-weight="bold" font-size="11.00" fill="#000000">person_summary</text>
<text text-anchor="start" x="156.0219" y="-537.8" font-family="Helvetica,sans-Serif" font-size="11.00" fill="#000000">[table]</text>
<polygon fill="none" stroke="#000000" points="36.5,-507.7 36.5,-529.7 190.5,-529.7 190.5,-507.7 36.5,-507.7"/>
<image xlink:href="../../images/primaryKeys.png" width="11px" height="12px" preserveAspectRatio="xMinYMin meet" x="41.5" y="-524.7"/>
<text text-anchor="start" x="65.5" y="-514.8" font-family="Helvetica,sans-Serif" font-size="11.00" fill="#000000">person_identifier</text>
<polygon fill="none" stroke="#000000" points="36.5,-488.7 36.5,-507.7 190.5,-507.7 190.5,-488.7 36.5,-488.7"/>
<text text-anchor="start" x="39.5" y="-494.8" font-family="Helvetica,sans-Serif" font-size="11.00" fill="#000000">...</text>
<polygon fill="#ffffff" stroke="transparent" points="36.5,-469.7 36.5,-488.7 102.5,-488.7 102.5,-469.7 36.5,-469.7"/>
<polygon fill="none" stroke="#000000" points="36.5,-469.7 36.5,-488.7 102.5,-488.7 102.5,-469.7 36.5,-469.7"/>
<text text-anchor="start" x="39.5" y="-475.8" font-family="Helvetica,sans-Serif" font-size="11.00" fill="#000000"> &#160;</text>
<polygon fill="#ffffff" stroke="transparent" points="102.5,-469.7 102.5,-488.7 141.5,-488.7 141.5,-469.7 102.5,-469.7"/>
<polygon fill="none" stroke="#000000" points="102.5,-469.7 102.5,-488.7 141.5,-488.7 141.5,-469.7 102.5,-469.7"/>
<text text-anchor="start" x="132.3862" y="-475.8" font-family="Helvetica,sans-Serif" font-size="11.00" fill="#000000"> &#160;</text>
<polygon fill="#ffffff" stroke="transparent" points="141.5,-469.7 141.5,-488.7 190.5,-488.7 190.5,-469.7 141.5,-469.7"/>
<polygon fill="none" stroke="#000000" points="141.5,-469.7 141.5,-488.7 190.5,-488.7 190.5,-469.7 141.5,-469.7"/>
<text text-anchor="start" x="171.9053" y="-475.8" font-family="Helvetica,sans-Serif" font-size="11.00" fill="#000000">2 &gt;</text>
</a>
</g>
</g>
<!-- court_appearance&#45;&gt;person_summary -->
<g id="edge1" class="edge">
<title>court_appearance:w&#45;&gt;person_summary:e</title>
<path fill="none" stroke="#000000" d="M254.0752,-451.5308C224.6863,-464.6267 231.4393,-518.7 190.5,-518.7"/>
<polygon fill="#000000" stroke="#000000" points="260.6497,-450.2406 269.1933,-452.2326 264.5749,-449.4703 268.5,-448.7 268.5,-448.7 268.5,-448.7 264.5749,-449.4703 267.8067,-445.1674 260.6497,-450.2406 260.6497,-450.2406"/>
<ellipse fill="none" stroke="#000000" cx="257.5096" cy="-450.8568" rx="3.2" ry="3.2"/>
</g>
<!-- court_appearance_movement -->
<g id="node4" class="node">
<title>court_appearance_movement</title>
<g id="a_node4"><a xlink:href="../../tables/court_appearance_movement.html" xlink:title="court_appearance_movement" target="_top">
<polygon fill="#ffffff" stroke="transparent" points="496.5,-356.2 496.5,-527.2 733.5,-527.2 733.5,-356.2 496.5,-356.2"/>
<polygon fill="#f5f5f5" stroke="transparent" points="497,-503.7 497,-526.7 734,-526.7 734,-503.7 497,-503.7"/>
<polygon fill="none" stroke="#000000" points="497,-503.7 497,-526.7 734,-526.7 734,-503.7 497,-503.7"/>
<text text-anchor="start" x="502" y="-512.3" font-family="Helvetica,sans-Serif" font-weight="bold" font-size="11.00" fill="#000000">court_appearance_movement</text>
<text text-anchor="start" x="699.5219" y="-511.8" font-family="Helvetica,sans-Serif" font-size="11.00" fill="#000000">[table]</text>
<polygon fill="none" stroke="#000000" points="497,-481.7 497,-503.7 734,-503.7 734,-481.7 497,-481.7"/>
<image xlink:href="../../images/primaryKeys.png" width="11px" height="12px" preserveAspectRatio="xMinYMin meet" x="502" y="-498.7"/>
<text text-anchor="start" x="526" y="-488.8" font-family="Helvetica,sans-Serif" font-size="11.00" fill="#000000">id</text>
<polygon fill="none" stroke="#000000" points="497,-459.7 497,-481.7 734,-481.7 734,-459.7 497,-459.7"/>
<image xlink:href="../../images/foreignKeys.png" width="11px" height="12px" preserveAspectRatio="xMinYMin meet" x="502" y="-476.7"/>
<text text-anchor="start" x="526" y="-466.8" font-family="Helvetica,sans-Serif" font-size="11.00" fill="#000000">court_appearance_id</text>
<polygon fill="#ffffff" stroke="transparent" points="497,-437.7 497,-459.7 734,-459.7 734,-437.7 497,-437.7"/>
<polygon fill="none" stroke="#000000" points="497,-437.7 497,-459.7 734,-459.7 734,-437.7 497,-437.7"/>
<image xlink:href="../../images/foreignKeys.png" width="11px" height="12px" preserveAspectRatio="xMinYMin meet" x="502" y="-454.7"/>
<text text-anchor="start" x="526" y="-444.8" font-family="Helvetica,sans-Serif" font-size="11.00" fill="#000000">person_identifier</text>
<polygon fill="none" stroke="#000000" points="497,-415.7 497,-437.7 734,-437.7 734,-415.7 497,-415.7"/>
<image xlink:href="../../images/foreignKeys.png" width="11px" height="12px" preserveAspectRatio="xMinYMin meet" x="502" y="-432.7"/>
<text text-anchor="start" x="526" y="-422.8" font-family="Helvetica,sans-Serif" font-size="11.00" fill="#000000">reason_id</text>
<polygon fill="#ffffff" stroke="transparent" points="497,-393.7 497,-415.7 734,-415.7 734,-393.7 497,-393.7"/>
<polygon fill="none" stroke="#000000" points="497,-393.7 497,-415.7 734,-415.7 734,-393.7 497,-393.7"/>
<text text-anchor="start" x="526" y="-400.8" font-family="Helvetica,sans-Serif" font-size="11.00" fill="#000000">legacy_id</text>
<polygon fill="none" stroke="#000000" points="497,-374.7 497,-393.7 734,-393.7 734,-374.7 497,-374.7"/>
<text text-anchor="start" x="500" y="-380.8" font-family="Helvetica,sans-Serif" font-size="11.00" fill="#000000">...</text>
<polygon fill="#ffffff" stroke="transparent" points="497,-355.7 497,-374.7 614,-374.7 614,-355.7 497,-355.7"/>
<polygon fill="none" stroke="#000000" points="497,-355.7 497,-374.7 614,-374.7 614,-355.7 497,-355.7"/>
<text text-anchor="start" x="500" y="-361.8" font-family="Helvetica,sans-Serif" font-size="11.00" fill="#000000">&lt; 3</text>
<polygon fill="#ffffff" stroke="transparent" points="614,-355.7 614,-374.7 674,-374.7 674,-355.7 614,-355.7"/>
<polygon fill="none" stroke="#000000" points="614,-355.7 614,-374.7 674,-374.7 674,-355.7 614,-355.7"/>
<text text-anchor="start" x="664.8862" y="-361.8" font-family="Helvetica,sans-Serif" font-size="11.00" fill="#000000"> &#160;</text>
<polygon fill="#ffffff" stroke="transparent" points="674,-355.7 674,-374.7 734,-374.7 734,-355.7 674,-355.7"/>
<polygon fill="none" stroke="#000000" points="674,-355.7 674,-374.7 734,-374.7 734,-355.7 674,-355.7"/>
<text text-anchor="start" x="724.8862" y="-361.8" font-family="Helvetica,sans-Serif" font-size="11.00" fill="#000000"> &#160;</text>
</a>
</g>
</g>
<!-- court_appearance_movement&#45;&gt;court_appearance -->
<g id="edge5" class="edge">
<title>court_appearance_movement:w&#45;&gt;court_appearance:e</title>
<path fill="none" stroke="#000000" d="M482.3241,-470.7C462.5879,-470.7 452.8385,-470.7 427.5,-470.7"/>
<polygon fill="#000000" stroke="#000000" points="489,-470.7001 497,-474.3 493,-470.7 497,-470.7 497,-470.7 497,-470.7 493,-470.7 497,-467.1 489,-470.7001 489,-470.7001"/>
<ellipse fill="none" stroke="#000000" cx="485.8" cy="-470.7001" rx="3.2" ry="3.2"/>
</g>
<!-- court_appearance_movement&#45;&gt;court_appearance_reason -->
<g id="edge7" class="edge">
<title>court_appearance_movement:w&#45;&gt;court_appearance_reason:e</title>
<path fill="none" stroke="#000000" d="M482.4415,-424.9426C428.0127,-409.7584 495.9835,-300.2852 435,-257.7 371.2313,-213.1699 321.8716,-210.5694 260,-257.7 206.0915,-298.7648 287.2676,-404.7 219.5,-404.7"/>
<polygon fill="#000000" stroke="#000000" points="489.0577,-425.7412 496.5685,-430.2741 493.0288,-426.2206 497,-426.7 497,-426.7 497,-426.7 493.0288,-426.2206 497.4315,-423.1259 489.0577,-425.7412 489.0577,-425.7412"/>
<ellipse fill="none" stroke="#000000" cx="485.8807" cy="-425.3577" rx="3.2" ry="3.2"/>
</g>
<!-- court_appearance_movement&#45;&gt;person_summary -->
<g id="edge6" class="edge">
<title>court_appearance_movement:w&#45;&gt;person_summary:e</title>
<path fill="none" stroke="#000000" d="M482.6027,-451.6109C459.8501,-462.5932 466.7163,-501.6046 435,-515.7 335.6908,-559.835 299.1748,-518.7 190.5,-518.7"/>
<polygon fill="#000000" stroke="#000000" points="489.1587,-450.2854 497.7134,-452.2286 493.0793,-449.4927 497,-448.7 497,-448.7 497,-448.7 493.0793,-449.4927 496.2866,-445.1714 489.1587,-450.2854 489.1587,-450.2854"/>
<ellipse fill="none" stroke="#000000" cx="486.0221" cy="-450.9196" rx="3.2" ry="3.2"/>
</g>
<!-- court_appearance_movement_audit -->
<g id="node6" class="node">
<title>court_appearance_movement_audit</title>
<g id="a_node6"><a xlink:href="../../tables/court_appearance_movement_audit.html" xlink:title="court_appearance_movement_audit" target="_top">
<polygon fill="#ffffff" stroke="transparent" points="476,-38.2 476,-165.2 754,-165.2 754,-38.2 476,-38.2"/>
<polygon fill="#f5f5f5" stroke="transparent" points="476,-141.7 476,-164.7 754,-164.7 754,-141.7 476,-141.7"/>
<polygon fill="none" stroke="#000000" points="476,-141.7 476,-164.7 754,-164.7 754,-141.7 476,-141.7"/>
<text text-anchor="start" x="481" y="-150.3" font-family="Helvetica,sans-Serif" font-weight="bold" font-size="11.00" fill="#000000">court_appearance_movement_audit</text>
<text text-anchor="start" x="719.5219" y="-149.8" font-family="Helvetica,sans-Serif" font-size="11.00" fill="#000000">[table]</text>
<polygon fill="none" stroke="#000000" points="476,-119.7 476,-141.7 754,-141.7 754,-119.7 476,-119.7"/>
<image xlink:href="../../images/primaryKeys.png" width="11px" height="12px" preserveAspectRatio="xMinYMin meet" x="481" y="-136.7"/>
<text text-anchor="start" x="505" y="-126.8" font-family="Helvetica,sans-Serif" font-size="11.00" fill="#000000">rev_id</text>
<polygon fill="none" stroke="#000000" points="476,-97.7 476,-119.7 754,-119.7 754,-97.7 476,-97.7"/>
<image xlink:href="../../images/primaryKeys.png" width="11px" height="12px" preserveAspectRatio="xMinYMin meet" x="481" y="-114.7"/>
<text text-anchor="start" x="505" y="-104.8" font-family="Helvetica,sans-Serif" font-size="11.00" fill="#000000">id</text>
<polygon fill="none" stroke="#000000" points="476,-75.7 476,-97.7 754,-97.7 754,-75.7 476,-75.7"/>
<image xlink:href="../../images/foreignKeys.png" width="11px" height="12px" preserveAspectRatio="xMinYMin meet" x="481" y="-92.7"/>
<text text-anchor="start" x="505" y="-82.8" font-family="Helvetica,sans-Serif" font-size="11.00" fill="#000000">person_identifier</text>
<polygon fill="none" stroke="#000000" points="476,-56.7 476,-75.7 754,-75.7 754,-56.7 476,-56.7"/>
<text text-anchor="start" x="479" y="-62.8" font-family="Helvetica,sans-Serif" font-size="11.00" fill="#000000">...</text>
<polygon fill="#ffffff" stroke="transparent" points="476,-37.7 476,-56.7 613,-56.7 613,-37.7 476,-37.7"/>
<polygon fill="none" stroke="#000000" points="476,-37.7 476,-56.7 613,-56.7 613,-37.7 476,-37.7"/>
<text text-anchor="start" x="479" y="-43.8" font-family="Helvetica,sans-Serif" font-size="11.00" fill="#000000">&lt; 1</text>
<polygon fill="#ffffff" stroke="transparent" points="613,-37.7 613,-56.7 683,-56.7 683,-37.7 613,-37.7"/>
<polygon fill="none" stroke="#000000" points="613,-37.7 613,-56.7 683,-56.7 683,-37.7 613,-37.7"/>
<text text-anchor="start" x="673.8862" y="-43.8" font-family="Helvetica,sans-Serif" font-size="11.00" fill="#000000"> &#160;</text>
<polygon fill="#ffffff" stroke="transparent" points="683,-37.7 683,-56.7 754,-56.7 754,-37.7 683,-37.7"/>
<polygon fill="none" stroke="#000000" points="683,-37.7 683,-56.7 754,-56.7 754,-37.7 683,-37.7"/>
<text text-anchor="start" x="744.8862" y="-43.8" font-family="Helvetica,sans-Serif" font-size="11.00" fill="#000000"> &#160;</text>
</a>
</g>
</g>
<!-- court_appearance_movement_audit&#45;&gt;audit_revision -->
<g id="edge8" class="edge">
<title>court_appearance_movement_audit:w&#45;&gt;audit_revision:e</title>
<path fill="none" stroke="#000000" d="M461.7975,-133.1917C444.4883,-139.8758 438.7543,-157.7 414.5,-157.7"/>
<polygon fill="#000000" stroke="#000000" points="468.1203,-132.0825 476.6221,-134.2458 472.0602,-131.3912 476,-130.7 476,-130.7 476,-130.7 472.0602,-131.3912 475.3779,-127.1542 468.1203,-132.0825 468.1203,-132.0825"/>
<ellipse fill="none" stroke="#000000" cx="464.9685" cy="-132.6354" rx="3.2" ry="3.2"/>
</g>
</g>
</svg>
