<?xml version="1.0" encoding="UTF-8" standalone="no"?>
<!DOCTYPE svg PUBLIC "-//W3C//DTD SVG 1.1//EN"
 "http://www.w3.org/Graphics/SVG/1.1/DTD/svg11.dtd">
<!-- Generated by graphviz version 2.40.1 (20161225.0304)
 -->
<!-- Title: compactImpliedRelationshipsDiagram Pages: 1 -->
<svg width="848pt" height="692pt"
 viewBox="0.00 0.00 848.00 692.20" xmlns="http://www.w3.org/2000/svg" xmlns:xlink="http://www.w3.org/1999/xlink">
<g id="graph0" class="graph" transform="scale(1 1) rotate(0) translate(4 688.2)">
<title>compactImpliedRelationshipsDiagram</title>
<polygon fill="#ffffff" stroke="transparent" points="-4,4 -4,-688.2 844,-688.2 844,4 -4,4"/>
<text text-anchor="middle" x="72.4936" y="-7.3" font-family="Helvetica,sans-Serif" font-size="11.00" fill="#000000">Generated by SchemaSpy</text>
<!-- court_appearance -->
<g id="node1" class="node">
<title>court_appearance</title>
<g id="a_node1"><a xlink:href="../../tables/court_appearance.html" xlink:title="court_appearance" target="_top">
<polygon fill="#ffffff" stroke="transparent" points="327.5,-384.2 327.5,-621.2 486.5,-621.2 486.5,-384.2 327.5,-384.2"/>
<polygon fill="#f5f5f5" stroke="transparent" points="328,-597.7 328,-620.7 487,-620.7 487,-597.7 328,-597.7"/>
<polygon fill="none" stroke="#000000" points="328,-597.7 328,-620.7 487,-620.7 487,-597.7 328,-597.7"/>
<text text-anchor="start" x="333" y="-606.3" font-family="Helvetica,sans-Serif" font-weight="bold" font-size="11.00" fill="#000000">court_appearance</text>
<text text-anchor="start" x="452.5219" y="-605.8" font-family="Helvetica,sans-Serif" font-size="11.00" fill="#000000">[table]</text>
<polygon fill="none" stroke="#000000" points="328,-575.7 328,-597.7 487,-597.7 487,-575.7 328,-575.7"/>
<image xlink:href="../../images/primaryKeys.png" width="11px" height="12px" preserveAspectRatio="xMinYMin meet" x="333" y="-592.7"/>
<text text-anchor="start" x="354" y="-582.8" font-family="Helvetica,sans-Serif" font-size="11.00" fill="#000000">id</text>
<polygon fill="#ffffff" stroke="transparent" points="328,-553.7 328,-575.7 487,-575.7 487,-553.7 328,-553.7"/>
<polygon fill="none" stroke="#000000" points="328,-553.7 328,-575.7 487,-575.7 487,-553.7 328,-553.7"/>
<image xlink:href="../../images/foreignKeys.png" width="11px" height="12px" preserveAspectRatio="xMinYMin meet" x="333" y="-570.7"/>
<text text-anchor="start" x="354" y="-560.8" font-family="Helvetica,sans-Serif" font-size="11.00" fill="#000000">person_identifier</text>
<polygon fill="#ffffff" stroke="transparent" points="328,-531.7 328,-553.7 487,-553.7 487,-531.7 328,-531.7"/>
<polygon fill="none" stroke="#000000" points="328,-531.7 328,-553.7 487,-553.7 487,-531.7 328,-531.7"/>
<text text-anchor="start" x="354" y="-538.8" font-family="Helvetica,sans-Serif" font-size="11.00" fill="#000000">prison_code</text>
<polygon fill="#ffffff" stroke="transparent" points="328,-509.7 328,-531.7 487,-531.7 487,-509.7 328,-509.7"/>
<polygon fill="none" stroke="#000000" points="328,-509.7 328,-531.7 487,-531.7 487,-509.7 328,-509.7"/>
<image xlink:href="../../images/foreignKeys.png" width="11px" height="12px" preserveAspectRatio="xMinYMin meet" x="333" y="-526.7"/>
<text text-anchor="start" x="354" y="-516.8" font-family="Helvetica,sans-Serif" font-size="11.00" fill="#000000">reason_id</text>
<polygon fill="#ffffff" stroke="transparent" points="328,-487.7 328,-509.7 487,-509.7 487,-487.7 328,-487.7"/>
<polygon fill="none" stroke="#000000" points="328,-487.7 328,-509.7 487,-509.7 487,-487.7 328,-487.7"/>
<image xlink:href="../../images/foreignKeys.png" width="11px" height="12px" preserveAspectRatio="xMinYMin meet" x="333" y="-504.7"/>
<text text-anchor="start" x="354" y="-494.8" font-family="Helvetica,sans-Serif" font-size="11.00" fill="#000000">status_id</text>
<polygon fill="#ffffff" stroke="transparent" points="328,-465.7 328,-487.7 487,-487.7 487,-465.7 328,-465.7"/>
<polygon fill="none" stroke="#000000" points="328,-465.7 328,-487.7 487,-487.7 487,-465.7 328,-465.7"/>
<text text-anchor="start" x="354" y="-472.8" font-family="Helvetica,sans-Serif" font-size="11.00" fill="#000000">start</text>
<polygon fill="#ffffff" stroke="transparent" points="328,-443.7 328,-465.7 487,-465.7 487,-443.7 328,-443.7"/>
<polygon fill="none" stroke="#000000" points="328,-443.7 328,-465.7 487,-465.7 487,-443.7 328,-443.7"/>
<image xlink:href="../../images/foreignKeys.png" width="11px" height="12px" preserveAspectRatio="xMinYMin meet" x="333" y="-460.7"/>
<text text-anchor="start" x="354" y="-450.8" font-family="Helvetica,sans-Serif" font-size="11.00" fill="#000000">legacy_id</text>
<polygon fill="#ffffff" stroke="transparent" points="328,-421.7 328,-443.7 487,-443.7 487,-421.7 328,-421.7"/>
<polygon fill="none" stroke="#000000" points="328,-421.7 328,-443.7 487,-443.7 487,-421.7 328,-421.7"/>
<text text-anchor="start" x="354" y="-428.8" font-family="Helvetica,sans-Serif" font-size="11.00" fill="#000000">external_reference</text>
<polygon fill="none" stroke="#000000" points="328,-402.7 328,-421.7 487,-421.7 487,-402.7 328,-402.7"/>
<text text-anchor="start" x="331" y="-408.8" font-family="Helvetica,sans-Serif" font-size="11.00" fill="#000000">...</text>
<polygon fill="#ffffff" stroke="transparent" points="328,-383.7 328,-402.7 401,-402.7 401,-383.7 328,-383.7"/>
<polygon fill="none" stroke="#000000" points="328,-383.7 328,-402.7 401,-402.7 401,-383.7 328,-383.7"/>
<text text-anchor="start" x="331" y="-389.8" font-family="Helvetica,sans-Serif" font-size="11.00" fill="#000000">&lt; 3</text>
<polygon fill="#ffffff" stroke="transparent" points="401,-383.7 401,-402.7 439,-402.7 439,-383.7 401,-383.7"/>
<polygon fill="none" stroke="#000000" points="401,-383.7 401,-402.7 439,-402.7 439,-383.7 401,-383.7"/>
<text text-anchor="start" x="429.8862" y="-389.8" font-family="Helvetica,sans-Serif" font-size="11.00" fill="#000000"> &#160;</text>
<polygon fill="#ffffff" stroke="transparent" points="439,-383.7 439,-402.7 487,-402.7 487,-383.7 439,-383.7"/>
<polygon fill="none" stroke="#000000" points="439,-383.7 439,-402.7 487,-402.7 487,-383.7 439,-383.7"/>
<text text-anchor="start" x="468.4053" y="-389.8" font-family="Helvetica,sans-Serif" font-size="11.00" fill="#000000">1 &gt;</text>
</a>
</g>
</g>
<!-- court_appearance_reason -->
<g id="node3" class="node">
<title>court_appearance_reason</title>
<g id="a_node3"><a xlink:href="../../tables/court_appearance_reason.html" xlink:title="court_appearance_reason" target="_top">
<polygon fill="#ffffff" stroke="transparent" points="8,-553.2 8,-680.2 219,-680.2 219,-553.2 8,-553.2"/>
<polygon fill="#f5f5f5" stroke="transparent" points="8.5,-656.7 8.5,-679.7 219.5,-679.7 219.5,-656.7 8.5,-656.7"/>
<polygon fill="none" stroke="#000000" points="8.5,-656.7 8.5,-679.7 219.5,-679.7 219.5,-656.7 8.5,-656.7"/>
<text text-anchor="start" x="13.5" y="-665.3" font-family="Helvetica,sans-Serif" font-weight="bold" font-size="11.00" fill="#000000">court_appearance_reason</text>
<text text-anchor="start" x="185.0219" y="-664.8" font-family="Helvetica,sans-Serif" font-size="11.00" fill="#000000">[table]</text>
<polygon fill="none" stroke="#000000" points="8.5,-634.7 8.5,-656.7 219.5,-656.7 219.5,-634.7 8.5,-634.7"/>
<image xlink:href="../../images/primaryKeys.png" width="11px" height="12px" preserveAspectRatio="xMinYMin meet" x="13.5" y="-651.7"/>
<text text-anchor="start" x="37.5" y="-641.8" font-family="Helvetica,sans-Serif" font-size="11.00" fill="#000000">id</text>
<polygon fill="#ffffff" stroke="transparent" points="8.5,-612.7 8.5,-634.7 219.5,-634.7 219.5,-612.7 8.5,-612.7"/>
<polygon fill="none" stroke="#000000" points="8.5,-612.7 8.5,-634.7 219.5,-634.7 219.5,-612.7 8.5,-612.7"/>
<text text-anchor="start" x="37.5" y="-619.8" font-family="Helvetica,sans-Serif" font-size="11.00" fill="#000000">code</text>
<polygon fill="#ffffff" stroke="transparent" points="8.5,-590.7 8.5,-612.7 219.5,-612.7 219.5,-590.7 8.5,-590.7"/>
<polygon fill="none" stroke="#000000" points="8.5,-590.7 8.5,-612.7 219.5,-612.7 219.5,-590.7 8.5,-590.7"/>
<text text-anchor="start" x="37.5" y="-597.8" font-family="Helvetica,sans-Serif" font-size="11.00" fill="#000000">sequence_number</text>
<polygon fill="none" stroke="#000000" points="8.5,-571.7 8.5,-590.7 219.5,-590.7 219.5,-571.7 8.5,-571.7"/>
<text text-anchor="start" x="11.5" y="-577.8" font-family="Helvetica,sans-Serif" font-size="11.00" fill="#000000">...</text>
<polygon fill="#ffffff" stroke="transparent" points="8.5,-552.7 8.5,-571.7 103.5,-571.7 103.5,-552.7 8.5,-552.7"/>
<polygon fill="none" stroke="#000000" points="8.5,-552.7 8.5,-571.7 103.5,-571.7 103.5,-552.7 8.5,-552.7"/>
<text text-anchor="start" x="11.5" y="-558.8" font-family="Helvetica,sans-Serif" font-size="11.00" fill="#000000"> &#160;</text>
<polygon fill="#ffffff" stroke="transparent" points="103.5,-552.7 103.5,-571.7 156.5,-571.7 156.5,-552.7 103.5,-552.7"/>
<polygon fill="none" stroke="#000000" points="103.5,-552.7 103.5,-571.7 156.5,-571.7 156.5,-552.7 103.5,-552.7"/>
<text text-anchor="start" x="147.3862" y="-558.8" font-family="Helvetica,sans-Serif" font-size="11.00" fill="#000000"> &#160;</text>
<polygon fill="#ffffff" stroke="transparent" points="156.5,-552.7 156.5,-571.7 219.5,-571.7 219.5,-552.7 156.5,-552.7"/>
<polygon fill="none" stroke="#000000" points="156.5,-552.7 156.5,-571.7 219.5,-571.7 219.5,-552.7 156.5,-552.7"/>
<text text-anchor="start" x="200.9053" y="-558.8" font-family="Helvetica,sans-Serif" font-size="11.00" fill="#000000">2 &gt;</text>
</a>
</g>
</g>
<!-- court_appearance&#45;&gt;court_appearance_reason -->
<g id="edge3" class="edge">
<title>court_appearance:w&#45;&gt;court_appearance_reason:e</title>
<path fill="none" stroke="#000000" d="M313.3826,-522.6635C259.5512,-538.5661 287.6051,-645.7 219.5,-645.7"/>
<polygon fill="#000000" stroke="#000000" points="320.0712,-521.7651 328.4793,-524.268 324.0356,-521.2325 328,-520.7 328,-520.7 328,-520.7 324.0356,-521.2325 327.5207,-517.132 320.0712,-521.7651 320.0712,-521.7651"/>
<ellipse fill="none" stroke="#000000" cx="316.8997" cy="-522.1911" rx="3.2" ry="3.2"/>
</g>
<!-- court_appearance_status -->
<g id="node5" class="node">
<title>court_appearance_status</title>
<g id="a_node5"><a xlink:href="../../tables/court_appearance_status.html" xlink:title="court_appearance_status" target="_top">
<polygon fill="#ffffff" stroke="transparent" points="9.5,-405.2 9.5,-532.2 217.5,-532.2 217.5,-405.2 9.5,-405.2"/>
<polygon fill="#f5f5f5" stroke="transparent" points="9.5,-508.7 9.5,-531.7 217.5,-531.7 217.5,-508.7 9.5,-508.7"/>
<polygon fill="none" stroke="#000000" points="9.5,-508.7 9.5,-531.7 217.5,-531.7 217.5,-508.7 9.5,-508.7"/>
<text text-anchor="start" x="14.5" y="-517.3" font-family="Helvetica,sans-Serif" font-weight="bold" font-size="11.00" fill="#000000">court_appearance_status</text>
<text text-anchor="start" x="183.0219" y="-516.8" font-family="Helvetica,sans-Serif" font-size="11.00" fill="#000000">[table]</text>
<polygon fill="none" stroke="#000000" points="9.5,-486.7 9.5,-508.7 217.5,-508.7 217.5,-486.7 9.5,-486.7"/>
<image xlink:href="../../images/primaryKeys.png" width="11px" height="12px" preserveAspectRatio="xMinYMin meet" x="14.5" y="-503.7"/>
<text text-anchor="start" x="38.5" y="-493.8" font-family="Helvetica,sans-Serif" font-size="11.00" fill="#000000">id</text>
<polygon fill="#ffffff" stroke="transparent" points="9.5,-464.7 9.5,-486.7 217.5,-486.7 217.5,-464.7 9.5,-464.7"/>
<polygon fill="none" stroke="#000000" points="9.5,-464.7 9.5,-486.7 217.5,-486.7 217.5,-464.7 9.5,-464.7"/>
<text text-anchor="start" x="38.5" y="-471.8" font-family="Helvetica,sans-Serif" font-size="11.00" fill="#000000">code</text>
<polygon fill="#ffffff" stroke="transparent" points="9.5,-442.7 9.5,-464.7 217.5,-464.7 217.5,-442.7 9.5,-442.7"/>
<polygon fill="none" stroke="#000000" points="9.5,-442.7 9.5,-464.7 217.5,-464.7 217.5,-442.7 9.5,-442.7"/>
<text text-anchor="start" x="38.5" y="-449.8" font-family="Helvetica,sans-Serif" font-size="11.00" fill="#000000">sequence_number</text>
<polygon fill="none" stroke="#000000" points="9.5,-423.7 9.5,-442.7 217.5,-442.7 217.5,-423.7 9.5,-423.7"/>
<text text-anchor="start" x="12.5" y="-429.8" font-family="Helvetica,sans-Serif" font-size="11.00" fill="#000000">...</text>
<polygon fill="#ffffff" stroke="transparent" points="9.5,-404.7 9.5,-423.7 102.5,-423.7 102.5,-404.7 9.5,-404.7"/>
<polygon fill="none" stroke="#000000" points="9.5,-404.7 9.5,-423.7 102.5,-423.7 102.5,-404.7 9.5,-404.7"/>
<text text-anchor="start" x="12.5" y="-410.8" font-family="Helvetica,sans-Serif" font-size="11.00" fill="#000000"> &#160;</text>
<polygon fill="#ffffff" stroke="transparent" points="102.5,-404.7 102.5,-423.7 155.5,-423.7 155.5,-404.7 102.5,-404.7"/>
<polygon fill="none" stroke="#000000" points="102.5,-404.7 102.5,-423.7 155.5,-423.7 155.5,-404.7 102.5,-404.7"/>
<text text-anchor="start" x="146.3862" y="-410.8" font-family="Helvetica,sans-Serif" font-size="11.00" fill="#000000"> &#160;</text>
<polygon fill="#ffffff" stroke="transparent" points="155.5,-404.7 155.5,-423.7 217.5,-423.7 217.5,-404.7 155.5,-404.7"/>
<polygon fill="none" stroke="#000000" points="155.5,-404.7 155.5,-423.7 217.5,-423.7 217.5,-404.7 155.5,-404.7"/>
<text text-anchor="start" x="198.9053" y="-410.8" font-family="Helvetica,sans-Serif" font-size="11.00" fill="#000000">1 &gt;</text>
</a>
</g>
</g>
<!-- court_appearance&#45;&gt;court_appearance_status -->
<g id="edge4" class="edge">
<title>court_appearance:w&#45;&gt;court_appearance_status:e</title>
<path fill="none" stroke="#000000" d="M313.1105,-498.6667C275.7613,-498.4932 261.2414,-497.7 217.5,-497.7"/>
<polygon fill="#000000" stroke="#000000" points="320,-498.6821 327.9919,-502.3 324,-498.691 328,-498.7 328,-498.7 328,-498.7 324,-498.691 328.0081,-495.1 320,-498.6821 320,-498.6821"/>
<ellipse fill="none" stroke="#000000" cx="316.8" cy="-498.6749" rx="3.2" ry="3.2"/>
</g>
<!-- audit_revision -->
<g id="node7" class="node">
<title>audit_revision</title>
<g id="a_node7"><a xlink:href="../../tables/audit_revision.html" xlink:title="audit_revision" target="_top">
<polygon fill="#ffffff" stroke="transparent" points="46.5,-150.2 46.5,-233.2 180.5,-233.2 180.5,-150.2 46.5,-150.2"/>
<polygon fill="#f5f5f5" stroke="transparent" points="46.5,-209.7 46.5,-232.7 180.5,-232.7 180.5,-209.7 46.5,-209.7"/>
<polygon fill="none" stroke="#000000" points="46.5,-209.7 46.5,-232.7 180.5,-232.7 180.5,-209.7 46.5,-209.7"/>
<text text-anchor="start" x="51.5" y="-218.3" font-family="Helvetica,sans-Serif" font-weight="bold" font-size="11.00" fill="#000000">audit_revision</text>
<text text-anchor="start" x="146.0219" y="-217.8" font-family="Helvetica,sans-Serif" font-size="11.00" fill="#000000">[table]</text>
<polygon fill="none" stroke="#000000" points="46.5,-187.7 46.5,-209.7 180.5,-209.7 180.5,-187.7 46.5,-187.7"/>
<image xlink:href="../../images/primaryKeys.png" width="11px" height="12px" preserveAspectRatio="xMinYMin meet" x="51.5" y="-204.7"/>
<text text-anchor="start" x="66.5" y="-194.8" font-family="Helvetica,sans-Serif" font-size="11.00" fill="#000000">id</text>
<polygon fill="none" stroke="#000000" points="46.5,-168.7 46.5,-187.7 180.5,-187.7 180.5,-168.7 46.5,-168.7"/>
<text text-anchor="start" x="49.5" y="-174.8" font-family="Helvetica,sans-Serif" font-size="11.00" fill="#000000">...</text>
<polygon fill="#ffffff" stroke="transparent" points="46.5,-149.7 46.5,-168.7 102.5,-168.7 102.5,-149.7 46.5,-149.7"/>
<polygon fill="none" stroke="#000000" points="46.5,-149.7 46.5,-168.7 102.5,-168.7 102.5,-149.7 46.5,-149.7"/>
<text text-anchor="start" x="49.5" y="-155.8" font-family="Helvetica,sans-Serif" font-size="11.00" fill="#000000"> &#160;</text>
<polygon fill="#ffffff" stroke="transparent" points="102.5,-149.7 102.5,-168.7 136.5,-168.7 136.5,-149.7 102.5,-149.7"/>
<polygon fill="none" stroke="#000000" points="102.5,-149.7 102.5,-168.7 136.5,-168.7 136.5,-149.7 102.5,-149.7"/>
<text text-anchor="start" x="127.3862" y="-155.8" font-family="Helvetica,sans-Serif" font-size="11.00" fill="#000000"> &#160;</text>
<polygon fill="#ffffff" stroke="transparent" points="136.5,-149.7 136.5,-168.7 180.5,-168.7 180.5,-149.7 136.5,-149.7"/>
<polygon fill="none" stroke="#000000" points="136.5,-149.7 136.5,-168.7 180.5,-168.7 180.5,-149.7 136.5,-149.7"/>
<text text-anchor="start" x="161.9053" y="-155.8" font-family="Helvetica,sans-Serif" font-size="11.00" fill="#000000">2 &gt;</text>
</a>
</g>
</g>
<!-- court_appearance&#45;&gt;audit_revision -->
<g id="edge1" class="edge">
<title>court_appearance:w&#45;&gt;audit_revision:e</title>
<path fill="none" stroke="#000000" stroke-dasharray="5,2" d="M317.4253,-454.0957C203.0108,-440.4053 308.0935,-198.7 180.5,-198.7"/>
<polygon fill="#000000" stroke="#000000" points="327.4296,-450.6609 326.973,-458.6478 325.3756,-458.5565 325.8322,-450.5696 327.4296,-450.6609"/>
<polyline fill="none" stroke="#000000" points="328,-454.7 324.0065,-454.4717 "/>
<ellipse fill="none" stroke="#000000" cx="320.8117" cy="-454.2891" rx="3.2" ry="3.2"/>
</g>
<!-- person_summary -->
<g id="node8" class="node">
<title>person_summary</title>
<g id="a_node8"><a xlink:href="../../tables/person_summary.html" xlink:title="person_summary" target="_top">
<polygon fill="#ffffff" stroke="transparent" points="36.5,-254.2 36.5,-337.2 190.5,-337.2 190.5,-254.2 36.5,-254.2"/>
<polygon fill="#f5f5f5" stroke="transparent" points="36.5,-313.7 36.5,-336.7 190.5,-336.7 190.5,-313.7 36.5,-313.7"/>
<polygon fill="none" stroke="#000000" points="36.5,-313.7 36.5,-336.7 190.5,-336.7 190.5,-313.7 36.5,-313.7"/>
<text text-anchor="start" x="41.5" y="-322.3" font-family="Helvetica,sans-Serif" font-weight="bold" font-size="11.00" fill="#000000">person_summary</text>
<text text-anchor="start" x="156.0219" y="-321.8" font-family="Helvetica,sans-Serif" font-size="11.00" fill="#000000">[table]</text>
<polygon fill="none" stroke="#000000" points="36.5,-291.7 36.5,-313.7 190.5,-313.7 190.5,-291.7 36.5,-291.7"/>
<image xlink:href="../../images/primaryKeys.png" width="11px" height="12px" preserveAspectRatio="xMinYMin meet" x="41.5" y="-308.7"/>
<text text-anchor="start" x="65.5" y="-298.8" font-family="Helvetica,sans-Serif" font-size="11.00" fill="#000000">person_identifier</text>
<polygon fill="none" stroke="#000000" points="36.5,-272.7 36.5,-291.7 190.5,-291.7 190.5,-272.7 36.5,-272.7"/>
<text text-anchor="start" x="39.5" y="-278.8" font-family="Helvetica,sans-Serif" font-size="11.00" fill="#000000">...</text>
<polygon fill="#ffffff" stroke="transparent" points="36.5,-253.7 36.5,-272.7 102.5,-272.7 102.5,-253.7 36.5,-253.7"/>
<polygon fill="none" stroke="#000000" points="36.5,-253.7 36.5,-272.7 102.5,-272.7 102.5,-253.7 36.5,-253.7"/>
<text text-anchor="start" x="39.5" y="-259.8" font-family="Helvetica,sans-Serif" font-size="11.00" fill="#000000"> &#160;</text>
<polygon fill="#ffffff" stroke="transparent" points="102.5,-253.7 102.5,-272.7 141.5,-272.7 141.5,-253.7 102.5,-253.7"/>
<polygon fill="none" stroke="#000000" points="102.5,-253.7 102.5,-272.7 141.5,-272.7 141.5,-253.7 102.5,-253.7"/>
<text text-anchor="start" x="132.3862" y="-259.8" font-family="Helvetica,sans-Serif" font-size="11.00" fill="#000000"> &#160;</text>
<polygon fill="#ffffff" stroke="transparent" points="141.5,-253.7 141.5,-272.7 190.5,-272.7 190.5,-253.7 141.5,-253.7"/>
<polygon fill="none" stroke="#000000" points="141.5,-253.7 141.5,-272.7 190.5,-272.7 190.5,-253.7 141.5,-253.7"/>
<text text-anchor="start" x="171.9053" y="-259.8" font-family="Helvetica,sans-Serif" font-size="11.00" fill="#000000">2 &gt;</text>
</a>
</g>
</g>
<!-- court_appearance&#45;&gt;person_summary -->
<g id="edge2" class="edge">
<title>court_appearance:w&#45;&gt;person_summary:e</title>
<path fill="none" stroke="#000000" d="M313.407,-563.4736C206.1326,-544.1396 316.7408,-302.7 190.5,-302.7"/>
<polygon fill="#000000" stroke="#000000" points="320.0281,-564.03 327.6985,-568.2874 324.0141,-564.365 328,-564.7 328,-564.7 328,-564.7 324.0141,-564.365 328.3015,-561.1126 320.0281,-564.03 320.0281,-564.03"/>
<ellipse fill="none" stroke="#000000" cx="316.8393" cy="-563.762" rx="3.2" ry="3.2"/>
</g>
<!-- court_appearance_audit -->
<g id="node2" class="node">
<title>court_appearance_audit</title>
<g id="a_node2"><a xlink:href="../../tables/court_appearance_audit.html" xlink:title="court_appearance_audit" target="_top">
<polygon fill="#ffffff" stroke="transparent" points="307,-38.2 307,-187.2 507,-187.2 507,-38.2 307,-38.2"/>
<polygon fill="#f5f5f5" stroke="transparent" points="307,-163.7 307,-186.7 507,-186.7 507,-163.7 307,-163.7"/>
<polygon fill="none" stroke="#000000" points="307,-163.7 307,-186.7 507,-186.7 507,-163.7 307,-163.7"/>
<text text-anchor="start" x="312" y="-172.3" font-family="Helvetica,sans-Serif" font-weight="bold" font-size="11.00" fill="#000000">court_appearance_audit</text>
<text text-anchor="start" x="472.5219" y="-171.8" font-family="Helvetica,sans-Serif" font-size="11.00" fill="#000000">[table]</text>
<polygon fill="none" stroke="#000000" points="307,-141.7 307,-163.7 507,-163.7 507,-141.7 307,-141.7"/>
<image xlink:href="../../images/primaryKeys.png" width="11px" height="12px" preserveAspectRatio="xMinYMin meet" x="312" y="-158.7"/>
<text text-anchor="start" x="336" y="-148.8" font-family="Helvetica,sans-Serif" font-size="11.00" fill="#000000">rev_id</text>
<polygon fill="none" stroke="#000000" points="307,-119.7 307,-141.7 507,-141.7 507,-119.7 307,-119.7"/>
<image xlink:href="../../images/primaryKeys.png" width="11px" height="12px" preserveAspectRatio="xMinYMin meet" x="312" y="-136.7"/>
<text text-anchor="start" x="336" y="-126.8" font-family="Helvetica,sans-Serif" font-size="11.00" fill="#000000">id</text>
<polygon fill="none" stroke="#000000" points="307,-97.7 307,-119.7 507,-119.7 507,-97.7 307,-97.7"/>
<image xlink:href="../../images/foreignKeys.png" width="11px" height="12px" preserveAspectRatio="xMinYMin meet" x="312" y="-114.7"/>
<text text-anchor="start" x="336" y="-104.8" font-family="Helvetica,sans-Serif" font-size="11.00" fill="#000000">person_identifier</text>
<polygon fill="none" stroke="#000000" points="307,-75.7 307,-97.7 507,-97.7 507,-75.7 307,-75.7"/>
<image xlink:href="../../images/foreignKeys.png" width="11px" height="12px" preserveAspectRatio="xMinYMin meet" x="312" y="-92.7"/>
<text text-anchor="start" x="336" y="-82.8" font-family="Helvetica,sans-Serif" font-size="11.00" fill="#000000">legacy_id</text>
<polygon fill="none" stroke="#000000" points="307,-56.7 307,-75.7 507,-75.7 507,-56.7 307,-56.7"/>
<text text-anchor="start" x="310" y="-62.8" font-family="Helvetica,sans-Serif" font-size="11.00" fill="#000000">...</text>
<polygon fill="#ffffff" stroke="transparent" points="307,-37.7 307,-56.7 405,-56.7 405,-37.7 307,-37.7"/>
<polygon fill="none" stroke="#000000" points="307,-37.7 307,-56.7 405,-56.7 405,-37.7 307,-37.7"/>
<text text-anchor="start" x="310" y="-43.8" font-family="Helvetica,sans-Serif" font-size="11.00" fill="#000000">&lt; 1</text>
<polygon fill="#ffffff" stroke="transparent" points="405,-37.7 405,-56.7 456,-56.7 456,-37.7 405,-37.7"/>
<polygon fill="none" stroke="#000000" points="405,-37.7 405,-56.7 456,-56.7 456,-37.7 405,-37.7"/>
<text text-anchor="start" x="446.8862" y="-43.8" font-family="Helvetica,sans-Serif" font-size="11.00" fill="#000000"> &#160;</text>
<polygon fill="#ffffff" stroke="transparent" points="456,-37.7 456,-56.7 507,-56.7 507,-37.7 456,-37.7"/>
<polygon fill="none" stroke="#000000" points="456,-37.7 456,-56.7 507,-56.7 507,-37.7 456,-37.7"/>
<text text-anchor="start" x="497.8862" y="-43.8" font-family="Helvetica,sans-Serif" font-size="11.00" fill="#000000"> &#160;</text>
</a>
</g>
</g>
<!-- court_appearance_audit&#45;&gt;audit_revision -->
<g id="edge5" class="edge">
<title>court_appearance_audit:w&#45;&gt;audit_revision:e</title>
<path fill="none" stroke="#000000" stroke-dasharray="5,2" d="M292.5567,-88.2833C234.7504,-101.8963 250.3118,-198.7 180.5,-198.7"/>
<polygon fill="#000000" stroke="#000000" points="299.0476,-87.5718 307.3923,-90.2786 303.0238,-87.1359 307,-86.7 307,-86.7 307,-86.7 303.0238,-87.1359 306.6077,-83.1214 299.0476,-87.5718 299.0476,-87.5718"/>
<ellipse fill="none" stroke="#000000" cx="295.8667" cy="-87.9205" rx="3.2" ry="3.2"/>
</g>
<!-- court_appearance_audit&#45;&gt;audit_revision -->
<g id="edge7" class="edge">
<title>court_appearance_audit:w&#45;&gt;audit_revision:e</title>
<path fill="none" stroke="#000000" d="M292.3817,-153.7036C245.5623,-160.4306 235.0661,-198.7 180.5,-198.7"/>
<polygon fill="#000000" stroke="#000000" points="299.0188,-153.248 307.2466,-156.2915 303.0094,-152.974 307,-152.7 307,-152.7 307,-152.7 303.0094,-152.974 306.7534,-149.1085 299.0188,-153.248 299.0188,-153.248"/>
<ellipse fill="none" stroke="#000000" cx="295.8263" cy="-153.4672" rx="3.2" ry="3.2"/>
</g>
<!-- court_appearance_audit&#45;&gt;person_summary -->
<g id="edge6" class="edge">
<title>court_appearance_audit:w&#45;&gt;person_summary:e</title>
<path fill="none" stroke="#000000" stroke-dasharray="5,2" d="M292.5798,-110.2616C214.8383,-128.6214 285.7707,-302.7 190.5,-302.7"/>
<polygon fill="#000000" stroke="#000000" points="299.0465,-109.5613 307.3876,-112.2791 303.0232,-109.1307 307,-108.7 307,-108.7 307,-108.7 303.0232,-109.1307 306.6124,-105.1209 299.0465,-109.5613 299.0465,-109.5613"/>
<ellipse fill="none" stroke="#000000" cx="295.8651" cy="-109.9059" rx="3.2" ry="3.2"/>
</g>
<!-- court_appearance_movement -->
<g id="node4" class="node">
<title>court_appearance_movement</title>
<g id="a_node4"><a xlink:href="../../tables/court_appearance_movement.html" xlink:title="court_appearance_movement" target="_top">
<polygon fill="#ffffff" stroke="transparent" points="595,-472.2 595,-643.2 832,-643.2 832,-472.2 595,-472.2"/>
<polygon fill="#f5f5f5" stroke="transparent" points="595.5,-619.7 595.5,-642.7 832.5,-642.7 832.5,-619.7 595.5,-619.7"/>
<polygon fill="none" stroke="#000000" points="595.5,-619.7 595.5,-642.7 832.5,-642.7 832.5,-619.7 595.5,-619.7"/>
<text text-anchor="start" x="600.5" y="-628.3" font-family="Helvetica,sans-Serif" font-weight="bold" font-size="11.00" fill="#000000">court_appearance_movement</text>
<text text-anchor="start" x="798.0219" y="-627.8" font-family="Helvetica,sans-Serif" font-size="11.00" fill="#000000">[table]</text>
<polygon fill="none" stroke="#000000" points="595.5,-597.7 595.5,-619.7 832.5,-619.7 832.5,-597.7 595.5,-597.7"/>
<image xlink:href="../../images/primaryKeys.png" width="11px" height="12px" preserveAspectRatio="xMinYMin meet" x="600.5" y="-614.7"/>
<text text-anchor="start" x="624.5" y="-604.8" font-family="Helvetica,sans-Serif" font-size="11.00" fill="#000000">id</text>
<polygon fill="#ffffff" stroke="transparent" points="595.5,-575.7 595.5,-597.7 832.5,-597.7 832.5,-575.7 595.5,-575.7"/>
<polygon fill="none" stroke="#000000" points="595.5,-575.7 595.5,-597.7 832.5,-597.7 832.5,-575.7 595.5,-575.7"/>
<image xlink:href="../../images/foreignKeys.png" width="11px" height="12px" preserveAspectRatio="xMinYMin meet" x="600.5" y="-592.7"/>
<text text-anchor="start" x="624.5" y="-582.8" font-family="Helvetica,sans-Serif" font-size="11.00" fill="#000000">court_appearance_id</text>
<polygon fill="#ffffff" stroke="transparent" points="595.5,-553.7 595.5,-575.7 832.5,-575.7 832.5,-553.7 595.5,-553.7"/>
<polygon fill="none" stroke="#000000" points="595.5,-553.7 595.5,-575.7 832.5,-575.7 832.5,-553.7 595.5,-553.7"/>
<image xlink:href="../../images/foreignKeys.png" width="11px" height="12px" preserveAspectRatio="xMinYMin meet" x="600.5" y="-570.7"/>
<text text-anchor="start" x="624.5" y="-560.8" font-family="Helvetica,sans-Serif" font-size="11.00" fill="#000000">person_identifier</text>
<polygon fill="none" stroke="#000000" points="595.5,-531.7 595.5,-553.7 832.5,-553.7 832.5,-531.7 595.5,-531.7"/>
<image xlink:href="../../images/foreignKeys.png" width="11px" height="12px" preserveAspectRatio="xMinYMin meet" x="600.5" y="-548.7"/>
<text text-anchor="start" x="624.5" y="-538.8" font-family="Helvetica,sans-Serif" font-size="11.00" fill="#000000">reason_id</text>
<polygon fill="#ffffff" stroke="transparent" points="595.5,-509.7 595.5,-531.7 832.5,-531.7 832.5,-509.7 595.5,-509.7"/>
<polygon fill="none" stroke="#000000" points="595.5,-509.7 595.5,-531.7 832.5,-531.7 832.5,-509.7 595.5,-509.7"/>
<text text-anchor="start" x="624.5" y="-516.8" font-family="Helvetica,sans-Serif" font-size="11.00" fill="#000000">legacy_id</text>
<polygon fill="none" stroke="#000000" points="595.5,-490.7 595.5,-509.7 832.5,-509.7 832.5,-490.7 595.5,-490.7"/>
<text text-anchor="start" x="598.5" y="-496.8" font-family="Helvetica,sans-Serif" font-size="11.00" fill="#000000">...</text>
<polygon fill="#ffffff" stroke="transparent" points="595.5,-471.7 595.5,-490.7 712.5,-490.7 712.5,-471.7 595.5,-471.7"/>
<polygon fill="none" stroke="#000000" points="595.5,-471.7 595.5,-490.7 712.5,-490.7 712.5,-471.7 595.5,-471.7"/>
<text text-anchor="start" x="598.5" y="-477.8" font-family="Helvetica,sans-Serif" font-size="11.00" fill="#000000">&lt; 3</text>
<polygon fill="#ffffff" stroke="transparent" points="712.5,-471.7 712.5,-490.7 772.5,-490.7 772.5,-471.7 712.5,-471.7"/>
<polygon fill="none" stroke="#000000" points="712.5,-471.7 712.5,-490.7 772.5,-490.7 772.5,-471.7 712.5,-471.7"/>
<text text-anchor="start" x="763.3862" y="-477.8" font-family="Helvetica,sans-Serif" font-size="11.00" fill="#000000"> &#160;</text>
<polygon fill="#ffffff" stroke="transparent" points="772.5,-471.7 772.5,-490.7 832.5,-490.7 832.5,-471.7 772.5,-471.7"/>
<polygon fill="none" stroke="#000000" points="772.5,-471.7 772.5,-490.7 832.5,-490.7 832.5,-471.7 772.5,-471.7"/>
<text text-anchor="start" x="823.3862" y="-477.8" font-family="Helvetica,sans-Serif" font-size="11.00" fill="#000000"> &#160;</text>
</a>
</g>
</g>
<!-- court_appearance_movement&#45;&gt;court_appearance -->
<g id="edge8" class="edge">
<title>court_appearance_movement:w&#45;&gt;court_appearance:e</title>
<path fill="none" stroke="#000000" d="M580.8804,-586.7C544.208,-586.7 529.9479,-586.7 487,-586.7"/>
<polygon fill="#000000" stroke="#000000" points="587.5,-586.7001 595.5,-590.3 591.5,-586.7 595.5,-586.7 595.5,-586.7 595.5,-586.7 591.5,-586.7 595.5,-583.1 587.5,-586.7001 587.5,-586.7001"/>
<ellipse fill="none" stroke="#000000" cx="584.3" cy="-586.7001" rx="3.2" ry="3.2"/>
</g>
<!-- court_appearance_movement&#45;&gt;court_appearance_reason -->
<g id="edge10" class="edge">
<title>court_appearance_movement:w&#45;&gt;court_appearance_reason:e</title>
<path fill="none" stroke="#000000" d="M581.5219,-546.2505C561.1925,-560.1185 585.2046,-610.8902 554,-631.7 430.206,-714.2562 368.2968,-645.7 219.5,-645.7"/>
<polygon fill="#000000" stroke="#000000" points="587.7462,-544.6695 596.3863,-546.1892 591.6231,-543.6848 595.5,-542.7 595.5,-542.7 595.5,-542.7 591.6231,-543.6848 594.6137,-539.2108 587.7462,-544.6695 587.7462,-544.6695"/>
<ellipse fill="none" stroke="#000000" cx="584.6447" cy="-545.4573" rx="3.2" ry="3.2"/>
</g>
<!-- court_appearance_movement&#45;&gt;person_summary -->
<g id="edge9" class="edge">
<title>court_appearance_movement:w&#45;&gt;person_summary:e</title>
<path fill="none" stroke="#000000" d="M581.061,-563.0943C522.1256,-547.8266 614.7825,-427.648 554,-373.7 504.9159,-330.135 322.2037,-366.6252 260,-345.7 225.5728,-334.1188 226.823,-302.7 190.5,-302.7"/>
<polygon fill="#000000" stroke="#000000" points="587.549,-563.8157 595.1021,-568.2779 591.5245,-564.2579 595.5,-564.7 595.5,-564.7 595.5,-564.7 591.5245,-564.2579 595.8979,-561.1221 587.549,-563.8157 587.549,-563.8157"/>
<ellipse fill="none" stroke="#000000" cx="584.3686" cy="-563.462" rx="3.2" ry="3.2"/>
</g>
<!-- court_appearance_movement_audit -->
<g id="node6" class="node">
<title>court_appearance_movement_audit</title>
<g id="a_node6"><a xlink:href="../../tables/court_appearance_movement_audit.html" xlink:title="court_appearance_movement_audit" target="_top">
<polygon fill="#ffffff" stroke="transparent" points="268,-208.2 268,-335.2 546,-335.2 546,-208.2 268,-208.2"/>
<polygon fill="#f5f5f5" stroke="transparent" points="268,-311.7 268,-334.7 546,-334.7 546,-311.7 268,-311.7"/>
<polygon fill="none" stroke="#000000" points="268,-311.7 268,-334.7 546,-334.7 546,-311.7 268,-311.7"/>
<text text-anchor="start" x="273" y="-320.3" font-family="Helvetica,sans-Serif" font-weight="bold" font-size="11.00" fill="#000000">court_appearance_movement_audit</text>
<text text-anchor="start" x="511.5219" y="-319.8" font-family="Helvetica,sans-Serif" font-size="11.00" fill="#000000">[table]</text>
<polygon fill="none" stroke="#000000" points="268,-289.7 268,-311.7 546,-311.7 546,-289.7 268,-289.7"/>
<image xlink:href="../../images/primaryKeys.png" width="11px" height="12px" preserveAspectRatio="xMinYMin meet" x="273" y="-306.7"/>
<text text-anchor="start" x="297" y="-296.8" font-family="Helvetica,sans-Serif" font-size="11.00" fill="#000000">rev_id</text>
<polygon fill="none" stroke="#000000" points="268,-267.7 268,-289.7 546,-289.7 546,-267.7 268,-267.7"/>
<image xlink:href="../../images/primaryKeys.png" width="11px" height="12px" preserveAspectRatio="xMinYMin meet" x="273" y="-284.7"/>
<text text-anchor="start" x="297" y="-274.8" font-family="Helvetica,sans-Serif" font-size="11.00" fill="#000000">id</text>
<polygon fill="none" stroke="#000000" points="268,-245.7 268,-267.7 546,-267.7 546,-245.7 268,-245.7"/>
<image xlink:href="../../images/foreignKeys.png" width="11px" height="12px" preserveAspectRatio="xMinYMin meet" x="273" y="-262.7"/>
<text text-anchor="start" x="297" y="-252.8" font-family="Helvetica,sans-Serif" font-size="11.00" fill="#000000">person_identifier</text>
<polygon fill="none" stroke="#000000" points="268,-226.7 268,-245.7 546,-245.7 546,-226.7 268,-226.7"/>
<text text-anchor="start" x="271" y="-232.8" font-family="Helvetica,sans-Serif" font-size="11.00" fill="#000000">...</text>
<polygon fill="#ffffff" stroke="transparent" points="268,-207.7 268,-226.7 405,-226.7 405,-207.7 268,-207.7"/>
<polygon fill="none" stroke="#000000" points="268,-207.7 268,-226.7 405,-226.7 405,-207.7 268,-207.7"/>
<text text-anchor="start" x="271" y="-213.8" font-family="Helvetica,sans-Serif" font-size="11.00" fill="#000000">&lt; 1</text>
<polygon fill="#ffffff" stroke="transparent" points="405,-207.7 405,-226.7 475,-226.7 475,-207.7 405,-207.7"/>
<polygon fill="none" stroke="#000000" points="405,-207.7 405,-226.7 475,-226.7 475,-207.7 405,-207.7"/>
<text text-anchor="start" x="465.8862" y="-213.8" font-family="Helvetica,sans-Serif" font-size="11.00" fill="#000000"> &#160;</text>
<polygon fill="#ffffff" stroke="transparent" points="475,-207.7 475,-226.7 546,-226.7 546,-207.7 475,-207.7"/>
<polygon fill="none" stroke="#000000" points="475,-207.7 475,-226.7 546,-226.7 546,-207.7 475,-207.7"/>
<text text-anchor="start" x="536.8862" y="-213.8" font-family="Helvetica,sans-Serif" font-size="11.00" fill="#000000"> &#160;</text>
</a>
</g>
</g>
<!-- court_appearance_movement_audit&#45;&gt;audit_revision -->
<g id="edge12" class="edge">
<title>court_appearance_movement_audit:w&#45;&gt;audit_revision:e</title>
<path fill="none" stroke="#000000" d="M253.958,-297.2006C239.7555,-288.0305 243.4192,-262.6995 227,-243.7 208.1953,-221.9401 209.2595,-198.7 180.5,-198.7"/>
<polygon fill="#000000" stroke="#000000" points="260.2374,-298.7654 267.1294,-304.1932 264.1187,-299.7327 268,-300.7 268,-300.7 268,-300.7 264.1187,-299.7327 268.8706,-297.2068 260.2374,-298.7654 260.2374,-298.7654"/>
<ellipse fill="none" stroke="#000000" cx="257.1324" cy="-297.9916" rx="3.2" ry="3.2"/>
</g>
<!-- court_appearance_movement_audit&#45;&gt;person_summary -->
<g id="edge11" class="edge">
<title>court_appearance_movement_audit:w&#45;&gt;person_summary:e</title>
<path fill="none" stroke="#000000" stroke-dasharray="5,2" d="M253.7456,-259.0444C227.8612,-268.4183 225.0786,-302.7 190.5,-302.7"/>
<polygon fill="#000000" stroke="#000000" points="260.1061,-257.9983 268.5843,-260.2523 264.053,-257.3492 268,-256.7 268,-256.7 268,-256.7 264.053,-257.3492 267.4157,-253.1477 260.1061,-257.9983 260.1061,-257.9983"/>
<ellipse fill="none" stroke="#000000" cx="256.9485" cy="-258.5177" rx="3.2" ry="3.2"/>
</g>
</g>
</svg>
